<?xml version="1.0" encoding="utf-8"?>
<!-- Generator: Adobe Illustrator 17.1.0, SVG Export Plug-In . SVG Version: 6.00 Build 0)  -->
<!DOCTYPE svg PUBLIC "-//W3C//DTD SVG 1.1//EN" "http://www.w3.org/Graphics/SVG/1.1/DTD/svg11.dtd">
<svg version="1.1" id="Layer_1" xmlns="http://www.w3.org/2000/svg" xmlns:xlink="http://www.w3.org/1999/xlink" x="0px" y="0px"
	 viewBox="215.8 186.1 772.7 187.7" enable-background="new 215.8 186.1 772.7 187.7" xml:space="preserve">
<g>
	<path fill="#FFFFFF" d="M361.7,236.8H374l7.8,58.1l9.3-58.1h11l9.1,58.1l7.8-58.1h11.9L417.6,321h-12.3l-9.1-56.8l-9.1,56.8H375
		L361.7,236.8z"/>
	<path fill="#FFFFFF" d="M452.4,236.6h12.5l16.6,84.2h-11.9l-3.5-18.8h-15.8l-3.5,18.8h-11.4L452.4,236.6z M464.5,291.4l-6-33.7
		l-6,33.7C452.4,291.4,464.5,291.4,464.5,291.4z"/>
	<path fill="#FFFFFF" d="M496.4,248.1H485v-11.2h34.3v11.2h-11.2v72.7h-11.7L496.4,248.1L496.4,248.1z"/>
	<path fill="#FFFFFF" d="M527.1,280.2v-2.6c0-28.9,10.8-41.2,23.7-41.2c4.1,0,6.3,0.6,9.3,1.9v12.3c-3-1.7-5.4-2.8-8.2-2.8
		c-7.3,0-12.9,7.8-12.9,29.6v2.8c0,22.7,5.6,29.6,13.2,29.6c2.6,0,5.2-0.9,8.2-2.6v11.7c-3,1.7-6,2.6-10.1,2.6
		C537,321.4,527.1,308.9,527.1,280.2z"/>
	<path fill="#FFFFFF" d="M573.5,236.8h11.9v36H602v-36h11.7v84H602v-36.5h-16.6v36.5h-11.9V236.8z"/>
	<path fill="#FFFFFF" d="M660.6,248.1h-11.4v-11.2h34.3v11.2h-11.2v72.7h-11.7L660.6,248.1L660.6,248.1z"/>
	<path fill="#FFFFFF" d="M695.4,236.8h11.9v36h16.6v-36h11.7v84h-11.7v-36.5h-16.6v36.5h-11.9V236.8z"/>
	<path fill="#FFFFFF" d="M750.4,236.8h31.1V248h-19.2v24.8h17.1V284h-17.1v25.5h19.4v11.2h-31.3V236.8z"/>
	<path fill="#FFFFFF" d="M818.6,236.8h29.6V248h-17.7v25.5h15.8v11.2h-15.8v36h-11.9L818.6,236.8L818.6,236.8z"/>
	<path fill="#FFFFFF" d="M860.9,236.8h11.7v84h-11.7V236.8z"/>
	<path fill="#FFFFFF" d="M887.9,236.8h11.9v72.7h17.1v11.2H888L887.9,236.8L887.9,236.8z"/>
	<path fill="#FFFFFF" d="M928.1,236.8h12.1l11.9,35.6l11.9-35.6h12v84h-11.2v-57.2l-12.5,36.9h-0.4l-12.5-36.9v57.2h-11.2
		L928.1,236.8L928.1,236.8z"/>
</g>
<g>
	<line fill="none" x1="988.5" y1="192.6" x2="215.8" y2="192.6"/>
	<rect x="215.8" y="186.1" fill="#FFFFFF" width="772.7" height="12.9"/>
</g>
<g>
	<line fill="none" x1="988.5" y1="367.4" x2="215.8" y2="367.4"/>
	<rect x="215.8" y="360.9" fill="#FFFFFF" width="772.7" height="12.9"/>
</g>
<g id="arrow-28-icon_2_">
	<path fill="#FFFFFF" d="M227.3,281.3c0,26.5,21.6,48.1,48.1,48.1s48.1-21.6,48.1-48.1s-21.6-48.1-48.1-48.1
		C248.8,232.9,227.3,254.5,227.3,281.3z M335.4,281.3c0,33-26.8,59.8-59.8,59.8s-59.8-26.8-59.8-59.8s26.8-59.8,59.8-59.8
		S335.4,248.3,335.4,281.3z M258.5,256.5l44.7,25l-44.7,25V256.5z"/>
</g>
</svg>
