<?xml version="1.0" encoding="utf-8"?>
<!-- Generator: Adobe Illustrator 17.1.0, SVG Export Plug-In . SVG Version: 6.00 Build 0)  -->
<!DOCTYPE svg PUBLIC "-//W3C//DTD SVG 1.1//EN" "http://www.w3.org/Graphics/SVG/1.1/DTD/svg11.dtd">
<svg version="1.1" id="Layer_1" xmlns="http://www.w3.org/2000/svg" xmlns:xlink="http://www.w3.org/1999/xlink" x="0px" y="0px"
	 viewBox="121 374.4 508.5 93.1" enable-background="new 121 374.4 508.5 93.1" xml:space="preserve">
<g>
	<line fill="none" x1="629.4" y1="377.6" x2="121" y2="377.6"/>
	<rect x="121" y="374.4" fill="#FFFFFF" width="508.5" height="6.4"/>
</g>
<g>
	<line fill="none" x1="629.4" y1="464.3" x2="121" y2="464.3"/>
	<rect x="121" y="461.1" fill="#FFFFFF" width="508.5" height="6.4"/>
</g>
<g id="arrow-28-icon_1_">
	<path fill="#FFFFFF" d="M126.7,421.6c0,13.2,10.7,23.9,23.9,23.9s23.9-10.7,23.9-23.9s-10.7-23.9-23.9-23.9
		C137.4,397.6,126.7,408.3,126.7,421.6z M180.3,421.6c0,16.4-13.3,29.7-29.7,29.7S121,438,121,421.6s13.3-29.7,29.7-29.7
		S180.3,405.2,180.3,421.6z M142.5,409l4.6-4.6l17.2,17.3L147.1,439l-4.6-4.6l12.7-12.7L142.5,409z"/>
</g>
<g>
	<path fill="#FFFFFF" d="M196.1,409.7h4.3l1.8,14.7l2.1-14.7h3.9l2.1,14.7l1.8-14.7h4.2l-3.6,24.1h-4.4l-2-14.3l-2,14.3h-4.4
		L196.1,409.7z"/>
	<path fill="#FFFFFF" d="M217.6,409.7h9.2v4h-5v6h4.4v4h-4.4v6.1h5.1v4h-9.3V409.7z"/>
	<path fill="#FFFFFF" d="M229,409.7h4.2v24.1H229V409.7z"/>
	<path fill="#FFFFFF" d="M238,413.7h-3v-4h10.1v4h-3v20.1H238V413.7z"/>
	<path fill="#FFFFFF" d="M246.9,409.7h9.2v4h-5v6h4.4v4h-4.4v6.1h5.1v4h-9.3V409.7z"/>
	<path fill="#FFFFFF" d="M258.2,409.7h4.3c4.3,0,7.4,2.3,7.4,7.7v0.3c0,3.1-1.2,5.1-2.8,6.3l3.2,9.8h-4.5l-2.7-8.4c0,0-0.1,0-0.1,0
		h-0.7v8.4h-4.2V409.7z M262.6,421.6c1.8,0,3.2-1.1,3.2-3.9v-0.3c0-3-1.4-3.8-3.3-3.8h-0.1v8H262.6z"/>
	<path fill="#FFFFFF" d="M271.9,409.7h9.2v4h-5v6h4.4v4h-4.4v6.1h5.1v4h-9.3V409.7z"/>
	<path fill="#FFFFFF" d="M288.8,409.7h4.2v24.1h-4.2V409.7z"/>
	<path fill="#FFFFFF" d="M295.5,409.7h3.9l4.2,12.2v-12.2h4.1v24.1H304l-4.4-12.8v12.8h-4.1V409.7z"/>
	<path fill="#FFFFFF" d="M310.2,409.7h8.8v4h-4.6v6.1h4v4h-4v10h-4.2V409.7z"/>
	<path fill="#FFFFFF" d="M320.1,422.3v-1.2c0-7.9,2.6-11.8,6.4-11.8c3.8,0,6.4,3.8,6.4,11.8v1.2c0,7.9-2.6,11.8-6.4,11.8
		C322.7,434.1,320.1,430.3,320.1,422.3z M328.7,422.3v-1.2c0-6.2-0.9-7.9-2.1-7.9c-1.3,0-2.1,1.7-2.1,7.9v1.2c0,6.2,0.9,7.9,2.1,7.9
		C327.8,430.2,328.7,428.5,328.7,422.3z"/>
	<path fill="#FFFFFF" d="M335,409.7h4.3c4.3,0,7.4,2.3,7.4,7.7v0.3c0,3.1-1.2,5.1-2.8,6.3l3.2,9.8h-4.5l-2.7-8.4c0,0-0.1,0-0.1,0
		h-0.7v8.4H335V409.7z M339.4,421.6c1.8,0,3.2-1.1,3.2-3.9v-0.3c0-3-1.4-3.8-3.3-3.8h-0.1v8H339.4z"/>
	<path fill="#FFFFFF" d="M348.7,409.7h4.2l3,8.8l3-8.8h4.2v24.1h-4v-14.5l-3.1,9.1h-0.1l-3.1-9.1v14.5h-4V409.7z"/>
	<path fill="#FFFFFF" d="M368.7,409.6h4.5l4.6,24.1h-4.2l-0.8-4.8H369l-0.8,4.8h-4.1L368.7,409.6z M372.2,425.2l-1.3-7.9l-1.3,7.9
		H372.2z"/>
	<path fill="#FFFFFF" d="M380.2,413.7h-3v-4h10.1v4h-3v20.1h-4.2V413.7z"/>
	<path fill="#FFFFFF" d="M389.2,409.7h4.2v24.1h-4.2V409.7z"/>
	<path fill="#FFFFFF" d="M395.5,422.3v-1.2c0-7.9,2.6-11.8,6.4-11.8c3.8,0,6.4,3.8,6.4,11.8v1.2c0,7.9-2.6,11.8-6.4,11.8
		C398.1,434.1,395.5,430.3,395.5,422.3z M404.1,422.3v-1.2c0-6.2-0.9-7.9-2.1-7.9c-1.3,0-2.1,1.7-2.1,7.9v1.2c0,6.2,0.9,7.9,2.1,7.9
		C403.2,430.2,404.1,428.5,404.1,422.3z"/>
	<path fill="#FFFFFF" d="M410.4,409.7h3.9l4.2,12.2v-12.2h4.1v24.1h-3.7l-4.4-12.8v12.8h-4.1V409.7z"/>
	<path fill="#FFFFFF" d="M425.1,409.7h9.2v4h-5v6h4.4v4h-4.4v6.1h5.1v4h-9.3V409.7z"/>
	<path fill="#FFFFFF" d="M436.4,409.7h3.9l4.2,12.2v-12.2h4.1v24.1H445l-4.4-12.8v12.8h-4.1V409.7z"/>
	<path fill="#FFFFFF" d="M456.6,409.7h8.8v4h-4.6v6.1h4v4h-4v10h-4.2V409.7z"/>
	<path fill="#FFFFFF" d="M466.5,422.3v-1.2c0-7.9,2.6-11.8,6.4-11.8c3.8,0,6.4,3.8,6.4,11.8v1.2c0,7.9-2.6,11.8-6.4,11.8
		C469.1,434.1,466.5,430.3,466.5,422.3z M475.1,422.3v-1.2c0-6.2-0.9-7.9-2.1-7.9c-1.3,0-2.1,1.7-2.1,7.9v1.2c0,6.2,0.9,7.9,2.1,7.9
		C474.2,430.2,475.1,428.5,475.1,422.3z"/>
	<path fill="#FFFFFF" d="M481.4,409.7h4.2v20.1h4.4v4h-8.6V409.7z"/>
	<path fill="#FFFFFF" d="M490.4,422.1v-0.8c0-7.8,3.3-11.8,8-11.8c1.3,0,2.3,0.3,3.2,0.7v4.4c-1-0.6-2-1-3.1-1
		c-2.4,0-3.9,2.4-3.9,7.6v1.2c0,6.3,1.9,7.7,3.6,7.7c0.1,0,0.2,0,0.4,0v-6.2h-2.1v-3.7h5.9v12.8c-1.5,0.7-2.8,1-4.4,1
		C493.9,433.9,490.4,430.5,490.4,422.1z"/>
	<path fill="#FFFFFF" d="M504.8,409.7h9.2v4h-5v6h4.4v4h-4.4v6.1h5.1v4h-9.3V409.7z"/>
	<path fill="#FFFFFF" d="M516.1,409.7h3.9l4.2,12.2v-12.2h4.1v24.1h-3.7l-4.4-12.8v12.8h-4.1V409.7z"/>
	<path fill="#FFFFFF" d="M536.3,409.7h4.2v24.1h-4.2V409.7z"/>
	<path fill="#FFFFFF" d="M543.1,409.7h3.9l4.2,12.2v-12.2h4.1v24.1h-3.7l-4.4-12.8v12.8h-4.1V409.7z"/>
	<path fill="#FFFFFF" d="M563.3,409.7h4.2v10.1l3.4-10.1h4.7l-4.1,10.2l4.1,13.9H571l-2.6-9.1l-0.9,2.6v6.5h-4.2V409.7z"/>
	<path fill="#FFFFFF" d="M577,426.7v-17.1h4.2v17.5c0,2.2,0.8,3,1.8,3c1.1,0,1.8-0.9,1.8-3v-17.5h4.2v17.1c0,5.1-2.5,7.3-6,7.3
		C579.6,434.1,577,431.8,577,426.7z M578.3,404.5h3.6v3.6h-3.6V404.5z M584.1,404.5h3.6v3.6h-3.6V404.5z"/>
	<path fill="#FFFFFF" d="M591.4,409.7h4.3c4.3,0,7.4,2.3,7.4,7.7v0.3c0,3.1-1.2,5.1-2.8,6.3l3.2,9.8h-4.5l-2.7-8.4c0,0-0.1,0-0.1,0
		h-0.7v8.4h-4.2V409.7z M595.8,421.6c1.8,0,3.2-1.1,3.2-3.9v-0.3c0-3-1.4-3.8-3.3-3.8h-0.1v8H595.8z"/>
	<path fill="#FFFFFF" d="M604.6,430.4l5.5-16.8h-5.3v-4h9.9v3.3l-5.5,16.8h5.5v4h-10.1V430.4z"/>
	<path fill="#FFFFFF" d="M616.8,409.7h9.2v4h-5v6h4.4v4H621v6.1h5.1v4h-9.3V409.7z"/>
</g>
</svg>
