<?xml version="1.0" encoding="utf-8"?>
<!-- Generator: Adobe Illustrator 15.0.0, SVG Export Plug-In . SVG Version: 6.00 Build 0)  -->
<!DOCTYPE svg PUBLIC "-//W3C//DTD SVG 1.1//EN" "http://www.w3.org/Graphics/SVG/1.1/DTD/svg11.dtd">
<svg version="1.1" id="Layer_1" xmlns="http://www.w3.org/2000/svg" xmlns:xlink="http://www.w3.org/1999/xlink" x="0px" y="0px"
	 width="355.454px" height="93.146px" viewBox="120.984 374.372 355.454 93.146"
	 enable-background="new 120.984 374.372 355.454 93.146" xml:space="preserve">
<g>
	<path fill="#FFFFFF" d="M195.179,399.532h6.745c7.388,0,12.634,4.068,12.634,12.955v0.428c0,5.567-2.355,9.101-5.567,11.135
		l6.316,17.131h-6.316l-5.567-15.203c-0.214,0-0.535,0.106-0.749,0.106h-1.499v15.203h-5.889v-41.755H195.179z M202.138,420.731
		c3.962,0,6.639-2.355,6.639-7.708v-0.321c0-5.674-2.891-7.602-6.745-7.602h-0.856v15.738h0.963V420.731z"/>
	<path fill="#FFFFFF" d="M220.982,399.532h15.417v5.567h-9.528v12.312h8.458v5.567h-8.458v12.634h9.636v5.567h-15.524V399.532z"/>
	<path fill="#FFFFFF" d="M241.431,421.052v-1.285c0-13.598,5.781-20.45,13.49-20.45c2.248,0,3.962,0.428,5.46,1.178v6.21
		c-1.819-1.071-3.426-1.82-5.246-1.82c-4.496,0-7.708,4.711-7.708,14.668v1.82c0,11.242,3.533,14.881,7.28,14.881
		c0.535,0,0.749-0.106,1.392-0.214v-12.526h-4.497v-5.246h9.743v21.52c-2.462,1.178-4.39,1.714-6.959,1.714
		C247.32,441.502,241.431,435.292,241.431,421.052z"/>
	<path fill="#FFFFFF" d="M268.625,399.532h5.782v41.648h-5.782V399.532z"/>
	<path fill="#FFFFFF" d="M281.045,439.682v-6.21c2.569,1.606,4.711,2.463,6.745,2.463c2.462,0,4.39-1.393,4.39-4.283v-0.106
		c0-2.355-0.75-4.069-4.604-8.673c-5.14-6.103-6.96-8.779-6.96-13.383v-0.107c0-6.103,4.176-10.171,9.529-10.171
		c2.783,0,4.604,0.535,6.424,1.499v6.209c-2.248-1.392-3.854-2.034-5.781-2.034c-2.355,0-4.283,1.606-4.283,4.176v0.107
		c0,2.355,0.75,3.533,4.604,8.03c5.567,6.531,6.959,9.315,6.959,14.026v0.106c0,6.103-4.39,10.172-9.743,10.172
		C285.649,441.608,283.293,440.859,281.045,439.682z"/>
	<path fill="#FFFFFF" d="M307.062,405.1h-5.675v-5.567h17.023v5.567h-5.567v36.081h-5.781V405.1z"/>
	<path fill="#FFFFFF" d="M324.192,399.532h15.418v5.567h-9.529v12.312h8.458v5.567h-8.458v12.634h9.636v5.567h-15.524V399.532z"/>
	<path fill="#FFFFFF" d="M346.033,399.532h6.745c7.387,0,12.634,4.068,12.634,12.955v0.428c0,5.567-2.355,9.101-5.567,11.135
		l6.316,17.131h-6.316l-5.567-15.203c-0.215,0-0.536,0.106-0.75,0.106h-1.499v15.203h-5.889v-41.755H346.033z M352.992,420.731
		c3.961,0,6.638-2.355,6.638-7.708v-0.321c0-5.674-2.891-7.602-6.745-7.602h-0.856v15.738h0.964V420.731z"/>
	<path fill="#FFFFFF" d="M383.72,399.532h5.567l8.993,25.16v-25.16h5.675v41.648h-5.246l-9.314-26.124v26.124h-5.675V399.532
		L383.72,399.532z"/>
	<path fill="#FFFFFF" d="M410.593,421.266v-1.82c0-14.025,4.39-20.45,10.707-20.45c6.316,0,10.706,6.424,10.706,20.45v1.82
		c0,14.026-4.39,20.45-10.706,20.45C414.983,441.716,410.593,435.292,410.593,421.266z M426.011,421.266v-1.82
		c0-10.707-1.928-15.096-4.711-15.096c-2.784,0-4.711,4.39-4.711,15.096v1.82c0,10.707,1.927,15.096,4.711,15.096
		C424.083,436.362,426.011,431.973,426.011,421.266z"/>
	<path fill="#FFFFFF" d="M436.074,399.532h6.103l3.854,28.801l4.604-28.801h5.461l4.496,28.801l3.854-28.801h5.889l-6.53,41.755
		h-6.104l-4.496-28.158l-4.497,28.158h-5.995L436.074,399.532z"/>
</g>
<g>
	<line fill="none" x1="476.438" y1="377.584" x2="120.984" y2="377.584"/>
	<rect x="120.984" y="374.372" fill="#FFFFFF" width="355.454" height="6.424"/>
</g>
<g>
	<line fill="none" x1="476.438" y1="464.307" x2="120.984" y2="464.307"/>
	<rect x="120.984" y="461.095" fill="#FFFFFF" width="355.454" height="6.424"/>
</g>
<g id="arrow-28-icon_1_">
	<path fill="#FFFFFF" d="M126.657,421.588c0,13.169,10.707,23.875,23.876,23.875s23.875-10.706,23.875-23.875
		c0-13.169-10.706-23.876-23.875-23.876C137.365,397.605,126.657,408.312,126.657,421.588z M180.297,421.588
		c0,16.381-13.276,29.656-29.657,29.656s-29.656-13.275-29.656-29.656c0-16.381,13.275-29.657,29.656-29.657
		S180.297,405.207,180.297,421.588z M142.503,408.954l4.604-4.604l17.237,17.344l-17.237,17.345l-4.604-4.604l12.741-12.741
		L142.503,408.954z"/>
</g>
</svg>
