<?xml version="1.0" encoding="utf-8"?>
<!-- Generator: Adobe Illustrator 17.1.0, SVG Export Plug-In . SVG Version: 6.00 Build 0)  -->
<!DOCTYPE svg PUBLIC "-//W3C//DTD SVG 1.1//EN" "http://www.w3.org/Graphics/SVG/1.1/DTD/svg11.dtd">
<svg version="1.1" id="Layer_1" xmlns="http://www.w3.org/2000/svg" xmlns:xlink="http://www.w3.org/1999/xlink" x="0px" y="0px"
	 viewBox="516.8 420.2 320 77.7" style="enable-background:new 516.8 420.2 320 77.7;" xml:space="preserve">
<style type="text/css">
	.st0{fill:none;}
	.st1{fill:#FFFFFF;}
</style>
<g>
	<g>
		<line class="st0" x1="836.8" y1="422.9" x2="516.8" y2="422.9"/>
	</g>
	<g>
		<rect x="516.8" y="420.2" class="st1" width="320" height="5.3"/>
	</g>
</g>
<g>
	<g>
		<line class="st0" x1="836.8" y1="495.3" x2="516.8" y2="495.3"/>
	</g>
	<g>
		<rect x="516.8" y="492.6" class="st1" width="320" height="5.3"/>
	</g>
</g>
<g id="arrow-28-icon_2_">
	<g>
		<path class="st1" d="M521.6,459.7c0,11,8.9,19.9,19.9,19.9c11,0,19.9-8.9,19.9-19.9s-8.9-19.9-19.9-19.9
			C530.5,439.6,521.6,448.6,521.6,459.7z M566.3,459.7c0,13.7-11.1,24.8-24.8,24.8c-13.7,0-24.8-11.1-24.8-24.8s11.1-24.8,24.8-24.8
			C555.2,434.9,566.3,446,566.3,459.7z M534.5,449.4l18.5,10.4l-18.5,10.4V449.4z"/>
	</g>
</g>
<g>
	<path class="st1" d="M576,445.6h5.1l2.7,18.9l2.7-18.9h5l-5.2,29h-5.2L576,445.6z"/>
	<path class="st1" d="M595.7,445.6h5v28.9h-5V445.6z"/>
	<path class="st1" d="M606.3,445.6h4.7c6.5,0,10.1,4.7,10.1,14v1c0,9.3-3.7,14-10.1,14h-4.7V445.6z M611.5,470
		c2.4,0,4.5-2.1,4.5-9.3v-1c0-7.2-2.1-9.3-4.5-9.3h-0.2V470H611.5z"/>
	<path class="st1" d="M626.1,445.6h11.1v4.8h-6v7.2h5.3v4.8h-5.3v7.4h6.2v4.8h-11.2V445.6z"/>
	<path class="st1" d="M641.3,460.9v-1.5c0-9.6,3.1-14.1,7.7-14.1s7.7,4.6,7.7,14.1v1.5c0,9.6-3.1,14.1-7.7,14.1
		S641.3,470.4,641.3,460.9z M651.5,460.9v-1.5c0-7.4-1-9.5-2.6-9.5s-2.6,2.1-2.6,9.5v1.5c0,7.4,1,9.5,2.6,9.5
		S651.5,468.3,651.5,460.9z"/>
	<path class="st1" d="M674.7,445.6h5.4l5.5,29h-5l-1-5.7H675l-0.9,5.7h-4.9L674.7,445.6z M678.9,464.3l-1.5-9.6l-1.6,9.6H678.9z"/>
	<path class="st1" d="M689.6,445.6h4.7l5.1,14.6v-14.6h4.9v28.9h-4.5l-5.3-15.3v15.3h-4.9V445.6z"/>
	<path class="st1" d="M709.2,473.6v-5.3c1.8,1,3.2,1.6,4.5,1.6c1.4,0,2.7-0.7,2.7-2.5v-0.1c0-1.3-0.4-2.3-2.8-5
		c-3.4-3.9-4.8-5.7-4.8-9.3V453c0-4.6,3-7.6,7-7.6c2,0,3.2,0.3,4.5,0.9v5.3c-1.6-0.9-2.5-1.3-3.8-1.3c-1.4,0-2.6,0.9-2.6,2.5v0.1
		c0,1.4,0.4,1.9,2.8,4.6c4,4.6,4.8,6.4,4.8,9.7v0.1c0,4.5-3.2,7.6-7.2,7.6C712.3,474.8,710.6,474.3,709.2,473.6z"/>
	<path class="st1" d="M725,460.6v-1c0-10.2,3.8-14.2,8.5-14.2c1.4,0,2.2,0.2,3.3,0.7v5.2c-1-0.6-1.9-1-2.8-1c-2.2,0-3.8,2-3.8,9.2
		v1.1c0,7.7,1.6,9.2,3.9,9.2c0.8,0,1.8-0.3,2.8-0.9v5c-1.2,0.7-2.3,0.9-3.7,0.9C728.5,474.8,725,470.7,725,460.6z"/>
	<path class="st1" d="M741.9,445.6h5v12h4.4v-12h5v28.9h-5v-12.2H747v12.2h-5V445.6z"/>
	<path class="st1" d="M765.9,445.6h5.4l5.5,29h-5l-1-5.7h-4.6l-0.9,5.7h-4.9L765.9,445.6z M770,464.3l-1.5-9.6l-1.6,9.6H770z"/>
	<path class="st1" d="M780.5,466.1v-20.5h5v21c0,2.6,0.9,3.6,2.2,3.6c1.3,0,2.2-1,2.2-3.6v-21h5v20.5c0,6.1-3.1,8.8-7.2,8.8
		C783.5,475,780.5,472.2,780.5,466.1z"/>
	<path class="st1" d="M800.3,445.6h11.1v4.8h-6v7.2h5.3v4.8h-5.3v7.4h6.2v4.8h-11.2V445.6z"/>
	<path class="st1" d="M816.4,445.6h4.7l5.1,14.6v-14.6h4.9v28.9h-4.5l-5.3-15.3v15.3h-4.9V445.6z"/>
</g>
</svg>
