<?xml version="1.0" encoding="utf-8"?>
<!-- Generator: Adobe Illustrator 15.0.0, SVG Export Plug-In . SVG Version: 6.00 Build 0)  -->
<!DOCTYPE svg PUBLIC "-//W3C//DTD SVG 1.1//EN" "http://www.w3.org/Graphics/SVG/1.1/DTD/svg11.dtd">
<svg version="1.1" id="Layer_1" xmlns="http://www.w3.org/2000/svg" xmlns:xlink="http://www.w3.org/1999/xlink" x="0px" y="0px"
	 width="595.279px" height="93.146px" viewBox="0 374.372 595.279 93.146" enable-background="new 0 374.372 595.279 93.146"
	 xml:space="preserve">
<g>
	<path fill="#FFFFFF" d="M74.303,399.532h5.996c6.852,0,12.848,3.319,12.848,10.492v0.214c0,5.567-3.212,8.244-6.531,9.636
		c3.961,1.392,7.066,4.069,7.066,9.529v0.428c0,7.174-5.567,11.242-13.49,11.242h-5.889V399.532z M80.727,417.626
		c4.068,0,6.638-2.355,6.638-6.531v-0.107c0-4.069-2.569-6.103-6.316-6.103h-0.856v12.634h0.535V417.626z M80.727,435.72
		c4.176,0,7.066-2.248,7.066-6.316v-0.214c0-4.176-2.677-6.531-6.853-6.531h-0.749v13.062H80.727z"/>
	<path fill="#FFFFFF" d="M99.571,429.51v-29.978h5.781v30.514c0,4.39,1.713,6.316,4.068,6.316c2.463,0,4.176-1.927,4.176-6.316
		v-30.514h5.781v29.871c0,8.244-4.068,12.205-9.957,12.205C103.639,441.716,99.571,437.647,99.571,429.51z"/>
	<path fill="#FFFFFF" d="M132.332,424.264l-8.03-24.731h6.103l4.926,17.023l5.031-17.023h5.996l-8.03,24.731v16.917h-5.889v-16.917
		H132.332z"/>
	<path fill="#FFFFFF" d="M163.166,399.532h6.21c8.779,0,14.133,6.745,14.133,20.128v1.285c0,13.383-5.354,20.128-14.133,20.128
		h-6.21V399.532z M169.911,435.827c4.283,0,7.709-3.962,7.709-14.775v-1.285c0-10.814-3.426-14.775-7.709-14.775h-0.856v30.942
		h0.856V435.827z"/>
	<path fill="#FFFFFF" d="M195.5,399.425h6.21l8.244,41.756h-5.889l-1.713-9.315h-7.816l-1.713,9.315h-5.674L195.5,399.425z
		 M201.496,426.619l-2.998-16.702l-2.998,16.702H201.496z"/>
	<path fill="#FFFFFF" d="M212.202,399.532h5.996l4.925,30.085l4.925-30.085h5.781l-7.815,41.755h-6.103L212.202,399.532z"/>
	<path fill="#FFFFFF" d="M239.504,399.532h5.781v41.648h-5.781V399.532z"/>
	<path fill="#FFFFFF" d="M252.887,399.532h6.21c8.779,0,14.133,6.745,14.133,20.128v1.285c0,13.383-5.354,20.128-14.133,20.128
		h-6.21V399.532z M259.74,435.827c4.282,0,7.708-3.962,7.708-14.775v-1.285c0-10.814-3.426-14.775-7.708-14.775h-0.856v30.942h0.856
		V435.827z"/>
	<path fill="#FFFFFF" d="M279.011,421.266v-1.82c0-14.025,4.39-20.45,10.706-20.45c6.317,0,10.707,6.424,10.707,20.45v1.82
		c0,14.026-4.39,20.45-10.707,20.45C283.401,441.716,279.011,435.292,279.011,421.266z M294.428,421.266v-1.82
		c0-10.707-1.927-15.096-4.711-15.096c-2.783,0-4.711,4.39-4.711,15.096v1.82c0,10.707,1.928,15.096,4.711,15.096
		C292.501,436.362,294.428,431.973,294.428,421.266z"/>
	<path fill="#FFFFFF" d="M306.954,399.532h14.668v5.567h-8.779v12.633h7.815v5.568h-7.815v17.88h-5.889V399.532z"/>
	<path fill="#FFFFFF" d="M327.725,399.532h14.668v5.567h-8.779v12.633h7.815v5.568h-7.815v17.88h-5.889V399.532z"/>
	<path fill="#FFFFFF" d="M359.524,421.052v-1.285c0-14.347,5.353-20.45,11.776-20.45c2.034,0,3.105,0.321,4.604,0.964v6.103
		c-1.499-0.856-2.677-1.392-4.068-1.392c-3.641,0-6.424,3.854-6.424,14.668v1.392c0,11.242,2.783,14.667,6.53,14.667
		c1.285,0,2.569-0.428,4.068-1.284v5.781c-1.499,0.856-2.997,1.285-5.032,1.285C364.555,441.502,359.524,435.292,359.524,421.052z"
		/>
	<path fill="#FFFFFF" d="M380.294,421.266v-1.82c0-14.025,4.39-20.45,10.706-20.45c6.317,0,10.707,6.424,10.707,20.45v1.82
		c0,14.026-4.39,20.45-10.707,20.45C384.684,441.716,380.294,435.292,380.294,421.266z M395.711,421.266v-1.82
		c0-10.707-1.927-15.096-4.711-15.096c-2.783,0-4.711,4.39-4.711,15.096v1.82c0,10.707,1.928,15.096,4.711,15.096
		C393.784,436.362,395.711,431.973,395.711,421.266z"/>
	<path fill="#FFFFFF" d="M407.381,421.266v-1.82c0-14.025,4.39-20.45,10.707-20.45c6.316,0,10.706,6.424,10.706,20.45v1.82
		c0,14.026-4.39,20.45-10.706,20.45C411.771,441.716,407.381,435.292,407.381,421.266z M422.906,421.266v-1.82
		c0-10.707-1.927-15.096-4.711-15.096c-2.783,0-4.711,4.39-4.711,15.096v1.82c0,10.707,1.928,15.096,4.711,15.096
		C420.979,436.362,422.906,431.973,422.906,421.266z"/>
	<path fill="#FFFFFF" d="M435.325,399.532h5.889v36.081h8.458v5.567h-14.347V399.532z"/>
	<path fill="#FFFFFF" d="M465.303,399.532h6.104l3.854,28.801l4.604-28.801h5.46l4.497,28.801l3.854-28.801h5.888l-6.53,41.755
		h-6.103l-4.497-28.158l-4.497,28.158h-5.995L465.303,399.532z"/>
	<path fill="#FFFFFF" d="M510.271,399.425h6.21l8.243,41.756h-5.888l-1.714-9.315h-7.815l-1.713,9.315h-5.675L510.271,399.425z
		 M516.373,426.619l-2.998-16.702l-2.998,16.702H516.373z"/>
	<path fill="#FFFFFF" d="M532.112,405.1h-5.674v-5.567h17.023v5.567h-5.568v36.081h-5.781V405.1z"/>
	<path fill="#FFFFFF" d="M549.349,399.532h15.418v5.567h-9.529v12.312h8.458v5.567h-8.458v12.634h9.636v5.567h-15.524V399.532z"/>
	<path fill="#FFFFFF" d="M571.191,399.532h6.745c7.387,0,12.634,4.068,12.634,12.955v0.428c0,5.567-2.355,9.101-5.567,11.135
		l6.316,17.131h-6.316l-5.567-15.203c-0.215,0-0.536,0.106-0.75,0.106h-1.605v15.203h-5.889V399.532z M578.15,420.731
		c3.962,0,6.638-2.355,6.638-7.708v-0.321c0-5.674-2.891-7.602-6.745-7.602h-0.963v15.738h1.07V420.731z"/>
</g>
<g>
	<line fill="none" x1="595.28" y1="377.584" x2="0" y2="377.584"/>
	<rect x="0" y="374.372" fill="#FFFFFF" width="595.279" height="6.424"/>
</g>
<g>
	<line fill="none" x1="595.28" y1="464.307" x2="0" y2="464.307"/>
	<rect x="0" y="461.095" fill="#FFFFFF" width="595.279" height="6.424"/>
</g>
<g id="arrow-28-icon">
	<path fill="#FFFFFF" d="M5.781,421.588c0,13.169,10.706,23.875,23.875,23.875s23.876-10.706,23.876-23.875
		c0-13.169-10.707-23.876-23.876-23.876C16.488,397.605,5.781,408.312,5.781,421.588z M59.314,421.588
		c0,16.381-13.275,29.656-29.657,29.656C13.276,451.244,0,437.969,0,421.588c0-16.381,13.275-29.657,29.656-29.657
		C46.038,391.931,59.314,405.207,59.314,421.588z M21.627,408.954l4.604-4.604l17.237,17.344l-17.237,17.345l-4.604-4.604
		l12.634-12.741L21.627,408.954z"/>
</g>
</svg>
