<?xml version="1.0" encoding="utf-8"?>
<!-- Generator: Adobe Illustrator 17.1.0, SVG Export Plug-In . SVG Version: 6.00 Build 0)  -->
<!DOCTYPE svg PUBLIC "-//W3C//DTD SVG 1.1//EN" "http://www.w3.org/Graphics/SVG/1.1/DTD/svg11.dtd">
<svg version="1.1" id="Layer_1" xmlns="http://www.w3.org/2000/svg" xmlns:xlink="http://www.w3.org/1999/xlink" x="0px" y="0px"
	 viewBox="0 374.4 595.3 93.1" style="enable-background:new 0 374.4 595.3 93.1;" xml:space="preserve">
<style type="text/css">
	.st0{fill:none;}
	.st1{fill:#FFFFFF;}
</style>
<g>
	<g>
		<line class="st0" x1="595.3" y1="377.6" x2="0" y2="377.6"/>
	</g>
	<g>
		<rect y="374.4" class="st1" width="595.3" height="6.4"/>
	</g>
</g>
<g>
	<g>
		<line class="st0" x1="595.3" y1="464.3" x2="0" y2="464.3"/>
	</g>
	<g>
		<rect y="461.1" class="st1" width="595.3" height="6.4"/>
	</g>
</g>
<g id="arrow-28-icon">
	<g>
		<path class="st1" d="M5.8,421.6c0,13.2,10.7,23.9,23.9,23.9s23.9-10.7,23.9-23.9s-10.7-23.9-23.9-23.9
			C16.5,397.6,5.8,408.3,5.8,421.6z M59.3,421.6c0,16.4-13.3,29.7-29.7,29.7C13.3,451.2,0,438,0,421.6c0-16.4,13.3-29.7,29.7-29.7
			C46,391.9,59.3,405.2,59.3,421.6z M21.6,409l4.6-4.6l17.2,17.3L26.2,439l-4.6-4.6l12.6-12.7L21.6,409z"/>
	</g>
</g>
<g>
	<path class="st1" d="M74.8,403.3h5.6c7.7,0,12.1,5.6,12.1,16.7v1.2c0,11.1-4.4,16.7-12.1,16.7h-5.6V403.3z M81,432.2
		c2.9,0,5.3-2.5,5.3-11.1v-1.2c0-8.6-2.5-11.1-5.3-11.1h-0.2v23.5H81z"/>
	<path class="st1" d="M102.7,403.2h6.4l6.6,34.6h-6l-1.1-6.8h-5.5l-1.1,6.8h-5.8L102.7,403.2z M107.6,425.5l-1.8-11.4l-1.9,11.4
		H107.6z"/>
	<path class="st1" d="M118.2,403.3h6.1l3.3,22.5l3.3-22.5h5.9l-6.2,34.6h-6.2L118.2,403.3z"/>
	<path class="st1" d="M141.6,403.3h6v34.5h-6V403.3z"/>
	<path class="st1" d="M154.2,403.3h5.6c7.7,0,12.1,5.6,12.1,16.7v1.2c0,11.1-4.4,16.7-12.1,16.7h-5.6V403.3z M160.5,432.2
		c2.9,0,5.3-2.5,5.3-11.1v-1.2c0-8.6-2.5-11.1-5.3-11.1h-0.2v23.5H160.5z"/>
	<path class="st1" d="M177.3,421.4v-1.8c0-11.4,3.7-16.9,9.2-16.9c5.5,0,9.2,5.5,9.2,16.9v1.8c0,11.4-3.7,16.9-9.2,16.9
		C181,438.2,177.3,432.8,177.3,421.4z M189.5,421.4v-1.8c0-8.9-1.2-11.3-3.1-11.3c-1.8,0-3.1,2.5-3.1,11.3v1.8
		c0,8.9,1.2,11.3,3.1,11.3C188.2,432.7,189.5,430.3,189.5,421.4z"/>
	<path class="st1" d="M201.5,403.3h12.6v5.7h-6.6v8.7h5.7v5.7h-5.7v14.4h-6V403.3z"/>
	<path class="st1" d="M219.7,403.3h12.6v5.7h-6.6v8.7h5.7v5.7h-5.7v14.4h-6V403.3z"/>
	<path class="st1" d="M248.2,421.1v-1.2c0-12.1,4.5-16.9,10.1-16.9c1.7,0,2.7,0.2,3.9,0.8v6.2c-1.2-0.7-2.2-1.1-3.4-1.1
		c-2.7,0-4.6,2.4-4.6,11v1.3c0,9.1,1.9,11,4.7,11c0.9,0,2.1-0.3,3.4-1.1v5.9c-1.4,0.8-2.7,1-4.4,1
		C252.3,438,248.2,433.1,248.2,421.1z"/>
	<path class="st1" d="M266.4,421.4v-1.8c0-11.4,3.7-16.9,9.2-16.9c5.5,0,9.2,5.5,9.2,16.9v1.8c0,11.4-3.7,16.9-9.2,16.9
		C270.1,438.2,266.4,432.8,266.4,421.4z M278.7,421.4v-1.8c0-8.9-1.2-11.3-3.1-11.3c-1.8,0-3.1,2.5-3.1,11.3v1.8
		c0,8.9,1.2,11.3,3.1,11.3C277.4,432.7,278.7,430.3,278.7,421.4z"/>
	<path class="st1" d="M290.1,421.4v-1.8c0-11.4,3.7-16.9,9.2-16.9s9.2,5.5,9.2,16.9v1.8c0,11.4-3.7,16.9-9.2,16.9
		S290.1,432.8,290.1,421.4z M302.3,421.4v-1.8c0-8.9-1.2-11.3-3.1-11.3c-1.8,0-3.1,2.5-3.1,11.3v1.8c0,8.9,1.2,11.3,3.1,11.3
		C301.1,432.7,302.3,430.3,302.3,421.4z"/>
	<path class="st1" d="M314.3,403.3h6V432h6.4v5.7h-12.4V403.3z"/>
	<path class="st1" d="M341.2,403.3h6.2l2.5,21.1l3-21.1h5.6l3,21.1l2.6-21.1h6l-5.2,34.6h-6.3l-2.9-20.4l-2.9,20.4h-6.3L341.2,403.3
		z"/>
	<path class="st1" d="M379.3,403.2h6.4l6.6,34.6h-6l-1.1-6.8h-5.5l-1.1,6.8h-5.8L379.3,403.2z M384.2,425.5l-1.8-11.4l-1.9,11.4
		H384.2z"/>
	<path class="st1" d="M398.8,409h-4.2v-5.7H409v5.7h-4.2v28.8h-6V409z"/>
	<path class="st1" d="M414.5,403.3h13.2v5.7h-7.2v8.6h6.4v5.7h-6.4v8.8h7.3v5.7h-13.4V403.3z"/>
	<path class="st1" d="M433.7,403.3h6.2c6.2,0,10.6,3.3,10.6,11v0.4c0,4.5-1.8,7.3-4,9.1l4.6,14h-6.4l-3.9-12c0,0-0.1,0-0.1,0h-1v12
		h-6V403.3z M440,420.3c2.6,0,4.5-1.5,4.5-5.6v-0.4c0-4.3-2.1-5.5-4.7-5.5h-0.1v11.4H440z"/>
	<path class="st1" d="M467.1,403.3h6v14.4l4.9-14.4h6.8l-5.8,14.6l5.9,19.9h-6.7l-3.7-13.1l-1.3,3.8v9.3h-6V403.3z"/>
	<path class="st1" d="M494,403.2h6.4l6.6,34.6h-6l-1.1-6.8h-5.5l-1.1,6.8h-5.8L494,403.2z M498.9,425.5l-1.8-11.4l-1.9,11.4H498.9z"
		/>
	<path class="st1" d="M511.4,427.7v-24.4h6v25c0,3.1,1.1,4.3,2.6,4.3s2.6-1.2,2.6-4.3v-25h6v24.4c0,7.2-3.6,10.5-8.6,10.5
		C515,438.2,511.4,434.9,511.4,427.7z"/>
	<path class="st1" d="M534.9,403.3h12.6v5.7h-6.6v8.7h5.7v5.7h-5.7v14.4h-6V403.3z"/>
	<path class="st1" d="M553.1,403.3h13.2v5.7h-7.2v8.6h6.4v5.7h-6.4v8.8h7.3v5.7h-13.4V403.3z"/>
	<path class="st1" d="M572.4,403.3h5.6l6.1,17.4v-17.4h5.9v34.5h-5.3l-6.4-18.3v18.3h-5.9V403.3z"/>
</g>
</svg>
