<?xml version="1.0" encoding="utf-8"?>
<!-- Generator: Adobe Illustrator 15.0.0, SVG Export Plug-In . SVG Version: 6.00 Build 0)  -->
<!DOCTYPE svg PUBLIC "-//W3C//DTD SVG 1.1//EN" "http://www.w3.org/Graphics/SVG/1.1/DTD/svg11.dtd">
<svg version="1.1" id="Layer_1" xmlns="http://www.w3.org/2000/svg" xmlns:xlink="http://www.w3.org/1999/xlink" x="0px" y="0px"
	 width="595.28px" height="483.658px" viewBox="-0.001 -1 595.28 483.658" enable-background="new -0.001 -1 595.28 483.658"
	 xml:space="preserve">
<path id="twitter-icon" fill="#FFFFFF" d="M595.28,56.244c-21.879,9.665-45.351,16.355-70.096,19.224
	c25.171-15.188,44.5-39.084,53.739-67.547c-23.471,14.019-49.704,24.215-77.529,29.737C478.985,13.868,447.335-1,412.287-1
	c-78.91,0-136.792,73.6-118.95,149.961C191.911,143.757,101.85,95.222,41.631,21.303C9.557,76.211,25.063,148.111,79.546,184.328
	c-19.966-0.638-38.871-6.16-55.438-15.4c-1.381,56.607,39.189,109.392,97.921,121.286c-17.205,4.674-36.004,5.629-55.227,2.125
	c15.506,48.535,60.749,83.901,114.064,84.751C129.463,417.448,64.89,435.396-0.001,427.75
	c54.058,34.729,118.312,54.908,187.133,54.908c226.748,0,354.832-191.488,347.186-363.328
	C558.108,102.125,578.818,80.565,595.28,56.244z"/>
</svg>
