<?xml version="1.0" encoding="utf-8"?>
<!-- Generator: Adobe Illustrator 15.0.0, SVG Export Plug-In . SVG Version: 6.00 Build 0)  -->
<!DOCTYPE svg PUBLIC "-//W3C//DTD SVG 1.1//EN" "http://www.w3.org/Graphics/SVG/1.1/DTD/svg11.dtd">
<svg version="1.1" id="Layer_1" xmlns="http://www.w3.org/2000/svg" xmlns:xlink="http://www.w3.org/1999/xlink" x="0px" y="0px"
	 width="595.279px" height="588.056px" viewBox="0 126.917 595.279 588.056" enable-background="new 0 126.917 595.279 588.056"
	 xml:space="preserve">
<path fill="#FFFFFF" d="M297.64,126.917C133.216,126.917,0,258.543,0,420.945c0,162.401,133.216,294.027,297.64,294.027
	c164.425,0,297.64-131.626,297.64-294.027C595.28,258.543,462.065,126.917,297.64,126.917z M297.64,699.08
	c-155.466,0-281.457-124.547-281.457-278.135c0-153.588,125.991-277.99,281.457-277.99c155.467,0,281.458,124.546,281.458,278.135
	C579.098,574.678,453.107,699.08,297.64,699.08z"/>
<polygon fill="#FFFFFF" points="209.938,567.164 442.414,424.558 209.938,282.095 "/>
</svg>
