<?xml version="1.0" encoding="utf-8"?>
<!-- Generator: Adobe Illustrator 15.0.0, SVG Export Plug-In . SVG Version: 6.00 Build 0)  -->
<!DOCTYPE svg PUBLIC "-//W3C//DTD SVG 1.1//EN" "http://www.w3.org/Graphics/SVG/1.1/DTD/svg11.dtd">
<svg version="1.1" id="Layer_1" xmlns="http://www.w3.org/2000/svg" xmlns:xlink="http://www.w3.org/1999/xlink" x="0px" y="0px"
	 width="595.387px" height="595.28px" viewBox="-1 -1 595.387 595.28" enable-background="new -1 -1 595.387 595.28"
	 xml:space="preserve">
<path id="instagram-6-icon" fill="#FFFFFF" d="M525.611,250.825h-51.768c3.826,14.669,6.059,30.083,6.059,45.709
	c0,101.197-81.957,183.154-183.154,183.154c-101.198,0-183.155-81.957-183.155-183.154c0-15.839,2.126-31.253,6.059-45.709H67.883
	v251.931c0,12.649,10.205,22.854,22.854,22.854h412.125c12.65,0,22.854-10.205,22.854-22.854L525.611,250.825L525.611,250.825z
	 M525.611,90.524c0-12.649-10.204-22.854-22.854-22.854h-68.67c-12.649,0-22.854,10.205-22.854,22.854v68.67
	c0,12.649,10.205,22.854,22.854,22.854h68.67c12.65,0,22.854-10.205,22.854-22.854V90.524z M296.534,182.155
	c-63.249,0-114.592,51.236-114.592,114.591c0,63.355,51.237,114.592,114.592,114.592s114.592-51.236,114.592-114.592
	C411.126,233.392,359.889,182.155,296.534,182.155 M525.611,594.28H67.67C29.721,594.28-1,563.56-1,525.504V67.67
	C-1,29.721,29.721-1,67.67-1h458.047c37.949,0,68.67,30.721,68.67,68.67v458.047C594.281,563.56,563.56,594.28,525.611,594.28"/>
</svg>
