<?xml version="1.0" encoding="utf-8"?>
<!-- Generator: Adobe Illustrator 15.0.0, SVG Export Plug-In . SVG Version: 6.00 Build 0)  -->
<!DOCTYPE svg PUBLIC "-//W3C//DTD SVG 1.1//EN" "http://www.w3.org/Graphics/SVG/1.1/DTD/svg11.dtd">
<svg version="1.1" id="Layer_1" xmlns="http://www.w3.org/2000/svg" xmlns:xlink="http://www.w3.org/1999/xlink" x="0px" y="0px"
	 width="595.223px" height="142.69px" viewBox="0.057 9.997 595.223 142.69" enable-background="new 0.057 9.997 595.223 142.69"
	 xml:space="preserve">
<g id="Layer_1_1_">
</g>
<g id="Layer_2">
	<g>
		<polygon id="XMLID_3020_" fill="#FFFFFF" points="198.11,11.071 198.11,20.833 208.646,20.833 208.646,63.991 220.195,63.991 
			220.195,20.833 230.433,20.833 230.433,11.071 		"/>
		<polygon id="XMLID_3019_" fill="#FFFFFF" points="268.471,11.071 268.471,33.036 250.077,33.036 250.077,11.071 238.409,11.071 
			238.409,63.991 250.077,63.991 250.077,42.798 268.471,42.798 268.471,63.991 280.079,63.991 280.079,11.071 		"/>
		<polygon id="XMLID_3018_" fill="#FFFFFF" points="290.973,11.071 290.973,63.991 322.88,63.991 322.88,54.229 302.578,54.229 
			302.578,43.037 320.439,43.037 320.439,33.275 302.578,33.275 302.578,20.833 321.808,20.833 321.808,11.071 		"/>
		<path id="XMLID_3015_" fill="#FFFFFF" d="M368.24,64.705c-16.43,0-27.205-12.501-27.205-27.562
			c0-15.239,10.953-27.146,27.324-27.146c16.549,0,27.204,11.37,27.204,27.146C395.564,52.443,384.611,64.705,368.24,64.705
			 M368.36,20.179c-9.049,0-15.356,8.155-15.356,16.966c0,9.703,6.965,17.382,15.237,17.382c9.584,0,15.357-8.513,15.357-17.382
			C383.598,27.858,377.586,20.179,368.36,20.179"/>
		<path id="XMLID_3014_" fill="#FFFFFF" d="M428.423,64.705c-16.132,0-27.085-10.656-27.085-27.621
			c0-15.895,11.965-27.025,26.847-27.025c7.738,0,13.632,2.262,19.108,7.857l-6.55,7.62c-3.569-3.572-7.618-5.299-12.561-5.299
			c-9.048,0-14.882,7.203-14.882,16.906c0,10.895,5.298,17.501,15.12,17.501c6.667,0,9.939-2.856,13.334-6.013l6.667,7.62
			C443.484,61.432,437.65,64.705,428.423,64.705"/>
		<polygon id="XMLID_3013_" fill="#FFFFFF" points="456.161,10.893 456.161,63.813 488.071,63.813 488.071,54.049 467.771,54.049 
			467.771,42.859 485.57,42.859 485.57,33.097 467.771,33.097 467.771,20.656 486.939,20.656 486.939,10.893 		"/>
		<path id="XMLID_3010_" fill="#FFFFFF" d="M529.859,63.813l-4.105-13.334h-16.134l-4.167,13.334H493.19l18.93-52.979h11.191
			l19.228,52.979H529.859z M518.965,27.797c-0.598-1.904-1.19-4.286-1.19-4.286s-0.477,2.321-1.071,4.286l-3.986,12.918h10.179
			L518.965,27.797z"/>
		<path id="XMLID_3009_" fill="#FFFFFF" d="M585.28,63.813l-23.335-30.835c-0.715-1.013-1.31-2.203-1.31-2.203
			s0.119,1.369,0.119,2.68v30.3h-11.608v-52.98h10.001l23.335,30.538c0.773,1.013,1.312,2.203,1.312,2.203s-0.119-1.369-0.119-2.68
			V10.893h11.605v52.979h-10V63.813z"/>
		<polygon id="XMLID_3008_" fill="#FFFFFF" points="3.81,11.071 3.81,63.991 34.288,63.991 34.288,54.229 15.418,54.229 
			15.418,11.071 		"/>
		<path id="XMLID_3007_" fill="#FFFFFF" d="M120.961,63.991h-11.072l-17.323-52.98h11.906l10.298,33.812
			c0.417,1.368,0.774,2.976,0.774,2.976s0.535-1.667,0.893-2.976l10.239-33.812h11.607L120.961,63.991z"/>
		<polygon id="XMLID_3006_" fill="#FFFFFF" points="144.772,11.071 144.772,63.991 176.679,63.991 176.679,54.229 156.38,54.229 
			156.38,43.037 174.179,43.037 174.179,33.275 156.38,33.275 156.38,20.833 175.608,20.833 175.608,11.071 		"/>
		<path id="XMLID_3005_" fill="#FFFFFF" d="M68.279,37.145c-0.117,0.179-0.236,0.417-0.355,0.596
			c0.238,0.06,0.417,0.118,0.655,0.237C68.457,37.68,68.338,37.442,68.279,37.145"/>
		<path id="XMLID_3004_" fill="#FFFFFF" d="M47.324,41.548c-0.299-0.356-0.597-0.714-0.833-1.07v0.654
			C46.73,41.312,47.028,41.43,47.324,41.548"/>
		<path id="XMLID_3003_" fill="#FFFFFF" d="M75.243,50.598c-0.181,0.417-0.417,0.894-0.598,1.311
			c0.357,0.237,0.715,0.535,1.072,0.773c0.535-0.952,1.012-1.965,1.488-2.917c-0.181-0.119-0.298-0.179-0.479-0.298
			C76.196,49.882,75.72,50.24,75.243,50.598"/>
		<path id="XMLID_3002_" fill="#FFFFFF" d="M61.612,28.452c-0.653,0.179-1.31,0.356-1.903,0.596
			c0.298,0.536,0.653,1.071,1.013,1.607c0.595-0.477,1.19-0.894,1.785-1.369C62.207,28.99,61.909,28.75,61.612,28.452"/>
		<path id="XMLID_3001_" fill="#FFFFFF" d="M63.814,33.93c0.479,0,0.953,0,1.431,0c0-0.298,0.06-0.536,0.06-0.833
			c-0.298-0.238-0.595-0.478-0.893-0.715c-0.181-0.298-0.3-0.654-0.479-1.012c-0.238,0.237-0.476,0.477-0.714,0.714
			c0.298,0.298,0.654,0.655,0.952,1.013C64.112,33.334,63.933,33.631,63.814,33.93"/>
		<path id="XMLID_3000_" fill="#FFFFFF" d="M62.921,34.108c0.238-0.237,0.417-0.477,0.596-0.714
			c-0.238-0.297-0.536-0.596-0.772-0.952c-0.181,0.356-0.417,0.715-0.597,1.071C62.385,33.751,62.623,33.93,62.921,34.108"/>
		<path id="XMLID_2999_" fill="#FFFFFF" d="M44.824,42.264c0.534,0.118,1.131,0.179,1.667,0.298c0.06-0.18,0.117-0.417,0.179-0.596
			c-0.596-0.179-1.131-0.298-1.729-0.417C44.884,41.787,44.884,42.026,44.824,42.264"/>
		<path id="XMLID_2998_" fill="#FFFFFF" d="M47.265,42.74c0.896,0.297,1.846,0.595,2.738,0.893c0.179-0.06,0.355-0.118,0.536-0.178
			c-1.014-0.417-2.083-0.773-3.098-1.19C47.384,42.382,47.324,42.562,47.265,42.74"/>
		<path id="XMLID_2997_" fill="#FFFFFF" d="M61.254,22.916c0.355-0.356,0.655-0.714,1.012-1.07
			c-0.535-0.596-1.071-1.189-1.487-1.786c-2.201,0.477-4.522,1.07-6.903,1.786c-0.896,0.952-1.848,1.904-2.857,2.917
			c0.062,0.297,0.179,0.535,0.237,0.833c0.417-0.18,0.834-0.356,1.251-0.536c0.237,0.237,0.476,0.536,0.771,0.773
			c-0.117,1.013-0.179,2.023-0.236,3.036c0.298,0.714,0.653,1.487,1.069,2.203c0.417,0,0.834,0,1.25,0
			c0.3-0.597,0.598-1.191,0.896-1.728c0.952-0.357,1.904-0.715,2.855-1.013c0.654-0.953,1.25-1.965,1.847-2.856
			C61.016,24.583,61.135,23.75,61.254,22.916"/>
		<path id="XMLID_2992_" fill="#FFFFFF" d="M64.052,9.999c-15.18,0-27.562,12.382-27.562,27.621c0,7.145,2.798,13.93,7.855,19.168
			c0.062,0.061,0.119,0.179,0.179,0.179c0.119,0.119,0.238,0.238,0.357,0.299l0.119,0.118c5.179,4.941,11.904,7.68,18.989,7.68
			c7.084,0,13.868-2.737,18.987-7.62l0.181-0.118c0.117-0.06,0.236-0.179,0.355-0.298l0.298-0.298c5-5.18,7.738-11.965,7.738-19.107
			C91.554,22.323,79.232,9.999,64.052,9.999 M82.03,54.883l-0.714,0.715c-4.703,4.464-10.835,6.965-17.264,6.965
			c-3.631,0-7.144-0.833-10.357-2.263c-0.179-0.179-0.355-0.356-0.534-0.476c0.06-0.238,0.179-0.478,0.236-0.715
			c-0.119-0.477-0.355-0.894-0.715-1.311c0.834-1.964,2.203-4.048,3.87-6.19c0-0.595,0-1.19,0-1.846
			c0.237-0.298,0.476-0.596,0.714-0.952c-0.952-0.596-1.964-1.189-2.977-1.786c-0.356,0-0.714,0-1.071,0
			c-0.119-0.477-0.238-0.951-0.357-1.429c-0.533,0-1.069,0-1.605,0c-0.061-0.417-0.178-0.833-0.237-1.25
			c-0.655,0-1.369-0.061-2.022-0.061c-0.357-0.119-0.716-0.238-1.071-0.356c-0.479,0.179-0.952,0.417-1.429,0.595
			c-0.536,0-1.014,0-1.488,0c-0.119-0.356-0.238-0.773-0.298-1.131c-0.298,0-0.597-0.061-0.895-0.061
			c0.062-0.356,0.062-0.714,0.119-1.072c-0.179-0.118-0.355-0.178-0.536-0.297c-0.298,0.18-0.535,0.297-0.833,0.477
			c-0.119,0-0.298,0-0.417,0c-0.298-0.237-0.595-0.477-0.952-0.714c0.3-0.477,0.597-0.952,0.895-1.43
			c0.772,0,1.605-0.061,2.381-0.061c0.179,0.299,0.417,0.536,0.655,0.833h0.714c-0.119-0.417-0.297-0.833-0.416-1.25
			c0.535-0.417,1.071-0.773,1.605-1.189c-0.06-0.237-0.06-0.478-0.06-0.773c0.237-0.237,0.476-0.417,0.714-0.596
			c0.238,0,0.417,0.06,0.596,0.06c0.062-0.356,0.062-0.714,0.119-1.012c1.312-0.715,2.619-1.43,3.931-2.144
			c-0.774-0.953-1.431-1.905-2.024-2.856c-1.012-0.119-1.964-0.179-2.977-0.238c-0.119,0.477-0.238,0.952-0.416,1.43
			c0.06,0.119,0.178,0.178,0.235,0.297c-0.297,0.477-0.535,0.953-0.771,1.488c-0.357-0.477-0.714-0.894-1.014-1.369
			c-0.417-0.119-0.894-0.18-1.31-0.298c-0.179-0.179-0.357-0.357-0.536-0.477c0.479-0.477,0.952-0.953,1.488-1.43h1.905
			c0-0.297,0-0.595,0.06-0.894c0.237-0.356,0.476-0.714,0.714-1.131c0.298-0.061,0.596-0.061,0.895-0.119
			c-0.299,0.536-0.597,1.072-0.833,1.606c0.771,0.061,1.605,0.18,2.381,0.238c0.596-0.536,1.131-1.072,1.727-1.548
			c-1.07-1.072-2.022-2.083-2.737-3.097c1.487-1.311,2.917-2.68,4.285-3.988c-0.893,0.061-1.785,0.18-2.679,0.299
			c-2.738,1.487-5.773,2.977-8.93,4.464c0.119-0.297,0.236-0.536,0.417-0.833c0.06-0.06,0.06-0.119,0.06-0.119
			c0.714-1.311,1.548-2.5,2.44-3.631c0.179-0.237,0.355-0.417,0.536-0.654c0.236-0.299,0.533-0.596,0.771-0.894
			c0.238-0.238,0.479-0.477,0.715-0.773c0,0,0,0,0.062,0c0.714-0.715,1.548-1.369,2.319-2.023c0.119-0.119,0.3-0.18,0.417-0.298
			c4.107-2.978,9.229-4.763,14.703-4.763c3.036,0,5.953,0.535,8.691,1.548l0,0c1.548,0.536,2.977,1.25,4.346,2.083
			c0.118,0.061,0.237,0.18,0.416,0.237c0.357,0.238,0.715,0.477,1.071,0.715c0.238,0.179,0.477,0.356,0.715,0.535
			c0.357,0.299,0.714,0.536,1.012,0.833c0.417,0.356,0.834,0.715,1.25,1.132c0.181,0.179,0.299,0.298,0.479,0.478
			c0.417,0.417,0.833,0.893,1.25,1.368c0.06,0.06,0.119,0.119,0.179,0.179c1.131,1.369,2.145,2.917,2.917,4.523
			c-0.655-0.237-1.25-0.417-1.905-0.654c-0.833,0.297-1.784,0.595-2.798,0.951c0.062,0.238,0.062,0.478,0.062,0.714
			c-0.833-0.297-1.729-0.535-2.562-0.773c-0.236,0.356-0.477,0.715-0.771,1.013c0.178,0.237,0.416,0.477,0.652,0.714
			c-0.893-0.477-1.785-1.012-2.617-1.487c0.179-0.356,0.355-0.714,0.534-1.071c0.478-0.179,0.952-0.356,1.431-0.478
			c-0.181-0.237-0.417-0.476-0.598-0.714c-0.417,0.18-0.893,0.417-1.367,0.655c-0.238,0.417-0.479,0.894-0.716,1.368
			c0.535,0.536,1.133,1.013,1.728,1.549c-0.595-0.061-1.19-0.061-1.785-0.119c-0.715,0.596-1.488,1.131-2.322,1.728
			c-0.354-0.356-0.771-0.655-1.131-1.013c0.479,0.061,0.952,0.119,1.429,0.18c0.119-0.298,0.3-0.655,0.417-0.953
			c-1.25-0.356-2.5-0.714-3.689-1.012c-0.714,0.179-1.487,0.356-2.202,0.535c-0.536,1.013-1.19,2.083-1.905,3.097
			c0,0.417,0,0.833,0,1.189c0.479-0.061,0.953-0.119,1.369-0.18c0.119,0.299,0.238,0.536,0.357,0.774
			c0.417-0.119,0.894-0.238,1.31-0.357c0-0.356,0-0.714,0-1.012c-0.179-0.119-0.355-0.298-0.535-0.417
			c0.356-0.536,0.714-1.131,1.071-1.667c0.238,0.179,0.417,0.417,0.654,0.595c-0.297,0.238-0.597,0.536-0.895,0.773
			c0.181,0.299,0.357,0.596,0.536,0.894c0.478-0.179,0.895-0.298,1.312-0.478c0.117,0.18,0.297,0.299,0.476,0.478
			c-0.714,0.238-1.369,0.536-2.083,0.774c0,0.178,0,0.356-0.06,0.595c-0.655,0.061-1.369,0.061-2.024,0.119
			c-0.119-0.18-0.297-0.417-0.476-0.597c-0.181,0.119-0.417,0.18-0.598,0.298c0.119,0.238,0.238,0.536,0.357,0.774
			c-0.357,0.356-0.715,0.714-1.071,1.012c-0.179,0.061-0.417,0.061-0.596,0.119c-0.357,0.237-0.654,0.536-1.013,0.833
			c0.237,0.179,0.416,0.417,0.653,0.595c-0.119,0.238-0.179,0.477-0.297,0.715c-0.596,0-1.132-0.061-1.727-0.061
			c0.298,0.773,0.595,1.487,0.893,2.262c0.834-0.714,1.607-1.487,2.381-2.202c0.119,0.061,0.298,0.118,0.417,0.237
			c0.238-0.18,0.479-0.417,0.715-0.595c0.416,0.297,0.895,0.595,1.312,0.893c0.119,0.417,0.236,0.833,0.354,1.191
			c0.238-0.357,0.479-0.715,0.716-1.013c-0.417-0.477-0.834-1.013-1.25-1.487c0.061-0.119,0.18-0.18,0.237-0.238
			c0.478,0.536,1.013,1.071,1.488,1.547c0.118,0.417,0.178,0.833,0.297,1.25c0.417,0.238,0.834,0.536,1.25,0.774
			c-0.119-0.536-0.178-1.071-0.297-1.607c0.476,0.536,0.893,1.071,1.369,1.607c0.297-0.417,0.595-0.774,0.893-1.19
			c0,0.417,0.062,0.833,0.062,1.19c-0.119,0.179-0.299,0.298-0.417,0.417c-0.773,0-1.549-0.061-2.382-0.061
			c-0.237-0.18-0.417-0.356-0.654-0.478c-0.297,0.237-0.535,0.478-0.833,0.715c-0.597-0.18-1.19-0.298-1.786-0.478
			c0.06-0.179,0.06-0.356,0.119-0.536c-0.18-0.179-0.416-0.356-0.596-0.595c-0.716,0.061-1.43,0.179-2.145,0.237
			c-1.25,1.071-2.56,2.144-3.81,3.215c0.06,1.012,0.117,2.083,0.179,3.095c0.595,0.478,1.188,0.953,1.786,1.43
			c1.012,0,1.964,0.061,2.976,0.061c0.479,0.298,0.953,0.595,1.43,0.894c-0.18,0.118-0.416,0.297-0.653,0.417
			c0.477,0.535,0.952,1.131,1.429,1.667c0,0.417-0.06,0.833-0.06,1.189c-0.181,0.237-0.357,0.477-0.536,0.714
			c0.477,1.548,0.894,3.036,1.25,4.583c0.596,0,1.132,0,1.727,0.061c0.895-1.013,1.786-2.023,2.738-3.096
			c0.119-0.356,0.179-0.773,0.298-1.131c0.357-0.237,0.714-0.477,1.012-0.714c0.062-0.477,0.062-0.952,0.062-1.488
			c-0.119-0.118-0.238-0.237-0.298-0.417c1.25-1.548,2.5-3.095,3.689-4.583c-0.596,0.061-1.25,0.119-1.846,0.18
			c-0.357-0.238-0.773-0.536-1.131-0.773c-0.479-0.953-1.012-1.965-1.607-2.917c0-0.299,0.062-0.536,0.062-0.833
			c0.236,0,0.417,0,0.652,0c0.834,1.429,1.607,2.798,2.322,4.167c0.773-0.298,1.548-0.596,2.321-0.833
			c0.355-0.356,0.655-0.715,1.012-1.132c-0.297-0.298-0.654-0.535-0.952-0.833c-0.298,0.061-0.596,0.18-0.893,0.299
			c-0.298-0.417-0.597-0.833-0.896-1.25c1.729,0.297,3.453,0.536,5.238,0.773c-0.059,0.417-0.059,0.833-0.118,1.311
			c0.237,0.061,0.416,0.119,0.597,0.178c0.236,0.715,0.534,1.43,0.715,2.144c0.476-0.118,0.952-0.297,1.429-0.417
			c0.06-0.356,0.06-0.773,0.118-1.131c0.655-0.417,1.251-0.833,1.846-1.25c0.062-0.297,0.179-0.596,0.238-0.833
			c0.179,0,0.355,0,0.536,0c0,0.297,0,0.596,0,0.952c0.235,0.417,0.416,0.894,0.595,1.311C87.506,47.382,85.304,51.549,82.03,54.883
			 M47.98,50.537c0.479,0.179,0.952,0.417,1.488,0.654c0.179,1.847,0.535,3.632,1.071,5.417c0.417,0.894,0.833,1.847,1.31,2.738
			c-1.846-1.013-3.571-2.263-5.119-3.75l-0.179-0.18c-0.06-0.061-0.119-0.119-0.238-0.18l-0.298-0.297
			c-3.393-3.453-5.596-7.738-6.548-12.382c0.06,0.061,0.179,0.179,0.238,0.237c1.069,0.478,2.083,0.953,3.153,1.488
			c0.299-0.061,0.535-0.061,0.833-0.119c0.238,0.356,0.536,0.773,0.773,1.131c0.477,0,1.013,0,1.488,0
			c0.06,0.356,0.117,0.655,0.179,0.953c-0.179,0.297-0.298,0.536-0.477,0.833C46.432,48.276,47.205,49.406,47.98,50.537
			 M86.554,27.441c0.119-0.061,0.179-0.118,0.238-0.18c0.06,0.119,0.119,0.18,0.119,0.299C86.792,27.5,86.673,27.5,86.554,27.441"/>
		<g id="XMLID_2958_">
			<path id="XMLID_2990_" fill="#FFFFFF" d="M590.875,126.912c-0.953-0.597-2.441-1.25-3.931-1.25c-3.93,0-6.728,3.215-6.728,8.334
				c0,5.298,3.153,8.453,6.846,8.453c1.488,0,2.857-0.478,3.87-1.132l1.071,2.799c-1.133,0.833-3.217,1.547-5.062,1.547
				c-6.606,0-10.773-5.119-10.773-11.728c0-6.132,4.105-11.431,10.773-11.431c2.023,0,3.869,0.834,5.179,1.728L590.875,126.912z"/>
			<path id="XMLID_2989_" fill="#FFFFFF" d="M447.827,116.317h-2.798c-3.632-5.179-7.263-10.299-10.894-16.071l0,0v16.071h-3.098
				V93.934h2.8c3.631,5.118,7.263,10.181,10.834,15.953h0.06V93.934h3.096V116.317L447.827,116.317z"/>
			<path id="XMLID_2986_" fill="#FFFFFF" d="M455.151,107.448c0.896-2.979,1.786-5.655,2.562-9.107h0.059
				c0.895,3.452,1.727,6.19,2.501,9.107H455.151z M456.577,93.874l-7.736,22.383h3.334l1.964-6.132h6.786l1.786,6.132h4.284
				l-7.144-22.383H456.577z"/>
			<polygon id="XMLID_2985_" fill="#FFFFFF" points="470.569,116.317 470.569,96.91 464.676,96.91 464.676,93.874 480.272,93.874 
				480.272,96.91 474.378,96.91 474.378,116.317 			"/>
			<rect id="XMLID_2984_" x="481.522" y="93.874" fill="#FFFFFF" width="3.811" height="22.383"/>
			<path id="XMLID_2981_" fill="#FFFFFF" d="M497.178,113.459c-3.988,0-5.417-4.404-5.417-8.69c0-4.106,1.605-8.036,5.417-8.036
				c3.81,0,5.417,3.93,5.417,8.036C502.595,109.054,501.164,113.459,497.178,113.459 M497.178,116.673
				c5.834,0,9.522-5.238,9.522-11.905c0-6.25-4.048-11.251-9.522-11.251c-5.478,0-9.524,5.001-9.524,11.251
				C487.654,111.435,491.344,116.673,497.178,116.673"/>
			<path id="XMLID_2980_" fill="#FFFFFF" d="M525.811,116.317h-2.798c-3.631-5.179-7.263-10.299-10.896-16.071h-0.06v16.071h-3.036
				V93.934h2.798c3.632,5.118,7.265,10.181,10.834,15.953h0.062V93.934h3.096V116.317L525.811,116.317z"/>
			<path id="XMLID_2977_" fill="#FFFFFF" d="M533.073,107.448c0.895-2.979,1.785-5.655,2.619-9.107h0.062
				c0.893,3.452,1.667,6.19,2.5,9.107H533.073z M534.562,93.874l-7.739,22.383h3.334l1.964-6.132h6.786l1.786,6.132h4.286
				l-7.144-22.383H534.562z"/>
			<polygon id="XMLID_2976_" fill="#FFFFFF" points="545.99,93.874 549.801,93.874 549.801,113.281 557.42,113.281 557.42,116.317 
				545.99,116.317 			"/>
			<path id="XMLID_2975_" fill="#FFFFFF" d="M445.448,135.007v9.228c-2.083,0.834-4.226,1.369-6.369,1.369
				c-6.605,0-10.772-5.119-10.772-11.728c0-6.131,4.167-11.431,10.894-11.431c2.084,0,4.167,0.774,5.417,1.728l-1.25,2.68
				c-1.012-0.653-2.619-1.189-4.105-1.189c-4.107,0-6.905,3.215-6.905,8.334c0,5.298,3.215,8.453,6.488,8.453
				c1.013,0,1.903-0.119,2.679-0.536v-6.905L445.448,135.007L445.448,135.007z"/>
			<polygon id="XMLID_2974_" fill="#FFFFFF" points="459.198,125.901 452.77,125.901 452.77,132.031 459.078,132.031 
				459.078,135.007 452.77,135.007 452.77,142.271 460.328,142.271 460.328,145.247 448.96,145.247 448.96,122.865 459.198,122.865 
							"/>
			<path id="XMLID_2971_" fill="#FFFFFF" d="M471.045,142.449c-3.988,0-5.417-4.405-5.417-8.691c0-4.106,1.605-8.035,5.417-8.035
				c3.81,0,5.417,3.929,5.417,8.035C476.462,138.044,475.031,142.449,471.045,142.449 M471.045,145.663
				c5.834,0,9.465-5.238,9.465-11.905c0-6.25-4.048-11.251-9.465-11.251c-5.479,0-9.524,5.001-9.524,11.251
				C461.521,140.424,465.152,145.663,471.045,145.663"/>
			<path id="XMLID_2970_" fill="#FFFFFF" d="M498.964,135.007v9.228c-2.024,0.834-4.167,1.369-6.37,1.369
				c-6.607,0-10.774-5.119-10.774-11.728c0-6.131,4.167-11.431,10.896-11.431c2.084,0,4.167,0.774,5.417,1.728l-1.25,2.68
				c-1.014-0.653-2.619-1.189-4.107-1.189c-4.105,0-6.905,3.215-6.905,8.334c0,5.298,3.217,8.453,6.488,8.453
				c1.013,0,1.905-0.119,2.679-0.536v-6.905L498.964,135.007L498.964,135.007z"/>
			<path id="XMLID_2967_" fill="#FFFFFF" d="M506.345,125.901h1.667c2.262,0,3.569,1.311,3.569,3.632
				c0,2.977-1.845,4.346-3.631,4.404c-0.355,0.061-1.25,0.061-1.605,0.119V125.901z M516.048,145.247l-4.524-9.286
				c2.441-1.312,3.87-3.988,3.87-6.668c0-4.346-2.679-6.487-6.965-6.487h-5.953v22.383h3.869v-8.395h1.727l3.631,8.453H516.048z"/>
			<path id="XMLID_2964_" fill="#FFFFFF" d="M522.418,136.437c0.893-2.978,1.783-5.654,2.617-9.106h0.062
				c0.893,3.452,1.666,6.189,2.5,9.106H522.418z M523.846,122.865l-7.738,22.383h3.334l1.964-6.132h6.786l1.729,6.132h4.284
				l-7.144-22.383H523.846z"/>
			<path id="XMLID_2961_" fill="#FFFFFF" d="M541.406,122.865h-5.953v22.383h3.812v-8.453h1.727c4.584,0,7.382-3.689,7.382-7.501
				C548.37,125.006,545.694,122.865,541.406,122.865 M540.869,133.937c-0.417,0.061-1.367,0.061-1.605,0.119v-8.155h1.727
				c2.264,0,3.514,1.311,3.514,3.632C544.502,132.507,542.717,133.818,540.869,133.937"/>
			<polygon id="XMLID_2960_" fill="#FFFFFF" points="566.171,145.247 562.301,145.247 562.301,134.473 554.323,134.473 
				554.323,145.247 550.515,145.247 550.515,122.865 554.323,122.865 554.323,131.496 562.301,131.496 562.301,122.923 
				566.171,122.923 			"/>
			<rect id="XMLID_2959_" x="569.802" y="122.865" fill="#FFFFFF" width="3.81" height="22.383"/>
		</g>
		<g id="XMLID_2933_">
			<path id="XMLID_2955_" fill="#FFFFFF" d="M15.477,102.208c0,1.131,0,1.369-0.416,2.381h5.952c4.941,0,8.632-3.631,8.572-7.5
				c-0.062-4.584-3.869-7.382-8.215-7.382h-6.25c0.416,1.012,0.354,1.667,0.354,2.381L15.477,102.208L15.477,102.208z
				 M17.978,90.779h2.44c4.522,0,6.31,3.988,6.429,6.431c0.062,2.439-0.771,6.369-5.952,6.369h-2.855v-12.8H17.978z"/>
			<path id="XMLID_2954_" fill="#FFFFFF" d="M56.612,104.827h0.597l5.417-12.858c0.417-1.012,0.653-1.368,1.31-2.201h-1.548
				l-4.703,11.131L52.92,89.767h-3.452c1.012,1.189,1.25,1.311,1.785,2.561L56.612,104.827z"/>
			<path id="XMLID_2953_" fill="#FFFFFF" d="M68.815,104.588h3.395c-0.478-1.012-0.416-1.666-0.416-2.381V92.147
				c0-0.714,0-1.369,0.416-2.381h-3.395c0.478,1.012,0.478,1.667,0.478,2.381v10.062C69.231,102.865,69.231,103.577,68.815,104.588"
				/>
			<path id="XMLID_2950_" fill="#FFFFFF" d="M79.708,102.208c0,1.131,0,1.369-0.417,2.381h5.953c4.938,0,8.631-3.631,8.57-7.5
				c-0.06-4.584-3.811-7.382-8.216-7.382h-6.25c0.417,1.012,0.417,1.667,0.417,2.381v10.12H79.708z M82.208,90.779h2.438
				c4.524,0,6.312,3.988,6.37,6.431c0.062,2.439-0.772,6.369-5.953,6.369h-2.855V90.779z"/>
			<path id="XMLID_2947_" fill="#FFFFFF" d="M106.674,104.768c4.763-0.061,8.215-3.811,8.215-7.737c0-4.524-3.869-7.383-8.272-7.383
				c-4.764,0-8.217,3.811-8.217,7.739C98.4,101.791,102.209,104.768,106.674,104.768 M106.674,90.837
				c1.965,0,5.238,2.203,5.536,6.431c0.179,2.5-1.131,6.25-5.536,6.311c-1.964,0-5.298-2.263-5.536-6.488
				C100.959,94.588,102.448,90.837,106.674,90.837"/>
			<path id="XMLID_2946_" fill="#FFFFFF" d="M120.604,104.588h3.396c-0.479-1.012-0.417-1.311-0.417-2.381v-5.119h5.236l0.357-1.07
				h-5.596v-5.12h4.881c0.596,0,0.894,0,2.619,0.654l-0.714-1.846h-9.703c0.477,1.012,0.417,1.667,0.417,2.381v10.062
				C121.021,103.281,121.021,103.518,120.604,104.588"/>
			<path id="XMLID_2945_" fill="#FFFFFF" d="M135.01,104.588h3.393c-0.477-1.012-0.477-1.311-0.477-2.381v-5.119h5.239l0.354-1.07
				h-5.596v-5.12h4.584c0.596,0,0.893,0,2.619,0.654l-0.773-1.846h-9.403c0.476,1.012,0.476,1.667,0.476,2.381v10.062
				C135.486,103.281,135.486,103.518,135.01,104.588"/>
			<path id="XMLID_2944_" fill="#FFFFFF" d="M38.574,93.398l1.902,4.466l0.181,0.417h-2.083v1.368h2.679l2.143,5h3.453
				c-1.013-1.131-1.31-1.311-1.846-2.561l-1.012-2.439h4.403l0.535-1.311h-5.477l-0.181-0.417l-3.569-8.334H39.11l-5.417,12.857
				c-0.416,1.071-0.652,1.369-1.31,2.202h1.548L38.574,93.398z"/>
			<path id="XMLID_2943_" fill="#FFFFFF" d="M134.831,120.423c0.652,0.535,1.188-0.478,0.652-1.012
				c-0.595-0.655-2.438-1.728-5.355-1.728c-9.703,0-27.266,17.799-38.396,29.229l14.049-23.573h-3.57l-22.979,23.098l16.132-26.489
				c-18.333,3.929-24.821,11.251-23.035,16.19l3.215-2.263c-1.071-4.228,6.069-8.632,14.168-11.19l-18.216,30.002l5.298-1.666
				l21.728-21.849l-13.99,23.515l5.834-1.666c6.25-7.023,29.885-32.086,39.824-32.086
				C132.807,118.995,134.176,119.888,134.831,120.423"/>
			<path id="XMLID_2938_" fill="#FFFFFF" d="M53.754,140.246c9.522-5,20.597-16.489,22.263-20.598
				c1.013-2.439-0.654-3.631-2.916-2.679c-6.965,3.035-18.097,15.18-22.857,23.274c-1.19,0.478-2.264,0.715-3.155,0.715
				c-0.237,0-0.478,0-0.714,0c1.131-2.5,1.25-5.179-1.369-5.179c-2.024,0-4.286,0.893-6.369,2.32
				c-2.977,1.786-5.596,2.917-7.441,2.917c-0.298,0-0.534,0-0.771,0c1.131-2.5,1.31-5.18-1.369-5.18
				c-3.453,0-7.561,2.619-10.478,5.833c-2.083,2.145-8.869,8.751-12.857,8.751c-2.977,0-2.62-2.737-2.203-4.404
				c2.322-9.523,18.573-25.418,25.896-25.418c3.034,0,3.034,2.202,1.903,4.286c-1.188,2.143-4.286,3.868-4.286,3.868l3.633,1.013
				c0,0,1.965-1.43,2.977-3.93c1.369-3.334-0.119-6.728-3.988-6.728c-11.903,0-27.978,16.55-29.466,26.312
				c-0.715,4.882,1.666,6.847,4.523,6.847c3.394,0,7.501-2.798,10.654-5.478c-0.653,2.022-0.596,5,2.202,5
				c4.524,0,10.12-6.43,12.024-9.228c0.179,0,0.417,0,0.655,0c1.31,0,2.736-0.298,4.284-0.895c-1.367,1.549-2.439,3.216-3.034,4.764
				c-0.774,2.022-0.896,5.417,2.083,5.417c4.522,0,10.118-6.43,12.023-9.228c0.178,0,0.356,0,0.595,0
				c0.952,0,2.024-0.18,3.155-0.478c-0.417,0.894-0.772,1.667-1.012,2.381c-1.488,4.703-0.417,7.322,2.679,7.322
				c4.167,0,9.286-4.883,10.536-6.786c0.596-0.894-0.179-1.728-0.655-1.189c-2.202,2.439-6.429,6.013-8.869,6.013
				c-1.31,0-1.548-1.369-1.25-2.977C51.135,145.069,52.206,142.807,53.754,140.246 M73.219,118.519
				c1.311-0.772,1.727,0.061,1.132,1.013c-3.215,5.357-11.728,13.395-18.871,17.918C60.719,129.77,68.934,121.019,73.219,118.519
				 M28.871,140.723c-0.717-0.238-1.015-0.597-1.25-0.833l-2.024,1.368c0.357,0.416,1.012,0.833,2.203,1.132
				c-2.441,3.451-6.608,7.202-8.751,7.202c-1.012,0-0.895-1.368-0.417-2.44c1.429-3.333,7.263-9.881,10.061-9.881
				C30.062,137.271,29.764,138.996,28.871,140.723 M44.884,140.604l-0.06,0.119c-0.716-0.238-1.071-0.597-1.312-0.833l-2.021,1.368
				c0.354,0.416,1.012,0.894,2.262,1.132c-2.44,3.451-6.607,7.202-8.751,7.202c-1.071,0-0.895-1.368-0.416-2.44
				c1.429-3.333,7.262-9.881,10.06-9.881C46.015,137.271,45.777,138.996,44.884,140.604"/>
			<path id="XMLID_2934_" fill="#FFFFFF" d="M161.321,135.782c-2.855,0-6.667,2.439-9.819,4.881
				c1.012-1.548,1.666-2.917,2.021-4.286l-3.631,0.597c-0.179,0.833-0.834,1.964-1.727,3.333
				c-2.979,3.929-10.715,9.286-14.524,9.286c-1.189,0-1.667-0.715-1.311-2.084c0.236-0.951,0.772-1.904,1.429-2.917
				c3.453,0.061,8.87-1.845,10.597-5.237c1.19-2.381-0.119-4.048-2.619-3.689c-3.034,0.416-7.084,3.214-9.82,6.487
				c-2.44,2.68-8.274,7.44-10.12,7.44c-0.535,0-0.654-0.596-0.119-1.548c1.131-1.965,6.548-8.632,11.608-14.585h12.561l2.262-1.727
				l-13.689,0.298c4.403-5.18,8.215-9.646,8.215-9.646l-5.479,1.966c0,0-2.855,3.452-6.367,7.737l-5.301,0.119l-1.25,1.189h5.479
				c-1.904,2.322-3.929,4.822-5.714,7.023c-1.786,2.023-8.155,8.931-11.072,8.931c-0.715,0-0.536-0.773-0.298-1.311
				c1.188-2.978,9.346-11.668,9.346-11.668h-3.512c0,0-0.536,0.597-1.312,1.487c0.062-1.429-1.013-2.143-2.618-2.143
				c-4.583,0-11.905,5.772-13.752,10.773c-1.013,2.798-0.179,5.237,1.966,5.237c1.846,0,4.584-1.728,7.084-4.048
				c-0.834,2.262-0.298,4.048,1.369,4.048c2.083,0,4.819-1.904,7.32-4.106c-0.953,2.202-0.417,4.106,1.312,4.106
				c2.56,0,6.605-3.036,9.227-5.356c-0.06,0.119-0.06,0.237-0.119,0.417c-0.833,2.737,0.536,4.939,2.917,4.939
				c3.155,0,7.619-2.619,11.251-5.298c-1.368,1.667-2.917,3.452-4.465,5.298l3.93-0.595l1.311-1.488
				c5-5.715,11.251-11.43,14.763-11.43c1.19,0,2.146,0.356,2.562,0.595l2.084-2.439
				C163.166,136.198,162.333,135.782,161.321,135.782 M141.974,137.152c1.072-0.478,1.488,0.119,1.132,1.013
				c-1.188,2.917-5.596,4.82-8.215,4.939C137.033,140.485,139.95,138.044,141.974,137.152 M104.293,149.771
				c-0.598,0-1.071-0.535-0.479-1.903c1.667-3.988,8.751-10.716,11.312-10.716c0.952,0,1.131,0.596,0.536,1.965
				C114.354,141.854,107.031,149.771,104.293,149.771"/>
		</g>
		<g id="XMLID_2879_">
			<g id="XMLID_2913_">
				<path id="XMLID_2932_" fill="#FFFFFF" d="M189.835,138.937c-0.834-1.189-1.729-1.846-2.979-1.846
					c-1.486,0-2.381,0.952-2.381,2.083c0,0.952,0.595,1.607,3.395,2.321c2.977,0.773,5.117,2.263,5.117,5.299
					c0,2.68-2.082,5.18-5.893,5.18c-2.917,0-4.882-1.311-6.132-3.811l2.855-1.132c0.895,1.368,1.729,2.263,3.453,2.263
					c1.728,0,2.681-1.012,2.681-2.203c0-0.653,0.06-1.605-3.87-2.737c-3.333-0.952-4.645-2.68-4.645-4.82
					c0-2.978,2.321-4.883,5.479-4.883c2.438,0,4.346,1.072,5.536,3.155L189.835,138.937z"/>
				<polygon id="XMLID_2931_" fill="#FFFFFF" points="193.943,151.557 193.943,135.007 204.896,135.007 204.896,137.865 
					197.156,137.865 197.156,141.496 201.86,141.496 201.86,144.235 197.156,144.235 197.156,148.699 204.896,148.699 
					204.896,151.557 				"/>
				<polygon id="XMLID_2930_" fill="#FFFFFF" points="337.881,151.675 337.881,135.007 348.834,135.007 348.834,137.865 
					341.095,137.865 341.095,141.496 345.798,141.496 345.798,144.235 341.095,144.235 341.095,151.675 				"/>
				<path id="XMLID_2927_" fill="#FFFFFF" d="M214.122,145.247l-1.848-5.773l-1.845,5.773H214.122z M205.134,151.557l5.536-16.607
					h3.333l5.655,16.607h-3.514l-1.251-3.869h-5.238l-1.25,3.869H205.134z"/>
				<path id="XMLID_2926_" fill="#FFFFFF" d="M227.992,138.937c-0.833-1.189-1.729-1.846-2.979-1.846
					c-1.488,0-2.381,0.952-2.381,2.083c0,0.952,0.595,1.607,3.393,2.321c2.979,0.773,5.12,2.263,5.12,5.299
					c0,2.68-2.022,5.18-5.894,5.18c-2.917,0-4.822-1.311-6.132-3.811l2.855-1.132c0.896,1.368,1.729,2.263,3.453,2.263
					c1.728,0,2.679-1.012,2.679-2.203c0-0.653,0.119-1.605-3.867-2.737c-3.334-0.952-4.584-2.68-4.584-4.82
					c0-2.978,2.319-4.883,5.477-4.883c2.44,0,4.346,1.072,5.536,3.155L227.992,138.937z"/>
				<polygon id="XMLID_2925_" fill="#FFFFFF" points="236.505,151.557 236.505,135.007 241.624,135.007 244.303,145.247 
					247.041,135.007 252.16,135.007 252.16,151.557 249.125,151.557 249.125,136.794 245.196,151.557 243.47,151.557 
					239.541,136.794 239.541,151.557 				"/>
				<rect id="XMLID_2924_" x="253.768" y="135.007" fill="#FFFFFF" width="3.215" height="16.608"/>
				<path id="XMLID_2923_" fill="#FFFFFF" d="M266.507,138.937c-0.833-1.189-1.729-1.846-2.979-1.846
					c-1.486,0-2.381,0.952-2.381,2.083c0,0.952,0.535,1.607,3.395,2.321c2.977,0.773,5.12,2.263,5.12,5.299
					c0,2.68-2.084,5.18-5.896,5.18c-2.917,0-4.882-1.311-6.132-3.811l2.857-1.132c0.894,1.368,1.727,2.263,3.451,2.263
					c1.728,0,2.738-1.012,2.738-2.203c0-0.653,0.062-1.605-3.869-2.737c-3.334-0.952-4.644-2.68-4.644-4.82
					c0-2.978,2.321-4.883,5.477-4.883c2.44,0,4.348,1.072,5.536,3.155L266.507,138.937z"/>
				<path id="XMLID_2922_" fill="#FFFFFF" d="M278.71,138.937c-0.833-1.189-1.729-1.846-2.979-1.846
					c-1.486,0-2.381,0.952-2.381,2.083c0,0.952,0.595,1.607,3.333,2.321c2.979,0.773,5.12,2.263,5.12,5.299
					c0,2.68-2.024,5.18-5.894,5.18c-2.917,0-4.883-1.311-6.133-3.811l2.856-1.132c0.894,1.368,1.727,2.263,3.453,2.263
					c1.726,0,2.738-1.012,2.738-2.203c0-0.653,0.06-1.605-3.931-2.737c-3.334-0.952-4.584-2.68-4.584-4.82
					c0-2.978,2.321-4.883,5.479-4.883c2.438,0,4.346,1.072,5.536,3.155L278.71,138.937z"/>
				<rect id="XMLID_2921_" x="282.818" y="135.007" fill="#FFFFFF" width="3.217" height="16.608"/>
				<path id="XMLID_2918_" fill="#FFFFFF" d="M290.378,143.282c0,3.868,1.485,5.715,3.869,5.715c2.319,0,3.81-1.905,3.81-5.715
					c0-3.988-1.488-5.834-3.869-5.834C291.747,137.507,290.378,139.473,290.378,143.282 M301.39,143.402
					c0,5.478-2.738,8.514-7.143,8.514c-4.348,0-7.265-2.978-7.265-8.572s2.917-8.632,6.848-8.632
					C298.711,134.651,301.39,137.746,301.39,143.402"/>
				<path id="XMLID_2915_" fill="#FFFFFF" d="M324.963,143.282c0,3.868,1.486,5.715,3.867,5.715c2.322,0,3.812-1.905,3.812-5.715
					c0-3.988-1.488-5.834-3.87-5.834C326.33,137.507,324.963,139.473,324.963,143.282 M335.976,143.402
					c0,5.478-2.679,8.514-7.146,8.514c-4.346,0-7.262-2.978-7.262-8.572s2.916-8.632,6.848-8.632
					C333.297,134.651,335.976,137.746,335.976,143.402"/>
				<polygon id="XMLID_2914_" fill="#FFFFFF" points="302.995,151.557 302.995,135.007 306.391,135.007 313.058,146.14 
					313.058,135.007 316.272,135.007 316.272,151.557 313.058,151.557 306.212,140.008 306.212,151.557 				"/>
			</g>
			<path id="XMLID_2912_" fill="#FFFFFF" d="M190.728,93.219c-0.893-1.19-1.905-1.904-3.272-1.904c-1.606,0-2.619,0.952-2.619,2.083
				c0,0.953,0.654,1.606,3.689,2.321c3.273,0.773,5.655,2.321,5.655,5.357c0,2.679-2.263,5.237-6.489,5.237
				c-3.214,0-5.355-1.311-6.727-3.869l3.155-1.131c0.95,1.369,1.902,2.263,3.81,2.263s2.978-1.013,2.978-2.202
				c0-0.655,0.061-1.667-4.285-2.738c-3.69-0.952-5.062-2.679-5.062-4.882c0-3.036,2.562-4.939,6.071-4.939
				c2.679,0,4.763,1.07,6.132,3.214L190.728,93.219z"/>
			<path id="XMLID_2911_" fill="#FFFFFF" d="M212.694,99.827c0,4.106-2.5,6.368-6.965,6.368c-4.881,0-7.32-2.082-7.32-6.31V89.052
				h3.513V99.29c0,2.5,1.31,3.811,3.571,3.811c2.263,0,3.632-1.311,3.632-3.811V89.052h3.569V99.827L212.694,99.827z"/>
			<path id="XMLID_2908_" fill="#FFFFFF" d="M224.004,96.552c2.021,0,3.452-0.893,3.452-2.381c0-1.429-1.131-2.145-3.333-2.145
				h-2.979v4.584h2.857L224.004,96.552L224.004,96.552z M217.516,105.899V89.113h5.654c3.036,0,4.939,0.179,6.489,1.548
				c1.012,0.894,1.367,1.904,1.367,3.334c0,3.273-2.617,5.356-6.846,5.356h-3.155v6.606h-3.512L217.516,105.899L217.516,105.899z"/>
			<path id="XMLID_2905_" fill="#FFFFFF" d="M241.922,96.552c2.021,0,3.452-0.893,3.452-2.381c0-1.429-1.131-2.145-3.333-2.145
				h-2.979v4.584h2.857L241.922,96.552L241.922,96.552z M235.492,105.899V89.113h5.653c3.036,0,5.001,0.179,6.489,1.548
				c1.012,0.894,1.429,1.904,1.429,3.334c0,3.273-2.62,5.356-6.846,5.356h-3.155v6.606h-3.57V105.899L235.492,105.899z"/>
			<path id="XMLID_2902_" fill="#FFFFFF" d="M255.494,97.504c0,3.931,1.605,5.773,4.284,5.773c2.562,0,4.167-1.903,4.167-5.773
				c0-4.048-1.667-5.894-4.284-5.894C257.042,91.612,255.494,93.635,255.494,97.504 M267.638,97.565
				c0,5.536-2.977,8.633-7.857,8.633c-4.82,0-7.977-2.979-7.977-8.691c0-5.653,3.214-8.75,7.56-8.75
				C264.721,88.754,267.638,91.851,267.638,97.565"/>
			<path id="XMLID_2899_" fill="#FFFFFF" d="M277.758,96.552c1.964,0,3.393-0.951,3.393-2.32s-1.188-2.203-3.393-2.203h-2.857v4.523
				H277.758L277.758,96.552z M271.388,105.899V89.113h4.882c1.964,0,3.631,0.061,4.94,0.416c2.203,0.597,3.632,2.439,3.632,4.822
				c0,2.201-1.191,3.333-3.396,4.167l3.514,7.381h-3.75l-3.036-6.728h-3.273v6.728H271.388z"/>
			<polygon id="XMLID_2898_" fill="#FFFFFF" points="287.461,91.968 287.461,89.052 301.092,89.052 301.092,91.968 296.032,91.968 
				296.032,105.899 292.461,105.899 292.461,91.968 			"/>
			<rect id="XMLID_2897_" x="304.486" y="89.052" fill="#FFFFFF" width="3.571" height="16.786"/>
			<polygon id="XMLID_2896_" fill="#FFFFFF" points="314.189,105.899 314.189,89.052 317.939,89.052 325.321,100.363 
				325.321,89.052 328.892,89.052 328.892,105.899 325.321,105.899 317.76,94.171 317.76,105.899 			"/>
			<path id="XMLID_2895_" fill="#FFFFFF" d="M345.977,103.816c-1.548,1.549-3.274,2.382-5.417,2.382
				c-2.203,0-4.229-0.833-5.479-2.321c-1.31-1.487-1.846-3.571-1.846-6.19c0-5.894,3.274-8.93,8.274-8.93
				c2.56,0,4.703,1.013,5.953,2.738c0.595,0.833,0.833,1.606,1.012,2.201l-2.798,0.895c-0.714-1.965-1.905-3.036-4.048-3.036
				c-3.155,0-4.646,1.965-4.646,5.896c0,1.964,0.298,3.393,1.132,4.464c0.773,0.953,2.023,1.487,3.333,1.487
				c1.965,0,3.931-1.07,4.524-3.57h-4.703v-2.5h7.561v8.569h-2.855L345.977,103.816L345.977,103.816z"/>
			<polygon id="XMLID_2894_" fill="#FFFFFF" points="180.965,114.709 180.965,111.792 194.359,111.792 194.359,114.709 
				189.418,114.709 189.418,128.639 185.906,128.639 185.906,114.709 			"/>
			<polygon id="XMLID_2893_" fill="#FFFFFF" points="198.347,128.639 198.347,111.792 201.8,111.792 201.8,118.459 208.467,118.459 
				208.467,111.792 211.98,111.792 211.98,128.639 208.467,128.639 208.467,121.317 201.8,121.317 201.8,128.639 			"/>
			<polygon id="XMLID_2892_" fill="#FFFFFF" points="216.503,128.639 216.503,111.792 228.35,111.792 228.35,114.709 
				219.956,114.709 219.956,118.4 225.075,118.4 225.075,121.138 219.956,121.138 219.956,125.722 228.35,125.722 228.35,128.639 
							"/>
			<path id="XMLID_2889_" fill="#FFFFFF" d="M244.839,119.293c1.964,0,3.333-0.953,3.333-2.382c0-1.43-1.131-2.144-3.273-2.144
				h-2.917v4.584h2.857V119.293L244.839,119.293z M238.529,128.639v-16.787h5.598c2.977,0,4.882,0.18,6.37,1.548
				c0.95,0.894,1.367,1.905,1.367,3.273c0,3.272-2.618,5.357-6.728,5.357h-3.095v6.606L238.529,128.639L238.529,128.639z"/>
			<path id="XMLID_2886_" fill="#FFFFFF" d="M261.507,119.293c1.904,0,3.333-0.953,3.333-2.321c0-1.311-1.19-2.202-3.333-2.202
				h-2.798v4.523H261.507z M255.256,128.639v-16.787h4.763c1.904,0,3.571,0.061,4.881,0.417c2.146,0.535,3.571,2.439,3.571,4.82
				c0,2.203-1.131,3.334-3.333,4.167l3.452,7.383h-3.69l-2.977-6.728h-3.214v6.728H255.256z"/>
			<rect id="XMLID_2885_" x="272.103" y="111.852" fill="#FFFFFF" width="3.452" height="16.787"/>
			<path id="XMLID_2884_" fill="#FFFFFF" d="M288.592,115.839c-0.896-1.189-1.846-1.903-3.215-1.903
				c-1.607,0-2.562,0.952-2.562,2.083c0,0.952,0.598,1.606,3.632,2.32c3.216,0.773,5.535,2.322,5.535,5.356
				c0,2.68-2.2,5.239-6.368,5.239c-3.154,0-5.237-1.311-6.606-3.87l3.096-1.131c0.952,1.369,1.904,2.264,3.75,2.264
				c1.847,0,2.917-1.014,2.917-2.203c0-0.654,0.119-1.606-4.227-2.738c-3.632-0.951-5.001-2.679-5.001-4.881
				c0-3.036,2.501-4.94,5.953-4.94c2.618,0,4.703,1.071,6.013,3.215L288.592,115.839z"/>
			<polygon id="XMLID_2883_" fill="#FFFFFF" points="294.128,114.709 294.128,111.852 307.522,111.852 307.522,114.709 
				302.521,114.709 302.521,128.639 299.069,128.639 299.069,114.709 			"/>
			<rect id="XMLID_2882_" x="310.496" y="111.852" fill="#FFFFFF" width="3.452" height="16.787"/>
			<polygon id="XMLID_2881_" fill="#FFFFFF" points="318.296,128.639 318.296,111.852 321.987,111.852 329.19,123.103 
				329.19,111.852 332.7,111.852 332.7,128.639 329.19,128.639 321.746,116.911 321.746,128.639 			"/>
			<polygon id="XMLID_2880_" fill="#FFFFFF" points="336.75,128.639 336.75,111.852 348.596,111.852 348.596,114.709 
				340.262,114.709 340.262,118.4 345.381,118.4 345.381,121.138 340.262,121.138 340.262,125.722 348.596,125.722 348.596,128.639 
							"/>
		</g>
		<path id="XMLID_2443_" fill="#FFCE00" d="M418.005,151.794V87.444h-44.943v64.351H418.005z M411.517,93.874v51.373H379.55V93.874
			H411.517z"/>
	</g>
</g>
</svg>
