<?xml version="1.0" encoding="utf-8"?>
<!-- Generator: Adobe Illustrator 15.0.0, SVG Export Plug-In . SVG Version: 6.00 Build 0)  -->
<!DOCTYPE svg PUBLIC "-//W3C//DTD SVG 1.1//EN" "http://www.w3.org/Graphics/SVG/1.1/DTD/svg11.dtd">
<svg version="1.1" id="Layer_1" xmlns="http://www.w3.org/2000/svg" xmlns:xlink="http://www.w3.org/1999/xlink" x="0px" y="0px"
	 width="595.343px" height="445.377px" viewBox="-0.114 198.275 595.343 445.377"
	 enable-background="new -0.114 198.275 595.343 445.377" xml:space="preserve">
<g>
	<g>
		<path fill="#FFFFFF" d="M287.133,471.626c-19.896,0-39.742,0.051-59.64-0.051c-2.386,0-4.974-0.305-7.105-1.269
			c-1.371-0.609-2.995-2.589-2.944-3.908c0.051-1.473,1.522-3.604,2.944-4.213c2.386-1.016,5.177-1.473,7.816-1.473
			c34.515-0.102,69.029,0.051,103.544-0.152c14.263-0.101,28.577-0.761,42.84-1.522c20.15-1.065,40.199-3.096,59.943-7.562
			c38.678-8.73,69.995-28.779,93.19-61.061c10.354-14.415,17.309-30.353,19.745-48.016c5.989-42.433-18.78-80.247-60.503-89.637
			c-22.181-4.974-43.55-1.421-63.903,7.969c-34.819,16.04-59.843,42.027-75.729,76.846c-3.249,7.157-5.888,14.567-9.188,21.673
			c-1.472,3.249-3.451,6.396-5.786,9.085c-2.335,2.69-5.685,4.061-9.39,2.741c-3.808-1.371-5.584-4.416-5.736-8.223
			c-0.151-3.147-0.151-6.497,0.66-9.492c8.629-30.404,20.658-59.335,40.251-84.257c24.363-31.013,54.817-54.057,93.291-65.325
			c13.857-4.061,28.069-6.04,42.484-5.38c45.732,2.132,83.241,29.744,96.642,72.836c4.467,14.364,5.583,29.135,3.959,44.057
			c-3.401,31.216-17.156,57.66-37.357,81.059c-26.851,31.115-60.604,51.265-100.194,61.975c-15.735,4.264-31.673,7.613-47.864,9.187
			c-13.856,1.319-27.765,2.538-41.672,2.995c-26.8,0.862-53.6,1.116-80.399,1.624C287.133,471.981,287.133,471.829,287.133,471.626z
			"/>
		<path fill="#FFFFFF" d="M318.806,439.396c14.06,0,28.068,0.406,42.128-0.102c22.892-0.762,45.631-2.843,67.71-9.543
			c20.253-6.142,37.053-17.104,48.677-35.124c5.989-9.238,9.542-19.288,9.39-30.505c-0.203-18.324-12.943-33.804-30.911-37.205
			c-15.125-2.893-28.779,1.32-41.52,9.136c-13.806,8.477-24.109,20.201-31.875,34.413c-1.929,3.502-4.568,6.649-7.31,9.593
			c-2.183,2.284-5.228,3.553-8.526,3.096c-5.787-0.863-8.071-6.345-7.005-11.065c1.116-5.025,2.994-9.999,5.177-14.72
			c11.624-24.719,29.643-43.397,54.158-55.579c12.537-6.243,25.836-9.339,39.946-8.477c28.627,1.777,49.336,21.978,52.939,47.61
			c2.589,18.272-2.284,34.87-12.131,50.097c-15.228,23.501-36.545,38.981-63.294,47.103c-14.517,4.416-29.389,6.649-44.464,8.172
			c-20.049,2.03-40.148,2.64-60.249,2.538c-19.389-0.102-38.727,0-58.116-0.102c-1.776,0-3.756-0.355-5.329-1.167
			c-3.198-1.624-3.147-5.127,0.101-6.649c1.879-0.863,4.213-1.167,6.345-1.167c14.72-0.102,29.439-0.051,44.159-0.051
			C318.806,439.599,318.806,439.497,318.806,439.396z"/>
		<path fill="#FFFFFF" d="M389.256,545.122c0-10.76,0-21.47,0-32.23c0-3.553,0.355-3.959,3.858-3.959
			c9.644,0,19.287-0.051,28.932,0.051c16.242,0.152,28.068,10.253,30.81,26.292c1.929,11.218,1.167,22.08-4.67,32.13
			c-4.924,8.375-12.537,13.196-22.13,13.755c-11.269,0.66-22.638,0.406-33.957,0.559c-2.487,0.051-2.843-1.625-2.843-3.604
			C389.256,567.101,389.256,556.086,389.256,545.122z M405.093,568.42c5.532,0,10.761,0.305,15.938-0.051
			c8.73-0.609,14.415-5.583,16.191-14.11c1.371-6.446,1.219-12.943-0.608-19.288c-2.183-7.512-7.36-11.826-15.075-12.639
			c-4.518-0.456-9.086-0.253-13.654-0.558c-2.233-0.152-2.893,0.608-2.842,2.842c0.102,13.705,0.051,27.409,0.051,41.062
			C405.093,566.542,405.093,567.405,405.093,568.42z"/>
		<path fill="#FFFFFF" d="M198.206,547.508c8.426,3.198,9.645,10.558,10.152,18.476c0.253,4.264,0.964,8.527,1.573,12.791
			c0.305,1.929-0.457,2.843-2.183,2.894c-3.4,0.102-6.751,0.051-10.151,0.051c-1.979,0-2.589-1.422-2.792-2.995
			c-0.559-4.416-0.964-8.883-1.573-13.298c-0.254-1.98-0.66-4.01-1.319-5.889c-1.727-5.075-5.939-6.344-10.659-6.496
			c-4.924-0.152-9.797,0-14.72-0.051c-1.726,0-2.132,0.761-2.081,2.334c0.051,7.513,0.051,15.024,0,22.588
			c0,3.299-0.609,3.857-3.807,3.857c-2.792,0-5.584,0-8.375,0c-2.995,0-3.654-0.66-3.654-3.757c0-12.587,0-25.175,0-37.813
			c0-9.238,0-18.425,0-27.663c0-3.096,0.456-3.553,3.502-3.553c12.588,0,25.176-0.203,37.814,0.102
			c7.715,0.203,13.907,3.756,17.206,10.964c3.351,7.207,3.046,14.567-1.675,21.114C203.74,543.6,200.795,545.274,198.206,547.508z
			 M164.504,541.976c6.446,0,12.436,0.051,18.425,0c6.649-0.051,10.101-3.097,10.608-9.644c0.406-5.533-1.726-10.507-8.121-11.015
			c-6.446-0.508-12.994-0.355-19.491-0.355c-0.457,0-1.37,0.812-1.37,1.27C164.504,528.677,164.504,535.174,164.504,541.976z"/>
		<path fill="#FFFFFF" d="M583.403,547.66c7.563,2.64,9.188,9.188,9.999,16.191c0.559,4.873,1.016,9.695,1.574,14.567
			c0.253,2.335-0.305,3.198-2.64,3.198c-3.046,0.051-6.091-0.051-9.137,0.051c-1.878,0.051-2.893-0.812-3.146-2.538
			c-0.559-4.264-1.016-8.527-1.522-12.791c-0.203-1.675-0.406-3.35-0.812-4.974c-1.37-5.33-4.061-7.767-9.593-8.071
			c-5.482-0.354-10.964-0.202-16.445-0.354c-2.132-0.051-2.233,1.218-2.233,2.842c0,7.36,0,14.72,0,22.08
			c0,3.654-0.254,3.857-3.908,3.857c-2.792,0-5.584-0.051-8.375,0c-2.183,0.051-3.249-0.762-3.249-3.097
			c0.051-22.231,0.051-44.463,0-66.745c0-2.183,0.914-2.995,3.046-2.995c12.588,0.051,25.226-0.152,37.813,0.102
			c7.614,0.152,13.807,3.553,17.359,10.456c3.553,6.953,3.4,14.161-0.812,20.76C589.443,543.143,586.195,545.122,583.403,547.66z
			 M549.447,541.569c0.659,0.203,0.913,0.355,1.167,0.355c5.583,0,11.167,0.051,16.75,0.051c8.324,0,11.877-3.857,11.218-12.182
			c-0.355-4.822-2.792-8.02-7.513-8.375c-6.649-0.559-13.349-0.406-19.998-0.406c-0.559,0-1.472,1.472-1.522,2.284
			c-0.152,3.959-0.102,7.969-0.102,11.928C549.447,537.356,549.447,539.539,549.447,541.569z"/>
		<path fill="#FFFFFF" d="M332.713,547.305c10.202,3.908,10.202,12.486,10.964,20.811c0.304,3.452,0.71,6.853,1.269,10.253
			c0.355,2.335-0.203,3.249-2.69,3.3c-2.943,0.051-5.938-0.102-8.882,0.051c-2.183,0.102-3.147-1.016-3.452-2.894
			c-0.456-3.096-0.761-6.192-1.116-9.288c-0.254-2.081-0.305-4.213-0.66-6.294c-1.319-7.157-4.213-9.848-11.572-10.253
			c-4.975-0.254-9.999-0.051-14.974-0.102c-1.726,0-2.081,0.862-2.081,2.385c0.051,7.614,0.051,15.228,0,22.841
			c0,2.995-0.559,3.554-3.502,3.554c-3.046,0-6.091-0.051-9.137,0c-2.081,0.051-2.943-0.914-2.893-2.894
			c0.051-3.299,0-6.599,0-9.897c0-18.577,0-37.205,0-55.782c0-4.162,0.051-4.213,4.264-4.213c12.08,0,24.16-0.051,36.291,0.051
			c9.694,0.051,17.46,6.243,19.288,15.785c1.726,8.883-0.914,17.461-9.594,21.623C333.88,546.544,333.576,546.798,332.713,547.305z
			 M299.569,541.569c0.559,0.203,0.812,0.305,1.066,0.305c5.735,0.051,11.521,0,17.257,0.051
			c9.035,0.051,11.877-6.192,10.608-13.197c-0.812-4.466-3.046-7.004-7.461-7.359c-6.649-0.508-13.35-0.406-19.999-0.457
			c-0.507,0-1.37,1.016-1.421,1.522C299.518,528.778,299.569,535.123,299.569,541.569z"/>
		<path fill="#FFFFFF" d="M332.307,430.411c-9.44,0-16.699,0.051-23.957,0c-1.422,0-2.944-0.051-4.213-0.559
			c-0.914-0.354-2.132-1.675-2.03-2.385c0.152-0.965,1.269-2.081,2.233-2.589c0.964-0.508,2.335-0.355,3.502-0.355
			c11.42,0,22.841,0.102,34.261,0c25.176-0.254,50.301-1.675,74.816-7.969c9.897-2.538,18.882-6.802,25.785-14.669
			c3.451-3.959,6.192-8.324,6.395-13.755c0.355-8.578-6.04-13.907-14.517-12.283c-6.091,1.167-11.217,4.111-15.734,8.223
			c-2.487,2.284-4.924,4.67-7.664,6.599c-4.111,2.842-8.223,2.893-10.761,0.558c-2.386-2.183-2.741-6.345-0.152-10.557
			c8.883-14.415,21.014-24.618,38.271-26.8c12.232-1.574,24.16,4.822,26.749,18.526c1.522,8.07-0.609,15.583-4.822,22.536
			c-7.359,12.029-18.019,19.896-31.317,24.414c-12.029,4.061-24.414,6.547-36.951,8.222
			C371.593,430.157,350.884,430.614,332.307,430.411z"/>
		<path fill="#FFFFFF" d="M481.889,550.198c0,6.243,0,12.08,0,18.171c1.269,0.102,2.436,0.203,3.604,0.203
			c10.558,0,21.166,0,31.723,0c3.655,0,3.908,0.203,4.01,3.807c0.051,2.284-0.051,4.568-0.152,6.853
			c-0.101,1.624-0.964,2.386-2.639,2.386c-16.598,0-33.145,0-49.742,0c-1.726,0-2.437-0.914-2.64-2.437
			c-0.102-0.812-0.102-1.675-0.102-2.538c0-20.963,0-41.925,0-62.938c0-0.863,0-1.675,0.102-2.538
			c0.152-1.573,0.914-2.386,2.64-2.386c16.344,0.051,32.637,0.051,48.98,0c1.929,0,2.741,0.863,2.69,2.792
			c-0.051,2.386-0.102,4.72,0,7.105c0.102,2.335-0.914,3.097-3.147,3.097c-10.811-0.051-21.673,0-32.484-0.051
			c-2.233,0-3.197,0.508-3.045,2.943c0.203,3.452,0.203,6.954,0,10.405c-0.152,2.589,0.862,3.097,3.197,3.097
			c8.984-0.102,17.917-0.051,26.901-0.051c0.863,0,1.675,0.051,2.538,0c2.183-0.051,3.045,1.065,2.994,3.146
			c-0.051,1.776,0,3.554,0,5.33c-0.051,2.842-0.761,3.553-3.654,3.553c-9.491,0-18.933,0-28.424,0
			C484.223,550.198,483.208,550.198,481.889,550.198z"/>
		<path fill="#FFFFFF" d="M30.15,507.207c6.599,0.051,12.943,1.167,18.679,4.67c5.431,3.35,8.527,8.324,9.542,14.567
			c0.508,2.893-0.202,3.654-3.197,3.654c-2.944,0.051-5.938-0.051-8.883,0c-1.776,0.051-2.842-0.609-3.248-2.437
			c-1.016-4.568-4.01-7.359-8.477-7.867c-3.604-0.457-7.461-0.508-11.015,0.203c-4.72,1.015-6.953,5.481-5.786,9.694
			c0.711,2.64,2.792,3.807,5.076,4.467c6.04,1.827,12.182,3.4,18.222,5.177c3.045,0.914,6.142,1.878,9.034,3.249
			c14.923,7.055,13.248,26.292,3.249,34.058c-5.076,3.908-10.913,5.786-17.105,6.345c-6.751,0.609-13.501,0.254-19.998-2.233
			c-9.188-3.502-14.974-9.847-16.293-19.846c-0.305-2.284,0.457-3.3,2.842-3.351c3.147-0.05,6.294-0.202,9.391,0.102
			c1.065,0.102,2.741,1.27,2.842,2.132c1.016,6.7,6.192,10.812,14.213,11.269c3.502,0.203,7.207-0.559,10.658-1.421
			c3.554-0.914,5.736-3.604,5.989-7.36c0.254-3.654-1.776-6.345-4.974-7.512c-5.33-1.979-10.913-3.401-16.395-5.127
			c-3.756-1.218-7.613-2.284-11.218-3.857c-14.922-6.446-13.856-25.632-2.487-33.348C16.801,508.628,23.246,507.156,30.15,507.207z"
			/>
		<path fill="#FFFFFF" d="M133.593,534.616c0,7.004,0.152,14.06-0.051,21.063c-0.406,17.816-10.913,26.293-26.597,27.511
			c-5.735,0.457-11.472,0.203-17.055-1.472c-10.405-3.097-17.562-11.573-17.866-22.384c-0.406-15.786-0.355-31.622-0.508-47.407
			c0-2.081,0.863-3.097,3.097-2.995c3.146,0.102,6.242,0,9.39,0.051c2.894,0,3.35,0.508,3.35,3.4c0,14.11,0,28.222,0,42.383
			c0,1.421,0,2.893,0.203,4.314c1.523,9.745,9.137,12.232,18.171,11.115c8.934-1.065,12.232-5.38,12.334-15.43
			c0.102-13.857,0.051-27.714,0.051-41.621c0-4.213,0-4.213,4.314-4.213c2.792,0,5.584,0.051,8.375,0
			c2.081-0.051,2.843,0.863,2.843,2.894C133.542,519.389,133.593,527.002,133.593,534.616L133.593,534.616z"/>
		<path fill="#FFFFFF" d="M223.281,545.021c0-10.812,0-21.623,0-32.485c0-3.248,0.406-3.654,3.655-3.654c14.617,0,29.235,0,43.904,0
			c3.198,0,3.452,0.254,3.452,3.502c0,2.132-0.102,4.213,0.05,6.345c0.102,2.284-0.761,3.147-3.096,3.147
			c-9.542-0.102-19.085-0.051-28.678-0.051c-3.451,0-3.451,0-3.451,3.451c0,3.908,0.102,7.766-0.051,11.674
			c-0.051,1.879,0.608,2.487,2.486,2.437c8.223-0.102,16.395-0.051,24.617-0.051c3.249,0,3.452,0.254,3.503,3.452
			c0,1.878-0.051,3.705,0,5.583c0.102,2.081-0.812,2.893-2.894,2.842c-8.223-0.05-16.395,0.051-24.617-0.05
			c-2.487-0.051-3.146,0.71-3.096,3.146c0.152,7.766,0.051,15.531,0.051,23.349c0,3.4-0.609,3.959-3.959,4.01
			c-2.64,0-5.229,0-7.868,0c-3.451,0-4.01-0.559-4.01-3.908C223.281,566.847,223.281,555.934,223.281,545.021z"/>
		<path fill="#FFFFFF" d="M374.131,545.122c0,10.913,0,21.826,0,32.739c0,3.299-0.508,3.807-3.807,3.807
			c-2.894,0-5.736-0.102-8.629,0.051c-2.284,0.102-3.198-0.965-3.249-3.147c0-5.431-0.102-10.812-0.151-16.242
			c0-16.242,0-32.484,0-48.676c0-4.568,0.151-4.721,4.669-4.721c2.64,0,5.229,0.102,7.867-0.051c2.437-0.102,3.3,0.914,3.3,3.299
			C374.131,523.145,374.131,534.159,374.131,545.122z"/>
		<path fill="#FFFFFF" d="M394.942,630.395c0.051-0.965,0.203-1.929,0.203-2.894c0-6.091,0.152-12.182-0.051-18.272
			c-0.102-3.146,1.776-2.791,3.756-2.842c2.03-0.051,3.299,0.102,3.299,2.74c-0.152,10.202-0.102,20.455,0,30.658
			c0,2.03-0.508,2.639-2.639,2.842c-3.757,0.406-5.939-0.913-7.767-4.264c-3.35-6.04-7.207-11.826-10.912-17.663
			c-0.457-0.711-0.914-1.371-1.929-1.979c-0.051,0.862-0.152,1.726-0.152,2.588c0,6.192-0.051,12.334,0.051,18.526
			c0.051,2.03-0.559,3.046-2.69,2.741c-0.559-0.102-1.168-0.102-1.776,0c-2.233,0.305-2.792-0.862-2.741-2.791
			c0.051-6.446,0-12.842,0-19.288c0-3.807,0.102-7.613,0.051-11.421c-0.051-1.878,0.609-2.588,2.589-2.791
			c3.604-0.355,5.837,0.761,7.664,4.061c3.4,6.142,7.309,11.928,11.015,17.917c0.456,0.762,1.015,1.472,1.522,2.183
			C394.535,630.496,394.739,630.445,394.942,630.395z"/>
		<path fill="#FFFFFF" d="M410.067,624.558c0-5.229,0.051-10.456,0-15.734c0-1.523,0.406-2.437,2.081-2.386
			c5.33,0.102,10.659-0.051,15.938,0.405c7.41,0.66,11.979,4.924,13.399,12.334c1.016,5.279,0.812,10.608-1.726,15.532
			c-2.589,5.075-6.903,7.562-12.436,7.816c-4.975,0.203-9.948,0-14.923,0.102c-1.776,0.051-2.335-0.66-2.335-2.386
			C410.117,635.014,410.067,629.785,410.067,624.558z M417.884,636.384c2.639,0,5.075,0.051,7.512,0
			c4.061-0.051,7.105-2.386,8.375-6.142c3.4-10.456-1.624-17.511-12.486-17.46c-0.152,0-0.355,0-0.508,0
			c-2.233-0.305-3.146,0.456-3.045,2.943c0.152,5.888,0,11.826,0,17.766C417.681,634.303,417.782,635.217,417.884,636.384z"/>
		<path fill="#FFFFFF" d="M588.225,630.344c0-0.914,0-1.776,0-2.69c0-6.192,0.102-12.334-0.051-18.526
			c-0.051-2.183,0.762-2.943,2.843-2.689c0.659,0.051,1.37,0.051,2.03,0c1.522-0.152,2.182,0.608,2.182,2.081
			c0,10.709,0,21.47,0,32.18c0,1.37-0.608,2.03-1.979,1.929c-0.151,0-0.354-0.051-0.507,0c-3.705,0.711-5.938-0.762-7.816-4.162
			c-3.351-6.04-7.208-11.826-10.862-17.663c-0.457-0.711-0.914-1.371-1.979-1.929c-0.051,0.862-0.203,1.675-0.203,2.537
			c0,6.192-0.051,12.334,0,18.526c0.051,2.03-0.508,3.046-2.69,2.741c-0.762-0.102-1.522-0.051-2.284,0
			c-1.37,0.051-1.979-0.457-1.979-1.929c0.051-10.812,0-21.622,0.051-32.434c0-0.457,0.152-1.066,0.457-1.371
			c1.167-1.218,7.055-0.405,8.02,1.117c4.162,6.649,8.324,13.298,12.486,19.998c0.508,0.863,1.116,1.675,1.675,2.487
			C587.717,630.445,587.971,630.395,588.225,630.344z"/>
		<path fill="#FFFFFF" d="M523.205,624.659c-0.051-9.745,4.771-16.445,13.196-18.476c11.421-2.741,21.774,5.024,21.927,16.75
			c0.051,3.248-0.304,6.648-1.319,9.644c-2.995,8.629-11.015,11.775-18.272,10.812c-9.289-1.219-15.177-7.716-15.531-16.496
			C523.154,626.182,523.205,625.42,523.205,624.659z M540.868,612.071c-4.568,0-7.766,2.183-9.238,6.446
			c-1.37,3.857-1.472,7.766-0.152,11.674c1.523,4.568,4.924,7.106,9.391,7.106c4.416,0,7.867-2.64,9.288-7.208
			c1.32-4.111,1.168-8.172-0.456-12.131C548.025,614,545.183,612.071,540.868,612.071z"/>
		<path fill="#FFFFFF" d="M291.549,624.608c0.203-9.694,5.127-16.445,13.552-18.425c11.319-2.64,21.623,5.075,21.775,16.699
			c0.051,3.4-0.355,6.953-1.472,10.151c-2.792,7.816-9.898,11.115-17.512,10.558c-8.02-0.559-14.009-5.736-15.633-13.197
			C291.905,628.466,291.803,626.486,291.549,624.608z M319.973,624.862c-0.609-2.437-0.964-4.924-1.827-7.157
			c-1.421-3.604-4.213-5.481-8.223-5.634c-4.162-0.152-7.309,1.37-9.086,5.126c-2.283,4.822-2.334,9.797-0.102,14.669
			c1.676,3.655,4.771,5.432,8.73,5.381s7.056-1.878,8.629-5.584C318.958,629.582,319.364,627.197,319.973,624.862z"/>
		<path fill="#FFFFFF" d="M333.17,620.396c0-3.705,0.051-7.461-0.051-11.167c-0.051-2.03,0.659-2.842,2.791-2.791
			c5.432,0.102,4.721-0.152,4.721,4.567c0,6.091-0.051,12.183,0,18.273c0.051,6.852,6.396,10.456,12.486,7.004
			c2.437-1.37,3.046-3.705,3.097-6.243c0-6.852,0.101-13.704-0.051-20.557c-0.051-2.335,0.608-3.146,2.994-3.096
			c4.771,0.152,4.822,0,4.771,4.669c-0.102,6.903-0.051,13.857-0.457,20.76c-0.355,5.888-3.705,9.594-9.44,11.065
			c-4.111,1.065-8.172,0.965-12.232-0.305c-5.025-1.573-8.223-5.532-8.426-10.812c-0.152-3.807-0.051-7.613-0.051-11.42
			C333.272,620.396,333.221,620.396,333.17,620.396z"/>
		<path fill="#FFFFFF" d="M473.362,642.627c-2.64,0.914-3.503-1.015-4.314-3.4c-1.878-5.635-0.559-4.619-6.497-4.721
			c-2.386-0.051-4.721,0.051-7.106-0.051c-1.421-0.051-2.233,0.457-2.588,1.827c-0.152,0.66-0.406,1.27-0.66,1.929
			c-1.979,5.178-0.66,4.365-6.294,4.416c-2.589,0.051-2.792-0.254-1.827-2.842c2.589-6.853,5.177-13.705,7.816-20.558
			c1.27-3.4,2.64-6.75,3.807-10.202c0.609-1.827,1.573-2.689,3.654-2.639c6.041,0.254,4.822-0.914,7.056,4.974
			c3.451,9.035,6.802,18.171,10.202,27.206C478.132,642.627,478.132,642.627,473.362,642.627z M465.544,628.923
			c-1.675-4.771-3.146-9.086-4.669-13.35c-0.254,0.051-0.457,0.051-0.711,0.102c-1.522,4.314-3.045,8.629-4.67,13.299
			C458.997,628.923,461.991,628.923,465.544,628.923z"/>
		<path fill="#FFFFFF" d="M276.323,606.438c3.299,0,6.598,0.102,9.897-0.051c2.487-0.102,2.689,1.218,2.689,3.146
			c-0.051,1.827,0.102,3.3-2.537,3.198c-4.314-0.152-8.629,0-12.943-0.051c-1.776-0.051-2.335,0.608-2.335,2.386
			c-0.102,6.598-0.152,6.598,6.345,6.598c2.03,0,4.061,0.102,6.091-0.051c2.233-0.152,2.944,0.66,2.894,2.894
			c0,2.081-0.355,3.096-2.741,2.944c-3.451-0.203-6.903,0-10.405-0.051c-1.624-0.051-2.233,0.608-2.183,2.232
			c0.102,3.554,0,7.106,0.051,10.659c0.051,1.574-0.355,2.335-2.132,2.335c-6.091-0.152-5.38,0.762-5.38-5.126
			c-0.051-9.035,0-18.07,0-27.104c0-3.959,0-3.959,3.857-3.959C270.434,606.438,273.378,606.438,276.323,606.438z"/>
		<path fill="#FFFFFF" d="M493.563,628.06c0,4.061-0.051,8.121,0,12.182c0.051,1.624-0.355,2.487-2.233,2.437
			c-6.142-0.152-5.127,0.66-5.178-5.075c-0.051-7.259-0.102-14.517,0.051-21.826c0.051-2.487-0.812-3.35-3.197-3.096
			c-1.573,0.152-3.198-0.102-4.822,0.051c-2.386,0.203-3.35-0.508-3.197-3.097c0.203-3.197,0.051-3.248,3.35-3.248
			c5.938,0,11.826,0,17.766,0c1.522,0,3.045,0,4.567,0c3.908,0,4.924,1.269,3.857,5.024c-0.151,0.559-1.167,1.168-1.776,1.168
			c-2.183,0.152-4.415,0.152-6.598,0.051c-2.03-0.102-2.64,0.761-2.589,2.689C493.614,619.634,493.563,623.847,493.563,628.06z"/>
		<path fill="#FFFFFF" d="M516.81,624.659c0,5.075-0.102,10.151,0.05,15.227c0.051,2.03-0.507,2.894-2.689,2.792
			c-5.229-0.203-4.822,0.762-4.822-4.721c-0.051-9.136,0-18.272,0-27.408c0-4.111,0-3.959,4.213-4.162
			c2.538-0.102,3.451,0.659,3.35,3.299C516.657,614.66,516.81,619.634,516.81,624.659z"/>
	</g>
</g>
</svg>
