<?xml version="1.0" encoding="utf-8"?>
<!-- Generator: Adobe Illustrator 15.0.0, SVG Export Plug-In . SVG Version: 6.00 Build 0)  -->
<!DOCTYPE svg PUBLIC "-//W3C//DTD SVG 1.1//EN" "http://www.w3.org/Graphics/SVG/1.1/DTD/svg11.dtd">
<svg version="1.1" id="Layer_1" xmlns="http://www.w3.org/2000/svg" xmlns:xlink="http://www.w3.org/1999/xlink" x="0px" y="0px"
	 width="612.006px" height="236.768px" viewBox="0 0 612.006 236.768" enable-background="new 0 0 612.006 236.768"
	 xml:space="preserve">
<g id="XMLID_2933_">
	<path id="XMLID_2955_" fill="#FFFFFF" d="M57.955,46.494c0,4.208,0,5.1-1.657,8.86H78.61c18.615,0,32.321-13.706,32.066-28.113
		C110.421,10.029,96.269-0.426,80.012-0.426h-23.46c1.658,3.697,1.402,6.248,1.402,8.86L57.955,46.494L57.955,46.494z M67.262,3.462
		h9.053c16.958,0,23.715,14.854,24.161,24.162c0.255,9.052-2.805,23.97-22.312,23.97h-10.71L67.262,3.462L67.262,3.462z"/>
	<path id="XMLID_2954_" fill="#FFFFFF" d="M212.103,56.248h2.295l20.208-48.131c1.658-3.697,2.55-5.101,4.909-8.352h-5.801
		L216.055,41.65L198.141-0.235h-13.005c3.697,4.399,4.654,4.909,6.757,9.562L212.103,56.248z"/>
	<path id="XMLID_2953_" fill="#FFFFFF" d="M257.938,55.292h12.814c-1.85-3.698-1.658-6.248-1.658-8.861V8.499
		c0-2.806,0-5.101,1.658-8.861h-12.814c1.85,3.697,1.85,6.248,1.85,8.861v37.676C259.596,48.789,259.596,51.594,257.938,55.292"/>
	<path id="XMLID_2950_" fill="#FFFFFF" d="M298.865,46.494c0,4.208,0,5.1-1.656,8.86h22.312c18.615,0,32.32-13.706,32.066-28.113
		c-0.257-17.213-14.152-27.667-30.664-27.667h-23.46c1.656,3.697,1.656,6.248,1.656,8.86L298.865,46.494L298.865,46.494z
		 M308.174,3.462h9.053c16.957,0,23.715,14.854,23.969,24.162c0.256,9.052-2.805,23.97-22.312,23.97h-10.709L308.174,3.462
		L308.174,3.462z"/>
	<path id="XMLID_2947_" fill="#FFFFFF" d="M400.036,55.993C417.95,55.738,430.7,41.84,430.7,26.923
		c0-16.958-14.407-27.667-30.918-27.667c-17.914,0-30.664,14.153-30.664,29.07C368.863,44.836,383.271,55.993,400.036,55.993
		 M400.036,3.654c7.459,0,19.509,8.352,20.72,24.161c0.7,9.309-4.207,23.46-20.72,23.716c-7.459,0-19.762-8.353-20.719-24.418
		C378.363,17.87,383.973,3.654,400.036,3.654"/>
	<path id="XMLID_2946_" fill="#FFFFFF" d="M452.12,55.292h12.814c-1.85-3.698-1.658-4.909-1.658-8.861V27.115h19.508l1.402-3.953
		h-20.91V3.909h18.359c2.295,0,3.252,0,9.754,2.55l-2.805-6.949h-36.273c1.848,3.698,1.658,6.248,1.658,8.861v37.612
		C453.715,50.446,453.715,51.339,452.12,55.292"/>
	<path id="XMLID_2945_" fill="#FFFFFF" d="M506.053,55.292h12.813c-1.848-3.698-1.848-4.909-1.848-8.861V27.115h19.506l1.402-3.953
		H517.02V3.909h17.211c2.295,0,3.252,0,9.754,2.55L541.18-0.49h-35.318c1.851,3.698,1.851,6.248,1.851,8.861v37.612
		C507.902,50.446,507.902,51.339,506.053,55.292"/>
	<path id="XMLID_2944_" fill="#FFFFFF" d="M144.463,13.216l7.204,16.766l0.701,1.658h-7.905v5.101h10.009l8.16,18.806h13.005
		c-3.697-4.208-4.909-4.909-6.949-9.562l-3.696-9.053h16.511l2.104-4.909h-20.719l-0.701-1.656L148.926-1h-2.295l-20.208,48.131
		c-1.658,3.953-2.55,5.1-4.909,8.351h5.801L144.463,13.216z"/>
	<path id="XMLID_2943_" fill="#FFFFFF" d="M505.543,114.579c2.551,2.104,4.399-1.85,2.551-3.697
		c-2.295-2.55-9.054-6.502-20.019-6.502c-36.272,0-102.317,66.746-143.946,109.521l52.784-88.356h-13.516l-86.189,86.445
		l60.498-99.26c-68.85,14.663-93.011,42.075-86.508,60.69l12.112-8.353c-3.953-15.81,22.759-32.32,53.041-41.884l-68.404,112.583
		l19.764-6.247l81.408-81.854l-52.53,88.103l21.866-6.247c23.459-26.266,112.072-120.232,149.304-120.232
		C497.895,109.224,502.993,112.73,505.543,114.579"/>
	<path id="XMLID_2938_" fill="#FFFFFF" d="M201.456,188.975c35.828-18.806,77.2-61.837,83.448-77.201
		c3.697-9.053-2.55-13.707-10.9-10.009c-26.074,11.411-67.895,56.993-85.808,87.209c-4.398,1.851-8.352,2.807-11.857,2.807
		c-0.956,0-1.85,0-2.805,0c4.208-9.309,4.653-19.509-5.101-19.509c-7.649,0-16.064,3.251-23.97,8.606
		c-11.156,6.758-20.91,10.9-27.922,10.9c-1.147,0-2.104,0-2.806,0c4.208-9.308,4.909-19.508-5.1-19.508
		c-13.005,0-28.369,9.754-39.27,21.866c-7.905,8.16-33.278,32.769-48.132,32.769c-11.155,0-9.754-10.2-8.351-16.512
		c8.606-35.828,69.742-95.307,97.219-95.307c11.411,0,11.411,8.352,7.204,16.063c-4.398,8.16-16.064,14.408-16.064,14.408
		l13.706,3.697c0,0,7.459-5.355,11.155-14.662c5.101-12.559-0.445-25.118-14.854-25.118C66.37,109.734,6.126,171.763,0.516,208.291
		c-2.805,18.359,6.248,25.563,16.958,25.563c12.813,0,28.114-10.455,39.971-20.464c-2.55,7.649-2.295,18.807,8.352,18.807
		c16.958,0,37.932-24.161,45.135-34.616c0.701,0,1.657,0,2.55,0c4.909,0,10.2-1.147,16.065-3.251
		c-5.101,5.801-9.052,12.111-11.411,17.914c-2.805,7.648-3.251,20.208,7.905,20.208c16.958,0,37.931-24.161,45.135-34.616
		c0.701,0,1.402,0,2.295,0c3.506,0,7.65-0.701,11.857-1.85c-1.657,3.253-2.806,6.248-3.697,8.861
		c-5.61,17.659-1.658,27.413,10.009,27.413c15.555,0,34.871-18.36,39.525-25.373c2.295-3.251-0.701-6.502-2.551-4.397
		c-8.352,9.053-24.161,22.566-33.277,22.566c-4.909,0-5.801-5.1-4.654-11.156C191.639,207.144,195.591,198.537,201.456,188.975
		 M274.45,107.63c4.908-2.805,6.502,0.255,4.208,3.698c-12.112,20.017-43.925,50.234-70.699,67.192
		C227.466,149.705,258.385,116.938,274.45,107.63 M108.19,190.888c-2.805-0.956-3.697-2.295-4.653-2.996l-7.65,5.101
		c1.402,1.656,3.697,2.996,8.351,4.208c-9.052,13.005-24.861,26.966-32.768,26.966c-3.697,0-3.251-5.101-1.657-9.053
		c5.355-12.56,27.222-36.976,37.676-36.976C112.588,177.818,111.441,184.321,108.19,190.888 M168.179,190.378l-0.255,0.446
		c-2.805-0.957-3.952-2.297-4.909-2.997l-7.649,5.101c1.401,1.657,3.697,3.251,8.352,4.207
		c-9.053,13.005-24.863,26.967-32.768,26.967c-3.953,0-3.251-5.101-1.658-9.053c5.354-12.559,27.221-36.975,37.676-36.975
		C172.386,177.818,171.43,184.321,168.179,190.378"/>
	<path id="XMLID_2934_" fill="#FFFFFF" d="M604.865,172.272c-10.709,0-25.117,9.054-36.719,18.36
		c3.697-5.802,6.248-10.901,7.65-16.065l-13.707,2.295c-0.701,2.996-2.996,7.459-6.502,12.56
		c-11.156,14.663-40.228,34.872-54.379,34.872c-4.398,0-6.248-2.807-4.908-7.905c0.955-3.507,2.805-7.204,5.354-10.901
		c13.006,0.256,33.277-6.948,39.781-19.508c4.398-8.86-0.447-15.107-9.754-13.961c-11.412,1.657-26.521,12.112-36.721,24.416
		c-9.054,10.009-30.918,27.923-37.933,27.923c-2.104,0-2.549-2.295-0.445-5.802c4.207-7.458,24.673-32.321,43.478-54.634h47.176
		l8.353-6.502l-51.384,1.146c16.513-19.508,30.664-36.273,30.664-36.273l-20.465,7.459c0,0-10.709,13.005-23.969,29.07
		l-19.764,0.445l-4.652,4.398h20.463c-7.203,8.605-14.662,18.104-21.42,26.266c-6.758,7.649-30.664,33.469-41.629,33.469
		c-2.805,0-2.104-2.806-1.148-4.908c4.4-11.156,35.127-43.732,35.127-43.732h-13.26c0,0-2.104,2.295-4.908,5.61
		c0.254-5.355-3.696-8.16-9.754-8.16c-17.213,0-44.625,21.611-51.639,40.48c-3.697,10.455-0.701,19.508,7.459,19.508
		c6.949,0,17.213-6.502,26.521-15.108c-2.998,8.352-1.147,15.108,5.101,15.108c7.904,0,18.104-7.203,27.412-15.363
		c-3.506,8.351-1.658,15.363,4.907,15.363c9.562,0,24.863-11.411,34.617-20.019c-0.256,0.446-0.256,0.957-0.446,1.658
		c-2.996,10.199,2.104,18.614,10.901,18.614c11.857,0,28.623-9.753,42.074-19.763c-5.1,6.247-10.9,13.005-16.766,19.763
		l14.662-2.295l4.907-5.609c18.808-21.42,42.076-42.776,55.336-42.776c4.398,0,8.16,1.402,9.562,2.295l7.904-9.053
		C611.814,173.866,608.564,172.272,604.865,172.272 M532.318,177.372c3.953-1.85,5.609,0.445,4.207,3.697
		c-4.397,10.901-20.91,18.104-30.662,18.614C513.702,189.932,524.668,180.624,532.318,177.372 M390.922,224.803
		c-2.295,0-3.953-2.104-1.851-7.204c6.248-14.854,32.769-40.227,42.33-40.227c3.506,0,4.207,2.296,2.104,7.459
		C428.598,195.031,401.186,224.803,390.922,224.803"/>
</g>
</svg>
