<?xml version="1.0" encoding="utf-8"?>
<!-- Generator: Adobe Illustrator 17.1.0, SVG Export Plug-In . SVG Version: 6.00 Build 0)  -->
<!DOCTYPE svg PUBLIC "-//W3C//DTD SVG 1.1//EN" "http://www.w3.org/Graphics/SVG/1.1/DTD/svg11.dtd">
<svg version="1.1" id="Layer_1" xmlns="http://www.w3.org/2000/svg" xmlns:xlink="http://www.w3.org/1999/xlink" x="0px" y="0px"
	 viewBox="0 0 477 138" style="enable-background:new 0 0 477 138;" xml:space="preserve">
<style type="text/css">
	.st0{fill:#FFFFFF;stroke:#FFFFFF;stroke-width:3;stroke-miterlimit:10;}
	.st1{fill:#FFFFFF;}
</style>
<line class="st0" x1="0" y1="1.5" x2="477" y2="1.5"/>
<line class="st0" x1="0" y1="136.5" x2="477" y2="136.5"/>
<g>
	<path class="st1" d="M3.6,36h4.1l4.4,12.6V36h4.2v24.9h-3.8L7.9,47.7v13.2H3.6V36z"/>
	<path class="st1" d="M19.6,36h9.5v4.1h-5.2v6.2h4.6v4.1h-4.6v6.3h5.3v4.1h-9.6V36z"/>
	<path class="st1" d="M32,36h4.3v10.3h3.8V36h4.3v24.9h-4.3V50.5h-3.8v10.4H32V36z"/>
	<path class="st1" d="M47.7,36H52l3.1,9.1l3.1-9.1h4.3v24.9h-4.2v-15l-3.2,9.4H55l-3.2-9.4v15h-4.2V36z"/>
	<path class="st1" d="M65.7,36h9.5v4.1H70v6.2h4.6v4.1H70v6.3h5.3v4.1h-9.6V36z"/>
	<path class="st1" d="M78.1,36h4.1l4.4,12.6V36h4.2v24.9h-3.8l-4.6-13.2v13.2h-4.2V36z"/>
	<path class="st1" d="M99.9,60.1v-4.5c1.5,0.9,2.7,1.4,3.9,1.4c1.2,0,2.3-0.6,2.3-2.1v-0.1c0-1.1-0.4-2-2.4-4.3
		c-2.9-3.3-4.2-4.9-4.2-8v-0.1c0-4,2.6-6.5,6-6.5c1.7,0,2.8,0.2,3.8,0.8v4.5c-1.4-0.8-2.2-1.1-3.3-1.1c-1.2,0-2.2,0.8-2.2,2.1v0.1
		c0,1.2,0.4,1.6,2.4,4c3.4,3.9,4.2,5.5,4.2,8.3v0.1c0,3.9-2.7,6.5-6.1,6.5C102.6,61.1,101.1,60.7,99.9,60.1z"/>
	<path class="st1" d="M112.7,36h4.3v24.9h-4.3V36z"/>
	<path class="st1" d="M120.4,36h9.5v4.1h-5.2v6.2h4.6v4.1h-4.6v6.3h5.3v4.1h-9.6V36z"/>
	<path class="st1" d="M141.5,40.2h-3.1V36h10.4v4.1h-3.1v20.8h-4.3V40.2z"/>
	<path class="st1" d="M151.4,36h9.5v4.1h-5.2v6.2h4.6v4.1h-4.6v6.3h5.3v4.1h-9.6V36z"/>
	<path class="st1" d="M163.9,36h4.3v24.9h-4.3V36z"/>
	<path class="st1" d="M171.6,36h4.3v20.8h4.6v4.1h-8.9V36z"/>
	<path class="st1" d="M192.8,36h4.6l4.7,24.9h-4.3L197,56h-3.9l-0.8,4.9h-4.2L192.8,36z M196.4,52.1l-1.3-8.2l-1.4,8.2H196.4z"/>
	<path class="st1" d="M204.2,36h4.3l3.1,9.1l3.1-9.1h4.3v24.9h-4.2v-15l-3.2,9.4h-0.1l-3.2-9.4v15h-4.2V36z"/>
	<path class="st1" d="M228.5,36h4.1c5.5,0,8.7,4,8.7,12v0.9c0,8-3.2,12-8.7,12h-4.1V36z M233,56.9c2.1,0,3.8-1.8,3.8-8v-0.9
		c0-6.2-1.8-8-3.8-8h-0.2v16.9H233z"/>
	<path class="st1" d="M247.2,36h4.6l4.7,24.9h-4.3l-0.8-4.9h-3.9l-0.8,4.9h-4.2L247.2,36z M250.8,52.1l-1.3-8.2l-1.4,8.2H250.8z"/>
	<path class="st1" d="M257,36h4.4l2.3,16.2l2.3-16.2h4.3L265.9,61h-4.5L257,36z"/>
	<path class="st1" d="M272.5,36h4.3v24.9h-4.3V36z"/>
	<path class="st1" d="M280.1,36h4.1c5.5,0,8.7,4,8.7,12v0.9c0,8-3.2,12-8.7,12h-4.1V36z M284.7,56.9c2.1,0,3.8-1.8,3.8-8v-0.9
		c0-6.2-1.8-8-3.8-8h-0.2v16.9H284.7z"/>
	<path class="st1" d="M295.3,49.1v-1.3c0-8.2,2.7-12.2,6.6-12.2s6.6,3.9,6.6,12.2v1.3c0,8.2-2.7,12.2-6.6,12.2
		S295.3,57.3,295.3,49.1z M304.1,49.1v-1.3c0-6.4-0.9-8.2-2.2-8.2s-2.2,1.8-2.2,8.2v1.3c0,6.4,0.9,8.2,2.2,8.2
		S304.1,55.5,304.1,49.1z"/>
	<path class="st1" d="M311.4,36h9.1v4.1h-4.7v6.3h4.1v4.1h-4.1v10.4h-4.3V36z"/>
	<path class="st1" d="M323.1,36h9.1v4.1h-4.7v6.3h4.1v4.1h-4.1v10.4h-4.3V36z"/>
	<path class="st1" d="M340.8,48.9v-0.9c0-8.7,3.2-12.2,7.3-12.2c1.2,0,1.9,0.1,2.8,0.6v4.5c-0.9-0.5-1.6-0.8-2.4-0.8
		c-1.9,0-3.3,1.7-3.3,7.9v0.9c0,6.6,1.4,7.9,3.4,7.9c0.7,0,1.5-0.2,2.4-0.8v4.3c-1,0.6-2,0.7-3.2,0.7
		C343.8,61.1,340.8,57.6,340.8,48.9z"/>
	<path class="st1" d="M352.5,49.1v-1.3c0-8.2,2.7-12.2,6.6-12.2s6.6,3.9,6.6,12.2v1.3c0,8.2-2.7,12.2-6.6,12.2
		S352.5,57.3,352.5,49.1z M361.3,49.1v-1.3c0-6.4-0.9-8.2-2.2-8.2s-2.2,1.8-2.2,8.2v1.3c0,6.4,0.9,8.2,2.2,8.2
		S361.3,55.5,361.3,49.1z"/>
	<path class="st1" d="M368.2,49.1v-1.3c0-8.2,2.7-12.2,6.6-12.2s6.6,3.9,6.6,12.2v1.3c0,8.2-2.7,12.2-6.6,12.2
		S368.2,57.3,368.2,49.1z M377,49.1v-1.3c0-6.4-0.9-8.2-2.2-8.2s-2.2,1.8-2.2,8.2v1.3c0,6.4,0.9,8.2,2.2,8.2S377,55.5,377,49.1z"/>
	<path class="st1" d="M384.2,36h4.3v20.8h4.6v4.1h-8.9V36z"/>
	<path class="st1" d="M400.8,36h4.4l1.8,15.2l2.2-15.2h4l2.1,15.2l1.8-15.2h4.3L417.8,61h-4.5l-2.1-14.7L409.1,61h-4.5L400.8,36z"/>
	<path class="st1" d="M426.8,36h4.6l4.7,24.9h-4.3L431,56h-3.9l-0.8,4.9h-4.2L426.8,36z M430.4,52.1l-1.3-8.2l-1.4,8.2H430.4z"/>
	<path class="st1" d="M439.4,40.2h-3.1V36h10.4v4.1h-3.1v20.8h-4.3V40.2z"/>
	<path class="st1" d="M449.3,36h9.5v4.1h-5.2v6.2h4.6v4.1h-4.6v6.3h5.3v4.1h-9.6V36z"/>
	<path class="st1" d="M461.8,36h4.5c4.4,0,7.7,2.3,7.7,7.9v0.3c0,3.2-1.3,5.3-2.9,6.5l3.3,10.1h-4.6l-2.8-8.7c0,0-0.1,0-0.1,0h-0.7
		v8.7h-4.3V36z M466.3,48.3c1.9,0,3.3-1.1,3.3-4V44c0-3.1-1.5-3.9-3.4-3.9h-0.1v8.2H466.3z"/>
	<path class="st1" d="M82.4,78.7h3.8c4.2,0,8.1,1.7,8.1,6.3v0.2c0,3.2-1.8,4.8-3.6,5.6c2.1,0.9,3.9,2.4,3.9,5.5v0.3
		c0,4.4-3.4,6.9-8.2,6.9h-3.9V78.7z M86.8,89.1c1.9,0,3.2-1.1,3.2-3.3v-0.1c0-2.2-1.3-3.1-3.2-3.1h-0.1L86.8,89.1L86.8,89.1z
		 M86.9,99.5c2,0,3.4-1.2,3.4-3.2v-0.2c0-2.1-1.4-3.2-3.4-3.2h-0.1v6.6H86.9z"/>
	<path class="st1" d="M107.1,78.7h9.5v4.1h-5.2V89h4.6v4.1h-4.6v6.3h5.3v4.1h-9.6V78.7z"/>
	<path class="st1" d="M132.9,78.6h4.6l4.7,24.9h-4.3l-0.8-4.9h-3.9l-0.8,4.9h-4.2L132.9,78.6z M136.5,94.7l-1.3-8.2l-1.4,8.2H136.5z
		"/>
	<path class="st1" d="M153.5,91.5v-0.9c0-8.7,3.2-12.2,7.3-12.2c1.2,0,1.9,0.1,2.8,0.6v4.5c-0.9-0.5-1.6-0.8-2.4-0.8
		c-1.9,0-3.3,1.7-3.3,7.9v0.9c0,6.6,1.4,7.9,3.4,7.9c0.7,0,1.5-0.2,2.4-0.8v4.3c-1,0.6-2,0.7-3.2,0.7
		C156.5,103.7,153.5,100.2,153.5,91.5z"/>
	<path class="st1" d="M176.5,78.7h4.3V89h3.8V78.7h4.3v24.9h-4.3V93.1h-3.8v10.4h-4.3V78.7z"/>
	<path class="st1" d="M218,91.5v-0.9c0-8.7,3.2-12.2,7.3-12.2c1.2,0,1.9,0.1,2.8,0.6v4.5c-0.9-0.5-1.6-0.8-2.4-0.8
		c-1.9,0-3.3,1.7-3.3,7.9v0.9c0,6.6,1.4,7.9,3.4,7.9c0.7,0,1.5-0.2,2.4-0.8v4.3c-1,0.6-2,0.7-3.2,0.7
		C221.1,103.7,218,100.2,218,91.5z"/>
	<path class="st1" d="M241.1,78.7h4.3v20.8h4.6v4.1h-8.9V78.7z"/>
	<path class="st1" d="M262.4,78.7h9.5v4.1h-5.2V89h4.6v4.1h-4.6v6.3h5.3v4.1h-9.6V78.7z"/>
	<path class="st1" d="M288.2,78.6h4.6l4.7,24.9h-4.3l-0.8-4.9h-3.9l-0.8,4.9h-4.2L288.2,78.6z M291.8,94.7l-1.3-8.2l-1.4,8.2H291.8z
		"/>
	<path class="st1" d="M309.6,78.7h4.1l4.4,12.6V78.7h4.2v24.9h-3.8l-4.6-13.2v13.2h-4.2V78.7z"/>
	<path class="st1" d="M335.5,90.4h9.2v4.3h-9.2V90.4z"/>
	<path class="st1" d="M358,96.3V78.7h4.3v18.1c0,2.2,0.8,3.1,1.9,3.1s1.9-0.9,1.9-3.1V78.7h4.3v17.6c0,5.2-2.6,7.6-6.2,7.6
		S358,101.5,358,96.3z"/>
	<path class="st1" d="M383.5,78.7h3.9c4.7,0,8,2.6,8,8.4v0.1c0,5.6-3.1,8.3-7.5,8.6h0v7.8h-4.3V78.7z M387.8,91.7
		c1.8-0.1,3.2-1.4,3.2-4.4v-0.1c0-3.2-1.2-4.5-3.1-4.5h-0.1L387.8,91.7L387.8,91.7z"/>
</g>
</svg>
