<?xml version="1.0" standalone="no"?>
<!DOCTYPE svg PUBLIC "-//W3C//DTD SVG 1.1//EN" "http://www.w3.org/Graphics/SVG/1.1/DTD/svg11.dtd" >
<svg xmlns="http://www.w3.org/2000/svg" width="100%" height="100%">
<metadata>
Created by FontXChange 20100429 at Mon Apr 28 00:53:50 2014
 By ALJ
</metadata>
<defs>
<font id="DomaineDisplay-RegularItalic" horiz-adv-x="500" >
  <font-face 
    font-family="DomaineDisplay"
    font-weight="400"
    font-style="italic"
    font-stretch="normal"
    units-per-em="1000"
    panose-1="0 0 0 0 0 0 0 0 0 0"
    ascent="775"
    descent="-225"
    x-height="486"
    cap-height="700"
    bbox="-237 -254 1098 1078"
    underline-thickness="0"
    underline-position="0"
    slope="-14"
    unicode-range="U+0020-FB04"
  />
<missing-glyph 
 />
    <glyph glyph-name="ff" unicode="ff" horiz-adv-x="587" 
d="M195 486h210l15 57q2 12 8 27q-32 4 -47 24q26 1 42 19t16 47q0 28 -16.5 45.5t-48.5 17.5q-125 0 -172 -206zM73 -21q-26 -107 -71.5 -158.5t-122.5 -55.5v2q45 20 71.5 87.5t56.5 197.5l93 408h-70l2 7l74 21l7 27q28 106 97 165t165 59q86 0 122 -43q54 56 135 56
q53 0 84.5 -21.5t31.5 -56.5q0 -30 -21.5 -48t-50.5 -18q-38 0 -51 22q49 6 49 59q0 47 -50 47q-43 0 -70 -41.5t-47 -142.5l-13 -66h126l-12 -26h-119l-113 -461q-26 -107 -71.5 -158.5t-122.5 -55.5v2q45 20 72.5 88.5t55.5 196.5l88 388h-208z" />
    <glyph glyph-name="fi" unicode="fi" horiz-adv-x="552" 
d="M400 460h-210l-117 -481q-26 -107 -71.5 -158.5t-122.5 -55.5v2q45 20 71.5 87.5t56.5 197.5l93 408h-70l2 7l74 21l13 40q76 224 261 224q70 0 105.5 -27.5t35.5 -65.5q0 -35 -23.5 -55.5t-55.5 -20.5q-37 0 -56 24q26 1 42 19t16 47q0 28 -16.5 45.5t-48.5 17.5
q-67 0 -111 -54.5t-64 -150.5l-9 -45h296l-99 -398q-3 -10 -3 -19q0 -19 12.5 -29.5t32.5 -10.5q23 0 55 16l1 -2q-53 -53 -109 -53q-35 0 -56 19t-21 53q0 15 4 30z" />
    <glyph glyph-name="fl" unicode="fl" horiz-adv-x="551" 
d="M346 752q79 0 117 -54q44 17 89 51h3l-161 -661q-3 -10 -3 -19q0 -19 12.5 -29.5t32.5 -10.5q23 0 55 16l1 -2q-53 -53 -109 -53q-35 0 -56 19t-21 53q0 15 4 30l127 509q5 23 5 41q0 43 -24.5 68.5t-71.5 25.5q-55 0 -88 -45t-52 -150l-11 -55h126l-12 -26h-119
l-116 -480q-27 -109 -72 -160t-123 -55v2q46 20 73.5 89.5t55.5 195.5l92 408h-70l2 7l74 21l17 67q24 95 83 146t140 51z" />
    <glyph glyph-name="ffi" unicode="ffi" horiz-adv-x="852" 
d="M195 486h209l14 42q9 26 16 42q-35 1 -53 24q26 1 42 19t16 47q0 28 -16.5 45.5t-48.5 17.5q-125 0 -172 -206zM73 -21q-26 -107 -71.5 -158.5t-122.5 -55.5v2q45 20 71.5 87.5t56.5 197.5l93 408h-70l2 7l74 21l7 27q28 106 97 165t165 59q101 0 132 -57q70 70 172 70
q70 0 105.5 -27.5t35.5 -65.5q0 -35 -23.5 -55.5t-55.5 -20.5q-37 0 -56 24q26 1 42 19t16 47q0 28 -16.5 45.5t-48.5 17.5q-67 0 -111 -54.5t-64 -150.5l-9 -45h297l-99 -398q-3 -10 -3 -19q0 -19 12.5 -29.5t32.5 -10.5q23 0 55 16l1 -2q-53 -53 -109 -53q-35 0 -56 19
t-21 53q0 15 4 30l92 368h-211l-113 -461q-26 -107 -71.5 -158.5t-122.5 -55.5v2q45 20 72.5 88.5t55.5 196.5l88 388h-208z" />
    <glyph glyph-name="ffl" unicode="ffl" horiz-adv-x="848" 
d="M195 486h210l17 67q1 3 2.5 9t2.5 9q-30 3 -46 23q26 1 42 19t16 47q0 28 -16.5 45.5t-48.5 17.5q-125 0 -172 -206zM73 -21q-26 -107 -71.5 -158.5t-122.5 -55.5v2q45 20 71.5 87.5t56.5 197.5l93 408h-70l2 7l74 21l7 27q28 106 97 165t165 59q88 0 123 -45
q61 58 146 58q78 0 116 -54q44 17 89 51h3l-161 -661q-3 -10 -3 -19q0 -19 12.5 -29.5t32.5 -10.5q23 0 55 16l1 -2q-53 -53 -109 -53q-35 0 -56 19t-21 53q0 15 4 30l127 509q5 23 5 41q0 43 -24 68.5t-71 25.5q-55 0 -88.5 -45t-52.5 -150l-10 -55h126l-12 -26h-119
l-112 -460q-27 -109 -71.5 -160t-122.5 -55v2q45 20 72.5 88.5t55.5 196.5l88 388h-208z" />
    <glyph glyph-name="f_b" unicode="fb" horiz-adv-x="852" 
d="M554 749l-97 -390q33 59 82.5 98t109.5 39q72 0 111.5 -48.5t39.5 -133.5q0 -128 -77 -226t-190 -98q-56 0 -95.5 30t-50.5 73q-14 -29 -47 -58t-67 -45q27 79 63 222l97 389q6 24 6 44q0 41 -23.5 66t-69.5 25q-55 0 -88 -45t-52 -150l-11 -55h126l-12 -26h-119
l-116 -480q-27 -109 -72 -160t-123 -55v2q46 20 73.5 89.5t55.5 195.5l92 408h-70l2 7l74 21l17 67q24 95 83 146t140 51q79 0 117 -54q43 17 88 51h3zM510 25q88 0 145.5 87.5t57.5 203.5q0 62 -24 99t-72 37q-60 0 -111.5 -51t-70.5 -132l-20 -80q-8 -34 -8 -57
q0 -52 29 -79.5t74 -27.5z" />
    <glyph glyph-name="f_f_b" unicode="ffb" horiz-adv-x="1150" 
d="M195 486h210l17 67q1 3 2.5 9t2.5 9q-30 3 -46 23q26 1 42 19t16 47q0 28 -16.5 45.5t-48.5 17.5q-125 0 -172 -206zM73 -21q-26 -107 -71.5 -158.5t-122.5 -55.5v2q45 20 71.5 87.5t56.5 197.5l93 408h-70l2 7l74 21l7 27q28 106 97 165t165 59q88 0 123 -45
q61 58 146 58q79 0 117 -54q44 17 89 51h2l-97 -390q33 59 82.5 98t109.5 39q72 0 111.5 -48.5t39.5 -133.5q0 -128 -77 -226t-190 -98q-56 0 -95.5 30t-50.5 73q-14 -29 -47 -58t-67 -45q27 79 63 222l97 389q6 24 6 44q0 41 -23.5 66t-69.5 25q-55 0 -88.5 -45t-52.5 -150
l-10 -55h126l-12 -26h-119l-112 -460q-27 -109 -71.5 -160t-122.5 -55v2q45 20 72.5 88.5t55.5 196.5l88 388h-208zM1011 316q0 62 -24 99t-72 37q-60 0 -111.5 -51t-70.5 -132l-20 -80q-8 -34 -8 -57q0 -52 29 -79.5t74 -27.5q88 0 145.5 87.5t57.5 203.5z" />
    <glyph glyph-name="f_h" unicode="fh" horiz-adv-x="844" 
d="M123 555q24 95 83 146t140 51q79 0 117 -54q44 17 89 51h3l-106 -424q37 76 93.5 123.5t119.5 47.5q49 0 74.5 -30t25.5 -79q0 -19 -7 -51l-62 -248q-3 -10 -3 -19q0 -19 12.5 -29.5t32.5 -10.5q23 0 55 16l1 -2q-53 -53 -109 -53q-35 0 -56 19t-21 53q0 15 4 30l59 236
q8 34 8 57q0 57 -57 57q-56 0 -113 -57t-85 -172l-53 -213h-85l150 601q6 24 6 44q0 41 -23.5 66t-69.5 25q-55 0 -88 -45t-52 -150l-11 -55h126l-12 -26h-119l-116 -480q-27 -109 -72 -160t-123 -55v2q46 20 73.5 89.5t55.5 195.5l92 408h-70l2 7l74 21z" />
    <glyph glyph-name="f_f_h" unicode="ffh" horiz-adv-x="1142" 
d="M195 486h210l17 67q1 3 2.5 9t2.5 9q-30 3 -46 23q26 1 42 19t16 47q0 28 -16.5 45.5t-48.5 17.5q-125 0 -172 -206zM73 -21q-26 -107 -71.5 -158.5t-122.5 -55.5v2q45 20 71.5 87.5t56.5 197.5l93 408h-70l2 7l74 21l7 27q28 106 97 165t165 59q88 0 123 -45
q61 58 146 58q79 0 117 -54q44 17 89 51h3l-106 -424q37 76 93.5 123.5t119.5 47.5q49 0 74.5 -30t25.5 -79q0 -19 -7 -51l-62 -248q-3 -10 -3 -19q0 -19 12.5 -29.5t32.5 -10.5q23 0 55 16l1 -2q-53 -53 -109 -53q-35 0 -56 19t-21 53q0 15 4 30l59 236q8 34 8 57
q0 57 -57 57q-56 0 -113 -57t-85 -172l-53 -213h-85l150 601q6 24 6 44q0 41 -23.5 66t-69.5 25q-55 0 -88.5 -45t-52.5 -150l-10 -55h126l-12 -26h-119l-112 -460q-27 -109 -71.5 -160t-122.5 -55v2q45 20 72.5 88.5t55.5 196.5l88 388h-208z" />
    <glyph glyph-name="f_j" unicode="fj" horiz-adv-x="530" 
d="M125 -205q44 0 76 29.5t50 73t36 113.5l113 449h-210l-117 -481l-3.5 -14.5t-4.5 -16.5q34 -1 52 -24q-26 -1 -42 -19t-16 -47q0 -28 17 -45.5t49 -17.5zM124 -221q-79 0 -121 44q-46 -54 -124 -58v2q45 20 71.5 87.5t56.5 197.5l93 408h-70l2 7l74 21l13 40
q76 224 261 224q70 0 105.5 -27.5t35.5 -65.5q0 -35 -23.5 -55.5t-55.5 -20.5q-37 0 -56 24q26 1 42 19t16 47q0 28 -16.5 45.5t-48.5 17.5q-67 0 -111 -54.5t-64 -150.5l-9 -45h296l-111 -444q-35 -141 -96.5 -202t-159.5 -61z" />
    <glyph glyph-name="f_f_j" unicode="ffj" horiz-adv-x="830" 
d="M195 486h209l14 42q9 26 16 42q-35 1 -53 24q26 1 42 19t16 47q0 28 -16.5 45.5t-48.5 17.5q-125 0 -172 -206zM428 -195q44 0 76 29.5t50 73t36 113.5l110 439h-211l-113 -461q-2 -6 -5.5 -20t-5.5 -21q36 0 55 -24q-26 -1 -42 -19t-16 -47q0 -28 17 -45.5t49 -17.5z
M73 -21q-26 -107 -71.5 -158.5t-122.5 -55.5v2q45 20 71.5 87.5t56.5 197.5l93 408h-70l2 7l74 21l7 27q28 106 97 165t165 59q101 0 132 -57q70 70 172 70q70 0 105.5 -27.5t35.5 -65.5q0 -35 -23.5 -55.5t-55.5 -20.5q-37 0 -56 24q26 1 42 19t16 47q0 28 -16.5 45.5
t-48.5 17.5q-67 0 -111 -54.5t-64 -150.5l-9 -45h297l-108 -434q-35 -141 -96.5 -202t-159.5 -61q-87 0 -125 49q-46 -49 -120 -53v2q45 20 72.5 88.5t55.5 196.5l88 388h-208z" />
    <glyph glyph-name="f_k" unicode="fk" horiz-adv-x="827" 
d="M439 645q0 41 -23.5 66t-69.5 25q-55 0 -88 -45t-52 -150l-11 -55h126l-12 -26h-119l-116 -480q-27 -109 -72 -160t-123 -55v2q46 20 73.5 89.5t55.5 195.5l92 408h-70l2 7l74 21l17 67q24 95 83 146t140 51q79 0 116 -54q44 16 90 51h3l-111 -444q46 84 108.5 137.5
t130.5 53.5q47 0 74 -26t27 -68q0 -72 -60 -117t-156 -59l68 -142q26 -51 74 -51q27 0 57 18v-2q-46 -59 -112 -59q-64 0 -94 67l-84 187q22 -9 51 -9q70 0 123 43t53 105q0 30 -16 48t-46 18q-57 0 -127.5 -71t-98.5 -185l-48 -193h-85l150 601q6 24 6 44z" />
    <glyph glyph-name="f_f_k" unicode="ffk" horiz-adv-x="1125" 
d="M195 486h210l17 67q1 3 2.5 9t2.5 9q-30 3 -46 23q26 1 42 19t16 47q0 28 -16.5 45.5t-48.5 17.5q-125 0 -172 -206zM73 -21q-26 -107 -71.5 -158.5t-122.5 -55.5v2q45 20 71.5 87.5t56.5 197.5l93 408h-70l2 7l74 21l7 27q28 106 97 165t165 59q88 0 123 -45
q61 58 146 58q79 0 117 -54q44 17 89 51h3l-111 -444q46 84 108.5 137.5t130.5 53.5q47 0 74 -26t27 -68q0 -72 -60 -117t-156 -59l68 -142q26 -51 74 -51q27 0 57 18v-2q-46 -59 -112 -59q-64 0 -94 67l-84 187q22 -9 51 -9q70 0 123 43t53 105q0 30 -16 48t-46 18
q-57 0 -127.5 -71t-98.5 -185l-48 -193h-85l150 601q6 24 6 44q0 41 -23.5 66t-69.5 25q-55 0 -88.5 -45t-52.5 -150l-10 -55h126l-12 -26h-119l-112 -460q-27 -109 -71.5 -160t-122.5 -55v2q45 20 72.5 88.5t55.5 196.5l88 388h-208z" />
    <glyph glyph-name=".notdef" 
 />
    <glyph glyph-name=".null" 
 />
    <glyph glyph-name="nonmarkingreturn" horiz-adv-x="333" 
 />
    <glyph glyph-name="space" unicode=" " horiz-adv-x="200" 
 />
    <glyph glyph-name="exclam" unicode="!" horiz-adv-x="260" 
d="M280 700l-184 -496h-5l63 496h126zM131 59q0 -29 -19.5 -48.5t-48.5 -19.5q-28 0 -48 20t-20 48q0 29 20 49t48 20q29 0 48.5 -20t19.5 -49z" />
    <glyph glyph-name="quotedbl" unicode="&#x22;" horiz-adv-x="370" 
d="M131 431h-2q2 19 4.5 46.5t6.5 100t-4 96.5q26 36 62 36q17 0 30.5 -10.5t17.5 -25.5q-32 -47 -74 -145zM281 431h-2q2 19 4.5 46.5t6.5 100t-4 96.5q26 36 62 36q17 0 30.5 -10.5t17.5 -25.5q-32 -47 -74 -145z" />
    <glyph glyph-name="numbersign" unicode="#" horiz-adv-x="635" 
d="M351 243l84 214h-151l-84 -214h151zM192 223l-87 -223h-19l87 223h-163l8 20h163l84 214h-177l8 20h177l87 223h19l-87 -223h151l87 223h20l-87 -223h162l-8 -20h-162l-84 -214h177l-9 -20h-176l-87 -223h-20l87 223h-151z" />
    <glyph glyph-name="dollar" unicode="$" horiz-adv-x="565" 
d="M340 689h-5l-68 -275q24 -11 59 -24l72 292q-30 7 -58 7zM169 526q0 -65 84 -105l67 267q-68 -7 -109 -53.5t-42 -108.5zM223 7h7l75 299l-60 23l-78 -314q29 -8 56 -8zM424 187q0 41 -27.5 66.5t-78.5 46.5l-73 -292q80 7 129.5 57t49.5 122zM223 -11q-29 0 -61 5
l-27 -108h-15l27 110q-73 15 -117.5 53.5t-44.5 84.5q0 39 27 64t63 25t56 -27q-29 0 -46.5 -20t-17.5 -55q0 -34 24 -61t62 -41l79 315q-69 28 -107 64t-38 98q0 87 67.5 146.5t169.5 64.5l26 103h15l-26 -103h1q30 0 63 -5l27 108h15l-28 -111q63 -14 101 -45.5t38 -71.5
q0 -34 -23.5 -56t-54.5 -22q-18 0 -35 7.5t-23 16.5q23 0 42.5 18.5t19.5 48.5q0 26 -19 48t-51 34l-73 -292q37 -15 61 -27t50 -31.5t39 -46.5t13 -61q0 -99 -77.5 -161.5t-183.5 -68.5l-26 -103h-15l26 103h-3z" />
    <glyph glyph-name="percent" unicode="%" horiz-adv-x="646" 
d="M34 0h-39l582 668q-22 -16 -62 -27.5t-77 -11.5q-58 0 -108 28q25 -34 25 -80q0 -62 -46.5 -110.5t-111.5 -48.5q-51 0 -86.5 39.5t-35.5 93.5q0 62 46.5 110.5t111.5 48.5q37 0 94 -31t111 -31q98 0 188 71l10 -9zM192 435q38 0 66.5 57.5t28.5 118.5q0 82 -49 82
q-38 0 -66 -57t-29 -119q-2 -82 49 -82zM415 -5q-51 0 -86.5 39.5t-35.5 93.5q0 62 46.5 110.5t111.5 48.5q51 0 86.5 -39.5t35.5 -93.5q0 -62 -46.5 -110.5t-111.5 -48.5zM410 12q38 0 66.5 57.5t28.5 118.5q0 82 -49 82q-38 0 -66 -57t-29 -119q-2 -82 49 -82z" />
    <glyph glyph-name="ampersand" unicode="&#x26;" horiz-adv-x="835" 
d="M580 -10q-48 0 -92.5 26t-98.5 88q-105 -114 -207 -114q-73 0 -125.5 43.5t-52.5 120.5q0 74 59 129.5t152 79.5q-33 73 -33 134q0 96 58.5 154.5t141.5 58.5q77 0 116 -34t39 -87q0 -73 -71 -131.5t-164 -80.5q30 -60 73 -122l54 -75l52 65.5t57 70t50 52.5t57.5 43.5
t53.5 12.5q36 0 56.5 -18t20.5 -45q0 -28 -20 -48t-54 -21q13 15 13 37q0 39 -45 39q-20 0 -41 -9.5t-36.5 -20t-39.5 -36.5t-35 -39t-39.5 -49.5l-37.5 -48.5q100 -117 195 -117q59 0 102 35l2 -3q-56 -90 -160 -90zM256 539q0 -67 41 -154q164 70 164 204q0 44 -21 73
t-58 29q-57 0 -91.5 -41.5t-34.5 -110.5zM219 32q72 0 157 88q-30 35 -73 96q-55 77 -84 138q-127 -58 -127 -190q0 -59 34.5 -95.5t92.5 -36.5z" />
    <glyph glyph-name="quotesingle" unicode="'" horiz-adv-x="220" 
d="M131 431h-2q2 19 4.5 46.5t6.5 100t-4 96.5q26 36 62 36q17 0 30.5 -10.5t17.5 -25.5q-32 -47 -74 -145z" />
    <glyph glyph-name="parenleft" unicode="(" horiz-adv-x="319" 
d="M27 179q0 171 99.5 323.5t261.5 246.5h16q-126 -90 -212.5 -260.5t-86.5 -336.5q0 -185 82 -275h-16q-144 108 -144 302z" />
    <glyph glyph-name="parenright" unicode=")" horiz-adv-x="319" 
d="M275 447q0 -171 -99.5 -323.5t-261.5 -246.5h-16q126 90 212.5 260.5t86.5 336.5q0 185 -82 275h16q144 -108 144 -302z" />
    <glyph glyph-name="asterisk" unicode="*" horiz-adv-x="384" 
d="M248 756l87 -23q-14 -7 -35.5 -45t-34.5 -77q42 6 82.5 20.5t50.5 27.5l6 -90q-13 11 -55 19.5t-83 8.5q18 -38 44 -71.5t42 -40.5l-84 -34q7 16 2.5 58.5t-17.5 81.5q-31 -28 -55 -63t-25 -53l-58 70q17 -1 56 16.5t73 41.5q-37 19 -78 31.5t-57 8.5l48 77
q3 -17 31.5 -49t62.5 -57q8 40 7 84t-10 58z" />
    <glyph glyph-name="plus" unicode="+" horiz-adv-x="479" 
d="M242 309l-46 -182h-26l46 182h-182l6 26h182l46 182h26l-46 -182h183l-6 -26h-183z" />
    <glyph glyph-name="comma" unicode="," horiz-adv-x="220" 
d="M59 13q-17 -10 -37 -10q-24 0 -38 15t-14 37q0 29 20 47.5t50 18.5q32 0 50 -23t18 -58q0 -74 -62 -125t-145 -54l3 16q66 7 109.5 45.5t45.5 90.5z" />
    <glyph glyph-name="hyphen" unicode="-" horiz-adv-x="317" 
d="M12 262l8 30h249l-8 -30h-249z" />
    <glyph glyph-name="period" unicode="." horiz-adv-x="220" 
d="M106 59q0 -28 -20 -48t-48 -20t-48 19.5t-20 48.5t19.5 49t48.5 20q28 0 48 -20t20 -49z" />
    <glyph glyph-name="slash" unicode="/" horiz-adv-x="343" 
d="M-109 -123l510 872h29l-510 -872h-29z" />
    <glyph glyph-name="zero" unicode="0" horiz-adv-x="629" 
d="M252 -10q-108 0 -164 78t-56 191q0 57 14.5 118.5t44 120.5t69.5 106.5t97 76.5t120 29q108 0 164 -78t56 -191q0 -57 -14.5 -118.5t-44 -120.5t-69.5 -106.5t-97 -76.5t-120 -29zM252 12q55 0 104 50.5t81 124t49 159.5q17 80 17 148q0 90 -27.5 142t-98.5 52
q-55 0 -104 -50.5t-81 -124t-49 -159.5q-17 -80 -17 -148q0 -90 27.5 -142t98.5 -52z" />
    <glyph glyph-name="one" unicode="1" horiz-adv-x="356" 
d="M241 0h-299v4q34 11 56 17.5t36 14t21.5 18.5t12.5 30l132 528q3 14 3 22q0 14 -9.5 23t-30.5 17.5l-55 21.5v4h202l-154 -616q-3 -12 -3 -21q0 -15 9.5 -24t29 -16.5l49.5 -18.5v-4z" />
    <glyph glyph-name="two" unicode="2" horiz-adv-x="537" 
d="M328 693q-71 0 -115.5 -47.5t-44.5 -118.5q0 -69 63 -69q29 0 51 15h2q-38 -61 -109 -61q-41 0 -65.5 27t-24.5 69q0 88 73.5 145t169.5 57q92 0 148 -41t56 -116q0 -34 -8.5 -64t-31.5 -60.5t-46.5 -54.5t-70.5 -60.5l-85.5 -64.5l-110 -78.5l-126.5 -91.5h163
q97 0 141.5 16t99.5 81h2l-73 -176h-458v2l202 161l145.5 122.5t95.5 99t52 91.5t16 99q0 55 -28 86.5t-83 31.5z" />
    <glyph glyph-name="three" unicode="3" horiz-adv-x="523" 
d="M181 9q86 0 136 63.5t50 146.5q0 144 -158 155v8q104 0 156.5 55.5t52.5 147.5q0 46 -25 76t-77 30q-53 0 -87 -28t-34 -74q0 -24 12 -38t32 -14q19 0 34 8h2q-33 -50 -85 -50q-32 0 -52 19.5t-20 50.5q0 66 57.5 105.5t140.5 39.5q82 0 139 -40t57 -108
q0 -77 -63.5 -127t-161.5 -60q76 -8 124.5 -51t48.5 -106q0 -107 -83 -167.5t-196 -60.5q-44 0 -87.5 13.5t-78.5 49t-35 85.5q0 48 28.5 78.5t72.5 30.5q32 0 52.5 -16.5t23.5 -45.5h-2q-12 16 -35 16q-27 0 -44 -21.5t-17 -54.5q0 -54 32.5 -85t89.5 -31z" />
    <glyph glyph-name="four" unicode="4" horiz-adv-x="600" 
d="M318 218l98 390l-383 -390h285zM407 2v-2h-200v2q37 14 55.5 43t32.5 83l16 63h-338l1 2l510 517h43l-123 -492h43q41 0 62.5 14.5t49.5 61.5h2l-44 -179h-2q-5 46 -19.5 61t-55.5 15h-43l-16 -63q-11 -39 -11 -65q0 -44 37 -61z" />
    <glyph glyph-name="five" unicode="5" horiz-adv-x="540" 
d="M188 9q63 0 109 38.5t66.5 92t20.5 112.5q0 157 -129 157q-39 0 -82 -23t-74 -54h-1l117 373q105 -18 187 -18q62 0 95 8t66 40h2q-35 -139 -186 -139q-81 0 -168 23l-72 -234q70 58 161 58q80 0 130 -49.5t50 -130.5q0 -115 -85 -194t-207 -79q-44 0 -87 13.5t-77.5 49
t-34.5 85.5q0 48 28.5 78.5t72.5 30.5q32 0 53 -16.5t24 -45.5h-2q-12 16 -35 16q-27 0 -44 -21.5t-17 -54.5q0 -54 31 -85t88 -31z" />
    <glyph glyph-name="six" unicode="6" horiz-adv-x="570" 
d="M431 528q26 0 43.5 21t17.5 55q0 40 -25.5 63.5t-72.5 23.5q-53 0 -102.5 -38.5t-83.5 -97.5t-56.5 -125t-29.5 -127q31 59 83.5 95.5t119.5 36.5q78 0 129 -48.5t51 -125.5q0 -114 -77 -192.5t-194 -78.5q-98 0 -151.5 73.5t-53.5 184.5q0 77 27 158.5t73.5 149
t116.5 111t148 43.5q79 0 124 -36.5t45 -93.5q0 -46 -27 -72.5t-65 -26.5q-32 0 -53 16t-25 43h2q12 -12 36 -12zM235 11q82 0 131.5 80.5t49.5 180.5q0 62 -27.5 98.5t-85.5 36.5q-83 0 -134 -81t-51 -182q0 -60 29 -96.5t88 -36.5z" />
    <glyph glyph-name="seven" unicode="7" horiz-adv-x="486" 
d="M184 700h400v-2l-131 -139q-118 -125 -192 -256.5t-116 -293.5l-110 -10q30 84 72 160.5t99 149t106.5 128t124.5 131.5l51 52h-244q-67 0 -102.5 -18t-74.5 -74h-2l65 181q14 -9 54 -9z" />
    <glyph glyph-name="eight" unicode="8" horiz-adv-x="553" 
d="M524 563q0 -71 -53 -120.5t-127 -64.5q73 -37 108.5 -76t35.5 -94q0 -100 -78 -159t-178 -59q-61 0 -111.5 16.5t-86 57t-35.5 100.5q0 77 60 127t144 67q-93 59 -93 147q0 90 68 147.5t160 57.5q74 0 130 -39t56 -108zM336 384q49 24 82 77t33 115q0 51 -30 83.5
t-82 32.5q-61 0 -104 -43t-43 -108q0 -79 81 -123zM232 10q69 0 121.5 42.5t52.5 114.5q0 82 -94 132l-101 54q-55 -23 -91.5 -76t-36.5 -123q0 -67 42 -105.5t107 -38.5z" />
    <glyph glyph-name="nine" unicode="9" horiz-adv-x="570" 
d="M336 689q-82 0 -131.5 -80.5t-49.5 -180.5q0 -62 27.5 -98.5t85.5 -36.5q83 0 134 81t51 182q0 60 -29 96.5t-88 36.5zM542 452q0 -77 -27 -158.5t-73.5 -149t-116.5 -111t-148 -43.5q-79 0 -124 36.5t-45 93.5q0 46 27 72.5t65 26.5q32 0 53 -16t25 -43h-2
q-12 12 -36 12q-26 0 -43.5 -21t-17.5 -55q0 -40 25.5 -63.5t72.5 -23.5q53 0 102.5 38.5t83.5 97.5t56.5 125t29.5 127q-31 -59 -83.5 -95.5t-119.5 -36.5q-78 0 -129 48.5t-51 125.5q0 114 77 192.5t194 78.5q98 0 151.5 -73.5t53.5 -184.5z" />
    <glyph glyph-name="colon" unicode=":" horiz-adv-x="220" 
d="M185 375q0 -28 -20 -48t-48 -20q-29 0 -48.5 19.5t-19.5 48.5t19.5 49t48.5 20q28 0 48 -20t20 -49zM38 -9q-28 0 -48 19.5t-20 48.5t19.5 49t48.5 20q28 0 48 -20t20 -49q0 -28 -20 -48t-48 -20z" />
    <glyph glyph-name="semicolon" unicode=";" horiz-adv-x="220" 
d="M185 375q0 -28 -20 -48t-48 -20q-29 0 -48.5 19.5t-19.5 48.5t19.5 49t48.5 20q28 0 48 -20t20 -49zM-99 -139l3 16q66 7 109.5 45.5t45.5 90.5q-17 -10 -37 -10q-24 0 -38 15t-14 37q0 29 20 47.5t50 18.5q32 0 50 -23t18 -58q0 -74 -62 -125t-145 -54z" />
    <glyph glyph-name="less" unicode="&#x3c;" horiz-adv-x="351" 
d="M20 315l2 10l325 165l-8 -33l-278 -139l208 -139l-6 -29z" />
    <glyph glyph-name="equal" unicode="=" horiz-adv-x="484" 
d="M53 374l6 26h392l-6 -26h-392zM21 247l6 26h392l-6 -26h-392z" />
    <glyph glyph-name="greater" unicode="&#x3e;" horiz-adv-x="351" 
d="M317 325l-2 -10l-325 -165l8 33l278 139l-208 139l6 29z" />
    <glyph glyph-name="question" unicode="?" horiz-adv-x="474" 
d="M272 690q-58 0 -93.5 -35t-35.5 -90q0 -25 12.5 -38.5t32.5 -13.5q24 0 39 11h2q-33 -58 -87 -58q-33 0 -55 24.5t-22 59.5q0 75 61.5 117.5t145.5 42.5q89 0 143.5 -49.5t54.5 -122.5q0 -97 -72 -159t-191 -77l-25 -101h-23l45 182q86 7 141.5 52t55.5 129
q0 61 -35 93.5t-94 32.5zM135 128q29 0 48.5 -20t19.5 -49t-19.5 -48.5t-48.5 -19.5q-28 0 -48 20t-20 48q0 29 20 49t48 20z" />
    <glyph glyph-name="at" unicode="@" horiz-adv-x="913" 
d="M672 457l-83 -291q-8 -29 -8 -46q0 -44 49 -44q62 0 124 81.5t62 205.5q0 132 -84.5 205.5t-221.5 73.5q-108 0 -206.5 -61t-159.5 -165.5t-61 -223.5q0 -153 93.5 -241t248.5 -88q189 0 324 101l4 -5q-127 -123 -330 -123q-182 0 -293.5 94.5t-111.5 261.5q0 130 70 240
t183 171t239 61q160 0 255.5 -77.5t95.5 -223.5q0 -76 -23.5 -138.5t-60.5 -100.5t-78.5 -58.5t-80.5 -20.5q-47 0 -73 27.5t-27 78.5q-55 -106 -144 -106q-59 0 -95.5 40t-36.5 109q0 106 67 185t158 79q46 0 77 -24t37 -57q15 24 41.5 48t49.5 32zM397 77q95 0 134 149
l21 78q8 25 8 51q0 39 -20 59t-51 20q-67 0 -116.5 -75t-49.5 -166q0 -51 19.5 -83.5t54.5 -32.5z" />
    <glyph glyph-name="A" unicode="A" horiz-adv-x="700" 
d="M444 260l-56 322l-229 -322h285zM67 2v-2h-154v2q36 23 54 42.5t53 69.5l423 596h5l112 -596q9 -49 18 -69.5t35 -42.5v-2h-208v2q40 18 54.5 33t14.5 39q0 12 -3 28l-23 132h-307l-72 -101q-34 -49 -34 -81t32 -50z" />
    <glyph glyph-name="B" unicode="B" horiz-adv-x="636" 
d="M259 0h-297v2q37 14 56 43t33 83l111 444q9 36 9 63q0 45 -37 63v2h265q211 0 211 -142q0 -88 -62.5 -139t-161.5 -61q76 -7 126.5 -41t50.5 -96q0 -56 -25.5 -100t-69 -69.5t-96.5 -38.5t-113 -13zM196 368h109q90 0 151 50.5t61 138.5q0 55 -34.5 86t-99.5 31h-111z
M111 26h139q95 0 156.5 54.5t61.5 143.5q0 62 -39 90t-117 28h-122z" />
    <glyph glyph-name="C" unicode="C" horiz-adv-x="645" 
d="M428 687q-84 0 -153.5 -55.5t-107.5 -148t-38 -200.5q0 -112 56.5 -179.5t149.5 -67.5q84 0 146.5 37.5t116.5 122.5h6q-42 -96 -118 -151t-178 -55q-125 0 -200.5 79.5t-75.5 203.5q0 184 117.5 310.5t277.5 126.5q57 0 113 -21t69 -21q25 0 58 30l-36 -211h-2
q-51 200 -201 200z" />
    <glyph glyph-name="D" unicode="D" horiz-adv-x="731" 
d="M-38 0v2q37 14 56 43t33 83l111 444q10 40 10 63q0 45 -38 63v2h253q146 0 229.5 -74.5t83.5 -195.5q0 -195 -125.5 -312.5t-327.5 -117.5h-285zM111 26h136q110 0 192 56.5t122.5 147.5t40.5 200q0 111 -55.5 177.5t-167.5 66.5h-106z" />
    <glyph glyph-name="E" unicode="E" horiz-adv-x="642" 
d="M134 700h443q41 0 56 7l-7 -173h-2q-22 75 -60 107.5t-118 32.5h-174l-76 -306h137q61 0 93.5 21t74.5 90h2l-58 -233h-2q-8 65 -29.5 80.5t-86.5 15.5h-137l-79 -316h184q87 0 144 39.5t124 128.5h2l-76 -194h-527v2q37 14 56 43t33 83l111 444q9 36 9 63q0 45 -37 63v2
z" />
    <glyph glyph-name="F" unicode="F" horiz-adv-x="603" 
d="M189 335l-54 -216q-8 -30 -8 -48q0 -24 14 -40t47 -29v-2h-226v2q37 14 56 43t33 83l111 444q9 36 9 63q0 45 -37 63v2h436q41 0 56 7l-7 -173h-2q-22 75 -60 107.5t-118 32.5h-166l-78 -313h130q61 0 93.5 21t74.5 90h2l-58 -233h-2q-8 65 -29.5 80.5t-86.5 15.5h-130z
" />
    <glyph glyph-name="G" unicode="G" horiz-adv-x="724" 
d="M525 175l7 26q11 38 11 62q0 45 -39 64v2h203v-2q-37 -14 -56 -43t-33 -83l-57 -211h-2l-44 110q-77 -110 -211 -110q-124 0 -198 79.5t-74 204.5q0 91 35 173t92 139t131 90.5t150 33.5q57 0 112.5 -21t68.5 -21q25 0 58 30l-36 -211h-2q-51 200 -202 200
q-85 0 -157 -57t-112.5 -151.5t-40.5 -203.5q0 -111 49.5 -179.5t137.5 -68.5q78 0 133.5 38t75.5 110z" />
    <glyph glyph-name="H" unicode="H" horiz-adv-x="778" 
d="M165 2v-2h-203v2q37 14 56 43t33 83l111 444q9 36 9 63q0 45 -37 63v2h203v-2q-37 -14 -56 -43t-33 -83l-51 -203h394l51 203q9 36 9 63q0 45 -37 63v2h203v-2q-37 -14 -56 -43t-33 -83l-111 -444q-10 -34 -10 -63q0 -45 38 -63v-2h-203v2q37 14 56 43t33 83l54 215h-394
l-54 -215q-10 -34 -10 -63q0 -45 38 -63z" />
    <glyph glyph-name="I" unicode="I" horiz-adv-x="298" 
d="M134 700h203v-2q-37 -14 -56 -43t-33 -83l-111 -444q-10 -40 -10 -63q0 -45 38 -63v-2h-203v2q37 14 56 43t33 83l111 444q10 40 10 63q0 45 -38 63v2z" />
    <glyph glyph-name="J" unicode="J" horiz-adv-x="534" 
d="M317 182l98 390q10 40 10 63q0 45 -38 63v2h203v-2q-37 -14 -56 -43t-33 -83l-96 -383q-24 -96 -85.5 -147.5t-152.5 -51.5q-85 0 -136 38t-51 100q0 50 33 80.5t76 30.5q42 0 65 -25q-42 -4 -64 -32t-22 -69q0 -45 26.5 -74.5t72.5 -29.5q58 0 93.5 45t56.5 128z" />
    <glyph glyph-name="K" unicode="K" horiz-adv-x="695" 
d="M165 2v-2h-203v2q37 14 56 43t33 83l111 444q10 40 10 63q0 45 -38 63v2h203v-2q-37 -14 -56 -43t-33 -83l-62 -246l383 289q29 21 29 45q0 25 -35 38v2h193v-2q-77 -33 -179 -110l-237 -178l173 -304q27 -46 49 -67.5t55 -36.5v-2h-208v2q33 17 33 36q0 13 -16 42
l-156 280l-92 -69l-41 -163q-10 -40 -10 -63q0 -45 38 -63z" />
    <glyph glyph-name="L" unicode="L" horiz-adv-x="610" 
d="M248 572l-137 -546h170q45 0 82 11.5t70 36.5t58 53t59 73h2l-77 -200h-513v2q37 14 56 43t33 83l111 444q10 40 10 63q0 45 -38 63v2h203v-2q-37 -14 -56 -43t-33 -83z" />
    <glyph glyph-name="M" unicode="M" horiz-adv-x="888" 
d="M202 618l-118 -475q-8 -35 -8 -58q0 -62 47 -83v-2h-179v2q84 32 111 141l108 434q8 32 8 52q0 48 -44 69v2h149l117 -579l391 579h143v-2q-37 -14 -56 -43t-33 -83l-111 -444q-10 -40 -10 -63q0 -45 38 -63v-2h-202v2q37 14 56 43t33 83l125 501l-430 -640h-2z" />
    <glyph glyph-name="N" unicode="N" horiz-adv-x="749" 
d="M563 141l104 416q8 34 8 57q0 62 -48 84v2h179v-2q-83 -31 -110 -141l-141 -565h-2l-351 626l-118 -475q-8 -35 -8 -58q0 -62 47 -83v-2h-179v2q84 32 111 141l108 434q8 32 8 52q0 48 -44 69v2h131z" />
    <glyph glyph-name="O" unicode="O" horiz-adv-x="736" 
d="M32 276q0 181 117 307.5t277 126.5q127 0 202.5 -79.5t75.5 -206.5q0 -181 -117 -307.5t-277 -126.5q-127 0 -202.5 79.5t-75.5 206.5zM310 13q82 0 148.5 58t105.5 153q44 107 44 225q0 101 -47.5 169.5t-134.5 68.5q-82 0 -148.5 -58t-105.5 -153q-44 -107 -44 -225
q0 -101 47.5 -169.5t134.5 -68.5z" />
    <glyph glyph-name="P" unicode="P" horiz-adv-x="623" 
d="M-38 0v2q37 14 56 43t33 83l111 444q9 36 9 63q0 45 -37 63v2h286q105 0 162.5 -40.5t57.5 -119.5q0 -121 -91 -184t-228 -63h-143l-43 -174q-8 -30 -8 -48q0 -24 14 -40t47 -29v-2h-226zM185 319h129q103 0 167 60t64 163q0 132 -148 132h-124z" />
    <glyph glyph-name="Q" unicode="Q" horiz-adv-x="736" 
d="M565 -163q-15 0 -28 3t-24 9t-20.5 14t-17.5 18t-15.5 21.5t-13.5 24l-12 25.5t-11 26.5l-10 26.5q-49 -15 -103 -15q-127 0 -202.5 79.5t-75.5 206.5q0 181 117 307.5t277 126.5q127 0 202.5 -79.5t75.5 -206.5q0 -128 -61.5 -232.5t-162.5 -158.5l21 -39t22.5 -36
t25 -30t29.5 -20.5t36 -7.5q47 0 75 44h2q-28 -107 -126 -107zM128 251q0 -131 72 -197q17 48 52 74.5t81 26.5q72 0 125 -84q67 56 106 153q44 107 44 225q0 101 -47.5 169.5t-134.5 68.5q-82 0 -148.5 -58t-105.5 -153q-44 -107 -44 -225zM310 13q49 0 91 21
q-18 43 -39 66.5t-53 23.5q-69 0 -96 -81q41 -30 97 -30z" />
    <glyph glyph-name="R" unicode="R" horiz-adv-x="694" 
d="M273 674l-79 -319h140q100 0 158.5 49t58.5 141q0 61 -34.5 95t-103.5 34h-140zM165 2v-2h-203v2q37 14 56 43t33 83l111 444q10 40 10 63q0 45 -38 63v2h296q99 0 158 -39.5t59 -115.5q0 -95 -71.5 -150t-176.5 -60q108 -19 120 -127q2 -15 5 -43t5 -40q7 -52 25 -78.5
t58 -44.5v-2h-148q-15 38 -23 108l-12 96q-7 64 -29.5 94.5t-78.5 30.5h-134l-50 -201q-10 -40 -10 -63q0 -45 38 -63z" />
    <glyph glyph-name="S" unicode="S" horiz-adv-x="574" 
d="M531 504q-19 84 -69.5 135t-128.5 51q-75 0 -115.5 -42.5t-40.5 -105.5q0 -52 32.5 -86t79 -52.5l93 -38t79 -57t32.5 -94.5q0 -103 -74 -163.5t-181 -60.5q-56 0 -119.5 18.5t-75.5 18.5q-26 0 -65 -23l34 214h2q25 -97 81.5 -152.5t142.5 -55.5q84 0 128 49.5t44 118.5
q0 42 -23 72.5t-58 45.5l-75.5 33t-75.5 36t-58 54t-23 86q0 91 68 148t168 57q58 0 115.5 -18.5t68.5 -18.5q23 0 56 22l-40 -191h-2z" />
    <glyph glyph-name="T" unicode="T" horiz-adv-x="712" 
d="M184 700h514q35 0 50 7l-14 -203h-2q-13 40 -21 61.5t-22 46t-30 36t-40.5 19.5t-57.5 8h-83l-138 -555q-8 -35 -8 -55q0 -45 41 -63v-2h-210v2q39 15 59 41t32 77l138 555h-79q-77 0 -126 -36.5t-129 -134.5h-2l82 203q10 -7 46 -7z" />
    <glyph glyph-name="U" unicode="U" horiz-adv-x="707" 
d="M673 572l-74 -297q-35 -142 -105 -213.5t-189 -71.5q-113 0 -179 57t-66 154q0 37 10 76l74 295q10 40 10 63q0 45 -38 63v2h203v-2q-37 -14 -56 -43t-33 -83l-74 -294q-10 -39 -10 -76q0 -78 45.5 -122t122.5 -44q105 0 165 58.5t91 185.5l73 292q8 35 8 57q0 51 -41 69
v2h157v-2q-38 -15 -60 -45t-34 -81z" />
    <glyph glyph-name="V" unicode="V" horiz-adv-x="692" 
d="M249 -10l-108 596q-9 49 -18 69.5t-35 42.5v2h203v-2q-40 -18 -54.5 -33t-14.5 -39q0 -12 3 -28l80 -483l319 452q34 49 34 81t-32 50v2h154v-2q-36 -23 -54 -42.5t-53 -69.5l-419 -596h-5z" />
    <glyph glyph-name="W" unicode="W" horiz-adv-x="956" 
d="M568 -10l-46 548l-318 -548h-8l-56 602q-4 43 -14 62.5t-38 43.5v2h203v-2q-39 -14 -53.5 -28.5t-14.5 -45.5q0 -12 1 -27l41 -444l253 428l-1 11q-4 41 -14.5 61.5t-37.5 44.5v2h201v-2q-40 -13 -54 -28t-14 -47q0 -11 1 -24l33 -457l263 437q25 42 25 67q0 32 -38 52v2
h162v-2q-39 -24 -59 -43.5t-46 -62.5l-363 -602h-8z" />
    <glyph glyph-name="X" unicode="X" horiz-adv-x="707" 
d="M83 2v-2h-165v2q27 14 52 32t37 29.5l48 44.5l265 250l-117 236q-21 41 -36 62.5t-43 41.5v2h195v-2q-38 -21 -38 -54q0 -19 10 -40l95 -195l195 192q29 27 29 52q0 23 -26 45v2h165v-2q-39 -20 -66.5 -42t-70.5 -64l-213 -208l136 -278q19 -39 35.5 -61t44.5 -43v-2
h-196v2q41 21 41 56q0 16 -11 38l-117 238l-244 -235q-29 -29 -29 -54q0 -23 24 -43z" />
    <glyph glyph-name="Y" unicode="Y" horiz-adv-x="632" 
d="M720 700v-2q-35 -22 -57 -42t-58 -62l-260 -302l-43 -172q-9 -33 -9 -55q0 -44 42 -63v-2h-205v2q39 15 59 41t32 77l43 172l-112 302q-16 41 -28 62t-36 42v2h183v-2q-47 -24 -47 -62q0 -14 6 -29l105 -285l239 280q23 28 23 50q0 28 -32 46v2h155z" />
    <glyph glyph-name="Z" unicode="Z" horiz-adv-x="661" 
d="M489 0h-544v2l629 672h-165q-70 0 -117 -17t-80.5 -46.5t-92.5 -96.5h-2l80 193q11 -7 46 -7h459v-2l-626 -672h145q94 0 153 18.5t98.5 53t94.5 106.5h2z" />
    <glyph glyph-name="bracketleft" unicode="[" horiz-adv-x="297" 
d="M-33 -123l218 872h205v-4l-142 -29l-201 -805l127 -30v-4h-207z" />
    <glyph glyph-name="backslash" unicode="\" horiz-adv-x="343" 
d="M145 749l77 -872h-26l-77 872h26z" />
    <glyph glyph-name="bracketright" unicode="]" horiz-adv-x="297" 
d="M312 749l-218 -872h-205v4l142 29l201 805l-127 30v4h207z" />
    <glyph glyph-name="asciicircum" unicode="^" horiz-adv-x="450" 
d="M312 710h4l109 -298h-32l-89 248l-213 -248h-36z" />
    <glyph glyph-name="underscore" unicode="_" horiz-adv-x="318" 
d="M-77 -98l8 30h249l-8 -30h-249z" />
    <glyph glyph-name="grave" unicode="`" 
d="M356 749q-3 -82 37 -188h-4q-89 86 -129 188h96z" />
    <glyph glyph-name="a" unicode="a" horiz-adv-x="563" 
d="M465 320l-57 -232q-11 -43 21.5 -55t75.5 12l1 -2q-53 -53 -109 -53q-34 0 -55 19t-21 57q0 22 11 57q-73 -133 -182 -133q-70 0 -110.5 47.5t-40.5 128.5q0 129 79.5 229.5t190.5 100.5q55 0 88.5 -30.5t42.5 -77.5q34 75 116 108q-25 -74 -51 -176zM182 34
q56 0 104.5 52.5t69.5 133.5l20 79q7 29 7 56q0 52 -28 79t-70 27q-57 0 -103.5 -45t-71 -112t-24.5 -138q0 -63 24.5 -97.5t71.5 -34.5z" />
    <glyph glyph-name="b" unicode="b" horiz-adv-x="566" 
d="M269 749l-98 -390q33 59 82.5 98t109.5 39q72 0 111.5 -48.5t39.5 -133.5q0 -128 -77 -226t-190 -98q-56 0 -95.5 30t-50.5 73q-14 -29 -47 -58t-67 -45q27 79 63 222l109 436q4 17 4 33q0 24 -12.5 37.5t-41.5 28.5v2h160zM427 316q0 62 -24 99t-72 37q-60 0 -111.5 -51
t-70.5 -132l-20 -80q-8 -28 -8 -56q0 -53 29 -80.5t74 -27.5q88 0 145.5 87.5t57.5 203.5z" />
    <glyph glyph-name="c" unicode="c" horiz-adv-x="449" 
d="M283 496q60 0 98 -29.5t38 -76.5q0 -37 -26.5 -62.5t-65.5 -25.5q-25 0 -43.5 12.5t-21.5 35.5q13 -10 32 -10q29 0 44.5 17.5t15.5 46.5q0 34 -19 53t-52 19q-52 0 -97.5 -45.5t-71 -112.5t-25.5 -133q0 -158 127 -158q89 0 158 95h4q-27 -63 -78 -97.5t-114 -34.5
q-81 0 -133 53.5t-52 141.5q0 121 82.5 216t199.5 95z" />
    <glyph glyph-name="d" unicode="d" horiz-adv-x="572" 
d="M156 -10q-73 0 -115.5 47.5t-42.5 128.5q0 130 79.5 230t192.5 100q56 0 92 -33t44 -81l63 266q4 17 4 33q0 24 -12.5 37.5t-41.5 28.5v2h160l-161 -661q-3 -10 -3 -19q0 -19 12.5 -29.5t32.5 -10.5q23 0 55 16l1 -2q-53 -53 -109 -53q-35 0 -56 19t-21 53q0 20 12 63
q-74 -135 -186 -135zM189 34q59 0 106.5 50.5t68.5 131.5l21 81q7 27 7 52q0 54 -31 83t-75 29q-86 0 -143.5 -91t-57.5 -204q0 -132 104 -132z" />
    <glyph glyph-name="e" unicode="e" horiz-adv-x="459" 
d="M190 -10q-84 0 -136.5 53.5t-52.5 141.5q0 122 84 216.5t205 94.5q62 0 100 -30t38 -76q0 -79 -90.5 -119t-245.5 -45q-3 -24 -3 -47q0 -77 35 -114.5t97 -37.5q94 0 167 95h4q-27 -63 -81.5 -97.5t-120.5 -34.5zM290 476q-69 0 -124.5 -71.5t-71.5 -166.5
q252 19 252 173q0 29 -14.5 47t-41.5 18z" />
    <glyph glyph-name="f" unicode="f" horiz-adv-x="288" 
d="M208 552l-13 -66h126l-12 -26h-119l-117 -481q-26 -107 -71.5 -158.5t-122.5 -55.5v2q45 20 71.5 87.5t56.5 197.5l93 408h-70l2 7l74 21l15 55q58 209 212 209q53 0 84.5 -21.5t31.5 -56.5q0 -30 -21.5 -48t-50.5 -18q-38 0 -51 22q49 6 49 59q0 47 -50 47
q-43 0 -70 -41.5t-47 -142.5z" />
    <glyph glyph-name="g" unicode="g" horiz-adv-x="533" 
d="M344 390q0 88 -68 88q-51 0 -83.5 -40.5t-44.5 -100.5q-5 -32 -5 -57q0 -88 68 -88q51 0 83.5 40.5t44.5 100.5q5 32 5 57zM428 -33q0 -92 -85.5 -145t-201.5 -53q-93 0 -161.5 34.5t-68.5 95.5q0 49 48.5 78t121.5 29q-37 6 -60.5 30.5t-23.5 59.5q0 43 33 71.5t79 38.5
q-54 38 -54 103q0 80 61.5 133.5t159.5 53.5q80 0 125 -53q57 63 102 63q61 0 61 -55q0 -34 -24 -51t-56 -17v2q18 12 18 36q0 32 -39 32q-26 0 -55 -18q24 -35 24 -74q0 -80 -61.5 -133.5t-159.5 -53.5q-50 0 -90 24q-25 -7 -42 -24.5t-17 -42.5q0 -23 16 -37.5t46 -15.5
l158 -4q66 -2 106 -29t40 -78zM235 -3l-94 3q-68 0 -109.5 -26t-41.5 -79q0 -50 41 -78.5t109 -28.5q91 0 149 36.5t58 101.5q0 39 -26 54t-86 17z" />
    <glyph glyph-name="h" unicode="h" horiz-adv-x="558" 
d="M135 213l-53 -213h-85l162 648q4 17 4 33q0 24 -12.5 37.5t-41.5 28.5v2h160l-106 -424q37 76 93.5 123.5t119.5 47.5q48 0 73.5 -29.5t25.5 -78.5q0 -25 -6 -52l-62 -248q-3 -10 -3 -19q0 -19 12.5 -29.5t32.5 -10.5q23 0 55 16l1 -2q-53 -53 -109 -53q-35 0 -56 19
t-21 53q0 15 4 30l59 236q8 34 8 57q0 57 -57 57q-56 0 -113 -57t-85 -172z" />
    <glyph glyph-name="i" unicode="i" horiz-adv-x="263" 
d="M126 651q0 27 18.5 46t46.5 19q26 0 42 -16t16 -40q0 -27 -18.5 -46t-46.5 -19q-26 0 -42 16t-16 40zM92 -10q-35 0 -56 19t-21 53q0 15 4 30l73 293q4 15 4 29q0 41 -47 70v2h153l-99 -398q-3 -10 -3 -19q0 -19 12.5 -29.5t32.5 -10.5q23 0 55 16l1 -2q-53 -53 -109 -53
z" />
    <glyph glyph-name="j" unicode="j" horiz-adv-x="243" 
d="M130 651q0 27 18.5 46t46.5 19q26 0 42 -16t16 -40q0 -27 -18.5 -46t-46.5 -19q-26 0 -42 16t-16 40zM-116 -235q-53 0 -87 22t-34 60q0 33 23 54t58 21q30 0 44 -11q-52 -15 -52 -76q0 -24 12.5 -39t35.5 -15q36 0 59 46.5t54 169.5l97 388q4 15 4 29q0 41 -47 70v2h153
l-114 -458q-36 -145 -83.5 -204t-122.5 -59z" />
    <glyph glyph-name="k" unicode="k" horiz-adv-x="541" 
d="M269 749l-111 -444q46 84 108.5 137.5t130.5 53.5q47 0 74 -26t27 -68q0 -72 -60 -117t-156 -59l68 -142q26 -51 74 -51q27 0 57 18v-2q-46 -59 -112 -59q-64 0 -94 67l-84 187q22 -9 51 -9q70 0 123 43t53 105q0 30 -16 48t-46 18q-57 0 -127.5 -71t-98.5 -185l-48 -193
h-85l162 648q4 17 4 33q0 24 -12.5 37.5t-41.5 28.5v2h160z" />
    <glyph glyph-name="l" unicode="l" horiz-adv-x="258" 
d="M17 92l135 556q5 22 5 33q0 24 -13 37.5t-42 28.5v2h160l-161 -661q-3 -10 -3 -19q0 -19 12.5 -29.5t32.5 -10.5q23 0 55 16l1 -2q-53 -53 -109 -53q-35 0 -56 19t-21 53q0 15 4 30z" />
    <glyph glyph-name="m" unicode="m" horiz-adv-x="846" 
d="M756 336l-62 -248q-3 -10 -3 -19q0 -19 12.5 -29.5t32.5 -10.5q23 0 55 16l1 -2q-53 -53 -109 -53q-35 0 -56 19t-21 53q0 15 4 30l59 236q10 38 10 62q0 52 -54 52q-55 0 -110 -57t-83 -172l-53 -213h-85l82 328q10 38 10 62q0 52 -54 52q-55 0 -110 -57t-83 -172
l-53 -213h-85l96 385q4 15 4 29q0 41 -47 70v2h153l-40 -161q38 77 91.5 124t116.5 47q46 0 71.5 -29t25.5 -76q0 -31 -12 -66q38 77 91.5 124t116.5 47q48 0 72 -28.5t24 -75.5q0 -26 -8 -56z" />
    <glyph glyph-name="n" unicode="n" horiz-adv-x="563" 
d="M139 213l-53 -213h-85l96 385q4 15 4 29q0 41 -47 70v2h153l-40 -161q37 76 93.5 123.5t119.5 47.5q49 0 74.5 -30t25.5 -78q0 -27 -7 -52l-62 -248q-3 -10 -3 -19q0 -19 12.5 -29.5t32.5 -10.5q23 0 55 16l1 -2q-53 -53 -109 -53q-35 0 -56 19t-21 53q0 15 4 30l59 236
q8 34 8 57q0 57 -57 57q-56 0 -113 -57t-85 -172z" />
    <glyph glyph-name="o" unicode="o" horiz-adv-x="520" 
d="M1 185q0 124 79.5 217.5t192.5 93.5q84 0 138 -52t54 -143q0 -124 -79.5 -217.5t-192.5 -93.5q-84 0 -137.5 52t-54.5 143zM193 10q52 0 95.5 53t66.5 132q19 65 19 122q0 159 -101 159q-52 0 -95.5 -53t-66.5 -132q-19 -65 -19 -122q0 -159 101 -159z" />
    <glyph glyph-name="p" unicode="p" horiz-adv-x="570" 
d="M431 316q0 62 -24 99t-72 37q-60 0 -111.5 -51t-70.5 -132l-20 -80q-7 -28 -7 -54q0 -54 29.5 -82t75.5 -28q86 0 143 88t57 203zM112 104l-82 -329h-85l152 610q4 15 4 29q0 41 -47 70v2h153l-32 -127q33 59 82.5 98t109.5 39q72 0 111.5 -48.5t39.5 -133.5
q0 -128 -77 -226t-190 -98q-56 0 -93.5 33.5t-45.5 80.5z" />
    <glyph glyph-name="q" unicode="q" horiz-adv-x="553" 
d="M270 496q56 0 92.5 -32t45.5 -78q17 37 49 66t69 44q-25 -74 -51 -176l-140 -545h-85l92 350q-74 -135 -186 -135q-73 0 -115.5 47.5t-42.5 128.5q0 130 79.5 230t192.5 100zM85 166q0 -132 104 -132q58 0 106.5 51.5t69.5 132.5l20 79q7 27 7 52q0 54 -31 83t-75 29
q-86 0 -143.5 -91t-57.5 -204z" />
    <glyph glyph-name="r" unicode="r" horiz-adv-x="436" 
d="M309 347q20 3 32.5 19.5t12.5 38.5q0 36 -38 36q-51 0 -104.5 -75t-74.5 -161l-51 -205h-85l96 385q4 15 4 29q0 41 -47 70v2h153l-44 -178q90 188 195 188q34 0 55.5 -20t21.5 -51q0 -39 -24.5 -63.5t-65.5 -24.5q-22 0 -36 10z" />
    <glyph glyph-name="s" unicode="s" horiz-adv-x="426" 
d="M56 351q0 62 52 103.5t128 41.5q64 0 109 -27.5t45 -70.5q0 -28 -17.5 -44.5t-44.5 -16.5q-29 0 -45 19q17 1 27.5 15t10.5 37q0 34 -23.5 52.5t-66.5 18.5q-46 0 -75 -25.5t-29 -63.5q0 -31 19 -53t72 -54q65 -39 92.5 -69.5t27.5 -71.5q0 -66 -57 -109t-138 -43
q-73 0 -122 30.5t-49 77.5q0 30 18.5 47.5t45.5 17.5q33 0 52 -19q-19 -1 -31 -15t-12 -36q0 -38 27.5 -62t73.5 -24q51 0 84.5 28t33.5 71q0 29 -21 53.5t-70 52.5q-60 35 -88.5 65t-28.5 74z" />
    <glyph glyph-name="t" unicode="t" horiz-adv-x="323" 
d="M196 460l-90 -360q-2 -12 -2 -17q0 -23 15.5 -36t41.5 -13q53 0 98 49l2 -2q-64 -91 -156 -91q-42 0 -65.5 21t-23.5 57q0 15 4 30l89 362h-70l1 6q70 20 117.5 67t82.5 125h7l-45 -172h140l-11 -26h-135z" />
    <glyph glyph-name="u" unicode="u" horiz-adv-x="561" 
d="M499 43q-53 -53 -109 -53q-35 0 -56 19t-21 53q0 22 21 99q-84 -171 -201 -171q-50 0 -79 32t-29 82q0 22 6 46l59 235q4 15 4 29q0 41 -47 70v2h153l-84 -337q-6 -23 -6 -43q0 -62 61 -62q53 0 108 57.5t83 171.5l53 213h85l-99 -398q-3 -10 -3 -19q0 -19 12.5 -29.5
t32.5 -10.5q23 0 55 16z" />
    <glyph glyph-name="v" unicode="v" horiz-adv-x="523" 
d="M117 160q0 -62 28.5 -96.5t78.5 -34.5q58 0 104.5 48t68.5 112t22 126q0 54 -22 81.5t-60 27.5q-45 0 -60 -35v8q0 42 25.5 70.5t66.5 28.5q49 0 75.5 -36t26.5 -95q0 -85 -36.5 -170.5t-106.5 -145t-154 -59.5q-69 0 -106.5 38.5t-37.5 100.5q0 58 39.5 121t125.5 166
l-40 -2q-73 -3 -99.5 -13t-43.5 -43v6q0 53 23.5 88.5t62.5 35.5q18 0 56 -15t58 -19l25 38h20l-76 -135t-42.5 -96t-21.5 -101z" />
    <glyph glyph-name="w" unicode="w" horiz-adv-x="797" 
d="M506 486l-73 -244q-23 -78 -23 -128q0 -98 85 -98q57 0 103.5 51t69 118.5t22.5 129.5q0 109 -75 109q-44 0 -59 -35v9q0 42 23.5 70t62.5 28q48 0 75 -36t27 -95q0 -85 -34 -170.5t-98 -145t-139 -59.5q-60 0 -102.5 38t-44.5 95q-21 -59 -64.5 -96t-95.5 -37
q-66 0 -103 39.5t-37 101.5q0 21 6.5 43t17.5 44t27 46.5t35 48.5l40.5 50l43.5 53l-41 -2q-73 -4 -99.5 -13.5t-43.5 -42.5v6q0 53 23.5 88.5t62.5 35.5q18 0 58 -15t59 -19l22 38h21q-77 -126 -112.5 -201t-35.5 -135q0 -54 24.5 -84.5t68.5 -30.5q88 0 136 156l57 188
q4 15 4 29q0 40 -47 70v2h153z" />
    <glyph glyph-name="x" unicode="x" horiz-adv-x="513" 
d="M332 -10q-74 0 -97 94l-31 126l-24 -48q-45 -89 -82.5 -130.5t-85.5 -41.5q-27 0 -46 18t-19 44q0 28 18 44.5t41 16.5q15 0 29 -7q-24 -5 -24 -28q0 -33 34 -33q50 0 123 131l31 55l-38 152q-17 70 -65 70q-24 0 -53 -20v2q44 62 107 62q69 0 91 -95l24 -96l9 19
q43 84 83 127.5t87 43.5q27 0 46 -17t19 -43q0 -27 -18 -43t-42 -16q-14 0 -30 7q25 4 25 27q0 32 -33 32q-55 0 -125 -130l-16 -29l44 -178q18 -74 69 -74q27 0 56 20v-2q-43 -60 -107 -60z" />
    <glyph glyph-name="y" unicode="y" horiz-adv-x="540" 
d="M505 486l-105 -420q-41 -163 -107.5 -232t-179.5 -69q-70 0 -119.5 32.5t-49.5 83.5q0 33 21.5 53t52.5 20q27 0 49 -17q-46 -6 -46 -66q0 -40 24.5 -64t67.5 -24q78 0 120.5 61.5t74.5 191.5l31 125q-92 -171 -206 -171q-50 0 -79 32t-29 82q0 22 6 46l59 235q4 15 4 29
q0 41 -47 70v2h153l-84 -337q-6 -23 -6 -43q0 -62 57 -62t114.5 57t85.5 172l53 213h85z" />
    <glyph glyph-name="z" unicode="z" horiz-adv-x="493" 
d="M275 -15q-31 0 -64.5 18.5t-57.5 40t-54.5 40t-57.5 18.5q-39 0 -39 -36q0 -25 22.5 -34t52.5 2q-17 -44 -56 -44q-23 0 -39 15t-16 40q0 27 13 51.5t31.5 43t52.5 39t62.5 34.5t76.5 35l97 43.5t72 40t56 47.5q-20 -14 -43 -14q-31 0 -105 23t-122 23q-70 0 -104 -68h-2
q13 72 50 112.5t87 40.5q31 0 62 -17.5t52 -38t48.5 -38t52.5 -17.5q33 0 33 30q0 22 -20.5 32.5t-50.5 3.5q15 38 56 38q21 0 36 -14.5t15 -38.5q0 -22 -8.5 -42t-31 -40t-39.5 -33t-57 -33l-58.5 -29t-67.5 -31l-85.5 -39.5t-62 -35.5t-48.5 -42q22 12 42 12
q33 0 117.5 -27t131.5 -27q31 0 60 17.5t44 51.5h2q-13 -77 -50 -115t-86 -38z" />
    <glyph glyph-name="braceleft" unicode="{" horiz-adv-x="350" 
d="M5 310l1 6q123 4 157 145q5 21 9 66t11 72q16 64 75.5 107t137.5 43q25 0 45 -4v-4q-63 0 -114.5 -39t-68.5 -108q-4 -16 -8.5 -66t-10.5 -73q-17 -67 -68 -102t-97 -40q35 -4 67 -29.5t32 -74.5q0 -38 -30.5 -108.5t-30.5 -110.5q0 -50 32 -77.5t84 -27.5v-4
q-23 -4 -49 -4q-66 0 -104.5 32.5t-38.5 83.5q0 38 30.5 110.5t30.5 115.5q0 87 -92 91z" />
    <glyph glyph-name="bar" unicode="|" horiz-adv-x="187" 
d="M-38 -123l217 872h27l-217 -872h-27z" />
    <glyph glyph-name="braceright" unicode="}" horiz-adv-x="350" 
d="M327 316l-1 -6q-123 -4 -157 -145q-5 -21 -9 -66t-11 -72q-16 -64 -75.5 -107t-137.5 -43q-25 0 -45 4v4q63 0 114.5 39t68.5 108q4 16 8.5 66t10.5 73q17 67 68 102t97 40q-35 4 -67 29.5t-32 74.5q0 38 30.5 108.5t30.5 110.5q0 50 -32 77.5t-84 27.5v4q23 4 49 4
q66 0 104.5 -32.5t38.5 -83.5q0 -38 -30.5 -110.5t-30.5 -115.5q0 -87 92 -91z" />
    <glyph glyph-name="asciitilde" unicode="~" horiz-adv-x="498" 
d="M25 246h-2q64 121 153 121q31 0 80.5 -25.5t79.5 -25.5q67 0 115 56h2q-65 -121 -152 -121q-32 0 -81 25.5t-79 25.5q-69 0 -116 -56z" />
    <glyph glyph-name="uni00A0" unicode="&#xa0;" horiz-adv-x="200" 
 />
    <glyph glyph-name="exclamdown" unicode="&#xa1;" horiz-adv-x="260" 
d="M91 492q0 28 19.5 48t48.5 20q28 0 48 -20t20 -48q0 -29 -20 -49t-48 -20q-29 0 -48.5 20t-19.5 49zM68 -149h-126l184 496h5z" />
    <glyph glyph-name="cent" unicode="&#xa2;" horiz-adv-x="509" 
d="M100 195q0 -125 93 -158l107 439q-86 -2 -143 -89.5t-57 -191.5zM215 -9q-10 0 -15 1l-26 -106h-18l26 107q-76 11 -125 66.5t-49 135.5q0 122 82.5 211.5t212.5 89.5h2l24 100h18l-25 -101q69 -4 109.5 -38t40.5 -80q0 -39 -26 -63.5t-63 -24.5q-27 0 -46 12t-22 36
q15 -10 32 -10q26 0 41.5 18.5t15.5 47.5q0 34 -22.5 56.5t-63.5 25.5l-108 -443q16 -4 39 -4q98 0 175 95h5q-30 -63 -87 -97.5t-127 -34.5z" />
    <glyph glyph-name="sterling" unicode="&#xa3;" horiz-adv-x="633" 
d="M419 -29q-31 0 -59 6.5t-55 20.5t-43.5 24.5t-46 32l-40.5 29.5q-71 -94 -150 -94q-38 0 -60.5 20t-22.5 53q0 40 29 63.5t74 23.5q43 0 101 -24q15 34 33 105q11 47 21 111h-113l4 18h112q11 75 23 123q26 103 100.5 165t175.5 62q69 0 110.5 -32t41.5 -79
q0 -49 -30.5 -75t-71.5 -26q-24 0 -43 9.5t-24 22.5q42 -7 68.5 19t26.5 68q0 35 -21.5 56.5t-57.5 21.5q-61 0 -103.5 -51.5t-63.5 -135.5l-32 -129q-1 -3 -2.5 -9.5t-2.5 -9.5h160l-4 -18h-161q-39 -143 -100 -235q119 -52 191 -52q59 0 94 22t35 61q0 23 -11 39
q55 -23 55 -79q0 -58 -38.5 -92.5t-98.5 -34.5zM26 8q66 0 112 99q-48 25 -94 25q-35 0 -58 -19t-23 -50q0 -25 17.5 -40t45.5 -15z" />
    <glyph glyph-name="yen" unicode="&#xa5;" horiz-adv-x="632" 
d="M335 2v-2h-205v2q39 15 59 41t32 77l33 132h-189l5 18h189l5 22l-17 51h-158l5 18h147l-79 233q-13 40 -26 60.5t-38 43.5v2h183v-2q-46 -23 -46 -63q0 -11 5 -28l95 -285l228 274q27 32 27 58t-28 44v2h148v-2q-36 -22 -58.5 -42.5t-56.5 -61.5l-193 -233h145l-5 -18
h-155l-42 -51l-5 -22h183l-5 -18h-183l-33 -132q-9 -33 -9 -55q0 -44 42 -63z" />
    <glyph glyph-name="section" unicode="&#xa7;" horiz-adv-x="544" 
d="M148 265l135 -158q39 -46 50 -84q20 19 34 53.5t14 63.5q0 37 -37 80l-135 158q-39 46 -50 84q-20 -19 -34 -53.5t-14 -63.5q0 -37 37 -80zM121 -225q-69 0 -114.5 33t-45.5 81q0 37 23.5 60.5t60.5 23.5q33 0 51 -21q-61 -13 -61 -84q0 -35 23 -56t64 -21q64 0 104 49
t40 115q0 47 -47 100l-120 135q-48 54 -48 112q0 96 106 168q-6 20 -6 44q0 77 65.5 136.5t154.5 59.5q69 0 114.5 -33t45.5 -81q0 -37 -23.5 -60.5t-60.5 -23.5q-33 0 -51 21q61 13 61 84q0 35 -23 56t-64 21q-64 0 -104 -49t-40 -115q0 -47 47 -100l120 -135
q48 -54 48 -112q0 -96 -106 -168q6 -19 6 -44q0 -77 -65.5 -136.5t-154.5 -59.5z" />
    <glyph glyph-name="dieresis" unicode="&#xa8;" 
d="M416 699q26 0 42 -16t16 -40q0 -26 -19 -44.5t-46 -18.5q-24 0 -40 15.5t-16 38.5q0 27 18.5 46t44.5 19zM236 699q26 0 42 -16t16 -40q0 -26 -19 -44.5t-46 -18.5q-24 0 -40 15.5t-16 38.5q0 27 18.5 46t44.5 19z" />
    <glyph glyph-name="copyright" unicode="&#xa9;" horiz-adv-x="810" 
d="M382 -10q-143 0 -239.5 93t-96.5 236q0 169 113 280t273 111q143 0 239.5 -93t96.5 -236q0 -169 -113 -280t-273 -111zM384 11q150 0 256.5 104.5t106.5 263.5q0 135 -91 222.5t-225 87.5q-151 0 -257.5 -104.5t-106.5 -263.5q0 -135 91 -222.5t226 -87.5zM560 256
q-26 -59 -72.5 -92t-109.5 -33q-76 0 -122.5 48t-46.5 123q0 112 71 187.5t172 75.5q31 0 63 -11.5t43 -11.5q22 0 40 22l-25 -136h-1q-33 124 -117 124q-73 0 -121.5 -74t-48.5 -171q0 -63 33.5 -102t88.5 -39q91 0 150 90h3z" />
    <glyph glyph-name="ordfeminine" unicode="&#xaa;" horiz-adv-x="431" 
d="M409 587l-40 -160q-2 -8 -2 -13q0 -26 28 -26q19 0 41 12l1 -5q-38 -36 -76 -36q-26 0 -44 17.5t-18 44.5q0 5 5 30q-51 -92 -125 -92q-50 0 -79 33t-29 89q0 90 56 159t134 69q38 0 61 -21t30 -54q19 46 92 75q-23 -65 -35 -122zM138 483q0 -88 64 -88q36 0 70 37.5
t46 86.5l13 53q4 22 4 31q0 34 -18.5 55t-45.5 21q-57 0 -95 -61.5t-38 -134.5zM54 264l5 20h283l-5 -20h-283z" />
    <glyph glyph-name="guillemotleft" unicode="&#xab;" horiz-adv-x="453" 
d="M164 243v2q168 80 284 180h4q-82 -110 -170 -189q61 -98 80 -173h-4q-70 102 -194 180zM-6 245q168 80 284 180h4q-82 -110 -170 -189q61 -98 80 -173h-4q-70 102 -194 180v2z" />
    <glyph glyph-name="registered" unicode="&#xae;" horiz-adv-x="489" 
d="M299 710q82 0 132.5 -51.5t50.5 -136.5q0 -83 -63.5 -143t-146.5 -60q-81 0 -131.5 51.5t-50.5 135.5q0 83 63.5 143.5t145.5 60.5zM298 695q-76 0 -134.5 -55.5t-58.5 -132.5q0 -78 46.5 -125.5t121.5 -47.5q77 0 135.5 55t58.5 132q0 79 -46.5 126.5t-122.5 47.5z
M260 519h19q28 0 48.5 14.5t20.5 41.5q0 18 -12.5 29t-33.5 11h-18zM256 407v-3h-93v3q11 6 15 8t8 8t7 17l39 151q3 15 0 20.5t-16 12.5v3h113q69 0 69 -52q0 -27 -25 -45.5t-57 -18.5v-2q36 -4 40 -39l4 -26q3 -17 8.5 -24t20.5 -13v-3h-68q-6 20 -8 35l-5 37
q-2 19 -9.5 26t-29.5 7h-12l-17 -69q-2 -8 -2 -13t2.5 -8t6.5 -6t9 -6z" />
    <glyph glyph-name="macron" unicode="&#xaf;" 
d="M451 600h-276l8 35h276z" />
    <glyph glyph-name="degree" unicode="&#xb0;" horiz-adv-x="269" 
d="M84 594q0 45 36.5 80t84.5 35q45 0 74.5 -30.5t29.5 -76.5q0 -45 -36.5 -80t-84.5 -35q-44 0 -74 30.5t-30 76.5zM107 595q0 -37 24 -61.5t59 -24.5q38 0 67.5 28t29.5 64q0 37 -24 61.5t-60 24.5q-38 0 -67 -28t-29 -64z" />
    <glyph glyph-name="plusminus" unicode="&#xb1;" horiz-adv-x="479" 
d="M255 362l-35 -139h-26l35 139h-182l6 26h182l35 138h26l-35 -138h183l-6 -26h-183zM-10 134l6 25h391l-6 -25h-391z" />
    <glyph glyph-name="twosuperior" unicode="&#xb2;" horiz-adv-x="269" 
d="M203 688q-27 0 -43.5 -15t-16.5 -41q0 -30 25 -30q12 0 21 6h1q-19 -32 -53 -32q-19 0 -30.5 12t-11.5 31q0 39 33.5 62t75.5 23t69 -17.5t27 -51.5q0 -35 -25 -64t-67.5 -53t-97.5 -58h67q37 0 54 6.5t39 30.5h5l-34 -87h-209v3l125 101t66 67t19 65q0 19 -10.5 30.5
t-28.5 11.5z" />
    <glyph glyph-name="threesuperior" unicode="&#xb3;" horiz-adv-x="268" 
d="M137 503q-14 0 -22 -11.5t-8 -26.5q0 -45 40 -45q30 0 48.5 28.5t18.5 63.5q0 46 -53 49v8q37 1 57.5 26.5t20.5 58.5q0 36 -31 36q-21 0 -34 -13t-13 -33q0 -21 17 -23q6 0 11 3h1q-13 -19 -40 -19q-17 0 -27.5 9t-10.5 25q0 31 28.5 48t67.5 17q38 0 65 -17t27 -46
q0 -33 -28 -52.5t-69 -23.5q32 -4 53 -21t21 -43q0 -46 -39 -70.5t-91 -24.5q-32 0 -61.5 15.5t-29.5 48.5q0 24 15.5 38.5t38.5 14.5q34 0 40 -25h-1q-3 5 -12 5z" />
    <glyph glyph-name="acute" unicode="&#xb4;" 
d="M323 749h110q-83 -101 -209 -188h-4q71 89 103 188z" />
    <glyph glyph-name="paragraph" unicode="&#xb6;" horiz-adv-x="519" 
d="M470 594l-161 -645q-20 -79 -72.5 -131.5t-123.5 -52.5q-56 0 -93.5 26t-37.5 74q0 42 28 68t65 26q21 0 35.5 -10.5t15.5 -30.5h-1q-10 8 -26 8q-23 0 -37.5 -20.5t-14.5 -50.5q0 -29 22.5 -48t56.5 -19q55 0 99 46t61 115l182 728h-39l-137 -549h-23l41 164
q-108 0 -179 45.5t-71 124.5q0 78 52 133.5t129.5 80t170.5 24.5h145l-1 -2q-42 -21 -58 -39t-28 -65z" />
    <glyph glyph-name="periodcentered" unicode="&#xb7;" horiz-adv-x="208" 
d="M152 269q0 -28 -20 -48t-48 -20t-48 19.5t-20 48.5t19.5 49t48.5 20q28 0 48 -20t20 -49z" />
    <glyph glyph-name="cedilla" unicode="&#xb8;" 
d="M5 -168l10 9q26 -40 80 -40q36 0 55.5 19.5t19.5 51.5q0 26 -19 36t-60 12l67 85h18l-55 -69q49 4 82.5 -15.5t33.5 -53.5q0 -41 -37 -65.5t-90 -24.5q-37 0 -65 15t-40 40z" />
    <glyph glyph-name="onesuperior" unicode="&#xb9;" horiz-adv-x="195" 
d="M145 657q4 18 -4 25t-39 12l1 6h116l-62 -247q-4 -18 3.5 -25t37.5 -12l-1 -6h-165l1 6q33 5 45 12t16 25z" />
    <glyph glyph-name="ordmasculine" unicode="&#xba;" horiz-adv-x="383" 
d="M266 710q60 0 98.5 -36.5t38.5 -99.5q0 -86 -58 -152t-137 -66q-59 0 -97.5 36.5t-38.5 99.5q0 87 57.5 152.5t136.5 65.5zM209 377q35 0 64.5 35.5t46.5 87.5q12 48 12 83q0 106 -67 106q-35 0 -64.5 -35.5t-45.5 -87.5q-12 -48 -12 -83q0 -106 66 -106zM32 264l5 20
h283l-5 -20h-283z" />
    <glyph glyph-name="guillemotright" unicode="&#xbb;" horiz-adv-x="453" 
d="M407 243q-168 -80 -284 -180h-4q82 110 170 189q-61 98 -80 173h4q70 -102 194 -180v-2zM237 243q-168 -80 -284 -180h-4q82 110 170 189q-61 98 -80 173h4q70 -102 194 -180v-2z" />
    <glyph glyph-name="onequarter" unicode="&#xbc;" horiz-adv-x="405" 
d="M193 453l51 204q4 18 -4 25t-39 12l1 6h116l-62 -247q-4 -18 3.5 -25t37.5 -12l-1 -6h-165l1 6q33 5 45 12t16 25zM387 358l-4 -16h-365l4 16h365zM12 92h114l39 155zM189 4v-4h-109v4q16 8 23 17.5t12 29.5l7 25h-141v2l211 215h47l-50 -201h13q18 0 27 5t21 23h4
l-18 -72h-4q-4 18 -10 23t-24 5h-13l-6 -25q-5 -20 -3.5 -29.5t13.5 -17.5z" />
    <glyph glyph-name="onehalf" unicode="&#xbd;" horiz-adv-x="405" 
d="M244 657q4 18 -4 25t-39 12l1 6h116l-62 -247q-4 -18 3.5 -25t37.5 -12l-1 -6h-165l1 6q33 5 45 12t16 25zM387 358l-4 -16h-365l4 16h365zM210 0h-209l1 3l124.5 101t65.5 67t19 65q0 19 -10.5 30.5t-28.5 11.5q-27 0 -43.5 -15t-16.5 -41q0 -30 25 -30q12 0 21 6h1
q-19 -32 -53 -32q-19 0 -30.5 12t-11.5 31q0 39 33.5 62t75.5 23t69 -17.5t27 -51.5q0 -35 -25 -64t-67.5 -53t-97.5 -58h67q37 0 54 6.5t39 30.5h5z" />
    <glyph glyph-name="threequarters" unicode="&#xbe;" horiz-adv-x="405" 
d="M202 503q-14 0 -22 -11.5t-8 -26.5q0 -45 40 -45q30 0 48.5 28.5t18.5 63.5q0 46 -53 49v8q37 1 57.5 26.5t20.5 58.5q0 36 -31 36q-21 0 -34 -13t-13 -33q0 -21 17 -23q7 0 11 3h1q-13 -19 -40 -19q-17 0 -27.5 9t-10.5 25q0 31 28.5 48t67.5 17q38 0 65 -17t27 -46
q0 -33 -28 -52.5t-69 -23.5q32 -4 53 -21t21 -43q0 -46 -39 -70.5t-91 -24.5q-32 0 -61.5 15.5t-29.5 48.5q0 24 15.5 38.5t38.5 14.5q34 0 40 -25h-1q-3 5 -12 5zM18 342l4 16h365l-4 -16h-365zM12 92h114l39 155zM189 4v-4h-109v4q16 8 23 17.5t12 29.5l7 25h-141v2
l211 215h47l-50 -201h13q18 0 27 5t21 23h4l-18 -72h-4q-4 18 -10 23t-24 5h-13l-6 -25q-5 -20 -3.5 -29.5t13.5 -17.5z" />
    <glyph glyph-name="questiondown" unicode="&#xbf;" horiz-adv-x="474" 
d="M302 423q-29 0 -48.5 20t-19.5 49q0 28 20 48t48 20t48 -20t20 -48q0 -29 -20 -49t-48 -20zM165 -159q-89 0 -143.5 49.5t-54.5 122.5q0 97 72 159t191 77l25 101h23l-45 -182q-86 -7 -141.5 -52t-55.5 -129q0 -61 35 -93.5t94 -32.5q58 0 93.5 35t35.5 90
q0 25 -12.5 38.5t-32.5 13.5q-24 0 -39 -11h-2q33 58 87 58q33 0 55 -24.5t22 -59.5q0 -75 -61.5 -117.5t-145.5 -42.5z" />
    <glyph glyph-name="Agrave" unicode="&#xc0;" horiz-adv-x="700" 
d="M460 915q-3 -71 37 -164h-4q-88 74 -128 164h95zM444 260l-56 322l-229 -322h285zM67 2v-2h-154v2q36 23 54 42.5t53 69.5l423 596h5l112 -596q9 -49 18 -69.5t35 -42.5v-2h-208v2q40 18 54.5 33t14.5 39q0 12 -3 28l-23 132h-307l-72 -101q-34 -49 -34 -81t32 -50z" />
    <glyph glyph-name="Aacute" unicode="&#xc1;" horiz-adv-x="700" 
d="M499 915h109q-78 -91 -207 -164h-4q70 78 102 164zM444 260l-56 322l-229 -322h285zM67 2v-2h-154v2q36 23 54 42.5t53 69.5l423 596h5l112 -596q9 -49 18 -69.5t35 -42.5v-2h-208v2q40 18 54.5 33t14.5 39q0 12 -3 28l-23 132h-307l-72 -101q-34 -49 -34 -81t32 -50z
" />
    <glyph glyph-name="Acircumflex" unicode="&#xc2;" horiz-adv-x="700" 
d="M580 743q-72 40 -108 84q-49 -34 -168 -84h-8q130 95 198 187h4q16 -93 90 -187h-8zM444 260l-56 322l-229 -322h285zM67 2v-2h-154v2q36 23 54 42.5t53 69.5l423 596h5l112 -596q9 -49 18 -69.5t35 -42.5v-2h-208v2q40 18 54.5 33t14.5 39q0 12 -3 28l-23 132h-307
l-72 -101q-34 -49 -34 -81t32 -50z" />
    <glyph glyph-name="Atilde" unicode="&#xc3;" horiz-adv-x="700" 
d="M661 908q-63 -136 -138 -136q-27 0 -68 34.5t-68 34.5q-52 0 -102 -73h-10q63 136 138 136q27 0 68 -34.5t68 -34.5q52 0 102 73h10zM444 260l-56 322l-229 -322h285zM67 2v-2h-154v2q36 23 54 42.5t53 69.5l423 596h5l112 -596q9 -49 18 -69.5t35 -42.5v-2h-208v2
q40 18 54.5 33t14.5 39q0 12 -3 28l-23 132h-307l-72 -101q-34 -49 -34 -81t32 -50z" />
    <glyph glyph-name="Adieresis" unicode="&#xc4;" horiz-adv-x="700" 
d="M558 889q26 0 42 -16t16 -40q0 -26 -19 -44.5t-46 -18.5q-24 0 -40 15.5t-16 38.5q0 27 18.5 46t44.5 19zM378 889q26 0 42 -16t16 -40q0 -26 -19 -44.5t-46 -18.5q-24 0 -40 15.5t-16 38.5q0 27 18.5 46t44.5 19zM444 260l-56 322l-229 -322h285zM67 2v-2h-154v2
q36 23 54 42.5t53 69.5l423 596h5l112 -596q9 -49 18 -69.5t35 -42.5v-2h-208v2q40 18 54.5 33t14.5 39q0 12 -3 28l-23 132h-307l-72 -101q-34 -49 -34 -81t32 -50z" />
    <glyph glyph-name="Aring" unicode="&#xc5;" horiz-adv-x="700" 
d="M376 849q0 38 31.5 68t71.5 30q38 0 63.5 -25.5t25.5 -65.5q0 -38 -31.5 -68t-71.5 -30q-38 0 -63.5 25.5t-25.5 65.5zM467 782q30 0 53 22.5t23 51.5q0 30 -19 48.5t-47 18.5q-30 0 -53 -22.5t-23 -51.5q0 -30 19 -48.5t47 -18.5zM444 260l-56 322l-229 -322h285zM67 2
v-2h-154v2q36 23 54 42.5t53 69.5l423 596h5l112 -596q9 -49 18 -69.5t35 -42.5v-2h-208v2q40 18 54.5 33t14.5 39q0 12 -3 28l-23 132h-307l-72 -101q-34 -49 -34 -81t32 -50z" />
    <glyph glyph-name="AE" unicode="&#xc6;" horiz-adv-x="1040" 
d="M584 669l-338 -369h246zM66 2v-2h-153v2q24 15 43.5 31t37 35l43.5 46l462 503q23 23 23 39q0 23 -43 42v2h496q41 0 56 7l-7 -173h-2q-22 75 -60 107.5t-118 32.5h-174l-76 -306h137q61 0 93.5 21t74.5 90h2l-58 -233h-2q-8 65 -29.5 80.5t-86.5 15.5h-137l-79 -316h184
q87 0 144 39.5t124 128.5h2l-76 -194h-527v2q37 14 56 43t33 83l36 146h-263l-157 -172q-36 -40 -36 -59q0 -23 37 -41z" />
    <glyph glyph-name="Ccedilla" unicode="&#xc7;" horiz-adv-x="645" 
d="M223 -223q-37 0 -65 15t-40 40l10 9q26 -40 80 -40q36 0 55.5 19.5t19.5 51.5q0 26 -19 36t-60 12l58 73q-106 15 -168 91.5t-62 188.5q0 184 117.5 310.5t277.5 126.5q57 0 113 -21t69 -21q25 0 58 30l-36 -211h-2q-51 200 -201 200q-84 0 -153.5 -55.5t-107.5 -148
t-38 -200.5q0 -112 56.5 -179.5t149.5 -67.5q84 0 146.5 37.5t116.5 122.5h6q-42 -96 -118 -151t-178 -55q-20 0 -30 1l-44 -55q49 4 82.5 -15.5t33.5 -53.5q0 -41 -37 -65.5t-90 -24.5z" />
    <glyph glyph-name="Egrave" unicode="&#xc8;" horiz-adv-x="642" 
d="M420 915q-3 -71 37 -164h-4q-88 74 -128 164h95zM134 700h443q41 0 56 7l-7 -173h-2q-22 75 -60 107.5t-118 32.5h-174l-76 -306h137q61 0 93.5 21t74.5 90h2l-58 -233h-2q-8 65 -29.5 80.5t-86.5 15.5h-137l-79 -316h184q87 0 144 39.5t124 128.5h2l-76 -194h-527v2
q37 14 56 43t33 83l111 444q9 36 9 63q0 45 -37 63v2z" />
    <glyph glyph-name="Eacute" unicode="&#xc9;" horiz-adv-x="642" 
d="M458 915h109q-78 -91 -207 -164h-4q70 78 102 164zM134 700h443q41 0 56 7l-7 -173h-2q-22 75 -60 107.5t-118 32.5h-174l-76 -306h137q61 0 93.5 21t74.5 90h2l-58 -233h-2q-8 65 -29.5 80.5t-86.5 15.5h-137l-79 -316h184q87 0 144 39.5t124 128.5h2l-76 -194h-527v2
q37 14 56 43t33 83l111 444q9 36 9 63q0 45 -37 63v2z" />
    <glyph glyph-name="Ecircumflex" unicode="&#xca;" horiz-adv-x="642" 
d="M539 743q-72 40 -108 84q-49 -34 -168 -84h-8q130 95 198 187h4q16 -93 90 -187h-8zM134 700h443q41 0 56 7l-7 -173h-2q-22 75 -60 107.5t-118 32.5h-174l-76 -306h137q61 0 93.5 21t74.5 90h2l-58 -233h-2q-8 65 -29.5 80.5t-86.5 15.5h-137l-79 -316h184
q87 0 144 39.5t124 128.5h2l-76 -194h-527v2q37 14 56 43t33 83l111 444q9 36 9 63q0 45 -37 63v2z" />
    <glyph glyph-name="Edieresis" unicode="&#xcb;" horiz-adv-x="642" 
d="M518 889q26 0 42 -16t16 -40q0 -26 -19 -44.5t-46 -18.5q-24 0 -40 15.5t-16 38.5q0 27 18.5 46t44.5 19zM338 889q26 0 42 -16t16 -40q0 -26 -19 -44.5t-46 -18.5q-24 0 -40 15.5t-16 38.5q0 27 18.5 46t44.5 19zM134 700h443q41 0 56 7l-7 -173h-2q-22 75 -60 107.5
t-118 32.5h-174l-76 -306h137q61 0 93.5 21t74.5 90h2l-58 -233h-2q-8 65 -29.5 80.5t-86.5 15.5h-137l-79 -316h184q87 0 144 39.5t124 128.5h2l-76 -194h-527v2q37 14 56 43t33 83l111 444q9 36 9 63q0 45 -37 63v2z" />
    <glyph glyph-name="Igrave" unicode="&#xcc;" horiz-adv-x="298" 
d="M262 915q-3 -71 37 -164h-4q-88 74 -128 164h95zM134 700h203v-2q-37 -14 -56 -43t-33 -83l-111 -444q-10 -40 -10 -63q0 -45 38 -63v-2h-203v2q37 14 56 43t33 83l111 444q10 40 10 63q0 45 -38 63v2z" />
    <glyph glyph-name="Iacute" unicode="&#xcd;" horiz-adv-x="298" 
d="M301 915h109q-78 -91 -207 -164h-4q70 78 102 164zM134 700h203v-2q-37 -14 -56 -43t-33 -83l-111 -444q-10 -40 -10 -63q0 -45 38 -63v-2h-203v2q37 14 56 43t33 83l111 444q10 40 10 63q0 45 -38 63v2z" />
    <glyph glyph-name="Icircumflex" unicode="&#xce;" horiz-adv-x="298" 
d="M382 743q-72 40 -108 84q-49 -34 -168 -84h-8q130 95 198 187h4q16 -93 90 -187h-8zM134 700h203v-2q-37 -14 -56 -43t-33 -83l-111 -444q-10 -40 -10 -63q0 -45 38 -63v-2h-203v2q37 14 56 43t33 83l111 444q10 40 10 63q0 45 -38 63v2z" />
    <glyph glyph-name="Idieresis" unicode="&#xcf;" horiz-adv-x="298" 
d="M360 889q26 0 42 -16t16 -40q0 -26 -19 -44.5t-46 -18.5q-24 0 -40 15.5t-16 38.5q0 27 18.5 46t44.5 19zM180 889q26 0 42 -16t16 -40q0 -26 -19 -44.5t-46 -18.5q-24 0 -40 15.5t-16 38.5q0 27 18.5 46t44.5 19zM134 700h203v-2q-37 -14 -56 -43t-33 -83l-111 -444
q-10 -40 -10 -63q0 -45 38 -63v-2h-203v2q37 14 56 43t33 83l111 444q10 40 10 63q0 45 -38 63v2z" />
    <glyph glyph-name="Eth" unicode="&#xd0;" horiz-adv-x="731" 
d="M247 0h-285v2q37 14 56 43t33 83l54 215h-57l6 26h57l51 203q10 40 10 63q0 45 -38 63v2h253q146 0 229.5 -74.5t83.5 -195.5q0 -195 -125.5 -312.5t-327.5 -117.5zM111 26h136q110 0 192 56.5t122.5 147.5t40.5 200q0 111 -55.5 177.5t-167.5 66.5h-106l-76 -305h154
l-6 -26h-155z" />
    <glyph glyph-name="Ntilde" unicode="&#xd1;" horiz-adv-x="749" 
d="M692 908q-63 -136 -138 -136q-26 0 -68 34.5t-68 34.5q-52 0 -102 -73h-10q63 136 138 136q26 0 68 -34.5t68 -34.5q52 0 102 73h10zM563 141l104 416q8 34 8 57q0 62 -48 84v2h179v-2q-83 -31 -110 -141l-141 -565h-2l-351 626l-118 -475q-8 -35 -8 -58q0 -62 47 -83v-2
h-179v2q84 32 111 141l108 434q8 32 8 52q0 48 -44 69v2h131z" />
    <glyph glyph-name="Ograve" unicode="&#xd2;" horiz-adv-x="736" 
d="M481 915q-3 -71 37 -164h-4q-88 74 -128 164h95zM32 276q0 181 117 307.5t277 126.5q127 0 202.5 -79.5t75.5 -206.5q0 -181 -117 -307.5t-277 -126.5q-127 0 -202.5 79.5t-75.5 206.5zM310 13q82 0 148.5 58t105.5 153q44 107 44 225q0 101 -47.5 169.5t-134.5 68.5
q-82 0 -148.5 -58t-105.5 -153q-44 -107 -44 -225q0 -101 47.5 -169.5t134.5 -68.5z" />
    <glyph glyph-name="Oacute" unicode="&#xd3;" horiz-adv-x="736" 
d="M520 915h109q-78 -91 -207 -164h-4q70 78 102 164zM32 276q0 181 117 307.5t277 126.5q127 0 202.5 -79.5t75.5 -206.5q0 -181 -117 -307.5t-277 -126.5q-127 0 -202.5 79.5t-75.5 206.5zM310 13q82 0 148.5 58t105.5 153q44 107 44 225q0 101 -47.5 169.5t-134.5 68.5
q-82 0 -148.5 -58t-105.5 -153q-44 -107 -44 -225q0 -101 47.5 -169.5t134.5 -68.5z" />
    <glyph glyph-name="Ocircumflex" unicode="&#xd4;" horiz-adv-x="736" 
d="M601 743q-72 40 -108 84q-49 -34 -168 -84h-8q130 95 198 187h4q16 -93 90 -187h-8zM32 276q0 181 117 307.5t277 126.5q127 0 202.5 -79.5t75.5 -206.5q0 -181 -117 -307.5t-277 -126.5q-127 0 -202.5 79.5t-75.5 206.5zM310 13q82 0 148.5 58t105.5 153q44 107 44 225
q0 101 -47.5 169.5t-134.5 68.5q-82 0 -148.5 -58t-105.5 -153q-44 -107 -44 -225q0 -101 47.5 -169.5t134.5 -68.5z" />
    <glyph glyph-name="Otilde" unicode="&#xd5;" horiz-adv-x="736" 
d="M683 908q-63 -136 -138 -136q-27 0 -68 34.5t-68 34.5q-52 0 -102 -73h-10q63 136 138 136q27 0 68 -34.5t68 -34.5q52 0 102 73h10zM32 276q0 181 117 307.5t277 126.5q127 0 202.5 -79.5t75.5 -206.5q0 -181 -117 -307.5t-277 -126.5q-127 0 -202.5 79.5t-75.5 206.5z
M310 13q82 0 148.5 58t105.5 153q44 107 44 225q0 101 -47.5 169.5t-134.5 68.5q-82 0 -148.5 -58t-105.5 -153q-44 -107 -44 -225q0 -101 47.5 -169.5t134.5 -68.5z" />
    <glyph glyph-name="Odieresis" unicode="&#xd6;" horiz-adv-x="736" 
d="M579 889q26 0 42 -16t16 -40q0 -26 -19 -44.5t-46 -18.5q-24 0 -40 15.5t-16 38.5q0 27 18.5 46t44.5 19zM399 889q26 0 42 -16t16 -40q0 -26 -19 -44.5t-46 -18.5q-24 0 -40 15.5t-16 38.5q0 27 18.5 46t44.5 19zM32 276q0 181 117 307.5t277 126.5q127 0 202.5 -79.5
t75.5 -206.5q0 -181 -117 -307.5t-277 -126.5q-127 0 -202.5 79.5t-75.5 206.5zM310 13q82 0 148.5 58t105.5 153q44 107 44 225q0 101 -47.5 169.5t-134.5 68.5q-82 0 -148.5 -58t-105.5 -153q-44 -107 -44 -225q0 -101 47.5 -169.5t134.5 -68.5z" />
    <glyph glyph-name="multiply" unicode="&#xd7;" horiz-adv-x="398" 
d="M176 327l-100 134l20 15l98 -134l166 134l15 -19l-166 -134l100 -134l-20 -15l-98 134l-166 -134l-15 19z" />
    <glyph glyph-name="Oslash" unicode="&#xd8;" horiz-adv-x="740" 
d="M130 251q0 -55 15 -102l447 413q-20 57 -62 91t-102 34q-82 0 -148.5 -58t-105.5 -153q-44 -107 -44 -225zM312 13q82 0 148.5 58t105.5 153q44 107 44 225q0 45 -11 89l-446 -412q47 -113 159 -113zM312 -10q-133 0 -210 88l-100 -92l-15 17l100 93q-53 75 -53 180
q0 181 117 307.5t277 126.5q142 0 218 -97l98 90l15 -17l-99 -92q46 -71 46 -170q0 -181 -117 -307.5t-277 -126.5z" />
    <glyph glyph-name="Ugrave" unicode="&#xd9;" horiz-adv-x="707" 
d="M487 915q-3 -71 37 -164h-4q-88 74 -128 164h95zM673 572l-74 -297q-35 -142 -105 -213.5t-189 -71.5q-113 0 -179 57t-66 154q0 37 10 76l74 295q10 40 10 63q0 45 -38 63v2h203v-2q-37 -14 -56 -43t-33 -83l-74 -294q-10 -39 -10 -76q0 -78 45.5 -122t122.5 -44
q105 0 165 58.5t91 185.5l73 292q8 35 8 57q0 51 -41 69v2h157v-2q-38 -15 -60 -45t-34 -81z" />
    <glyph glyph-name="Uacute" unicode="&#xda;" horiz-adv-x="707" 
d="M525 915h109q-78 -91 -207 -164h-4q70 78 102 164zM673 572l-74 -297q-35 -142 -105 -213.5t-189 -71.5q-113 0 -179 57t-66 154q0 37 10 76l74 295q10 40 10 63q0 45 -38 63v2h203v-2q-37 -14 -56 -43t-33 -83l-74 -294q-10 -39 -10 -76q0 -78 45.5 -122t122.5 -44
q105 0 165 58.5t91 185.5l73 292q8 35 8 57q0 51 -41 69v2h157v-2q-38 -15 -60 -45t-34 -81z" />
    <glyph glyph-name="Ucircumflex" unicode="&#xdb;" horiz-adv-x="707" 
d="M607 743q-72 40 -108 84q-49 -34 -168 -84h-8q130 95 198 187h4q16 -93 90 -187h-8zM673 572l-74 -297q-35 -142 -105 -213.5t-189 -71.5q-113 0 -179 57t-66 154q0 37 10 76l74 295q10 40 10 63q0 45 -38 63v2h203v-2q-37 -14 -56 -43t-33 -83l-74 -294q-10 -39 -10 -76
q0 -78 45.5 -122t122.5 -44q105 0 165 58.5t91 185.5l73 292q8 35 8 57q0 51 -41 69v2h157v-2q-38 -15 -60 -45t-34 -81z" />
    <glyph glyph-name="Udieresis" unicode="&#xdc;" horiz-adv-x="707" 
d="M585 889q26 0 42 -16t16 -40q0 -26 -19 -44.5t-46 -18.5q-24 0 -40 15.5t-16 38.5q0 27 18.5 46t44.5 19zM405 889q26 0 42 -16t16 -40q0 -26 -19 -44.5t-46 -18.5q-24 0 -40 15.5t-16 38.5q0 27 18.5 46t44.5 19zM673 572l-74 -297q-35 -142 -105 -213.5t-189 -71.5
q-113 0 -179 57t-66 154q0 37 10 76l74 295q10 40 10 63q0 45 -38 63v2h203v-2q-37 -14 -56 -43t-33 -83l-74 -294q-10 -39 -10 -76q0 -78 45.5 -122t122.5 -44q105 0 165 58.5t91 185.5l73 292q8 35 8 57q0 51 -41 69v2h157v-2q-38 -15 -60 -45t-34 -81z" />
    <glyph glyph-name="Yacute" unicode="&#xdd;" horiz-adv-x="632" 
d="M469 915h109q-78 -91 -207 -164h-4q70 78 102 164zM720 700v-2q-35 -22 -57 -42t-58 -62l-260 -302l-43 -172q-9 -33 -9 -55q0 -44 42 -63v-2h-205v2q39 15 59 41t32 77l43 172l-112 302q-16 41 -28 62t-36 42v2h183v-2q-47 -24 -47 -62q0 -14 6 -29l105 -285l239 280
q23 28 23 50q0 28 -32 46v2h155z" />
    <glyph glyph-name="Thorn" unicode="&#xde;" horiz-adv-x="623" 
d="M188 0h-226v2q38 14 57 43.5t32 82.5l111 444q10 40 10 63q0 45 -38 63v2h203v-2q-37 -14 -56 -43t-34 -83l-4 -15h141q105 0 162.5 -40.5t57.5 -119.5q0 -121 -91 -184t-228 -63h-143l-7 -31q-8 -30 -8 -48q0 -24 14 -40t47 -29v-2zM149 176h129q103 0 167 60t64 163
q0 132 -148 132h-124z" />
    <glyph glyph-name="germandbls" unicode="&#xdf;" horiz-adv-x="578" 
d="M332 394q0 -23 16.5 -46t60.5 -60q59 -49 80.5 -77t21.5 -69q0 -67 -52.5 -109.5t-133.5 -42.5q-69 0 -117.5 33t-48.5 80q0 30 18.5 47.5t45.5 17.5q33 0 52 -19q-43 -2 -43 -58q0 -37 26 -60.5t67 -23.5q51 0 83.5 28t32.5 75q0 28 -19.5 52.5t-66.5 61.5
q-44 35 -63.5 64t-19.5 65q0 44 27.5 76t86.5 71q70 47 70 133q0 49 -26 76t-71 27q-57 0 -93.5 -46.5t-63.5 -161.5l-128 -545q-26 -110 -71.5 -162t-123.5 -56v2q45 20 71.5 87.5t56.5 197.5l94 414h-70l3 11l72 11l19 67q27 94 90 145.5t144 51.5q73 0 118.5 -34
t45.5 -89q0 -45 -31 -77.5t-88 -66.5q-37 -22 -54.5 -41.5t-17.5 -49.5z" />
    <glyph glyph-name="agrave" unicode="&#xe0;" horiz-adv-x="563" 
d="M339 749q-3 -82 37 -188h-4q-89 86 -129 188h96zM465 320l-57 -232q-11 -43 21.5 -55t75.5 12l1 -2q-53 -53 -109 -53q-34 0 -55 19t-21 57q0 22 11 57q-73 -133 -182 -133q-70 0 -110.5 47.5t-40.5 128.5q0 129 79.5 229.5t190.5 100.5q55 0 88.5 -30.5t42.5 -77.5
q34 75 116 108q-25 -74 -51 -176zM182 34q56 0 104.5 52.5t69.5 133.5l20 79q7 29 7 56q0 52 -28 79t-70 27q-57 0 -103.5 -45t-71 -112t-24.5 -138q0 -63 24.5 -97.5t71.5 -34.5z" />
    <glyph glyph-name="aacute" unicode="&#xe1;" horiz-adv-x="563" 
d="M367 749h110q-83 -101 -209 -188h-4q71 89 103 188zM465 320l-57 -232q-11 -43 21.5 -55t75.5 12l1 -2q-53 -53 -109 -53q-34 0 -55 19t-21 57q0 22 11 57q-73 -133 -182 -133q-70 0 -110.5 47.5t-40.5 128.5q0 129 79.5 229.5t190.5 100.5q55 0 88.5 -30.5t42.5 -77.5
q34 75 116 108q-25 -74 -51 -176zM182 34q56 0 104.5 52.5t69.5 133.5l20 79q7 29 7 56q0 52 -28 79t-70 27q-57 0 -103.5 -45t-71 -112t-24.5 -138q0 -63 24.5 -97.5t71.5 -34.5z" />
    <glyph glyph-name="acircumflex" unicode="&#xe2;" horiz-adv-x="563" 
d="M461 552q-63 38 -107 97q-66 -50 -169 -97h-8q129 101 198 204h4q16 -102 90 -204h-8zM465 320l-57 -232q-11 -43 21.5 -55t75.5 12l1 -2q-53 -53 -109 -53q-34 0 -55 19t-21 57q0 22 11 57q-73 -133 -182 -133q-70 0 -110.5 47.5t-40.5 128.5q0 129 79.5 229.5
t190.5 100.5q55 0 88.5 -30.5t42.5 -77.5q34 75 116 108q-25 -74 -51 -176zM182 34q56 0 104.5 52.5t69.5 133.5l20 79q7 29 7 56q0 52 -28 79t-70 27q-57 0 -103.5 -45t-71 -112t-24.5 -138q0 -63 24.5 -97.5t71.5 -34.5z" />
    <glyph glyph-name="atilde" unicode="&#xe3;" horiz-adv-x="563" 
d="M527 718q-63 -136 -138 -136q-27 0 -68 34.5t-68 34.5q-52 0 -102 -73h-10q63 136 138 136q27 0 68 -34.5t68 -34.5q52 0 102 73h10zM465 320l-57 -232q-11 -43 21.5 -55t75.5 12l1 -2q-53 -53 -109 -53q-34 0 -55 19t-21 57q0 22 11 57q-73 -133 -182 -133
q-70 0 -110.5 47.5t-40.5 128.5q0 129 79.5 229.5t190.5 100.5q55 0 88.5 -30.5t42.5 -77.5q34 75 116 108q-25 -74 -51 -176zM182 34q56 0 104.5 52.5t69.5 133.5l20 79q7 29 7 56q0 52 -28 79t-70 27q-57 0 -103.5 -45t-71 -112t-24.5 -138q0 -63 24.5 -97.5t71.5 -34.5z
" />
    <glyph glyph-name="adieresis" unicode="&#xe4;" horiz-adv-x="563" 
d="M435 699q26 0 42 -16t16 -40q0 -26 -19 -44.5t-46 -18.5q-24 0 -40 15.5t-16 38.5q0 27 18.5 46t44.5 19zM255 699q26 0 42 -16t16 -40q0 -26 -19 -44.5t-46 -18.5q-24 0 -40 15.5t-16 38.5q0 27 18.5 46t44.5 19zM465 320l-57 -232q-11 -43 21.5 -55t75.5 12l1 -2
q-53 -53 -109 -53q-34 0 -55 19t-21 57q0 22 11 57q-73 -133 -182 -133q-70 0 -110.5 47.5t-40.5 128.5q0 129 79.5 229.5t190.5 100.5q55 0 88.5 -30.5t42.5 -77.5q34 75 116 108q-25 -74 -51 -176zM182 34q56 0 104.5 52.5t69.5 133.5l20 79q7 29 7 56q0 52 -28 79t-70 27
q-57 0 -103.5 -45t-71 -112t-24.5 -138q0 -63 24.5 -97.5t71.5 -34.5z" />
    <glyph glyph-name="aring" unicode="&#xe5;" horiz-adv-x="563" 
d="M251 659q0 38 31.5 68t71.5 30q38 0 63.5 -25.5t25.5 -65.5q0 -38 -31.5 -68t-71.5 -30q-38 0 -63.5 25.5t-25.5 65.5zM418 666q0 30 -19 48.5t-47 18.5q-30 0 -53 -22.5t-23 -51.5q0 -30 19 -48.5t47 -18.5q30 0 53 22.5t23 51.5zM465 320l-57 -232q-11 -43 21.5 -55
t75.5 12l1 -2q-53 -53 -109 -53q-34 0 -55 19t-21 57q0 22 11 57q-73 -133 -182 -133q-70 0 -110.5 47.5t-40.5 128.5q0 129 79.5 229.5t190.5 100.5q55 0 88.5 -30.5t42.5 -77.5q34 75 116 108q-25 -74 -51 -176zM182 34q56 0 104.5 52.5t69.5 133.5l20 79q7 29 7 56
q0 52 -28 79t-70 27q-57 0 -103.5 -45t-71 -112t-24.5 -138q0 -63 24.5 -97.5t71.5 -34.5z" />
    <glyph glyph-name="ae" unicode="&#xe6;" horiz-adv-x="769" 
d="M500 -10q-64 0 -110 31t-66 87q-72 -118 -174 -118q-70 0 -110.5 47.5t-40.5 128.5q0 129 79.5 229.5t190.5 100.5q51 0 83.5 -26t43.5 -67q86 93 204 93q62 0 100 -30t38 -76q0 -79 -90.5 -119t-245.5 -45q-3 -24 -3 -47q0 -77 35 -114.5t97 -37.5q94 0 167 95h4
q-27 -63 -81.5 -97.5t-120.5 -34.5zM600 476q-69 0 -124.5 -71.5t-71.5 -166.5q252 19 252 173q0 29 -14.5 47t-41.5 18zM182 34q38 0 74 25.5t62 67.5q-7 25 -7 58q0 110 70 199q-9 38 -35 57.5t-61 19.5q-57 0 -103.5 -45t-71 -112t-24.5 -138q0 -63 24.5 -97.5
t71.5 -34.5z" />
    <glyph glyph-name="ccedilla" unicode="&#xe7;" horiz-adv-x="449" 
d="M135 -223q-37 0 -65 15t-40 40l10 9q26 -40 80 -40q36 0 55.5 19.5t19.5 51.5q0 26 -19 36t-60 12l56 70q-76 5 -123.5 58t-47.5 137q0 121 82.5 216t199.5 95q60 0 98 -29.5t38 -76.5q0 -37 -26.5 -62.5t-65.5 -25.5q-25 0 -43.5 12.5t-21.5 35.5q13 -10 32 -10
q29 0 44.5 17.5t15.5 46.5q0 34 -19 53t-52 19q-52 0 -97.5 -45.5t-71 -112.5t-25.5 -133q0 -158 127 -158q89 0 158 95h4q-27 -63 -77.5 -97.5t-111.5 -34.5l-43 -54q49 4 82.5 -15.5t33.5 -53.5q0 -41 -37 -65.5t-90 -24.5z" />
    <glyph glyph-name="egrave" unicode="&#xe8;" horiz-adv-x="459" 
d="M311 749q-3 -82 37 -188h-4q-89 86 -129 188h96zM190 -10q-84 0 -136.5 53.5t-52.5 141.5q0 122 84 216.5t205 94.5q62 0 100 -30t38 -76q0 -79 -90.5 -119t-245.5 -45q-3 -24 -3 -47q0 -77 35 -114.5t97 -37.5q94 0 167 95h4q-27 -63 -81.5 -97.5t-120.5 -34.5zM290 476
q-69 0 -124.5 -71.5t-71.5 -166.5q252 19 252 173q0 29 -14.5 47t-41.5 18z" />
    <glyph glyph-name="eacute" unicode="&#xe9;" horiz-adv-x="459" 
d="M339 749h110q-83 -101 -209 -188h-4q71 89 103 188zM190 -10q-84 0 -136.5 53.5t-52.5 141.5q0 122 84 216.5t205 94.5q62 0 100 -30t38 -76q0 -79 -90.5 -119t-245.5 -45q-3 -24 -3 -47q0 -77 35 -114.5t97 -37.5q94 0 167 95h4q-27 -63 -81.5 -97.5t-120.5 -34.5z
M290 476q-69 0 -124.5 -71.5t-71.5 -166.5q252 19 252 173q0 29 -14.5 47t-41.5 18z" />
    <glyph glyph-name="ecircumflex" unicode="&#xea;" horiz-adv-x="459" 
d="M433 552q-63 38 -107 97q-66 -50 -169 -97h-8q129 101 198 204h4q16 -102 90 -204h-8zM190 -10q-84 0 -136.5 53.5t-52.5 141.5q0 122 84 216.5t205 94.5q62 0 100 -30t38 -76q0 -79 -90.5 -119t-245.5 -45q-3 -24 -3 -47q0 -77 35 -114.5t97 -37.5q94 0 167 95h4
q-27 -63 -81.5 -97.5t-120.5 -34.5zM290 476q-69 0 -124.5 -71.5t-71.5 -166.5q252 19 252 173q0 29 -14.5 47t-41.5 18z" />
    <glyph glyph-name="edieresis" unicode="&#xeb;" horiz-adv-x="459" 
d="M407 699q26 0 42 -16t16 -40q0 -26 -19 -44.5t-46 -18.5q-24 0 -40 15.5t-16 38.5q0 27 18.5 46t44.5 19zM227 699q26 0 42 -16t16 -40q0 -26 -19 -44.5t-46 -18.5q-24 0 -40 15.5t-16 38.5q0 27 18.5 46t44.5 19zM190 -10q-84 0 -136.5 53.5t-52.5 141.5q0 122 84 216.5
t205 94.5q62 0 100 -30t38 -76q0 -79 -90.5 -119t-245.5 -45q-3 -24 -3 -47q0 -77 35 -114.5t97 -37.5q94 0 167 95h4q-27 -63 -81.5 -97.5t-120.5 -34.5zM290 476q-69 0 -124.5 -71.5t-71.5 -166.5q252 19 252 173q0 29 -14.5 47t-41.5 18z" />
    <glyph glyph-name="igrave" unicode="&#xec;" horiz-adv-x="263" 
d="M191 749q-3 -82 37 -188h-4q-89 86 -129 188h96zM202 486l-99 -398q-3 -10 -3 -19q0 -19 12.5 -29.5t32.5 -10.5q23 0 55 16l1 -2q-53 -53 -109 -53q-35 0 -56 19t-21 53q0 15 4 30l73 293q4 15 4 29q0 40 -47 70v2h153z" />
    <glyph glyph-name="iacute" unicode="&#xed;" horiz-adv-x="263" 
d="M219 749h110q-83 -101 -209 -188h-4q71 89 103 188zM202 486l-99 -398q-3 -10 -3 -19q0 -19 12.5 -29.5t32.5 -10.5q23 0 55 16l1 -2q-53 -53 -109 -53q-35 0 -56 19t-21 53q0 15 4 30l73 293q4 15 4 29q0 40 -47 70v2h153z" />
    <glyph glyph-name="icircumflex" unicode="&#xee;" horiz-adv-x="263" 
d="M287 552q-48 31 -91 89q-61 -46 -155 -89h-8q108 85 188 204h4q22 -137 70 -204h-8zM92 -10q-35 0 -56 19t-21 53q0 15 4 30l73 293q4 15 4 29q0 40 -47 70v2h153l-99 -398q-3 -10 -3 -19q0 -19 12.5 -29.5t32.5 -10.5q23 0 55 16l1 -2q-53 -53 -109 -53z" />
    <glyph glyph-name="idieresis" unicode="&#xef;" horiz-adv-x="263" 
d="M287 699q26 0 42 -16t16 -40q0 -26 -19 -44.5t-46 -18.5q-24 0 -40 15.5t-16 38.5q0 27 18.5 46t44.5 19zM107 699q26 0 42 -16t16 -40q0 -26 -19 -44.5t-46 -18.5q-24 0 -40 15.5t-16 38.5q0 27 18.5 46t44.5 19zM202 486l-99 -398q-3 -10 -3 -19q0 -19 12.5 -29.5
t32.5 -10.5q23 0 55 16l1 -2q-53 -53 -109 -53q-35 0 -56 19t-21 53q0 15 4 30l73 293q4 15 4 29q0 40 -47 70v2h153z" />
    <glyph glyph-name="eth" unicode="&#xf0;" horiz-adv-x="520" 
d="M193 -10q-84 0 -138 52t-54 143q0 124 79.5 217.5t192.5 93.5q58 0 100 -33q-23 103 -73 169l-131 -60l-11 21l126 58q-70 78 -187 100l2 8q137 -13 229 -87l96 44l11 -21l-87 -40q117 -113 117 -300q0 -161 -78 -263t-194 -102zM193 10q52 0 95.5 53t66.5 132
q19 65 19 122q0 159 -101 159q-52 0 -95.5 -53t-66.5 -132q-19 -65 -19 -122q0 -159 101 -159z" />
    <glyph glyph-name="ntilde" unicode="&#xf1;" horiz-adv-x="563" 
d="M539 718q-63 -136 -138 -136q-27 0 -68 34.5t-68 34.5q-52 0 -102 -73h-10q63 136 138 136q27 0 68 -34.5t68 -34.5q52 0 102 73h10zM139 213l-53 -213h-85l96 385q4 15 4 29q0 41 -47 70v2h153l-40 -161q37 76 93.5 123.5t119.5 47.5q49 0 74.5 -30t25.5 -78
q0 -27 -7 -52l-62 -248q-3 -10 -3 -19q0 -19 12.5 -29.5t32.5 -10.5q23 0 55 16l1 -2q-53 -53 -109 -53q-35 0 -56 19t-21 53q0 15 4 30l59 236q8 34 8 57q0 57 -57 57q-56 0 -113 -57t-85 -172z" />
    <glyph glyph-name="ograve" unicode="&#xf2;" horiz-adv-x="520" 
d="M329 749q-3 -82 37 -188h-4q-89 86 -129 188h96zM1 185q0 124 79.5 217.5t192.5 93.5q84 0 138 -52t54 -143q0 -124 -79.5 -217.5t-192.5 -93.5q-84 0 -137.5 52t-54.5 143zM193 10q52 0 95.5 53t66.5 132q19 65 19 122q0 159 -101 159q-52 0 -95.5 -53t-66.5 -132
q-19 -65 -19 -122q0 -159 101 -159z" />
    <glyph glyph-name="oacute" unicode="&#xf3;" horiz-adv-x="520" 
d="M357 749h110q-83 -101 -209 -188h-4q71 89 103 188zM1 185q0 124 79.5 217.5t192.5 93.5q84 0 138 -52t54 -143q0 -124 -79.5 -217.5t-192.5 -93.5q-84 0 -137.5 52t-54.5 143zM193 10q52 0 95.5 53t66.5 132q19 65 19 122q0 159 -101 159q-52 0 -95.5 -53t-66.5 -132
q-19 -65 -19 -122q0 -159 101 -159z" />
    <glyph glyph-name="ocircumflex" unicode="&#xf4;" horiz-adv-x="520" 
d="M451 552q-63 38 -107 97q-66 -50 -169 -97h-8q129 101 198 204h4q16 -102 90 -204h-8zM1 185q0 124 79.5 217.5t192.5 93.5q84 0 138 -52t54 -143q0 -124 -79.5 -217.5t-192.5 -93.5q-84 0 -137.5 52t-54.5 143zM193 10q52 0 95.5 53t66.5 132q19 65 19 122
q0 159 -101 159q-52 0 -95.5 -53t-66.5 -132q-19 -65 -19 -122q0 -159 101 -159z" />
    <glyph glyph-name="otilde" unicode="&#xf5;" horiz-adv-x="520" 
d="M517 718q-63 -136 -138 -136q-27 0 -68 34.5t-68 34.5q-52 0 -102 -73h-10q63 136 138 136q27 0 68 -34.5t68 -34.5q52 0 102 73h10zM1 185q0 124 79.5 217.5t192.5 93.5q84 0 138 -52t54 -143q0 -124 -79.5 -217.5t-192.5 -93.5q-84 0 -137.5 52t-54.5 143zM193 10
q52 0 95.5 53t66.5 132q19 65 19 122q0 159 -101 159q-52 0 -95.5 -53t-66.5 -132q-19 -65 -19 -122q0 -159 101 -159z" />
    <glyph glyph-name="odieresis" unicode="&#xf6;" horiz-adv-x="520" 
d="M425 699q26 0 42 -16t16 -40q0 -26 -19 -44.5t-46 -18.5q-24 0 -40 15.5t-16 38.5q0 27 18.5 46t44.5 19zM245 699q26 0 42 -16t16 -40q0 -26 -19 -44.5t-46 -18.5q-24 0 -40 15.5t-16 38.5q0 27 18.5 46t44.5 19zM1 185q0 124 79.5 217.5t192.5 93.5q84 0 138 -52
t54 -143q0 -124 -79.5 -217.5t-192.5 -93.5q-84 0 -137.5 52t-54.5 143zM193 10q52 0 95.5 53t66.5 132q19 65 19 122q0 159 -101 159q-52 0 -95.5 -53t-66.5 -132q-19 -65 -19 -122q0 -159 101 -159z" />
    <glyph glyph-name="divide" unicode="&#xf7;" horiz-adv-x="479" 
d="M273 454q-13 0 -22.5 9.5t-9.5 23.5q0 13 9.5 22.5t22.5 9.5q14 0 23.5 -9.5t9.5 -22.5t-10 -23t-23 -10zM425 309h-391l6 26h391zM192 125q-13 0 -22.5 9.5t-9.5 22.5q0 14 9 23.5t23 9.5t23.5 -9.5t9.5 -23.5q0 -13 -10 -22.5t-23 -9.5z" />
    <glyph glyph-name="oslash" unicode="&#xf8;" horiz-adv-x="527" 
d="M96 169q0 -25 3 -47l275 252q-16 102 -97 102q-52 0 -95.5 -53t-66.5 -132q-19 -65 -19 -122zM197 10q52 0 95.5 53t66.5 132q19 65 19 122q0 20 -1 30l-274 -251q21 -86 94 -86zM197 -10q-91 0 -145 59l-81 -74l-17 14l85 78q-33 46 -34 118q0 124 79.5 217.5
t192.5 93.5q102 0 154 -70l79 72l17 -14l-83 -76q25 -45 25 -107q0 -124 -79.5 -217.5t-192.5 -93.5z" />
    <glyph glyph-name="ugrave" unicode="&#xf9;" horiz-adv-x="561" 
d="M335 749q-3 -82 37 -188h-4q-89 86 -129 188h96zM499 43q-53 -53 -109 -53q-35 0 -56 19t-21 53q0 22 21 99q-84 -171 -201 -171q-50 0 -79 32t-29 82q0 22 6 46l59 235q4 15 4 29q0 41 -47 70v2h153l-84 -337q-6 -23 -6 -43q0 -62 61 -62q53 0 108 57.5t83 171.5l53 213
h85l-99 -398q-3 -10 -3 -19q0 -19 12.5 -29.5t32.5 -10.5q23 0 55 16z" />
    <glyph glyph-name="uacute" unicode="&#xfa;" horiz-adv-x="561" 
d="M363 749h110q-83 -101 -209 -188h-4q71 89 103 188zM499 43q-53 -53 -109 -53q-35 0 -56 19t-21 53q0 22 21 99q-84 -171 -201 -171q-50 0 -79 32t-29 82q0 22 6 46l59 235q4 15 4 29q0 41 -47 70v2h153l-84 -337q-6 -23 -6 -43q0 -62 61 -62q53 0 108 57.5t83 171.5
l53 213h85l-99 -398q-3 -10 -3 -19q0 -19 12.5 -29.5t32.5 -10.5q23 0 55 16z" />
    <glyph glyph-name="ucircumflex" unicode="&#xfb;" horiz-adv-x="561" 
d="M457 552q-63 38 -107 97q-66 -50 -169 -97h-8q129 101 198 204h4q16 -102 90 -204h-8zM499 43q-53 -53 -109 -53q-35 0 -56 19t-21 53q0 22 21 99q-84 -171 -201 -171q-50 0 -79 32t-29 82q0 22 6 46l59 235q4 15 4 29q0 41 -47 70v2h153l-84 -337q-6 -23 -6 -43
q0 -62 61 -62q53 0 108 57.5t83 171.5l53 213h85l-99 -398q-3 -10 -3 -19q0 -19 12.5 -29.5t32.5 -10.5q23 0 55 16z" />
    <glyph glyph-name="udieresis" unicode="&#xfc;" horiz-adv-x="561" 
d="M431 699q26 0 42 -16t16 -40q0 -26 -19 -44.5t-46 -18.5q-24 0 -40 15.5t-16 38.5q0 27 18.5 46t44.5 19zM251 699q26 0 42 -16t16 -40q0 -26 -19 -44.5t-46 -18.5q-24 0 -40 15.5t-16 38.5q0 27 18.5 46t44.5 19zM499 43q-53 -53 -109 -53q-35 0 -56 19t-21 53
q0 22 21 99q-84 -171 -201 -171q-50 0 -79 32t-29 82q0 22 6 46l59 235q4 15 4 29q0 41 -47 70v2h153l-84 -337q-6 -23 -6 -43q0 -62 61 -62q53 0 108 57.5t83 171.5l53 213h85l-99 -398q-3 -10 -3 -19q0 -19 12.5 -29.5t32.5 -10.5q23 0 55 16z" />
    <glyph glyph-name="yacute" unicode="&#xfd;" horiz-adv-x="540" 
d="M369 749h110q-83 -101 -209 -188h-4q71 89 103 188zM505 486l-105 -420q-41 -163 -107.5 -232t-179.5 -69q-70 0 -119.5 32.5t-49.5 83.5q0 33 21.5 53t52.5 20q27 0 49 -17q-46 -6 -46 -66q0 -40 24.5 -64t67.5 -24q78 0 120.5 61.5t74.5 191.5l31 125
q-92 -171 -206 -171q-50 0 -79 32t-29 82q0 22 6 46l59 235q4 15 4 29q0 41 -47 70v2h153l-84 -337q-6 -23 -6 -43q0 -62 57 -62t114.5 57t85.5 172l53 213h85z" />
    <glyph glyph-name="thorn" unicode="&#xfe;" horiz-adv-x="565" 
d="M426 316q0 62 -24 99t-72 37q-60 0 -111.5 -51t-70.5 -132l-20 -80q-7 -28 -7 -54q0 -54 29.5 -82t75.5 -28q86 0 143 88t57 203zM107 104l-82 -329h-84l217 873q4 15 4 29q0 41 -47 70v2h152l-97 -390q33 59 82.5 98t109.5 39q72 0 111.5 -48.5t39.5 -133.5
q0 -128 -77 -226t-190 -98q-56 0 -93.5 33.5t-45.5 80.5z" />
    <glyph glyph-name="ydieresis" unicode="&#xff;" horiz-adv-x="540" 
d="M437 699q26 0 42 -16t16 -40q0 -26 -19 -44.5t-46 -18.5q-24 0 -40 15.5t-16 38.5q0 27 18.5 46t44.5 19zM257 699q26 0 42 -16t16 -40q0 -26 -19 -44.5t-46 -18.5q-24 0 -40 15.5t-16 38.5q0 27 18.5 46t44.5 19zM505 486l-105 -420q-41 -163 -107.5 -232t-179.5 -69
q-70 0 -119.5 32.5t-49.5 83.5q0 33 21.5 53t52.5 20q27 0 49 -17q-46 -6 -46 -66q0 -40 24.5 -64t67.5 -24q78 0 120.5 61.5t74.5 191.5l31 125q-92 -171 -206 -171q-50 0 -79 32t-29 82q0 22 6 46l59 235q4 15 4 29q0 41 -47 70v2h153l-84 -337q-6 -23 -6 -43
q0 -62 57 -62t114.5 57t85.5 172l53 213h85z" />
    <glyph glyph-name="Amacron" unicode="&#x100;" horiz-adv-x="700" 
d="M592 780h-276l8 35h276zM444 260l-56 322l-229 -322h285zM67 2v-2h-154v2q36 23 54 42.5t53 69.5l423 596h5l112 -596q9 -49 18 -69.5t35 -42.5v-2h-208v2q40 18 54.5 33t14.5 39q0 12 -3 28l-23 132h-307l-72 -101q-34 -49 -34 -81t32 -50z" />
    <glyph glyph-name="amacron" unicode="&#x101;" horiz-adv-x="563" 
d="M470 600h-276l8 35h276zM465 320l-57 -232q-11 -43 21.5 -55t75.5 12l1 -2q-53 -53 -109 -53q-34 0 -55 19t-21 57q0 22 11 57q-73 -133 -182 -133q-70 0 -110.5 47.5t-40.5 128.5q0 129 79.5 229.5t190.5 100.5q55 0 88.5 -30.5t42.5 -77.5q34 75 116 108
q-25 -74 -51 -176zM182 34q56 0 104.5 52.5t69.5 133.5l20 79q7 29 7 56q0 52 -28 79t-70 27q-57 0 -103.5 -45t-71 -112t-24.5 -138q0 -63 24.5 -97.5t71.5 -34.5z" />
    <glyph glyph-name="Abreve" unicode="&#x102;" horiz-adv-x="700" 
d="M619 919q-17 -77 -63.5 -119t-109.5 -42q-61 0 -88.5 41.5t-12.5 119.5h8q-6 -44 26.5 -67.5t80.5 -23.5t92.5 24t58.5 67h8zM444 260l-56 322l-229 -322h285zM67 2v-2h-154v2q36 23 54 42.5t53 69.5l423 596h5l112 -596q9 -49 18 -69.5t35 -42.5v-2h-208v2
q40 18 54.5 33t14.5 39q0 12 -3 28l-23 132h-307l-72 -101q-34 -49 -34 -81t32 -50z" />
    <glyph glyph-name="abreve" unicode="&#x103;" horiz-adv-x="563" 
d="M498 742q-17 -79 -64.5 -126.5t-108.5 -47.5q-60 0 -88.5 47.5t-12.5 126.5h8q-6 -52 26 -78t81 -26t92.5 26t58.5 78h8zM465 320l-57 -232q-11 -43 21.5 -55t75.5 12l1 -2q-53 -53 -109 -53q-34 0 -55 19t-21 57q0 22 11 57q-73 -133 -182 -133q-70 0 -110.5 47.5
t-40.5 128.5q0 129 79.5 229.5t190.5 100.5q55 0 88.5 -30.5t42.5 -77.5q34 75 116 108q-25 -74 -51 -176zM182 34q56 0 104.5 52.5t69.5 133.5l20 79q7 29 7 56q0 52 -28 79t-70 27q-57 0 -103.5 -45t-71 -112t-24.5 -138q0 -63 24.5 -97.5t71.5 -34.5z" />
    <glyph glyph-name="Aogonek" unicode="&#x104;" horiz-adv-x="700" 
d="M474 -139q-63 -98 -154 -98q-33 0 -55 19t-22 50q0 90 194 186q37 18 37 54q0 14 -3 30l-22 132h-308l-72 -101q-34 -49 -34 -81t32 -50v-2h-154v2q36 23 54 42.5t53 69.5l423 596h5l112 -596q9 -49 18 -69.5t35 -42.5v-2h-189q-112 -76 -112 -148q0 -46 51 -46
q59 0 108 57zM388 582l-229 -322h285z" />
    <glyph glyph-name="aogonek" unicode="&#x105;" horiz-adv-x="563" 
d="M347 -237q-33 0 -55 19t-22 50q0 80 139 158h-12q-34 0 -55 19t-21 57q0 22 11 57q-73 -133 -182 -133q-70 0 -110.5 47.5t-40.5 128.5q0 129 79.5 229.5t190.5 100.5q55 0 88.5 -30.5t42.5 -77.5q34 75 116 108q-25 -74 -51 -176l-57 -232q-11 -43 21.5 -55t75.5 12
l1 -2q-15 -15 -58 -43q-109 -71 -109 -148q0 -46 51 -46q58 0 108 57l3 -2q-63 -98 -154 -98zM182 34q56 0 104.5 52.5t69.5 133.5l20 79q7 29 7 55q1 52 -27.5 79.5t-70.5 27.5q-57 0 -103.5 -45t-71 -112t-24.5 -138q0 -63 24.5 -97.5t71.5 -34.5z" />
    <glyph glyph-name="Cacute" unicode="&#x106;" horiz-adv-x="645" 
d="M500 915h109q-78 -91 -207 -164h-4q70 78 102 164zM428 687q-84 0 -153.5 -55.5t-107.5 -148t-38 -200.5q0 -112 56.5 -179.5t149.5 -67.5q84 0 146.5 37.5t116.5 122.5h6q-42 -96 -118 -151t-178 -55q-125 0 -200.5 79.5t-75.5 203.5q0 184 117.5 310.5t277.5 126.5
q57 0 113 -21t69 -21q25 0 58 30l-36 -211h-2q-51 200 -201 200z" />
    <glyph glyph-name="cacute" unicode="&#x107;" horiz-adv-x="449" 
d="M358 749h110q-83 -101 -209 -188h-4q71 89 103 188zM283 496q60 0 98 -29.5t38 -76.5q0 -37 -26.5 -62.5t-65.5 -25.5q-25 0 -43.5 12.5t-21.5 35.5q13 -10 32 -10q29 0 44.5 17.5t15.5 46.5q0 34 -19 53t-52 19q-52 0 -97.5 -45.5t-71 -112.5t-25.5 -133
q0 -158 127 -158q89 0 158 95h4q-27 -63 -78 -97.5t-114 -34.5q-81 0 -133 53.5t-52 141.5q0 121 82.5 216t199.5 95z" />
    <glyph glyph-name="Ccircumflex" unicode="&#x108;" horiz-adv-x="645" 
d="M581 743q-72 40 -108 84q-49 -34 -168 -84h-8q130 95 198 187h4q16 -93 90 -187h-8zM428 687q-84 0 -153.5 -55.5t-107.5 -148t-38 -200.5q0 -112 56.5 -179.5t149.5 -67.5q84 0 146.5 37.5t116.5 122.5h6q-42 -96 -118 -151t-178 -55q-125 0 -200.5 79.5t-75.5 203.5
q0 184 117.5 310.5t277.5 126.5q57 0 113 -21t69 -21q25 0 58 30l-36 -211h-2q-51 200 -201 200z" />
    <glyph glyph-name="ccircumflex" unicode="&#x109;" horiz-adv-x="449" 
d="M451 552q-63 38 -107 97q-66 -50 -169 -97h-8q129 101 198 204h4q16 -102 90 -204h-8zM283 496q60 0 98 -29.5t38 -76.5q0 -37 -26.5 -62.5t-65.5 -25.5q-25 0 -43.5 12.5t-21.5 35.5q13 -10 32 -10q29 0 44.5 17.5t15.5 46.5q0 34 -19 53t-52 19q-52 0 -97.5 -45.5
t-71 -112.5t-25.5 -133q0 -158 127 -158q89 0 158 95h4q-27 -63 -78 -97.5t-114 -34.5q-81 0 -133 53.5t-52 141.5q0 121 82.5 216t199.5 95z" />
    <glyph glyph-name="Cdotaccent" unicode="&#x10a;" horiz-adv-x="645" 
d="M473 892q26 0 42 -16t16 -40q0 -27 -18.5 -46t-46.5 -19q-26 0 -42 16t-16 40q0 27 18.5 46t46.5 19zM428 687q-84 0 -153.5 -55.5t-107.5 -148t-38 -200.5q0 -112 56.5 -179.5t149.5 -67.5q84 0 146.5 37.5t116.5 122.5h6q-42 -96 -118 -151t-178 -55
q-125 0 -200.5 79.5t-75.5 203.5q0 184 117.5 310.5t277.5 126.5q57 0 113 -21t69 -21q25 0 58 30l-36 -211h-2q-51 200 -201 200z" />
    <glyph glyph-name="cdotaccent" unicode="&#x10b;" horiz-adv-x="449" 
d="M340 716q26 0 42 -16t16 -40q0 -27 -18.5 -46t-46.5 -19q-26 0 -42 16t-16 40q0 27 18.5 46t46.5 19zM283 496q60 0 98 -29.5t38 -76.5q0 -37 -26.5 -62.5t-65.5 -25.5q-25 0 -43.5 12.5t-21.5 35.5q13 -10 32 -10q29 0 44.5 17.5t15.5 46.5q0 34 -19 53t-52 19
q-52 0 -97.5 -45.5t-71 -112.5t-25.5 -133q0 -158 127 -158q89 0 158 95h4q-27 -63 -78 -97.5t-114 -34.5q-81 0 -133 53.5t-52 141.5q0 121 82.5 216t199.5 95z" />
    <glyph glyph-name="Ccaron" unicode="&#x10c;" horiz-adv-x="645" 
d="M359 930q72 -40 108 -84q49 34 168 84h8q-130 -95 -198 -187h-4q-16 93 -90 187h8zM428 687q-84 0 -153.5 -55.5t-107.5 -148t-38 -200.5q0 -112 56.5 -179.5t149.5 -67.5q84 0 146.5 37.5t116.5 122.5h6q-42 -96 -118 -151t-178 -55q-125 0 -200.5 79.5t-75.5 203.5
q0 184 117.5 310.5t277.5 126.5q57 0 113 -21t69 -21q25 0 58 30l-36 -211h-2q-51 200 -201 200z" />
    <glyph glyph-name="ccaron" unicode="&#x10d;" horiz-adv-x="449" 
d="M222 757q63 -38 107 -97q66 50 169 97h8q-129 -101 -198 -204h-4q-16 102 -90 204h8zM283 496q60 0 98 -29.5t38 -76.5q0 -37 -26.5 -62.5t-65.5 -25.5q-25 0 -43.5 12.5t-21.5 35.5q13 -10 32 -10q29 0 44.5 17.5t15.5 46.5q0 34 -19 53t-52 19q-52 0 -97.5 -45.5
t-71 -112.5t-25.5 -133q0 -158 127 -158q89 0 158 95h4q-27 -63 -78 -97.5t-114 -34.5q-81 0 -133 53.5t-52 141.5q0 121 82.5 216t199.5 95z" />
    <glyph glyph-name="Dcaron" unicode="&#x10e;" horiz-adv-x="731" 
d="M342 930q72 -40 108 -84q49 34 168 84h8q-130 -95 -198 -187h-4q-16 93 -90 187h8zM-38 0v2q37 14 56 43t33 83l111 444q10 40 10 63q0 45 -38 63v2h253q146 0 229.5 -74.5t83.5 -195.5q0 -195 -125.5 -312.5t-327.5 -117.5h-285zM111 26h136q110 0 192 56.5t122.5 147.5
t40.5 200q0 111 -55.5 177.5t-167.5 66.5h-106z" />
    <glyph glyph-name="dcaron" unicode="&#x10f;" horiz-adv-x="572" 
d="M750 749q-20 -47 -64.5 -108.5t-82.5 -96.5h-3q46 93 62 205h88zM156 -10q-73 0 -115.5 47.5t-42.5 128.5q0 130 79.5 230t192.5 100q56 0 92 -33t44 -81l63 266q4 17 4 33q0 24 -12.5 37.5t-41.5 28.5v2h160l-161 -661q-3 -10 -3 -19q0 -19 12.5 -29.5t32.5 -10.5
q23 0 55 16l1 -2q-53 -53 -109 -53q-35 0 -56 19t-21 53q0 20 12 63q-74 -135 -186 -135zM189 34q59 0 106.5 50.5t68.5 131.5l21 81q7 27 7 52q0 54 -31 83t-75 29q-86 0 -143.5 -91t-57.5 -204q0 -132 104 -132z" />
    <glyph glyph-name="Dcroat" unicode="&#x110;" horiz-adv-x="731" 
d="M247 0h-285v2q37 14 56 43t33 83l54 215h-57l6 26h57l51 203q10 40 10 63q0 45 -38 63v2h253q146 0 229.5 -74.5t83.5 -195.5q0 -195 -125.5 -312.5t-327.5 -117.5zM111 26h136q110 0 192 56.5t122.5 147.5t40.5 200q0 111 -55.5 177.5t-167.5 66.5h-106l-76 -305h154
l-6 -26h-155z" />
    <glyph glyph-name="dcroat" unicode="&#x111;" horiz-adv-x="572" 
d="M407 -10q-35 0 -56 19t-21 53q0 20 12 63q-74 -135 -186 -135q-73 0 -115.5 47.5t-42.5 128.5q0 130 79.5 230t192.5 100q56 0 92 -33t44 -81l45 191h-129l6 26h129l12 49q4 17 4 33q0 24 -12.5 37.5t-41.5 28.5v2h160l-37 -150h63l-6 -26h-63l-118 -485q-3 -10 -3 -19
q0 -19 12.5 -29.5t32.5 -10.5q23 0 55 16l1 -2q-53 -53 -109 -53zM85 166q0 -132 104 -132q59 0 106.5 50.5t68.5 131.5l21 81q7 27 7 52q0 54 -31 83t-75 29q-86 0 -143.5 -91t-57.5 -204z" />
    <glyph glyph-name="Emacron" unicode="&#x112;" horiz-adv-x="642" 
d="M552 780h-276l8 35h276zM134 700h443q41 0 56 7l-7 -173h-2q-22 75 -60 107.5t-118 32.5h-174l-76 -306h137q61 0 93.5 21t74.5 90h2l-58 -233h-2q-8 65 -29.5 80.5t-86.5 15.5h-137l-79 -316h184q87 0 144 39.5t124 128.5h2l-76 -194h-527v2q37 14 56 43t33 83l111 444
q9 36 9 63q0 45 -37 63v2z" />
    <glyph glyph-name="emacron" unicode="&#x113;" horiz-adv-x="459" 
d="M442 600h-276l8 35h276zM190 -10q-84 0 -136.5 53.5t-52.5 141.5q0 122 84 216.5t205 94.5q62 0 100 -30t38 -76q0 -79 -90.5 -119t-245.5 -45q-3 -24 -3 -47q0 -77 35 -114.5t97 -37.5q94 0 167 95h4q-27 -63 -81.5 -97.5t-120.5 -34.5zM290 476q-69 0 -124.5 -71.5
t-71.5 -166.5q252 19 252 173q0 29 -14.5 47t-41.5 18z" />
    <glyph glyph-name="Ebreve" unicode="&#x114;" horiz-adv-x="642" 
d="M579 919q-17 -77 -63.5 -119t-109.5 -42q-61 0 -88.5 41.5t-12.5 119.5h8q-6 -44 26.5 -67.5t80.5 -23.5t92.5 24t58.5 67h8zM134 700h443q41 0 56 7l-7 -173h-2q-22 75 -60 107.5t-118 32.5h-174l-76 -306h137q61 0 93.5 21t74.5 90h2l-58 -233h-2q-8 65 -29.5 80.5
t-86.5 15.5h-137l-79 -316h184q87 0 144 39.5t124 128.5h2l-76 -194h-527v2q37 14 56 43t33 83l111 444q9 36 9 63q0 45 -37 63v2z" />
    <glyph glyph-name="ebreve" unicode="&#x115;" horiz-adv-x="459" 
d="M470 742q-17 -79 -64.5 -126.5t-108.5 -47.5q-60 0 -88.5 47.5t-12.5 126.5h8q-6 -52 26 -78t81 -26t92.5 26t58.5 78h8zM190 -10q-84 0 -136.5 53.5t-52.5 141.5q0 122 84 216.5t205 94.5q62 0 100 -30t38 -76q0 -79 -90.5 -119t-245.5 -45q-3 -24 -3 -47
q0 -77 35 -114.5t97 -37.5q94 0 167 95h4q-27 -63 -81.5 -97.5t-120.5 -34.5zM290 476q-69 0 -124.5 -71.5t-71.5 -166.5q252 19 252 173q0 29 -14.5 47t-41.5 18z" />
    <glyph glyph-name="Edotaccent" unicode="&#x116;" horiz-adv-x="642" 
d="M432 892q26 0 42 -16t16 -40q0 -27 -18.5 -46t-46.5 -19q-26 0 -42 16t-16 40q0 27 18.5 46t46.5 19zM134 700h443q41 0 56 7l-7 -173h-2q-22 75 -60 107.5t-118 32.5h-174l-76 -306h137q61 0 93.5 21t74.5 90h2l-58 -233h-2q-8 65 -29.5 80.5t-86.5 15.5h-137l-79 -316
h184q87 0 144 39.5t124 128.5h2l-76 -194h-527v2q37 14 56 43t33 83l111 444q9 36 9 63q0 45 -37 63v2z" />
    <glyph glyph-name="edotaccent" unicode="&#x117;" horiz-adv-x="459" 
d="M322 716q26 0 42 -16t16 -40q0 -27 -18.5 -46t-46.5 -19q-26 0 -42 16t-16 40q0 27 18.5 46t46.5 19zM190 -10q-84 0 -136.5 53.5t-52.5 141.5q0 122 84 216.5t205 94.5q62 0 100 -30t38 -76q0 -79 -90.5 -119t-245.5 -45q-3 -24 -3 -47q0 -77 35 -114.5t97 -37.5
q94 0 167 95h4q-27 -63 -81.5 -97.5t-120.5 -34.5zM290 476q-69 0 -124.5 -71.5t-71.5 -166.5q252 19 252 173q0 29 -14.5 47t-41.5 18z" />
    <glyph glyph-name="Eogonek" unicode="&#x118;" horiz-adv-x="642" 
d="M438 -139q-63 -98 -154 -98q-33 0 -55 19t-22 50q0 85 157 168h-402v2q37 14 56 43t33 83l111 444q9 36 9 63q0 45 -37 63v2h443q41 0 56 7l-7 -173h-2q-22 75 -60 107.5t-118 32.5h-174l-76 -306h137q61 0 93.5 21t74.5 90h2l-58 -233h-2q-8 65 -29.5 80.5t-86.5 15.5
h-137l-79 -316h184q87 0 144 39.5t124 128.5h2l-76 -194h-102q-111 -76 -111 -148q0 -46 51 -46q59 0 108 57z" />
    <glyph glyph-name="eogonek" unicode="&#x119;" horiz-adv-x="459" 
d="M165 -237q-33 0 -55 19t-22 50q0 81 147 162q-20 -4 -45 -4q-84 0 -136.5 53.5t-52.5 141.5q0 122 84 216.5t205 94.5q62 0 100 -30t38 -76q0 -79 -90.5 -119t-245.5 -45q-3 -24 -3 -47q0 -77 35 -114.5t97 -37.5q94 0 167 95h4q-31 -72 -108 -114q-127 -69 -127 -156
q0 -46 51 -46q58 0 108 57l3 -2q-63 -98 -154 -98zM94 238q252 17 252 173q0 29 -14.5 47t-41.5 18q-69 0 -124.5 -71.5t-71.5 -166.5z" />
    <glyph glyph-name="Ecaron" unicode="&#x11a;" horiz-adv-x="642" 
d="M317 930q72 -40 108 -84q49 34 168 84h8q-130 -95 -198 -187h-4q-16 93 -90 187h8zM134 700h443q41 0 56 7l-7 -173h-2q-22 75 -60 107.5t-118 32.5h-174l-76 -306h137q61 0 93.5 21t74.5 90h2l-58 -233h-2q-8 65 -29.5 80.5t-86.5 15.5h-137l-79 -316h184q87 0 144 39.5
t124 128.5h2l-76 -194h-527v2q37 14 56 43t33 83l111 444q9 36 9 63q0 45 -37 63v2z" />
    <glyph glyph-name="ecaron" unicode="&#x11b;" horiz-adv-x="459" 
d="M204 757q63 -38 107 -97q66 50 169 97h8q-129 -101 -198 -204h-4q-16 102 -90 204h8zM190 -10q-84 0 -136.5 53.5t-52.5 141.5q0 122 84 216.5t205 94.5q62 0 100 -30t38 -76q0 -79 -90.5 -119t-245.5 -45q-3 -24 -3 -47q0 -77 35 -114.5t97 -37.5q94 0 167 95h4
q-27 -63 -81.5 -97.5t-120.5 -34.5zM290 476q-69 0 -124.5 -71.5t-71.5 -166.5q252 19 252 173q0 29 -14.5 47t-41.5 18z" />
    <glyph glyph-name="Gcircumflex" unicode="&#x11c;" horiz-adv-x="724" 
d="M602 743q-72 40 -108 84q-49 -34 -168 -84h-8q130 95 198 187h4q16 -93 90 -187h-8zM525 175l7 26q11 38 11 62q0 45 -39 64v2h203v-2q-37 -14 -56 -43t-33 -83l-57 -211h-2l-44 110q-77 -110 -211 -110q-124 0 -198 79.5t-74 204.5q0 91 35 173t92 139t131 90.5
t150 33.5q57 0 112.5 -21t68.5 -21q25 0 58 30l-36 -211h-2q-51 200 -202 200q-85 0 -157 -57t-112.5 -151.5t-40.5 -203.5q0 -111 49.5 -179.5t137.5 -68.5q78 0 133.5 38t75.5 110z" />
    <glyph glyph-name="gcircumflex" unicode="&#x11d;" horiz-adv-x="533" 
d="M482 552q-63 38 -107 97q-66 -50 -169 -97h-8q129 101 198 204h4q16 -102 90 -204h-8zM344 390q0 88 -68 88q-51 0 -83.5 -40.5t-44.5 -100.5q-5 -32 -5 -57q0 -88 68 -88q51 0 83.5 40.5t44.5 100.5q5 32 5 57zM428 -33q0 -92 -85.5 -145t-201.5 -53q-93 0 -161.5 34.5
t-68.5 95.5q0 49 48.5 78t121.5 29q-37 6 -60.5 30.5t-23.5 59.5q0 43 33 71.5t79 38.5q-54 38 -54 103q0 80 61.5 133.5t159.5 53.5q80 0 125 -53q57 63 102 63q61 0 61 -55q0 -34 -24 -51t-56 -17v2q18 12 18 36q0 32 -39 32q-26 0 -55 -18q24 -35 24 -74
q0 -80 -61.5 -133.5t-159.5 -53.5q-50 0 -90 24q-25 -7 -42 -24.5t-17 -42.5q0 -23 16 -37.5t46 -15.5l158 -4q66 -2 106 -29t40 -78zM235 -3l-94 3q-68 0 -109.5 -26t-41.5 -79q0 -50 41 -78.5t109 -28.5q91 0 149 36.5t58 101.5q0 39 -26 54t-86 17z" />
    <glyph glyph-name="Gbreve" unicode="&#x11e;" horiz-adv-x="724" 
d="M642 919q-17 -77 -63.5 -119t-109.5 -42q-61 0 -88.5 41.5t-12.5 119.5h8q-6 -44 26.5 -67.5t80.5 -23.5t92.5 24t58.5 67h8zM525 175l7 26q11 38 11 62q0 45 -39 64v2h203v-2q-37 -14 -56 -43t-33 -83l-57 -211h-2l-44 110q-77 -110 -211 -110q-124 0 -198 79.5
t-74 204.5q0 91 35 173t92 139t131 90.5t150 33.5q57 0 112.5 -21t68.5 -21q25 0 58 30l-36 -211h-2q-51 200 -202 200q-85 0 -157 -57t-112.5 -151.5t-40.5 -203.5q0 -111 49.5 -179.5t137.5 -68.5q78 0 133.5 38t75.5 110z" />
    <glyph glyph-name="gbreve" unicode="&#x11f;" horiz-adv-x="533" 
d="M519 742q-17 -79 -64.5 -126.5t-108.5 -47.5q-60 0 -88.5 47.5t-12.5 126.5h8q-6 -52 26 -78t81 -26t92.5 26t58.5 78h8zM344 390q0 88 -68 88q-51 0 -83.5 -40.5t-44.5 -100.5q-5 -32 -5 -57q0 -88 68 -88q51 0 83.5 40.5t44.5 100.5q5 32 5 57zM428 -33
q0 -92 -85.5 -145t-201.5 -53q-93 0 -161.5 34.5t-68.5 95.5q0 49 48.5 78t121.5 29q-37 6 -60.5 30.5t-23.5 59.5q0 43 33 71.5t79 38.5q-54 38 -54 103q0 80 61.5 133.5t159.5 53.5q80 0 125 -53q57 63 102 63q61 0 61 -55q0 -34 -24 -51t-56 -17v2q18 12 18 36
q0 32 -39 32q-26 0 -55 -18q24 -35 24 -74q0 -80 -61.5 -133.5t-159.5 -53.5q-50 0 -90 24q-25 -7 -42 -24.5t-17 -42.5q0 -23 16 -37.5t46 -15.5l158 -4q66 -2 106 -29t40 -78zM235 -3l-94 3q-68 0 -109.5 -26t-41.5 -79q0 -50 41 -78.5t109 -28.5q91 0 149 36.5t58 101.5
q0 39 -26 54t-86 17z" />
    <glyph glyph-name="Gdotaccent" unicode="&#x120;" horiz-adv-x="724" 
d="M494 892q26 0 42 -16t16 -40q0 -27 -18.5 -46t-46.5 -19q-26 0 -42 16t-16 40q0 27 18.5 46t46.5 19zM525 175l7 26q11 38 11 62q0 45 -39 64v2h203v-2q-37 -14 -56 -43t-33 -83l-57 -211h-2l-44 110q-77 -110 -211 -110q-124 0 -198 79.5t-74 204.5q0 91 35 173t92 139
t131 90.5t150 33.5q57 0 112.5 -21t68.5 -21q25 0 58 30l-36 -211h-2q-51 200 -202 200q-85 0 -157 -57t-112.5 -151.5t-40.5 -203.5q0 -111 49.5 -179.5t137.5 -68.5q78 0 133.5 38t75.5 110z" />
    <glyph glyph-name="gdotaccent" unicode="&#x121;" horiz-adv-x="533" 
d="M371 716q26 0 42 -16t16 -40q0 -27 -18.5 -46t-46.5 -19q-26 0 -42 16t-16 40q0 27 18.5 46t46.5 19zM344 390q0 88 -68 88q-51 0 -83.5 -40.5t-44.5 -100.5q-5 -32 -5 -57q0 -88 68 -88q51 0 83.5 40.5t44.5 100.5q5 32 5 57zM428 -33q0 -92 -85.5 -145t-201.5 -53
q-93 0 -161.5 34.5t-68.5 95.5q0 49 48.5 78t121.5 29q-37 6 -60.5 30.5t-23.5 59.5q0 43 33 71.5t79 38.5q-54 38 -54 103q0 80 61.5 133.5t159.5 53.5q80 0 125 -53q57 63 102 63q61 0 61 -55q0 -34 -24 -51t-56 -17v2q18 12 18 36q0 32 -39 32q-26 0 -55 -18
q24 -35 24 -74q0 -80 -61.5 -133.5t-159.5 -53.5q-50 0 -90 24q-25 -7 -42 -24.5t-17 -42.5q0 -23 16 -37.5t46 -15.5l158 -4q66 -2 106 -29t40 -78zM235 -3l-94 3q-68 0 -109.5 -26t-41.5 -79q0 -50 41 -78.5t109 -28.5q91 0 149 36.5t58 101.5q0 39 -26 54t-86 17z" />
    <glyph glyph-name="Gcommaaccent" unicode="&#x122;" horiz-adv-x="724" 
d="M525 175l7 26q11 38 11 62q0 45 -39 64v2h203v-2q-37 -14 -56 -43t-33 -83l-57 -211h-2l-44 110q-77 -110 -211 -110q-124 0 -198 79.5t-74 204.5q0 91 35 173t92 139t131 90.5t150 33.5q57 0 112.5 -21t68.5 -21q25 0 58 30l-36 -211h-2q-51 200 -202 200
q-85 0 -157 -57t-112.5 -151.5t-40.5 -203.5q0 -111 49.5 -179.5t137.5 -68.5q78 0 133.5 38t75.5 110zM164 -254l3 14q54 6 80.5 29t32.5 62q-17 -12 -39 -12q-19 0 -32 12t-14 29q0 27 19.5 45t47.5 18t44.5 -18t16.5 -50q0 -49 -42.5 -88t-116.5 -41z" />
    <glyph glyph-name="gcommaaccent" unicode="&#x123;" horiz-adv-x="533" 
d="M290 634q0 49 42.5 88t116.5 41l-3 -14q-54 -6 -80.5 -29t-32.5 -62q17 12 39 12q19 0 32 -12t14 -29q0 -27 -19.5 -45t-47.5 -18t-44.5 18t-16.5 50zM344 390q0 88 -68 88q-51 0 -83.5 -40.5t-44.5 -100.5q-5 -32 -5 -57q0 -88 68 -88q51 0 83.5 40.5t44.5 100.5
q5 32 5 57zM428 -33q0 -92 -85.5 -145t-201.5 -53q-93 0 -161.5 34.5t-68.5 95.5q0 49 48.5 78t121.5 29q-37 6 -60.5 30.5t-23.5 59.5q0 43 33 71.5t79 38.5q-54 38 -54 103q0 80 61.5 133.5t159.5 53.5q80 0 125 -53q57 63 102 63q61 0 61 -55q0 -34 -24 -51t-56 -17v2
q18 12 18 36q0 32 -39 32q-26 0 -55 -18q24 -35 24 -74q0 -80 -61.5 -133.5t-159.5 -53.5q-50 0 -90 24q-25 -7 -42 -24.5t-17 -42.5q0 -23 16 -37.5t46 -15.5l158 -4q66 -2 106 -29t40 -78zM235 -3l-94 3q-68 0 -109.5 -26t-41.5 -79q0 -50 41 -78.5t109 -28.5
q91 0 149 36.5t58 101.5q0 39 -26 54t-86 17z" />
    <glyph glyph-name="Hcircumflex" unicode="&#x124;" horiz-adv-x="778" 
d="M622 743q-72 40 -108 84q-49 -34 -168 -84h-8q130 95 198 187h4q16 -93 90 -187h-8zM165 2v-2h-203v2q37 14 56 43t33 83l111 444q9 36 9 63q0 45 -37 63v2h203v-2q-37 -14 -56 -43t-33 -83l-51 -203h394l51 203q9 36 9 63q0 45 -37 63v2h203v-2q-37 -14 -56 -43t-33 -83
l-111 -444q-10 -34 -10 -63q0 -45 38 -63v-2h-203v2q37 14 56 43t33 83l54 215h-394l-54 -215q-10 -34 -10 -63q0 -45 38 -63z" />
    <glyph glyph-name="hcircumflex" unicode="&#x125;" horiz-adv-x="558" 
d="M509 783q-72 40 -108 84q-49 -34 -168 -84h-8q130 95 198 187h4q16 -93 90 -187h-8zM135 213l-53 -213h-85l162 648q4 17 4 33q0 24 -12.5 37.5t-41.5 28.5v2h160l-106 -424q37 76 93.5 123.5t119.5 47.5q48 0 73.5 -29.5t25.5 -78.5q0 -25 -6 -52l-62 -248
q-3 -10 -3 -19q0 -19 12.5 -29.5t32.5 -10.5q23 0 55 16l1 -2q-53 -53 -109 -53q-35 0 -56 19t-21 53q0 15 4 30l59 236q8 34 8 57q0 57 -57 57q-56 0 -113 -57t-85 -172z" />
    <glyph glyph-name="Hbar" unicode="&#x126;" horiz-adv-x="778" 
d="M586 349l31 124h-394l-31 -124h394zM165 2v-2h-203v2q37 14 56 43t33 83l86 345h-71l6 26h72l18 73q9 36 9 63q0 45 -37 63v2h203v-2q-37 -14 -56 -43t-33 -83l-18 -73h394l18 73q9 36 9 63q0 45 -37 63v2h203v-2q-37 -14 -56 -43t-33 -83l-18 -73h63l-6 -26h-64
l-86 -345q-10 -34 -10 -63q0 -45 38 -63v-2h-203v2q37 14 56 43t33 83l49 195h-394l-49 -195q-10 -34 -10 -63q0 -45 38 -63z" />
    <glyph glyph-name="hbar" unicode="&#x127;" horiz-adv-x="558" 
d="M505 43q-53 -53 -109 -53q-35 0 -56 19t-21 53q0 15 4 30l59 236q8 34 8 57q0 57 -57 57q-56 0 -113 -57t-85 -172l-53 -213h-85l143 573h-62l6 26h63l12 49q4 17 4 33q0 24 -12.5 37.5t-41.5 28.5v2h160l-37 -150h129l-6 -26h-130l-62 -248q37 76 93.5 123.5t119.5 47.5
q48 0 73.5 -29.5t25.5 -78.5q0 -25 -6 -52l-62 -248q-3 -10 -3 -19q0 -19 12.5 -29.5t32.5 -10.5q23 0 55 16z" />
    <glyph glyph-name="Itilde" unicode="&#x128;" horiz-adv-x="298" 
d="M464 908q-63 -136 -138 -136q-26 0 -68 34.5t-68 34.5q-52 0 -102 -73h-10q63 136 138 136q26 0 68 -34.5t68 -34.5q52 0 102 73h10zM134 700h203v-2q-37 -14 -56 -43t-33 -83l-111 -444q-10 -40 -10 -63q0 -45 38 -63v-2h-203v2q37 14 56 43t33 83l111 444q10 40 10 63
q0 45 -38 63v2z" />
    <glyph glyph-name="itilde" unicode="&#x129;" horiz-adv-x="263" 
d="M353 720q-24 -66 -53 -102t-58 -36q-22 0 -57 34t-57 34q-38 0 -76 -72h-10q24 66 53 102t58 36q21 0 57 -34t57 -34q22 0 38 17.5t37 54.5h11zM92 -10q-35 0 -56 19t-21 53q0 15 4 30l73 293q4 15 4 29q0 40 -47 70v2h153l-99 -398q-3 -10 -3 -19q0 -19 12.5 -29.5
t32.5 -10.5q23 0 55 16l1 -2q-53 -53 -109 -53z" />
    <glyph glyph-name="Imacron" unicode="&#x12a;" horiz-adv-x="298" 
d="M394 780h-276l8 35h276zM134 700h203v-2q-37 -14 -56 -43t-33 -83l-111 -444q-10 -40 -10 -63q0 -45 38 -63v-2h-203v2q37 14 56 43t33 83l111 444q10 40 10 63q0 45 -38 63v2z" />
    <glyph glyph-name="imacron" unicode="&#x12b;" horiz-adv-x="263" 
d="M293 600h-216l8 35h216zM92 -10q-35 0 -56 19t-21 53q0 15 4 30l73 293q4 15 4 29q0 40 -47 70v2h153l-99 -398q-3 -10 -3 -19q0 -19 12.5 -29.5t32.5 -10.5q23 0 55 16l1 -2q-53 -53 -109 -53z" />
    <glyph glyph-name="Ibreve" unicode="&#x12c;" horiz-adv-x="298" 
d="M422 919q-17 -77 -63.5 -119t-109.5 -42q-61 0 -88.5 41.5t-12.5 119.5h8q-6 -44 26.5 -67.5t80.5 -23.5t92.5 24t58.5 67h8zM134 700h203v-2q-37 -14 -56 -43t-33 -83l-111 -444q-10 -40 -10 -63q0 -45 38 -63v-2h-203v2q37 14 56 43t33 83l111 444q10 40 10 63
q0 45 -38 63v2z" />
    <glyph glyph-name="ibreve" unicode="&#x12d;" horiz-adv-x="263" 
d="M330 742q-38 -174 -153 -174q-58 0 -78.5 46.5t-2.5 127.5h8q-6 -53 17.5 -78.5t69.5 -25.5q99 0 131 104h8zM92 -10q-35 0 -56 19t-21 53q0 15 4 30l73 293q4 15 4 29q0 40 -47 70v2h153l-99 -398q-3 -10 -3 -19q0 -19 12.5 -29.5t32.5 -10.5q23 0 55 16l1 -2
q-53 -53 -109 -53z" />
    <glyph glyph-name="Iogonek" unicode="&#x12e;" horiz-adv-x="298" 
d="M151 -139q-63 -98 -154 -98q-33 0 -55 19t-22 50q0 85 157 168h-115v2q37 14 56 43t33 83l111 444q10 40 10 63q0 45 -38 63v2h203v-2q-37 -14 -56 -43t-33 -83l-111 -444q-10 -40 -10 -63q0 -45 38 -63v-2h-65q-111 -76 -111 -148q0 -46 51 -46q58 0 108 57z" />
    <glyph glyph-name="iogonek" unicode="&#x12f;" horiz-adv-x="263" 
d="M191 716q26 0 42 -16t16 -40q0 -27 -18.5 -46t-46.5 -19q-26 0 -42 16t-16 40q0 27 18.5 46t46.5 19zM41 -237q-33 0 -55 19t-22 50q0 78 140 159q-4 -1 -12 -1q-42 0 -63.5 27.5t-9.5 74.5l73 293q9 36 -2 58t-41 41v2h153l-99 -398q-11 -43 21.5 -55t75.5 12l1 -2
q-21 -22 -47 -38q-121 -71 -121 -153q0 -46 51 -46q58 0 108 57l3 -2q-63 -98 -154 -98z" />
    <glyph glyph-name="Idotaccent" unicode="&#x130;" horiz-adv-x="298" 
d="M274 892q26 0 42 -16t16 -40q0 -27 -18.5 -46t-46.5 -19q-26 0 -42 16t-16 40q0 27 18.5 46t46.5 19zM134 700h203v-2q-37 -14 -56 -43t-33 -83l-111 -444q-10 -40 -10 -63q0 -45 38 -63v-2h-203v2q37 14 56 43t33 83l111 444q10 40 10 63q0 45 -38 63v2z" />
    <glyph glyph-name="dotlessi" unicode="&#x131;" horiz-adv-x="263" 
d="M202 486l-99 -398q-3 -10 -3 -19q0 -19 12.5 -29.5t32.5 -10.5q23 0 55 16l1 -2q-53 -53 -109 -53q-35 0 -56 19t-21 53q0 15 4 30l73 293q4 15 4 29q0 40 -47 70v2h153z" />
    <glyph glyph-name="Jcircumflex" unicode="&#x134;" horiz-adv-x="534" 
d="M632 743q-72 40 -108 84q-49 -34 -168 -84h-8q130 95 198 187h4q16 -93 90 -187h-8zM317 182l98 390q10 40 10 63q0 45 -38 63v2h203v-2q-37 -14 -56 -43t-33 -83l-96 -383q-24 -96 -85.5 -147.5t-152.5 -51.5q-85 0 -136 38t-51 100q0 50 33 80.5t76 30.5q42 0 65 -25
q-42 -4 -64 -32t-22 -69q0 -45 26.5 -74.5t72.5 -29.5q58 0 93.5 45t56.5 128z" />
    <glyph glyph-name="jcircumflex" unicode="&#x135;" horiz-adv-x="243" 
d="M285 552q-48 31 -91 89q-61 -46 -155 -89h-8q108 85 188 204h4q22 -137 70 -204h-8zM-116 -235q-53 0 -87 22t-34 60q0 33 23 54t58 21q30 0 44 -11q-52 -15 -52 -76q0 -24 12.5 -39t35.5 -15q36 0 59 46.5t54 169.5l97 388q4 15 4 29q0 41 -47 70v2h153l-114 -458
q-36 -145 -83.5 -204t-122.5 -59z" />
    <glyph glyph-name="Kcommaaccent" unicode="&#x136;" horiz-adv-x="695" 
d="M165 2v-2h-203v2q37 14 56 43t33 83l111 444q10 40 10 63q0 45 -38 63v2h203v-2q-37 -14 -56 -43t-33 -83l-62 -246l383 289q29 21 29 45q0 25 -35 38v2h193v-2q-77 -33 -179 -110l-237 -178l173 -304q27 -46 49 -67.5t55 -36.5v-2h-208v2q33 17 33 36q0 13 -16 42
l-156 280l-92 -69l-41 -163q-10 -40 -10 -63q0 -45 38 -63zM313 -125q0 -49 -42.5 -88t-116.5 -41l3 14q54 6 80.5 29t32.5 62q-17 -12 -39 -12q-19 0 -32 12t-14 29q0 27 19.5 45t47.5 18t44.5 -18t16.5 -50z" />
    <glyph glyph-name="kcommaaccent" unicode="&#x137;" horiz-adv-x="541" 
d="M269 749l-111 -444q46 84 108.5 137.5t130.5 53.5q47 0 74 -26t27 -68q0 -72 -60 -117t-156 -59l68 -142q26 -51 74 -51q27 0 57 18v-2q-46 -59 -112 -59q-64 0 -94 67l-84 187q22 -9 51 -9q70 0 123 43t53 105q0 30 -16 48t-46 18q-57 0 -127.5 -71t-98.5 -185l-48 -193
h-85l162 648q4 17 4 33q0 24 -12.5 37.5t-41.5 28.5v2h160zM71 -254l3 14q54 6 80.5 29t32.5 62q-17 -12 -39 -12q-19 0 -32 12t-14 29q0 27 19.5 45t47.5 18t44.5 -18t16.5 -50q0 -49 -42.5 -88t-116.5 -41z" />
    <glyph glyph-name="kgreenlandic" unicode="&#x138;" horiz-adv-x="552" 
d="M214 486l-45 -181q46 84 108.5 137.5t130.5 53.5q47 0 74 -26t27 -68q0 -72 -60 -117t-156 -59l68 -142q25 -51 74 -51q27 0 57 18v-2q-46 -59 -112 -59q-64 0 -94 67l-84 187q22 -9 51 -9q70 0 123 43t53 105q0 30 -16 48t-46 18q-57 0 -127.5 -71t-98.5 -185l-48 -193
h-85l96 385q5 22 5 33q0 24 -13 37.5t-42 28.5v2h160z" />
    <glyph glyph-name="Lacute" unicode="&#x139;" horiz-adv-x="610" 
d="M352 915h109q-78 -91 -207 -164h-4q70 78 102 164zM248 572l-137 -546h170q45 0 82 11.5t70 36.5t58 53t59 73h2l-77 -200h-513v2q37 14 56 43t33 83l111 444q10 40 10 63q0 45 -38 63v2h203v-2q-37 -14 -56 -43t-33 -83z" />
    <glyph glyph-name="lacute" unicode="&#x13a;" horiz-adv-x="258" 
d="M295 945h109q-78 -91 -207 -164h-4q70 78 102 164zM17 92l135 556q5 22 5 33q0 24 -13 37.5t-42 28.5v2h160l-161 -661q-3 -10 -3 -19q0 -19 12.5 -29.5t32.5 -10.5q23 0 55 16l1 -2q-53 -53 -109 -53q-35 0 -56 19t-21 53q0 15 4 30z" />
    <glyph glyph-name="Lcommaaccent" unicode="&#x13b;" horiz-adv-x="610" 
d="M248 572l-137 -546h170q45 0 82 11.5t70 36.5t58 53t59 73h2l-77 -200h-513v2q37 14 56 43t33 83l111 444q10 40 10 63q0 45 -38 63v2h203v-2q-37 -14 -56 -43t-33 -83zM135 -254l3 14q54 6 80.5 29t32.5 62q-17 -12 -39 -12q-19 0 -32 12t-14 29q0 27 19.5 45t47.5 18
t44.5 -18t16.5 -50q0 -49 -42.5 -88t-116.5 -41z" />
    <glyph glyph-name="lcommaaccent" unicode="&#x13c;" horiz-adv-x="258" 
d="M17 92l135 556q5 22 5 33q0 24 -13 37.5t-42 28.5v2h160l-161 -661q-3 -10 -3 -19q0 -19 12.5 -29.5t32.5 -10.5q23 0 55 16l1 -2q-53 -53 -109 -53q-35 0 -56 19t-21 53q0 15 4 30zM-72 -254l3 14q54 6 80.5 29t32.5 62q-17 -12 -39 -12q-19 0 -32 12t-14 29
q0 27 19.5 45t47.5 18t44.5 -18t16.5 -50q0 -49 -42.5 -88t-116.5 -41z" />
    <glyph glyph-name="Lcaron" unicode="&#x13d;" horiz-adv-x="610" 
d="M248 572l-137 -546h170q45 0 82 11.5t70 36.5t58 53t59 73h2l-77 -200h-513v2q37 14 56 43t33 83l111 444q10 40 10 63q0 45 -38 63v2h203v-2q-37 -14 -56 -43t-33 -83zM442 494h-3q46 93 62 205h88q-20 -47 -64.5 -108.5t-82.5 -96.5z" />
    <glyph glyph-name="lcaron" unicode="&#x13e;" horiz-adv-x="258" 
d="M435 749q-20 -47 -64.5 -108.5t-82.5 -96.5h-3q46 93 62 205h88zM17 92l135 556q5 22 5 33q0 24 -13 37.5t-42 28.5v2h160l-161 -661q-3 -10 -3 -19q0 -19 12.5 -29.5t32.5 -10.5q23 0 55 16l1 -2q-53 -53 -109 -53q-35 0 -56 19t-21 53q0 15 4 30z" />
    <glyph glyph-name="Ldot" unicode="&#x13f;" horiz-adv-x="610" 
d="M248 572l-137 -546h170q45 0 82 11.5t70 36.5t58 53t59 73h2l-77 -200h-513v2q37 14 56 43t33 83l111 444q10 40 10 63q0 45 -38 63v2h203v-2q-37 -14 -56 -43t-33 -83zM544 315q-26 0 -42 16t-16 40q0 27 18.5 46t46.5 19q26 0 42 -16t16 -40q0 -27 -18.5 -46t-46.5 -19
z" />
    <glyph glyph-name="ldot" unicode="&#x140;" horiz-adv-x="400" 
d="M17 92l135 556q5 22 5 33q0 24 -13 37.5t-42 28.5v2h160l-161 -661q-3 -10 -3 -19q0 -19 12.5 -29.5t32.5 -10.5q23 0 55 16l1 -2q-53 -53 -109 -53q-35 0 -56 19t-21 53q0 15 4 30zM322 309q-26 0 -42 16t-16 40q0 27 18.5 46t46.5 19q26 0 42 -16t16 -40
q0 -27 -18.5 -46t-46.5 -19z" />
    <glyph glyph-name="Lslash" unicode="&#x141;" horiz-adv-x="610" 
d="M475 0h-513v2q37 14 56 43t33 83l52 208l-69 -23l8 28l68 23l52 208q10 40 10 63q0 45 -38 63v2h203v-2q-37 -14 -56 -43t-33 -83l-46 -182l135 45l-8 -28l-134 -45l-84 -336h170q45 0 82 11.5t70 36.5t58 53t59 73h2z" />
    <glyph glyph-name="lslash" unicode="&#x142;" horiz-adv-x="299" 
d="M105 -10q-35 0 -56 19t-21 53q0 15 4 30l66 273l-89 -56l8 32l89 56l61 251q5 22 5 33q0 24 -13 37.5t-42 28.5v2h160l-75 -308l101 64l-8 -32l-101 -63l-78 -322q-3 -10 -3 -19q0 -19 12.5 -29.5t32.5 -10.5q23 0 55 16l1 -2q-53 -53 -109 -53z" />
    <glyph glyph-name="Nacute" unicode="&#x143;" horiz-adv-x="749" 
d="M529 915h109q-78 -91 -207 -164h-4q70 78 102 164zM563 141l104 416q8 34 8 57q0 62 -48 84v2h179v-2q-83 -31 -110 -141l-141 -565h-2l-351 626l-118 -475q-8 -35 -8 -58q0 -62 47 -83v-2h-179v2q84 32 111 141l108 434q8 32 8 52q0 48 -44 69v2h131z" />
    <glyph glyph-name="nacute" unicode="&#x144;" horiz-adv-x="563" 
d="M379 749h110q-83 -101 -209 -188h-4q71 89 103 188zM139 213l-53 -213h-85l96 385q4 15 4 29q0 41 -47 70v2h153l-40 -161q37 76 93.5 123.5t119.5 47.5q49 0 74.5 -30t25.5 -78q0 -27 -7 -52l-62 -248q-3 -10 -3 -19q0 -19 12.5 -29.5t32.5 -10.5q23 0 55 16l1 -2
q-53 -53 -109 -53q-35 0 -56 19t-21 53q0 15 4 30l59 236q8 34 8 57q0 57 -57 57q-56 0 -113 -57t-85 -172z" />
    <glyph glyph-name="Ncommaaccent" unicode="&#x145;" horiz-adv-x="749" 
d="M563 141l104 416q8 34 8 57q0 62 -48 84v2h179v-2q-83 -31 -110 -141l-141 -565h-2l-351 626l-118 -475q-8 -35 -8 -58q0 -62 47 -83v-2h-179v2q84 32 111 141l108 434q8 32 8 52q0 48 -44 69v2h131zM172 -254l3 14q54 6 80.5 29t32.5 62q-17 -12 -39 -12q-19 0 -32 12
t-14 29q0 27 19.5 45t47.5 18t44.5 -18t16.5 -50q0 -49 -42.5 -88t-116.5 -41z" />
    <glyph glyph-name="ncommaaccent" unicode="&#x146;" horiz-adv-x="563" 
d="M139 213l-53 -213h-85l96 385q4 15 4 29q0 41 -47 70v2h153l-40 -161q37 76 93.5 123.5t119.5 47.5q49 0 74.5 -30t25.5 -78q0 -27 -7 -52l-62 -248q-3 -10 -3 -19q0 -19 12.5 -29.5t32.5 -10.5q23 0 55 16l1 -2q-53 -53 -109 -53q-35 0 -56 19t-21 53q0 15 4 30l59 236
q8 34 8 57q0 57 -57 57q-56 0 -113 -57t-85 -172zM77 -254l3 14q54 6 80.5 29t32.5 62q-17 -12 -39 -12q-19 0 -32 12t-14 29q0 27 19.5 45t47.5 18t44.5 -18t16.5 -50q0 -49 -42.5 -88t-116.5 -41z" />
    <glyph glyph-name="Ncaron" unicode="&#x147;" horiz-adv-x="749" 
d="M388 930q72 -40 108 -84q49 34 168 84h8q-130 -95 -198 -187h-4q-16 93 -90 187h8zM563 141l104 416q8 34 8 57q0 62 -48 84v2h179v-2q-83 -31 -110 -141l-141 -565h-2l-351 626l-118 -475q-8 -35 -8 -58q0 -62 47 -83v-2h-179v2q84 32 111 141l108 434q8 32 8 52
q0 48 -44 69v2h131z" />
    <glyph glyph-name="ncaron" unicode="&#x148;" horiz-adv-x="563" 
d="M244 757q63 -38 107 -97q66 50 169 97h8q-129 -101 -198 -204h-4q-16 102 -90 204h8zM139 213l-53 -213h-85l96 385q4 15 4 29q0 41 -47 70v2h153l-40 -161q37 76 93.5 123.5t119.5 47.5q49 0 74.5 -30t25.5 -78q0 -27 -7 -52l-62 -248q-3 -10 -3 -19q0 -19 12.5 -29.5
t32.5 -10.5q23 0 55 16l1 -2q-53 -53 -109 -53q-35 0 -56 19t-21 53q0 15 4 30l59 236q8 34 8 57q0 57 -57 57q-56 0 -113 -57t-85 -172z" />
    <glyph glyph-name="Eng" unicode="&#x14a;" horiz-adv-x="749" 
d="M533 21l-331 597l-122 -490q-8 -35 -8 -57q0 -51 41 -69v-2h-156v2q38 14 59.5 44t34.5 82l112 449q8 32 8 52q0 48 -44 69v2h131l305 -559l107 431q9 33 9 57q0 50 -42 69v2h157v-2q-38 -15 -60 -45t-34 -81l-136 -544q-36 -146 -78.5 -204.5t-108.5 -58.5
q-51 0 -84 22.5t-33 59.5q0 33 23 54t58 21q30 0 44 -11q-52 -15 -52 -73q0 -23 11.5 -37t32.5 -14q52 0 90 54t66 180z" />
    <glyph glyph-name="eng" unicode="&#x14b;" horiz-adv-x="549" 
d="M303 -3l83 331q8 34 8 57q0 57 -57 57q-56 0 -113 -57t-85 -172l-53 -213h-85l96 385q4 15 4 29q0 41 -47 70v2h153l-40 -161q37 76 93.5 123.5t119.5 47.5q49 0 74.5 -30t25.5 -78q0 -27 -7 -52l-77 -308q-36 -145 -83.5 -204t-122.5 -59q-53 0 -87 22t-34 60
q0 33 23 54t58 21q30 0 44 -11q-52 -15 -52 -76q0 -24 12.5 -39t35.5 -15q36 0 59 46.5t54 169.5z" />
    <glyph glyph-name="Omacron" unicode="&#x14c;" horiz-adv-x="736" 
d="M613 780h-276l8 35h276zM32 276q0 181 117 307.5t277 126.5q127 0 202.5 -79.5t75.5 -206.5q0 -181 -117 -307.5t-277 -126.5q-127 0 -202.5 79.5t-75.5 206.5zM310 13q82 0 148.5 58t105.5 153q44 107 44 225q0 101 -47.5 169.5t-134.5 68.5q-82 0 -148.5 -58
t-105.5 -153q-44 -107 -44 -225q0 -101 47.5 -169.5t134.5 -68.5z" />
    <glyph glyph-name="omacron" unicode="&#x14d;" horiz-adv-x="520" 
d="M460 600h-276l8 35h276zM1 185q0 124 79.5 217.5t192.5 93.5q84 0 138 -52t54 -143q0 -124 -79.5 -217.5t-192.5 -93.5q-84 0 -137.5 52t-54.5 143zM193 10q52 0 95.5 53t66.5 132q19 65 19 122q0 159 -101 159q-52 0 -95.5 -53t-66.5 -132q-19 -65 -19 -122
q0 -159 101 -159z" />
    <glyph glyph-name="Obreve" unicode="&#x14e;" horiz-adv-x="736" 
d="M641 919q-17 -77 -63.5 -119t-109.5 -42q-61 0 -88.5 41.5t-12.5 119.5h8q-6 -44 26.5 -67.5t80.5 -23.5t92.5 24t58.5 67h8zM32 276q0 181 117 307.5t277 126.5q127 0 202.5 -79.5t75.5 -206.5q0 -181 -117 -307.5t-277 -126.5q-127 0 -202.5 79.5t-75.5 206.5zM310 13
q82 0 148.5 58t105.5 153q44 107 44 225q0 101 -47.5 169.5t-134.5 68.5q-82 0 -148.5 -58t-105.5 -153q-44 -107 -44 -225q0 -101 47.5 -169.5t134.5 -68.5z" />
    <glyph glyph-name="obreve" unicode="&#x14f;" horiz-adv-x="520" 
d="M488 742q-17 -79 -64.5 -126.5t-108.5 -47.5q-60 0 -88.5 47.5t-12.5 126.5h8q-6 -52 26 -78t81 -26t92.5 26t58.5 78h8zM1 185q0 124 79.5 217.5t192.5 93.5q84 0 138 -52t54 -143q0 -124 -79.5 -217.5t-192.5 -93.5q-84 0 -137.5 52t-54.5 143zM193 10q52 0 95.5 53
t66.5 132q19 65 19 122q0 159 -101 159q-52 0 -95.5 -53t-66.5 -132q-19 -65 -19 -122q0 -159 101 -159z" />
    <glyph glyph-name="Ohungarumlaut" unicode="&#x150;" horiz-adv-x="736" 
d="M449 915h109q-78 -91 -207 -164h-4q70 78 102 164zM609 915h109q-78 -91 -207 -164h-4q70 78 102 164zM32 276q0 181 117 307.5t277 126.5q127 0 202.5 -79.5t75.5 -206.5q0 -181 -117 -307.5t-277 -126.5q-127 0 -202.5 79.5t-75.5 206.5zM310 13q82 0 148.5 58
t105.5 153q44 107 44 225q0 101 -47.5 169.5t-134.5 68.5q-82 0 -148.5 -58t-105.5 -153q-44 -107 -44 -225q0 -101 47.5 -169.5t134.5 -68.5z" />
    <glyph glyph-name="ohungarumlaut" unicode="&#x151;" horiz-adv-x="520" 
d="M447 749h110q-83 -101 -209 -188h-4q71 89 103 188zM305 749h110q-83 -101 -209 -188h-4q71 89 103 188zM1 185q0 124 79.5 217.5t192.5 93.5q84 0 138 -52t54 -143q0 -124 -79.5 -217.5t-192.5 -93.5q-84 0 -137.5 52t-54.5 143zM193 10q52 0 95.5 53t66.5 132
q19 65 19 122q0 159 -101 159q-52 0 -95.5 -53t-66.5 -132q-19 -65 -19 -122q0 -159 101 -159z" />
    <glyph glyph-name="OE" unicode="&#x152;" horiz-adv-x="1053" 
d="M599 674h-114q-110 0 -192 -56.5t-122.5 -147.5t-40.5 -200q0 -111 55.5 -177.5t167.5 -66.5h84zM977 194l-76 -194h-556q-146 0 -229.5 74.5t-83.5 195.5q0 195 125.5 312.5t327.5 117.5h504q41 0 56 7l-7 -173h-2q-22 75 -60 107.5t-118 32.5h-174l-76 -306h137
q61 0 93.5 21t74.5 90h2l-58 -233h-2q-8 65 -29.5 80.5t-86.5 15.5h-137l-79 -316h184q87 0 144 39.5t124 128.5h2z" />
    <glyph glyph-name="oe" unicode="&#x153;" horiz-adv-x="829" 
d="M548 -10q-112 0 -163 102q-81 -102 -192 -102q-84 0 -138 52t-54 143q0 124 79.5 217.5t192.5 93.5q56 0 100 -27.5t68 -77.5q40 48 93.5 76.5t113.5 28.5q62 0 100 -30t38 -76q0 -79 -90.5 -119t-245.5 -45q-3 -24 -3 -47q0 -77 35 -114.5t97 -37.5q94 0 167 95h4
q-27 -63 -81.5 -97.5t-120.5 -34.5zM193 10q52 0 95.5 53t66.5 132q19 65 19 122q0 159 -101 159q-52 0 -95.5 -53t-66.5 -132q-19 -65 -19 -122q0 -159 101 -159zM648 476q-69 0 -124.5 -71.5t-71.5 -166.5q252 19 252 173q0 29 -14.5 47t-41.5 18z" />
    <glyph glyph-name="Racute" unicode="&#x154;" horiz-adv-x="694" 
d="M456 915h109q-78 -91 -207 -164h-4q70 78 102 164zM273 674l-79 -319h140q100 0 158.5 49t58.5 141q0 61 -34.5 95t-103.5 34h-140zM165 2v-2h-203v2q37 14 56 43t33 83l111 444q10 40 10 63q0 45 -38 63v2h296q99 0 158 -39.5t59 -115.5q0 -95 -71.5 -150t-176.5 -60
q108 -19 120 -127q2 -15 5 -43t5 -40q7 -52 25 -78.5t58 -44.5v-2h-148q-15 38 -23 108l-12 96q-7 64 -29.5 94.5t-78.5 30.5h-134l-50 -201q-10 -40 -10 -63q0 -45 38 -63z" />
    <glyph glyph-name="racute" unicode="&#x155;" horiz-adv-x="436" 
d="M341 749h110q-83 -101 -209 -188h-4q71 89 103 188zM309 347q20 3 32.5 19.5t12.5 38.5q0 36 -38 36q-51 0 -104.5 -75t-74.5 -161l-51 -205h-85l96 385q4 15 4 29q0 41 -47 70v2h153l-44 -178q90 188 195 188q34 0 55.5 -20t21.5 -51q0 -39 -24.5 -63.5t-65.5 -24.5
q-22 0 -36 10z" />
    <glyph glyph-name="Rcommaaccent" unicode="&#x156;" horiz-adv-x="694" 
d="M273 674l-79 -319h140q100 0 158.5 49t58.5 141q0 61 -34.5 95t-103.5 34h-140zM165 2v-2h-203v2q37 14 56 43t33 83l111 444q10 40 10 63q0 45 -38 63v2h296q99 0 158 -39.5t59 -115.5q0 -95 -71.5 -150t-176.5 -60q108 -19 120 -127q2 -15 5 -43t5 -40q7 -52 25 -78.5
t58 -44.5v-2h-148q-15 38 -23 108l-12 96q-7 64 -29.5 94.5t-78.5 30.5h-134l-50 -201q-10 -40 -10 -63q0 -45 38 -63zM159 -254l3 14q54 6 80.5 29t32.5 62q-17 -12 -39 -12q-19 0 -32 12t-14 29q0 27 19.5 45t47.5 18t44.5 -18t16.5 -50q0 -49 -42.5 -88t-116.5 -41z" />
    <glyph glyph-name="rcommaaccent" unicode="&#x157;" horiz-adv-x="436" 
d="M309 347q20 3 32.5 19.5t12.5 38.5q0 36 -38 36q-51 0 -104.5 -75t-74.5 -161l-51 -205h-85l96 385q4 15 4 29q0 41 -47 70v2h153l-44 -178q90 188 195 188q34 0 55.5 -20t21.5 -51q0 -39 -24.5 -63.5t-65.5 -24.5q-22 0 -36 10zM-82 -254l3 14q54 6 80.5 29t32.5 62
q-17 -12 -39 -12q-19 0 -32 12t-14 29q0 27 19.5 45t47.5 18t44.5 -18t16.5 -50q0 -49 -42.5 -88t-116.5 -41z" />
    <glyph glyph-name="Rcaron" unicode="&#x158;" horiz-adv-x="694" 
d="M315 930q72 -40 108 -84q49 34 168 84h8q-130 -95 -198 -187h-4q-16 93 -90 187h8zM273 674l-79 -319h140q100 0 158.5 49t58.5 141q0 61 -34.5 95t-103.5 34h-140zM165 2v-2h-203v2q37 14 56 43t33 83l111 444q10 40 10 63q0 45 -38 63v2h296q99 0 158 -39.5t59 -115.5
q0 -95 -71.5 -150t-176.5 -60q108 -19 120 -127q2 -15 5 -43t5 -40q7 -52 25 -78.5t58 -44.5v-2h-148q-15 38 -23 108l-12 96q-7 64 -29.5 94.5t-78.5 30.5h-134l-50 -201q-10 -40 -10 -63q0 -45 38 -63z" />
    <glyph glyph-name="rcaron" unicode="&#x159;" horiz-adv-x="436" 
d="M206 757q63 -38 107 -97q66 50 169 97h8q-129 -101 -198 -204h-4q-16 102 -90 204h8zM309 347q20 3 32.5 19.5t12.5 38.5q0 36 -38 36q-51 0 -104.5 -75t-74.5 -161l-51 -205h-85l96 385q4 15 4 29q0 41 -47 70v2h153l-44 -178q90 188 195 188q34 0 55.5 -20t21.5 -51
q0 -39 -24.5 -63.5t-65.5 -24.5q-22 0 -36 10z" />
    <glyph glyph-name="Sacute" unicode="&#x15a;" horiz-adv-x="574" 
d="M429 915h109q-78 -91 -207 -164h-4q70 78 102 164zM531 504q-19 84 -69.5 135t-128.5 51q-75 0 -115.5 -42.5t-40.5 -105.5q0 -52 32.5 -86t79 -52.5l93 -38t79 -57t32.5 -94.5q0 -103 -74 -163.5t-181 -60.5q-56 0 -119.5 18.5t-75.5 18.5q-26 0 -65 -23l34 214h2
q25 -97 81.5 -152.5t142.5 -55.5q84 0 128 49.5t44 118.5q0 42 -23 72.5t-58 45.5l-75.5 33t-75.5 36t-58 54t-23 86q0 91 68 148t168 57q58 0 115.5 -18.5t68.5 -18.5q23 0 56 22l-40 -191h-2z" />
    <glyph glyph-name="sacute" unicode="&#x15b;" horiz-adv-x="426" 
d="M305 749h110q-83 -101 -209 -188h-4q71 89 103 188zM56 351q0 62 52 103.5t128 41.5q64 0 109 -27.5t45 -70.5q0 -28 -17.5 -44.5t-44.5 -16.5q-29 0 -45 19q17 1 27.5 15t10.5 37q0 34 -23.5 52.5t-66.5 18.5q-46 0 -75 -25.5t-29 -63.5q0 -31 19 -53t72 -54
q65 -39 92.5 -69.5t27.5 -71.5q0 -66 -57 -109t-138 -43q-73 0 -122 30.5t-49 77.5q0 30 18.5 47.5t45.5 17.5q33 0 52 -19q-19 -1 -31 -15t-12 -36q0 -38 27.5 -62t73.5 -24q51 0 84.5 28t33.5 71q0 29 -21 53.5t-70 52.5q-60 35 -88.5 65t-28.5 74z" />
    <glyph glyph-name="Scircumflex" unicode="&#x15c;" horiz-adv-x="574" 
d="M510 743q-72 40 -108 84q-49 -34 -168 -84h-8q130 95 198 187h4q16 -93 90 -187h-8zM531 504q-19 84 -69.5 135t-128.5 51q-75 0 -115.5 -42.5t-40.5 -105.5q0 -52 32.5 -86t79 -52.5l93 -38t79 -57t32.5 -94.5q0 -103 -74 -163.5t-181 -60.5q-56 0 -119.5 18.5
t-75.5 18.5q-26 0 -65 -23l34 214h2q25 -97 81.5 -152.5t142.5 -55.5q84 0 128 49.5t44 118.5q0 42 -23 72.5t-58 45.5l-75.5 33t-75.5 36t-58 54t-23 86q0 91 68 148t168 57q58 0 115.5 -18.5t68.5 -18.5q23 0 56 22l-40 -191h-2z" />
    <glyph glyph-name="scircumflex" unicode="&#x15d;" horiz-adv-x="426" 
d="M399 552q-63 38 -107 97q-66 -50 -169 -97h-8q129 101 198 204h4q16 -102 90 -204h-8zM56 351q0 62 52 103.5t128 41.5q64 0 109 -27.5t45 -70.5q0 -28 -17.5 -44.5t-44.5 -16.5q-29 0 -45 19q17 1 27.5 15t10.5 37q0 34 -23.5 52.5t-66.5 18.5q-46 0 -75 -25.5
t-29 -63.5q0 -31 19 -53t72 -54q65 -39 92.5 -69.5t27.5 -71.5q0 -66 -57 -109t-138 -43q-73 0 -122 30.5t-49 77.5q0 30 18.5 47.5t45.5 17.5q33 0 52 -19q-19 -1 -31 -15t-12 -36q0 -38 27.5 -62t73.5 -24q51 0 84.5 28t33.5 71q0 29 -21 53.5t-70 52.5q-60 35 -88.5 65
t-28.5 74z" />
    <glyph glyph-name="Scedilla" unicode="&#x15e;" horiz-adv-x="574" 
d="M152 -223q-37 0 -65 15t-40 40l10 9q26 -40 80 -40q36 0 55.5 19.5t19.5 51.5q0 26 -19 36t-60 12l58 73q-38 5 -85.5 19.5t-62.5 14.5q-26 0 -65 -23l34 214h2q25 -97 81.5 -152.5t142.5 -55.5q84 0 128 49.5t44 118.5q0 42 -23 72.5t-58 45.5l-75.5 33t-75.5 36t-58 54
t-23 86q0 91 68 148t168 57q58 0 115.5 -18.5t68.5 -18.5q23 0 56 22l-40 -191h-2q-19 84 -69.5 135t-128.5 51q-75 0 -115.5 -42.5t-40.5 -105.5q0 -52 32.5 -86t79 -52.5l93 -38t79 -57t32.5 -94.5q0 -103 -74 -163.5t-181 -60.5q-21 0 -31 1l-44 -55q49 4 82.5 -15.5
t33.5 -53.5q0 -41 -37 -65.5t-90 -24.5z" />
    <glyph glyph-name="scedilla" unicode="&#x15f;" horiz-adv-x="426" 
d="M63 -223q-37 0 -65.5 15t-40.5 40l10 9q26 -40 81 -40q36 0 55.5 19.5t19.5 51.5q0 26 -19 36t-60 12l57 73q-58 8 -93.5 36.5t-35.5 68.5q0 30 18.5 47.5t45.5 17.5q33 0 52 -19q-19 -1 -31 -15t-12 -36q0 -38 27.5 -62t73.5 -24q51 0 84.5 28t33.5 71q0 29 -21 53.5
t-70 52.5q-60 35 -88.5 65t-28.5 74q0 62 52 103.5t128 41.5q64 0 109 -27.5t45 -70.5q0 -28 -17.5 -44.5t-44.5 -16.5q-29 0 -45 19q17 1 27.5 15t10.5 37q0 34 -23.5 52.5t-66.5 18.5q-46 0 -75 -25.5t-29 -63.5q0 -31 19 -53t72 -54q65 -39 92.5 -69.5t27.5 -71.5
q0 -66 -57 -109t-138 -43q-17 0 -26 1l-43 -55q49 4 82.5 -15.5t33.5 -53.5q0 -41 -37 -65.5t-90 -24.5z" />
    <glyph glyph-name="Scaron" unicode="&#x160;" horiz-adv-x="574" 
d="M288 930q72 -40 108 -84q49 34 168 84h8q-130 -95 -198 -187h-4q-16 93 -90 187h8zM531 504q-19 84 -69.5 135t-128.5 51q-75 0 -115.5 -42.5t-40.5 -105.5q0 -52 32.5 -86t79 -52.5l93 -38t79 -57t32.5 -94.5q0 -103 -74 -163.5t-181 -60.5q-56 0 -119.5 18.5
t-75.5 18.5q-26 0 -65 -23l34 214h2q25 -97 81.5 -152.5t142.5 -55.5q84 0 128 49.5t44 118.5q0 42 -23 72.5t-58 45.5l-75.5 33t-75.5 36t-58 54t-23 86q0 91 68 148t168 57q58 0 115.5 -18.5t68.5 -18.5q23 0 56 22l-40 -191h-2z" />
    <glyph glyph-name="scaron" unicode="&#x161;" horiz-adv-x="426" 
d="M170 757q63 -38 107 -97q66 50 169 97h8q-129 -101 -198 -204h-4q-16 102 -90 204h8zM56 351q0 62 52 103.5t128 41.5q64 0 109 -27.5t45 -70.5q0 -28 -17.5 -44.5t-44.5 -16.5q-29 0 -45 19q17 1 27.5 15t10.5 37q0 34 -23.5 52.5t-66.5 18.5q-46 0 -75 -25.5t-29 -63.5
q0 -31 19 -53t72 -54q65 -39 92.5 -69.5t27.5 -71.5q0 -66 -57 -109t-138 -43q-73 0 -122 30.5t-49 77.5q0 30 18.5 47.5t45.5 17.5q33 0 52 -19q-19 -1 -31 -15t-12 -36q0 -38 27.5 -62t73.5 -24q51 0 84.5 28t33.5 71q0 29 -21 53.5t-70 52.5q-60 35 -88.5 65t-28.5 74z
" />
    <glyph glyph-name="Tcommaaccent" unicode="&#x162;" horiz-adv-x="712" 
d="M184 700h514q35 0 50 7l-14 -203h-2q-13 40 -21 61.5t-22 46t-30 36t-40.5 19.5t-57.5 8h-83l-138 -555q-8 -35 -8 -55q0 -45 41 -63v-2h-210v2q39 15 59 41t32 77l138 555h-79q-77 0 -126 -36.5t-129 -134.5h-2l82 203q10 -7 46 -7zM150 -254l3 14q54 6 80.5 29t32.5 62
q-17 -12 -39 -12q-19 0 -32 12t-14 29q0 27 19.5 45t47.5 18t44.5 -18t16.5 -50q0 -49 -42.5 -88t-116.5 -41z" />
    <glyph glyph-name="tcommaaccent" unicode="&#x163;" horiz-adv-x="323" 
d="M196 460l-90 -360q-2 -12 -2 -17q0 -23 15.5 -36t41.5 -13q53 0 98 49l2 -2q-64 -91 -156 -91q-42 0 -65.5 21t-23.5 57q0 15 4 30l89 362h-70l1 6q70 20 117.5 67t82.5 125h7l-45 -172h140l-11 -26h-135zM-43 -254l3 14q54 6 80.5 29t32.5 62q-17 -12 -39 -12
q-19 0 -32 12t-14 29q0 27 19.5 45t47.5 18t44.5 -18t16.5 -50q0 -49 -42.5 -88t-116.5 -41z" />
    <glyph glyph-name="Tcaron" unicode="&#x164;" horiz-adv-x="712" 
d="M366 930q72 -40 108 -84q49 34 168 84h8q-130 -95 -198 -187h-4q-16 93 -90 187h8zM184 700h514q35 0 50 7l-14 -203h-2q-13 40 -21 61.5t-22 46t-30 36t-40.5 19.5t-57.5 8h-83l-138 -555q-8 -35 -8 -55q0 -45 41 -63v-2h-210v2q39 15 59 41t32 77l138 555h-79
q-77 0 -126 -36.5t-129 -134.5h-2l82 203q10 -7 46 -7z" />
    <glyph glyph-name="tcaron" unicode="&#x165;" horiz-adv-x="323" 
d="M441 749q-20 -47 -64.5 -108.5t-82.5 -96.5h-3q46 93 62 205h88zM196 460l-90 -360q-2 -12 -2 -17q0 -23 15.5 -36t41.5 -13q53 0 98 49l2 -2q-64 -91 -156 -91q-42 0 -65.5 21t-23.5 57q0 15 4 30l89 362h-70l1 6q70 20 117.5 67t82.5 125h7l-45 -172h140l-11 -26h-135z
" />
    <glyph glyph-name="Tbar" unicode="&#x166;" horiz-adv-x="712" 
d="M373 2v-2h-210v2q39 15 59 41t32 77l55 223h-131l6 26h132l76 306h-79q-77 0 -126 -36.5t-129 -134.5h-2l82 203q10 -7 46 -7h514q35 0 50 7l-14 -203h-2q-13 40 -21 61.5t-22 46t-30 36t-40.5 19.5t-57.5 8h-83l-76 -306h132l-6 -26h-133l-55 -223q-8 -35 -8 -55
q0 -45 41 -63z" />
    <glyph glyph-name="tbar" unicode="&#x167;" horiz-adv-x="342" 
d="M265 81q-64 -91 -156 -91q-42 0 -65.5 21t-23.5 57q0 15 4 30l51 209h-62l6 26h63l31 127h-70l1 6q70 20 117.5 67t82.5 125h7l-45 -172h140l-11 -26h-135l-32 -127h135l-6 -26h-135l-52 -207q-2 -12 -2 -17q0 -23 15.5 -36t41.5 -13q53 0 98 49z" />
    <glyph glyph-name="Utilde" unicode="&#x168;" horiz-adv-x="707" 
d="M688 908q-63 -136 -138 -136q-26 0 -68 34.5t-68 34.5q-52 0 -102 -73h-10q63 136 138 136q26 0 68 -34.5t68 -34.5q52 0 102 73h10zM673 572l-74 -297q-35 -142 -105 -213.5t-189 -71.5q-113 0 -179 57t-66 154q0 37 10 76l74 295q10 40 10 63q0 45 -38 63v2h203v-2
q-37 -14 -56 -43t-33 -83l-74 -294q-10 -39 -10 -76q0 -78 45.5 -122t122.5 -44q105 0 165 58.5t91 185.5l73 292q8 35 8 57q0 51 -41 69v2h157v-2q-38 -15 -60 -45t-34 -81z" />
    <glyph glyph-name="utilde" unicode="&#x169;" horiz-adv-x="561" 
d="M524 718q-63 -136 -138 -136q-26 0 -68 34.5t-68 34.5q-52 0 -102 -73h-10q63 136 138 136q26 0 68 -34.5t68 -34.5q52 0 102 73h10zM499 43q-53 -53 -109 -53q-35 0 -56 19t-21 53q0 22 21 99q-84 -171 -201 -171q-50 0 -79 32t-29 82q0 22 6 46l59 235q4 15 4 29
q0 41 -47 70v2h153l-84 -337q-6 -23 -6 -43q0 -62 61 -62q53 0 108 57.5t83 171.5l53 213h85l-99 -398q-3 -10 -3 -19q0 -19 12.5 -29.5t32.5 -10.5q23 0 55 16z" />
    <glyph glyph-name="Umacron" unicode="&#x16a;" horiz-adv-x="707" 
d="M619 780h-276l8 35h276zM673 572l-74 -297q-35 -142 -105 -213.5t-189 -71.5q-113 0 -179 57t-66 154q0 37 10 76l74 295q10 40 10 63q0 45 -38 63v2h203v-2q-37 -14 -56 -43t-33 -83l-74 -294q-10 -39 -10 -76q0 -78 45.5 -122t122.5 -44q105 0 165 58.5t91 185.5
l73 292q8 35 8 57q0 51 -41 69v2h157v-2q-38 -15 -60 -45t-34 -81z" />
    <glyph glyph-name="umacron" unicode="&#x16b;" horiz-adv-x="561" 
d="M467 600h-276l8 35h276zM499 43q-53 -53 -109 -53q-35 0 -56 19t-21 53q0 22 21 99q-84 -171 -201 -171q-50 0 -79 32t-29 82q0 22 6 46l59 235q4 15 4 29q0 41 -47 70v2h153l-84 -337q-6 -23 -6 -43q0 -62 61 -62q53 0 108 57.5t83 171.5l53 213h85l-99 -398
q-3 -10 -3 -19q0 -19 12.5 -29.5t32.5 -10.5q23 0 55 16z" />
    <glyph glyph-name="Ubreve" unicode="&#x16c;" horiz-adv-x="707" 
d="M646 919q-17 -77 -63.5 -119t-109.5 -42q-61 0 -88.5 41.5t-12.5 119.5h8q-6 -44 26.5 -67.5t80.5 -23.5t92.5 24t58.5 67h8zM673 572l-74 -297q-35 -142 -105 -213.5t-189 -71.5q-113 0 -179 57t-66 154q0 37 10 76l74 295q10 40 10 63q0 45 -38 63v2h203v-2
q-37 -14 -56 -43t-33 -83l-74 -294q-10 -39 -10 -76q0 -78 45.5 -122t122.5 -44q105 0 165 58.5t91 185.5l73 292q8 35 8 57q0 51 -41 69v2h157v-2q-38 -15 -60 -45t-34 -81z" />
    <glyph glyph-name="ubreve" unicode="&#x16d;" horiz-adv-x="561" 
d="M494 742q-17 -79 -64.5 -126.5t-108.5 -47.5q-60 0 -88.5 47.5t-12.5 126.5h8q-6 -52 26 -78t81 -26t92.5 26t58.5 78h8zM499 43q-53 -53 -109 -53q-35 0 -56 19t-21 53q0 22 21 99q-84 -171 -201 -171q-50 0 -79 32t-29 82q0 22 6 46l59 235q4 15 4 29q0 41 -47 70v2
h153l-84 -337q-6 -23 -6 -43q0 -62 61 -62q53 0 108 57.5t83 171.5l53 213h85l-99 -398q-3 -10 -3 -19q0 -19 12.5 -29.5t32.5 -10.5q23 0 55 16z" />
    <glyph glyph-name="Uring" unicode="&#x16e;" horiz-adv-x="707" 
d="M403 849q0 38 31.5 68t71.5 30q38 0 63.5 -25.5t25.5 -65.5q0 -38 -31.5 -68t-71.5 -30q-38 0 -63.5 25.5t-25.5 65.5zM494 782q30 0 53 22.5t23 51.5q0 30 -19 48.5t-47 18.5q-30 0 -53 -22.5t-23 -51.5q0 -30 19 -48.5t47 -18.5zM673 572l-74 -297
q-35 -142 -105 -213.5t-189 -71.5q-113 0 -179 57t-66 154q0 37 10 76l74 295q10 40 10 63q0 45 -38 63v2h203v-2q-37 -14 -56 -43t-33 -83l-74 -294q-10 -39 -10 -76q0 -78 45.5 -122t122.5 -44q105 0 165 58.5t91 185.5l73 292q8 35 8 57q0 51 -41 69v2h157v-2
q-38 -15 -60 -45t-34 -81z" />
    <glyph glyph-name="uring" unicode="&#x16f;" horiz-adv-x="561" 
d="M248 659q0 38 31.5 68t71.5 30q38 0 63.5 -25.5t25.5 -65.5q0 -38 -31.5 -68t-71.5 -30q-38 0 -63.5 25.5t-25.5 65.5zM415 666q0 30 -19 48.5t-47 18.5q-30 0 -53 -22.5t-23 -51.5q0 -30 19 -48.5t47 -18.5q30 0 53 22.5t23 51.5zM499 43q-53 -53 -109 -53q-35 0 -56 19
t-21 53q0 22 21 99q-84 -171 -201 -171q-50 0 -79 32t-29 82q0 22 6 46l59 235q4 15 4 29q0 41 -47 70v2h153l-84 -337q-6 -23 -6 -43q0 -62 61 -62q53 0 108 57.5t83 171.5l53 213h85l-99 -398q-3 -10 -3 -19q0 -19 12.5 -29.5t32.5 -10.5q23 0 55 16z" />
    <glyph glyph-name="Uhungarumlaut" unicode="&#x170;" horiz-adv-x="707" 
d="M455 915h109q-78 -91 -207 -164h-4q70 78 102 164zM615 915h109q-78 -91 -207 -164h-4q70 78 102 164zM673 572l-74 -297q-35 -142 -105 -213.5t-189 -71.5q-113 0 -179 57t-66 154q0 37 10 76l74 295q10 40 10 63q0 45 -38 63v2h203v-2q-37 -14 -56 -43t-33 -83
l-74 -294q-10 -39 -10 -76q0 -78 45.5 -122t122.5 -44q105 0 165 58.5t91 185.5l73 292q8 35 8 57q0 51 -41 69v2h157v-2q-38 -15 -60 -45t-34 -81z" />
    <glyph glyph-name="uhungarumlaut" unicode="&#x171;" horiz-adv-x="561" 
d="M453 749h110q-83 -101 -209 -188h-4q71 89 103 188zM311 749h110q-83 -101 -209 -188h-4q71 89 103 188zM499 43q-53 -53 -109 -53q-35 0 -56 19t-21 53q0 22 21 99q-84 -171 -201 -171q-50 0 -79 32t-29 82q0 22 6 46l59 235q4 15 4 29q0 41 -47 70v2h153l-84 -337
q-6 -23 -6 -43q0 -62 61 -62q53 0 108 57.5t83 171.5l53 213h85l-99 -398q-3 -10 -3 -19q0 -19 12.5 -29.5t32.5 -10.5q23 0 55 16z" />
    <glyph glyph-name="Uogonek" unicode="&#x172;" horiz-adv-x="707" 
d="M299 -237q-33 0 -55 19t-22 50q0 82 152 165q-31 -7 -69 -7q-135 0 -201 79.5t-34 207.5l74 295q14 49 8.5 80.5t-36.5 45.5v2h203v-2q-37 -14 -56 -43t-33 -83l-74 -294q-28 -111 17.5 -176.5t140.5 -65.5q105 0 165 58.5t91 185.5l73 292q13 49 5.5 80t-38.5 46v2h157
v-2q-38 -15 -60 -45t-34 -81l-74 -297q-51 -209 -178 -263q-130 -82 -130 -160q0 -46 51 -46q58 0 108 57l3 -2q-63 -98 -154 -98z" />
    <glyph glyph-name="uogonek" unicode="&#x173;" horiz-adv-x="561" 
d="M339 -237q-33 0 -55 19t-22 50q0 78 140 159q-4 -1 -12 -1q-42 0 -63.5 27.5t-9.5 74.5l17 69q-84 -171 -201 -171q-62 0 -90.5 47t-11.5 113l59 235q9 36 -2 58t-41 41v2h153l-84 -337q-26 -105 55 -105q53 0 108 57.5t83 171.5l53 213h85l-99 -398q-11 -43 21.5 -55
t75.5 12l1 -2q-21 -21 -46 -36q-122 -74 -122 -155q0 -46 51 -46q58 0 108 57l3 -2q-63 -98 -154 -98z" />
    <glyph glyph-name="Wcircumflex" unicode="&#x174;" horiz-adv-x="956" 
d="M710 743q-72 40 -108 84q-49 -34 -168 -84h-8q130 95 198 187h4q16 -93 90 -187h-8zM568 -10l-46 548l-318 -548h-8l-56 602q-4 43 -14 62.5t-38 43.5v2h203v-2q-39 -14 -53.5 -28.5t-14.5 -45.5q0 -12 1 -27l41 -444l253 428l-1 11q-4 41 -14.5 61.5t-37.5 44.5v2h201
v-2q-40 -13 -54 -28t-14 -47q0 -11 1 -24l33 -457l263 437q25 42 25 67q0 32 -38 52v2h162v-2q-39 -24 -59 -43.5t-46 -62.5l-363 -602h-8z" />
    <glyph glyph-name="wcircumflex" unicode="&#x175;" horiz-adv-x="797" 
d="M596 552q-63 38 -107 97q-66 -50 -169 -97h-8q129 101 198 204h4q16 -102 90 -204h-8zM506 486l-73 -244q-23 -78 -23 -128q0 -98 85 -98q57 0 103.5 51t69 118.5t22.5 129.5q0 109 -75 109q-44 0 -59 -35v9q0 42 23.5 70t62.5 28q48 0 75 -36t27 -95q0 -85 -34 -170.5
t-98 -145t-139 -59.5q-60 0 -102.5 38t-44.5 95q-21 -59 -64.5 -96t-95.5 -37q-66 0 -103 39.5t-37 101.5q0 21 6.5 43t17.5 44t27 46.5t35 48.5l40.5 50l43.5 53l-41 -2q-73 -4 -99.5 -13.5t-43.5 -42.5v6q0 53 23.5 88.5t62.5 35.5q18 0 58 -15t59 -19l22 38h21
q-77 -126 -112.5 -201t-35.5 -135q0 -54 24.5 -84.5t68.5 -30.5q88 0 136 156l57 188q4 15 4 29q0 40 -47 70v2h153z" />
    <glyph glyph-name="Ycircumflex" unicode="&#x176;" horiz-adv-x="632" 
d="M550 743q-72 40 -108 84q-49 -34 -168 -84h-8q130 95 198 187h4q16 -93 90 -187h-8zM720 700v-2q-35 -22 -57 -42t-58 -62l-260 -302l-43 -172q-9 -33 -9 -55q0 -44 42 -63v-2h-205v2q39 15 59 41t32 77l43 172l-112 302q-16 41 -28 62t-36 42v2h183v-2q-47 -24 -47 -62
q0 -14 6 -29l105 -285l239 280q23 28 23 50q0 28 -32 46v2h155z" />
    <glyph glyph-name="ycircumflex" unicode="&#x177;" horiz-adv-x="540" 
d="M463 552q-63 38 -107 97q-66 -50 -169 -97h-8q129 101 198 204h4q16 -102 90 -204h-8zM505 486l-105 -420q-41 -163 -107.5 -232t-179.5 -69q-70 0 -119.5 32.5t-49.5 83.5q0 33 21.5 53t52.5 20q27 0 49 -17q-46 -6 -46 -66q0 -40 24.5 -64t67.5 -24q78 0 120.5 61.5
t74.5 191.5l31 125q-92 -171 -206 -171q-50 0 -79 32t-29 82q0 22 6 46l59 235q4 15 4 29q0 41 -47 70v2h153l-84 -337q-6 -23 -6 -43q0 -62 57 -62t114.5 57t85.5 172l53 213h85z" />
    <glyph glyph-name="Ydieresis" unicode="&#x178;" horiz-adv-x="632" 
d="M529 889q26 0 42 -16t16 -40q0 -26 -19 -44.5t-46 -18.5q-24 0 -40 15.5t-16 38.5q0 27 18.5 46t44.5 19zM349 889q26 0 42 -16t16 -40q0 -26 -19 -44.5t-46 -18.5q-24 0 -40 15.5t-16 38.5q0 27 18.5 46t44.5 19zM720 700v-2q-35 -22 -57 -42t-58 -62l-260 -302
l-43 -172q-9 -33 -9 -55q0 -44 42 -63v-2h-205v2q39 15 59 41t32 77l43 172l-112 302q-16 41 -28 62t-36 42v2h183v-2q-47 -24 -47 -62q0 -14 6 -29l105 -285l239 280q23 28 23 50q0 28 -32 46v2h155z" />
    <glyph glyph-name="Zacute" unicode="&#x179;" horiz-adv-x="661" 
d="M487 915h109q-78 -91 -207 -164h-4q70 78 102 164zM489 0h-544v2l629 672h-165q-70 0 -117 -17t-80.5 -46.5t-92.5 -96.5h-2l80 193q11 -7 46 -7h459v-2l-626 -672h145q94 0 153 18.5t98.5 53t94.5 106.5h2z" />
    <glyph glyph-name="zacute" unicode="&#x17a;" horiz-adv-x="493" 
d="M347 749h110q-83 -101 -209 -188h-4q71 89 103 188zM275 -15q-31 0 -64.5 18.5t-57.5 40t-54.5 40t-57.5 18.5q-39 0 -39 -36q0 -25 22.5 -34t52.5 2q-17 -44 -56 -44q-23 0 -39 15t-16 40q0 27 13 51.5t31.5 43t52.5 39t62.5 34.5t76.5 35l97 43.5t72 40t56 47.5
q-20 -14 -43 -14q-31 0 -105 23t-122 23q-70 0 -104 -68h-2q13 72 50 112.5t87 40.5q31 0 62 -17.5t52 -38t48.5 -38t52.5 -17.5q33 0 33 30q0 22 -20.5 32.5t-50.5 3.5q15 38 56 38q21 0 36 -14.5t15 -38.5q0 -22 -8.5 -42t-31 -40t-39.5 -33t-57 -33l-58.5 -29t-67.5 -31
l-85.5 -39.5t-62 -35.5t-48.5 -42q22 12 42 12q33 0 117.5 -27t131.5 -27q31 0 60 17.5t44 51.5h2q-13 -77 -50 -115t-86 -38z" />
    <glyph glyph-name="Zdotaccent" unicode="&#x17b;" horiz-adv-x="661" 
d="M461 892q26 0 42 -16t16 -40q0 -27 -18.5 -46t-46.5 -19q-26 0 -42 16t-16 40q0 27 18.5 46t46.5 19zM489 0h-544v2l629 672h-165q-70 0 -117 -17t-80.5 -46.5t-92.5 -96.5h-2l80 193q11 -7 46 -7h459v-2l-626 -672h145q94 0 153 18.5t98.5 53t94.5 106.5h2z" />
    <glyph glyph-name="zdotaccent" unicode="&#x17c;" horiz-adv-x="493" 
d="M319 716q26 0 42 -16t16 -40q0 -27 -18.5 -46t-46.5 -19q-26 0 -42 16t-16 40q0 27 18.5 46t46.5 19zM275 -15q-31 0 -64.5 18.5t-57.5 40t-54.5 40t-57.5 18.5q-39 0 -39 -36q0 -25 22.5 -34t52.5 2q-17 -44 -56 -44q-23 0 -39 15t-16 40q0 27 13 51.5t31.5 43t52.5 39
t62.5 34.5t76.5 35l97 43.5t72 40t56 47.5q-20 -14 -43 -14q-31 0 -105 23t-122 23q-70 0 -104 -68h-2q13 72 50 112.5t87 40.5q31 0 62 -17.5t52 -38t48.5 -38t52.5 -17.5q33 0 33 30q0 22 -20.5 32.5t-50.5 3.5q15 38 56 38q21 0 36 -14.5t15 -38.5q0 -22 -8.5 -42
t-31 -40t-39.5 -33t-57 -33l-58.5 -29t-67.5 -31l-85.5 -39.5t-62 -35.5t-48.5 -42q22 12 42 12q33 0 117.5 -27t131.5 -27q31 0 60 17.5t44 51.5h2q-13 -77 -50 -115t-86 -38z" />
    <glyph glyph-name="Zcaron" unicode="&#x17d;" horiz-adv-x="661" 
d="M346 930q72 -40 108 -84q49 34 168 84h8q-130 -95 -198 -187h-4q-16 93 -90 187h8zM489 0h-544v2l629 672h-165q-70 0 -117 -17t-80.5 -46.5t-92.5 -96.5h-2l80 193q11 -7 46 -7h459v-2l-626 -672h145q94 0 153 18.5t98.5 53t94.5 106.5h2z" />
    <glyph glyph-name="zcaron" unicode="&#x17e;" horiz-adv-x="493" 
d="M201 757q63 -38 107 -97q66 50 169 97h8q-129 -101 -198 -204h-4q-16 102 -90 204h8zM275 -15q-31 0 -64.5 18.5t-57.5 40t-54.5 40t-57.5 18.5q-39 0 -39 -36q0 -25 22.5 -34t52.5 2q-17 -44 -56 -44q-23 0 -39 15t-16 40q0 27 13 51.5t31.5 43t52.5 39t62.5 34.5
t76.5 35l97 43.5t72 40t56 47.5q-20 -14 -43 -14q-31 0 -105 23t-122 23q-70 0 -104 -68h-2q13 72 50 112.5t87 40.5q31 0 62 -17.5t52 -38t48.5 -38t52.5 -17.5q33 0 33 30q0 22 -20.5 32.5t-50.5 3.5q15 38 56 38q21 0 36 -14.5t15 -38.5q0 -22 -8.5 -42t-31 -40
t-39.5 -33t-57 -33l-58.5 -29t-67.5 -31l-85.5 -39.5t-62 -35.5t-48.5 -42q22 12 42 12q33 0 117.5 -27t131.5 -27q31 0 60 17.5t44 51.5h2q-13 -77 -50 -115t-86 -38z" />
    <glyph glyph-name="florin" unicode="&#x192;" horiz-adv-x="484" 
d="M-39 -188q-57 0 -91 20t-34 56q0 31 20 48.5t53 17.5t53 -18q-23 1 -38 -15t-15 -45q0 -23 14 -35.5t38 -12.5q39 0 63.5 41.5t45.5 117.5l97 356h-101l6 18h100l40 149q27 99 80.5 149.5t124.5 50.5q57 0 91 -20t34 -56q0 -31 -20 -48.5t-53 -17.5t-53 18q23 -1 38 15
t15 45q0 23 -14 35.5t-38 12.5q-39 0 -63.5 -41.5t-45.5 -117.5l-47 -174h125l-6 -18h-124l-90 -331q-27 -99 -80.5 -149.5t-124.5 -50.5z" />
    <glyph glyph-name="Aringacute" unicode="&#x1fa;" horiz-adv-x="700" 
d="M536 1078h109q-37 -43 -81 -76t-116 -74h-4q39 43 57 73.5t35 76.5zM374 822q0 36 31 64t71 28q38 0 63 -24.5t25 -61.5q0 -36 -31 -64t-71 -28q-38 0 -63 24.5t-25 61.5zM464 759q30 0 52.5 21t22.5 48q0 28 -18.5 45.5t-46.5 17.5q-30 0 -52.5 -21t-22.5 -48
q0 -28 18.5 -45.5t46.5 -17.5zM159 260h285l-56 322zM67 2v-2h-154v2q36 23 54 42.5t53 69.5l423 596h5l112 -596q9 -49 18 -69.5t35 -42.5v-2h-208v2q40 18 54.5 33t14.5 39q0 12 -3 28l-23 132h-307l-72 -101q-34 -49 -34 -81t32 -50z" />
    <glyph glyph-name="aringacute" unicode="&#x1fb;" horiz-adv-x="563" 
d="M396 868h109q-37 -43 -81 -76t-116 -74h-4q39 43 57 73.5t35 76.5zM234 612q0 36 31 64t71 28q38 0 63 -24.5t25 -61.5q0 -36 -31 -64t-71 -28q-38 0 -63 24.5t-25 61.5zM399 618q0 28 -18.5 45.5t-46.5 17.5q-30 0 -52.5 -21t-22.5 -48q0 -28 18.5 -45.5t46.5 -17.5
q30 0 52.5 21t22.5 48zM397 -10q-34 0 -55 19t-21 57q0 22 11 57q-73 -133 -182 -133q-70 0 -110.5 47.5t-40.5 128.5q0 129 79.5 229.5t190.5 100.5q55 0 88.5 -30.5t42.5 -77.5q34 75 116 108q-25 -74 -51 -176l-57 -232q-11 -43 21.5 -55t75.5 12l1 -2q-53 -53 -109 -53z
M182 34q56 0 104.5 52.5t69.5 133.5l20 79q7 29 7 56q0 52 -28 79t-70 27q-57 0 -103.5 -45t-71 -112t-24.5 -138q0 -63 24.5 -97.5t71.5 -34.5z" />
    <glyph glyph-name="AEacute" unicode="&#x1fc;" horiz-adv-x="1040" 
d="M818 915h109q-78 -91 -207 -164h-4q70 78 102 164zM584 669l-338 -369h246zM66 2v-2h-153v2q24 15 43.5 31t37 35l43.5 46l462 503q23 23 23 39q0 23 -43 42v2h496q41 0 56 7l-7 -173h-2q-22 75 -60 107.5t-118 32.5h-174l-76 -306h137q61 0 93.5 21t74.5 90h2l-58 -233
h-2q-8 65 -29.5 80.5t-86.5 15.5h-137l-79 -316h184q87 0 144 39.5t124 128.5h2l-76 -194h-527v2q37 14 56 43t33 83l36 146h-263l-157 -172q-36 -40 -36 -59q0 -23 37 -41z" />
    <glyph glyph-name="aeacute" unicode="&#x1fd;" horiz-adv-x="769" 
d="M535 749h110q-83 -101 -209 -188h-4q71 89 103 188zM500 -10q-64 0 -110 31t-66 87q-72 -118 -174 -118q-70 0 -110.5 47.5t-40.5 128.5q0 129 79.5 229.5t190.5 100.5q51 0 83.5 -26t43.5 -67q86 93 204 93q62 0 100 -30t38 -76q0 -79 -90.5 -119t-245.5 -45
q-3 -24 -3 -47q0 -77 35 -114.5t97 -37.5q94 0 167 95h4q-27 -63 -81.5 -97.5t-120.5 -34.5zM600 476q-69 0 -124.5 -71.5t-71.5 -166.5q252 19 252 173q0 29 -14.5 47t-41.5 18zM182 34q38 0 74 25.5t62 67.5q-7 25 -7 58q0 110 70 199q-9 38 -35 57.5t-61 19.5
q-57 0 -103.5 -45t-71 -112t-24.5 -138q0 -63 24.5 -97.5t71.5 -34.5z" />
    <glyph glyph-name="Oslashacute" unicode="&#x1fe;" horiz-adv-x="740" 
d="M525 915h109q-78 -91 -207 -164h-4q70 78 102 164zM130 251q0 -55 15 -102l447 413q-20 57 -62 91t-102 34q-82 0 -148.5 -58t-105.5 -153q-44 -107 -44 -225zM312 13q82 0 148.5 58t105.5 153q44 107 44 225q0 45 -11 89l-446 -412q47 -113 159 -113zM312 -10
q-133 0 -210 88l-100 -92l-15 17l100 93q-53 75 -53 180q0 181 117 307.5t277 126.5q142 0 218 -97l98 90l15 -17l-99 -92q46 -71 46 -170q0 -181 -117 -307.5t-277 -126.5z" />
    <glyph glyph-name="oslashacute" unicode="&#x1ff;" horiz-adv-x="527" 
d="M367 749h110q-83 -101 -209 -188h-4q71 89 103 188zM96 169q0 -25 3 -47l275 252q-16 102 -97 102q-52 0 -95.5 -53t-66.5 -132q-19 -65 -19 -122zM197 10q52 0 95.5 53t66.5 132q19 65 19 122q0 20 -1 30l-274 -251q21 -86 94 -86zM197 -10q-91 0 -145 59l-81 -74
l-17 14l85 78q-33 46 -34 118q0 124 79.5 217.5t192.5 93.5q102 0 154 -70l79 72l17 -14l-83 -76q25 -45 25 -107q0 -124 -79.5 -217.5t-192.5 -93.5z" />
    <glyph glyph-name="Scommaaccent" unicode="&#x218;" horiz-adv-x="574" 
d="M531 504q-19 84 -69.5 135t-128.5 51q-75 0 -115.5 -42.5t-40.5 -105.5q0 -52 32.5 -86t79 -52.5l93 -38t79 -57t32.5 -94.5q0 -103 -74 -163.5t-181 -60.5q-56 0 -119.5 18.5t-75.5 18.5q-26 0 -65 -23l34 214h2q25 -97 81.5 -152.5t142.5 -55.5q84 0 128 49.5t44 118.5
q0 42 -23 72.5t-58 45.5l-75.5 33t-75.5 36t-58 54t-23 86q0 91 68 148t168 57q58 0 115.5 -18.5t68.5 -18.5q23 0 56 22l-40 -191h-2zM72 -254l3 14q54 6 80.5 29t32.5 62q-17 -12 -39 -12q-19 0 -32 12t-14 29q0 27 19.5 45t47.5 18t44.5 -18t16.5 -50q0 -49 -42.5 -88
t-116.5 -41z" />
    <glyph glyph-name="scommaaccent" unicode="&#x219;" horiz-adv-x="426" 
d="M56 351q0 62 52 103.5t128 41.5q64 0 109 -27.5t45 -70.5q0 -28 -17.5 -44.5t-44.5 -16.5q-29 0 -45 19q17 1 27.5 15t10.5 37q0 34 -23.5 52.5t-66.5 18.5q-46 0 -75 -25.5t-29 -63.5q0 -31 19 -53t72 -54q65 -39 92.5 -69.5t27.5 -71.5q0 -66 -57 -109t-138 -43
q-73 0 -122 30.5t-49 77.5q0 30 18.5 47.5t45.5 17.5q33 0 52 -19q-19 -1 -31 -15t-12 -36q0 -38 27.5 -62t73.5 -24q51 0 84.5 28t33.5 71q0 29 -21 53.5t-70 52.5q-60 35 -88.5 65t-28.5 74zM3 -254l3 14q54 6 80.5 29t32.5 62q-17 -12 -39 -12q-19 0 -32 12t-14 29
q0 27 19.5 45t47.5 18t44.5 -18t16.5 -50q0 -49 -42.5 -88t-116.5 -41z" />
    <glyph glyph-name="uni0237" unicode="&#x237;" horiz-adv-x="243" 
d="M204 486l-114 -458q-36 -145 -83.5 -204t-122.5 -59q-53 0 -87 22t-34 60q0 33 23 54t58 21q30 0 44 -11q-52 -15 -52 -76q0 -24 12.5 -39t35.5 -15q36 0 59 46.5t54 169.5l97 388q4 15 4 29q0 41 -47 70v2h153z" />
    <glyph glyph-name="circumflex" unicode="&#x2c6;" 
d="M428 552q-63 38 -107 97q-66 -50 -169 -97h-8q129 101 198 204h4q16 -102 90 -204h-8z" />
    <glyph glyph-name="caron" unicode="&#x2c7;" 
d="M211 757q63 -38 107 -97q66 50 169 97h8q-129 -101 -198 -204h-4q-16 102 -90 204h8z" />
    <glyph glyph-name="breve" unicode="&#x2d8;" 
d="M484 742q-17 -79 -64.5 -126.5t-108.5 -47.5q-60 0 -88.5 47.5t-12.5 126.5h8q-6 -52 26 -78t81 -26t92.5 26t58.5 78h8z" />
    <glyph glyph-name="dotaccent" unicode="&#x2d9;" 
d="M331 716q26 0 42 -16t16 -40q0 -27 -18.5 -46t-46.5 -19q-26 0 -42 16t-16 40q0 27 18.5 46t46.5 19z" />
    <glyph glyph-name="ring" unicode="&#x2da;" 
d="M232 659q0 38 31.5 68t71.5 30q38 0 63.5 -25.5t25.5 -65.5q0 -38 -31.5 -68t-71.5 -30q-38 0 -63.5 25.5t-25.5 65.5zM399 666q0 30 -19 48.5t-47 18.5q-30 0 -53 -22.5t-23 -51.5q0 -30 19 -48.5t47 -18.5q30 0 53 22.5t23 51.5z" />
    <glyph glyph-name="ogonek" unicode="&#x2db;" 
d="M44 -168q0 51 55.5 99.5t142.5 88.5l3 -7q-132 -82 -132 -161q0 -46 51 -46q58 0 108 57l3 -2q-63 -98 -154 -98q-33 0 -55 19t-22 50z" />
    <glyph glyph-name="tilde" unicode="&#x2dc;" 
d="M518 718q-63 -136 -138 -136q-26 0 -68 34.5t-68 34.5q-52 0 -102 -73h-10q63 136 138 136q26 0 68 -34.5t68 -34.5q52 0 102 73h10z" />
    <glyph glyph-name="hungarumlaut" unicode="&#x2dd;" 
d="M394 749h110q-83 -101 -209 -188h-4q71 89 103 188zM252 749h110q-83 -101 -209 -188h-4q71 89 103 188z" />
    <glyph glyph-name="Wgrave" unicode="&#x1e80;" horiz-adv-x="956" 
d="M590 915q-3 -71 37 -164h-4q-88 74 -128 164h95zM568 -10l-46 548l-318 -548h-8l-56 602q-4 43 -14 62.5t-38 43.5v2h203v-2q-39 -14 -53.5 -28.5t-14.5 -45.5q0 -12 1 -27l41 -444l253 428l-1 11q-4 41 -14.5 61.5t-37.5 44.5v2h201v-2q-40 -13 -54 -28t-14 -47
q0 -11 1 -24l33 -457l263 437q25 42 25 67q0 32 -38 52v2h162v-2q-39 -24 -59 -43.5t-46 -62.5l-363 -602h-8z" />
    <glyph glyph-name="wgrave" unicode="&#x1e81;" horiz-adv-x="797" 
d="M474 749q-3 -82 37 -188h-4q-89 86 -129 188h96zM506 486l-73 -244q-23 -78 -23 -128q0 -98 85 -98q57 0 103.5 51t69 118.5t22.5 129.5q0 109 -75 109q-44 0 -59 -35v9q0 42 23.5 70t62.5 28q48 0 75 -36t27 -95q0 -85 -34 -170.5t-98 -145t-139 -59.5q-60 0 -102.5 38
t-44.5 95q-21 -59 -64.5 -96t-95.5 -37q-66 0 -103 39.5t-37 101.5q0 21 6.5 43t17.5 44t27 46.5t35 48.5l40.5 50l43.5 53l-41 -2q-73 -4 -99.5 -13.5t-43.5 -42.5v6q0 53 23.5 88.5t62.5 35.5q18 0 58 -15t59 -19l22 38h21q-77 -126 -112.5 -201t-35.5 -135
q0 -54 24.5 -84.5t68.5 -30.5q88 0 136 156l57 188q4 15 4 29q0 40 -47 70v2h153z" />
    <glyph glyph-name="Wacute" unicode="&#x1e82;" horiz-adv-x="956" 
d="M629 915h109q-78 -91 -207 -164h-4q70 78 102 164zM568 -10l-46 548l-318 -548h-8l-56 602q-4 43 -14 62.5t-38 43.5v2h203v-2q-39 -14 -53.5 -28.5t-14.5 -45.5q0 -12 1 -27l41 -444l253 428l-1 11q-4 41 -14.5 61.5t-37.5 44.5v2h201v-2q-40 -13 -54 -28t-14 -47
q0 -11 1 -24l33 -457l263 437q25 42 25 67q0 32 -38 52v2h162v-2q-39 -24 -59 -43.5t-46 -62.5l-363 -602h-8z" />
    <glyph glyph-name="wacute" unicode="&#x1e83;" horiz-adv-x="797" 
d="M502 749h110q-83 -101 -209 -188h-4q71 89 103 188zM506 486l-73 -244q-23 -78 -23 -128q0 -98 85 -98q57 0 103.5 51t69 118.5t22.5 129.5q0 109 -75 109q-44 0 -59 -35v9q0 42 23.5 70t62.5 28q48 0 75 -36t27 -95q0 -85 -34 -170.5t-98 -145t-139 -59.5
q-60 0 -102.5 38t-44.5 95q-21 -59 -64.5 -96t-95.5 -37q-66 0 -103 39.5t-37 101.5q0 21 6.5 43t17.5 44t27 46.5t35 48.5l40.5 50l43.5 53l-41 -2q-73 -4 -99.5 -13.5t-43.5 -42.5v6q0 53 23.5 88.5t62.5 35.5q18 0 58 -15t59 -19l22 38h21q-77 -126 -112.5 -201
t-35.5 -135q0 -54 24.5 -84.5t68.5 -30.5q88 0 136 156l57 188q4 15 4 29q0 40 -47 70v2h153z" />
    <glyph glyph-name="Wdieresis" unicode="&#x1e84;" horiz-adv-x="956" 
d="M688 889q26 0 42 -16t16 -40q0 -26 -19 -44.5t-46 -18.5q-24 0 -40 15.5t-16 38.5q0 27 18.5 46t44.5 19zM508 889q26 0 42 -16t16 -40q0 -26 -19 -44.5t-46 -18.5q-24 0 -40 15.5t-16 38.5q0 27 18.5 46t44.5 19zM568 -10l-46 548l-318 -548h-8l-56 602q-4 43 -14 62.5
t-38 43.5v2h203v-2q-39 -14 -53.5 -28.5t-14.5 -45.5q0 -12 1 -27l41 -444l253 428l-1 11q-4 41 -14.5 61.5t-37.5 44.5v2h201v-2q-40 -13 -54 -28t-14 -47q0 -11 1 -24l33 -457l263 437q25 42 25 67q0 32 -38 52v2h162v-2q-39 -24 -59 -43.5t-46 -62.5l-363 -602h-8z" />
    <glyph glyph-name="wdieresis" unicode="&#x1e85;" horiz-adv-x="797" 
d="M570 699q26 0 42 -16t16 -40q0 -26 -19 -44.5t-46 -18.5q-24 0 -40 15.5t-16 38.5q0 27 18.5 46t44.5 19zM390 699q26 0 42 -16t16 -40q0 -26 -19 -44.5t-46 -18.5q-24 0 -40 15.5t-16 38.5q0 27 18.5 46t44.5 19zM506 486l-73 -244q-23 -78 -23 -128q0 -98 85 -98
q57 0 103.5 51t69 118.5t22.5 129.5q0 109 -75 109q-44 0 -59 -35v9q0 42 23.5 70t62.5 28q48 0 75 -36t27 -95q0 -85 -34 -170.5t-98 -145t-139 -59.5q-60 0 -102.5 38t-44.5 95q-21 -59 -64.5 -96t-95.5 -37q-66 0 -103 39.5t-37 101.5q0 21 6.5 43t17.5 44t27 46.5
t35 48.5l40.5 50l43.5 53l-41 -2q-73 -4 -99.5 -13.5t-43.5 -42.5v6q0 53 23.5 88.5t62.5 35.5q18 0 58 -15t59 -19l22 38h21q-77 -126 -112.5 -201t-35.5 -135q0 -54 24.5 -84.5t68.5 -30.5q88 0 136 156l57 188q4 15 4 29q0 40 -47 70v2h153z" />
    <glyph glyph-name="Ygrave" unicode="&#x1ef2;" horiz-adv-x="632" 
d="M431 915q-3 -71 37 -164h-4q-88 74 -128 164h95zM720 700v-2q-35 -22 -57 -42t-58 -62l-260 -302l-43 -172q-9 -33 -9 -55q0 -44 42 -63v-2h-205v2q39 15 59 41t32 77l43 172l-112 302q-16 41 -28 62t-36 42v2h183v-2q-47 -24 -47 -62q0 -14 6 -29l105 -285l239 280
q23 28 23 50q0 28 -32 46v2h155z" />
    <glyph glyph-name="ygrave" unicode="&#x1ef3;" horiz-adv-x="540" 
d="M341 749q-3 -82 37 -188h-4q-89 86 -129 188h96zM505 486l-105 -420q-41 -163 -107.5 -232t-179.5 -69q-70 0 -119.5 32.5t-49.5 83.5q0 33 21.5 53t52.5 20q27 0 49 -17q-46 -6 -46 -66q0 -40 24.5 -64t67.5 -24q78 0 120.5 61.5t74.5 191.5l31 125q-92 -171 -206 -171
q-50 0 -79 32t-29 82q0 22 6 46l59 235q4 15 4 29q0 41 -47 70v2h153l-84 -337q-6 -23 -6 -43q0 -62 57 -62t114.5 57t85.5 172l53 213h85z" />
    <glyph glyph-name="endash" unicode="&#x2013;" horiz-adv-x="488" 
d="M12 262l6 27h420l-6 -27h-420z" />
    <glyph glyph-name="emdash" unicode="&#x2014;" horiz-adv-x="788" 
d="M13 262l6 27h720l-6 -27h-720z" />
    <glyph glyph-name="quoteleft" unicode="&#x2018;" horiz-adv-x="200" 
d="M122 585q17 10 37 10q24 0 38 -15t14 -37q0 -29 -20 -47.5t-50 -18.5q-32 0 -50 23t-18 58q0 74 62 125t145 54l-3 -16q-66 -7 -109.5 -45.5t-45.5 -90.5z" />
    <glyph glyph-name="quoteright" unicode="&#x2019;" horiz-adv-x="200" 
d="M205 622q-17 -10 -37 -10q-24 0 -38 15t-14 37q0 29 20 47.5t50 18.5q32 0 50 -23t18 -58q0 -74 -62 -125t-145 -54l3 16q66 7 109.5 45.5t45.5 90.5z" />
    <glyph glyph-name="quotesinglbase" unicode="&#x201a;" horiz-adv-x="200" 
d="M53 10q-17 -10 -37 -10q-24 0 -38 15t-14 37q0 29 20 47.5t50 18.5q32 0 50 -23t18 -58q0 -74 -62 -125t-145 -54l3 16q66 7 109.5 45.5t45.5 90.5z" />
    <glyph glyph-name="quotedblleft" unicode="&#x201c;" horiz-adv-x="383" 
d="M305 585q17 10 37 10q24 0 38 -15t14 -37q0 -29 -20 -47.5t-50 -18.5q-32 0 -50 23t-18 58q0 74 62 125t145 54l-3 -16q-66 -7 -109.5 -45.5t-45.5 -90.5zM122 585q17 10 37 10q24 0 38 -15t14 -37q0 -29 -20 -47.5t-50 -18.5q-32 0 -50 23t-18 58q0 74 62 125t145 54
l-3 -16q-66 -7 -109.5 -45.5t-45.5 -90.5z" />
    <glyph glyph-name="quotedblright" unicode="&#x201d;" horiz-adv-x="383" 
d="M168 612q-24 0 -38 15t-14 37q0 29 20 47.5t50 18.5q32 0 50 -23t18 -58q0 -74 -62 -125t-145 -54l3 16q66 7 109.5 45.5t45.5 90.5q-17 -10 -37 -10zM351 612q-24 0 -38 15t-14 37q0 29 20 47.5t50 18.5q32 0 50 -23t18 -58q0 -74 -62 -125t-145 -54l3 16
q66 7 109.5 45.5t45.5 90.5q-17 -10 -37 -10z" />
    <glyph glyph-name="quotedblbase" unicode="&#x201e;" horiz-adv-x="383" 
d="M236 10q-17 -10 -37 -10q-24 0 -38 15t-14 37q0 29 20 47.5t50 18.5q32 0 50 -23t18 -58q0 -74 -62 -125t-145 -54l3 16q66 7 109.5 45.5t45.5 90.5zM53 10q-17 -10 -37 -10q-24 0 -38 15t-14 37q0 29 20 47.5t50 18.5q32 0 50 -23t18 -58q0 -74 -62 -125t-145 -54l3 16
q66 7 109.5 45.5t45.5 90.5z" />
    <glyph glyph-name="dagger" unicode="&#x2020;" horiz-adv-x="372" 
d="M278 559q-77 -177 -115 -317h-8q20 88 31 202l12 115q1 11 -6.5 18.5t-21.5 7.5q-22 -39 -56 -39q-12 0 -20 7t-8 18q0 34 40 42q-2 -18 17 -18q6 0 18.5 3t20.5 3q15 0 30.5 -8t19.5 -20q20 91 4 152q26 24 47 24t35 -24q-46 -62 -72 -152q11 12 32 20t36 8q8 0 19.5 -3
t17.5 -3q18 0 25 18q24 -5 24 -28q0 -15 -12.5 -27t-28.5 -12q-38 0 -41 39q-30 0 -40 -26z" />
    <glyph glyph-name="daggerdbl" unicode="&#x2021;" horiz-adv-x="372" 
d="M223 480h-8q11 54 -5.5 99t-33.5 45q-23 -39 -53 -39q-12 0 -19.5 8t-7.5 18q0 31 41 41q-2 -18 16 -18q6 0 19 3t21 3q15 0 30.5 -8t19.5 -20q12 64 -7 110q20 27 48 27q29 0 34 -27q-44 -48 -61 -110q10 12 31.5 20t36.5 8q8 0 19 -3t17 -3q19 0 26 18q21 -5 23 -27
q0 -16 -12 -28t-29 -12q-33 0 -35 39q-17 0 -56 -45t-55 -99zM209 459h8q-11 -54 5.5 -99t33.5 -45q23 39 53 39q12 0 19.5 -8t7.5 -18q0 -31 -41 -41q2 18 -16 18q-6 0 -19 -3t-21 -3q-15 0 -30.5 8t-19.5 20q-12 -64 7 -110q-20 -27 -48 -27q-29 0 -34 27q44 48 61 110
q-10 -12 -31.5 -20t-36.5 -8q-8 0 -19 3t-17 3q-19 0 -26 -18q-21 5 -23 27q0 16 12 28t29 12q33 0 35 -39q17 0 56 45t55 99z" />
    <glyph glyph-name="bullet" unicode="&#x2022;" horiz-adv-x="305" 
d="M18 270q0 47 34 81t81 34t81 -34t34 -81t-34 -81t-81 -34t-81 34t-34 81z" />
    <glyph glyph-name="ellipsis" unicode="&#x2026;" horiz-adv-x="591" 
d="M106 59q0 -28 -20 -48t-48 -20t-48 19.5t-20 48.5t19.5 49t48.5 20q28 0 48 -20t20 -49zM291 59q0 -28 -20 -48t-48 -20q-29 0 -48.5 19.5t-19.5 48.5t19.5 49t48.5 20q28 0 48 -20t20 -49zM477 59q0 -28 -20 -48t-48 -20q-29 0 -48.5 19.5t-19.5 48.5t19.5 49t48.5 20
q28 0 48 -20t20 -49z" />
    <glyph glyph-name="perthousand" unicode="&#x2030;" horiz-adv-x="968" 
d="M34 0h-39l582 668q-22 -16 -62 -27.5t-77 -11.5q-58 0 -108 28q25 -34 25 -80q0 -62 -46.5 -110.5t-111.5 -48.5q-51 0 -86.5 39.5t-35.5 93.5q0 62 46.5 110.5t111.5 48.5q37 0 94 -31t111 -31q98 0 188 71l10 -9zM192 435q38 0 66.5 57.5t28.5 118.5q0 82 -49 82
q-38 0 -66 -57t-29 -119q-2 -82 49 -82zM415 -5q-51 0 -86.5 39.5t-35.5 93.5q0 62 46.5 110.5t111.5 48.5q51 0 86.5 -39.5t35.5 -93.5q0 -62 -46.5 -110.5t-111.5 -48.5zM737 -5q-51 0 -86.5 39.5t-35.5 93.5q0 62 46.5 110.5t111.5 48.5q51 0 86.5 -39.5t35.5 -93.5
q0 -62 -46.5 -110.5t-111.5 -48.5zM410 12q38 0 66.5 57.5t28.5 118.5q0 82 -49 82q-38 0 -66 -57t-29 -119q-2 -82 49 -82zM732 12q38 0 66.5 57.5t28.5 118.5q0 82 -49 82q-38 0 -66 -57t-29 -119q-2 -82 49 -82z" />
    <glyph glyph-name="guilsinglleft" unicode="&#x2039;" horiz-adv-x="283" 
d="M-6 243v2q168 80 284 180h4q-82 -110 -170 -189q61 -98 80 -173h-4q-70 102 -194 180z" />
    <glyph glyph-name="guilsinglright" unicode="&#x203a;" horiz-adv-x="283" 
d="M237 245v-2q-168 -80 -284 -180h-4q82 110 170 189q-61 98 -80 173h4q70 -102 194 -180z" />
    <glyph glyph-name="fraction" unicode="&#x2044;" horiz-adv-x="347" 
d="M-106 -123l512 872h29l-512 -872h-29z" />
    <glyph glyph-name="Euro" unicode="&#x20ac;" horiz-adv-x="616" 
d="M557 201q-35 -107 -100.5 -159t-146.5 -52q-93 0 -154.5 66t-61.5 192q0 14 2 42h-85l5 18h81q4 35 14 75h-77l5 18h77q40 135 136.5 222.5t206.5 87.5q77 0 123.5 -34t46.5 -94q0 -46 -30 -74.5t-71 -28.5q-23 0 -42.5 10t-26.5 24q6 -1 10 -1q34 0 57.5 23.5t23.5 63.5
q0 92 -91 92q-84 0 -153 -84t-101 -207h214l-12 -18h-206q-8 -33 -13 -75h176l-12 -18h-165q-2 -28 -2 -42q0 -99 41.5 -153.5t111.5 -54.5q137 0 213 161h6z" />
    <glyph glyph-name="trademark" unicode="&#x2122;" horiz-adv-x="833" 
d="M167 700h232q17 0 27 3l-9 -93h-2q-10 20 -16 36.5t-18.5 27t-32.5 10.5h-38l-60 -239q-5 -22 -1.5 -29.5t19.5 -17.5l-1 -2h-121l1 2q20 10 28 18t14 29l60 239h-40q-20 0 -38 -10.5t-32 -27l-32 -36.5h-2l37 93q9 -3 25 -3zM606 486l145 214h93v-2q-20 -10 -26.5 -18
t-11.5 -29l-52 -207q-4 -22 -1.5 -29t16.5 -17l-1 -2h-113l1 2q14 8 19 12t10 12t8 22l54 217l-185 -270h-2l-49 270l-54 -217q-4 -22 -1.5 -29t16.5 -17l-1 -2h-73l1 2q14 8 19 12t10 12t8 22l52 207q4 23 1.5 29.5t-15.5 17.5v2h90z" />
    <glyph glyph-name="uni2153" unicode="&#x2153;" horiz-adv-x="405" 
d="M193 453l51 204q4 18 -4 25t-39 12l1 6h116l-62 -247q-4 -18 3.5 -25t37.5 -12l-1 -6h-165l1 6q33 5 45 12t16 25zM387 358l-4 -16h-365l4 16h365zM243 91q0 -46 -39 -70.5t-91 -24.5q-32 0 -61.5 15.5t-29.5 48.5q0 24 15.5 38.5t38.5 14.5q34 0 40 -25h-1q-3 5 -12 5
q-14 0 -22 -11.5t-8 -26.5q0 -45 40 -45q30 0 48.5 28.5t18.5 63.5q0 46 -53 49v8q37 1 57.5 26.5t20.5 58.5q0 36 -31 36q-21 0 -34 -13t-13 -33q0 -21 17 -23q6 0 11 3h1q-13 -19 -40 -19q-17 0 -27.5 9t-10.5 25q0 31 28.5 48t67.5 17q38 0 65 -17t27 -46
q0 -33 -28 -52.5t-69 -23.5q32 -4 53 -21t21 -43z" />
    <glyph glyph-name="uni2154" unicode="&#x2154;" horiz-adv-x="405" 
d="M322 646q0 19 -10.5 30.5t-28.5 11.5q-27 0 -43.5 -15t-16.5 -41q0 -30 25 -30q12 0 21 6h1q-19 -32 -53 -32q-19 0 -30.5 12t-11.5 31q0 39 33.5 62t75.5 23t69 -17.5t27 -51.5q0 -35 -25 -64t-67.5 -53t-97.5 -58h67q37 0 54 6.5t39 30.5h5l-34 -87h-209v3l125 101
t66 67t19 65zM387 358l-4 -16h-365l4 16h365zM243 91q0 -46 -39 -70.5t-91 -24.5q-32 0 -61.5 15.5t-29.5 48.5q0 24 15.5 38.5t38.5 14.5q34 0 40 -25h-1q-3 5 -12 5q-14 0 -22 -11.5t-8 -26.5q0 -45 40 -45q30 0 48.5 28.5t18.5 63.5q0 46 -53 49v8q37 1 57.5 26.5
t20.5 58.5q0 36 -31 36q-21 0 -34 -13t-13 -33q0 -21 17 -23q6 0 11 3h1q-13 -19 -40 -19q-17 0 -27.5 9t-10.5 25q0 31 28.5 48t67.5 17q38 0 65 -17t27 -46q0 -33 -28 -52.5t-69 -23.5q32 -4 53 -21t21 -43z" />
    <glyph glyph-name="uni215B" unicode="&#x215b;" horiz-adv-x="405" 
d="M193 453l51 204q4 18 -4 25t-39 12l1 6h116l-62 -247q-4 -18 3.5 -25t37.5 -12l-1 -6h-165l1 6q33 5 45 12t16 25zM387 358l-4 -16h-365l4 16h365zM130 -4q-44 0 -74 19t-30 52q0 31 24.5 51t57.5 24q-37 22 -37 58q0 41 30.5 67.5t75.5 26.5q32 0 58.5 -15.5t26.5 -44.5
q0 -28 -22.5 -46.5t-51.5 -21.5q61 -30 61 -71q0 -46 -35.5 -72.5t-83.5 -26.5zM183 169q17 8 28 27.5t11 40.5q0 19 -12 31t-34 12t-37.5 -14t-15.5 -37q0 -28 29 -44zM129 11q25 0 44 15.5t19 39.5q0 29 -35 48l-45 25q-18 -10 -30.5 -29t-12.5 -42q0 -25 17 -41t43 -16z
" />
    <glyph glyph-name="uni215C" unicode="&#x215c;" horiz-adv-x="405" 
d="M222 503q-14 0 -22 -11.5t-8 -26.5q0 -45 40 -45q30 0 48.5 28.5t18.5 63.5q0 46 -53 49v8q37 1 57.5 26.5t20.5 58.5q0 36 -31 36q-21 0 -34 -13t-13 -33q0 -21 17 -23q7 0 11 3h1q-13 -19 -40 -19q-17 0 -27.5 9t-10.5 25q0 31 28.5 48t67.5 17q38 0 65 -17t27 -46
q0 -33 -28 -52.5t-69 -23.5q32 -4 53 -21t21 -43q0 -46 -39 -70.5t-91 -24.5q-32 0 -61.5 15.5t-29.5 48.5q0 24 15.5 38.5t38.5 14.5q34 0 40 -25h-1q-3 5 -12 5zM387 358l-4 -16h-365l4 16h365zM130 -4q-44 0 -74 19t-30 52q0 31 24.5 51t57.5 24q-37 22 -37 58
q0 41 30.5 67.5t75.5 26.5q32 0 58.5 -15.5t26.5 -44.5q0 -28 -22.5 -46.5t-51.5 -21.5q61 -30 61 -71q0 -46 -35.5 -72.5t-83.5 -26.5zM183 169q17 8 28 27.5t11 40.5q0 19 -12 31t-34 12t-37.5 -14t-15.5 -37q0 -28 29 -44zM129 11q25 0 44 15.5t19 39.5q0 29 -35 48
l-45 25q-18 -10 -30.5 -29t-12.5 -42q0 -25 17 -41t43 -16z" />
    <glyph glyph-name="uni215D" unicode="&#x215d;" horiz-adv-x="405" 
d="M340 520q0 -51 -39 -82t-93 -31q-31 0 -60.5 16t-29.5 47q0 23 15.5 37t37.5 14q34 0 40 -24q-5 5 -12 5q-14 0 -22.5 -12t-8.5 -27q0 -43 40 -43q32 0 50.5 31t18.5 67q0 59 -49 60q-34 0 -61 -27l48 153q45 -8 86 -8q51 0 71 17h1q-16 -73 -85 -73q-39 0 -76 14
l-26 -79q28 21 72 20q37 -1 59.5 -21t22.5 -54zM387 358l-4 -16h-365l4 16h365zM130 -4q-44 0 -74 19t-30 52q0 31 24.5 51t57.5 24q-37 22 -37 58q0 41 30.5 67.5t75.5 26.5q32 0 58.5 -15.5t26.5 -44.5q0 -28 -22.5 -46.5t-51.5 -21.5q61 -30 61 -71q0 -46 -35.5 -72.5
t-83.5 -26.5zM183 169q17 8 28 27.5t11 40.5q0 19 -12 31t-34 12t-37.5 -14t-15.5 -37q0 -28 29 -44zM129 11q25 0 44 15.5t19 39.5q0 29 -35 48l-45 25q-18 -10 -30.5 -29t-12.5 -42q0 -25 17 -41t43 -16z" />
    <glyph glyph-name="uni215E" unicode="&#x215e;" horiz-adv-x="405" 
d="M154 602h-5l33 98h206l-1 -1l-71 -80q-72 -80 -91 -205l-71 -7q37 106 148 215l20 20h-105q-21 0 -33 -8t-30 -32zM387 358l-4 -16h-365l4 16h365zM130 -4q-44 0 -74 19t-30 52q0 31 24.5 51t57.5 24q-37 22 -37 58q0 41 30.5 67.5t75.5 26.5q32 0 58.5 -15.5t26.5 -44.5
q0 -28 -22.5 -46.5t-51.5 -21.5q61 -30 61 -71q0 -46 -35.5 -72.5t-83.5 -26.5zM183 169q17 8 28 27.5t11 40.5q0 19 -12 31t-34 12t-37.5 -14t-15.5 -37q0 -28 29 -44zM129 11q25 0 44 15.5t19 39.5q0 29 -35 48l-45 25q-18 -10 -30.5 -29t-12.5 -42q0 -25 17 -41t43 -16z
" />
    <glyph glyph-name="minus" unicode="&#x2212;" horiz-adv-x="479" 
d="M34 309l6 26h391l-6 -26h-391z" />
    <glyph glyph-name="approxequal" unicode="&#x2248;" horiz-adv-x="484" 
d="M39 334l8 34q66 52 116 52q35 0 84 -28t81 -28q54 0 125 58l-8 -34q-66 -52 -116 -52q-35 0 -84 28t-81 28q-54 0 -125 -58zM141 285q-54 0 -125 -58l8 34q66 52 116 52q34 0 84 -28t81 -28q54 0 125 58l-8 -34q-66 -52 -116 -52q-34 0 -84 28t-81 28z" />
    <glyph glyph-name="notequal" unicode="&#x2260;" horiz-adv-x="484" 
d="M173 248l-109 -103h-33l109 103h-119l6 25h140l106 100h-221l6 25h241l107 101h33l-107 -101h118l-6 -25h-138l-106 -100h219l-6 -25h-240z" />
    <glyph glyph-name="lessequal" unicode="&#x2264;" horiz-adv-x="351" 
d="M32 347l3 12l316 125l-7 -31l-261 -102l210 -102l-7 -27zM-20 139l6 25h285l-6 -25h-285z" />
    <glyph glyph-name="greaterequal" unicode="&#x2265;" horiz-adv-x="351" 
d="M322 359l-3 -12l-316 -125l7 31l261 102l-210 102l7 27zM272 164l-6 -25h-285l6 25h285z" />
    <glyph glyph-name="commaaccent" unicode="&#xf6c3;" 
d="M196 -125q0 -49 -42.5 -88t-116.5 -41l3 14q54 6 80.5 29t32.5 62q-17 -12 -39 -12q-19 0 -32 12t-14 29q0 27 19.5 45t47.5 18t44.5 -18t16.5 -50z" />
    <glyph glyph-name="CR" 
 />
    <glyph glyph-name="thinspace" horiz-adv-x="40" 
 />
    <glyph glyph-name="E.1" horiz-adv-x="642" 
d="M565 194l-76 -194h-527v2q37 14 56 43t33 83l111 444q10 40 10 63q0 45 -38 63v2h145l-21 -82q150 92 266 92q52 0 86 -23t34 -70q0 -49 -40 -93h-2q4 13 4 30q0 46 -40 72t-108 26q-104 0 -204 -52l-58 -232h137q61 0 93.5 21t74.5 90h2l-58 -233h-2q-8 65 -29.5 80.5
t-86.5 15.5h-137l-79 -316h184q87 0 144 39.5t124 128.5h2z" />
    <glyph glyph-name="F.1" horiz-adv-x="603" 
d="M187 2v-2h-225v2q37 14 56 43t33 83l111 444q10 40 10 63q0 45 -38 63v2h146l-20 -81q142 91 255 91q52 0 86 -23t34 -70q0 -49 -40 -93h-2q4 13 4 30q0 46 -40 72t-108 26q-100 0 -194 -51l-60 -240h130q61 0 93.5 21t74.5 90h2l-58 -233h-2q-8 65 -29.5 80.5
t-86.5 15.5h-131l-54 -216q-8 -30 -8 -48q0 -24 14 -40t47 -29z" />
    <glyph glyph-name="idotaccent" horiz-adv-x="263" 
d="M202 716q26 0 42 -16t16 -40q0 -27 -18.5 -46t-46.5 -19q-26 0 -42 16t-16 40q0 27 18.5 46t46.5 19zM202 486l-99 -398q-3 -10 -3 -19q0 -19 12.5 -29.5t32.5 -10.5q23 0 55 16l1 -2q-53 -53 -109 -53q-35 0 -56 19t-21 53q0 15 4 30l73 293q4 15 4 29q0 40 -47 70v2
h153z" />
    <glyph glyph-name="caron.Slovak" 
d="M392 749q-20 -47 -64.5 -108.5t-82.5 -96.5h-3q46 93 62 205h88z" />
    <glyph glyph-name="commaturn" 
d="M257 634q0 49 42.5 88t116.5 41l-3 -14q-54 -6 -80.5 -29t-32.5 -62q17 12 39 12q19 0 32 -12t14 -29q0 -27 -19.5 -45t-47.5 -18t-44.5 18t-16.5 50z" />
    <glyph glyph-name="dotbelow" 
d="M128 -76q26 0 44.5 -18.5t18.5 -44.5t-18.5 -44t-44.5 -18t-44.5 18t-18.5 44t18.5 44.5t44.5 18.5z" />
    <glyph glyph-name="grave.cap" 
d="M400 915q-3 -71 37 -164h-4q-88 74 -128 164h95z" />
    <glyph glyph-name="acute.cap" 
d="M367 915h109q-78 -91 -207 -164h-4q70 78 102 164z" />
    <glyph glyph-name="circumflex.cap" 
d="M486 743q-72 40 -108 84q-49 -34 -168 -84h-8q130 95 198 187h4q16 -93 90 -187h-8z" />
    <glyph glyph-name="tilde.cap" 
d="M565 908q-63 -136 -138 -136q-27 0 -68 34.5t-68 34.5q-52 0 -102 -73h-10q63 136 138 136q27 0 68 -34.5t68 -34.5q52 0 102 73h10z" />
    <glyph glyph-name="macron.cap" 
d="M496 780h-276l8 35h276z" />
    <glyph glyph-name="breve.cap" 
d="M529 919q-17 -77 -63.5 -119t-109.5 -42q-61 0 -88.5 41.5t-12.5 119.5h8q-6 -44 26.5 -67.5t80.5 -23.5t92.5 24t58.5 67h8z" />
    <glyph glyph-name="dotaccent.cap" 
d="M375 892q26 0 42 -16t16 -40q0 -27 -18.5 -46t-46.5 -19q-26 0 -42 16t-16 40q0 27 18.5 46t46.5 19z" />
    <glyph glyph-name="dieresis.cap" 
d="M462 889q26 0 42 -16t16 -40q0 -26 -19 -44.5t-46 -18.5q-24 0 -40 15.5t-16 38.5q0 27 18.5 46t44.5 19zM282 889q26 0 42 -16t16 -40q0 -26 -19 -44.5t-46 -18.5q-24 0 -40 15.5t-16 38.5q0 27 18.5 46t44.5 19z" />
    <glyph glyph-name="ring.cap" 
d="M280 849q0 38 31.5 68t71.5 30q38 0 63.5 -25.5t25.5 -65.5q0 -38 -31.5 -68t-71.5 -30q-38 0 -63.5 25.5t-25.5 65.5zM371 782q30 0 53 22.5t23 51.5q0 30 -19 48.5t-47 18.5q-30 0 -53 -22.5t-23 -51.5q0 -30 19 -48.5t47 -18.5z" />
    <glyph glyph-name="hungarumlaut.cap" 
d="M287 915h109q-78 -91 -207 -164h-4q70 78 102 164zM447 915h109q-78 -91 -207 -164h-4q70 78 102 164z" />
    <glyph glyph-name="caron.cap" 
d="M257 930q72 -40 108 -84q49 34 168 84h8q-130 -95 -198 -187h-4q-16 93 -90 187h8z" />
    <glyph glyph-name="exclamdown.cap" horiz-adv-x="260" 
d="M137 642q0 28 19.5 48t48.5 20q28 0 48 -20t20 -48q0 -29 -20 -49t-48 -20q-29 0 -48.5 20t-19.5 49zM114 1h-126l184 496h5z" />
    <glyph glyph-name="questiondown.cap" horiz-adv-x="474" 
d="M339 573q-29 0 -48.5 20t-19.5 49q0 28 19.5 48t48.5 20q28 0 48 -20t20 -48q0 -29 -20 -49t-48 -20zM202 -9q-89 0 -143.5 49.5t-54.5 122.5q0 97 72 159t191 77l25 101h23l-45 -182q-86 -7 -141.5 -52t-55.5 -129q0 -61 35 -93.5t94 -32.5q58 0 93.5 35t35.5 90
q0 25 -12.5 38.5t-32.5 13.5q-24 0 -39 -11h-2q33 58 87 58q33 0 55 -24.5t22 -59.5q0 -75 -61.5 -117.5t-145.5 -42.5z" />
    <glyph glyph-name="guilsinglleft.cap" horiz-adv-x="283" 
d="M19 343v2q168 80 284 180h4q-82 -110 -170 -189q61 -98 80 -173h-4q-70 102 -194 180z" />
    <glyph glyph-name="guilsinglright.cap" horiz-adv-x="283" 
d="M262 345v-2q-168 -80 -284 -180h-4q82 110 170 189q-61 98 -80 173h4q70 -102 194 -180z" />
    <glyph glyph-name="guillemotleft.cap" horiz-adv-x="453" 
d="M189 343v2q168 80 284 180h4q-82 -110 -170 -189q61 -98 80 -173h-4q-70 102 -194 180zM19 345q168 80 284 180h4q-82 -110 -170 -189q61 -98 80 -173h-4q-70 102 -194 180v2z" />
    <glyph glyph-name="guillemotright.cap" horiz-adv-x="453" 
d="M262 345v-2q-168 -80 -284 -180h-4q82 110 170 189q-61 98 -80 173h4q70 -102 194 -180zM432 345v-2q-168 -80 -284 -180h-4q82 110 170 189q-61 98 -80 173h4q70 -102 194 -180z" />
    <glyph glyph-name="slash.cap" horiz-adv-x="343" 
d="M-102 -103l510 872h29l-510 -872h-29z" />
    <glyph glyph-name="backslash.cap" horiz-adv-x="343" 
d="M142 769l77 -872h-26l-77 872h26z" />
    <glyph glyph-name="bar.cap" horiz-adv-x="187" 
d="M-34 -103l218 872h27l-218 -872h-27z" />
    <glyph glyph-name="periodcentered.cap" horiz-adv-x="208" 
d="M171 344q0 -28 -20 -48t-48 -20q-29 0 -48.5 20t-19.5 48q0 29 19.5 49t48.5 20q28 0 48 -20t20 -49z" />
    <glyph glyph-name="bullet.cap" horiz-adv-x="305" 
d="M36 345q0 47 34 81t81 34t81 -34t34 -81t-34 -81t-81 -34t-81 34t-34 81z" />
    <glyph glyph-name="hyphen.cap" horiz-adv-x="317" 
d="M31 336l8 30h249l-8 -30h-249z" />
    <glyph glyph-name="endash.cap" horiz-adv-x="488" 
d="M31 337l6 27h420l-6 -27h-420z" />
    <glyph glyph-name="emdash.cap" horiz-adv-x="788" 
d="M32 337l6 27h720l-6 -27h-720z" />
    <glyph glyph-name="parenleft.cap" horiz-adv-x="319" 
d="M32 199q0 171 99.5 323.5t261.5 246.5h16q-126 -90 -212.5 -260.5t-86.5 -336.5q0 -185 82 -275h-16q-144 108 -144 302z" />
    <glyph glyph-name="parenright.cap" horiz-adv-x="319" 
d="M280 467q0 -171 -99.5 -323.5t-261.5 -246.5h-16q126 90 212.5 260.5t86.5 336.5q0 185 -82 275h16q144 -108 144 -302z" />
    <glyph glyph-name="bracketleft.cap" horiz-adv-x="297" 
d="M-28 -103l218 872h205v-4l-142 -29l-201 -805l127 -30v-4h-207z" />
    <glyph glyph-name="bracketright.cap" horiz-adv-x="297" 
d="M316 769l-218 -872h-205v4l142 29l201 805l-127 30v4h207z" />
    <glyph glyph-name="braceleft.cap" horiz-adv-x="350" 
d="M10 330l1 6q123 4 157 145q5 21 9 66t11 72q16 64 75.5 107t137.5 43q25 0 45 -4v-4q-63 0 -114.5 -39t-68.5 -108q-4 -16 -8.5 -66t-10.5 -73q-17 -67 -68 -102t-97 -40q35 -4 67 -29.5t32 -74.5q0 -38 -30.5 -108.5t-30.5 -110.5q0 -50 32 -77.5t84 -27.5v-4
q-23 -4 -49 -4q-66 0 -104.5 32.5t-38.5 83.5q0 38 30.5 110.5t30.5 115.5q0 87 -92 91z" />
    <glyph glyph-name="braceright.cap" horiz-adv-x="350" 
d="M332 336l-1 -6q-123 -4 -157 -145q-5 -21 -9 -66t-11 -72q-16 -64 -75.5 -107t-137.5 -43q-25 0 -45 4v4q63 0 114.5 39t68.5 108q4 16 8.5 66t10.5 73q17 67 68 102t97 40q-35 4 -67 29.5t-32 74.5q0 38 30.5 108.5t30.5 110.5q0 50 -32 77.5t-84 27.5v4q23 4 49 4
q66 0 104.5 -32.5t38.5 -83.5q0 -38 -30.5 -110.5t-30.5 -115.5q0 -87 92 -91z" />
    <glyph glyph-name="at.cap" horiz-adv-x="913" 
d="M692 543l-83 -291q-8 -29 -8 -46q0 -44 49 -44q62 0 124 81.5t62 205.5q0 132 -84.5 205.5t-221.5 73.5q-108 0 -206.5 -61t-159.5 -165.5t-61 -223.5q0 -153 93.5 -241t248.5 -88q189 0 324 101l4 -5q-127 -123 -330 -123q-182 0 -293.5 94.5t-111.5 261.5q0 130 70 240
t183 171t239 61q160 0 255.5 -77.5t95.5 -223.5q0 -76 -23.5 -138.5t-60.5 -100.5t-78.5 -58.5t-80.5 -20.5q-47 0 -73 27.5t-27 78.5q-55 -106 -144 -106q-59 0 -95.5 40t-36.5 109q0 106 67 185t158 79q46 0 77 -24t37 -57q15 24 41.5 48t49.5 32zM417 163q95 0 134 149
l21 78q8 25 8 51q0 39 -20 59t-51 20q-67 0 -116.5 -75t-49.5 -166q0 -51 19.5 -83.5t54.5 -32.5z" />
    <glyph glyph-name="published" horiz-adv-x="810" 
d="M382 -10q-143 0 -239.5 93t-96.5 236q0 169 113 280t273 111q143 0 239.5 -93t96.5 -236q0 -169 -113 -280t-273 -111zM67 321q0 -135 91 -222.5t226 -87.5q150 0 256.5 104.5t106.5 263.5q0 135 -91 222.5t-225 87.5q-151 0 -257.5 -104.5t-106.5 -263.5zM340 319
l-25 -101q-8 -27 -2.5 -42t30.5 -26v-2h-146v2q21 9 32 25.5t19 46.5l66 261q8 29 4.5 46t-21.5 27v1h180q62 0 96.5 -24.5t34.5 -70.5q0 -70 -54 -106.5t-134 -36.5h-80zM344 335h63q58 0 94 35.5t36 95.5q0 76 -81 76h-61z" />
    <glyph glyph-name="florin.op" horiz-adv-x="491" 
d="M-34 -188q-57 0 -91 20t-34 56q0 31 20 48.5t53 17.5t53 -18q-23 1 -38 -15t-15 -45q0 -23 14 -35.5t38 -12.5q39 0 63.5 41.5t45.5 117.5l81 295h-103l6 18h102l38 136q27 99 80.5 149.5t124.5 50.5q57 0 91 -20t34 -56q0 -31 -20 -48.5t-53 -17.5t-53 18q23 -1 38 15
t15 45q0 23 -14 35.5t-38 12.5q-39 0 -64.5 -42t-46.5 -117l-44 -161h124l-6 -18h-123l-75 -270q-27 -100 -79.5 -150t-123.5 -50z" />
    <glyph glyph-name="Euro.op" horiz-adv-x="596" 
d="M535 185q-77 -195 -243 -195q-95 0 -156 60t-61 174q0 6 0.5 18t0.5 18h-74l5 18h71q4 33 16 75h-69l5 18h70q40 115 129 190t197 76q79 1 126 -30t47 -85q0 -41 -28.5 -66.5t-68.5 -25.5q-22 0 -40.5 9t-25.5 21q5 -1 11 -1q32 0 54 21t22 57q0 81 -97 81
q-82 0 -145 -71t-94 -176h213l-12 -18h-206q-10 -42 -14 -75h177l-12 -18h-167q-1 -12 -1 -36q0 -84 41 -132.5t115 -48.5q63 0 114 31.5t95 110.5h5z" />
    <glyph glyph-name="dollar.op" horiz-adv-x="519" 
d="M305 616h-9l-61 -243q21 -10 60 -23l64 259q-21 7 -54 7zM149 473q0 -59 73 -94l59 236q-61 -8 -96.5 -48.5t-35.5 -93.5zM195 8h15l66 266q-2 1 -25 9t-35 13l-70 -282q22 -6 49 -6zM380 165q0 38 -23.5 61.5t-67.5 41.5l-64 -258q70 8 112.5 51t42.5 104zM195 -10
q-31 0 -54 4l-27 -108h-15l27 110q-71 13 -113 50t-42 83q0 37 25 60t61 23q35 0 53 -23q-27 0 -44 -19t-17 -51q0 -33 22.5 -60t60.5 -40l70 282q-61 24 -95 56t-34 89q0 77 59.5 129.5t152.5 57.5l24 95h15l-23 -94h4q29 0 59 -5l25 99h15l-25 -102q59 -14 94.5 -45
t35.5 -69q0 -31 -20 -51t-54 -20q-36 0 -55 21q22 0 40.5 17.5t18.5 44.5q0 25 -17 47t-49 34l-65 -260q69 -25 107 -56.5t38 -90.5q0 -88 -68 -144t-165 -63l-26 -105h-15l26 104h-10z" />
    <glyph glyph-name="sterling.op" horiz-adv-x="613" 
d="M402 -29q-46 0 -89 17.5t-72.5 41t-64.5 48.5q-68 -88 -154 -88q-35 0 -57.5 20t-22.5 53q0 40 29 63.5t72 23.5t96 -25q15 40 26 87q7 27 22 110h-105l4 18h104q7 46 16 92q18 91 84.5 147.5t163.5 56.5q67 0 110.5 -32t43.5 -79q0 -49 -29 -75t-69 -26q-23 0 -41.5 9.5
t-23.5 22.5q40 -7 66 19t26 68q0 35 -24.5 56.5t-59.5 21.5q-58 0 -93.5 -48.5t-56.5 -139.5l-21 -93h137l-4 -18h-137l-4 -18q-28 -123 -82 -203q106 -51 177 -51q57 0 89.5 23t32.5 65q0 25 -10 39q53 -23 53 -79q0 -57 -37.5 -92t-94.5 -35zM23 8q66 0 109 99
q-45 25 -90 25q-33 0 -56.5 -19t-23.5 -50q0 -25 16.5 -40t44.5 -15z" />
    <glyph glyph-name="yen.op" horiz-adv-x="593" 
d="M314 2v-2h-207v2q39 15 59 41t33 77l27 108h-186l5 18h185l8 31l-17 42h-156l5 18h144l-77 192q-27 65 -64 95v2h206v-2q-52 -24 -52 -69q0 -15 6 -31l84 -214l192 212q28 31 28 57q0 28 -27 45v2h150v-2q-53 -30 -112 -95l-173 -192h144l-5 -18h-155l-38 -42l-8 -31h181
l-5 -18h-180l-27 -108q-9 -33 -9 -56q0 -44 41 -62z" />
    <glyph glyph-name="zero.op" horiz-adv-x="568" 
d="M331 636q98 0 149.5 -69.5t51.5 -171.5q0 -65 -21.5 -135t-60 -131t-100 -100t-132.5 -39q-97 0 -148.5 70t-51.5 172q0 89 35.5 179.5t109.5 157.5t168 67zM218 9q70 0 124 88t80 213q18 83 18 140q0 78 -24 122.5t-85 44.5q-70 0 -124 -87.5t-80 -212.5
q-17 -80 -17 -141q0 -78 23.5 -122.5t84.5 -44.5z" />
    <glyph glyph-name="one.op" horiz-adv-x="356" 
d="M241 0h-299v4q34 11 56 17.5t36 14t21.5 18.5t12.5 30l113 454q3 14 3 22q0 14 -9.5 23t-30.5 17.5l-55 21.5v4h202l-135 -542q-3 -12 -3 -21q0 -15 9.5 -24t29 -16.5l49.5 -18.5v-4z" />
    <glyph glyph-name="two.op" horiz-adv-x="502" 
d="M293 617q-69 0 -106.5 -42.5t-37.5 -110.5q0 -31 16.5 -49t45.5 -18q26 0 47 14h1q-35 -58 -102 -58q-38 0 -65 26t-27 65q0 86 67 139t161 53q86 0 137.5 -37t51.5 -104t-47.5 -126t-141.5 -124l-233 -166h152q81 0 122 17.5t92 77.5h1l-66 -174h-425v2l154 123.5
l118 97.5t86 80.5t56.5 71t31.5 68.5t10 75q0 99 -99 99z" />
    <glyph glyph-name="three.op" horiz-adv-x="501" 
d="M167 8q80 0 121.5 56.5t41.5 133.5q0 124 -136 133v9q91 0 138 52.5t47 134.5q0 40 -23.5 66t-68.5 26q-46 0 -76 -27.5t-30 -69.5q0 -22 10.5 -35t27.5 -13q16 0 30 7h2q-30 -45 -78 -45q-30 0 -48.5 17.5t-18.5 47.5q0 61 53 98t128 37q76 0 129.5 -36t53.5 -97
q0 -69 -58.5 -114.5t-145.5 -54.5q68 -8 111.5 -45.5t43.5 -94.5q0 -97 -73 -150.5t-181 -53.5q-42 0 -84 12.5t-76.5 46t-34.5 81.5q0 47 29 76t73 29q30 0 50.5 -15.5t24.5 -42.5h-2q-11 15 -33 15q-27 0 -43.5 -22t-16.5 -55q0 -50 30 -78.5t83 -28.5z" />
    <glyph glyph-name="four.op" horiz-adv-x="600" 
d="M297 204l82 326l-333 -326h251zM389 2v-2h-200v2q37 14 56 43t33 83l12 49h-304l1 2l457 447h44l-105 -422h47q41 0 62.5 14.5t49.5 61.5h2l-45 -179h-2q-5 47 -19 61.5t-55 14.5h-47l-12 -49q-11 -41 -11 -66q0 -43 36 -60z" />
    <glyph glyph-name="five.op" horiz-adv-x="506" 
d="M168 8q83 0 129.5 67t46.5 150q0 138 -117 138q-37 0 -76 -18t-66 -45h-1l107 328q96 -16 176 -16q58 0 89 7t61 35h2q-34 -130 -175 -130q-76 0 -158 23l-63 -200q62 47 149 47q75 0 122 -44.5t47 -116.5q0 -103 -79.5 -173t-193.5 -70q-41 0 -81 12t-72.5 43.5
t-32.5 77.5q0 45 27.5 72.5t69.5 27.5q30 0 50 -14.5t24 -40.5h-2q-11 13 -32 13q-26 0 -42 -20.5t-16 -51.5q0 -48 28 -74.5t79 -26.5z" />
    <glyph glyph-name="six.op" horiz-adv-x="549" 
d="M420 535q25 0 42 21t17 55q0 38 -21.5 59t-61.5 21q-70 0 -133 -65t-100.5 -152t-48.5 -171q31 59 82 95.5t116 36.5q76 0 125.5 -48.5t49.5 -125.5q0 -114 -75 -192.5t-189 -78.5q-95 0 -147 73.5t-53 184.5q0 104 47.5 210t135.5 179t190 73q71 0 111.5 -33.5
t40.5 -89.5q0 -47 -26 -73t-63 -26q-31 0 -51.5 16t-24.5 43h2q12 -12 35 -12zM224 11q80 0 128 80.5t48 180.5q0 135 -110 135q-54 0 -96.5 -40.5t-63 -99.5t-20.5 -123q0 -60 28.5 -96.5t85.5 -36.5z" />
    <glyph glyph-name="seven.op" horiz-adv-x="486" 
d="M102 635q14 -9 54 -9h393v-2l-131 -139q-118 -125 -192 -256.5t-116 -293.5l-110 -10q30 84 72 160.5t99 149t106.5 128t124.5 131.5l51 52h-239q-67 0 -102.5 -18t-74.5 -74h-2z" />
    <glyph glyph-name="eight.op" horiz-adv-x="528" 
d="M487 504q0 -64 -49.5 -107.5t-117.5 -55.5q68 -32 101 -67.5t33 -84.5q0 -91 -73.5 -145t-168.5 -54q-90 0 -154.5 39.5t-64.5 117.5q0 68 56.5 114t132.5 59q-85 53 -85 131q0 81 63.5 133t151.5 52q69 0 122 -35.5t53 -96.5zM416 516q0 45 -27.5 74.5t-75.5 29.5
q-56 0 -95 -37t-39 -94q0 -72 73 -111l61 -32q44 22 73.5 68.5t29.5 101.5zM212 8q63 0 111 37.5t48 101.5q0 72 -85 119l-97 50q-49 -21 -82 -69t-33 -109t39 -95.5t99 -34.5z" />
    <glyph glyph-name="nine.op" horiz-adv-x="549" 
d="M305 614q-80 0 -128 -80.5t-48 -180.5q0 -135 110 -135q54 0 96.5 40.5t63 99.5t20.5 123q0 60 -28.5 96.5t-85.5 36.5zM110 90q-25 0 -42 -21t-17 -55q0 -38 21.5 -59t61.5 -21q70 0 133 65t100 152.5t48 170.5q-31 -59 -82 -95.5t-116 -36.5q-76 0 -125.5 48.5
t-49.5 125.5q0 114 75 192.5t189 78.5q95 0 147.5 -73.5t53.5 -184.5q0 -104 -47.5 -210t-135.5 -179t-190 -73q-71 0 -111.5 33.5t-40.5 89.5q0 47 26 73t63 26q31 0 51.5 -16t24.5 -43h-2q-12 12 -35 12z" />
    <glyph glyph-name="percent.op" horiz-adv-x="687" 
d="M75 0h-38l521 594q-22 -16 -62 -27.5t-77 -11.5q-58 0 -108 28q25 -34 25 -80q0 -62 -46.5 -110.5t-111.5 -48.5q-51 0 -86.5 39.5t-35.5 93.5q0 62 46.5 110.5t111.5 48.5q37 0 94 -31t111 -31q98 0 188 71l10 -9zM173 361q38 0 66.5 57.5t28.5 118.5q0 82 -49 82
q-38 0 -66 -57t-29 -119q-2 -82 49 -82zM456 -5q-51 0 -86.5 39.5t-35.5 93.5q0 62 46.5 110.5t111.5 48.5q51 0 86.5 -39.5t35.5 -93.5q0 -62 -46.5 -110.5t-111.5 -48.5zM451 12q38 0 66.5 57.5t28.5 118.5q0 82 -49 82q-38 0 -66 -57t-29 -119q-2 -82 49 -82z" />
    <glyph glyph-name="perthousand.op" horiz-adv-x="1008" 
d="M75 0h-38l521 594q-22 -16 -62 -27.5t-77 -11.5q-58 0 -108 28q25 -34 25 -80q0 -62 -46.5 -110.5t-111.5 -48.5q-51 0 -86.5 39.5t-35.5 93.5q0 62 46.5 110.5t111.5 48.5q37 0 94 -31t111 -31q98 0 188 71l10 -9zM173 361q38 0 66.5 57.5t28.5 118.5q0 82 -49 82
q-38 0 -66 -57t-29 -119q-2 -82 49 -82zM455 -5q-51 0 -86.5 39.5t-35.5 93.5q0 62 46.5 110.5t111.5 48.5q51 0 86.5 -39.5t35.5 -93.5q0 -62 -46.5 -110.5t-111.5 -48.5zM777 -5q-51 0 -86.5 39.5t-35.5 93.5q0 62 46.5 110.5t111.5 48.5q51 0 86.5 -39.5t35.5 -93.5
q0 -62 -46.5 -110.5t-111.5 -48.5zM450 12q38 0 66.5 57.5t28.5 118.5q0 82 -49 82q-38 0 -66 -57t-29 -119q-2 -82 49 -82zM772 12q38 0 66.5 57.5t28.5 118.5q0 82 -49 82q-38 0 -66 -57t-29 -119q-2 -82 49 -82z" />
    <glyph glyph-name="Edotaccent.1" horiz-adv-x="642" 
d="M432 892q26 0 42 -16t16 -40q0 -27 -18.5 -46t-46.5 -19q-26 0 -42 16t-16 40q0 27 18.5 46t46.5 19zM565 194l-76 -194h-527v2q37 14 56 43t33 83l111 444q10 40 10 63q0 45 -38 63v2h145l-21 -82q150 92 266 92q52 0 86 -23t34 -70q0 -49 -40 -93h-2q4 13 4 30
q0 46 -40 72t-108 26q-104 0 -204 -52l-58 -232h137q61 0 93.5 21t74.5 90h2l-58 -233h-2q-8 65 -29.5 80.5t-86.5 15.5h-137l-79 -316h184q87 0 144 39.5t124 128.5h2z" />
    <glyph glyph-name="Ecaron.1" horiz-adv-x="642" 
d="M317 930q72 -40 108 -84q49 34 168 84h8q-130 -95 -198 -187h-4q-16 93 -90 187h8zM565 194l-76 -194h-527v2q37 14 56 43t33 83l111 444q10 40 10 63q0 45 -38 63v2h145l-21 -82q150 92 266 92q52 0 86 -23t34 -70q0 -49 -40 -93h-2q4 13 4 30q0 46 -40 72t-108 26
q-104 0 -204 -52l-58 -232h137q61 0 93.5 21t74.5 90h2l-58 -233h-2q-8 65 -29.5 80.5t-86.5 15.5h-137l-79 -316h184q87 0 144 39.5t124 128.5h2z" />
    <glyph glyph-name="Eacute.1" horiz-adv-x="642" 
d="M458 915h109q-78 -91 -207 -164h-4q70 78 102 164zM565 194l-76 -194h-527v2q37 14 56 43t33 83l111 444q10 40 10 63q0 45 -38 63v2h145l-21 -82q150 92 266 92q52 0 86 -23t34 -70q0 -49 -40 -93h-2q4 13 4 30q0 46 -40 72t-108 26q-104 0 -204 -52l-58 -232h137
q61 0 93.5 21t74.5 90h2l-58 -233h-2q-8 65 -29.5 80.5t-86.5 15.5h-137l-79 -316h184q87 0 144 39.5t124 128.5h2z" />
    <glyph glyph-name="Edieresis.1" horiz-adv-x="642" 
d="M518 889q26 0 42 -16t16 -40q0 -26 -19 -44.5t-46 -18.5q-24 0 -40 15.5t-16 38.5q0 27 18.5 46t44.5 19zM338 889q26 0 42 -16t16 -40q0 -26 -19 -44.5t-46 -18.5q-24 0 -40 15.5t-16 38.5q0 27 18.5 46t44.5 19zM565 194l-76 -194h-527v2q37 14 56 43t33 83l111 444
q10 40 10 63q0 45 -38 63v2h145l-21 -82q150 92 266 92q52 0 86 -23t34 -70q0 -49 -40 -93h-2q4 13 4 30q0 46 -40 72t-108 26q-104 0 -204 -52l-58 -232h137q61 0 93.5 21t74.5 90h2l-58 -233h-2q-8 65 -29.5 80.5t-86.5 15.5h-137l-79 -316h184q87 0 144 39.5t124 128.5h2
z" />
    <glyph glyph-name="Ecircumflex.1" horiz-adv-x="642" 
d="M539 743q-72 40 -108 84q-49 -34 -168 -84h-8q130 95 198 187h4q16 -93 90 -187h-8zM565 194l-76 -194h-527v2q37 14 56 43t33 83l111 444q10 40 10 63q0 45 -38 63v2h145l-21 -82q150 92 266 92q52 0 86 -23t34 -70q0 -49 -40 -93h-2q4 13 4 30q0 46 -40 72t-108 26
q-104 0 -204 -52l-58 -232h137q61 0 93.5 21t74.5 90h2l-58 -233h-2q-8 65 -29.5 80.5t-86.5 15.5h-137l-79 -316h184q87 0 144 39.5t124 128.5h2z" />
    <glyph glyph-name="Ebreve.1" horiz-adv-x="642" 
d="M579 919q-17 -77 -63.5 -119t-109.5 -42q-61 0 -88.5 41.5t-12.5 119.5h8q-6 -44 26.5 -67.5t80.5 -23.5t92.5 24t58.5 67h8zM565 194l-76 -194h-527v2q37 14 56 43t33 83l111 444q10 40 10 63q0 45 -38 63v2h145l-21 -82q150 92 266 92q52 0 86 -23t34 -70
q0 -49 -40 -93h-2q4 13 4 30q0 46 -40 72t-108 26q-104 0 -204 -52l-58 -232h137q61 0 93.5 21t74.5 90h2l-58 -233h-2q-8 65 -29.5 80.5t-86.5 15.5h-137l-79 -316h184q87 0 144 39.5t124 128.5h2z" />
    <glyph glyph-name="Egrave.1" horiz-adv-x="642" 
d="M420 915q-3 -71 37 -164h-4q-88 74 -128 164h95zM565 194l-76 -194h-527v2q37 14 56 43t33 83l111 444q10 40 10 63q0 45 -38 63v2h145l-21 -82q150 92 266 92q52 0 86 -23t34 -70q0 -49 -40 -93h-2q4 13 4 30q0 46 -40 72t-108 26q-104 0 -204 -52l-58 -232h137
q61 0 93.5 21t74.5 90h2l-58 -233h-2q-8 65 -29.5 80.5t-86.5 15.5h-137l-79 -316h184q87 0 144 39.5t124 128.5h2z" />
    <glyph glyph-name="Eogonek.1" horiz-adv-x="642" 
d="M438 -139q-63 -98 -154 -98q-33 0 -55 19t-22 50q0 85 157 168h-402v2q37 14 56 43t33 83l111 444q10 40 10 63q0 45 -38 63v2h145l-21 -82q150 92 266 92q52 0 86 -23t34 -70q0 -49 -40 -93h-2q4 13 4 30q0 46 -40 72t-108 26q-104 0 -204 -52l-58 -232h137
q61 0 93.5 21t74.5 90h2l-58 -233h-2q-8 65 -29.5 80.5t-86.5 15.5h-137l-79 -316h184q87 0 144 39.5t124 128.5h2l-76 -194h-102q-111 -76 -111 -148q0 -46 51 -46q59 0 108 57z" />
    <glyph glyph-name="Emacron.1" horiz-adv-x="642" 
d="M552 780h-276l8 35h276zM565 194l-76 -194h-527v2q37 14 56 43t33 83l111 444q10 40 10 63q0 45 -38 63v2h145l-21 -82q150 92 266 92q52 0 86 -23t34 -70q0 -49 -40 -93h-2q4 13 4 30q0 46 -40 72t-108 26q-104 0 -204 -52l-58 -232h137q61 0 93.5 21t74.5 90h2
l-58 -233h-2q-8 65 -29.5 80.5t-86.5 15.5h-137l-79 -316h184q87 0 144 39.5t124 128.5h2z" />
    </font>
</defs>
</svg>
