<?xml version="1.0" standalone="no"?>
<!DOCTYPE svg PUBLIC "-//W3C//DTD SVG 1.1//EN" "http://www.w3.org/Graphics/SVG/1.1/DTD/svg11.dtd" >
<svg xmlns="http://www.w3.org/2000/svg">
<metadata></metadata>
<defs>
<font id="tagus_condlight" horiz-adv-x="350" >
<font-face units-per-em="2048" ascent="1720" descent="-328" />
<missing-glyph horiz-adv-x="364" />
<glyph horiz-adv-x="2048" />
<glyph horiz-adv-x="2048" />
<glyph unicode="&#xd;" horiz-adv-x="2048" />
<glyph unicode=" "  horiz-adv-x="364" />
<glyph unicode="&#x09;" horiz-adv-x="364" />
<glyph unicode="&#xa0;" horiz-adv-x="364" />
<glyph unicode="!" horiz-adv-x="348" d="M123 1464h102l-14 -1124h-72zM127 0v203h98v-203h-98z" />
<glyph unicode="&#x22;" horiz-adv-x="522" d="M115 1081v383h98v-190l-45 -193h-53zM315 1081v383h97v-190l-43 -193h-54z" />
<glyph unicode="#" horiz-adv-x="827" d="M68 408l6 67h137l68 539h-148l10 65h146l49 385h61l-49 -385h232l47 385h63l-45 -385h133l-6 -65h-137l-68 -539h142l-4 -67h-142l-49 -408h-68l52 408h-230l-49 -408h-65l49 408h-135zM276 475h226l71 539h-233z" />
<glyph unicode="$" horiz-adv-x="806" d="M72 459h96q5 -190 62 -290.5t186 -100.5q117 0 165 73.5t48 200.5q0 99 -44 175.5t-149 158.5l-129 104q-47 40 -76.5 69.5t-65 77t-53.5 103t-18 119.5q0 151 77 237.5t210 92.5v182h76v-184q250 -32 258 -402h-92q-16 322 -224 322q-103 0 -157 -67.5t-54 -164.5 q0 -65 27.5 -122t61.5 -91t88 -75l110 -91q55 -44 94.5 -83t78 -91.5t59 -115t20.5 -131.5q0 -354 -270 -379v-183h-76v183q-71 5 -125.5 32t-96 81t-64 144.5t-23.5 215.5z" />
<glyph unicode="%" horiz-adv-x="1134" d="M78 1071q0 201 51.5 307.5t149.5 106.5q202 0 202 -408q0 -199 -51 -308.5t-151 -109.5q-99 0 -150 105.5t-51 306.5zM150 1079q0 -354 131 -354q66 0 97.5 85t31.5 271q0 334 -131 334q-129 0 -129 -336zM301 0l490 1485l55 -15l-490 -1484zM655 391q0 414 203 414 q103 0 151 -101.5t48 -308.5q0 -197 -50 -304t-149 -107q-203 0 -203 407zM729 397q0 -346 131 -346q66 0 96.5 82t30.5 266q0 338 -129 338t-129 -340z" />
<glyph unicode="&#x26;" horiz-adv-x="995" d="M86 369q0 134 59 251.5t160 176.5q-131 223 -131 383q0 58 14.5 109.5t44.5 95.5t82.5 70t120.5 26q115 0 179.5 -79.5t64.5 -201.5q0 -136 -68.5 -246.5t-193.5 -183.5l63 -120q63 -119 123 -223.5t76 -115.5q64 148 113 355l75 -15q-44 -203 -141 -420 q21 -34 36.5 -55.5t39 -48t50.5 -40t56 -13.5q27 0 43 4l6 -78q-23 -6 -67 -6q-30 0 -58 10t-46 20.5t-43 36.5t-35 38.5t-35 45.5q-53 -76 -125 -118.5t-154 -42.5q-157 0 -233 104.5t-76 280.5zM178 377q0 -142 56.5 -226.5t168.5 -84.5q66 0 127 41.5t99 107.5 q-14 11 -60.5 89.5t-91.5 163.5t-88.5 167.5t-44.5 83.5q-81 -42 -123.5 -138t-42.5 -204zM264 1169q0 -113 119 -331q100 56 158.5 148.5t58.5 199.5q0 96 -42.5 157.5t-125.5 61.5q-61 0 -100.5 -37t-53.5 -87t-14 -112z" />
<glyph unicode="'" horiz-adv-x="323" d="M115 1081v383h98v-190l-45 -193h-53z" />
<glyph unicode="(" horiz-adv-x="419" d="M117 571q0 236 53 470t164 423h63q-96 -210 -145 -416.5t-49 -478.5q0 -492 196 -893h-65q-109 174 -163 423t-54 472z" />
<glyph unicode=")" horiz-adv-x="419" d="M20 -324q199 401 199 893q0 273 -49.5 479.5t-146.5 415.5h63q112 -189 165.5 -423t53.5 -470q0 -224 -54.5 -472.5t-164.5 -422.5h-66z" />
<glyph unicode="*" horiz-adv-x="638" d="M68 1303l32 55l187 -113v219h65v-219l185 113l34 -55l-188 -113l125 -178l-55 -37l-134 192l-135 -192l-53 37l121 178z" />
<glyph unicode="+" horiz-adv-x="811" d="M88 668v67h285v289h69v-289h281v-67h-281v-287h-69v287h-285z" />
<glyph unicode="," horiz-adv-x="323" d="M115 0v203h98v-191l-45 -194h-53l32 182h-32z" />
<glyph unicode="-" horiz-adv-x="524" d="M66 575v82h393v-82h-393z" />
<glyph unicode="." horiz-adv-x="323" d="M113 0v203h98v-203h-98z" />
<glyph unicode="/" horiz-adv-x="423" d="M-29 -324l340 1788h68l-336 -1788h-72z" />
<glyph unicode="0" horiz-adv-x="829" d="M80 731q0 385 81.5 567.5t254.5 182.5t254.5 -177.5t81.5 -564.5q0 -98 -5 -181.5t-18 -173.5t-37.5 -158.5t-60.5 -125t-90.5 -86.5t-124.5 -30q-336 0 -336 747zM180 754q0 -243 27.5 -395.5t79.5 -220.5t133 -68q120 0 174.5 157t54.5 516q0 343 -58.5 497.5 t-178.5 154.5q-116 0 -174 -153.5t-58 -487.5z" />
<glyph unicode="1" horiz-adv-x="608" d="M63 1126v101q84 21 149 82.5t75 152.5h88v-1462h-96v1284h-3q-20 -59 -81 -103t-132 -55z" />
<glyph unicode="2" horiz-adv-x="743" d="M76 1114q0 77 16.5 141t50.5 116t92.5 81t137.5 29q66 0 117.5 -23t83.5 -60t53 -89t29 -106.5t8 -115.5q0 -181 -72 -355.5t-205 -366.5l-188 -281h479v-84h-594v70l223 333q132 206 196 367t64 309q0 316 -205 316q-52 0 -91.5 -24t-61.5 -65t-32.5 -88t-10.5 -100 q0 -121 6 -170h-86q-10 49 -10 166z" />
<glyph unicode="3" horiz-adv-x="780" d="M78 1083q2 197 75.5 297.5t227.5 100.5q77 0 136 -29.5t94 -81t52 -114.5t17 -136q0 -130 -46 -221.5t-142 -122.5v-2q62 -16 107 -54.5t68.5 -90t34.5 -104.5t11 -109q0 -224 -89.5 -328t-240.5 -104q-83 0 -141 27t-91.5 80t-49.5 121t-19 161h92q5 -151 53 -229 t160 -78q225 0 225 360q0 145 -64 222t-169 77h-88v84h82q106 0 159.5 79t53.5 228q0 147 -61.5 213t-149.5 66q-100 0 -153 -79.5t-54 -232.5h-90z" />
<glyph unicode="4" horiz-adv-x="763" d="M57 336v90l406 1040h104v-1044h146v-86h-146v-336h-92v336h-418zM141 422h334v838h-6z" />
<glyph unicode="5" horiz-adv-x="782" d="M84 371h94q6 -155 53.5 -230t159.5 -75q225 0 225 407q0 107 -16.5 182t-47 115t-68 57t-85.5 17q-44 0 -78.5 -12t-61.5 -38t-39.5 -42t-35.5 -50l-84 9q33 645 35 753h531l-7 -86h-442l-33 -590h2q87 140 246 140q132 0 207.5 -105t75.5 -321q0 -269 -82 -393.5 t-248 -124.5q-151 0 -225 96t-76 291z" />
<glyph unicode="6" horiz-adv-x="811" d="M80 801q0 159 17.5 279.5t47.5 195.5t74 122t92 65t107 18q135 0 206.5 -100t82.5 -269h-93q-6 55 -19.5 103.5t-36 90.5t-59.5 66.5t-83 24.5q-126 0 -182 -149.5t-56 -452.5v-25q44 78 117 119t154 41q93 0 158.5 -58t95.5 -152.5t30 -215.5q0 -258 -82.5 -389 t-226.5 -131q-75 0 -134 42.5t-98 116t-64.5 178.5t-36.5 223.5t-11 256.5zM178 662q4 -273 72.5 -434.5t177.5 -161.5q94 0 150.5 108.5t56.5 314.5q0 169 -51 263t-158 94q-46 0 -88 -18.5t-73 -49.5t-51 -58.5t-36 -57.5z" />
<glyph unicode="7" horiz-adv-x="749" d="M55 1378v86h641v-86q-177 -266 -272 -618.5t-109 -759.5h-100q18 395 114 753.5t277 624.5h-551z" />
<glyph unicode="8" horiz-adv-x="788" d="M68 332q0 118 67 240.5t178 189.5q-225 188 -225 379q0 158 83 249t232 91q144 0 225 -90t81 -242q0 -119 -62.5 -212.5t-185.5 -172.5q258 -202 258 -428q0 -165 -87.5 -258.5t-242.5 -93.5q-69 0 -125 18.5t-101 58t-70 108.5t-25 163zM162 346q0 -52 11 -98.5t36 -89 t71 -67.5t109 -25q121 0 176.5 74.5t55.5 193.5q0 97 -71 193t-179 175q-81 -45 -145 -148.5t-64 -207.5zM184 1143q0 -71 58.5 -158t160.5 -164q89 48 154.5 137t65.5 185q0 107 -56.5 180.5t-163.5 73.5q-63 0 -108.5 -23t-68.5 -62.5t-32.5 -80.5t-9.5 -88z" />
<glyph unicode="9" horiz-adv-x="806" d="M80 977q0 255 81.5 379.5t225.5 124.5q68 0 122 -29t91 -84.5t62.5 -127t40 -167t20.5 -194t6 -217.5q0 -159 -17.5 -278.5t-47 -195t-74 -122t-93.5 -64.5t-110 -18q-135 0 -208.5 101t-82.5 273h92q6 -76 29.5 -140t69.5 -108t106 -44q126 0 182 152t56 452 q0 1 -1 21.5t-1 21.5q-49 -82 -121.5 -124t-153.5 -42q-93 0 -156 59t-90.5 153t-27.5 218zM176 993q0 -171 51 -266.5t158 -95.5q148 0 244 172q-10 594 -244 594q-95 0 -152 -97.5t-57 -306.5z" />
<glyph unicode=":" horiz-adv-x="323" d="M113 0v203h98v-203h-98zM113 915v203h98v-203h-98z" />
<glyph unicode=";" horiz-adv-x="323" d="M113 915v203h98v-203h-98zM115 0v203h98v-191l-45 -194h-53l32 182h-32z" />
<glyph unicode="&#x3c;" horiz-adv-x="811" d="M111 676v53l553 266l28 -57l-493 -236l487 -243l-31 -60z" />
<glyph unicode="=" horiz-adv-x="811" d="M88 530v68h635v-68h-635zM88 782v68h635v-68h-635z" />
<glyph unicode="&#x3e;" horiz-adv-x="811" d="M111 938l30 57l551 -266v-53l-545 -277l-30 60l485 243z" />
<glyph unicode="?" horiz-adv-x="718" d="M80 1102q1 208 73.5 293.5t213.5 85.5q128 0 201 -90.5t73 -253.5q0 -80 -27 -158.5t-66 -142t-78 -125.5t-66 -133.5t-27 -141.5v-94h-84v100q0 78 26.5 155t64 140.5t75 125t64 132t26.5 138.5q0 114 -52 189t-147 75q-40 0 -71 -12t-58.5 -42.5t-42 -91t-14.5 -149.5 h-84zM291 0v203h98v-203h-98z" />
<glyph unicode="@" horiz-adv-x="1409" d="M82 504q-2 211 40.5 389.5t125 309.5t210.5 204.5t290 73.5q125 0 230 -46.5t184 -136.5t123 -232.5t44 -324.5q0 -158 -21 -285.5t-63 -223.5t-111 -148.5t-161 -52.5q-77 0 -118 48.5t-46 139.5h-6q-34 -82 -93 -135t-128 -53q-66 0 -110 48.5t-61.5 120t-17.5 162.5 q0 98 11.5 198.5t39 202t67.5 179.5t102 127t137 49q96 0 168 -96l22 88h68l-117 -768q-6 -31 -6 -113q0 -53 25 -88t75 -35q80 0 137 56.5t86.5 154t42.5 202.5t13 226q0 321 -142.5 497.5t-376.5 176.5q-151 0 -267.5 -72t-187.5 -198.5t-107 -288.5t-36 -352 q0 -124 23 -236t71.5 -208.5t118.5 -167t168.5 -110.5t216.5 -40q103 0 185.5 19t189.5 59l21 -55q-180 -86 -412 -86q-204 0 -350.5 105t-220.5 288.5t-76 427.5zM483 373q0 -45 5.5 -86.5t18 -82.5t37.5 -66t60 -25q51 0 94.5 40.5t66.5 87t42 103.5l90 608 q-14 30 -57.5 60t-91.5 30q-50 0 -97 -46.5t-84.5 -130t-60.5 -212.5t-23 -280z" />
<glyph unicode="A" horiz-adv-x="837" d="M27 0l335 1466h117l334 -1466h-96l-90 401h-418l-92 -401h-90zM227 487h381l-188 848h-4z" />
<glyph unicode="B" horiz-adv-x="868" d="M127 0v1464h315q168 0 253 -87.5t85 -276.5q0 -128 -60 -222.5t-163 -115.5v-2q107 -25 172.5 -114.5t65.5 -235.5q0 -111 -25.5 -193t-71 -128t-101.5 -67.5t-124 -21.5h-346zM223 84h226q124 0 183.5 81.5t59.5 248.5q0 132 -70.5 217.5t-191.5 85.5h-207v-633z M223 801h232q103 0 164 79.5t61 211.5q0 143 -60.5 214.5t-191.5 71.5h-205v-577z" />
<glyph unicode="C" horiz-adv-x="872" d="M82 748q0 388 93.5 560.5t285.5 172.5q322 0 336 -463h-97q-3 173 -64 274t-181 101q-143 0 -207 -160t-64 -483q0 -250 33 -402t94 -215t156 -63q80 0 133 51.5t76.5 136.5t25.5 203h95q-4 -248 -92.5 -362.5t-239.5 -114.5q-96 0 -165 38t-119 125.5t-74.5 236 t-24.5 364.5z" />
<glyph unicode="D" horiz-adv-x="901" d="M127 0v1464h233q80 0 144.5 -17.5t125.5 -65.5t101.5 -126.5t65 -207t24.5 -299.5q0 -176 -23 -308.5t-61 -215t-95 -134t-119 -71t-138 -19.5h-258zM223 86h160q62 0 111.5 19.5t92 66t70.5 121t44 188.5t16 264q0 633 -338 633h-156v-1292z" />
<glyph unicode="E" horiz-adv-x="761" d="M127 0v1464h555v-86h-459v-569h355v-86h-355v-637h461v-86h-557z" />
<glyph unicode="F" horiz-adv-x="737" d="M127 0v1464h555v-86h-459v-571h355v-84h-355v-723h-96z" />
<glyph unicode="G" horiz-adv-x="907" d="M80 748q0 204 27.5 349t79 227.5t118.5 119.5t154 37q164 0 243.5 -117.5t85.5 -345.5h-96q-2 179 -60.5 278t-174.5 99q-145 0 -210 -161t-65 -478q0 -363 68 -524.5t217 -161.5q170 0 229 149v445h-266v79h363v-743h-54l-18 137q-75 -153 -268 -153q-69 0 -124 22 t-102.5 75.5t-79 139.5t-49.5 219t-18 308z" />
<glyph unicode="H" horiz-adv-x="909" d="M127 0v1464h96v-655h463v655h100v-1464h-100v723h-463v-723h-96z" />
<glyph unicode="I" d="M127 0v1464h96v-1464h-96z" />
<glyph unicode="J" horiz-adv-x="534" d="M33 -6l18 84q27 -8 76 -8q102 0 147 67t45 195v1132h99v-1136q0 -177 -65.5 -260.5t-215.5 -83.5q-70 0 -104 10z" />
<glyph unicode="K" horiz-adv-x="804" d="M127 0v1464h98v-782l445 782h100l-334 -587l340 -877h-108l-306 780l-137 -241v-539h-98z" />
<glyph unicode="L" horiz-adv-x="739" d="M127 0v1464h96v-1378h461v-86h-557z" />
<glyph unicode="M" horiz-adv-x="1140" d="M127 0v1464h149l293 -1228h2l297 1228h150v-1464h-96v1323h-4l-314 -1323h-80l-307 1323h-4v-1323h-86z" />
<glyph unicode="N" horiz-adv-x="921" d="M127 0v1464h106l469 -1188h7v1188h86v-1468h-88l-488 1239h-6v-1235h-86z" />
<glyph unicode="O" horiz-adv-x="919" d="M82 741q0 380 90.5 560t286.5 180q195 0 288 -180t93 -558q0 -103 -6.5 -189.5t-21.5 -176t-43 -157.5t-69 -123t-102 -84t-139 -29q-91 0 -158.5 40.5t-108.5 108t-66.5 168t-34.5 205t-9 235.5zM184 750q0 -247 35 -400.5t95 -216.5t149 -63q66 0 115 33.5t85.5 109.5 t55 208.5t18.5 321.5q0 182 -20.5 311.5t-59.5 202t-88 104.5t-114 32q-64 0 -112 -33t-84.5 -106.5t-55.5 -200t-19 -303.5z" />
<glyph unicode="P" horiz-adv-x="837" d="M127 0v1464h307q166 0 254 -102t88 -285q0 -197 -90 -303t-256 -106h-207v-668h-96zM223 752h193q260 0 260 317q0 66 -13.5 120.5t-42 97.5t-77.5 67t-115 24h-205v-626z" />
<glyph unicode="Q" horiz-adv-x="927" d="M80 741q0 380 91 560t288 180q194 0 287.5 -180.5t93.5 -557.5q0 -471 -133 -630q34 -35 67 -53.5t80 -18.5v-88q-12 -2 -35 -2q-93 0 -168 90q-77 -57 -192 -57q-66 0 -120 21.5t-93 58.5t-68.5 92.5t-47.5 118.5t-29.5 142t-16 156t-4.5 168zM182 750q0 -247 35 -400.5 t95.5 -216.5t150.5 -63q66 0 114 33.5t84.5 109.5t55 208.5t18.5 321.5q0 183 -20 312t-59 201.5t-88 104.5t-113 32q-65 0 -113.5 -33t-85 -106.5t-55.5 -200t-19 -303.5z" />
<glyph unicode="R" horiz-adv-x="864" d="M127 0v1464h309q164 0 250 -100t86 -285q0 -183 -72.5 -283.5t-210.5 -111.5l299 -678v-6h-102l-297 674h-166v-674h-96zM223 752h207q131 0 186.5 82t55.5 241q0 137 -60.5 219t-191.5 82h-197v-624z" />
<glyph unicode="S" horiz-adv-x="802" d="M74 459h96q3 -190 61.5 -290.5t186.5 -100.5q117 0 165 73.5t48 200.5q0 99 -44 175.5t-149 158.5l-127 104q-48 41 -77 70t-65.5 76.5t-54.5 103t-18 119.5q0 158 82.5 245t224.5 87q303 0 314 -406h-92q-16 322 -224 322q-102 0 -154 -67t-52 -165q0 -50 13.5 -92.5 t40.5 -78.5t52 -61t64 -56l112 -93q55 -44 94 -83t77.5 -91t58.5 -114t20 -131q0 -381 -311 -381q-63 0 -113.5 15t-93 49.5t-71.5 88.5t-45.5 135t-18.5 187z" />
<glyph unicode="T" horiz-adv-x="778" d="M43 1378v86h694v-86h-299v-1378h-96v1378h-299z" />
<glyph unicode="U" horiz-adv-x="888" d="M117 336v1128h96v-1124q0 -133 55.5 -202.5t182.5 -69.5q227 0 227 280v1116h94v-1128q0 -170 -81.5 -261t-241.5 -91q-173 0 -252.5 86t-79.5 266z" />
<glyph unicode="V" horiz-adv-x="802" d="M12 1464h101l290 -1288h7l286 1288h95l-340 -1464h-99z" />
<glyph unicode="W" horiz-adv-x="1267" d="M37 1464h92l223 -1284h6l228 1284h102l227 -1284h7l221 1284h90l-268 -1464h-101l-229 1282h-2l-230 -1282h-104z" />
<glyph unicode="X" horiz-adv-x="747" d="M35 0l284 737l-272 727h100l232 -622l231 622h97l-275 -714l285 -750h-99l-245 643l-244 -643h-94z" />
<glyph unicode="Y" horiz-adv-x="739" d="M14 1464h103l254 -731h2l258 731h92l-305 -858v-606h-99v606z" />
<glyph unicode="Z" horiz-adv-x="724" d="M61 0v82l500 1292h-493v90h598v-86l-496 -1288h496v-90h-605z" />
<glyph unicode="[" horiz-adv-x="393" d="M123 -324v1788h231v-63h-151v-1659h151v-66h-231z" />
<glyph unicode="\" horiz-adv-x="423" d="M43 1464h68l340 -1788h-72z" />
<glyph unicode="]" horiz-adv-x="393" d="M37 -258h153v1659h-153v63h233v-1788h-233v66z" />
<glyph unicode="^" horiz-adv-x="811" d="M127 461l248 565h61l248 -563l-61 -19l-220 484l-215 -486z" />
<glyph unicode="_" horiz-adv-x="690" d="M0 -141h690v-74h-690v74z" />
<glyph unicode="`" horiz-adv-x="735" d="M231 1489l107 10l154 -274h-80z" />
<glyph unicode="a" horiz-adv-x="753" d="M80 311q0 182 75.5 267.5t231.5 85.5q83 0 137 -13v205q0 95 -37.5 145t-130.5 50q-63 0 -96.5 -18t-51.5 -70.5t-20 -153.5h-90q2 83 14.5 139.5t41 101t79.5 66t127 21.5q139 0 198.5 -74.5t59.5 -222.5v-635q0 -131 70 -131q13 0 41 8l8 -80q-33 -8 -78 -8 q-52 0 -82 37.5t-32 103.5h-4q-25 -70 -84.5 -110.5t-139.5 -40.5q-104 0 -170.5 79.5t-66.5 247.5zM174 315q0 -58 10.5 -102.5t27 -70.5t40 -42.5t45.5 -22t47 -5.5q47 0 83 21.5t56.5 56t30.5 71.5t10 74v270q-50 17 -139 17q-109 0 -160 -64.5t-51 -202.5z" />
<glyph unicode="b" horiz-adv-x="770" d="M123 2v1462h94v-485h2q25 80 81.5 119t129.5 39q134 0 198 -138.5t64 -425.5q0 -310 -65.5 -449.5t-210.5 -139.5q-74 0 -131.5 43.5t-79.5 117.5h-2l-8 -143h-72zM217 408q0 -167 48.5 -253.5t140.5 -86.5q40 0 71 17.5t51.5 52t34 77.5t20.5 102t10 116.5t3 129.5 q0 246 -47 367t-146 121q-81 0 -133.5 -83t-52.5 -261v-299z" />
<glyph unicode="c" horiz-adv-x="710" d="M78 555q0 303 70.5 442.5t230.5 139.5q257 0 266 -355h-92q-15 269 -178 269q-108 0 -154.5 -115t-46.5 -367q0 -253 45 -376t158 -123q160 0 176 264h88q-12 -350 -264 -350q-156 0 -227.5 132.5t-71.5 438.5z" />
<glyph unicode="d" horiz-adv-x="770" d="M78 555q0 305 65.5 443.5t202.5 138.5q148 0 205 -136h2v463h92v-1464h-90v154h-2q-25 -86 -82 -128t-131 -42q-143 0 -202.5 139t-59.5 432zM174 559q0 -248 43.5 -369.5t147.5 -121.5q80 0 134 84t54 260v290q0 351 -188 351q-191 0 -191 -494z" />
<glyph unicode="e" horiz-adv-x="731" d="M78 571q0 291 68.5 428.5t226.5 137.5q56 0 100.5 -18.5t73.5 -47.5t50.5 -74t33 -88t18.5 -99t8.5 -98t1.5 -94v-61h-485q0 -262 46.5 -374.5t154.5 -112.5q93 0 133.5 63t48.5 197h90q-8 -170 -73.5 -258t-200.5 -88q-106 0 -169.5 55.5t-94.5 184t-31 347.5zM176 643 h389q0 209 -46 308.5t-152 99.5q-92 0 -140 -92t-51 -316z" />
<glyph unicode="f" horiz-adv-x="477" d="M49 1038v80h131v135q0 113 45 173.5t154 60.5q80 0 133 -23l-27 -75q-46 20 -104 20t-83.5 -32t-25.5 -97v-162h166v-80h-166v-1038h-92v1038h-131z" />
<glyph unicode="g" horiz-adv-x="768" d="M78 578q0 299 63.5 429t208.5 130q69 0 128.5 -41.5t80.5 -112.5h2l8 135h76v-1167q0 -87 -19.5 -145.5t-58.5 -89.5t-88 -43.5t-119 -12.5q-130 0 -198.5 61.5t-71.5 194.5h94q4 -96 50 -138t128 -42q102 0 145.5 44t43.5 154v277h-2q-22 -81 -79.5 -123.5t-129.5 -42.5 q-138 0 -200 127t-62 406zM174 586q0 -242 46 -351.5t145 -109.5q82 0 134 81t52 259v246q0 342 -189 342q-56 0 -94 -33.5t-58 -99.5t-28 -145t-8 -189z" />
<glyph unicode="h" horiz-adv-x="788" d="M123 0v1464h94v-465h2q62 138 234 138q104 0 160.5 -59t56.5 -169v-909h-95v887q0 73 -39.5 118.5t-117.5 45.5q-80 0 -140.5 -58t-60.5 -153v-840h-94z" />
<glyph unicode="i" d="M127 0v1118h96v-1118h-96zM127 1290v174h96v-174h-96z" />
<glyph unicode="j" horiz-adv-x="354" d="M-12 -332l6 82q24 -6 51 -6q54 0 73 39.5t19 122.5v1212h96v-1204q0 -135 -44.5 -193.5t-131.5 -58.5q-45 0 -69 6zM137 1290v174h96v-174h-96z" />
<glyph unicode="k" horiz-adv-x="737" d="M123 0v1464h94v-917l377 573h98l-260 -405l270 -715h-100l-237 635l-148 -219v-416h-94z" />
<glyph unicode="l" horiz-adv-x="415" d="M119 231v1233h94v-1214q0 -97 26 -136.5t85 -39.5q34 0 75 12l11 -82q-43 -14 -111 -14q-96 0 -138 57.5t-42 183.5z" />
<glyph unicode="m" horiz-adv-x="1228" d="M123 0v1118h90v-127h2q58 146 238 146q178 0 206 -146q29 73 94.5 109.5t147.5 36.5q103 0 158 -59t55 -169v-909h-94v887q0 73 -39 118.5t-117 45.5q-79 0 -138 -57.5t-60 -153.5v-840h-95v887q0 73 -38.5 118.5t-116.5 45.5q-80 0 -139.5 -58t-59.5 -153v-840h-94z" />
<glyph unicode="n" horiz-adv-x="784" d="M123 0v1118h90v-127h2q58 146 238 146q104 0 160.5 -59t56.5 -169v-909h-95v887q0 73 -39.5 118.5t-117.5 45.5q-79 0 -140 -57.5t-61 -153.5v-840h-94z" />
<glyph unicode="o" horiz-adv-x="737" d="M78 553q0 301 68 442.5t223 141.5q158 0 225.5 -139.5t67.5 -430.5q0 -304 -70 -443.5t-217 -139.5q-160 0 -228.5 136t-68.5 433zM174 559q0 -191 23 -299t65.5 -149t114.5 -41q69 0 109.5 46.5t59.5 154t19 292.5q0 263 -45 375.5t-158 112.5q-107 0 -147.5 -118.5 t-40.5 -373.5z" />
<glyph unicode="p" horiz-adv-x="770" d="M123 -324v1442h94v-143h2q25 83 82 122.5t129 39.5q140 0 201 -138t61 -426q0 -310 -66.5 -449.5t-203.5 -139.5q-153 0 -201 135h-4v-443h-94zM217 422q0 -352 189 -352q55 0 93.5 37.5t59 107.5t29 154t8.5 194q0 247 -43.5 367.5t-146.5 120.5q-81 0 -135 -81.5 t-54 -252.5v-295z" />
<glyph unicode="q" horiz-adv-x="770" d="M78 549q0 307 66.5 447.5t211.5 140.5q148 0 205 -148h4l8 129h72v-1442h-92v465h-2q-58 -157 -211 -157q-134 0 -198 139t-64 426zM174 557q0 -245 47 -367t146 -122q81 0 133.5 84.5t52.5 263.5v293q0 344 -188 344q-56 0 -95 -37.5t-59.5 -109t-28.5 -155t-8 -194.5z " />
<glyph unicode="r" horiz-adv-x="528" d="M121 0v1118h90v-178h4q46 97 121 142t158 48v-94l-50 -4q-88 -11 -157.5 -81.5t-69.5 -153.5v-797h-96z" />
<glyph unicode="s" horiz-adv-x="677" d="M68 319h90q10 -141 55 -198.5t141 -57.5q82 0 125 51.5t43 145.5q0 158 -149 242l-94 55q-45 31 -72.5 54t-59.5 59.5t-47.5 82t-15.5 101.5q0 137 66 209t190 72q129 0 194.5 -78.5t71.5 -255.5h-88q-8 130 -49.5 193t-126.5 63t-126.5 -54t-41.5 -139q0 -119 137 -209 l103 -59q96 -66 147 -140.5t51 -181.5q0 -140 -67 -215t-197 -75q-272 0 -280 335z" />
<glyph unicode="t" horiz-adv-x="520" d="M37 1036v82h131v285l86 61h8v-346h199v-82h-199v-784q0 -97 33.5 -137.5t97.5 -40.5q24 0 82 12l8 -80q-37 -16 -116 -16q-199 0 -199 241v805h-131z" />
<glyph unicode="u" horiz-adv-x="784" d="M121 211v907h92v-889q0 -73 40.5 -118t117.5 -45q80 0 140 57t60 153v842h95v-1118h-91v143h-2q-30 -79 -93 -119t-144 -40q-103 0 -159 58.5t-56 168.5z" />
<glyph unicode="v" horiz-adv-x="671" d="M20 1118h93l227 -932h2l217 932h94l-270 -1118h-92z" />
<glyph unicode="w" horiz-adv-x="1130" d="M23 1118h96l198 -921h2l201 921h96l199 -921h4l201 921h86l-244 -1118h-92l-201 930h-4l-200 -930h-95z" />
<glyph unicode="x" horiz-adv-x="673" d="M33 0l254 588l-232 530h101l190 -444l184 444h93l-228 -536l246 -582h-98l-205 498l-215 -498h-90z" />
<glyph unicode="y" horiz-adv-x="679" d="M29 1118h94l225 -938h4l217 938h93l-273 -1126q-43 -180 -111.5 -256t-175.5 -76q-44 0 -67 2v86q20 -2 67 -2q135 0 187 186l16 66z" />
<glyph unicode="z" horiz-adv-x="647" d="M59 0v61l418 977h-409v80h516v-67l-414 -969h424v-82h-535z" />
<glyph unicode="{" horiz-adv-x="401" d="M63 590v65q70 11 70 80v625q0 104 92 104h140v-63h-121q-31 0 -31 -43v-617q0 -87 -70 -112v-4q70 -30 70 -119v-725q0 -39 31 -39h121v-66h-144q-88 0 -88 103v721q0 43 -16 64.5t-54 25.5z" />
<glyph unicode="|" horiz-adv-x="481" d="M205 -233v1697h69v-1697h-69z" />
<glyph unicode="}" horiz-adv-x="401" d="M37 -258h123q30 0 30 39v725q0 89 68 119v4q-68 25 -68 112v617q0 24 -7 33.5t-25 9.5h-121v63h139q94 0 94 -104v-625q0 -35 15.5 -54.5t52.5 -25.5v-65q-38 -4 -53 -25t-15 -65v-721q0 -51 -24 -77t-66 -26h-143v66z" />
<glyph unicode="~" horiz-adv-x="815" d="M90 627q7 86 55.5 136t118.5 50q49 0 144.5 -53t144.5 -53q47 0 70.5 25.5t35.5 88.5l66 -10q-10 -94 -54.5 -137t-113.5 -43q-47 0 -104 27t-106.5 54t-80.5 27q-47 0 -74.5 -34t-33.5 -89z" />
<glyph unicode="&#xa1;" horiz-adv-x="348" d="M123 -324l14 1104h72l16 -1104h-102zM125 918v202h100v-202h-100z" />
<glyph unicode="&#xa2;" horiz-adv-x="712" d="M80 555q0 289 61.5 428t204.5 152v194h78v-196q212 -27 221 -351h-88q-19 273 -180 273q-107 0 -154 -117t-47 -369q0 -253 46 -378t159 -125q157 0 174 268h90q-15 -319 -221 -346v-185h-78v183q-138 11 -202 145t-64 424z" />
<glyph unicode="&#xa3;" horiz-adv-x="694" d="M92 0v86h129v707h-121v77h121v347q0 119 57.5 192.5t176.5 73.5q89 0 145 -23l-22 -82q-51 21 -121 21q-65 0 -101.5 -42.5t-36.5 -125.5v-361h205v-77h-205v-707h302l-17 -86h-512z" />
<glyph unicode="&#xa5;" horiz-adv-x="743" d="M18 1464h101l256 -731h2l258 731h90l-205 -579h170v-84h-201l-47 -133h248v-84h-268v-584h-100v584h-269v84h246l-47 133h-199v84h170z" />
<glyph unicode="&#xa6;" horiz-adv-x="589" d="M260 -324v838h72v-838h-72zM260 637v827h72v-827h-72z" />
<glyph unicode="&#xa7;" horiz-adv-x="821" d="M104 647q0 163 181 271q-146 127 -146 266q0 133 74.5 212t208.5 79q125 0 193 -75t73 -196h-86q-11 201 -190 201q-77 0 -134 -57.5t-57 -149.5q0 -68 40.5 -126t127.5 -134l170 -147q76 -57 118 -114t42 -134q0 -83 -45 -153t-133 -116q153 -133 153 -286 q0 -137 -74 -208t-202 -71q-120 0 -196.5 70.5t-86.5 191.5h88q7 -90 63 -138t138 -48q81 0 132.5 48t51.5 140q0 149 -190 291l-117 84q-91 67 -144 136.5t-53 162.5zM188 662q0 -58 33.5 -112t87.5 -95l170 -136q65 26 111.5 86.5t46.5 118.5q0 44 -18.5 82t-39.5 59 t-55 48l-186 155q-61 -28 -105.5 -87.5t-44.5 -118.5z" />
<glyph unicode="&#xa8;" horiz-adv-x="735" d="M166 1290v176h86v-176h-86zM471 1290v176h86v-176h-86z" />
<glyph unicode="&#xa9;" horiz-adv-x="1343" d="M88 633q0 181 38.5 335.5t110.5 269.5t183.5 180t249.5 65q142 0 255.5 -67.5t185 -185t109 -270t37.5 -327.5q0 -141 -23.5 -268.5t-71.5 -236t-117 -187.5t-165 -123.5t-210 -44.5q-117 0 -214 44t-164.5 122t-114 187t-68 236t-21.5 271zM147 633q0 -372 145.5 -586.5 t377.5 -214.5q233 0 378.5 218t145.5 583q0 368 -143.5 581t-380.5 213q-158 0 -277.5 -101t-182.5 -280.5t-63 -412.5zM344 647q0 635 344 635q129 0 203 -99t80 -292h-86q-8 141 -58 225t-147 84q-129 0 -186.5 -139t-57.5 -414q0 -575 248 -575q55 0 94.5 23.5t62 68.5 t33.5 103t13 134h86q-11 -409 -287 -409q-81 0 -142 33t-107 107t-69.5 203t-23.5 312z" />
<glyph unicode="&#xaa;" horiz-adv-x="475" d="M82 1114q0 158 149 158q38 0 62 -6v84q0 75 -72 75q-39 0 -54.5 -20.5t-16.5 -77.5h-60q0 79 31 116.5t104 37.5q69 0 100 -35.5t31 -108.5v-260q0 -29 7 -41t24 -12q10 0 16 2l7 -51q-24 -4 -43 -4q-61 0 -64 65h-2q-27 -69 -104 -69q-52 0 -83.5 36t-31.5 111zM106 842 v59h267v-59h-267zM143 1118q0 -96 72 -96q37 0 57.5 24.5t20.5 55.5v117q-21 8 -62 8q-88 0 -88 -109z" />
<glyph unicode="&#xab;" horiz-adv-x="544" d="M43 596v37l143 256h86l-143 -275l137 -274l-86 -2zM274 596v37l146 256h84l-144 -275l138 -274l-86 -2z" />
<glyph unicode="&#xac;" horiz-adv-x="858" d="M94 680v72h664v-283h-76v211h-588z" />
<glyph unicode="&#xad;" horiz-adv-x="524" d="M66 575v82h393v-82h-393z" />
<glyph unicode="&#xae;" horiz-adv-x="759" d="M68 1120q0 158 84 259.5t227 101.5q142 0 227.5 -101.5t85.5 -259.5q0 -99 -36.5 -180.5t-110 -131.5t-170.5 -50q-145 0 -226 103.5t-81 258.5zM119 1120q0 -146 73.5 -230.5t182.5 -84.5q115 0 190.5 85.5t75.5 229.5q0 143 -77.5 230.5t-188.5 87.5q-110 0 -183 -86 t-73 -232zM260 891v475h125q63 0 97 -35t34 -98q0 -48 -20.5 -82.5t-57.5 -44.5l88 -211v-4h-57l-84 203h-68v-203h-57zM317 1137h68q37 0 56.5 23.5t19.5 66.5q0 40 -21.5 66t-58.5 26h-64v-182z" />
<glyph unicode="&#xaf;" horiz-adv-x="735" d="M141 1260v77h445v-77h-445z" />
<glyph unicode="&#xb0;" horiz-adv-x="471" d="M57 1300q0 76 52.5 130.5t126.5 54.5t126 -54.5t52 -130.5q0 -74 -52.5 -127t-125.5 -53q-75 0 -127 53t-52 127zM111 1300q0 -55 35 -93t90 -38q53 0 87.5 38t34.5 93q0 56 -34.5 95t-87.5 39q-55 0 -90 -39t-35 -95z" />
<glyph unicode="&#xb1;" horiz-adv-x="811" d="M88 242v67h635v-67h-635zM94 727v68h285v286h70v-286h278v-68h-278v-285h-70v285h-285z" />
<glyph unicode="&#xb2;" horiz-adv-x="573" d="M82 1284q0 97 47.5 153t146.5 56q103 0 151 -62.5t48 -158.5q0 -207 -184 -441l-111 -149h309v-68h-401v58l137 190q176 234 176 400q0 75 -32.5 121.5t-96.5 46.5t-92 -43t-28 -105q0 -48 6 -92h-70q-6 31 -6 94z" />
<glyph unicode="&#xb3;" horiz-adv-x="573" d="M74 840h71q1 -96 33.5 -137t106.5 -41q135 0 135 192q0 86 -38 131t-101 45h-70v60h61q65 0 100.5 46t35.5 130q0 90 -38.5 127t-93.5 37q-68 0 -100.5 -43.5t-32.5 -143.5h-69q3 250 200 250q107 0 156 -61t49 -160q0 -170 -123 -205v-2q75 -17 109.5 -75.5t34.5 -129.5 q0 -129 -61 -195.5t-154 -66.5q-208 0 -211 242z" />
<glyph unicode="&#xb4;" horiz-adv-x="735" d="M231 1225l154 274l107 -10l-179 -264h-82z" />
<glyph unicode="&#xb5;" horiz-adv-x="802" d="M123 -340v1458h94v-876q0 -86 40.5 -131t111.5 -45q67 0 121 40t75 111v901h94v-923q0 -54 15.5 -89.5t42.5 -35.5q16 0 22 4v-78q-27 -6 -45 -6q-98 0 -108 164h-2q-30 -80 -87 -126t-135 -46q-134 0 -176 112h-6l39 -405z" />
<glyph unicode="&#xb6;" horiz-adv-x="903" d="M80 975q0 101 18 187.5t54.5 155t98 107.5t142.5 39h455v-65l-107 -6v-1626h-73v1626h-168v-1626h-74v718q-93 6 -161.5 46.5t-108 108.5t-58 151t-18.5 184z" />
<glyph unicode="&#xb7;" horiz-adv-x="323" d="M113 655v203h98v-203h-98z" />
<glyph unicode="&#xb8;" horiz-adv-x="735" d="M197 -328l12 52q72 -21 133 -21q104 0 104 68q0 71 -118 77l-45 5l41 153h47l-29 -112q18 0 33 -5q143 -14 143 -118q0 -55 -45.5 -89t-128.5 -34q-80 0 -147 24z" />
<glyph unicode="&#xb9;" horiz-adv-x="573" d="M104 614v66h152v688h-8q-9 -43 -44 -73t-81 -38v80q50 14 89 54t48 96h66v-807h151v-66h-373z" />
<glyph unicode="&#xba;" horiz-adv-x="477" d="M82 1219q0 262 156 262q77 0 118 -64t41 -192q0 -260 -157 -260q-158 0 -158 254zM109 840v59h266v-59h-266zM143 1223q0 -201 95 -201q46 0 71 45.5t25 155.5q0 200 -96 200q-95 0 -95 -200z" />
<glyph unicode="&#xbb;" horiz-adv-x="544" d="M43 887l86 2l141 -258v-37l-139 -256l-84 2l139 274zM276 887l84 2l142 -258v-37l-140 -256l-83 2l139 274z" />
<glyph unicode="&#xbc;" horiz-adv-x="1304" d="M104 614v66h152v688h-8q-9 -43 -44 -73t-81 -38v80q50 14 89 54t48 96h66v-807h151v-66h-373zM383 -2l500 1485l51 -13l-500 -1486zM739 219v57l260 594h84v-585h88v-66h-86v-219h-69v219h-277zM807 285h209v467h-4z" />
<glyph unicode="&#xbd;" horiz-adv-x="1304" d="M102 614v66h152v688h-8q-9 -43 -44 -73t-81 -38v80q50 14 89 54t48 96h66v-807h151v-66h-373zM377 -2l500 1485l51 -13l-500 -1486zM801 670q0 97 47.5 153t146.5 56q103 0 151 -63t48 -159q0 -206 -184 -440l-111 -149h309v-68h-401v57l137 191q176 234 176 399 q0 75 -32.5 121.5t-96.5 46.5q-44 0 -72.5 -23t-38.5 -54t-10 -70q0 -42 7 -93h-70q-6 31 -6 95z" />
<glyph unicode="&#xbe;" horiz-adv-x="1304" d="M100 840h72q1 -97 33 -137.5t106 -40.5q135 0 135 192q0 86 -38 131t-101 45h-69v60h61q65 0 100 45.5t35 130.5q0 91 -38 127.5t-93 36.5q-68 0 -100.5 -43.5t-32.5 -143.5h-70q3 250 201 250q107 0 156 -61t49 -160q0 -170 -123 -205v-2q75 -17 109 -75.5t34 -129.5 q0 -129 -61 -195.5t-154 -66.5q-208 0 -211 242zM408 -2l499 1485l51 -13l-499 -1486zM758 219v57l260 594h84v-585h88v-66h-86v-219h-70v219h-276zM825 285h209v467h-4z" />
<glyph unicode="&#xbf;" horiz-adv-x="718" d="M78 4q0 80 27 158t66 141t78 124.5t66 132.5t27 142v76h82v-82q0 -78 -26 -155t-63.5 -139.5t-75 -124t-63.5 -131.5t-26 -138q0 -114 51.5 -190t145.5 -76q42 0 73 12.5t59 43.5t42.5 91.5t15.5 149.5h82q0 -209 -73.5 -294t-215.5 -85q-128 0 -200 90t-72 254zM330 918 v200h100v-200h-100z" />
<glyph unicode="&#xc0;" horiz-adv-x="837" d="M27 0l335 1466h117l334 -1466h-96l-90 401h-418l-92 -401h-90zM188 1808l109 13l158 -271h-80zM227 487h381l-188 848h-4z" />
<glyph unicode="&#xc1;" horiz-adv-x="837" d="M27 0l335 1466h117l334 -1466h-96l-90 401h-418l-92 -401h-90zM227 487h381l-188 848h-4zM371 1550l159 271l107 -13l-184 -258h-82z" />
<glyph unicode="&#xc2;" horiz-adv-x="837" d="M27 0l335 1466h117l334 -1466h-96l-90 401h-418l-92 -401h-90zM207 1550l170 271h84l166 -271h-86l-123 203l-127 -203h-84zM227 487h381l-188 848h-4z" />
<glyph unicode="&#xc3;" horiz-adv-x="837" d="M27 0l335 1466h117l334 -1466h-96l-90 401h-418l-92 -401h-90zM168 1569q8 71 43.5 113t93.5 42q39 0 108 -38.5t107 -38.5q36 0 51.5 19t30.5 67l64 -11q-10 -76 -46 -113.5t-92 -37.5q-40 0 -83 20.5t-78.5 41t-57.5 20.5q-57 0 -71 -94zM227 487h381l-188 848h-4z" />
<glyph unicode="&#xc4;" horiz-adv-x="837" d="M27 0l335 1466h117l334 -1466h-96l-90 401h-418l-92 -401h-90zM223 1620v176h84v-176h-84zM227 487h381l-188 848h-4zM528 1620v176h86v-176h-86z" />
<glyph unicode="&#xc5;" horiz-adv-x="837" d="M27 0l335 1466h117l334 -1466h-96l-90 401h-418l-92 -401h-90zM227 487h381l-188 848h-4zM272 1673q0 63 39 107.5t101 44.5q73 0 112 -40.5t39 -103.5q0 -62 -41.5 -104.5t-105.5 -42.5q-71 0 -107.5 41t-36.5 98zM328 1673q0 -44 24.5 -68t61.5 -24q40 0 66 26t26 70 q0 45 -24.5 73t-69.5 28q-39 0 -61.5 -29t-22.5 -76z" />
<glyph unicode="&#xc6;" horiz-adv-x="1241" d="M23 0l522 1464h616v-86h-459v-571h355v-84h-355v-637h461v-86h-559v406h-336l-147 -406h-98zM295 489h309v869h-2z" />
<glyph unicode="&#xc7;" horiz-adv-x="872" d="M82 748q0 388 93.5 560.5t285.5 172.5q322 0 336 -463h-97q-3 173 -64 274t-181 101q-143 0 -207 -160t-64 -483q0 -250 33 -402t94 -215t156 -63q80 0 133 51.5t76.5 136.5t25.5 203h95q-4 -246 -91 -360.5t-237 -116.5l-23 -90q18 0 33 -5q67 -6 105.5 -35.5 t38.5 -82.5q0 -55 -45.5 -89t-128.5 -34q-80 0 -148 24l12 52q72 -21 133 -21q105 0 105 68q0 71 -119 77l-45 5l35 133q-114 10 -187 84t-113 241t-40 437z" />
<glyph unicode="&#xc8;" horiz-adv-x="761" d="M127 0v1464h555v-86h-459v-569h355v-86h-355v-637h461v-86h-557zM176 1808l109 13l157 -271h-80z" />
<glyph unicode="&#xc9;" horiz-adv-x="761" d="M127 0v1464h555v-86h-459v-569h355v-86h-355v-637h461v-86h-557zM356 1550l160 271l107 -13l-185 -258h-82z" />
<glyph unicode="&#xca;" horiz-adv-x="761" d="M127 0v1464h555v-86h-459v-569h355v-86h-355v-637h461v-86h-557zM193 1550l169 271h84l166 -271h-86l-123 203l-127 -203h-83z" />
<glyph unicode="&#xcb;" horiz-adv-x="761" d="M127 0v1464h555v-86h-459v-569h355v-86h-355v-637h461v-86h-557zM207 1620v176h84v-176h-84zM512 1620v176h86v-176h-86z" />
<glyph unicode="&#xcc;" d="M-55 1808l108 13l158 -271h-80zM127 0v1464h96v-1464h-96z" />
<glyph unicode="&#xcd;" d="M127 0v1464h96v-1464h-96zM127 1550l160 271l106 -13l-184 -258h-82z" />
<glyph unicode="&#xce;" d="M-37 1550l170 271h84l166 -271h-86l-123 203l-127 -203h-84zM127 0v1464h96v-1464h-96z" />
<glyph unicode="&#xcf;" d="M-20 1620v176h83v-176h-83zM127 0v1464h96v-1464h-96zM285 1620v176h86v-176h-86z" />
<glyph unicode="&#xd0;" horiz-adv-x="911" d="M31 686v80h104v698h234q80 0 144 -17.5t125 -65.5t101.5 -126.5t65 -207t24.5 -299.5q0 -176 -23 -308.5t-61 -215t-95 -134t-119 -71t-138 -19.5h-258v686h-104zM231 86h160q62 0 111.5 19.5t92 66t70.5 121t44 188.5t16 264q0 633 -338 633h-156v-612h258v-80h-258 v-600z" />
<glyph unicode="&#xd1;" horiz-adv-x="921" d="M127 0v1464h106l469 -1188h7v1188h86v-1468h-88l-488 1239h-6v-1235h-86zM209 1569q8 71 43.5 113t93.5 42q39 0 108 -38.5t107 -38.5q36 0 51.5 19t30.5 67l64 -11q-10 -76 -46 -113.5t-92 -37.5q-40 0 -83 20.5t-78.5 41t-57.5 20.5q-57 0 -71 -94z" />
<glyph unicode="&#xd2;" horiz-adv-x="919" d="M82 741q0 380 90.5 560t286.5 180q195 0 288 -180t93 -558q0 -103 -6.5 -189.5t-21.5 -176t-43 -157.5t-69 -123t-102 -84t-139 -29q-91 0 -158.5 40.5t-108.5 108t-66.5 168t-34.5 205t-9 235.5zM184 750q0 -247 35 -400.5t95 -216.5t149 -63q66 0 115 33.5t85.5 109.5 t55 208.5t18.5 321.5q0 182 -20.5 311.5t-59.5 202t-88 104.5t-114 32q-64 0 -112 -33t-84.5 -106.5t-55.5 -200t-19 -303.5zM233 1808l109 13l158 -271h-80z" />
<glyph unicode="&#xd3;" horiz-adv-x="919" d="M82 741q0 380 90.5 560t286.5 180q195 0 288 -180t93 -558q0 -103 -6.5 -189.5t-21.5 -176t-43 -157.5t-69 -123t-102 -84t-139 -29q-91 0 -158.5 40.5t-108.5 108t-66.5 168t-34.5 205t-9 235.5zM184 750q0 -247 35 -400.5t95 -216.5t149 -63q66 0 115 33.5t85.5 109.5 t55 208.5t18.5 321.5q0 182 -20.5 311.5t-59.5 202t-88 104.5t-114 32q-64 0 -112 -33t-84.5 -106.5t-55.5 -200t-19 -303.5zM410 1550l159 271l107 -13l-184 -258h-82z" />
<glyph unicode="&#xd4;" horiz-adv-x="919" d="M82 741q0 380 90.5 560t286.5 180q195 0 288 -180t93 -558q0 -103 -6.5 -189.5t-21.5 -176t-43 -157.5t-69 -123t-102 -84t-139 -29q-91 0 -158.5 40.5t-108.5 108t-66.5 168t-34.5 205t-9 235.5zM184 750q0 -247 35 -400.5t95 -216.5t149 -63q66 0 115 33.5t85.5 109.5 t55 208.5t18.5 321.5q0 182 -20.5 311.5t-59.5 202t-88 104.5t-114 32q-64 0 -112 -33t-84.5 -106.5t-55.5 -200t-19 -303.5zM248 1550l170 271h84l166 -271h-86l-123 203l-127 -203h-84z" />
<glyph unicode="&#xd5;" horiz-adv-x="919" d="M82 741q0 380 90.5 560t286.5 180q195 0 288 -180t93 -558q0 -103 -6.5 -189.5t-21.5 -176t-43 -157.5t-69 -123t-102 -84t-139 -29q-91 0 -158.5 40.5t-108.5 108t-66.5 168t-34.5 205t-9 235.5zM184 750q0 -247 35 -400.5t95 -216.5t149 -63q66 0 115 33.5t85.5 109.5 t55 208.5t18.5 321.5q0 182 -20.5 311.5t-59.5 202t-88 104.5t-114 32q-64 0 -112 -33t-84.5 -106.5t-55.5 -200t-19 -303.5zM209 1569q8 71 43.5 113t93.5 42q39 0 108 -38.5t107 -38.5q36 0 51.5 19t30.5 67l64 -11q-10 -76 -46 -113.5t-92 -37.5q-40 0 -83 20.5t-78.5 41 t-57.5 20.5q-57 0 -71 -94z" />
<glyph unicode="&#xd6;" horiz-adv-x="919" d="M82 741q0 380 90.5 560t286.5 180q195 0 288 -180t93 -558q0 -103 -6.5 -189.5t-21.5 -176t-43 -157.5t-69 -123t-102 -84t-139 -29q-91 0 -158.5 40.5t-108.5 108t-66.5 168t-34.5 205t-9 235.5zM184 750q0 -247 35 -400.5t95 -216.5t149 -63q66 0 115 33.5t85.5 109.5 t55 208.5t18.5 321.5q0 182 -20.5 311.5t-59.5 202t-88 104.5t-114 32q-64 0 -112 -33t-84.5 -106.5t-55.5 -200t-19 -303.5zM264 1620v176h84v-176h-84zM569 1620v176h86v-176h-86z" />
<glyph unicode="&#xd7;" horiz-adv-x="811" d="M119 463l239 239l-239 242l49 47l238 -241l237 239l47 -47l-237 -240l237 -237l-47 -49l-237 239l-240 -241z" />
<glyph unicode="&#xd8;" horiz-adv-x="919" d="M82 741q0 380 90.5 560t286.5 180q133 0 219 -86l45 116l78 -26l-64 -168q103 -178 103 -574q0 -103 -6.5 -189.5t-21.5 -176t-43 -157.5t-69 -123t-102 -84t-139 -29q-121 0 -195 65l-57 -153l-82 28l74 197q-117 177 -117 620zM184 750q0 -332 64 -502l391 1040 q-70 105 -184 105q-64 0 -112 -33t-84.5 -106.5t-55.5 -200t-19 -303.5zM301 147q60 -77 162 -77q66 0 115 33.5t85.5 109.5t55 208.5t18.5 321.5q0 282 -51 437z" />
<glyph unicode="&#xd9;" horiz-adv-x="888" d="M117 336v1128h96v-1124q0 -133 55.5 -202.5t182.5 -69.5q227 0 227 280v1116h94v-1128q0 -170 -81.5 -261t-241.5 -91q-173 0 -252.5 86t-79.5 266zM215 1808l109 13l157 -271h-80z" />
<glyph unicode="&#xda;" horiz-adv-x="888" d="M117 336v1128h96v-1124q0 -133 55.5 -202.5t182.5 -69.5q227 0 227 280v1116h94v-1128q0 -170 -81.5 -261t-241.5 -91q-173 0 -252.5 86t-79.5 266zM399 1550l160 271l107 -13l-185 -258h-82z" />
<glyph unicode="&#xdb;" horiz-adv-x="888" d="M117 336v1128h96v-1124q0 -133 55.5 -202.5t182.5 -69.5q227 0 227 280v1116h94v-1128q0 -170 -81.5 -261t-241.5 -91q-173 0 -252.5 86t-79.5 266zM233 1550l170 271h84l166 -271h-86l-123 203l-127 -203h-84z" />
<glyph unicode="&#xdc;" horiz-adv-x="888" d="M117 336v1128h96v-1124q0 -133 55.5 -202.5t182.5 -69.5q227 0 227 280v1116h94v-1128q0 -170 -81.5 -261t-241.5 -91q-173 0 -252.5 86t-79.5 266zM250 1620v176h84v-176h-84zM555 1620v176h86v-176h-86z" />
<glyph unicode="&#xdd;" horiz-adv-x="739" d="M14 1464h103l254 -731h2l258 731h92l-305 -858v-606h-99v606zM326 1550l159 271l107 -13l-184 -258h-82z" />
<glyph unicode="&#xde;" horiz-adv-x="837" d="M127 0v1464h96v-297h211q165 0 253.5 -102.5t88.5 -284.5q0 -199 -90 -305t-256 -106h-207v-369h-96zM223 453h193q260 0 260 319q0 66 -13.5 120.5t-42 97.5t-77.5 67t-115 24h-205v-628z" />
<glyph unicode="&#xdf;" horiz-adv-x="899" d="M49 1038v80h131v62q0 307 291 307q150 0 219.5 -77.5t69.5 -209.5t-90 -266q-11 -16 -41.5 -54.5t-49 -67.5t-18.5 -48q0 -18 8 -32t29 -37.5t33 -39.5q186 -234 186 -393q0 -132 -64 -205t-192 -73q-122 0 -178 36l20 82q52 -32 140 -32q95 0 136.5 52.5t41.5 135.5 q0 128 -98 229q-113 151 -135 191q-22 42 -21 78q0 47 53 112q3 5 23.5 33t25 34t21.5 30.5t21.5 34.5t16.5 32.5t15.5 37.5t10 37t8.5 43t2 44q0 104 -53.5 159.5t-147.5 55.5q-100 0 -145.5 -60t-45.5 -157v-1192h-92v1038h-131z" />
<glyph unicode="&#xe0;" horiz-adv-x="753" d="M80 311q0 182 75.5 267.5t231.5 85.5q83 0 137 -13v205q0 95 -37.5 145t-130.5 50q-63 0 -96.5 -18t-51.5 -70.5t-20 -153.5h-90q2 83 14.5 139.5t41 101t79.5 66t127 21.5q139 0 198.5 -74.5t59.5 -222.5v-635q0 -131 70 -131q13 0 41 8l8 -80q-33 -8 -78 -8 q-52 0 -82 37.5t-32 103.5h-4q-25 -70 -84.5 -110.5t-139.5 -40.5q-104 0 -170.5 79.5t-66.5 247.5zM139 1489l107 10l153 -274h-80zM174 315q0 -58 10.5 -102.5t27 -70.5t40 -42.5t45.5 -22t47 -5.5q47 0 83 21.5t56.5 56t30.5 71.5t10 74v270q-50 17 -139 17 q-109 0 -160 -64.5t-51 -202.5z" />
<glyph unicode="&#xe1;" horiz-adv-x="753" d="M80 311q0 182 75.5 267.5t231.5 85.5q83 0 137 -13v205q0 95 -37.5 145t-130.5 50q-63 0 -96.5 -18t-51.5 -70.5t-20 -153.5h-90q2 83 14.5 139.5t41 101t79.5 66t127 21.5q139 0 198.5 -74.5t59.5 -222.5v-635q0 -131 70 -131q13 0 41 8l8 -80q-33 -8 -78 -8 q-52 0 -82 37.5t-32 103.5h-4q-25 -70 -84.5 -110.5t-139.5 -40.5q-104 0 -170.5 79.5t-66.5 247.5zM174 315q0 -58 10.5 -102.5t27 -70.5t40 -42.5t45.5 -22t47 -5.5q47 0 83 21.5t56.5 56t30.5 71.5t10 74v270q-50 17 -139 17q-109 0 -160 -64.5t-51 -202.5zM313 1225 l154 274l106 -10l-178 -264h-82z" />
<glyph unicode="&#xe2;" horiz-adv-x="753" d="M80 311q0 182 75.5 267.5t231.5 85.5q83 0 137 -13v205q0 95 -37.5 145t-130.5 50q-63 0 -96.5 -18t-51.5 -70.5t-20 -153.5h-90q2 83 14.5 139.5t41 101t79.5 66t127 21.5q139 0 198.5 -74.5t59.5 -222.5v-635q0 -131 70 -131q13 0 41 8l8 -80q-33 -8 -78 -8 q-52 0 -82 37.5t-32 103.5h-4q-25 -70 -84.5 -110.5t-139.5 -40.5q-104 0 -170.5 79.5t-66.5 247.5zM143 1225l170 274h82l166 -274h-86l-121 202l-127 -202h-84zM174 315q0 -58 10.5 -102.5t27 -70.5t40 -42.5t45.5 -22t47 -5.5q47 0 83 21.5t56.5 56t30.5 71.5t10 74v270 q-50 17 -139 17q-109 0 -160 -64.5t-51 -202.5z" />
<glyph unicode="&#xe3;" horiz-adv-x="753" d="M80 311q0 182 75.5 267.5t231.5 85.5q83 0 137 -13v205q0 95 -37.5 145t-130.5 50q-63 0 -96.5 -18t-51.5 -70.5t-20 -153.5h-90q2 83 14.5 139.5t41 101t79.5 66t127 21.5q139 0 198.5 -74.5t59.5 -222.5v-635q0 -131 70 -131q13 0 41 8l8 -80q-33 -8 -78 -8 q-52 0 -82 37.5t-32 103.5h-4q-25 -70 -84.5 -110.5t-139.5 -40.5q-104 0 -170.5 79.5t-66.5 247.5zM104 1241q8 70 44 112t94 42q39 0 108 -39t107 -39q35 0 51 19.5t31 68.5l63 -10q-10 -78 -45.5 -116t-91.5 -38q-40 0 -83 20.5t-78.5 41t-57.5 20.5q-58 0 -72 -94z M174 315q0 -58 10.5 -102.5t27 -70.5t40 -42.5t45.5 -22t47 -5.5q47 0 83 21.5t56.5 56t30.5 71.5t10 74v270q-50 17 -139 17q-109 0 -160 -64.5t-51 -202.5z" />
<glyph unicode="&#xe4;" horiz-adv-x="753" d="M80 311q0 182 75.5 267.5t231.5 85.5q83 0 137 -13v205q0 95 -37.5 145t-130.5 50q-63 0 -96.5 -18t-51.5 -70.5t-20 -153.5h-90q2 83 14.5 139.5t41 101t79.5 66t127 21.5q139 0 198.5 -74.5t59.5 -222.5v-635q0 -131 70 -131q13 0 41 8l8 -80q-33 -8 -78 -8 q-52 0 -82 37.5t-32 103.5h-4q-25 -70 -84.5 -110.5t-139.5 -40.5q-104 0 -170.5 79.5t-66.5 247.5zM160 1290v176h86v-176h-86zM174 315q0 -58 10.5 -102.5t27 -70.5t40 -42.5t45.5 -22t47 -5.5q47 0 83 21.5t56.5 56t30.5 71.5t10 74v270q-50 17 -139 17 q-109 0 -160 -64.5t-51 -202.5zM465 1290v176h86v-176h-86z" />
<glyph unicode="&#xe5;" horiz-adv-x="753" d="M80 311q0 182 75.5 267.5t231.5 85.5q83 0 137 -13v205q0 95 -37.5 145t-130.5 50q-63 0 -96.5 -18t-51.5 -70.5t-20 -153.5h-90q2 83 14.5 139.5t41 101t79.5 66t127 21.5q139 0 198.5 -74.5t59.5 -222.5v-635q0 -131 70 -131q13 0 41 8l8 -80q-33 -8 -78 -8 q-52 0 -82 37.5t-32 103.5h-4q-25 -70 -84.5 -110.5t-139.5 -40.5q-104 0 -170.5 79.5t-66.5 247.5zM174 315q0 -58 10.5 -102.5t27 -70.5t40 -42.5t45.5 -22t47 -5.5q47 0 83 21.5t56.5 56t30.5 71.5t10 74v270q-50 17 -139 17q-109 0 -160 -64.5t-51 -202.5zM209 1350 q0 63 38.5 106t100.5 43q74 0 113 -39t39 -100q0 -65 -42 -107.5t-106 -42.5q-71 0 -107 41.5t-36 98.5zM264 1352q0 -46 24.5 -71.5t61.5 -25.5q39 0 65.5 27t26.5 72t-24.5 72.5t-69.5 27.5q-39 0 -61.5 -28.5t-22.5 -73.5z" />
<glyph unicode="&#xe6;" horiz-adv-x="1177" d="M80 311q0 182 75.5 267.5t231.5 85.5q83 0 137 -13v205q0 95 -37.5 146t-130.5 51q-63 0 -96.5 -18.5t-51.5 -71.5t-20 -154h-90q2 83 14.5 139.5t41 101t79.5 66t127 21.5q186 0 230 -162q33 82 88 122t141 40q130 0 201 -93q84 -119 84 -426v-57h-483q0 -265 44.5 -380 t153.5 -115q94 0 135 65t47 199h93q-9 -170 -75.5 -258t-201.5 -88q-95 0 -155.5 42t-92.5 134q-33 -94 -101 -135t-151 -41q-104 0 -170.5 79.5t-66.5 247.5zM174 315q0 -72 15.5 -123t41.5 -77t54 -37.5t59 -11.5q76 0 130.5 51.5t70.5 126.5q-21 123 -21 329 q-50 17 -143 17q-108 0 -157.5 -67.5t-49.5 -207.5zM621 637h389q0 211 -45.5 313.5t-151.5 102.5q-92 0 -140 -95t-52 -321z" />
<glyph unicode="&#xe7;" horiz-adv-x="710" d="M78 555q0 303 70.5 442.5t230.5 139.5q257 0 266 -355h-92q-15 269 -178 269q-108 0 -154.5 -115t-46.5 -367q0 -253 45 -376t158 -123q160 0 176 264h88q-12 -327 -233 -348l-23 -92q18 0 33 -5q143 -14 143 -118q0 -55 -45.5 -89t-128.5 -34q-79 0 -147 24l12 52 q72 -21 133 -21q104 0 104 68q0 71 -118 77l-45 5l34 131q-148 6 -215 139t-67 432z" />
<glyph unicode="&#xe8;" horiz-adv-x="731" d="M78 571q0 291 68.5 428.5t226.5 137.5q56 0 100.5 -18.5t73.5 -47.5t50.5 -74t33 -88t18.5 -99t8.5 -98t1.5 -94v-61h-485q0 -262 46.5 -374.5t154.5 -112.5q93 0 133.5 63t48.5 197h90q-8 -170 -73.5 -258t-200.5 -88q-106 0 -169.5 55.5t-94.5 184t-31 347.5zM152 1489 l106 10l154 -274h-80zM176 643h389q0 209 -46 308.5t-152 99.5q-92 0 -140 -92t-51 -316z" />
<glyph unicode="&#xe9;" horiz-adv-x="731" d="M78 571q0 291 68.5 428.5t226.5 137.5q56 0 100.5 -18.5t73.5 -47.5t50.5 -74t33 -88t18.5 -99t8.5 -98t1.5 -94v-61h-485q0 -262 46.5 -374.5t154.5 -112.5q93 0 133.5 63t48.5 197h90q-8 -170 -73.5 -258t-200.5 -88q-106 0 -169.5 55.5t-94.5 184t-31 347.5zM176 643 h389q0 209 -46 308.5t-152 99.5q-92 0 -140 -92t-51 -316zM324 1225l153 274l107 -10l-178 -264h-82z" />
<glyph unicode="&#xea;" horiz-adv-x="731" d="M78 571q0 291 68.5 428.5t226.5 137.5q56 0 100.5 -18.5t73.5 -47.5t50.5 -74t33 -88t18.5 -99t8.5 -98t1.5 -94v-61h-485q0 -262 46.5 -374.5t154.5 -112.5q93 0 133.5 63t48.5 197h90q-8 -170 -73.5 -258t-200.5 -88q-106 0 -169.5 55.5t-94.5 184t-31 347.5zM156 1225 l170 274h82l165 -274h-86l-120 202l-127 -202h-84zM176 643h389q0 209 -46 308.5t-152 99.5q-92 0 -140 -92t-51 -316z" />
<glyph unicode="&#xeb;" horiz-adv-x="731" d="M78 571q0 291 68.5 428.5t226.5 137.5q56 0 100.5 -18.5t73.5 -47.5t50.5 -74t33 -88t18.5 -99t8.5 -98t1.5 -94v-61h-485q0 -262 46.5 -374.5t154.5 -112.5q93 0 133.5 63t48.5 197h90q-8 -170 -73.5 -258t-200.5 -88q-106 0 -169.5 55.5t-94.5 184t-31 347.5zM170 1290 v176h86v-176h-86zM176 643h389q0 209 -46 308.5t-152 99.5q-92 0 -140 -92t-51 -316zM475 1290v176h86v-176h-86z" />
<glyph unicode="&#xec;" d="M-47 1489l106 10l154 -274h-80zM127 0v1118h96v-1118h-96z" />
<glyph unicode="&#xed;" d="M127 0v1118h96v-1118h-96zM129 1225l154 274l106 -10l-178 -264h-82z" />
<glyph unicode="&#xee;" d="M-37 1225l170 274h82l166 -274h-86l-121 202l-127 -202h-84zM127 0v1118h96v-1118h-96z" />
<glyph unicode="&#xef;" d="M-23 1290v176h86v-176h-86zM127 0v1118h96v-1118h-96zM283 1290v176h86v-176h-86z" />
<glyph unicode="&#xf0;" horiz-adv-x="737" d="M78 524q0 183 36 307.5t116 186t200 39.5l-106 182l-181 -61l-18 59l168 57l-96 170h98l82 -143l166 57l18 -57l-153 -53l174 -299q80 -137 80 -430q0 -288 -69 -421.5t-218 -133.5q-158 0 -227.5 129.5t-69.5 410.5zM174 528q0 -253 48 -357.5t155 -104.5 q68 0 108.5 44.5t60 148t19.5 280.5q0 245 -42.5 350.5t-143.5 105.5q-107 0 -156 -113t-49 -354z" />
<glyph unicode="&#xf1;" horiz-adv-x="784" d="M123 0v1118h90v-127h2q58 146 238 146q104 0 160.5 -59t56.5 -169v-909h-95v887q0 73 -39.5 118.5t-117.5 45.5q-79 0 -140 -57.5t-61 -153.5v-840h-94zM145 1241q8 70 44 112t94 42q39 0 108 -39t107 -39q35 0 51 19.5t31 68.5l63 -10q-10 -78 -45.5 -116t-91.5 -38 q-40 0 -83 20.5t-78.5 41t-57.5 20.5q-58 0 -72 -94z" />
<glyph unicode="&#xf2;" horiz-adv-x="737" d="M78 553q0 301 68 442.5t223 141.5q158 0 225.5 -139.5t67.5 -430.5q0 -304 -70 -443.5t-217 -139.5q-160 0 -228.5 136t-68.5 433zM152 1489l106 10l154 -274h-80zM174 559q0 -191 23 -299t65.5 -149t114.5 -41q69 0 109.5 46.5t59.5 154t19 292.5q0 263 -45 375.5 t-158 112.5q-107 0 -147.5 -118.5t-40.5 -373.5z" />
<glyph unicode="&#xf3;" horiz-adv-x="737" d="M78 553q0 301 68 442.5t223 141.5q158 0 225.5 -139.5t67.5 -430.5q0 -304 -70 -443.5t-217 -139.5q-160 0 -228.5 136t-68.5 433zM174 559q0 -191 23 -299t65.5 -149t114.5 -41q69 0 109.5 46.5t59.5 154t19 292.5q0 263 -45 375.5t-158 112.5q-107 0 -147.5 -118.5 t-40.5 -373.5zM324 1225l153 274l107 -10l-178 -264h-82z" />
<glyph unicode="&#xf4;" horiz-adv-x="737" d="M78 553q0 301 68 442.5t223 141.5q158 0 225.5 -139.5t67.5 -430.5q0 -304 -70 -443.5t-217 -139.5q-160 0 -228.5 136t-68.5 433zM158 1225l170 274h82l165 -274h-86l-120 202l-127 -202h-84zM174 559q0 -191 23 -299t65.5 -149t114.5 -41q69 0 109.5 46.5t59.5 154 t19 292.5q0 263 -45 375.5t-158 112.5q-107 0 -147.5 -118.5t-40.5 -373.5z" />
<glyph unicode="&#xf5;" horiz-adv-x="737" d="M78 553q0 301 68 442.5t223 141.5q158 0 225.5 -139.5t67.5 -430.5q0 -304 -70 -443.5t-217 -139.5q-160 0 -228.5 136t-68.5 433zM117 1241q8 70 43.5 112t93.5 42q39 0 108 -39t107 -39q35 0 51 19.5t31 68.5l63 -10q-10 -78 -45.5 -116t-91.5 -38q-40 0 -83 20.5 t-78.5 41t-57.5 20.5q-58 0 -72 -94zM174 559q0 -191 23 -299t65.5 -149t114.5 -41q69 0 109.5 46.5t59.5 154t19 292.5q0 263 -45 375.5t-158 112.5q-107 0 -147.5 -118.5t-40.5 -373.5z" />
<glyph unicode="&#xf6;" horiz-adv-x="737" d="M78 553q0 301 68 442.5t223 141.5q158 0 225.5 -139.5t67.5 -430.5q0 -304 -70 -443.5t-217 -139.5q-160 0 -228.5 136t-68.5 433zM172 1290v176h86v-176h-86zM174 559q0 -191 23 -299t65.5 -149t114.5 -41q69 0 109.5 46.5t59.5 154t19 292.5q0 263 -45 375.5 t-158 112.5q-107 0 -147.5 -118.5t-40.5 -373.5zM477 1290v176h86v-176h-86z" />
<glyph unicode="&#xf7;" horiz-adv-x="1069" d="M141 668v67h637v-67h-637zM420 381v149h88v-149h-88zM420 856v150h88v-150h-88z" />
<glyph unicode="&#xf8;" horiz-adv-x="737" d="M78 553q0 301 68 442.5t223 141.5q82 0 137 -37l37 110l75 -22l-49 -150q93 -132 93 -471q0 -304 -70 -443.5t-217 -139.5q-84 0 -142 34l-36 -112l-80 22l51 154q-90 131 -90 471zM174 559q0 -246 35 -352l266 801q-43 43 -113 43q-107 0 -147.5 -118.5t-40.5 -373.5z M262 111q41 -41 115 -41q69 0 109.5 46.5t59.5 154t19 292.5q0 245 -37 352z" />
<glyph unicode="&#xf9;" horiz-adv-x="784" d="M121 211v907h92v-889q0 -73 40.5 -118t117.5 -45q80 0 140 57t60 153v842h95v-1118h-91v143h-2q-30 -79 -93 -119t-144 -40q-103 0 -159 58.5t-56 168.5zM172 1489l107 10l153 -274h-80z" />
<glyph unicode="&#xfa;" horiz-adv-x="784" d="M121 211v907h92v-889q0 -73 40.5 -118t117.5 -45q80 0 140 57t60 153v842h95v-1118h-91v143h-2q-30 -79 -93 -119t-144 -40q-103 0 -159 58.5t-56 168.5zM348 1225l154 274l106 -10l-178 -264h-82z" />
<glyph unicode="&#xfb;" horiz-adv-x="784" d="M121 211v907h92v-889q0 -73 40.5 -118t117.5 -45q80 0 140 57t60 153v842h95v-1118h-91v143h-2q-30 -79 -93 -119t-144 -40q-103 0 -159 58.5t-56 168.5zM182 1225l170 274h82l166 -274h-86l-121 202l-127 -202h-84z" />
<glyph unicode="&#xfc;" horiz-adv-x="784" d="M121 211v907h92v-889q0 -73 40.5 -118t117.5 -45q80 0 140 57t60 153v842h95v-1118h-91v143h-2q-30 -79 -93 -119t-144 -40q-103 0 -159 58.5t-56 168.5zM197 1290v176h86v-176h-86zM502 1290v176h86v-176h-86z" />
<glyph unicode="&#xfd;" horiz-adv-x="679" d="M29 1118h94l225 -938h4l217 938h93l-273 -1126q-43 -180 -111.5 -256t-175.5 -76q-44 0 -67 2v86q20 -2 67 -2q135 0 187 186l16 66zM297 1225l154 274l106 -10l-178 -264h-82z" />
<glyph unicode="&#xfe;" horiz-adv-x="770" d="M123 -324v1788h94v-501h2q27 83 84.5 128.5t126.5 45.5q140 0 201 -138t61 -426q0 -310 -66.5 -449.5t-203.5 -139.5q-69 0 -122.5 36t-78.5 111h-4v-455h-94zM217 422q0 -352 189 -352q56 0 94.5 37t58.5 108t28.5 154t8.5 194q0 247 -43.5 367.5t-146.5 120.5 q-81 0 -135 -81.5t-54 -252.5v-295z" />
<glyph unicode="&#xff;" horiz-adv-x="679" d="M29 1118h94l225 -938h4l217 938h93l-273 -1126q-43 -180 -111.5 -256t-175.5 -76q-44 0 -67 2v86q20 -2 67 -2q135 0 187 186l16 66zM145 1290v176h86v-176h-86zM451 1290v176h86v-176h-86z" />
<glyph unicode="&#x152;" horiz-adv-x="1310" d="M82 717q0 176 22.5 308.5t60.5 215t94.5 133.5t117.5 70.5t137 19.5h719v-86h-459v-571h354v-84h-354v-637h461v-86h-692q-80 0 -144.5 17.5t-125.5 66t-101.5 127t-65 207t-24.5 299.5zM184 719q0 -633 340 -633h152v1292h-158q-62 0 -111 -19.5t-91.5 -66t-71 -121 t-44.5 -188.5t-16 -264z" />
<glyph unicode="&#x153;" horiz-adv-x="1218" d="M78 553q0 301 68 442.5t223 141.5q177 0 243 -185q68 185 248 185q56 0 100.5 -18.5t74 -48t51 -74t33 -87.5t18.5 -99t8.5 -98t1.5 -94v-61h-485v-20q2 -251 47.5 -359t152.5 -108q93 0 133.5 63t48.5 197h91q-8 -170 -74 -258t-201 -88q-94 0 -155.5 44t-94.5 142 q-66 -186 -235 -186q-160 0 -228.5 136t-68.5 433zM174 559q0 -191 23 -299t65.5 -149t114.5 -41q100 0 143.5 105t44.5 364v32q-2 259 -46.5 369.5t-156.5 110.5q-107 0 -147.5 -118.5t-40.5 -373.5zM664 643h389q0 209 -46.5 308.5t-152.5 99.5q-92 0 -139.5 -92 t-50.5 -316z" />
<glyph unicode="&#x178;" horiz-adv-x="739" d="M14 1464h103l254 -731h2l258 731h92l-305 -858v-606h-99v606zM176 1620v176h84v-176h-84zM481 1620v176h86v-176h-86z" />
<glyph unicode="&#x2c6;" horiz-adv-x="735" d="M154 1225l170 274h82l165 -274h-86l-120 202l-127 -202h-84z" />
<glyph unicode="&#x2dc;" horiz-adv-x="735" d="M115 1241q8 70 43.5 112t93.5 42q39 0 108 -39t107 -39q35 0 51 19.5t31 68.5l63 -10q-10 -78 -45.5 -116t-91.5 -38q-40 0 -83 20.5t-78.5 41t-57.5 20.5q-58 0 -72 -94z" />
<glyph unicode="&#x2000;" horiz-adv-x="912" />
<glyph unicode="&#x2001;" horiz-adv-x="1825" />
<glyph unicode="&#x2002;" horiz-adv-x="912" />
<glyph unicode="&#x2003;" horiz-adv-x="1825" />
<glyph unicode="&#x2004;" horiz-adv-x="608" />
<glyph unicode="&#x2005;" horiz-adv-x="456" />
<glyph unicode="&#x2006;" horiz-adv-x="304" />
<glyph unicode="&#x2007;" horiz-adv-x="304" />
<glyph unicode="&#x2008;" horiz-adv-x="228" />
<glyph unicode="&#x2009;" horiz-adv-x="365" />
<glyph unicode="&#x200a;" horiz-adv-x="101" />
<glyph unicode="&#x2010;" horiz-adv-x="524" d="M66 575v82h393v-82h-393z" />
<glyph unicode="&#x2011;" horiz-adv-x="524" d="M66 575v82h393v-82h-393z" />
<glyph unicode="&#x2012;" horiz-adv-x="524" d="M66 575v82h393v-82h-393z" />
<glyph unicode="&#x2013;" horiz-adv-x="886" d="M0 586v71h887v-71h-887z" />
<glyph unicode="&#x2014;" horiz-adv-x="1755" d="M0 586v71h1755v-71h-1755z" />
<glyph unicode="&#x2018;" horiz-adv-x="323" d="M111 1081v189l45 194h53l-35 -182h35v-201h-98z" />
<glyph unicode="&#x2019;" horiz-adv-x="323" d="M115 1081l32 181h-32v202h98v-190l-45 -193h-53z" />
<glyph unicode="&#x201a;" horiz-adv-x="323" d="M115 0v203h98v-191l-45 -194h-53l32 182h-32z" />
<glyph unicode="&#x201c;" horiz-adv-x="522" d="M111 1081v189l45 194h53l-35 -182h35v-201h-98zM311 1081v189l45 194h54l-35 -182h35v-201h-99z" />
<glyph unicode="&#x201d;" horiz-adv-x="522" d="M115 1081l32 181h-32v202h98v-190l-45 -193h-53zM315 1081l33 181h-33v202h97v-190l-45 -193h-52z" />
<glyph unicode="&#x201e;" horiz-adv-x="522" d="M115 0v203h98v-191l-45 -194h-53l32 182h-32zM315 0v203h97v-191l-45 -194h-52l33 182h-33z" />
<glyph unicode="&#x2022;" horiz-adv-x="645" d="M96 700q0 103 66.5 171.5t161.5 68.5q94 0 159.5 -69t65.5 -171t-65 -169.5t-160 -67.5t-161.5 67t-66.5 170z" />
<glyph unicode="&#x2026;" horiz-adv-x="968" d="M113 0v203h98v-203h-98zM434 0v203h98v-203h-98zM756 0v203h98v-203h-98z" />
<glyph unicode="&#x202f;" horiz-adv-x="365" />
<glyph unicode="&#x2039;" horiz-adv-x="313" d="M43 596v37l143 256h86l-143 -275l137 -274l-86 -2z" />
<glyph unicode="&#x203a;" horiz-adv-x="313" d="M41 889h86l143 -256v-37l-137 -258l-84 2l137 274z" />
<glyph unicode="&#x205f;" horiz-adv-x="456" />
<glyph unicode="&#x20ac;" horiz-adv-x="974" d="M53 584v84h113v80v53h-113v84h115q17 313 110 454.5t267 141.5q322 0 336 -463h-97q-3 173 -64 274t-181 101q-127 0 -192 -127t-77 -381h435l-25 -84h-412v-51v-82h371l-25 -84h-342q15 -277 83 -395.5t196 -118.5q80 0 133 51.5t76.5 136.5t25.5 203h95 q-4 -248 -92.5 -362.5t-239.5 -114.5q-86 0 -150 30.5t-113 99.5t-78 185.5t-38 284.5h-117z" />
<glyph unicode="&#x2122;" horiz-adv-x="892" d="M70 1417v47h292v-47h-118v-530h-56v530h-118zM408 887v577h79l109 -448h2l109 448h81v-577h-57v454h-2l-111 -454h-47l-108 454h-2v-454h-53z" />
<glyph unicode="&#x25fc;" horiz-adv-x="1116" d="M0 0v1116h1116v-1116h-1116z" />
<glyph unicode="&#xfb01;" horiz-adv-x="827" d="M49 1038v80h131v135q0 113 45 173.5t154 60.5q80 0 133 -23l-27 -75q-46 20 -104 20t-83.5 -32t-25.5 -97v-162h166v-80h-166v-1038h-92v1038h-131zM602 0v1118h96v-1118h-96zM602 1290v174h96v-174h-96z" />
<glyph unicode="&#xfb02;" horiz-adv-x="886" d="M49 1038v80h131v135q0 113 45 173.5t154 60.5q80 0 133 -23l-27 -75q-46 20 -104 20t-83.5 -32t-25.5 -97v-162h166v-80h-166v-1038h-92v1038h-131zM594 231v1233h94v-1214q0 -97 26 -136.5t85 -39.5q35 0 75 12l11 -82q-43 -14 -111 -14q-96 0 -138 57.5t-42 183.5z" />
</font>
</defs>
</svg>
