<?xml version="1.0" standalone="no"?>
<!DOCTYPE svg PUBLIC "-//W3C//DTD SVG 1.1//EN" "http://www.w3.org/Graphics/SVG/1.1/DTD/svg11.dtd" >
<svg xmlns="http://www.w3.org/2000/svg" width="100%" height="100%">
<metadata>
Created by FontXChange 20100429 at Thu Feb 12 04:02:04 2015
 By Arlan Viray
By PintassilgoPrints, 2010. All rights reserved. www.pintassilgoprints.com
</metadata>
<defs>
<font id="AmarelinhaW01" horiz-adv-x="224" >
  <font-face 
    font-family="AmarelinhaW01"
    font-weight="400"
    font-stretch="normal"
    units-per-em="1000"
    panose-1="2 1 6 6 0 0 0 0 0 0"
    ascent="878"
    descent="-122"
    x-height="736"
    cap-height="749"
    bbox="-36 -146 667 907"
    underline-thickness="50"
    underline-position="-100"
    unicode-range="U+000D-2122"
  />
<missing-glyph horiz-adv-x="0" 
 />
    <glyph glyph-name=".notdef" horiz-adv-x="0" 
 />
    <glyph glyph-name="quotedbl" unicode="&#x22;" horiz-adv-x="123" 
d="M14 755q1 7 8 9h2q7 0 8 -7l1 -4l-1 -30v-24q1 -9 1 -16v-12q0 -39 -8 -41l-1 -1q-8 0 -11 15q0 2 -1 3v4v8q1 3 1 7q1 8 1.5 16.5t0.5 18.5v7.5t-1 14.5v32zM68 755q1 7 8 9h2q7 0 8 -7l1 -4l-1 -30v-24q1 -9 1 -16v-12q0 -39 -8 -41l-1 -1q-8 0 -11 15q-1 9 0 22
q1 8 1.5 16.5t0.5 18.5v7.5t-1 14.5v32z" />
    <glyph glyph-name="numbersign" unicode="#" horiz-adv-x="390" 
d="M116 334h48t36 1l24 93h-42q-15 1 -26 1h-19zM175 653q4 7 9 7h1q8 0 8 -10v-4l-21 -65l-5 -21l-12 -53q-7 -34 -15 -64q14 -1 36 -1h52l48 184q4 7 10 7q8 -2 8 -8q0 -3 -9 -34l-6 -23l-15 -56l-18 -70q23 -1 51 -1h60q9 -2 9 -9t-8 -9l-3 -1l-30 1q-7 4 -82 5l-24 -93
h30.5t38.5 1h57h11q9 -3 9 -8q2 -9 -7 -10l-4 -1q-17 1 -51.5 1h-88.5q-68 -260 -76 -260q-9 0 -7 17q1 9 6 21q2 4 16.5 59l42.5 163h-84q-59 -254 -66 -254q-8 0 -8 14q0 6 7 24q2 5 14.5 59l36.5 158q-101 0 -101 10q0 7 15 10l1 1h1q5 0 17 -1.5l29 -3.5q3 0 6 -1h14h17
h5l22 95q-60 1 -91.5 2t-34.5 2q-1 4 3 7t11 4q3 1 26 1h10q1 0 20.5 -0.5l58.5 -1.5z" />
    <glyph glyph-name="dollar" unicode="$" horiz-adv-x="262" 
d="M130 8q52 7 60 39q1 3 1.5 7.5t2.5 9.5t2.5 9.5t1.5 6.5q1 3 1 9t1 15t1 21t1 27v21q0 80 -18 130q-10 25 -23 47.5t-30 42.5q-1 -61 -1 -140v-177v-50v-5v-13zM113 742q-20 0 -40 -17q-25 -21 -25 -71q0 -8 1 -21t3 -31q4 -78 57 -149v30t1 43v41.5t1 24.5q3 99 3 129
v21h-1zM65 746q17 17 47 17h1q0 6 -1 9v8q0 16 1 17q1 3 3 3q8 0 13 -39q45 -8 70 -39q10 -10 10 -19q0 -4 -4 -4t-8 4q-44 32 -65 36v-12v-81v-100q-1 -38 -1 -68.5v-53.5l5 -5q18 -21 30 -40q7 -11 11.5 -19l8.5 -15q6 -13 8 -15q13 -10 24 -79q6 -35 6 -83
q0 -112 -20 -141q-24 -35 -76 -42q-2 -27 -12 -27q-8 0 -10 26q-54 1 -66 34q-9 26 -9 140q0 39 3 41q2 2 5 0q4 -2 5 -7q3 -3 3 -11v-15q0 -115 8 -133q9 -25 51 -26v43q0 53 0.5 144.5t1.5 224.5q-50 56 -65 104q-5 13 -9 45l-4 30.5t-4 27.5l-3 25q0 47 42 95z" />
    <glyph glyph-name="percent" unicode="%" horiz-adv-x="426" 
d="M376 740q0 -20 -18 -53l-37 -70l-234 -522l-25 -44l-2 -4q-29 -48 -41 -48h-2h-1q-3 1 -3 6q0 8 8 24l32 55l191 422l48 97l43 85q13 27 20 45q11 26 19 14q2 -4 2 -7zM106 736q-14 -1 -34 -32q-19 -31 -19 -78q0 -26 3 -48t8 -42q12 -36 29 -47q7 -6 24 -6q12 0 19 4
q26 15 26 156q0 35 -19 63q-20 30 -35 30h-2zM86 752q7 10 17 10h2q36 -8 57 -53q20 -48 20 -88q-1 -34 -1.5 -55.5t-2.5 -29.5q0 -15 -10 -37q-8 -18 -18 -27q-11 -9 -30 -9q-35 0 -59 38q-23 37 -25 91v9q0 13 0.5 23.5t1.5 20.5t1.5 17.5t2.5 13.5q0 10 8 24q7 14 9 16
q2 4 13 18zM281 270q-17 -8 -33 -35q-17 -29 -17 -75q0 -26 2.5 -48.5t8.5 -41.5q9 -36 26 -47q7 -6 24 -6q12 0 19 4q26 15 26 156q0 39 -13 65q-13 29 -33 29q-9 0 -10 -1zM286 296q21 0 38 -15q14 -15 22 -40q3 -13 5 -24t3 -21q3 -20 3 -41q-3 -96 -13 -122
q-14 -36 -49 -36q-32 0 -58 35q-27 33 -27 103q0 37 6 67l7.5 26t8.5 20q12 18 20 28l10 10t8 6q7 4 10 4h6z" />
    <glyph glyph-name="ampersand" unicode="&#x26;" horiz-adv-x="347" 
d="M118 396q-2 -2 -21 -30q-10 -14 -17 -25t-11 -19q-8 -19 -18 -58t-10 -91v-21q1 -17 1 -29.5t1 -20.5t2 -17.5t3 -20.5q6 -24 14 -32q5 -5 11.5 -9l14.5 -9q19 -7 43 -7q102 0 125 83zM182 753q42 -48 42 -95l-4 -21q-3 -18 -4 -20q0 -6 -4 -18q-4 -16 -6 -21
q-3 -7 -10 -25q-4 -8 -7.5 -17t-8.5 -18l-20 -42l-28 -56l131 -291q1 10 3.5 26.5t7.5 40.5q9 51 12 73q2 9 4 11q1 4 4 7q3 2 5 0q5 -3 5 -19q0 -11 -7 -53.5t-21 -116.5l13 -33l32 -56q8 -16 8 -23q0 -5 -3 -6q-1 -1 -3 -1q-6 0 -34 49l-2 4l-20 34q-31 -82 -133 -82
q-68 0 -92 42q-23 41 -23 142q0 54 6 83q14 61 22 79q9 19 57 90l-27 90l-19 60l-5.5 19t-4.5 17q-5 16 -7 31l-3.5 23.5t-1.5 19.5q0 90 99 90q30 0 47 -17zM134 749q-35 0 -56 -23q-22 -22 -22 -58q0 -11 4 -27q8 -34 57 -197l33 66q11 20 17.5 33t8.5 20q3 7 6 16.5
l7 22.5t6 27.5t4 31.5v9q0 40 -25 62q-20 17 -40 17z" />
    <glyph glyph-name="quotesingle" unicode="'" horiz-adv-x="59" 
d="M20 755q1 7 8 9h2q7 0 8 -7l1 -4l-1 -30v-24q1 -9 1 -16v-12q0 -39 -8 -41l-1 -1q-8 0 -11 15q0 2 -1 3v4v8q1 3 1 7q1 8 1.5 16.5t0.5 18.5v7.5t-1 14.5v32z" />
    <glyph glyph-name="parenleft" unicode="(" horiz-adv-x="164" 
d="M113 768q15 -11 15 -16q0 -4 -10 -5q-7 -1 -10 -4q-22 0 -32 -7q-8 -5 -13 -16q-5 -12 -8 -28q-2 -9 -2.5 -16.5t-1.5 -15.5q-1 -6 -1 -15.5t-1 -21.5t-1 -20t-1 -13q-1 -19 -1 -50.5v-76.5v-73.5t1 -60.5l-1 -298v-4q0 -38 10 -61q12 -22 39 -26q5 -1 7 -2.5t4 -3.5
q0 -6 -2 -8q-4 -4 -7 -4q-34 0 -47 13q-17 15 -20 68q-2 26 -3 81t-1 140q0 91 1.5 179t3.5 176v17v21v27t1 21t2 19t4 22q2 11 5 19.5t7 14.5q8 11 24 20q18 8 39 8z" />
    <glyph glyph-name="parenright" unicode=")" horiz-adv-x="153" 
d="M27 768q21 0 39 -8q16 -9 24 -20q4 -6 7 -14.5t5 -19.5q3 -12 4 -22t2 -19t1 -21v-27v-21v-17q2 -88 3.5 -176t1.5 -179q0 -85 -1 -140t-3 -81q-3 -53 -20 -68q-13 -13 -47 -13q-3 0 -7 4q-2 2 -2 8q2 2 4 3.5t7 2.5q27 4 39 26q10 23 10 61v4l-1 298q1 27 1 60.5v73.5
v76.5t-1 50.5q-1 5 -1 13t-1 20t-1 21.5t-1 15.5q-1 8 -1.5 15.5t-2.5 16.5q-3 16 -8 28q-5 11 -13 16q-10 7 -32 7q-3 3 -10 4q-10 1 -10 5q0 5 15 16z" />
    <glyph glyph-name="asterisk" unicode="*" horiz-adv-x="180" 
d="M65 756q1 7 8 9h2q7 0 8 -7l1 -2v-2l-3 -41l6 6l18 24q9 4 12 1q8 -5 1 -13q0 -1 -1 -1l-1 -2l-25 -19h6t11 1t12 1h9q3 -1 9 -1h6q0 -1 0.5 -1.5t0.5 -2.5q0 -7 -8 -9l-3 -1l-30 2h-6q-3 -1 -7 -1l29 -33q4 -9 1 -12q-5 -8 -13 -1q0 1 -1 1t-2 1l-24 34l-2 2v-7.5
t1 -11.5v-19q0 -19 -4 -20h-1q-8 0 -11 14q-1 9 0 22q0 3 2 7q0 4 2 10q1 3 1 8l-16 -16q-5 -5 -9.5 -9t-7.5 -6q-7 -5 -10 -5q-1 0 -2 1q-8 4 3 18q3 4 6 6.5t5 4.5t10 6q9 5 13 9h-32q-19 0 -19 6q0 9 17 9l29 -4h1q1 -1 2 -1q-29 35 -29 39v1q2 2 4 2q12 0 33 -38v6.5
t-1 12.5t-1 13.5v8.5z" />
    <glyph glyph-name="plus" unicode="+" horiz-adv-x="146" 
d="M46 358q0 31 11 31q6 0 9 -29l5 -43h1h16q3 0 6.5 0.5t7.5 0.5q4 2 6.5 2h3.5h11q11 2 11 -4q0 -11 -6 -12q-7 -4 -29 -5q-8 -1 -15 -1t-12 -1l2 -23q2 -6 2 -10.5v-6.5v-7q0 -15 -5 -15q-4 0 -5 1h-4q0 2 -2 2l-2 4v4q-1 2 -1 6t-1 8v9v12q-1 4 -1 7t-1 7l-43 -3
q-31 0 -31 10q0 2 1 3t4 1l6 2h9q3 1 9 1l42 4z" />
    <glyph glyph-name="comma" unicode="," horiz-adv-x="74" 
d="M28 55q5 8 9 8q9 0 9 -9v-4l-6 -29q-1 -2 -1.5 -7.5t-2.5 -13.5l-4 -28l-2 -13.5t-3 -13.5q-4 -16 -7 -22q-3 -8 -7 -8q-9 0 -9 16q0 7 4 22q3 10 8 35t12 67z" />
    <glyph glyph-name="hyphen" unicode="-" horiz-adv-x="179" 
d="M89 316l23 2q6 2 10.5 2h6.5h11q11 2 11 -4q0 -11 -6 -12q-7 -4 -29 -5q-8 -1 -15 -1t-12 -1l-61 -5q-31 0 -31 13q0 9 29 9z" />
    <glyph glyph-name="period" unicode="." horiz-adv-x="63" 
d="M10 7q-1 8 -1.5 12.5t-0.5 6.5q0 8 1 12q1 2 1 3.5t1 2.5t1 3q0 12 9 12q10 0 10 -29v-6q0 -15 -5 -22q-3 -10 -9 -10t-7 15z" />
    <glyph glyph-name="slash" unicode="/" horiz-adv-x="299" 
d="M261 792q0 1 1 1l2 -1q3 0 4 -7q1 -3 1 -18q0 -10 -1.5 -19t-3.5 -19l-21 -78l-164 -585l-13 -49v-4q-13 -52 -28 -57h-1l-1 -1h-1q-2 0 -4 5q-1 1 -1 8q0 8 2 18l17 61l137 492l22 69l24 77l13 43q8 32 9 46q0 7 6 16z" />
    <glyph glyph-name="zero" unicode="0" horiz-adv-x="269" 
d="M35 660q0 40 19 66q19 27 45 27q4 0 14 -2q11 -4 20.5 -8t17.5 -9q16 -10 20 -15l4.5 -7t4.5 -9q3 -5 4 -7.5t2 -3.5q16 -23 29 -138q7 -58 10.5 -118t3.5 -124q0 -80 -9 -162q-11 -84 -25 -120l-6 -8l-5 -8q-2 -4 -5 -6q-2 -3 -3.5 -4t-2.5 -2t-3 -1.5t-4 -2.5
q-4 -2 -10 -4q-3 -2 -12 -3q-3 -1 -7 -1.5t-9 -1.5q-4 -1 -9 -1t-10 -1h-5q-3 -1 -5 -1q-22 0 -40 9q-19 9 -23 24q-2 7 -4.5 27t-6.5 55t-5.5 61t-1.5 43q0 15 2 17l15 434v5zM40 221q0 -25 1 -53t3 -60q3 -66 7 -75q11 -26 57 -26q30 0 50 17q21 16 30 45q9 28 12 51
q3 24 3 50l-1 31v61q1 22 1 39v30q0 387 -86 399q-7 1 -11.5 1.5t-6.5 0.5q-25 0 -35 -20q-5 -9 -8.5 -28t-5.5 -47l-10 -407v-9z" />
    <glyph glyph-name="one" unicode="1" horiz-adv-x="93" 
d="M34 746q1 3 3 3q3 0 7 -7q4 -8 7 -22q3 -15 3 -32v-81v-98t-1 -152t-1 -149v-90v-50v-5q0 -63 -14 -63q-9 0 -10 28v64q0 145 1.5 259.5t3.5 201.5q3 99 3 129t-3 47q-2 13 1 17z" />
    <glyph glyph-name="two" unicode="2" horiz-adv-x="247" 
d="M43 22q0 -2 -1 -3v-3l67 2h26q61 0 61 -12q0 1 -2 -5q-3 -5 -91 -6h-9h-9t-11 -1h-20q-36 0 -36 30v5q12 143 20 169q7 22 26 54q17 29 33 44l11 12q5 4 11 12.5l16 22.5q19 27 33 57q15 30 27 78t12 98v21q-1 15 -1 27t-1 21t-1 15t-1 8q-1 3 -1.5 7.5t-2.5 9.5
t-2.5 9.5t-1.5 7.5q-5 19 -27 29q-25 11 -51 11q-46 0 -57 -26q-8 -18 -8 -133v-15q0 -4 -0.5 -6.5t-1.5 -5.5q-2 -2 -3 -3.5t-3 -2.5q-3 -2 -5 0q-3 1 -3 41q0 114 9 140q12 34 69 34q27 0 54 -11q27 -12 41 -32q20 -29 20 -141q0 -49 -6 -83q-2 -13 -6 -28.5t-10 -34.5
q-12 -38 -18 -44q-2 -2 -9 -15q-6 -14 -19 -34q-12 -19 -30 -40q-81 -91 -84 -178v-5q-2 -18 -3 -42t-1 -55z" />
    <glyph glyph-name="three" unicode="3" horiz-adv-x="219" 
d="M100 460q82 249 82 268q0 2 -4 2q-4 1 -14 0q-5 -1 -8.5 -1h-6.5q-5 0 -14 0.5t-23 0.5q-13 2 -22.5 2h-15.5q-53 0 -53 9q0 5 1 6q3 4 13 4q17 0 43.5 -1.5l61.5 -3.5q8 -1 16 -1h18h13q19 0 19 -9q0 -16 -24 -92l-60 -190l-7 -26q39 -5 57 -30q17 -24 15 -56
q-1 -16 -1.5 -32.5t-0.5 -33.5v-29.5t1 -26.5v-40v-16t1 -17t1 -30.5v-55.5q0 -46 -18 -64q-17 -17 -69 -19h-6q-34 0 -47 13q-16 14 -20 31l-5 57q0 22 10 22q5 0 11 -7q4 -8 3 -15q0 -9 0.5 -16.5t1.5 -12.5q1 -11 8 -26q6 -14 21 -21t41 -7q50 0 50 73v6q0 3 -1 5v4
q-3 45 -3 138v37v21q0 70 -5 95q-5 24 -30 31q-5 1 -11 1.5t-11 1.5q-13 2 -19 4q-2 1 11 47z" />
    <glyph glyph-name="four" unicode="4" horiz-adv-x="241" 
d="M185 136q0 172 -3 289l-11 -5q-17 -9 -60 -9q-49 0 -68 10q-18 10 -23 22q-4 11 -4 226v51.5t1 24.5q0 8 6 8q13 0 13 -156v-57v-28v-35q0 -29 9 -36q13 -12 67 -12q52 0 64 9q4 3 4 30q0 8 -0.5 19t-1.5 27t-1.5 29t-0.5 24v21.5t1 13.5q-1 19 -1 40.5v45.5v6
q-1 10 -1 21.5v24.5q0 32 9 34q12 0 12 -81v-29q-1 -8 -1 -11.5v-4.5v-9t1 -13v-15v-3q4 -197 5.5 -316t1.5 -163q0 -115 -5 -123q-5 -26 -8 -26q-6 0 -6 73v50q1 15 1 23v10z" />
    <glyph glyph-name="five" unicode="5" horiz-adv-x="223" 
d="M32 413q0 340 3 345t71 5q54 0 74 -4q14 -3 14 -11t-70 -8t-73 -8q-2 -8 -2 -26v-12t1 -22v-44v-60t1 -46l-1 -87l63 2q8 1 15.5 1h15.5h9q14 0 22 -9q7 -9 9 -15q1 -5 1 -12v-28v-13v-46v-34.5t1 -40.5v-60v-16t1 -17t1 -30.5v-55.5q0 -46 -18 -64q-17 -17 -69 -19h-6
q-34 0 -47 13q-16 14 -20 31l-5 57q0 22 10 22q5 0 11 -7q4 -8 3 -15q0 -9 0.5 -16.5t1.5 -12.5q1 -11 8 -26q6 -14 21 -21t41 -7q50 0 50 73v6q0 3 -1 5v4q-3 84 -3 177q0 152 -5 154q-16 -4 -47 -4l-60 -1q-18 -2 -21 3v0z" />
    <glyph glyph-name="six" unicode="6" horiz-adv-x="229" 
d="M73 403q10 13 24 13q7 0 16 -3q10 -3 24 -16q16 -14 27 -35q13 -22 20 -64q9 -42 9 -99q-3 -113 -9 -132q-1 -5 -8 -21q-11 -23 -20 -32t-28 -12q-3 -1 -12 -1q-46 0 -66 25q-20 27 -21 89l-2 60q-1 43 -1.5 148t-0.5 275q0 56 6 91q2 12 7 24q15 36 68 36q28 0 54 -15
q31 -19 31 -40q0 -11 -7 -11t-13 11q-20 39 -56 39q-39 0 -52 -28q-17 -36 -20 -204q-1 -14 -1 -49.5t-1 -93.5q2 5 4.5 9t4.5 9q3 3 6 7t7 7q7 8 10 13zM148 344q-6 21 -14 32q-10 13 -16 14q-8 2 -15 2q-14 0 -30 -24q-20 -29 -23 -58q-3 -16 -4 -41.5t-1 -61.5
q0 -157 36 -181q13 -9 31 -9q14 0 25 6q33 17 35 163v6v31q-1 7 -1.5 14t-0.5 13q-2 8 -2 12.5t-1 9.5q-1 3 -2 8t-3 12q-3 14 -4 16q0 2 -1 6l-3 12q-3 8 -4 12.5t-2 5.5z" />
    <glyph glyph-name="seven" unicode="7" horiz-adv-x="219" 
d="M49 37q-5 -14 -12 -27t-13 -13q-4 0 -4 11t1 16q0 9 5 32l15 66q10 43 18 87q120 502 120 519q0 6 -29 6h-14t-23 -1t-23.5 -1h-15.5q-44 0 -44 12q0 5 1 6q3 4 13 4h6.5t9.5 -1l34 -3l46 -4q8 -1 16 -1h18h13q4 0 6.5 -0.5t3.5 -0.5q2 -4 2 -8t-4.5 -26.5l-12.5 -65.5
l-53.5 -260t-28.5 -121q-2 -5 -4.5 -16l-6.5 -29l-21 -92z" />
    <glyph glyph-name="eight" unicode="8" horiz-adv-x="275" 
d="M137 404q-8 -12 -15 -21.5t-14 -16.5q-20 -22 -30 -44q-11 -23 -14 -36q-2 -6 -3 -14.5t-3 -17.5q-1 -20 -3 -26q0 -4 -3 -40q-3 -33 -3 -56q0 -125 77 -125h8q23 6 40 15q15 10 24 18q7 9 12 30q4 19 4 34q1 7 1 19t1 29v21q0 83 -79 231zM137 447q2 4 6.5 9.5
t12.5 13.5q12 18 18 24q2 5 5 11t7 17q9 19 14 46q4 27 9 66v6v21q0 15 -3 27q-1 5 -3 10.5t-7 10.5q-6 10 -24 17q-20 5 -46 5q-40 0 -62 -25q-22 -23 -22 -65q0 -74 66 -156q12 -16 19.5 -25t9.5 -13zM81 -8q-52 28 -52 157q0 19 1.5 43.5l3.5 54.5l2 15.5t4 15.5
q2 8 5.5 16.5t8.5 17.5q6 11 10.5 18.5t7.5 13.5l26 40l27 42q-6 10 -12 18.5t-13 17.5l-10.5 13.5t-8.5 8.5l-7 7q-54 76 -54 133q0 5 0.5 10.5t1.5 11.5q0 24 19 55q20 32 40 41q14 8 42 8q108 0 108 -108q0 -33 -9 -76q-6 -27 -24 -63q-20 -38 -32 -48q-2 -2 -3 -5
l-5 -10q-5 -10 -8 -14q3 -4 8 -14l5 -11q1 -3 3 -5q8 -8 24 -40q16 -33 19 -55q0 -2 15 -59q14 -58 14 -74q0 -99 -23 -142q-23 -42 -92 -42h-4h-3q-17 0 -35 8z" />
    <glyph glyph-name="nine" unicode="9" horiz-adv-x="231" 
d="M120 404q-9 -4 -24 -4q-71 0 -72 151q3 112 9 132q1 5 8 21q10 22 19 32q11 9 29 12q3 1 12 1q46 0 66 -25q20 -27 21 -89l2 -60q1 -43 1.5 -148t0.5 -275q0 -57 -6 -91q-2 -12 -7 -24q-15 -36 -68 -36q-29 0 -54 15q-31 19 -31 40q0 11 7 11t13 -11q20 -38 56 -39h3
q40 0 55 34q6 17 9.5 46.5t3.5 71.5q0 13 -0.5 40t-1.5 69t-1.5 78t-0.5 66v50q-19 -57 -49 -68zM114 428q12 3 34 46q22 42 24 69q1 7 1 16v21q0 119 -37 144q-14 9 -31 9q-15 0 -25 -6q-33 -17 -35 -163v-6q0 -14 0.5 -25t0.5 -21q2 -9 3 -19t3 -21q6 -24 16 -34
q12 -12 29 -12q9 0 17 2z" />
    <glyph glyph-name="colon" unicode=":" horiz-adv-x="63" 
d="M10 7q-1 8 -1.5 12.5t-0.5 6.5q0 8 1 12q1 2 1 3.5t1 2.5t1 3q0 12 9 12q10 0 10 -29v-6q0 -15 -5 -22q-3 -10 -9 -10t-7 15zM10 275q-1 8 -1.5 12.5t-0.5 6.5q0 8 1 12q1 2 1 3.5t1 2.5t1 3q0 12 9 12h2q8 0 8 -20v-9v-6q0 -22 -10 -22l-3 -1q-5 -2 -6 1q-2 0 -2 5z" />
    <glyph glyph-name="semicolon" unicode=";" horiz-adv-x="80" 
d="M28 32q5 8 9 8q9 0 9 -9v-4l-6 -29q-1 -6 -3 -20l-3 -24q-2 -6 -2.5 -11.5t-1.5 -10.5q-3 -12 -6 -18q-3 -7 -7 -7q-9 0 -9 16q0 7 4 22q2 5 5.5 26.5t10.5 60.5zM27 275q-1 8 -1.5 12.5t-0.5 6.5q0 8 1 12q1 2 1 3.5t1 2.5t1 3q0 12 9 12h2q8 0 8 -20v-9v-6
q0 -22 -10 -22l-4 -1q-4 -2 -5 1q-2 0 -2 5z" />
    <glyph glyph-name="less" unicode="&#x3c;" horiz-adv-x="431" 
d="M11 337q2 1 16 4t39 10q5 1 13 2t19 3l22 4t24 4t41 10t73 22q89 26 119 29q7 3 17 3q14 0 14 -7q0 -3 -2 -3q0 -1 -6 -2q-2 0 -8 -2l-206 -55.5t-80 -20.5q-37 -4 -64 -12l315 -67q1 -1 9 -1q10 0 12 -2q5 0 5 -4q-3 -7 -18 -7q-10 0 -180 31q-4 0 -169 43q-10 0 -10 6
q0 4 5 12z" />
    <glyph glyph-name="equal" unicode="=" horiz-adv-x="226" 
d="M125 320l23 2q6 2 10.5 2h6.5q22 0 22 -8q0 -11 -6 -12q-7 -4 -29 -5q-8 -1 -15 -1t-12 -1l-111 -5q-25 0 -25 9q0 6 11 11q13 5 27 5zM12 151h16t20 -1h28h46q8 1 14 1t8 1q6 2 10 2q3 2 6 2t5 1q22 0 22 -8q0 -10 -6 -13q-3 -1 -10.5 -2t-18.5 -2q-8 -1 -15 -1t-12 -1
l-111 -5q-31 0 -31 13t29 13z" />
    <glyph glyph-name="greater" unicode="&#x3e;" horiz-adv-x="409" 
d="M392 309q-1 -1 -3 -1t-5 -2q-4 0 -8 -2q-6 -2 -33 -9.5l-77 -22.5l-78.5 -22.5t-43.5 -11.5q-26 -6 -45 -12q-18 -4 -31 -9l-9 -3.5t-8 -3.5q-8 -3 -9 -4l-3 -2q-2 0 -2 5q0 16 24 22q6 2 10.5 3t8.5 2q8 3 8 4l4 2l4 1q2 1 4 1t6 1l69 20l182 53l-54.5 9.5t-116.5 22.5
l-111 21t-41 7q-29 5 -29 11q0 3 5 5q2 1 5 1.5t5 1.5l5 1q9 0 29 -7q10 -4 24 -7t32 -6q89 -14 157.5 -27.5t117.5 -24.5q11 -6 11 -10q0 -3 -4 -7z" />
    <glyph glyph-name="question" unicode="?" horiz-adv-x="234" 
d="M78 75q-4 -25 -12 -25q-6 0 -14 23q0 114 11 128q2 4 4 7t3 5q1 12 86 119q27 34 27 214l-1 54q0 103 -45 126q-41 21 -66 21q-9 0 -11 -1q-11 -1 -16 -6q-3 -5 -2 -13q1 -13 1.5 -50t0.5 -100v-18q0 -7 -6 -11q-7 -5 -9 -5q-6 0 -6 89v54q0 23 -1 26v10v6v7q0 20 15 31
q11 8 21 8q5 0 35 -8q94 -29 107 -102q6 -32 6 -67q1 -11 1.5 -25.5t0.5 -31.5q0 -186 -61 -260q-42 -50 -55 -77q-14 -30 -14 -66v-9q1 -4 1 -10q-1 -12 -1 -22.5v-20.5zM54 -75q-1 8 -1.5 12.5t-0.5 6.5q0 8 1 12q1 2 1 3.5t1 2.5t1 3q0 12 9 12q10 0 10 -29v-6
q0 -15 -5 -22q-3 -10 -9 -10t-7 15z" />
    <glyph glyph-name="at" unicode="@" horiz-adv-x="363" 
d="M183 543q-42 0 -61 -29q-18 -27 -18 -61q0 -142 14 -195q13 -52 56 -52q22 0 40 26q17 28 20 91q2 58 3.5 92.5t1.5 47.5q-2 45 -12 63q-11 17 -44 17zM243 529q1 5 1 18v6q0 10 4 10q12 0 12 -37v-66v-6q1 -2 1 -7v-6.5t-1 -12.5v-22.5t-1 -39.5q-1 -23 -1 -56v-75v-25
v-14q0 -10 2 -16q3 -5 13 -9q6 -2 13 -2q10 0 20 8q6 8 8 16l2 8v61q1 22 1 39v30q0 55 -1.5 100.5t-5.5 81.5q-6 72 -18 117q-10 42 -34 66q-23 21 -49 29q-24 7 -68 7q-43 0 -60 -20q-18 -18 -24 -75l-17 -407v-9q0 -49 6 -113q6 -65 13 -75q17 -26 97 -26q69 0 103 22
t46 64q1 1 2 1.5t2 1.5q1 2 4 5q2 2 3 2q3 0 6 -16q-6 -35 -18 -57l-4 -4t-6 -5l-9 -7q-2 -3 -9 -6q-4 -4 -10 -6q-2 -1 -4.5 -1.5t-6.5 -2.5t-8 -2.5t-8 -1.5q-8 -2 -21 -3q-6 -1 -12.5 -1.5t-13.5 -1.5q-8 -1 -16 -1t-18 -1h-9q-4 -1 -9 -1q-37 0 -67 9q-29 9 -37 24
q-2 7 -4.5 27t-6.5 55t-5.5 61t-1.5 43l17 451v5q0 39 31 66t75 27q5 0 10.5 -0.5t12.5 -1.5q20 -4 36 -8t29 -9q27 -10 34 -15q4 -3 8 -6.5t7 -8.5q5 -5 7 -8t3 -4q23 -21 39 -133q8 -57 12 -118t4 -129v-8t1 -12v-22q0 -17 -1 -32t-3 -26q-3 -24 -18 -42q-16 -20 -45 -20
h-1q-42 0 -42 53v46q-12 -44 -24 -51q-20 -16 -42 -16q-83 0 -83 229v16t1 19v23v5q2 36 30 60q26 25 70 25q10 0 15 -1q10 -2 11 -2l10 -5l7 -5q3 -2 5 -5q4 -4 4 -5q2 0 4 -4z" />
    <glyph glyph-name="A" unicode="A" 
d="M100 693q-3 20 -7 20t-4 -16q0 -13 -2.5 -38.5t-8.5 -64.5q-5 -39 -9 -74t-6 -67q-3 -37 -6 -68.5t-5 -60.5q-6 -53 -9 -92l-3 -39h45q20 0 36.5 1t28.5 3l21 3l-2 30q-3 42 -11 99t-20 131q-14 72 -21.5 120.5t-9.5 71.5q0 7 -7 41zM70 681q0 7 8 44q8 35 14 35t13 -19
q4 -10 8 -22.5t7 -29.5q5 -17 7 -34l4 -34q1 -8 7 -44t18 -101q11 -64 17.5 -109t8.5 -71q1 -13 3 -32.5t5 -45.5t4.5 -49t2.5 -42q2 -52 9 -89q2 -14 3.5 -22.5t1.5 -12.5q0 -10 -6 -10q-4 0 -5 1q-11 4 -19 109q-2 25 -3 40t-2 21q-3 11 -13 11q-9 0 -12 -1
q-12 -2 -28.5 -3t-36.5 -1h-44l-4 -48q-2 -27 -3 -42t-2 -17q-2 -18 -6 -48q-1 -6 -6 -8t-7 1q-4 3 -4 8q0 7 1 12t1 12t2 16q0 11 1 21l2 21l9 115l11.5 131l10.5 110q5 51 8 84.5t6 51.5l3.5 30.5t2.5 24.5t1.5 19.5t0.5 16.5z" />
    <glyph glyph-name="B" unicode="B" horiz-adv-x="232" 
d="M45 738q1 -8 1 -17.5v-21.5v-64q1 -20 1 -39t1 -38l1 -65l1 -1q19 7 33 23q48 57 59 96q6 21 6 52q0 26 -12 46q-11 21 -30 22q-3 1 -9 2t-14 3q-17 3 -24 3q-12 0 -14 -1zM68 6q2 0 5 0.5t8 1.5q70 14 92 46q10 14 10 84q0 72 -3 81l-12 39t-10 30q-8 26 -12 32
q-2 5 -4.5 9l-5.5 9q-8 13 -12 23q-3 7 -10.5 21t-21.5 34q-12 21 -20 32t-10 13q-6 5 -11 0q-1 -1 -1 -24t3 -140t3 -178q0 -45 -1.5 -73t-3.5 -40h17zM62 483q1 -1 1.5 -1t1.5 -2q1 0 4 -3q5 -5 13.5 -16t19.5 -28q12 -17 20.5 -32t14.5 -28l2 -5q2 -6 6 -14l9 -18
q52 -94 52 -177v-11q-1 -4 -1 -7q0 -49 -5 -69q-4 -18 -22 -39q-8 -10 -24 -17.5t-39 -15.5q-23 -6 -42 -9.5t-35 -4.5h-1q-8 0 -4 25q1 3 1 47q0 27 -0.5 78t-1.5 126q-1 40 -1 74t-1 62v74q-1 9 -1 15v8v43v10t-1 26v76v63v7q1 3 1 5q0 34 13 35h8q14 0 31 -3l17.5 -4.5
t20.5 -6.5q22 -9 36 -30q14 -20 14 -50q0 -34 -16 -72q-7 -17 -16 -34.5t-23 -35.5q-24 -35 -43 -37q-2 0 -9 -4z" />
    <glyph glyph-name="C" unicode="C" horiz-adv-x="236" 
d="M187 471q-1 25 -2.5 46t-4.5 39q-18 127 -35 152q-12 16 -26 16q-8 0 -15 -7q-20 -26 -41 -113q-11 -45 -17.5 -84t-8.5 -74l-4 -61q-1 -29 -3 -43q-1 -7 -1 -12v-10q0 -6 0.5 -12t0.5 -14q3 -12 6 -49q3 -18 5 -40t4 -48q10 -114 43 -136q9 -6 25 -6q20 0 43 9
q21 7 23 14q2 17 2.5 36t1.5 39q6 9 12 9q9 0 9 -19q-2 -25 -4.5 -41t-7.5 -24q-6 -16 -32 -30q-32 -17 -56 -17q-37 0 -49 30q-13 28 -25 104q-12 73 -15 104q-3 25 -3 64q0 151 25 269q11 52 21 88t20 56q19 42 41 42q11 0 25 -9q36 -26 57 -180q2 -13 3.5 -35.5
l3.5 -54.5q-9 -12 -13 -12q-3 0 -8 14z" />
    <glyph glyph-name="D" unicode="D" horiz-adv-x="243" 
d="M180 341q1 41 1.5 80t0.5 77v59q-1 20 -1 38.5v36.5q0 103 -116 103h-18h-3q2 -8 4 -51.5t4 -121.5t3 -154.5t1 -152.5v-69.5t-1 -57.5q-1 -25 -1 -43t-1 -29t-1 -18v-9q0 -4 26 -4q34 0 54 4q52 7 52 99v5zM30 637q-1 3 -1 19v10.5t1 16.5v27v31v7q3 8 18 8h3q1 -1 3 -1
q21 -2 37.5 -4t27.5 -4q21 -4 44 -19q21 -14 29 -40q8 -29 8 -71v-11q2 -124 3 -216.5t1 -155.5q0 -149 -5 -166q-12 -40 -25 -52q-15 -10 -44 -10h-6h-4h-18.5t-19.5 -2q-10 0 -16.5 -0.5t-9.5 -0.5q-16 0 -20 7q-2 8 -2 21v13q3 85 3 293q0 80 -1.5 154.5t-5.5 145.5z" />
    <glyph glyph-name="E" unicode="E" horiz-adv-x="234" 
d="M27 473v47t-1 54v75v73q1 12 1.5 21t0.5 15q3 15 4 15q0 2 5 2q6 0 24 -8t42 -11q103 -10 103 -27q0 -2 -2 -4h-6q-10 0 -28 2l-44 5q-55 9 -65 13q-3 1 -7 3l-3 1.5l-3 1.5q0 1 -2 1t-2 -41v-39t1 -50q1 -55 3 -100l1 -43l1 -61l42 -3q67 -4 67 -18q0 -3 -2 -5t-10 -2
q-5 0 -14.5 1t-24.5 3q-16 2 -26.5 3t-15.5 1q-10 0 -13 -3q-6 -6 -6 -78q0 -100 9 -227l5 -64h66h6q78 0 78 -12q0 -2 -5 -7q-5 -3 -50 -6t-81 -3q-29 0 -32 3q-1 1 -3 22q0 10 -0.5 23t-1.5 30t-2 31.5t-3 26.5q-5 27 -6 339z" />
    <glyph glyph-name="F" unicode="F" horiz-adv-x="214" 
d="M35 758q3 5 71 5q54 0 74 -4q14 -3 14 -11t-70 -8t-73 -8q-4 -8 -4 -104v-60t1 -46l2 -87l63 2q8 1 18.5 1h21.5q22 0 22 -8q0 -11 -6 -12q-7 -4 -29 -5q-8 -1 -15 -1t-12 -1l-61 -5l-2 -94q-5 -299 -9 -312q-2 -3 -3 -3q-6 0 -9 3q-1 4 -1 17v33.5t2 80.5q0 52 0.5 96.5
t0.5 82.5q0 444 4 448z" />
    <glyph glyph-name="G" unicode="G" horiz-adv-x="240" 
d="M154 389h-4h-7t-9 -1t-9 -1h-6h-4q-22 0 -22 9t51 12q49 3 57 3q4 0 4 -5q0 -1 0.5 -2t0.5 -3q2 -4 0 -6q-3 -3 -8 -4v-8q-1 -4 -1 -9q-9 -147 -9 -195q1 -118 8 -142q5 -20 0 -31q-11 -20 -94 -21h-6q-34 0 -47 13q-16 14 -20 31q-4 15 -4 195q0 91 1.5 179t3.5 176v17
q0 78 7 112q2 15 4 17q2 4 3 7q15 36 68 36q28 0 54 -15q26 -14 32 -29q5 -8 7.5 -24.5t4.5 -41.5q0 -19 -9 -19q-6 0 -12 9q-1 14 -2 32.5t-3 42.5q-1 5 -27 13q-24 7 -50 7q-22 0 -32 -7q-8 -5 -13 -16q-5 -12 -8 -28q-2 -9 -2.5 -16.5t-1.5 -15.5q-1 -6 -1 -15.5
t-1 -21.5t-1 -20t-1 -13q0 -4 -0.5 -24t-1.5 -56q-3 -74 -3 -130v-51l4 -235v-4q0 -41 11 -60q9 -18 38 -23q4 -1 10.5 -1h15.5q60 0 60 10v1q-10 20 -10 147q0 151 12 225h-28z" />
    <glyph glyph-name="H" unicode="H" horiz-adv-x="245" 
d="M40 1q0 -12 -4 -12q-2 0 -4 5q-4 5 -5 15q-1 5 -1.5 10.5t-0.5 10.5v9t1 13v25v14v42q0 33 0.5 55t1.5 33q9 120 9 351q0 103 -3 136q-3 34 -3 57q0 10 1 11q1 3 4 3q8 0 17 -54q6 -39 6 -208v-34t-1 -76v-111l61 2q11 1 23.5 1h26.5t16 -1q1 51 1.5 118t0.5 152v28
t-1 16l-3 57q-2 32 -3.5 49t-1.5 21q0 29 10 38q1 1 3 1q14 0 14 -128v-6v-9v-42t1 -73v-119v-23q-3 -219 -3 -325v-16q0 -4 1 -7v-6q0 -24 -7 -24h-1q-10 1 -10 67v64.5t-2 47.5q0 20 -0.5 32.5t-0.5 19.5v26t1 23q-5 -3 -10 -3h-4.5t-10.5 1t-14 1h-14l-78 -5l-5 -115.5
t-8 -157.5z" />
    <glyph glyph-name="I" unicode="I" horiz-adv-x="93" 
d="M34 746q1 3 3 3q3 0 7 -7q4 -8 7 -22q3 -15 3 -32l-1 -81v-98t-1 -152t-1 -149v-90l1 -50v-5q0 -63 -14 -63q-6 0 -7 28v64v184q0 108 0.5 177t1.5 100q3 99 3 129t-3 47q-2 13 1 17z" />
    <glyph glyph-name="J" unicode="J" horiz-adv-x="219" 
d="M21 17q-21 33 -21 72q0 6 0.5 11.5t1.5 11.5q1 9 5 16q3 5 5 5q3 0 3 -9q0 -2 1 -4q1 -3 1 -30q0 -79 57 -79q28 0 83 23q8 14 8 164q0 96 -3 273q-2 89 -3 138t-1 59v6q-1 10 -1 21.5v24.5q0 31 9 34h1q7 0 13 -87q4 -53 5.5 -172t1.5 -307q0 -21 -0.5 -41t-0.5 -40
q-2 -20 -2.5 -34t-1.5 -25q-2 -19 -3 -20q-2 -11 -33 -21q-29 -10 -62 -10q-43 0 -63 20z" />
    <glyph glyph-name="K" unicode="K" horiz-adv-x="247" 
d="M213 663q-63 -198 -117 -235l-36 -31l15 -20l24 -57l63 -164q49 -131 50 -138q3 -11 3 -16t-3 -5q-8 0 -24 27q-4 6 -10 20q-5 13 -8 24q-4 9 -4 12q0 4 -41 106q-3 7 -11.5 30l-23.5 62q-28 82 -28 84q0 5 -6 5q-3 0 -5 -8v-14q0 -170 5 -198q2 -12 3 -28.5t1 -38.5
q0 -80 -7 -80h-4q-6 0 -9 9q0 5 -1 18.5t-2 36.5l-8 358.5t-3 170.5q0 166 12 166h1q12 0 12 -140q0 -168 -6 -213q3 0 9 6l8.5 8.5t9.5 11.5t8.5 10.5l5.5 5.5q72 76 112 254q4 15 8 15q10 0 10 -34q0 -11 -3 -20z" />
    <glyph glyph-name="L" unicode="L" horiz-adv-x="234" 
d="M31 733q0 10 3 19q1 5 2 9t2 6q3 5 5 5h1l2 1q5 0 5 -144q0 -10 0.5 -32.5t0.5 -57.5q2 -35 2 -65.5v-56.5v-36l-1 -365l54 2h22q93 0 93 -17q0 -2 -1 -3q-2 -2 -19 -2q-8 0 -22 0.5t-34 1.5q-39 3 -54 3h-5.5t-7.5 -1h-11h-12q-23 0 -24 3q-2 6 -2 166v260q1 91 1 150
v88v66z" />
    <glyph glyph-name="M" unicode="M" horiz-adv-x="380" 
d="M203 86q1 3 3 16q0 8 0.5 17t1.5 21q1 24 6 45l111 598q1 9 10 9q6 0 10 -4q5 -5 5 -9v-10q0 -33 -3 -161.5l-8 -355.5l-2 -60t-1 -63q-2 -32 -2 -56v-40l-2 -32v-8q0 -26 -7 -26t-7 15v12q1 5 1 18v19.5t1 34.5v106q0 29 0.5 56t1.5 52q2 22 3 70.5t2 124.5q1 151 3 163
q2 32 3 51t1 25v4q-1 0 -25 -112q-12 -67 -19.5 -117t-11.5 -83l-42 -224q-2 -5 -4.5 -23t-5.5 -48q-5 -30 -7 -49.5t-4 -29.5q-5 -23 -7 -23l-6 17q-5 17 -10 40.5t-12 52.5q-6 29 -9 45t-4 18q-49 207 -51 224q-9 64 -39 185q-30 105 -35 105q-1 0 -1 -16q0 -51 3 -93
q1 -7 1.5 -41.5t2.5 -97.5q2 -125 6 -168q2 -23 3 -65t1 -105q0 -104 -4 -108l-7 -2q-6 0 -7 1q-1 0 -2 32v40t-2 56q0 32 -1 63l-2 60q-4 165 -6 288.5t-2 208.5v13q0 4 7 4q7 2 10 0l30 -102q14 -32 26.5 -73t21.5 -93q11 -51 16.5 -78.5t7.5 -31.5q2 -8 3 -10q1 -4 1 -10
q1 -2 4 -22q2 -16 6 -38l13 -69t12 -54q3 -11 5.5 -22.5l5.5 -24.5l3.5 -23l2.5 -17q1 -15 3 -15v3z" />
    <glyph glyph-name="N" unicode="N" horiz-adv-x="244" 
d="M49 633q-2 -2 -2 -4v-37.5t1 -20.5q2 -27 3 -58.5t1 -68.5q0 -403 -14 -429q-5 -8 -9 -8h-2q-3 1 -3 15q0 13 1.5 31l3.5 41q2 16 2.5 40.5t1.5 57.5q1 69 0 181q-1 57 -1 90.5v44.5v55.5t-1 25.5q-1 11 -1 45v91q0 14 2 14q14 0 50 -118q17 -60 28 -108t15 -86
q2 -14 8 -51l17 -100l20 -102.5t13 -58.5l11 -38l-3 81q-1 22 -1.5 43.5t-1.5 44.5q-2 23 -2.5 44t-1.5 40t-1 45v59v65v30t1 39v62v43v24q-1 5 -1 8q0 33 9 33q2 0 5 -5q4 -7 4 -52v-25.5t-1 -47.5v-105q0 -220 9 -409q1 -6 1 -14v-19q0 -64 -11 -64q-6 0 -13 25
q-18 64 -36 153q-18 87 -27 146l-9 57q-8 70 -30 164q-23 96 -30 96q-3 0 -3 -3z" />
    <glyph glyph-name="O" unicode="O" horiz-adv-x="248" 
d="M142 707q-12 16 -17 16q-6 0 -10 -6q-20 -26 -41 -113q-11 -45 -17.5 -84t-8.5 -74l-4 -61q-1 -29 -3 -43q-1 -7 -1 -12v-10v-12t2 -14q0 -13 6 -49q2 -18 4 -40t4 -48q10 -114 43 -136q9 -6 25 -6q20 0 43 9q21 7 23 14q2 29 3.5 95t3.5 172q1 26 1 57.5v67.5
q0 97 -7 126q-29 122 -49 151zM111 733q9 13 14 13q3 0 17 -8q32 -22 70 -179q9 -36 9 -259q0 -66 -1 -110.5t-3 -69.5q-5 -63 -13 -80q-6 -16 -33 -32q-32 -17 -56 -17q-37 0 -49 30q-13 28 -25 104q-12 73 -15 104q-2 19 -3.5 39t-1.5 43q0 122 20 216q29 138 54 178z" />
    <glyph glyph-name="P" unicode="P" horiz-adv-x="220" 
d="M48 201q-1 -23 -1 -49.5t-1 -55.5v-84q-2 -24 -4 -26q-1 -1 -2 -1q-11 0 -11 35q0 2 -1 6v7v67v82q1 20 1 29.5v10.5v42v8t1 15v74q1 28 1 62t1 74q1 75 1.5 126t0.5 79q0 43 -1 46q-5 26 4 26h1q16 -1 35 -4.5t42 -9.5q23 -8 39 -15.5t24 -17.5q18 -21 22 -39
q2 -10 3.5 -27t1.5 -43q0 -4 1 -8v-10q0 -83 -52 -177q-2 -5 -4.5 -9t-4.5 -8q-4 -8 -6 -14l-2 -5q-6 -13 -14.5 -28t-20.5 -32q-11 -17 -19.5 -28t-13.5 -16q-2 -2 -7 -6.5t-13 -9.5zM51 753q2 -12 3.5 -39.5t1.5 -72.5q0 -61 -3 -178t-3 -140q0 -24 1 -25q5 -3 11 1
q2 2 10 13t20 32q14 20 21.5 34t10.5 21q2 6 5.5 12t8.5 13q4 7 8 16l9 20q5 12 11 32l14 48q3 9 3 81q0 71 -10 85q-22 32 -92 46q-5 1 -10 1.5t-9 -0.5q-9 -2 -11 0z" />
    <glyph glyph-name="Q" unicode="Q" horiz-adv-x="247" 
d="M56 -5q-34 46 -34 449v89q1 26 1 42v21q2 67 31 114q32 47 75 47q9 0 12 -1q18 -3 29 -12q9 -10 19 -32t12 -40q1 -8 2 -30.5t2 -57.5q1 -8 1 -14v-11q1 -22 1.5 -56.5t0.5 -82.5q0 -359 -37 -402l-4 -4l11 -11q16 -16 16 -29q0 -6 -4 -7h-2q-10 0 -35 37
q-32 -19 -67 -19q-23 0 -30 10zM174 66q11 39 11 417v89q-2 89 -6 122q-5 32 -21 41q-11 6 -29 6q-22 0 -35 -9q-21 -14 -38 -64q-15 -48 -15 -116q0 -60 1.5 -139.5l3.5 -182.5q6 -202 17 -213q15 -15 41 -15q21 0 40 14q-2 2 -5.5 7.5l-9.5 14.5l-18 23q-7 7 0 11
q6 3 15 -4l30 -40q11 14 18 38z" />
    <glyph glyph-name="R" unicode="R" horiz-adv-x="225" 
d="M85 723q-19 13 -28 13q-6 0 -9 -5q-1 -1 -1 -42q0 -23 0.5 -56t1.5 -77l3 -151l3 -66q1 -1 3 -1q12 0 38 30q46 54 60 107q10 39 10 75q0 77 -13 99q-23 44 -68 74zM29 759q1 1 5 1h8q3 -1 6 -1q20 0 54 -22q17 -11 30.5 -22.5t22.5 -24.5q19 -24 25 -50q7 -24 7 -75
q0 -42 -3 -63q-3 -20 -15 -49l-5 -12t-7 -15q-4 -9 -12 -21.5t-21 -29.5q-25 -34 -49 -49q-8 -5 7 -24q7 -9 21.5 -45t36.5 -101l37 -101.5t20 -51.5q8 -18 8 -31q0 -9 -4 -9q-2 0 -7 5q-14 15 -64 156l-42 111t-20 45l-11 14l-1 -61q-1 -165 -3 -197q-1 -30 -6 -32
q-4 -2 -7 1q-5 2 -5 9q-2 42 -3.5 165t-1.5 331v63t-1 74t-1 62.5v28.5v11v7z" />
    <glyph glyph-name="S" unicode="S" horiz-adv-x="261" 
d="M185 737q0 -12 -12 -12q-7 0 -14 5q-32 23 -80 23h-2q-34 -1 -34 -118v-32q4 -17 9 -29.5t10 -21.5q5 -10 19 -28t36 -44q17 -20 29.5 -38t22.5 -34q19 -32 25 -50q2 -8 5 -19t5 -25q3 -14 6 -24t5 -18q14 -48 14 -106q0 -36 -6 -67q-4 -19 -24 -46q-19 -26 -47 -45
q-26 -17 -52 -20q-26 -2 -44 34q-18 34 -18 109q0 26 4 45q3 24 7 33q5 11 6 11q3 0 10 -5t5 -11l-4 -17q-19 -93 3 -148q26 -60 91 -2q45 34 45 126q0 67 -18 135q-1 3 -2 8.5t-3 13.5t-3 13t-1 7q-3 4 -6 18l-5.5 11l-4.5 9q-5 10 -14 22q-5 8 -10 15t-12 15
q-85 107 -86 117q-1 2 -3 5t-4 7q-11 14 -11 81q0 96 17 116q15 18 49 18q32 0 64 -12q33 -14 33 -25z" />
    <glyph glyph-name="T" unicode="T" horiz-adv-x="229" 
d="M132 728q-2 -2 -2 -93v-162q1 -60 1 -102.5v-68.5v-60q-1 -235 -5 -244q-2 -2 -4 -2h-1q-9 0 -9 2q0 1 -0.5 47l-1.5 137q-1 92 -1.5 182.5t-2.5 181.5q0 180 -2 182h-4h-18h-21q-53 2 -53 12v1v2q0 1 1 2t4 1q2 1 4 1t5 1h5.5t7.5 1q25 1 42 1.5t27 0.5q104 0 105 -7v-3
q0 -13 -66 -13q-9 2 -11 0z" />
    <glyph glyph-name="U" unicode="U" horiz-adv-x="246" 
d="M196 734q3 4 5 4q12 0 12 -92v-38q-3 -82 -6 -208.5t-5 -300.5l-1 -81l-17 -8q-17 -9 -60 -9q-49 0 -68 10q-20 11 -23 21q-4 11 -4 553v100t1 40q0 4 4 5q3 3 6 3t8 -153q3 -152 3 -294q0 -60 -0.5 -97t-1.5 -54q-1 -13 -1 -26.5v-27.5v-17q0 -11 6 -17q11 -10 44 -17
q34 -9 59 -9q17 0 21 4q4 3 6 134q1 66 1.5 133t1.5 136q2 138 3 148q1 5 1.5 17t0.5 31q1 20 1 38t1 35q0 33 2 37z" />
    <glyph glyph-name="V" unicode="V" horiz-adv-x="247" 
d="M163 452l9 48.5l11 62.5q10 51 16 84.5t10 50.5q7 34 14 34q5 0 5 -9q0 -2 -5.5 -38.5l-16.5 -108.5l-18 -116q-5 -24 -7 -39.5t-4 -22.5t-3 -14.5l-2 -15.5q-2 -8 -3 -14.5t-1 -13.5l-6 -48q-5 -41 -12 -89q-4 -25 -6 -45.5t-4 -35.5q-2 -17 -3 -33t-1 -33q0 -64 -8 -64
q-2 0 -5 4q-4 6 -19 128q-18 126 -22 134q-3 4 -16 104q-6 51 -13 102.5l-15 107.5q-15 107 -23 133q-2 6 -2 12q0 7 4 7q12 0 18 -16q5 -13 10 -40t9 -68q3 -22 6 -41.5t7 -37.5q2 -10 5.5 -34.5t8.5 -64.5q5 -39 9 -67.5t7 -47.5l17 -101q1 -6 1.5 -12.5t2.5 -14.5
q0 -8 0.5 -13t1.5 -10l2 -7q3 0 20 146q14 121 21 157z" />
    <glyph glyph-name="W" unicode="W" horiz-adv-x="414" 
d="M353 285q-1 5 -1.5 34t-0.5 83v196q0 86 -2 92q-2 8 -2 17v11t1 12q1 8 1 13t1 10q1 9 2 9q14 0 16 -165q1 -137 6 -297q2 -80 3.5 -133t1.5 -79v-12t-1 -17v-29q0 -11 -4 -16q-3 -7 -7 -9q-2 -2 -6 -4t-10 -4q-24 -11 -54 -11q-39 0 -70 16q-9 5 -14 18q-5 -20 -20 -28
q-13 -7 -35 -7q-52 0 -109 26q-17 8 -21 14q-3 6 -5 25v53q0 24 1.5 68t5.5 108t5.5 138t2.5 159v23v38.5t-1 41.5t-1 34.5v16.5q0 24 3 32q3 9 11 9h1q7 0 7 -291q0 -132 -4 -155q-4 -25 -6.5 -67t-3.5 -102v-27.5t-1 -24.5l-1 -36q-1 -5 -1 -9v-6q0 -7 5 -14
q22 -31 97 -31q42 0 51 9q2 2 8 73v30q1 6 1 11.5t1 10.5v15t1 25q1 14 1 32t1 40q2 83 11 83q4 0 8 -13q4 -11 4 -18l-12 -236q3 -41 9 -47q7 -7 39 -11q31 -6 59 -6q17 0 24 4q10 4 10 59v11.5t-1 19.5v41q-1 65 -2 100.5t-3 43.5z" />
    <glyph glyph-name="X" unicode="X" horiz-adv-x="246" 
d="M55 11q-10 4 -10 18q0 10 3 31q2 9 5 25t8 39t8.5 44t7.5 41q2 12 12 54t29 115l-6 21q-2 6 -9 33.5t-21 75.5l-21 80t-11 43q-6 25 -12 45q-5 22 -9 30q-2 6 -3.5 10t-3.5 8t-2.5 6t-1.5 4l-2 2q0 2 5 2q20 0 26 -24q2 -6 3 -10.5t2 -8.5q2 -5 4 -9q1 0 1 -1t1 -1l1 -5
q1 -2 1 -4t1 -6q12 -59 69 -251l9.5 54.5t22.5 115.5l21 112t7 41q5 29 11 29q3 0 5 -5q1 -2 1.5 -5t1.5 -5l1 -5q0 -1 -3.5 -22l-10.5 -63q-24 -149 -54 -275q4 -12 6 -24q2 -6 3 -12t2 -11q1 -11 3 -15q1 -2 15 -78q3 -15 6.5 -28.5l6.5 -25.5q5 -13 6.5 -20.5t2.5 -9.5
l9 -34l10 -32l6 -21t5 -19l4 -21.5t3 -21.5q3 -8 3 -17q0 -14 -6 -14q-4 0 -10 16l-6 21q0 12 -32 120q-16 54 -25.5 89.5t-12.5 55.5q-4 37 -12 64q-2 -11 -5 -22l-6 -22l-5 -18t-3 -11q-2 -10 -2 -16t-6 -34.5l-17 -80.5q-23 -106 -23 -111q-1 -1 -1 -9q0 -5 -0.5 -7.5
t-0.5 -4.5q-3 -5 -5 -5z" />
    <glyph glyph-name="Y" unicode="Y" horiz-adv-x="189" 
d="M87 -18q-11 0 -11 48q0 30 9 203q1 5 1 12.5v17.5v17v12q-1 4 -1 6q-1 17 -3.5 36.5t-7.5 43.5q-8 47 -18 89q-5 22 -7.5 34.5t-3.5 16.5l-21.5 169t-7.5 59q0 11 6 11t12 -13l23 -159l16 -114l2 -14t3 -15t4 -14l4 -12q3 -10 5 -10q12 0 32 168q4 32 10 71t15 85l3 13
q4 43 12 43q4 0 6 -42l-17.5 -112.5t-8.5 -60.5q-2 -23 -7.5 -55.5t-13.5 -75.5q-9 -42 -13 -73.5t-4 -53.5v-27.5t-1 -15.5q1 -7 1.5 -15t0.5 -19q0 -4 -0.5 -19.5l-1.5 -44.5q-3 -54 -3 -104v-18v-5q0 -63 -14 -63z" />
    <glyph glyph-name="Z" unicode="Z" horiz-adv-x="210" 
d="M109 413q0 10 32 149t32 142q0 8 -73 9t-73 15q0 5 1 6q3 4 13 4h6.5t10.5 -1l34 -3l45 -4q41 -3 49 -6q7 -1 7 -12q0 -1 -3.5 -21.5l-10.5 -62.5l-15.5 -91t-15.5 -77l-13.5 -61.5t-10.5 -42.5q-5 -15 -8.5 -27.5t-7.5 -22.5l-10 -27q-3 -8 -3 -16t-23 -114l-17 -79.5
t-6 -32.5q0 -6 56 -6q57 0 57 -9q0 -8 -55 -12q-6 -1 -15 -1h-20q-26 0 -30 2q-17 8 -17 14q0 13 4 32l5 27t8 38q5 23 9 44.5l8 42.5q2 12 6 30t11 42l23 87q10 36 10 45z" />
    <glyph glyph-name="bracketleft" unicode="[" horiz-adv-x="236" 
d="M200 748q0 -1 -2 -2q0 1 -3 -2q-2 0 -3 -1h-13q-13 0 -18 -1h-16q-10 0 -94 3l2 -29v-5q0 -3 -0.5 -17l-1.5 -40t-1.5 -48t-0.5 -41v-7.5t1 -13.5v-48v-67v-50v-27.5t1 -62.5t1 -70v-52v-33v-95v-40.5t1 -18.5l4 -29l64 3q8 1 17.5 1h20.5q41 0 41 -7q0 -4 -2 -6
q-2 -4 -6 -5q-2 -1 -4.5 -2t-4.5 -1q-2 -2 -5.5 -2t-8.5 -1t-9 -1h-8q-10 -2 -22 -2q-7 -2 -13.5 -2t-11.5 -1q-16 -2 -25.5 -3t-13.5 -1q-24 0 -30 19q-6 18 -6 83v108v145.5t1 102.5q-1 41 -1 87v99v107q1 18 1.5 33t0.5 27q2 11 2.5 18t1.5 10q1 6 6 6q5 -1 10.5 -1.5
t12.5 -0.5h13t22 1q12 1 21.5 1h16.5q62 0 62 -18z" />
    <glyph glyph-name="backslash" unicode="\" horiz-adv-x="485" 
d="M14 747q6 -5 9 -14q4 -11 21 -42q2 -5 8 -14.5l15 -23.5l43 -68l39 -61l260 -440l32 -55q8 -16 8 -24q0 -5 -3 -6h-1h-2q-12 0 -40 48l-3 4l-25 44l-309 522l-40 70q-19 31 -19 53q0 6 3 8l1 1q1 0 3 -2z" />
    <glyph glyph-name="bracketright" unicode="]" horiz-adv-x="220" 
d="M10 748q0 18 61 18h16.5t22.5 -1t21.5 -1h13.5q7 0 12.5 0.5t10.5 1.5q4 0 6 -6q1 -3 1.5 -10t2.5 -18q0 -12 0.5 -27t1.5 -33v-107q0 -12 -0.5 -58.5t-1.5 -127.5q1 -81 1.5 -143t0.5 -105v-108q0 -65 -6 -83q-6 -19 -30 -19q-4 0 -13.5 1t-25.5 3q-5 1 -11.5 1t-13.5 2
q-12 0 -22 2h-8t-9 1t-8.5 1t-5.5 2q-2 0 -4.5 1t-4.5 2q-4 1 -6 5q-2 2 -2 6q0 7 41 7h20.5t17.5 -1l64 -3l4 29q1 4 1 18.5v40.5v95v16q-1 5 -1 9.5v7.5q0 22 0.5 52t0.5 70q2 40 2 62.5v27.5v50v67v48q1 8 1 13.5v7.5q0 19 -0.5 41t-1.5 48l-1.5 40t-0.5 17v5l2 29
q-84 -3 -95 -3h-16q-4 1 -17 1h-13q-1 1 -3 1q-3 3 -3 2q-2 1 -2 2z" />
    <glyph glyph-name="asciicircum" unicode="^" horiz-adv-x="166" 
d="M79 797l17 -25q35 -50 35 -59q0 -3 -2 -5t-5 -2q-6 0 -13 7l-41 64l-41 -64q-7 -7 -13 -7q-3 0 -5 2q-1 1 -1 5q0 9 35 59l16 25l3 3q2 2 6 2t6 -2z" />
    <glyph glyph-name="underscore" unicode="_" horiz-adv-x="337" 
d="M12 -18h38q13 -1 22 -1h14q80 0 130.5 1.5t72.5 5.5q22 0 22 -8q0 -11 -6 -12q-7 -4 -29 -5q-8 -1 -15 -1t-12 -1l-235 -5q-31 0 -31 13t29 13z" />
    <glyph glyph-name="grave" unicode="`" horiz-adv-x="103" 
d="M1 764q-1 2 -1 6t2 6t7 2q4 0 6 -2l3 -3l16 -25q35 -50 35 -59q0 -3 -2 -5t-5 -2q-6 0 -13 7z" />
    <glyph glyph-name="a" unicode="a" horiz-adv-x="240" 
d="M112 605q-6 41 -9 41t-13 -87q-2 -14 -18 -171q-8 -78 -14.5 -132.5t-11.5 -83.5q-1 -3 -1 -13q0 -11 4 -14q4 -2 16 -2q24 0 68 9q47 11 47 14q0 2 -1 3q-2 2 -2.5 6t-2.5 9l-6 50q-6 38 -15 88q-7 38 -17 109zM42 109q-1 -5 -1.5 -10.5t-2.5 -11.5q0 -6 -0.5 -11
t-1.5 -10t-1.5 -10t-0.5 -10l-3 -16q-1 -3 -1 -6t-2 -6q0 -4 -4 -8q-2 -3 -4 -3q-11 0 -11 3l81 713q2 10 6 13q3 6 8 6q1 0 5 -2q3 -3 3 -6q1 -22 7.5 -69.5t18.5 -122.5l20 -132q0 -1 3 -16t8 -44l10.5 -61t10.5 -65l10 -61l8 -49l6 -37q2 -8 3 -15t1 -12q2 -6 2.5 -10.5
t1.5 -9.5l3 -14q1 -2 1 -8q1 -2 1 -3t1 -2v-3v-3q0 -2 -14 -2q-7 0 -15 50q-4 29 -7.5 47t-5.5 26q-6 15 -20 17q-3 1 -11 1q-5 0 -24 -3q-10 -2 -22 -2.5t-26 -1.5l-38 -1z" />
    <glyph glyph-name="b" unicode="b" horiz-adv-x="227" 
d="M46 741q1 -8 1 -20.5t1 -31.5v-42t1 -52t1 -51t1 -39l1 -66l1 -1q19 7 33 23q53 62 66 115q3 15 3 42q0 117 -49 121h-6t-10 1q-5 1 -9 1t-9 1h-13q-11 0 -13 -1zM68 9q2 0 5 0.5t8 1.5q70 14 92 46q2 18 3 39t1 45q0 153 -53 223q-4 6 -14 14q-5 3 -9 6.5t-9 5.5l-18 11
l-9 6q-6 4 -11 1q-1 -1 -1 -29q0 -10 0.5 -37t0.5 -72q2 -45 2 -79v-59q0 -48 -1.5 -78.5t-3.5 -44.5h17zM37 -11q-8 0 -4 25q1 3 1 47q0 27 -0.5 78t-1.5 126v79q-1 20 -1 34.5t-1 25.5v32v231l-1 58q0 30 16 30q3 0 4 -1q9 1 15 1.5t10 0.5q101 0 101 -115q0 -43 -12 -82
q-36 -91 -89 -126l-4 -1q-2 -1 -3 -1t-2 -1l7 -7q2 -1 8.5 -5l19.5 -12q24 -16 37 -30q61 -70 61 -220q0 -97 -20 -120q-15 -18 -63 -32q-23 -8 -42 -11t-35 -4h-1z" />
    <glyph glyph-name="c" unicode="c" horiz-adv-x="229" 
d="M102 734q-49 -11 -50 -148l-2 -446q0 -75 4 -86q8 -23 17 -27q13 -9 48 -9q14 0 29 36q7 19 12.5 37.5t10.5 38.5q9 38 11 40q4 36 17 36q3 0 5 -5q-2 -4 -3 -11q-1 -3 -2 -8t-3 -12l-4 -22q-23 -158 -89 -158q-11 0 -33 7q-12 3 -25 22q-14 18 -15 90v42v105
q-1 21 -1 54v78v180q0 181 78 189h7q38 0 59 -35q21 -36 21 -69q0 -14 -5 -16h-1q-6 0 -12 25q-8 26 -22 48q-16 25 -41 25q-8 0 -11 -1z" />
    <glyph glyph-name="d" unicode="d" horiz-adv-x="271" 
d="M57 23q2 -2 12 -2q23 0 67 18q45 19 52 30q31 31 31 271q0 23 -0.5 55.5t-0.5 74.5q-2 41 -2 68v41v30t1 19q0 5 1 8v8v16q-1 5 -1.5 8t-1.5 6q-1 4 -3 10t-4 10q-2 2 -3 4t-2 3t-5 7q-3 3 -4 4.5t-2 2.5q-10 14 -58 25q-23 5 -43 7.5t-36 2.5q-11 0 -11 -183
q0 -97 3 -232q3 -134 6 -223q3 -88 4 -89zM44 0q-1 -1 -3 -1q-4 0 -6 65q-4 125 -5.5 245.5t-1.5 239.5q0 211 8 219h2q2 1 5 1q15 0 36.5 -3t50.5 -8q57 -11 75 -27q19 -16 25 -53q2 -17 3.5 -41t1.5 -55v-51v-27q0 -8 0.5 -28.5t1.5 -55.5q1 -34 1.5 -62t0.5 -51
q0 -215 -34 -253q-14 -17 -68 -46z" />
    <glyph glyph-name="e" unicode="e" horiz-adv-x="210" 
d="M60 375q1 -8 1.5 -16.5t0.5 -16.5v-18.5t-1 -24.5t-1 -32.5t-2 -43.5q0 -25 -0.5 -48t-1.5 -46l-2 -105l48 -3q88 -4 88 -21q0 -6 -17 -6q-6 0 -51 3q-22 2 -43.5 2.5t-43.5 1.5q-1 0 -1 16v17q3 81 3 299q0 414 -14 419q-3 1 -3 4q0 2 1 3q1 3 13 3q5 0 16.5 -1t31.5 -3
q19 -2 34.5 -3t28.5 -2q34 -1 34 -13q0 -2 -3 -5q-4 -4 -21 -4q-8 0 -21 1t-32 3q-18 2 -29 3t-15 1q-6 0 -7 -1t-1 -31q0 -31 1 -74t3 -100q5 -114 6 -115l26 -2q13 -1 25.5 -1.5t24.5 -2.5q25 -4 25 -12q0 -9 -23 -9q-11 0 -24.5 1.5t-28.5 3.5l-25 4v-25z" />
    <glyph glyph-name="f" unicode="f" horiz-adv-x="216" 
d="M49 716q1 -16 1.5 -58.5t0.5 -112.5v-142l48 1h16h20q6 -2 10 -4q4 -4 4 -12q0 -5 -8 -8q-4 0 -13.5 -1t-23.5 -2q-49 -5 -50 -6t-4 -192q0 -190 -8 -192h-1q-15 0 -15 206q0 114 3 320q5 247 8 253q3 5 64 5q65 0 80 -6q15 -8 15 -17q0 -5 -5 -8h-13q-5 0 -20.5 0.5
t-40.5 1.5l-70 3z" />
    <glyph glyph-name="g" unicode="g" horiz-adv-x="239" 
d="M176 703q-20 39 -56 39q-23 0 -46 -16q-10 -6 -14 -24q-3 -9 -4.5 -17.5t-2.5 -16.5q-1 -9 -1 -20.5t-1 -25.5t-1 -24.5t-1 -17.5q0 -20 -3 -80q-1 -29 -1.5 -55t-0.5 -49v-34q-1 -10 -1 -19.5v-18.5q0 -31 1.5 -88t3.5 -142v-8q0 -39 10 -56q8 -18 36 -23q12 -4 26 -4
q24 0 38 17q14 15 19 34q4 15 4 33q0 23 3 73q2 25 2.5 53t-0.5 60q-1 15 -0.5 36t2.5 48q1 27 1.5 43.5t0.5 23.5h-1h-5q-2 1 -4 1t-4 1q-3 1 -7.5 1t-9.5 1h-11.5t-14.5 1q-32 2 -32 9v3q0 1 1 1q2 2 6 2q2 1 7 1h5t8 1h16h6q3 1 6 1h16q27 0 32 -5q5 -8 5 -17q0 -5 -1 -7
v-7v-48q-2 -16 -2.5 -31.5t-1.5 -31.5v-31t1 -33t1 -28v-16v-28v-21l-1 -8q0 -92 -20 -121q-19 -27 -83 -29h-6q-34 0 -47 13q-16 14 -20 31q-4 15 -4 195q0 91 1.5 179t3.5 176v28q0 56 6 91q2 12 7 24q15 36 68 36q28 0 54 -15q22 -14 29 -30q2 -8 2 -10q0 -11 -7 -11
t-13 11z" />
    <glyph glyph-name="h" unicode="h" horiz-adv-x="238" 
d="M49 40q1 -7 1 -16.5v-20.5q0 -29 -10 -29q-2 0 -3 1q-8 5 -8 342v99q-1 22 -1 47v54q0 240 15 240h1q5 -1 7 -322q2 0 5 1h5q1 -1 24 -1q11 0 24.5 -0.5t28.5 -0.5q14 -2 24.5 -3t16.5 -3v12.5t-1 17.5v29q0 258 11 277q3 4 5 4q9 0 9 -28v-8q-4 -58 -5.5 -126.5
t-1.5 -148.5v-95q1 -24 1 -45t1 -40t1 -35.5t1 -31.5t1 -27t1 -21v-18v-2q-1 -1 -1 -4v-45q0 -47 -3 -75q-1 -7 -11 3q-5 5 -5 9q-1 34 -1 86t-1 124q-1 71 -1 115v62q-2 0 -3 -1h-4h-12t-22 2q-14 0 -26.5 0.5t-23.5 1.5l-27 -2q-2 0 -10 2v-79z" />
    <glyph glyph-name="i" unicode="i" horiz-adv-x="96" 
d="M38 -3q-7 2 -10 31q-3 16 -4 32t-1 33q0 60 1.5 127t5.5 145t5.5 130t1.5 81v48t-1 40v29.5t-1 20.5t-1 13v7q0 21 13 21h3q4 -2 6 -9q2 -8 0 -24v-19.5t1 -24.5v-33t1 -21q1 -6 1 -12.5v-11.5q0 -30 -6 -190q-6 -161 -6 -322v-29.5t1 -20.5t1 -13.5v-8.5q0 -19 -10 -19
h-1z" />
    <glyph glyph-name="j" unicode="j" horiz-adv-x="217" 
d="M168 757q2 0 6 -2q1 -1 1.5 -3t2.5 -4q0 -4 2 -8q1 -2 1 -4t1 -6t1 -7q4 -15 4 -194q0 -91 -1.5 -179t-3.5 -176v-9q1 -4 1 -9q0 -62 -10 -112q-2 -17 -6 -24q-9 -15 -29 -24q-20 -10 -45 -10q-26 0 -48 13q-26 15 -33 31q-8 15 -12 64q0 19 10 19q5 0 11 -9q0 -3 1 -4
v-4v-10t-1 -10t-1 -8.5v-5.5q0 -15 13 -35q5 -6 25 -12q22 -6 44 -6q23 0 33 7q8 5 13 16q5 12 8 28q2 9 2.5 16.5t1.5 15.5q1 6 1 15.5t1 21.5t1 20t1 13q0 11 0.5 33t1.5 55q3 66 3 117v11.5t-1 16.5v29l-3 221v15q0 9 -0.5 19.5t-1.5 22.5q-1 11 -1.5 19.5t-0.5 13.5
q3 21 7 22z" />
    <glyph glyph-name="k" unicode="k" horiz-adv-x="263" 
d="M232 708q-30 -68 -83 -169q-52 -100 -86 -140l10 -22l24 -57q3 -8 11.5 -28l22.5 -52l53 -124q13 -29 19 -45t7 -19q3 -11 3 -17q0 -8 -4 -8q-7 0 -19 31q-24 55 -24 59q-1 2 -3 8t-7 17l-20 47l-13 31q0 -1 -17 38l-34 73q-16 35 -16 40q0 4 -4 5q-1 1 -3 -2
q-1 -1 -1 -6v-11q0 -180 6 -210q2 -12 3 -28.5t1 -38.5q0 -80 -7 -80q-4 0 -7 12q-1 7 -1.5 16t-2.5 21q0 12 -0.5 23t-1.5 22q-1 10 -1 22.5t-1 29.5v44q-5 67 -8 149t-3 180v95.5t1 67.5q3 82 10 82h1q12 0 12 -142q0 -171 -6 -216q1 0 9 11l16 27l8.5 13.5l5.5 8.5
q5 8 20.5 37.5l41.5 81.5l45.5 91t36.5 66q9 15 13 15t4 -9q0 -13 -11 -40z" />
    <glyph glyph-name="l" unicode="l" horiz-adv-x="216" 
d="M29 0q-5 5 -5 11q0 3 1 6t1 7q2 2 2 181q2 91 2.5 180.5t1.5 180.5l1.5 137.5t0.5 46.5t9 1h1q5 0 7 -29q0 -11 0.5 -64.5t1.5 -152.5v-60v-68.5t-1 -102.5v-162q0 -86 2 -88q5 -5 84 -8q67 -1 67 -13q0 -2 -1 -3q0 -2 -46 -2z" />
    <glyph glyph-name="m" unicode="m" horiz-adv-x="377" 
d="M193 156q4 4 24 106q2 8 3 13t2 7q14 21 99 469q1 9 10 9q6 0 10 -4q5 -5 5 -9v-9q0 -17 -3 -138t-8 -348q-2 -59 -3 -114q-1 -28 -1 -47v-30q0 -22 -1 -23v-8q0 -25 -7 -25t-7 10v6.5t-2 12.5q0 8 -0.5 13.5t-0.5 9.5v6v8v13.5t-1 29.5v62q0 19 0.5 40t1.5 45
q2 23 3.5 70.5t4.5 122.5l3 112.5t1 39.5q2 32 3 51t1 25v4l-24 -112q-1 -6 -3.5 -19l-6.5 -33l-14 -73q-4 -17 -5.5 -27.5t-2.5 -15.5l-35 -147l-22.5 -88.5t-16.5 -62.5q-5 -23 -14 1q0 4 -1 5q-5 17 -10 39t-10 48q-11 52 -12 57q-6 23 -15 62.5l-22 97.5l-42 198
q-20 82 -26 82q-1 0 -1 -16q0 -51 3 -93v-19q0 -10 -0.5 -34t-1.5 -62t-1.5 -66t-0.5 -48q0 -26 0.5 -43.5t1.5 -26.5q4 -38 5.5 -96.5t1.5 -139.5q0 -66 -3 -69q-2 -6 -6 -6q-9 0 -10 22q-1 0 -2 32v40t-2 56q0 32 -1 63l-2 60v80q0 174 0.5 281.5t1.5 150.5q0 5 12 5
q2 0 3 -1h2l30 -102q2 -5 7 -27.5t13 -62.5l20.5 -87.5l25.5 -104.5q2 -14 4 -25t4 -19t4.5 -16t4.5 -16t4 -14.5l4 -12.5q3 -11 6 -24.5t5 -29.5q6 -30 9 -53q3 -20 4 -20v2z" />
    <glyph glyph-name="n" unicode="n" horiz-adv-x="281" 
d="M25 762q0 5 12 5q2 0 3 -1h2q4 -3 4 -7v-6q0 -29 26 -89q14 -32 26.5 -73t21.5 -93q11 -51 16.5 -78.5t7.5 -31.5l4 -10q0 -4 2 -10q0 -7 4 -22q2 -8 4 -17.5t5 -20.5l21 -80.5t13 -42.5q2 -7 4.5 -14t4.5 -14q6 -14 6 -19q3 -6 4 -6q5 0 5 311q0 316 3 318q2 2 4 2
q8 0 10 -44q3 -44 3 -160v-145v-53v-102v-48.5t1 -42.5v-72v-50v-20v-10q1 -4 1 -8q0 -22 -6 -22h-1q-6 2 -7 6q-2 7 -3 20q-1 6 -1 11t-1 9q-9 52 -48 150q-58 207 -60 224q-1 8 -6 34l-14 71l-16 73.5t-9 40.5l-4.5 14t-6.5 18q-9 20 -11 20q-1 0 -3 -31q-3 -33 -3 -51
q0 -3 1 -5v-3q1 -7 1.5 -41.5t2.5 -97.5q2 -125 6 -168q2 -23 3 -65t1 -105q0 -104 -4 -108l-7 -2q-6 0 -7 1q-1 0 -2 32v40t-2 56q0 32 -1 63l-2 60q-4 165 -6 288.5t-2 208.5v13z" />
    <glyph glyph-name="o" unicode="o" 
d="M152 660q-17 60 -42 60q-20 0 -30 -24q-4 -8 -10 -64t-16 -162q-10 -104 -14.5 -171.5t-4.5 -99.5q0 -68 15 -117q17 -49 38 -63q13 -9 31 -9q14 0 25 6q33 17 35 163v6q0 78 -9 261q-9 184 -18 214zM80 731q10 13 24 13q23 0 44 -26q26 -31 40 -200q7 -86 10 -160.5
t3 -140.5v-5.5t-1 -8.5v-11q-3 -113 -9 -132q-1 -5 -8 -21q-11 -23 -19 -31q-10 -10 -29 -13q-3 -1 -12 -1q-44 0 -75 48q-29 46 -31 113v12q0 63 4.5 144t14.5 183q18 202 44 237z" />
    <glyph glyph-name="p" unicode="p" horiz-adv-x="220" 
d="M53 321q1 -1 2 -1q6 0 22 19q39 42 67 123q29 82 34 164q1 7 1 14.5v17.5q0 27 -15 47q-15 18 -46 31q-33 14 -57 14q-14 0 -14 -182q0 -27 0.5 -55.5t0.5 -58.5q2 -31 2 -55t1 -41zM65 299l-2.5 -2.5t-5.5 -3.5q-6 -4 -8 -13v-9q0 -4 1 -30l3 -77v-7t1 -15q1 -9 1 -17
v-15q0 -107 -5 -110q-1 -1 -3 -1q-10 0 -12 65q-4 125 -5.5 245.5t-1.5 239.5q0 211 8 219h5q3 1 6 1q22 0 61 -10q41 -11 57 -26q36 -33 36 -95q0 -19 -3 -42.5t-10 -51.5q-16 -71 -44 -134q-15 -32 -28.5 -54t-27.5 -36z" />
    <glyph glyph-name="q" unicode="q" horiz-adv-x="269" 
d="M35 660q0 40 19 66q19 27 45 27q4 0 14 -2q11 -4 20.5 -8t17.5 -9q16 -10 20 -15l4.5 -7t4.5 -9q3 -5 4 -7.5t2 -3.5q16 -23 29 -138q7 -58 10.5 -118t3.5 -124q0 -171 -29 -285l-6 -8l20 -25q3 -9 3 -11q0 -3 -3 -3q-7 0 -32 25l-2 2q-32 -23 -75 -23q-57 0 -69 34
q-2 7 -4.5 27t-6.5 55t-5.5 61t-1.5 43q0 15 2 17l15 434v5zM40 221q0 -25 1 -53t3 -60q3 -66 7 -75q11 -26 57 -26q35 0 58 15h-1q-33 40 -33 50q0 3 1 4t6 1q9 0 42 -41q5 10 5 11q7 31 11 69t5 85v61q1 22 1 39v30q0 387 -86 399q-7 1 -11.5 1.5t-6.5 0.5q-25 0 -35 -20
q-5 -9 -8.5 -28t-5.5 -47l-10 -407v-9z" />
    <glyph glyph-name="r" unicode="r" horiz-adv-x="223" 
d="M150 675q-38 53 -88 53q-15 0 -15 -6q0 -1 0.5 -3t0.5 -7q3 -9 1 -17q-1 -10 -1.5 -40t-0.5 -81q0 -277 8 -277l30 32q35 34 57 93q23 62 26 94q3 18 4 32.5t1 25.5v29v13t-1 11q-2 13 -4 17q-3 9 -4 11t-2.5 4t-3.5 7q-3 3 -5 5.5t-3 3.5zM30 740q6 9 30 9q66 0 107 -53
q29 -38 29 -99q0 -39 -9 -105q-7 -53 -33 -106t-57 -75q-29 -23 -29 -35q0 -6 11 -20q18 -18 61 -122q42 -102 47 -107q6 -6 6 -14q0 -12 -9 -12t-30 45l-29 62q-3 7 -8.5 21t-14.5 35q-8 23 -15 38.5t-13 25.5q-11 21 -21 21q-6 0 -3 -16q9 -47 9 -115v-50v-18
q0 -61 -11 -61q-6 0 -14 241q-4 122 -6 223t-2 183q0 100 4 104z" />
    <glyph glyph-name="s" unicode="s" horiz-adv-x="260" 
d="M111 768q54 0 87 -41q10 -10 10 -19q0 -4 -4 -4t-8 4q-54 39 -84 39q-20 0 -40 -17q-25 -21 -25 -71q0 -78 18 -115q18 -39 70 -97q72 -78 92 -196q6 -35 6 -83q0 -112 -20 -141q-14 -21 -41 -31q-26 -12 -54 -12q-57 0 -69 34q-9 26 -9 140q0 39 3 41q2 2 5 0t6 -7
q2 -4 2 -11v-15q0 -115 8 -133q11 -26 57 -26q26 0 51 11q22 10 27 29q1 3 1.5 7.5t2.5 9.5t2.5 9.5t1.5 6.5q1 3 1 9t1 15t1 21t1 27v21q0 48 -11 97q-12 48 -28 80l-16 29l-16 27q-18 26 -28 36l-11 11q-20 17 -37 45q-15 26 -23 52q-8 25 -12 48q-2 11 -3.5 21t-1.5 19
q-2 8 -2 12.5v5.5q0 51 28 80q26 32 61 32z" />
    <glyph glyph-name="t" unicode="t" horiz-adv-x="217" 
d="M57 734q-49 0 -49 15q0 7 83 10q12 1 26.5 1h31.5q50 0 58 -8q3 -3 3 -6q0 -5 -52 -9l-50 -5q-1 0 -1 -1q0 -2 1 -5q2 -4 2 -12q2 -4 2 -9t2 -11q0 -7 0.5 -16t1.5 -20q1 -12 1 -25.5v-27.5q0 -72 -1.5 -131.5t-5.5 -107.5q-3 -47 -4.5 -113.5t-2.5 -154.5v-22.5t1 -24.5
t1 -21v-11q0 -33 -6 -33q-20 0 -20 148v17q0 56 1.5 112t5.5 115q4 57 5.5 119t1.5 128q0 10 -0.5 24t-1.5 32l-3 53h-31z" />
    <glyph glyph-name="u" unicode="u" horiz-adv-x="236" 
d="M33 732q1 3 4 3q8 0 17 -54q6 -39 6 -164q0 -78 -2.5 -138t-7.5 -103q-2 -20 -3.5 -53.5t-1.5 -81.5q0 -75 4 -86q8 -23 17 -29q10 -6 47 -7q6 0 11 -1h10q27 0 35 6q9 7 9 156v56q-1 20 -1 37v31v45t1 63q1 37 1 60v34q0 226 10 229q1 0 1 1h1q5 0 11 -8q2 -5 3 -9.5
t1 -9.5q0 -7 -1 -9q-4 -9 -10 -591v-97l-21 -9q-20 -9 -71 -9q-22 0 -38 4q-12 3 -25 22q-14 18 -15 90v42q0 33 0.5 55t1.5 33q5 74 8 152t3 162q0 77 -3 110q-3 34 -3 57q0 10 1 11z" />
    <glyph glyph-name="v" unicode="v" horiz-adv-x="251" 
d="M81 452q12 -78 21 -157q3 -27 5.5 -52.5t4.5 -48.5t3 -39t1 -24l3 -16l2 12l3 31q0 9 1 16.5t2 13.5l19 119q2 14 6.5 41.5t9.5 67.5l10 66l6 39q3 17 6 39t8 48q3 26 6.5 46.5t5.5 37.5q6 32 12 47q6 16 13 16q8 0 8 -7q0 -6 -2 -12q-4 -12 -10.5 -47t-14.5 -95
l-16 -114.5t-15 -109.5q-13 -106 -17 -112q-2 -5 -7 -38t-13 -96q-15 -124 -18 -128t-5 -4q-13 0 -16 64q-2 32 -12 104q-5 37 -8.5 70t-5.5 62q-1 11 -2 24.5l-2 27.5q-2 30 -3 37q0 4 -1 14t-3 25q-2 17 -4.5 34.5l-5.5 37.5l-19 119l-16.5 108.5t-5.5 38.5q0 9 8 9
t20 -67q6 -34 15.5 -95.5z" />
    <glyph glyph-name="w" unicode="w" horiz-adv-x="414" 
d="M288 119l20 177q13 115 21 156l19 108l16 90l10 61q3 14 5.5 24.5t4.5 16.5q4 12 7 12q6 0 6 -10q0 -2 -5.5 -38.5l-16.5 -108.5q-15 -95 -26 -173.5t-18 -141.5q-2 -21 -5 -43.5t-8 -46.5q-3 -24 -6 -44t-5 -36t-3 -32.5t-1 -33.5q0 -63 -9 -63q-2 0 -5 4q-4 6 -19 123
l-14 92t-7 36t-9 54l-16 122q-5 35 -8.5 62.5t-7.5 47.5l-13 -86q-2 -8 -6.5 -42l-12.5 -94l-15 -114.5t-15 -103.5q-17 -98 -25 -98q-5 0 -15 60q-9 61 -18 129q-8 69 -9 73q-1 2 -4 30t-10 82l-14 112t-15 114q-9 58 -15 93t-10 47q-1 1 -1 13q0 6 4 6q11 0 17 -16
q3 -8 6 -19t5 -28l5 -36.5t7 -47.5q7 -54 12 -87l12 -95l9 -69t8 -50l17 -101q1 -7 2 -16t2 -20q2 -12 3 -22.5t1 -18.5l3 -17h1q7 0 40 238t48 238q2 0 5 -8l59 -373l5 -38q2 -11 2.5 -20t2.5 -17q0 -13 2 -13z" />
    <glyph glyph-name="x" unicode="x" horiz-adv-x="228" 
d="M187 11q-3 0 -4 5q-1 2 -1 11q0 8 -1 10q0 5 -23 111l-17 80.5t-6 34.5q0 8 -9 56q-5 24 -7 40.5l-3 24.5q-8 -27 -12 -64q-6 -40 -39 -160q-33 -123 -33 -137l-7 -21q-6 -16 -9 -16q-4 0 -4 14q0 11 2 17q1 11 2.5 21.5t3.5 21.5q3 9 5.5 19.5t6.5 21.5q8 23 9 31
l13.5 57t9.5 40l6 31t5 30q2 16 5.5 33l7.5 37q3 14 7.5 29.5l9.5 32.5l-55 243q-3 14 -6 26.5t-7 26.5q-4 12 -5.5 20t-2.5 12q-1 3 -1 10q0 8 8 8q5 0 10 -8q4 -7 6 -19q0 -6 30 -136t33 -155q53 181 72 260q1 2 1 5q1 1 1 2t1 3l4 11q2 5 3.5 10.5l3.5 13.5q6 24 10 24
q6 0 6 -10q0 -17 -19 -97q-3 -13 -12 -44.5l-23 -82.5l-22 -79.5t-10 -34.5q-1 -2 -1 -4.5t-2 -6.5q0 -6 -2 -10q10 -37 19.5 -87t20.5 -114q31 -170 31 -180q0 -12 -10 -18z" />
    <glyph glyph-name="y" unicode="y" horiz-adv-x="248" 
d="M180 390q-17 -9 -60 -9q-49 0 -68 10q-20 11 -23 22q-4 11 -4 256v51.5t1 24.5q0 8 6 8q13 0 13 -156v-57v-28v-41q0 -53 9 -60q13 -12 67 -12q52 0 64 9q4 3 4 30q0 8 -0.5 23t-1.5 38t-1.5 40t-0.5 28v21.5t1 13.5q-1 19 -1 40.5v45.5v6q-1 10 -1 21.5v24.5q0 32 9 34
q12 0 12 -81v-15.5t-1 -13.5v-16v-22q1 -6 1 -10v-5v-3q4 -197 5.5 -305t1.5 -130q0 -115 -5 -123q-8 -22 -39 -36q-29 -16 -65 -16t-55 19q-21 33 -21 72q0 6 0.5 11.5t1.5 11.5q1 9 5 16q3 5 5 5q3 0 3 -9q0 -2 1 -4q1 -3 1 -30q0 -75 63 -75q22 0 43 9q22 9 31 21
q13 10 13 135q0 98 -3 215z" />
    <glyph glyph-name="z" unicode="z" horiz-adv-x="234" 
d="M34 745q1 3 10 3q2 0 18.5 -1.5t46.5 -3.5q17 -1 34 -3.5t35 -5.5q36 -9 41 -13q2 -2 2 -5q0 -4 -3 -7q-4 -5 -11 -30.5t-17 -72.5q-4 -24 -33 -104l-21.5 -61.5t-9.5 -29.5q-1 -3 -2.5 -8.5l-3.5 -13.5t-5 -17t-5 -20q-5 -24 -9 -52q-3 -20 -12 -55.5l-23 -89.5
q-29 -108 -29 -120v-19l75 2h26q61 0 61 -12q0 1 -2 -5q-3 -5 -91 -6l-93 -2l3 36q3 32 15 71q12 42 13 44l7 34q0 1 8 28q4 13 7.5 27t5.5 29q2 14 4.5 25.5t5.5 22.5q2 11 3 18.5t2 11.5q2 14 13.5 51l31.5 99q21 60 32.5 98.5t14.5 55.5q1 9 5 18q2 5 3 8t3 6q2 4 2 5
l4 1q-2 0 -2 2q-2 0 -2 4q0 3 1 5q3 4 3 8q0 9 -21 14q-11 2 -32.5 5t-53.5 6q-56 5 -56 16q0 2 1 3z" />
    <glyph glyph-name="braceleft" unicode="{" horiz-adv-x="173" 
d="M122 768q15 -11 15 -16q0 -4 -9 -5q-8 -1 -11 -4q-22 0 -32 -7q-8 -5 -13 -16q-5 -12 -8 -28q-2 -9 -2.5 -16.5t-1.5 -15.5q-1 -6 -1 -15.5t-1 -21.5t-1 -20t-1 -13l-2 -226q-22 -16 -22 -33q1 -9 12 -23q6 -5 8.5 -8t3.5 -4l-1 -265v-4q0 -42 11 -61q9 -21 38 -26
q10 -2 10 -6q2 -5 -2 -8q-3 -4 -6 -4q-34 0 -47 13q-16 15 -21 68q-3 52 -3 221v69q-20 20 -27 37q3 9 14 23t14 20q1 73 2 124t2 82v17v21v27t1 21t2 19t3 22q3 11 6 19.5t7 14.5q8 11 24 20q18 8 39 8z" />
    <glyph glyph-name="bar" unicode="|" horiz-adv-x="92" 
d="M34 746q1 3 3 3q3 0 7 -7q4 -8 7 -22q3 -15 3 -32v-81v-110t-1 -186t-1 -183v-102v-50v-5q0 -63 -14 -63q-9 0 -10 28v64q0 191 1.5 328.5t3.5 224.5q3 99 3 129t-3 47q-2 13 1 17z" />
    <glyph glyph-name="braceright" unicode="}" horiz-adv-x="154" 
d="M27 768q21 0 39 -8q16 -9 24 -20q4 -6 7 -14.5t5 -19.5q3 -12 4 -22t2 -19t1 -21v-27v-21v-17l4 -206q3 -6 14 -20t14 -23q-7 -17 -27 -37v-69q0 -85 -1 -140t-3 -81q-3 -53 -20 -68q-13 -13 -47 -13q-3 0 -7 4q-2 2 -2 8q2 2 4 3.5t7 2.5q27 4 39 26q10 23 10 61v4
l-1 265q1 1 3.5 4t7.5 8q11 11 13 23q0 7 -5 15q-7 10 -12 14l-5 4q-1 85 -1 141.5t-1 84.5q-1 5 -1 13t-1 20t-1 21.5t-1 15.5q-1 8 -1.5 15.5t-2.5 16.5q-3 16 -8 28q-5 11 -13 16q-10 7 -32 7q-3 3 -10 4q-10 1 -10 5q0 5 15 16z" />
    <glyph glyph-name="asciitilde" unicode="~" horiz-adv-x="186" 
d="M136 792q1 3 5 3q2 0 7 -3q3 -5 3 -9t-1 -5q-21 -43 -49 -43q-14 0 -29 16q-21 22 -27 22q-2 0 -16 -11l-8.5 -7t-7.5 -6q-1 -1 -6 -1t-5 6q0 8 6 19q28 18 36 18q11 0 49 -32q4 -4 9 -4q8 0 16 9q5 5 8.5 9.5t5.5 9.5z" />
    <glyph glyph-name="exclamdown" unicode="&#xa1;" horiz-adv-x="91" 
d="M33 -87q-3 4 -1 17q3 16 3 47q0 30 -3 129q-2 87 -3.5 195t-1.5 240v64q1 28 10 28q14 0 14 -63v-5v-50v-87t1 -139t1 -142v-95v-81q0 -18 -3 -31q-3 -17 -6 -22q-4 -8 -8 -8q-2 0 -3 3zM27 734q1 15 7 15q4 0 10 -9q2 -5 3 -10.5t1 -12.5v-6q0 -29 -10 -29q-9 0 -9 12
q0 2 -1 3l-2 7q-1 2 -1 11q0 2 0.5 6.5t1.5 12.5z" />
    <glyph glyph-name="cent" unicode="&#xa2;" horiz-adv-x="220" 
d="M100 500q-23 -14 -41 -76t-18 -143q0 -44 43 -59q9 -4 19 -4q0 8 -0.5 22t-0.5 34q-2 20 -2 34v22q-1 29 -1.5 53.5t-0.5 45.5v29q1 9 1 19.5t1 22.5zM176 420q-20 67 -35 76q-10 7 -22 8v-6.5t1 -9.5v-18v-5v-50v-44v-17v-4q1 0 1 -4v-20v-50v-57q16 1 26.5 2.5
t18.5 6.5q12 6 12 16q-2 5 0 15q1 7 13 7q9 0 9 -10q-5 -26 -12 -32q-6 -7 -32 -15q-12 -3 -21 -4.5t-14 -2.5v-24q0 -31 -10 -31q-8 0 -8 37v17q-2 0 -3 -1q-33 0 -49 16q-31 28 -31 101q0 50 13 106q17 77 67 91v9q0 28 10 28q7 0 9 -35q12 0 21 -4q34 -12 57 -90
q1 -1 1 -6q0 -7 -7 -7q-6 0 -10 3q-5 5 -5 8z" />
    <glyph glyph-name="sterling" unicode="&#xa3;" horiz-adv-x="235" 
d="M177 24q5 1 8.5 0.5t5.5 -0.5q4 -3 3 -5q0 -4 -1 -5q-8 -14 -97 -15h-6q-9 -1 -18 -1h-18q-32 0 -33 6q-1 3 -1 74v146v102t1 75h-3q-9 0 -16 5q-6 6 -6 12q0 4 3 4l23 -1q2 99 3 158v17q0 78 7 112q2 15 4 17q2 4 3 7q15 36 68 36q28 0 54 -15q13 -7 20.5 -14t12.5 -15
q7 -18 11 -66q0 -19 -9 -19q-6 0 -12 9q-1 14 -2 32.5t-3 42.5q-1 5 -27 13q-24 7 -50 7q-22 0 -32 -7q-8 -5 -13 -16q-5 -12 -8 -28q-2 -9 -2.5 -16.5t-1.5 -15.5q-1 -6 -1 -15.5t-1 -21.5t-1 -20t-1 -13q0 -8 -0.5 -26t-1.5 -46q-2 -58 -3 -98l15 -1q95 -5 95 -11
q0 -3 -2 -5q-5 -5 -14 -5q-5 0 -16.5 0.5t-31.5 1.5q-19 1 -30.5 1.5t-15.5 0.5v-22v-51l4 -235v-4v-34.5t2 -19.5q0 -12 7 -14q10 -2 65 -2q20 0 35.5 1t27.5 3z" />
    <glyph glyph-name="currency" unicode="&#xa4;" horiz-adv-x="296" 
d="M92 477q24 39 61 39q14 0 25 -4q21 -8 36 -33q32 54 41 77q3 9 9 14q2 2 3 2l1 -1q3 -2 3 -8q0 -20 -9 -39q-4 -11 -13.5 -28.5l-23.5 -42.5q5 -14 7 -21.5t3 -9.5q2 -18 3 -38.5t1 -43.5v-17.5t-1 -24.5v-42l-3 -12l28 -48q8 -16 8 -24q0 -5 -3 -6h-1h-2q-12 0 -40 48
l-3 4l-1 2q-9 -6 -27 -11q-12 -3 -21 -4.5t-14 -2.5l-18 -2h-3q-33 0 -49 16l-3 3l-1 -1l-3 -4q-29 -48 -40 -48h-2h-1q-3 1 -3 6q0 8 8 24l27 46q-13 26 -13 75q0 50 13 106l4 13.5l4 13.5l-14 22l-13 18l-9 16q-7 10 -8 14l-5 12q-2 5 -2.5 8t-1.5 6q-1 4 -1 12
q0 12 16 -8l25.5 -35zM179 496q-10 7 -22 8h-2q-33 0 -55 -68q-21 -66 -21 -155q0 -44 43 -59q9 -4 19 -4l18 1q60 1 60 46v3q0 3 1 6v9v13v14q0 159 -41 186z" />
    <glyph glyph-name="yen" unicode="&#xa5;" horiz-adv-x="187" 
d="M87 5q-11 0 -11 48q0 7 9 180q1 5 1 12.5v17.5v13h-20l-15 -1h-2q-10 0 -15 4q-8 4 -8 9q0 7 19 7h7l14 -1l15 -1h4v5q0 2 -0.5 6t-0.5 10q-2 5 -2 8v4h-8q-4 1 -8 1l-15 -1h-3q-10 0 -16 6q-6 4 -6 11q0 4 3 4l23 -1l14 -1l14 -1q-3 20 -8 46.5t-12 58.5q-14 64 -15 69
l-21.5 169t-7.5 59q0 11 6 11t12 -13l23 -159l16 -114l2 -14t3 -15t4 -14l4 -12q3 -10 5 -10q12 0 32 168q4 32 10 71t15 85l3 13q4 43 12 43q4 0 6 -42l-17.5 -112.5t-8.5 -60.5q-3 -23 -8 -53t-12 -68q-7 -36 -11 -63t-6 -44q70 -4 70 -10q0 -3 -2 -5q-5 -5 -14 -5
q-5 0 -19 0.5t-36 1.5v-12v-21h37q33 0 33 -5q0 -3 -2 -5q-3 -3 -20 -3q-5 0 -17 -0.5t-32 -1.5v-7q1 -7 1.5 -15t0.5 -19q0 -4 -0.5 -17t-1.5 -35q-3 -44 -3 -93v-18v-5q0 -63 -14 -63z" />
    <glyph glyph-name="brokenbar" unicode="&#xa6;" horiz-adv-x="91" 
d="M35 -23q0 30 -3 129q-2 50 -3 50t-1 61v64q1 28 10 28q14 0 14 -63v-5v-50v-44v-17v-4q1 0 1 -4v-20v-50v-81q0 -31 -10 -31q-8 0 -8 37zM27 734q1 15 7 15q4 0 10 -9q2 -5 3 -10.5t1 -12.5v-6v-36v-81q1 -25 1 -47v-42q0 -143 -3 -143q-16 0 -16 8v21.5t-1 62.5t-1 84
t-2 84q0 44 -0.5 66.5t-0.5 26.5q0 2 0.5 6.5t1.5 12.5z" />
    <glyph glyph-name="section" unicode="&#xa7;" horiz-adv-x="246" 
d="M25 302q36 -33 86 -33q2 0 5 1h5q18 0 40 8q25 10 25 34q0 79 -69 79h-4q-69 0 -78 -19q-14 -33 -14 -52zM1 323q0 50 19 66q27 21 90 21q4 0 9.5 -0.5t12.5 -1.5l-22.5 15.5t-19.5 12.5q-8 5 -14.5 10l-12.5 10q-6 6 -10.5 10t-7.5 8t-5 5.5t-3 2.5q-4 2 -17 22
l-8.5 18.5t-5.5 14.5q-6 18 -6 43q0 58 20 73q29 22 95 22q57 0 69 -19q9 -14 9 -76q0 -23 -11 -23q-9 0 -9 9v8q0 57 -8 65q-10 13 -53 13q-69 0 -78 -20q-1 -2 -1.5 -4t-2.5 -4t-2.5 -4t-1.5 -4t-1 -4.5t-1 -7.5q-1 -4 -1 -9.5t-1 -13.5v-11q0 -26 12 -48q12 -23 30 -38
q8 -8 17 -15l17 -13q18 -12 30 -18l12 -5q24 -13 43 -37q8 -9 19 -31q9 -23 9 -44q0 -44 -42 -62q-12 -6 -34 -6h-9t-12 1t-10.5 1h-5.5q-5 0 -6 -1q-2 -2 -1 -3q40 -14 41 -15q66 -40 84 -100q6 -18 6 -43q0 -58 -20 -73q-29 -22 -95 -22q-57 0 -69 19q-9 13 -9 76
q0 23 11 23q9 0 9 -9v-8q0 -57 8 -65q10 -13 53 -13q69 0 78 20q1 2 1.5 4t2.5 4t2.5 4t1.5 4t1 4.5t1 6.5q1 5 1 10.5t1 13.5v11q0 38 -30 73q-28 34 -58 48l-30 15q-28 14 -45 24t-23 17q-13 12 -13 43z" />
    <glyph glyph-name="dieresis" unicode="&#xa8;" horiz-adv-x="268" 
d="M91 762q0 3 -1 5v4q0 7 2 13q1 4 4 7l3 1h1l2 1q9 0 9 -14v-5q0 -11 -4 -16q-4 -7 -9 -7t-7 11zM145 762q0 3 -1 6v4q0 22 9 22q7 0 11 -2q0 -1 0.5 -4.5t0.5 -9.5v-4q0 -11 -4 -16q-4 -7 -9 -7t-7 11z" />
    <glyph glyph-name="copyright" unicode="&#xa9;" horiz-adv-x="370" 
d="M35 514q0 20 31 32q29 14 75 14h23q20 -2 36 -4t28 -4q14 -2 22 -4t12 -4l16 -8q5 -3 7 -4t3 -2q22 -10 39 -67q16 -54 16 -123q0 -102 -36 -136q-2 -1 -5.5 -2.5t-9.5 -3.5q-9 -6 -14 -6q-2 -2 -16 -5q-5 -2 -11 -2.5t-12 -1.5t-14 -1t-19 -2q-10 0 -22 -0.5t-26 -1.5
h-9q-4 -1 -9 -1h-25t-17 1q-13 1 -32 6q-19 4 -27 16t-15 33q-6 21 -6 53q0 9 2 9l15 217v2zM40 295q0 -68 20 -84q19 -17 73 -17h23q55 0 90 8q33 7 49 28q14 19 19 40q3 18 3 57v23v25q0 38 -3 61q-2 11 -6 23.5t-11 26.5q-14 29 -45 42q-31 14 -81 14h-30q-46 0 -62 -6
t-22 -33l-17 -203v-5zM243 378q-2 26 -7 42q-20 67 -35 76q-11 8 -26 8q-8 0 -15 -4l-4 -2q-4 -2 -6 -4l-8 -6q-6 -6 -9 -10q-2 -4 -4.5 -7.5t-4.5 -8.5q-4 -8 -9 -23q-4 -11 -7 -31q-2 -8 -3 -17.5t-2 -20.5q-1 -12 -1.5 -24t-0.5 -26q0 -24 13 -41q13 -18 30 -24
q9 -3 25 -3q11 0 21.5 1t21.5 3q22 6 23 8q1 4 1.5 8t1.5 8v12q1 2 1 4t1 4q1 3 4 4q1 1 7 1q9 0 9 -9q-5 -27 -12 -32q-5 -8 -32 -16q-29 -8 -56 -8q-34 0 -49 15q-31 28 -31 75q0 37 13 93q10 49 34 71q22 22 48 22q14 0 25 -4q36 -12 57 -90q4 -10 7 -46q-15 -10 -21 2z
" />
    <glyph glyph-name="ordfeminine" unicode="&#xaa;" horiz-adv-x="208" 
d="M149 658q-1 20 -2.5 33.5t-6.5 22.5q-6 16 -24 21q-11 3 -23 3q-20 0 -29 -4q-21 -8 -35 -30q-15 -21 -15 -53v-37v-41q0 -50 12 -66t58 -16q21 0 40 28q26 38 26 98v15q-1 4 -1 6.5v3.5v4v12zM-4 669q2 36 30 60q26 25 70 25q9 0 12 -1q18 -2 27 -9q8 -6 18 -20
q2 19 1 20q-2 9 1 12q2 2 3 2h1q11 0 11 -19v-18v-42v-23v-1v-5q1 -4 1 -8q0 -14 -3 -62q-2 -23 -3 -38t-1 -22v-25v-3q0 -32 -10 -32q-9 0 -10 28l2 32v14q-10 -40 -26 -51q-12 -9 -35 -9h-7q-59 0 -70 22q-12 24 -12 129v39v5z" />
    <glyph glyph-name="guillemotleft" unicode="&#xab;" horiz-adv-x="333" 
d="M206 518q3 5 8 5q7 0 7 -10q0 -6 -6 -7q-6 -3 -8 -5l-150 -158q-7 -8 -7 -15t6 -14q24 -30 133 -136q15 -11 15 -19l-2 -6q-6 -2 -5 -2q-4 0 -11 7l-36 36l-72 74q-38 39 -45 45q-5 0 -5 8q0 15 44 67l45 47t45 43zM280 516q3 4 8 4q6 0 6 -10q0 -3 -36 -36l-77 -76
q-20 -20 -33 -35t-18 -23q-7 -10 -7 -17q0 -6 7 -13l135 -141q11 -8 11 -15t-6 -7h-2q-20 18 -38.5 36.5l-37.5 38.5q-36 37 -60 66q-24 27 -26 29q-5 6 0 17q2 8 14.5 22.5l33.5 37.5l44 44l41 40z" />
    <glyph glyph-name="logicalnot" unicode="&#xac;" horiz-adv-x="248" 
d="M175 320l23 2q6 2 10.5 2h6.5h7q1 1 4 1q-1 0 5 -2q2 0 3 -1q1 0 3 -6q1 -4 1.5 -8.5t0.5 -11.5q1 -11 1.5 -22.5t1.5 -23.5t1.5 -18.5t0.5 -8.5q0 -10 -7 -10q-13 0 -16 11q-2 6 -4 23.5t-4 46.5v6h-5.5t-9.5 -1q-7 -1 -12.5 -1t-10.5 -1l-164 -5q-31 0 -31 13t29 13z
" />
    <glyph glyph-name="uni00AD" unicode="&#xad;" horiz-adv-x="146" 
d="M72 320l22 2q8 2 12 2h6q22 0 22 -8q0 -11 -6 -12q-7 -4 -29 -5q-8 -1 -15 -1t-12 -1l-61 -5q-31 0 -31 13t29 13z" />
    <glyph glyph-name="registered" unicode="&#xae;" horiz-adv-x="370" 
d="M35 700q2 33 27 41q24 9 79 9h23q20 -2 36 -4t28 -4q28 -6 34 -10q5 -2 9 -4.5t7 -5.5q8 -4 10 -6q22 -10 39 -67q16 -54 16 -123q0 -21 -2.5 -41.5t-7.5 -40.5q-10 -42 -29 -59q-3 -1 -7.5 -3t-9.5 -4q-12 -7 -17 -8q-3 -1 -8 -2t-12 -3q-8 -2 -17 -3t-20 -2
q-24 -2 -55 -3q-5 0 -9 -1h-9q-71 0 -96 22q-26 21 -26 94q0 8 2 8l15 218v2zM40 480q0 -37 5 -60q4 -20 21 -32q8 -5 16 -8t18 -4q18 -3 56 -3q53 0 86 10q36 11 50 26q7 8 12 15t7 14q5 13 5 24v8q0 4 0.5 12t1.5 19q3 22 3 36v10q0 17 -0.5 30t-0.5 23q-2 10 -4 22.5
t-6 26.5q-7 27 -22 45q-14 16 -45 28q-29 13 -72 13h-6.5t-8.5 1h-15q-49 0 -65 -8q-19 -6 -19 -36v-4l-17 -203v-5zM215 659q-30 21 -88 21q-15 0 -15 -2l2 -5q1 -5 0 -9q-1 -5 -1.5 -19t-0.5 -37q0 -14 0.5 -26t1.5 -22q3 -20 6 -28q3 -7 5 -7l30 16q85 42 85 80
q0 20 -25 38zM95 692q4 4 30 4q67 0 107 -26q31 -21 31 -47q0 -23 -26 -49q-24 -23 -70 -40q-29 -12 -29 -17q0 -4 11 -10q10 -5 23.5 -15.5l33.5 -25.5q35 -32 41 -34q6 -3 6 -7q0 -6 -9 -6q-3 0 -6 3l-10 9q-4 3 -7 6t-7 5l-43 30q-12 11 -20 17.5t-11 8.5q-9 6 -17 6
l-4 -52v-8q0 -31 -11 -31q-8 0 -10 32q-1 16 -1.5 39t-0.5 54q-1 31 -2 56.5t-3 45.5q-1 4 -1 9v11q0 30 5 32z" />
    <glyph glyph-name="macron" unicode="&#xaf;" horiz-adv-x="157" 
d="M97 783q22 0 22 -8q0 -9 -5 -9l-13 2q-7 1 -13.5 1h-13.5h-13.5t-10.5 -1q-31 0 -31 7q0 8 29 8h49z" />
    <glyph glyph-name="degree" unicode="&#xb0;" horiz-adv-x="140" 
d="M99 722q0 5 -0.5 8t-0.5 6q-2 2 -4 6q-1 0 -9 2q-2 1 -11 1q-11 0 -14 -1q-21 -5 -21 -24q0 -2 1 -4v-5v-8t-1 -9t-1 -7.5v-3.5q0 -10 6 -13t25 -3q10 0 20 10l4 10.5t3 10.5t1.5 8.5t0.5 5.5l1 5v5zM106 671q-7 -15 -16 -19q-7 -4 -20 -4h-4q-33 0 -40 10q-6 9 -6 53v16
v2q2 14 17 24q16 10 39 10h7q36 -3 36 -44v-2q0 -21 -9 -37z" />
    <glyph glyph-name="plusminus" unicode="&#xb1;" horiz-adv-x="146" 
d="M41 474q0 31 13 31t13 -29l1 -42h4h6h9t11 -2q6 0 9.5 -0.5t5.5 -0.5q22 0 22 -8q0 -11 -13 -11h-20h-16.5t-13.5 -1h-3q0 -4 0.5 -9t1.5 -12q1 -6 1.5 -10.5t0.5 -6.5q0 -22 -8 -22q-11 0 -13 5q-1 3 -2 11t-2 21q-1 7 -1 12t-1 9l-35 -3q-31 0 -31 13t29 13l35 1z
M72 320l22 2q8 2 12 2h6q22 0 22 -8q0 -11 -6 -12q-7 -4 -29 -5q-8 -1 -15 -1t-12 -1l-61 -5q-31 0 -31 13t29 13z" />
    <glyph glyph-name="uni00B2" unicode="&#xb2;" horiz-adv-x="249" 
d="M26 439v-2l50 1h26q30 0 38 -2q8 -1 8 -8q0 1 -2 -5q-3 -3 -28 -4l-54 -3l-26 -1q-36 0 -36 15v3q7 48 20 62q1 1 3 3.5t5 5.5q4 9 9 12q5 6 11 10q6 6 13 9q9 7 27 24q9 8 19.5 21.5t22.5 30.5q25 34 25 63q0 26 -21 44l-8 8q-4 3 -6.5 5.5t-5.5 4.5q-3 3 -14 6
q-8 4 -21 4q-30 0 -40 -8q-9 -9 -9 -33v-21q1 -8 1 -14v-11q0 -7 -3 -13q-2 -4 -5 -4q-2 1 -5 1q-3 1 -3 22v24q0 48 9 60q10 12 52 12q43 0 72 -22q23 -18 23 -61q0 -27 -12 -55q-12 -29 -23 -43l-5 -6q-3 0 -43 -40l-32 -26q-10 -10 -14 -16q-2 -2 -4 -5.5t-4 -8.5
q-2 -4 -3 -6.5t-2 -4.5q-4 -7 -4 -27z" />
    <glyph glyph-name="uni00B3" unicode="&#xb3;" horiz-adv-x="228" 
d="M26 474q0 11 10 11q7 0 10 -3q5 -4 4 -8q0 -8 2 -14q1 -3 8 -12q5 -6 22 -10q15 -3 40 -3q50 0 50 35v3v3l-1 1v37q0 19 -0.5 32.5t-1.5 22.5q-1 17 -5 21q-2 2 -7 2h-1h-9h-15.5t-15.5 1h-7h-6.5t-10.5 -1h-18q-15 0 -21 3l-6 4.5t-3 2.5q0 1 7 7q6 3 21 3h18
q6 -1 10.5 -1h6.5h7h6h8t9 -1h13q9 0 15 4q4 5 4 20v5l2 59q0 45 -62 45q-35 0 -47 -5q-12 -6 -12 -16q0 -22 -13 -23q-5 -2 -7 1q-3 3 -3 9l4 20q7 13 20 20q16 8 47 8h6q52 -2 69 -10q18 -9 18 -33q0 -11 -0.5 -22t-0.5 -22q-2 -11 -2 -24.5v-27.5q0 -7 -6 -11q6 -5 6 -12
v-72.5t2 -34.5q0 -8 0.5 -14.5t0.5 -13.5q0 -24 -18 -33q-17 -8 -69 -10h-6q-34 0 -47 9q-2 1 -3.5 2t-3.5 2l-5 5q-3 3 -4 5q-2 4 -3 5l-1 6l-1 6l-2 8q-1 3 -1 5t-1 4z" />
    <glyph glyph-name="acute" unicode="&#xb4;" horiz-adv-x="103" 
d="M20 689q-7 -7 -13 -7q-3 0 -5 2t-2 5q0 9 35 59l16 25l3 3q2 2 6 2q5 0 7 -2t2 -6t-1 -6z" />
    <glyph glyph-name="uni00B5" unicode="&#xb5;" horiz-adv-x="249" 
d="M44 -1q0 -90 -11 -90q-6 0 -8 17q-1 7 -1.5 25.5t-0.5 48.5q0 1 1.5 98.5t5.5 294.5v3v16q1 6 1 11.5v9.5q0 21 0.5 37t1.5 27h-13q-10 0 -13 1q-4 0 -5 1v4v2v1l-1 2q0 3 25 3h10q2 2 5 2q2 0 3 -1q4 0 4 -3v-4q1 -4 1.5 -14.5t0.5 -29.5v-39.5t-1 -34.5q1 -5 1 -13.5
v-21.5q0 -11 -0.5 -47.5t-1.5 -98.5q-1 -63 -1.5 -97.5t-0.5 -42.5q0 -27 4 -30q12 -9 64 -9q53 0 67 12q6 6 7 19q1 34 1.5 61t0.5 49v214q0 49 1.5 83.5t5.5 55.5h-17q-32 0 -32 8q0 6 38 6h10q13 0 13 -5q1 -5 1 -24.5v-51.5v-212v-128.5t-2 -69.5q0 -41 -8 -41q1 0 -5 2
q-5 3 -7 6q-1 3 -1 11q-1 0 -2 -1l-2 -2q-19 -10 -68 -10h-10.5t-13.5 -1t-13 -1h-7q-10 0 -16 3q-4 4 -8 4q-3 -3 -3 -15z" />
    <glyph glyph-name="paragraph" unicode="&#xb6;" horiz-adv-x="293" 
d="M262 739q1 -2 1 -5.5t1 -7.5v-24q1 -7 1 -13.5t1 -11.5v-33.5t1 -19.5q1 -8 1 -14v-11q0 -14 -1.5 -65.5t-5.5 -139.5q-4 -89 -5.5 -173t-1.5 -165v-29.5t1 -20.5t1 -13.5v-8.5q0 -19 -8 -19h-1q-5 1 -11 31q-2 16 -3 32t-1 33q0 60 1.5 131t3.5 156q2 86 3.5 142t1.5 85
v48t-1 39q-1 18 -1 30t-2 20q0 8 -0.5 13.5t-0.5 7.5l-37 1q-1 -3 -1 -48q0 -28 0.5 -79t1.5 -126q1 -40 1 -74v-62q1 -28 1 -46.5t1 -27.5v-23v-42v-40v-82q1 -23 1 -39.5v-27.5q0 -5 -1 -7v-6q0 -36 -14 -36q-2 0 -4 2t-4 26v84q-1 29 -1 55.5t-1 49.5l-1 66q-8 5 -13 9.5
t-7 6.5q-133 108 -133 233v10q1 4 1 8q0 55 3 88q1 33 12 66q9 31 27 48q19 17 49 26q16 6 35 8.5t42 3.5h11l36 -4l16 -4q3 -1 4 -11z" />
    <glyph glyph-name="periodcentered" unicode="&#xb7;" horiz-adv-x="69" 
d="M-2 386q-1 8 -1.5 12.5t-0.5 6.5q0 9 1 11l2 7q1 1 1 3q0 12 9 12q14 0 17 -6q5 -5 5 -23v-6q0 -15 -7 -23q-6 -10 -14 -10q-11 0 -12 16z" />
    <glyph glyph-name="cedilla" unicode="&#xb8;" horiz-adv-x="239" 
d="M155 -91q0 -22 -7 -28q-7 -5 -39 -10h-6q-5 0 -10 0.5t-10 0.5q-5 2 -8.5 3t-6.5 3q-6 4 -8 6q-4 1 -6 8q-3 8 -4 9q-2 2 -2 9q-2 5 -2 6.5v2.5q0 11 10 11q7 0 10 -4q5 -3 4 -7v-2q1 -1 1 -3q0 -3 -1 -6v-5q0 -14 35 -16h2q29 0 29 36v3v8v9q0 12 -4 18q-7 5 -20 5h-26
q-7 -1 -12 4q-3 3 -5 16v6q0 20 10 20q7 0 7 -10q0 -17 5 -17q40 0 53 -10q12 -11 12 -32v-14q-1 -5 -1 -9v-7v-4z" />
    <glyph glyph-name="uni00B9" unicode="&#xb9;" horiz-adv-x="83" 
d="M40 687v-44t-1 -61q-1 -34 -1 -58.5v-40.5v-25v-2q0 -32 -14 -32q-5 0 -6 24v31v53q-1 18 -1 31.5v22.5q0 16 0.5 34.5t1.5 40.5q2 24 3 42.5t2 31.5l-40 -62q-7 -7 -13 -7q-3 0 -5 2t-2 5q0 9 35 59l16 25l3 3q2 2 6 2q16 0 16 -35v-40z" />
    <glyph glyph-name="ordmasculine" unicode="&#xba;" horiz-adv-x="208" 
d="M149 658q-1 20 -2.5 33.5t-6.5 22.5q-6 16 -24 21q-11 3 -23 3q-20 0 -29 -4q-21 -8 -35 -30q-15 -21 -15 -53v-37v-41q0 -50 12 -66t58 -16q21 0 40 28q26 38 26 98v15q-1 4 -1 6.5v3.5v4v12zM149 530q-9 -33 -29 -47q-12 -9 -35 -9h-7q-59 0 -70 22q-12 24 -12 129v39
v5q2 36 30 60q26 25 70 25q9 0 12 -1q63 -8 63 -104v-7q0 -54 -14 -91z" />
    <glyph glyph-name="guillemotright" unicode="&#xbb;" horiz-adv-x="333" 
d="M136 501l42 -41l54 -54q23 -24 43 -49q19 -25 19 -36q0 -8 -4 -8q-8 -6 -45 -45l-73 -74q-33 -36 -35 -36q-7 -7 -11 -7q1 0 -5 2l-3 6q0 7 16 19l85 85t47 51q6 7 6 14t-7 15l-149 158q-2 2 -8 5q-6 1 -6 7q0 10 7 10q5 0 8 -5zM43 516q162 -148 174 -182q5 -11 0 -17
q-2 -2 -26 -29l-27 -30.5t-34 -35.5l-37.5 -38.5t-38.5 -36.5h-1q-7 0 -7 7t11 15l136 141q7 7 7 13q0 7 -7 17q-5 8 -18 23t-33 35l-39.5 40l-38.5 36q-36 33 -36 36q0 10 7 10q5 0 8 -4z" />
    <glyph glyph-name="onequarter" unicode="&#xbc;" horiz-adv-x="503" 
d="M152 687v-44t-1 -61q-1 -34 -1 -58.5v-40.5v-25v-2q0 -32 -14 -32q-5 0 -6 24v31v53q-1 18 -1 31.5v22.5q0 16 0.5 34.5t1.5 40.5q2 24 3 42.5t2 31.5l-40 -62q-7 -7 -13 -7q-3 0 -5 2t-2 5q0 9 35 59l16 25l3 3q2 2 6 2q16 0 16 -35v-40zM376 189q42 0 53 3q11 2 11 11
v7l-2 12q-1 7 -1 28v56v3q-1 5 -1 11.5v13.5q0 16 8 18q12 0 12 -43q0 -23 1 -56.5t3 -78.5q3 -89 3 -115q0 -40 -5 -45q-6 -14 -8 -14q-6 0 -6 38v26q1 8 1 12v5q0 44 -3 104l-10 -5q-16 -10 -57 -10h-6q-71 0 -80 17q-4 5 -4 99q0 37 1 41q0 4 6 4q13 0 13 -79v-39v-4
q0 -8 3 -11q5 -5 20 -6q15 -3 48 -3zM461 747q2 2 3 2l1 -1q2 -2 2 -8q0 -23 -18 -53l-40 -70l-310 -522l-25 -44l-2 -4q-29 -48 -41 -48h-2h-1q-3 1 -3 6q0 8 8 24l32 55l260 440l39 61l43 68l15 23.5t8 14.5q16 31 21 42v9q0 6 1 7t9 -2z" />
    <glyph glyph-name="onehalf" unicode="&#xbd;" horiz-adv-x="503" 
d="M152 687v-48.5t-1 -74.5q-1 -45 -1 -74v-45v-25v-2q0 -32 -14 -32q-5 0 -6 24v31v60q-1 23 -1 40v30q0 23 0.5 45.5t1.5 44.5q2 24 3 42.5t2 31.5l-40 -62q-7 -7 -13 -7q-3 0 -5 2t-2 5q0 9 35 59l16 25l3 3q2 2 6 2q16 0 16 -35v-40zM461 747q2 2 3 2l1 -1q2 -2 2 -8
q0 -23 -18 -53l-40 -70l-310 -522l-25 -44l-2 -4q-29 -48 -41 -48h-2h-1q-3 1 -3 6q0 8 8 24l32 55l260 440l39 61l43 68l15 23.5t8 14.5q16 31 21 42v9q0 6 1 7t9 -2zM316 21v-2l50 1h26q30 0 38 -2q8 -1 8 -8q0 1 -2 -5q-3 -3 -28 -4l-54 -3l-26 -1q-36 0 -36 15v3
q7 48 20 62q1 1 3 3.5t5 5.5q4 9 9 12q5 6 11 10q6 6 13 9q9 7 27 24q9 8 19.5 21.5t22.5 30.5q25 34 25 63q0 26 -21 44q-1 1 -3 3.5t-6 6.5q-6 7 -16 14q-5 2 -10.5 3t-13.5 1q-30 0 -40 -8q-9 -9 -9 -33v-21q1 -8 1 -14v-11q0 -8 -5 -13q-4 -4 -8 -4q-3 1 -6 1
q-3 1 -3 22v24q0 48 9 60q10 12 52 12q43 0 72 -22q23 -18 23 -61q0 -27 -12 -55q-12 -29 -23 -43l-5 -6q-3 0 -43 -40l-32 -26q-10 -10 -14 -16q-2 -2 -4 -5.5t-4 -8.5q-2 -4 -3 -6.5t-2 -4.5q-4 -7 -4 -27z" />
    <glyph glyph-name="threequarters" unicode="&#xbe;" horiz-adv-x="503" 
d="M376 189q42 0 53 3q11 2 11 11v7l-2 12q-1 7 -1 28v56v3q-1 5 -1 11.5v13.5q0 16 8 18q12 0 12 -43q0 -23 1 -56.5t3 -78.5q3 -89 3 -115q0 -40 -5 -45q-6 -14 -8 -14q-6 0 -6 38v26q1 8 1 12v5q0 44 -3 104l-10 -5q-16 -10 -57 -10h-6q-71 0 -80 17q-4 5 -4 99
q0 37 1 41q0 4 6 4q13 0 13 -79v-39v-4q0 -8 3 -11q5 -5 20 -6q15 -3 48 -3zM461 747q2 2 3 2l1 -1q2 -2 2 -8q0 -23 -18 -53l-40 -70l-310 -522l-25 -44l-2 -4q-29 -48 -41 -48h-2h-1q-3 1 -3 6q0 8 8 24l32 55l260 440l39 61l43 68l15 23.5t8 14.5q16 31 21 42q1 16 2 16
q2 0 8 -2zM61 474q0 11 10 11q5 0 11 -3q4 -6 3 -8q0 -8 2 -14q1 -3 8 -12q5 -5 21 -10q16 -3 41 -3q50 0 50 35v3q0 2 -1 3v1v37q0 19 -0.5 32.5t-1.5 22.5q-1 16 -4 21q-4 2 -8 2h-1h-9h-15.5t-15.5 1h-7h-7.5t-10.5 -1h-17q-15 0 -21 3q-8 6 -8 7q-1 1 6 7q6 3 21 3h17
q6 -1 10.5 -1h7.5h7h6h8t9 -1h13q9 0 15 4q4 5 4 20v5l2 59q0 45 -62 45q-35 0 -48 -5q-11 -6 -11 -16q0 -22 -13 -23q-4 -1 -8 1q-2 4 -2 9l4 20q7 13 20 20q16 8 47 8h6q52 -2 69 -10q18 -9 18 -33v-22t-2 -22q0 -11 -0.5 -24.5t-0.5 -27.5q0 -7 -6 -11q6 -5 6 -12
q0 -46 0.5 -72.5t0.5 -34.5q2 -8 2 -14.5v-13.5q0 -24 -18 -33q-17 -8 -69 -10h-6q-34 0 -47 9q-2 1 -3.5 2t-3.5 2l-5 5q-3 3 -4 5q-2 4 -2 5l-2 6l-2 6q0 4 -1 8q-1 3 -1 5t-1 4z" />
    <glyph glyph-name="questiondown" unicode="&#xbf;" horiz-adv-x="234" 
d="M152 609q4 25 12 25q6 0 14 -23q0 -114 -11 -128q-2 -4 -4 -7t-3 -5q-1 -12 -86 -119q-27 -35 -27 -214l1 -54q0 -104 45 -126q40 -21 66 -21q9 0 11 1q11 1 16 6q3 5 2 13q-1 13 -1.5 50t-0.5 100v18q0 6 6 11q7 5 9 5q6 0 6 -89v-54q0 -23 1 -26v-10v-6v-7
q0 -21 -15 -31q-11 -8 -21 -8q-5 0 -35 8q-94 29 -107 102q-6 31 -6 67q-1 11 -1.5 25.5t-0.5 31.5q0 186 61 260q42 50 55 77q14 30 14 66v9q-1 4 -1 10q1 12 1 22.5v20.5zM176 759q1 -8 1.5 -12.5t0.5 -6.5q0 -8 -1 -12q-1 -2 -1 -3.5t-1 -2.5t-1 -3q0 -12 -9 -12
q-10 0 -10 29v6q0 14 5 22q3 10 9 10q5 0 7 -15z" />
    <glyph glyph-name="Agrave" unicode="&#xc0;" 
d="M100 693q-3 20 -7 20t-4 -16q0 -13 -2.5 -38.5t-8.5 -64.5q-5 -39 -9 -74t-6 -67q-3 -37 -6 -68.5t-5 -60.5q-6 -53 -9 -92l-3 -39h45q20 0 36.5 1t28.5 3l21 3l-2 30q-3 42 -11 99t-20 131q-14 72 -21.5 120.5t-9.5 71.5q0 7 -7 41zM70 681q0 7 8 44q8 35 14 35t13 -19
q4 -10 8 -22.5t7 -29.5q5 -17 7 -34l4 -34q1 -8 7 -44t18 -101q11 -64 17.5 -109t8.5 -71q1 -13 3 -32.5t5 -45.5t4.5 -49t2.5 -42q2 -52 9 -89q2 -14 3.5 -22.5t1.5 -12.5q0 -10 -6 -10q-4 0 -5 1q-11 4 -19 109q-2 25 -3 40t-2 21q-3 11 -13 11q-9 0 -12 -1
q-12 -2 -28.5 -3t-36.5 -1h-44l-4 -48q-2 -27 -3 -42t-2 -17q-2 -18 -6 -48q-1 -6 -6 -8t-7 1q-4 3 -4 8q0 7 1 12t1 12t2 16q0 11 1 21l2 21l9 115l11.5 131l10.5 110q5 51 8 84.5t6 51.5l3.5 30.5t2.5 24.5t1.5 19.5t0.5 16.5zM29 862q-1 2 -1 6t2 6t7 2q4 0 6 -2l3 -3
l16 -25q35 -50 35 -59q0 -3 -2 -5t-5 -2q-6 0 -13 7z" />
    <glyph glyph-name="Aacute" unicode="&#xc1;" 
d="M100 693q-3 20 -7 20t-4 -16q0 -13 -2.5 -38.5t-8.5 -64.5q-5 -39 -9 -74t-6 -67q-3 -37 -6 -68.5t-5 -60.5q-6 -53 -9 -92l-3 -39h45q20 0 36.5 1t28.5 3l21 3l-2 30q-3 42 -11 99t-20 131q-14 72 -21.5 120.5t-9.5 71.5q0 7 -7 41zM70 681q0 7 8 44q8 35 14 35t13 -19
q4 -10 8 -22.5t7 -29.5q5 -17 7 -34l4 -34q1 -8 7 -44t18 -101q11 -64 17.5 -109t8.5 -71q1 -13 3 -32.5t5 -45.5t4.5 -49t2.5 -42q2 -52 9 -89q2 -14 3.5 -22.5t1.5 -12.5q0 -10 -6 -10q-4 0 -5 1q-11 4 -19 109q-2 25 -3 40t-2 21q-3 11 -13 11q-9 0 -12 -1
q-12 -2 -28.5 -3t-36.5 -1h-44l-4 -48q-2 -27 -3 -42t-2 -17q-2 -18 -6 -48q-1 -6 -6 -8t-7 1q-4 3 -4 8q0 7 1 12t1 12t2 16q0 11 1 21l2 21l9 115l11.5 131l10.5 110q5 51 8 84.5t6 51.5l3.5 30.5t2.5 24.5t1.5 19.5t0.5 16.5zM108 787q-7 -7 -13 -7q-3 0 -5 2t-2 5
q0 9 35 59l16 25l3 3q2 2 6 2q5 0 7 -2t2 -6t-1 -6z" />
    <glyph glyph-name="Acircumflex" unicode="&#xc2;" 
d="M100 693q-3 20 -7 20t-4 -16q0 -13 -2.5 -38.5t-8.5 -64.5q-5 -39 -9 -74t-6 -67q-3 -37 -6 -68.5t-5 -60.5q-6 -53 -9 -92l-3 -39h45q20 0 36.5 1t28.5 3l21 3l-2 30q-3 42 -11 99t-20 131q-14 72 -21.5 120.5t-9.5 71.5q0 7 -7 41zM70 681q0 7 8 44q8 35 14 35t13 -19
q4 -10 8 -22.5t7 -29.5q5 -17 7 -34l4 -34q1 -8 7 -44t18 -101q11 -64 17.5 -109t8.5 -71q1 -13 3 -32.5t5 -45.5t4.5 -49t2.5 -42q2 -52 9 -89q2 -14 3.5 -22.5t1.5 -12.5q0 -10 -6 -10q-4 0 -5 1q-11 4 -19 109q-2 25 -3 40t-2 21q-3 11 -13 11q-9 0 -12 -1
q-12 -2 -28.5 -3t-36.5 -1h-44l-4 -48q-2 -27 -3 -42t-2 -17q-2 -18 -6 -48q-1 -6 -6 -8t-7 1q-4 3 -4 8q0 7 1 12t1 12t2 16q0 11 1 21l2 21l9 115l11.5 131l10.5 110q5 51 8 84.5t6 51.5l3.5 30.5t2.5 24.5t1.5 19.5t0.5 16.5zM101 871l17 -25q35 -50 35 -59q0 -3 -2 -5
t-5 -2q-6 0 -13 7l-41 64l-41 -64q-7 -7 -13 -7q-3 0 -5 2q-1 1 -1 5q0 9 35 59l16 25l3 3q2 2 6 2t6 -2z" />
    <glyph glyph-name="Atilde" unicode="&#xc3;" 
d="M100 693q-3 20 -7 20t-4 -16q0 -13 -2.5 -38.5t-8.5 -64.5q-5 -39 -9 -74t-6 -67q-3 -37 -6 -68.5t-5 -60.5q-6 -53 -9 -92l-3 -39h45q20 0 36.5 1t28.5 3l21 3l-2 30q-3 42 -11 99t-20 131q-14 72 -21.5 120.5t-9.5 71.5q0 7 -7 41zM70 681q0 7 8 44q8 35 14 35t13 -19
q4 -10 8 -22.5t7 -29.5q5 -17 7 -34l4 -34q1 -8 7 -44t18 -101q11 -64 17.5 -109t8.5 -71q1 -13 3 -32.5t5 -45.5t4.5 -49t2.5 -42q2 -52 9 -89q2 -14 3.5 -22.5t1.5 -12.5q0 -10 -6 -10q-4 0 -5 1q-11 4 -19 109q-2 25 -3 40t-2 21q-3 11 -13 11q-9 0 -12 -1
q-12 -2 -28.5 -3t-36.5 -1h-44l-4 -48q-2 -27 -3 -42t-2 -17q-2 -18 -6 -48q-1 -6 -6 -8t-7 1q-4 3 -4 8q0 7 1 12t1 12t2 16q0 11 1 21l2 21l9 115l11.5 131l10.5 110q5 51 8 84.5t6 51.5l3.5 30.5t2.5 24.5t1.5 19.5t0.5 16.5zM153 837q1 3 5 3q3 0 6 -4q4 -3 4 -8
q0 -4 -1 -5q-21 -43 -49 -43q-14 0 -29 16q-21 22 -27 22q-2 0 -16 -11l-8.5 -7t-7.5 -6q-1 -1 -6 -1t-5 6q0 8 6 19q28 18 36 18q11 0 49 -32q4 -4 9 -4q8 0 17 9q8 10 12 19z" />
    <glyph glyph-name="Adieresis" unicode="&#xc4;" 
d="M100 693q-3 20 -7 20t-4 -16q0 -13 -2.5 -38.5t-8.5 -64.5q-5 -39 -9 -74t-6 -67q-3 -37 -6 -68.5t-5 -60.5q-6 -53 -9 -92l-3 -39h45q20 0 36.5 1t28.5 3l21 3l-2 30q-3 42 -11 99t-20 131q-14 72 -21.5 120.5t-9.5 71.5q0 7 -7 41zM70 681q0 7 8 44q8 35 14 35t13 -19
q4 -10 8 -22.5t7 -29.5q5 -17 7 -34l4 -34q1 -8 7 -44t18 -101q11 -64 17.5 -109t8.5 -71q1 -13 3 -32.5t5 -45.5t4.5 -49t2.5 -42q2 -52 9 -89q2 -14 3.5 -22.5t1.5 -12.5q0 -10 -6 -10q-4 0 -5 1q-11 4 -19 109q-2 25 -3 40t-2 21q-3 11 -13 11q-9 0 -12 -1
q-12 -2 -28.5 -3t-36.5 -1h-44l-4 -48q-2 -27 -3 -42t-2 -17q-2 -18 -6 -48q-1 -6 -6 -8t-7 1q-4 3 -4 8q0 7 1 12t1 12t2 16q0 11 1 21l2 21l9 115l11.5 131l10.5 110q5 51 8 84.5t6 51.5l3.5 30.5t2.5 24.5t1.5 19.5t0.5 16.5zM56 791q0 3 -1 5v4q0 7 2 13q1 4 4 7l3 1h1
l2 1q9 0 9 -14v-5q0 -11 -4 -16q-4 -7 -9 -7t-7 11zM110 791q0 3 -1 6v4q0 22 9 22q7 0 11 -2q0 -1 0.5 -4.5t0.5 -9.5v-4q0 -11 -4 -16q-4 -7 -9 -7t-7 11z" />
    <glyph glyph-name="Aring" unicode="&#xc5;" horiz-adv-x="247" 
d="M100 693q-3 20 -7 20t-4 -16q0 -13 -2.5 -38.5t-8.5 -64.5q-5 -39 -9 -74t-6 -67q-3 -37 -6 -68.5t-5 -60.5q-6 -53 -9 -92l-3 -39h45q20 0 36.5 1t28.5 3l21 3l-2 30q-3 42 -11 99t-20 131q-14 72 -21.5 120.5t-9.5 71.5q0 7 -7 41zM70 681q0 7 8 44q8 35 14 35t13 -19
q4 -10 8 -22.5t7 -29.5q5 -17 7 -34l4 -34q1 -8 7 -44t18 -101q11 -64 17.5 -109t8.5 -71q1 -13 3 -32.5t5 -45.5t4.5 -49t2.5 -42q2 -52 9 -89q2 -14 3.5 -22.5t1.5 -12.5q0 -10 -6 -10q-4 0 -5 1q-11 4 -19 109q-2 25 -3 40t-2 21q-3 11 -13 11q-9 0 -12 -1
q-12 -2 -28.5 -3t-36.5 -1h-44l-4 -48q-2 -27 -3 -42t-2 -17q-2 -18 -6 -48q-1 -6 -6 -8t-7 1q-4 3 -4 8q0 7 1 12t1 12t2 16q0 11 1 21l2 21l9 115l11.5 131l10.5 110q5 51 8 84.5t6 51.5l3.5 30.5t2.5 24.5t1.5 19.5t0.5 16.5zM121 829q0 13 -2 17q-3 4 -12 6q-2 1 -11 1
q-4 0 -14 -2q-20 -5 -20 -24v-9v-7.5t-1 -8.5v-11q0 -10 6 -13q4 -3 24 -3q10 0 20 10l4 10.5t3 10.5l3 14v5v4zM128 779q-5 -14 -16 -19q-7 -4 -20 -4h-4q-33 0 -39 9q-7 8 -7 53v16v2q2 16 17 24q15 11 39 11h7q36 -3 36 -44v-2q0 -23 -8 -37z" />
    <glyph glyph-name="AE" unicode="&#xc6;" horiz-adv-x="384" 
d="M70 681q0 7 8 44q8 35 14 35t13 -19q4 -10 8 -22.5t7 -29.5q5 -17 7 -34l4 -34q1 -8 6.5 -42t16.5 -93q10 -60 16.5 -103t9.5 -70q-1 25 -1 64.5v95.5v47t-1 54v75v73q1 12 1.5 21t0.5 15q3 15 4 15q0 2 5 2q9 0 24 -7q16 -6 42 -9q111 -12 111 -24q0 -2 -2 -4h-6
q-12 0 -31.5 1t-47.5 4q-28 2 -44.5 4.5t-21.5 4.5q-3 1 -7 3l-3 1.5l-3 1.5q0 1 -2 1t-2 -41v-39t1 -50q1 -55 3 -100l1 -43l1 -61l42 -3q67 -4 67 -18q0 -3 -2 -5t-10 -2q-5 0 -14.5 1t-24.5 3q-16 2 -26.5 3t-15.5 1q-10 0 -13 -3q-6 -6 -6 -78q0 -100 9 -227l5 -64h66h6
q78 0 78 -12q0 -2 -5 -7q-5 -3 -50 -6t-81 -3q-30 0 -35 8q-6 9 -9 58q-1 12 -1 21.5t-1 17.5q-2 25 -3 40t-2 21q-3 11 -13 11q-9 0 -12 -1q-12 -2 -28.5 -3t-36.5 -1h-44l-4 -48q-2 -27 -3 -42t-2 -17q-2 -18 -6 -48q-1 -6 -6 -8t-7 1q-4 3 -4 8q0 7 1 12t1 12t2 16
q0 11 1 21l2 21l9 115l11.5 131l10.5 110q5 51 8 84.5t6 51.5l3.5 30.5t2.5 24.5t1.5 19.5t0.5 16.5zM100 693q-3 20 -7 20t-4 -16q0 -13 -2.5 -38.5t-8.5 -64.5q-5 -39 -9 -74t-6 -67q-3 -35 -6 -65.5t-5 -58.5q-6 -56 -9 -97l-3 -39h45q20 0 36.5 1t28.5 3l21 3l-2 30
q-3 42 -11 99t-20 131q-14 72 -21.5 120.5t-9.5 71.5q0 7 -7 41z" />
    <glyph glyph-name="Ccedilla" unicode="&#xc7;" horiz-adv-x="236" 
d="M183 471q-1 25 -2.5 46t-4.5 39q-18 127 -35 152q-12 16 -26 16q-8 0 -15 -7q-20 -26 -41 -113q-11 -45 -17.5 -84t-8.5 -74l-4 -61q-1 -29 -3 -43q-1 -7 -1 -12v-10q0 -6 0.5 -12t0.5 -13l6 -50q5 -39 9 -88q10 -114 43 -136q9 -6 25 -6q20 0 43 9q21 7 23 14
q2 17 2.5 36t1.5 39q6 9 12 9q9 0 9 -19q-2 -25 -4.5 -41t-7.5 -24q-6 -16 -32 -30q-30 -16 -52 -17q0 -10 5 -10q40 0 53 -10q12 -11 12 -32v-14q-1 -5 -1 -9v-7v-4q0 -22 -7 -28q-7 -5 -39 -10h-6q-5 0 -10 0.5t-10 0.5q-5 2 -8.5 3t-6.5 3q-6 4 -8 6q-4 1 -6 8q-3 8 -4 9
q-2 2 -2 9q-2 5 -2 6.5v2.5q0 11 10 11q7 0 10 -4q5 -3 4 -7v-2q1 -1 1 -3q0 -3 -1 -6v-5q0 -14 35 -16h2q29 0 29 36v3v8v9q0 12 -4 18q-7 5 -20 5h-26q-7 -1 -12 4q-3 3 -5 16v6v4q-27 4 -36 29q-13 28 -25 104q-12 73 -15 104q-3 25 -3 64q0 151 25 269q11 52 21 88
t20 56q19 42 41 42q11 0 25 -9q36 -26 57 -180q2 -13 3.5 -35.5l3.5 -54.5q-9 -12 -13 -12q-3 0 -8 14z" />
    <glyph glyph-name="Egrave" unicode="&#xc8;" horiz-adv-x="234" 
d="M27 473v47t-1 54v75v73q1 12 1.5 21t0.5 15q3 15 4 15q0 2 5 2q6 0 24 -8t42 -11q103 -10 103 -27q0 -2 -2 -4h-6q-10 0 -28 2l-44 5q-55 9 -65 13q-3 1 -7 3l-3 1.5l-3 1.5q0 1 -2 1t-2 -41v-39t1 -50q1 -55 3 -100l1 -43l1 -61l42 -3q67 -4 67 -18q0 -3 -2 -5t-10 -2
q-5 0 -14.5 1t-24.5 3q-16 2 -26.5 3t-15.5 1q-10 0 -13 -3q-6 -6 -6 -78q0 -100 9 -227l5 -64h66h6q78 0 78 -12q0 -2 -5 -7q-5 -3 -50 -6t-81 -3q-29 0 -32 3q-1 1 -3 22q0 10 -0.5 23t-1.5 30t-2 31.5t-3 26.5q-5 27 -6 339zM73 877q-1 2 -1 6t2 6t7 2q4 0 6 -2l3 -3
l16 -25q35 -50 35 -59q0 -3 -2 -5t-5 -2q-6 0 -13 7z" />
    <glyph glyph-name="Eacute" unicode="&#xc9;" horiz-adv-x="234" 
d="M27 473v47t-1 54v75v73q1 12 1.5 21t0.5 15q3 15 4 15q0 2 5 2q6 0 24 -8t42 -11q103 -10 103 -27q0 -2 -2 -4h-6q-10 0 -28 2l-44 5q-55 9 -65 13q-3 1 -7 3l-3 1.5l-3 1.5q0 1 -2 1t-2 -41v-39t1 -50q1 -55 3 -100l1 -43l1 -61l42 -3q67 -4 67 -18q0 -3 -2 -5t-10 -2
q-5 0 -14.5 1t-24.5 3q-16 2 -26.5 3t-15.5 1q-10 0 -13 -3q-6 -6 -6 -78q0 -100 9 -227l5 -64h66h6q78 0 78 -12q0 -2 -5 -7q-5 -3 -50 -6t-81 -3q-29 0 -32 3q-1 1 -3 22q0 10 -0.5 23t-1.5 30t-2 31.5t-3 26.5q-5 27 -6 339zM116 802q-7 -7 -13 -7q-3 0 -5 2t-2 5
q0 9 35 59l16 25l3 3q2 2 6 2q5 0 7 -2t2 -6t-1 -6z" />
    <glyph glyph-name="Ecircumflex" unicode="&#xca;" horiz-adv-x="234" 
d="M27 473v47t-1 54v75v73q1 12 1.5 21t0.5 15q3 15 4 15q0 2 5 2q6 0 24 -8t42 -11q103 -10 103 -27q0 -2 -2 -4h-6q-10 0 -28 2l-44 5q-55 9 -65 13q-3 1 -7 3l-3 1.5l-3 1.5q0 1 -2 1t-2 -41v-39t1 -50q1 -55 3 -100l1 -43l1 -61l42 -3q67 -4 67 -18q0 -3 -2 -5t-10 -2
q-5 0 -14.5 1t-24.5 3q-16 2 -26.5 3t-15.5 1q-10 0 -13 -3q-6 -6 -6 -78q0 -100 9 -227l5 -64h66h6q78 0 78 -12q0 -2 -5 -7q-5 -3 -50 -6t-81 -3q-29 0 -32 3q-1 1 -3 22q0 10 -0.5 23t-1.5 30t-2 31.5t-3 26.5q-5 27 -6 339zM121 886l17 -25q35 -50 35 -59q0 -3 -2 -5
t-5 -2q-6 0 -13 7l-41 64l-41 -64q-7 -7 -13 -7q-3 0 -5 2q-1 1 -1 5q0 9 35 59l16 25l3 3q2 2 6 2t6 -2z" />
    <glyph glyph-name="Edieresis" unicode="&#xcb;" horiz-adv-x="234" 
d="M27 473v47t-1 54v75v73q1 12 1.5 21t0.5 15q3 15 4 15q0 2 5 2q6 0 24 -8t42 -11q103 -10 103 -27q0 -2 -2 -4h-6q-10 0 -28 2l-44 5q-55 9 -65 13q-3 1 -7 3l-3 1.5l-3 1.5q0 1 -2 1t-2 -41v-39t1 -50q1 -55 3 -100l1 -43l1 -61l42 -3q67 -4 67 -18q0 -3 -2 -5t-10 -2
q-5 0 -14.5 1t-24.5 3q-16 2 -26.5 3t-15.5 1q-10 0 -13 -3q-6 -6 -6 -78q0 -100 9 -227l5 -64h66h6q78 0 78 -12q0 -2 -5 -7q-5 -3 -50 -6t-81 -3q-29 0 -32 3q-1 1 -3 22q0 10 -0.5 23t-1.5 30t-2 31.5t-3 26.5q-5 27 -6 339zM88 806q0 3 -1 5v4q0 7 2 13q1 4 4 7l3 1h1
l2 1q9 0 9 -14v-5q0 -11 -4 -16q-4 -7 -9 -7t-7 11zM142 806q0 3 -1 6v4q0 22 9 22q7 0 11 -2q0 -1 0.5 -4.5t0.5 -9.5v-4q0 -11 -4 -16q-4 -7 -9 -7t-7 11z" />
    <glyph glyph-name="Igrave" unicode="&#xcc;" horiz-adv-x="93" 
d="M34 746q1 3 3 3q3 0 7 -7q4 -8 7 -22q3 -15 3 -32l-1 -81v-98t-1 -152t-1 -149v-90l1 -50v-5q0 -63 -14 -63q-6 0 -7 28v64v184q0 108 0.5 177t1.5 100q3 99 3 129t-3 47q-2 13 1 17zM-26 851q-1 2 -1 6t2 6t7 2q4 0 6 -2l3 -3l16 -25q35 -50 35 -59q0 -3 -2 -5t-5 -2
q-6 0 -13 7z" />
    <glyph glyph-name="Iacute" unicode="&#xcd;" horiz-adv-x="93" 
d="M34 746q1 3 3 3q3 0 7 -7q4 -8 7 -22q3 -15 3 -32l-1 -81v-98t-1 -152t-1 -149v-90l1 -50v-5q0 -63 -14 -63q-6 0 -7 28v64v184q0 108 0.5 177t1.5 100q3 99 3 129t-3 47q-2 13 1 17zM52 776q-7 -7 -13 -7q-3 0 -5 2t-2 5q0 9 35 59l16 25l3 3q2 2 6 2q5 0 7 -2t2 -6
t-1 -6z" />
    <glyph glyph-name="Icircumflex" unicode="&#xce;" horiz-adv-x="93" 
d="M34 746q1 3 3 3q3 0 7 -7q4 -8 7 -22q3 -15 3 -32l-1 -81v-98t-1 -152t-1 -149v-90l1 -50v-5q0 -63 -14 -63q-6 0 -7 28v64v184q0 108 0.5 177t1.5 100q3 99 3 129t-3 47q-2 13 1 17zM46 860l17 -25q35 -50 35 -59q0 -3 -2 -5t-5 -2q-6 0 -13 7l-41 64l-41 -64
q-7 -7 -13 -7q-3 0 -5 2q-1 1 -1 5q0 9 35 59l16 25l3 3q2 2 6 2t6 -2z" />
    <glyph glyph-name="Idieresis" unicode="&#xcf;" horiz-adv-x="93" 
d="M34 746q1 3 3 3q3 0 7 -7q4 -8 7 -22q3 -15 3 -32l-1 -81v-98t-1 -152t-1 -149v-90l1 -50v-5q0 -63 -14 -63q-6 0 -7 28v64v184q0 108 0.5 177t1.5 100q3 99 3 129t-3 47q-2 13 1 17zM1 780q0 3 -1 5v4q0 7 2 13q1 4 4 7l3 1h1l2 1q9 0 9 -14v-5q0 -11 -4 -16
q-4 -7 -9 -7t-7 11zM55 780q0 3 -1 6v4q0 22 9 22q7 0 11 -2q0 -1 0.5 -4.5t0.5 -9.5v-4q0 -11 -4 -16q-4 -7 -9 -7t-7 11z" />
    <glyph glyph-name="Eth" unicode="&#xd0;" horiz-adv-x="265" 
d="M39 0q-1 -1 -3 -1q-4 0 -6 65q-2 129 -3.5 211.5t-2.5 119.5l-7 -1q-31 0 -31 6q0 13 27 13h2h9q-1 23 -1 57v79q0 211 8 219h3q1 1 4 1q15 0 36.5 -3t50.5 -8q57 -11 75 -27q19 -16 24 -53q6 -35 6 -96v-51v-27q0 -8 0.5 -28.5t1.5 -55.5q1 -34 1.5 -62t0.5 -51
q0 -215 -34 -253q-14 -17 -68 -46zM52 23q2 -2 12 -2q23 0 67 18q45 19 52 30q31 31 31 271v55.5t-2 74.5q0 41 -0.5 68t-0.5 41v30t1 19v8q1 4 1 8v9t-1 7q0 5 -0.5 8t-1.5 6q-1 4 -3 10t-5 10q-2 2 -2.5 4t-1.5 3t-2 3t-4 4q-2 4 -5 7q-10 14 -58 25q-23 5 -43 7.5
t-36 2.5q-11 0 -11 -183v-89t1 -64l38 1l22 3q11 1 19 1.5t13 0.5q8 0 8 -2q0 -11 -6 -12q-7 -4 -29 -5q-8 -1 -15 -1t-12 -1l-37 -3q6 -368 11 -373z" />
    <glyph glyph-name="Ntilde" unicode="&#xd1;" horiz-adv-x="244" 
d="M49 633q-2 -2 -2 -4v-37.5t1 -20.5q2 -27 3 -58.5t1 -68.5q0 -403 -14 -429q-5 -8 -9 -8h-2q-3 1 -3 15q0 13 1.5 31l3.5 41q2 16 2.5 40.5t1.5 57.5q1 69 0 181q-1 57 -1 90.5v44.5v55.5t-1 25.5q-1 11 -1 45v91q0 14 2 14q14 0 50 -118q17 -60 28 -108t15 -86
q2 -14 8 -51l17 -100l20 -102.5t13 -58.5l11 -38l-3 81q-1 22 -1.5 43.5t-1.5 44.5q-2 23 -2.5 44t-1.5 40t-1 45v59v65v30t1 39v62v43v24q-1 5 -1 8q0 33 9 33q2 0 5 -5q4 -7 4 -52v-25.5t-1 -47.5v-105q0 -220 9 -409q1 -6 1 -14v-19q0 -64 -11 -64q-6 0 -13 25
q-18 64 -36 153q-18 87 -27 146l-9 57q-8 70 -30 164q-23 96 -30 96q-3 0 -3 -3zM170 823q1 3 5 3q3 0 6 -4q4 -3 4 -8q0 -4 -1 -5q-21 -43 -49 -43q-14 0 -29 16q-21 22 -27 22q-2 0 -16 -11l-8.5 -7t-7.5 -6q-1 -1 -6 -1t-5 6q0 8 6 19q28 18 36 18q11 0 49 -32q4 -4 9 -4
q8 0 17 9q8 10 12 19z" />
    <glyph glyph-name="Ograve" unicode="&#xd2;" horiz-adv-x="248" 
d="M142 707q-12 16 -17 16q-6 0 -10 -6q-20 -26 -41 -113q-11 -45 -17.5 -84t-8.5 -74l-4 -61q-1 -29 -3 -43q-1 -7 -1 -12v-10v-12t2 -14q0 -13 6 -49q2 -18 4 -40t4 -48q10 -114 43 -136q9 -6 25 -6q20 0 43 9q21 7 23 14q2 29 3.5 95t3.5 172q1 26 1 57.5v67.5
q0 97 -7 126q-29 122 -49 151zM111 733q9 13 14 13q3 0 17 -8q32 -22 70 -179q9 -36 9 -259q0 -66 -1 -110.5t-3 -69.5q-5 -63 -13 -80q-6 -16 -33 -32q-32 -17 -56 -17q-37 0 -49 30q-13 28 -25 104q-12 73 -15 104q-2 19 -3.5 39t-1.5 43q0 122 20 216q29 138 54 178z
M61 848q-1 2 -1 6t2 6t7 2q4 0 6 -2l3 -3l16 -25q35 -50 35 -59q0 -3 -2 -5t-5 -2q-6 0 -13 7z" />
    <glyph glyph-name="Oacute" unicode="&#xd3;" horiz-adv-x="248" 
d="M142 707q-12 16 -17 16q-6 0 -10 -6q-20 -26 -41 -113q-11 -45 -17.5 -84t-8.5 -74l-4 -61q-1 -29 -3 -43q-1 -7 -1 -12v-10v-12t2 -14q0 -13 6 -49q2 -18 4 -40t4 -48q10 -114 43 -136q9 -6 25 -6q20 0 43 9q21 7 23 14q2 29 3.5 95t3.5 172q1 26 1 57.5v67.5
q0 97 -7 126q-29 122 -49 151zM111 733q9 13 14 13q3 0 17 -8q32 -22 70 -179q9 -36 9 -259q0 -66 -1 -110.5t-3 -69.5q-5 -63 -13 -80q-6 -16 -33 -32q-32 -17 -56 -17q-37 0 -49 30q-13 28 -25 104q-12 73 -15 104q-2 19 -3.5 39t-1.5 43q0 122 20 216q29 138 54 178z
M140 773q-7 -7 -13 -7q-3 0 -5 2t-2 5q0 9 35 59l16 25l3 3q2 2 6 2q5 0 7 -2t2 -6t-1 -6z" />
    <glyph glyph-name="Ocircumflex" unicode="&#xd4;" horiz-adv-x="248" 
d="M142 707q-12 16 -17 16q-6 0 -10 -6q-20 -26 -41 -113q-11 -45 -17.5 -84t-8.5 -74l-4 -61q-1 -29 -3 -43q-1 -7 -1 -12v-10v-12t2 -14q0 -13 6 -49q2 -18 4 -40t4 -48q10 -114 43 -136q9 -6 25 -6q20 0 43 9q21 7 23 14q2 29 3.5 95t3.5 172q1 26 1 57.5v67.5
q0 97 -7 126q-29 122 -49 151zM111 733q9 13 14 13q3 0 17 -8q32 -22 70 -179q9 -36 9 -259q0 -66 -1 -110.5t-3 -69.5q-5 -63 -13 -80q-6 -16 -33 -32q-32 -17 -56 -17q-37 0 -49 30q-13 28 -25 104q-12 73 -15 104q-2 19 -3.5 39t-1.5 43q0 122 20 216q29 138 54 178z
M133 857l17 -25q35 -50 35 -59q0 -3 -2 -5t-5 -2q-6 0 -13 7l-41 64l-41 -64q-7 -7 -13 -7q-3 0 -5 2q-1 1 -1 5q0 9 35 59l16 25l3 3q2 2 6 2t6 -2z" />
    <glyph glyph-name="Otilde" unicode="&#xd5;" horiz-adv-x="248" 
d="M142 707q-12 16 -17 16q-6 0 -10 -6q-20 -26 -41 -113q-11 -45 -17.5 -84t-8.5 -74l-4 -61q-1 -29 -3 -43q-1 -7 -1 -12v-10v-12t2 -14q0 -13 6 -49q2 -18 4 -40t4 -48q10 -114 43 -136q9 -6 25 -6q20 0 43 9q21 7 23 14q2 29 3.5 95t3.5 172q1 26 1 57.5v67.5
q0 97 -7 126q-29 122 -49 151zM111 733q9 13 14 13q3 0 17 -8q32 -22 70 -179q9 -36 9 -259q0 -66 -1 -110.5t-3 -69.5q-5 -63 -13 -80q-6 -16 -33 -32q-32 -17 -56 -17q-37 0 -49 30q-13 28 -25 104q-12 73 -15 104q-2 19 -3.5 39t-1.5 43q0 122 20 216q29 138 54 178z
M184 823q1 3 5 3q3 0 6 -4q4 -3 4 -8q0 -4 -1 -5q-21 -43 -49 -43q-14 0 -29 16q-21 22 -27 22q-2 0 -16 -11l-8.5 -7t-7.5 -6q-1 -1 -6 -1t-5 6q0 8 6 19q28 18 36 18q11 0 49 -32q4 -4 9 -4q8 0 17 9q8 10 12 19z" />
    <glyph glyph-name="Odieresis" unicode="&#xd6;" horiz-adv-x="248" 
d="M142 707q-12 16 -17 16q-6 0 -10 -6q-20 -26 -41 -113q-11 -45 -17.5 -84t-8.5 -74l-4 -61q-1 -29 -3 -43q-1 -7 -1 -12v-10v-12t2 -14q0 -13 6 -49q2 -18 4 -40t4 -48q10 -114 43 -136q9 -6 25 -6q20 0 43 9q21 7 23 14q2 29 3.5 95t3.5 172q1 26 1 57.5v67.5
q0 97 -7 126q-29 122 -49 151zM111 733q9 13 14 13q3 0 17 -8q32 -22 70 -179q9 -36 9 -259q0 -66 -1 -110.5t-3 -69.5q-5 -63 -13 -80q-6 -16 -33 -32q-32 -17 -56 -17q-37 0 -49 30q-13 28 -25 104q-12 73 -15 104q-2 19 -3.5 39t-1.5 43q0 122 20 216q29 138 54 178z
M89 777q0 3 -1 5v4q0 7 2 13q1 4 4 7l3 1h1l2 1q9 0 9 -14v-5q0 -11 -4 -16q-4 -7 -9 -7t-7 11zM143 777q0 3 -1 6v4q0 22 9 22q7 0 11 -2q0 -1 0.5 -4.5t0.5 -9.5v-4q0 -11 -4 -16q-4 -7 -9 -7t-7 11z" />
    <glyph glyph-name="multiply" unicode="&#xd7;" horiz-adv-x="264" 
d="M184 266q2 -4 2 -8q0 -5 -4 -5q-18 0 -52 43l-36 37l-37 -37q-44 -39 -54 -39q-2 0 -2 3q0 1 3 6q0 5 39 43l34 41l-62 63q-14 16 -14 25q0 3 3 6q2 2 4 2q9 0 21 -15l65 -70l63 71q12 15 21 15q3 0 6 -3q2 -2 2 -6q0 -9 -14 -25l-61 -63l36 -38q37 -34 37 -46z" />
    <glyph glyph-name="Oslash" unicode="&#xd8;" horiz-adv-x="265" 
d="M70 120q13 -83 39 -99q9 -6 25 -6q20 0 43 9q21 7 23 14q2 20 3.5 86.5t3.5 180.5q1 26 1 57.5v67.5q0 97 -7 126l-4 16zM121 733q9 13 14 13q3 0 17 -8q22 -15 45 -86l31 102l1 2q0 1 1 1l2 -1q6 -2 6 -17q0 -5 -0.5 -10t-1.5 -11q-1 -7 -2 -13t-3 -12t-3 -11.5
t-3 -11.5l-5 -17l-2 -7l-9 -34q2 -7 5 -24q3 -9 4.5 -16.5t3.5 -12.5q9 -36 9 -259q0 -66 -1 -110.5t-3 -69.5q-5 -63 -13 -80q-6 -16 -33 -32q-32 -17 -56 -17q-37 0 -49 30q-10 23 -17 61l-5 -21q-1 -3 -1.5 -7.5t-2.5 -9.5q-2 -6 -3 -11t-1 -9q-2 -4 -2.5 -8t-2.5 -8
q-3 -8 -6 -13q-3 -4 -6 -4q-2 0 -3 1q-2 0 -4 5q-1 1 -1 8q0 5 0.5 9t1.5 8l28 104q-2 11 -3.5 22.5t-3.5 23.5q-5 26 -6 40l-1.5 12t-0.5 5q-2 19 -3.5 39t-1.5 43q0 122 20 216q29 138 54 178zM152 707q-12 16 -17 16q-6 0 -10 -6q-20 -26 -41 -113q-11 -45 -17.5 -84
t-8.5 -74l-4 -61q-1 -29 -3 -43q-1 -7 -1 -12v-10v-9.5t1 -10.5q1 -5 1 -10.5t2 -11.5q0 -6 1 -16t3 -24q2 -15 3 -30.5t3 -32.5l97 359l25 82q-22 76 -34 91z" />
    <glyph glyph-name="Ugrave" unicode="&#xd9;" horiz-adv-x="246" 
d="M196 734q3 4 5 4q12 0 12 -92v-38q-3 -82 -6 -208.5t-5 -300.5l-1 -81l-17 -8q-17 -9 -60 -9q-49 0 -68 10q-20 11 -23 21q-4 11 -4 553v100t1 40q0 4 4 5q3 3 6 3t8 -153q3 -152 3 -294q0 -60 -0.5 -97t-1.5 -54q-1 -13 -1 -26.5v-27.5v-17q0 -11 6 -17q11 -10 44 -17
q34 -9 59 -9q17 0 21 4q4 3 6 134q1 66 1.5 133t1.5 136q2 138 3 148q1 5 1.5 17t0.5 31q1 20 1 38t1 35q0 33 2 37zM65 848q-1 2 -1 6t2 6t7 2q4 0 6 -2l3 -3l16 -25q35 -50 35 -59q0 -3 -2 -5t-5 -2q-6 0 -13 7z" />
    <glyph glyph-name="Uacute" unicode="&#xda;" horiz-adv-x="246" 
d="M196 734q3 4 5 4q12 0 12 -92v-38q-3 -82 -6 -208.5t-5 -300.5l-1 -81l-17 -8q-17 -9 -60 -9q-49 0 -68 10q-20 11 -23 21q-4 11 -4 553v100t1 40q0 4 4 5q3 3 6 3t8 -153q3 -152 3 -294q0 -60 -0.5 -97t-1.5 -54q-1 -13 -1 -26.5v-27.5v-17q0 -11 6 -17q11 -10 44 -17
q34 -9 59 -9q17 0 21 4q4 3 6 134q1 66 1.5 133t1.5 136q2 138 3 148q1 5 1.5 17t0.5 31q1 20 1 38t1 35q0 33 2 37zM117 773q-7 -7 -13 -7q-3 0 -5 2t-2 5q0 9 35 59l16 25l3 3q2 2 6 2q5 0 7 -2t2 -6t-1 -6z" />
    <glyph glyph-name="Ucircumflex" unicode="&#xdb;" horiz-adv-x="246" 
d="M196 734q3 4 5 4q12 0 12 -92v-38q-3 -82 -6 -208.5t-5 -300.5l-1 -81l-17 -8q-17 -9 -60 -9q-49 0 -68 10q-20 11 -23 21q-4 11 -4 553v100t1 40q0 4 4 5q3 3 6 3t8 -153q3 -152 3 -294q0 -60 -0.5 -97t-1.5 -54q-1 -13 -1 -26.5v-27.5v-17q0 -11 6 -17q11 -10 44 -17
q34 -9 59 -9q17 0 21 4q4 3 6 134q1 66 1.5 133t1.5 136q2 138 3 148q1 5 1.5 17t0.5 31q1 20 1 38t1 35q0 33 2 37zM131 857l17 -25q35 -50 35 -59q0 -3 -2 -5t-5 -2q-6 0 -13 7l-41 64l-41 -64q-7 -7 -13 -7q-3 0 -5 2q-1 1 -1 5q0 9 35 59l16 25l3 3q2 2 6 2t6 -2z" />
    <glyph glyph-name="Udieresis" unicode="&#xdc;" horiz-adv-x="246" 
d="M196 734q3 4 5 4q12 0 12 -92v-38q-3 -82 -6 -208.5t-5 -300.5l-1 -81l-17 -8q-17 -9 -60 -9q-49 0 -68 10q-20 11 -23 21q-4 11 -4 553v100t1 40q0 4 4 5q3 3 6 3t8 -153q3 -152 3 -294q0 -60 -0.5 -97t-1.5 -54q-1 -13 -1 -26.5v-27.5v-17q0 -11 6 -17q11 -10 44 -17
q34 -9 59 -9q17 0 21 4q4 3 6 134q1 66 1.5 133t1.5 136q2 138 3 148q1 5 1.5 17t0.5 31q1 20 1 38t1 35q0 33 2 37zM72 777q0 3 -1 5v4q0 7 2 13q1 4 4 7l3 1h1l2 1q9 0 9 -14v-5q0 -11 -4 -16q-4 -7 -9 -7t-7 11zM126 777q0 3 -1 6v4q0 22 9 22q7 0 11 -2q0 -1 0.5 -4.5
t0.5 -9.5v-4q0 -11 -4 -16q-4 -7 -9 -7t-7 11z" />
    <glyph glyph-name="Yacute" unicode="&#xdd;" horiz-adv-x="189" 
d="M87 -18q-11 0 -11 48q0 30 9 203q1 5 1 12.5v17.5v17v12q-1 4 -1 6q-1 17 -3.5 36.5t-7.5 43.5q-8 47 -18 89q-5 22 -7.5 34.5t-3.5 16.5l-21.5 169t-7.5 59q0 11 6 11t12 -13l23 -159l16 -114l2 -14t3 -15t4 -14l4 -12q3 -10 5 -10q12 0 32 168q4 32 10 71t15 85l3 13
q4 43 12 43q4 0 6 -42l-17.5 -112.5t-8.5 -60.5q-2 -23 -7.5 -55.5t-13.5 -75.5q-9 -42 -13 -73.5t-4 -53.5v-27.5t-1 -15.5q1 -7 1.5 -15t0.5 -19q0 -4 -0.5 -19.5l-1.5 -44.5q-3 -54 -3 -104v-18v-5q0 -63 -14 -63zM100 813q-7 -7 -13 -7q-3 0 -5 2t-2 5q0 9 35 59l16 25
l3 3q2 2 6 2q5 0 7 -2t2 -6t-1 -6z" />
    <glyph glyph-name="Thorn" unicode="&#xde;" horiz-adv-x="222" 
d="M63 618q-1 -10 -1.5 -25t-2.5 -37q-2 -21 -2.5 -37.5t-1.5 -27.5q0 -60 -3 -171t-3 -132q0 -24 1 -25t4 -1q1 0 7 2q3 2 31 44l20 35t11 21q2 6 5.5 12l7.5 13q9 14 18 37q5 11 11 31l14 48q3 9 3 81q0 71 -10 85q-22 32 -92 46q-5 1 -8 1.5t-5 0.5q-1 0 -2 -1h-2z
M59 636q89 -14 118 -44q18 -21 22 -39q2 -10 3.5 -27t1.5 -43v-7q1 -4 1 -11q0 -83 -52 -177l-9 -18q-4 -6 -6 -13l-2 -5q-6 -13 -14.5 -28t-19.5 -32q-12 -17 -20.5 -28t-13.5 -16q-2 -2 -7 -6.5t-13 -9.5q-3 -164 -5 -168q0 -1 -2 -3q-1 -1 -2 -1q-11 0 -11 35v5
q-1 4 -1 8q0 28 -0.5 56t-1.5 57t-1.5 51t-0.5 37q0 83 9 251q3 250 3 258v13.5t-1 8.5v20q0 21 13 21h3q7 -1 7 -26v-13v-20.5t1 -17.5v-8.5t1 -13.5t1 -15v-14v-8q-1 -4 -1 -9z" />
    <glyph glyph-name="germandbls" unicode="&#xdf;" horiz-adv-x="277" 
d="M177 516q26 26 34 49q7 21 7 91q0 53 -16 69q-16 18 -64 19q-33 0 -51 -12q-16 -10 -29 -49q-5 -19 -7.5 -46.5t-2.5 -63.5v-95t-1 -140q-1 -83 -1 -138.5v-86.5v-50v-5q0 -63 -14 -63q-9 0 -10 28v64q0 131 1.5 238t3.5 194q1 42 1.5 65t0.5 28q0 83 24 118q24 34 80 34
q56 -2 79 -20q26 -17 26 -62q0 -51 -1 -80t-3 -40q-3 -9 -11.5 -21.5t-22.5 -26.5q-8 -8 -14 -17q-7 -11 -11 -21q-5 -13 1 -22q6 -11 24 -16q29 -9 45 -26q15 -18 15 -29v-51v-76q1 -22 1 -36.5v-22.5v-16t1 -17t1 -30.5v-55.5q0 -82 -112 -83h-6q-34 0 -47 13q-1 1 -1 4
q0 5 12 5q3 0 9.5 -0.5t17.5 -0.5l33 -3q33 0 54 25t21 48v6v5q-1 2 -1 4q-3 84 -3 177v75q0 28 -12 42q-12 13 -36 24q-25 10 -34 18q-12 7 -7 33q4 24 26 46z" />
    <glyph glyph-name="agrave" unicode="&#xe0;" horiz-adv-x="238" 
d="M112 605q-6 41 -9 41t-13 -87q-2 -14 -18 -171q-8 -78 -14.5 -132.5t-11.5 -83.5q-1 -3 -1 -13q0 -11 4 -14q4 -2 16 -2q24 0 68 9q47 11 47 14q0 2 -1 3q-2 2 -2.5 6t-2.5 9l-6 50q-6 38 -15 88q-7 38 -17 109zM42 109q-1 -5 -1.5 -10.5t-2.5 -11.5q0 -6 -0.5 -11
t-1.5 -10t-1.5 -10t-0.5 -10l-3 -16q-1 -3 -1 -6t-2 -6q0 -4 -4 -8q-2 -3 -4 -3q-11 0 -11 3l81 713q2 10 6 13q3 6 8 6q1 0 5 -2q3 -3 3 -6q1 -22 7.5 -69.5t18.5 -122.5l20 -132q0 -1 3 -16t8 -44l10.5 -61t10.5 -65l10 -61l8 -49l6 -37q2 -8 3 -15t1 -12q2 -6 2.5 -10.5
t1.5 -9.5l3 -14q1 -2 1 -8q1 -2 1 -3t1 -2v-3v-3q0 -2 -14 -2q-7 0 -15 50q-4 29 -7.5 47t-5.5 26q-6 15 -20 17q-3 1 -11 1q-5 0 -24 -3q-10 -2 -22 -2.5t-26 -1.5l-38 -1zM39 846q-1 2 -1 6t2 6t7 2q4 0 6 -2l3 -3l16 -25q35 -50 35 -59q0 -3 -2 -5t-5 -2q-6 0 -13 7z" />
    <glyph glyph-name="aacute" unicode="&#xe1;" horiz-adv-x="238" 
d="M112 605q-6 41 -9 41t-13 -87q-2 -14 -18 -171q-8 -78 -14.5 -132.5t-11.5 -83.5q-1 -3 -1 -13q0 -11 4 -14q4 -2 16 -2q24 0 68 9q47 11 47 14q0 2 -1 3q-2 2 -2.5 6t-2.5 9l-6 50q-6 38 -15 88q-7 38 -17 109zM42 109q-1 -5 -1.5 -10.5t-2.5 -11.5q0 -6 -0.5 -11
t-1.5 -10t-1.5 -10t-0.5 -10l-3 -16q-1 -3 -1 -6t-2 -6q0 -4 -4 -8q-2 -3 -4 -3q-11 0 -11 3l81 713q2 10 6 13q3 6 8 6q1 0 5 -2q3 -3 3 -6q1 -22 7.5 -69.5t18.5 -122.5l20 -132q0 -1 3 -16t8 -44l10.5 -61t10.5 -65l10 -61l8 -49l6 -37q2 -8 3 -15t1 -12q2 -6 2.5 -10.5
t1.5 -9.5l3 -14q1 -2 1 -8q1 -2 1 -3t1 -2v-3v-3q0 -2 -14 -2q-7 0 -15 50q-4 29 -7.5 47t-5.5 26q-6 15 -20 17q-3 1 -11 1q-5 0 -24 -3q-10 -2 -22 -2.5t-26 -1.5l-38 -1zM118 771q-7 -7 -13 -7q-3 0 -5 2t-2 5q0 9 35 59l16 25l3 3q2 2 6 2q5 0 7 -2t2 -6t-1 -6z" />
    <glyph glyph-name="acircumflex" unicode="&#xe2;" horiz-adv-x="238" 
d="M112 605q-6 41 -9 41t-13 -87q-2 -14 -18 -171q-8 -78 -14.5 -132.5t-11.5 -83.5q-1 -3 -1 -13q0 -11 4 -14q4 -2 16 -2q24 0 68 9q47 11 47 14q0 2 -1 3q-2 2 -2.5 6t-2.5 9l-6 50q-6 38 -15 88q-7 38 -17 109zM42 109q-1 -5 -1.5 -10.5t-2.5 -11.5q0 -6 -0.5 -11
t-1.5 -10t-1.5 -10t-0.5 -10l-3 -16q-1 -3 -1 -6t-2 -6q0 -4 -4 -8q-2 -3 -4 -3q-11 0 -11 3l81 713q2 10 6 13q3 6 8 6q1 0 5 -2q3 -3 3 -6q1 -22 7.5 -69.5t18.5 -122.5l20 -132q0 -1 3 -16t8 -44l10.5 -61t10.5 -65l10 -61l8 -49l6 -37q2 -8 3 -15t1 -12q2 -6 2.5 -10.5
t1.5 -9.5l3 -14q1 -2 1 -8q1 -2 1 -3t1 -2v-3v-3q0 -2 -14 -2q-7 0 -15 50q-4 29 -7.5 47t-5.5 26q-6 15 -20 17q-3 1 -11 1q-5 0 -24 -3q-10 -2 -22 -2.5t-26 -1.5l-38 -1zM111 855l17 -25q35 -50 35 -59q0 -3 -2 -5t-5 -2q-6 0 -13 7l-41 64l-41 -64q-7 -7 -13 -7
q-3 0 -5 2q-1 1 -1 5q0 9 35 59l16 25l3 3q2 2 6 2t6 -2z" />
    <glyph glyph-name="atilde" unicode="&#xe3;" horiz-adv-x="238" 
d="M112 605q-6 41 -9 41t-13 -87q-2 -14 -18 -171q-8 -78 -14.5 -132.5t-11.5 -83.5q-1 -3 -1 -13q0 -11 4 -14q4 -2 16 -2q24 0 68 9q47 11 47 14q0 2 -1 3q-2 2 -2.5 6t-2.5 9l-6 50q-6 38 -15 88q-7 38 -17 109zM42 109q-1 -5 -1.5 -10.5t-2.5 -11.5q0 -6 -0.5 -11
t-1.5 -10t-1.5 -10t-0.5 -10l-3 -16q-1 -3 -1 -6t-2 -6q0 -4 -4 -8q-2 -3 -4 -3q-11 0 -11 3l81 713q2 10 6 13q3 6 8 6q1 0 5 -2q3 -3 3 -6q1 -22 7.5 -69.5t18.5 -122.5l20 -132q0 -1 3 -16t8 -44l10.5 -61t10.5 -65l10 -61l8 -49l6 -37q2 -8 3 -15t1 -12q2 -6 2.5 -10.5
t1.5 -9.5l3 -14q1 -2 1 -8q1 -2 1 -3t1 -2v-3v-3q0 -2 -14 -2q-7 0 -15 50q-4 29 -7.5 47t-5.5 26q-6 15 -20 17q-3 1 -11 1q-5 0 -24 -3q-10 -2 -22 -2.5t-26 -1.5l-38 -1zM162 821q1 3 5 3q3 0 6 -4q4 -3 4 -8q0 -4 -1 -5q-21 -43 -49 -43q-14 0 -29 16q-21 22 -27 22
q-2 0 -16 -11l-8.5 -7t-7.5 -6q-1 -1 -6 -1t-5 6q0 8 6 19q28 18 36 18q11 0 49 -32q4 -4 9 -4q8 0 17 9q8 10 12 19z" />
    <glyph glyph-name="adieresis" unicode="&#xe4;" horiz-adv-x="238" 
d="M112 605q-6 41 -9 41t-13 -87q-2 -14 -18 -171q-8 -78 -14.5 -132.5t-11.5 -83.5q-1 -3 -1 -13q0 -11 4 -14q4 -2 16 -2q24 0 68 9q47 11 47 14q0 2 -1 3q-2 2 -2.5 6t-2.5 9l-6 50q-6 38 -15 88q-7 38 -17 109zM42 109q-1 -5 -1.5 -10.5t-2.5 -11.5q0 -6 -0.5 -11
t-1.5 -10t-1.5 -10t-0.5 -10l-3 -16q-1 -3 -1 -6t-2 -6q0 -4 -4 -8q-2 -3 -4 -3q-11 0 -11 3l81 713q2 10 6 13q3 6 8 6q1 0 5 -2q3 -3 3 -6q1 -22 7.5 -69.5t18.5 -122.5l20 -132q0 -1 3 -16t8 -44l10.5 -61t10.5 -65l10 -61l8 -49l6 -37q2 -8 3 -15t1 -12q2 -6 2.5 -10.5
t1.5 -9.5l3 -14q1 -2 1 -8q1 -2 1 -3t1 -2v-3v-3q0 -2 -14 -2q-7 0 -15 50q-4 29 -7.5 47t-5.5 26q-6 15 -20 17q-3 1 -11 1q-5 0 -24 -3q-10 -2 -22 -2.5t-26 -1.5l-38 -1zM67 775q0 3 -1 5v4q0 7 2 13q1 4 4 7l3 1h1l2 1q9 0 9 -14v-5q0 -11 -4 -16q-4 -7 -9 -7t-7 11z
M121 775q0 3 -1 6v4q0 22 9 22q7 0 11 -2q0 -1 0.5 -4.5t0.5 -9.5v-4q0 -11 -4 -16q-4 -7 -9 -7t-7 11z" />
    <glyph glyph-name="aring" unicode="&#xe5;" horiz-adv-x="236" 
d="M112 605q-6 41 -9 41t-13 -87q-2 -14 -18 -171q-8 -78 -14.5 -132.5t-11.5 -83.5q-1 -3 -1 -13q0 -11 4 -14q4 -2 16 -2q24 0 68 9q47 11 47 14q0 2 -1 3q-2 2 -2.5 6t-2.5 9l-6 50q-6 38 -15 88q-7 38 -17 109zM42 109q-1 -5 -1.5 -10.5t-2.5 -11.5q0 -6 -0.5 -11
t-1.5 -10t-1.5 -10t-0.5 -10l-3 -16q-1 -3 -1 -6t-2 -6q0 -4 -4 -8q-2 -3 -4 -3q-11 0 -11 3l81 713q2 10 6 13q3 6 8 6q1 0 5 -2q3 -3 3 -6q1 -22 7.5 -69.5t18.5 -122.5l20 -132q0 -1 3 -16t8 -44l10.5 -61t10.5 -65l10 -61l8 -49l6 -37q2 -8 3 -15t1 -12q2 -6 2.5 -10.5
t1.5 -9.5l3 -14q1 -2 1 -8q1 -2 1 -3t1 -2v-3v-3q0 -2 -14 -2q-7 0 -15 50q-4 29 -7.5 47t-5.5 26q-6 15 -20 17q-3 1 -11 1q-5 0 -24 -3q-10 -2 -22 -2.5t-26 -1.5l-38 -1zM134 837q0 13 -2 17q-3 4 -12 6q-2 1 -11 1q-4 0 -14 -2q-20 -5 -20 -24v-9v-7.5t-1 -8.5v-11
q0 -10 6 -13q4 -3 24 -3q10 0 20 10l4 10.5t3 10.5l3 14v5v4zM141 787q-5 -14 -16 -19q-7 -4 -20 -4h-4q-33 0 -39 9q-7 8 -7 53v16v2q2 16 17 24q15 11 39 11h7q36 -3 36 -44v-2q0 -23 -8 -37z" />
    <glyph glyph-name="ae" unicode="&#xe6;" horiz-adv-x="389" 
d="M70 681q0 7 8 44q8 35 14 35t13 -19q4 -10 8 -22.5t7 -29.5q5 -17 7 -34l4 -34q1 -8 6.5 -42t16.5 -93q10 -60 16.5 -103t9.5 -70q-1 25 -1 64.5v95.5v47t-1 54v75q0 105 6 105h2q1 -1 3 -1q11 0 27.5 -1.5l39.5 -3.5q14 -2 29 -2.5t31 -1.5q15 -1 25 -1t15 -1
q11 -1 11 -5q0 -13 -19 -13q-2 0 -51 3q-50 3 -99 3q-2 0 -2 -41v-37.5t1 -46.5q2 -53 3 -89l1 -37l1 -61h37q11 1 18 1h11q44 0 44 -4q0 -7 -24 -11q-11 -2 -23 -3l-23 -2l-24 -1q-10 0 -13 -3q-6 -6 -6 -78q0 -100 9 -227l5 -64h66h6q78 0 78 -12q0 -2 -5 -7q-5 -3 -50 -6
t-81 -3q-30 0 -35 8q-6 9 -9 58q-1 12 -1 21.5t-1 17.5q-1 5 -1 11v14q-1 7 -1 12.5t-1 9.5v9.5t-1 10.5q-1 5 -1 9t-1 7q-1 4 -1 7t-2 5q0 5 -3 8q-2 3 -5 3q-9 0 -12 -1q-12 -2 -28.5 -3t-36.5 -1h-44l-5 -82q-2 -27 -3 -42t-2 -17q-2 -18 -6 -48q-1 -6 -6 -8t-7 1
q-4 3 -4 8q0 7 1 12t1 12t2 16q0 11 1 21l2 21l9 115l11.5 131l10.5 110q5 51 8 84.5t6 51.5l3.5 30.5t2.5 24.5t1.5 19.5t0.5 16.5zM100 693q-3 20 -7 20t-4 -16q0 -13 -2.5 -38.5t-8.5 -64.5q-5 -39 -9 -74t-6 -67l-10 -113l-7 -81q-3 -26 -3 -27v-5h43q20 0 36.5 1
t28.5 3q5 1 9 1q4 2 5 4q2 2 2 7t-2 16.5t-5 30.5q-5 20 -10.5 54l-13.5 82q-8 50 -15 106t-14 120q0 7 -7 41z" />
    <glyph glyph-name="ccedilla" unicode="&#xe7;" horiz-adv-x="218" 
d="M165 -108q0 -22 -7 -28q-7 -7 -39 -10h-6h-10t-10 2q-7 0 -15 4q-4 4 -8 6q-5 3 -6 10l-4 8q-2 2 -2 10q-2 4 -2 8q0 11 10 11q7 0 10 -3q5 -4 4 -8v-2q1 -1 1 -3q0 -3 -1 -5v-6q0 -14 35 -16h2q29 0 29 36v3v8v9q0 12 -4 18q-7 5 -20 5h-26q-7 -1 -12 4q-3 3 -5 16v6
q0 10 3 15q-17 3 -26 7q-12 3 -25 22q-14 18 -15 90v42q0 33 0.5 55t1.5 33q2 24 4 66.5t6 104.5l6.5 101.5t4.5 56.5q4 26 6.5 46t4.5 34l6 26.5t8 27.5q7 29 21 41q14 13 32 14h7q38 0 59 -35q21 -36 21 -69q0 -14 -5 -16h-1q-6 0 -12 25q-8 26 -22 48q-16 25 -41 25
q-8 0 -11 -1q-20 -4 -31 -38q-5 -18 -9 -41t-8 -52q-1 -6 -1 -10.5t-1 -6.5q-3 -26 -9 -146q-3 -60 -6 -101t-5 -64q-6 -48 -6 -135q0 -75 4 -86q8 -23 17 -27q13 -9 48 -9q14 0 29 36q7 19 12.5 37.5t10.5 38.5q9 38 11 40q4 36 17 36q3 0 5 -5q-2 -4 -3 -11q-1 -3 -2 -8
t-3 -12l-4 -22q-23 -151 -83 -158l1 -2v-3q0 -17 5 -17q40 0 53 -10q12 -11 12 -32v-14q-1 -5 -1 -9v-7v-4z" />
    <glyph glyph-name="egrave" unicode="&#xe8;" horiz-adv-x="210" 
d="M60 375q1 -8 1.5 -16.5t0.5 -16.5v-18.5t-1 -24.5t-1 -32.5t-2 -43.5q0 -25 -0.5 -48t-1.5 -46l-2 -105l48 -3q88 -4 88 -21q0 -6 -17 -6q-6 0 -51 3q-22 2 -43.5 2.5t-43.5 1.5q-1 0 -1 16v17q3 81 3 299q0 414 -14 419q-3 1 -3 4q0 2 1 3q1 3 13 3q5 0 16.5 -1t31.5 -3
q19 -2 34.5 -3t28.5 -2q34 -1 34 -13q0 -2 -3 -5q-4 -4 -21 -4q-8 0 -21 1t-32 3q-18 2 -29 3t-15 1q-6 0 -7 -1t-1 -31q0 -31 1 -74t3 -100q5 -114 6 -115l26 -2q13 -1 25.5 -1.5t24.5 -2.5q25 -4 25 -12q0 -9 -23 -9q-11 0 -24.5 1.5t-28.5 3.5l-25 4v-25zM49 864
q-1 2 -1 6t2 6t7 2q4 0 6 -2l3 -3l16 -25q35 -50 35 -59q0 -3 -2 -5t-5 -2q-6 0 -13 7z" />
    <glyph glyph-name="eacute" unicode="&#xe9;" horiz-adv-x="210" 
d="M60 375q1 -8 1.5 -16.5t0.5 -16.5v-18.5t-1 -24.5t-1 -32.5t-2 -43.5q0 -25 -0.5 -48t-1.5 -46l-2 -105l48 -3q88 -4 88 -21q0 -6 -17 -6q-6 0 -51 3q-22 2 -43.5 2.5t-43.5 1.5q-1 0 -1 16v17q3 81 3 299q0 414 -14 419q-3 1 -3 4q0 2 1 3q1 3 13 3q5 0 16.5 -1t31.5 -3
q19 -2 34.5 -3t28.5 -2q34 -1 34 -13q0 -2 -3 -5q-4 -4 -21 -4q-8 0 -21 1t-32 3q-18 2 -29 3t-15 1q-6 0 -7 -1t-1 -31q0 -31 1 -74t3 -100q5 -114 6 -115l26 -2q13 -1 25.5 -1.5t24.5 -2.5q25 -4 25 -12q0 -9 -23 -9q-11 0 -24.5 1.5t-28.5 3.5l-25 4v-25zM112 789
q-7 -7 -13 -7q-3 0 -5 2t-2 5q0 9 35 59l16 25l3 3q2 2 6 2q5 0 7 -2t2 -6t-1 -6z" />
    <glyph glyph-name="ecircumflex" unicode="&#xea;" horiz-adv-x="210" 
d="M60 375q1 -8 1.5 -16.5t0.5 -16.5v-18.5t-1 -24.5t-1 -32.5t-2 -43.5q0 -25 -0.5 -48t-1.5 -46l-2 -105l48 -3q88 -4 88 -21q0 -6 -17 -6q-6 0 -51 3q-22 2 -43.5 2.5t-43.5 1.5q-1 0 -1 16v17q3 81 3 299q0 414 -14 419q-3 1 -3 4q0 2 1 3q1 3 13 3q5 0 16.5 -1t31.5 -3
q19 -2 34.5 -3t28.5 -2q34 -1 34 -13q0 -2 -3 -5q-4 -4 -21 -4q-8 0 -21 1t-32 3q-18 2 -29 3t-15 1q-6 0 -7 -1t-1 -31q0 -31 1 -74t3 -100q5 -114 6 -115l26 -2q13 -1 25.5 -1.5t24.5 -2.5q25 -4 25 -12q0 -9 -23 -9q-11 0 -24.5 1.5t-28.5 3.5l-25 4v-25zM103 873l17 -25
q35 -50 35 -59q0 -3 -2 -5t-5 -2q-6 0 -13 7l-41 64l-41 -64q-7 -7 -13 -7q-3 0 -5 2q-1 1 -1 5q0 9 35 59l16 25l3 3q2 2 6 2t6 -2z" />
    <glyph glyph-name="edieresis" unicode="&#xeb;" horiz-adv-x="210" 
d="M60 375q1 -8 1.5 -16.5t0.5 -16.5v-18.5t-1 -24.5t-1 -32.5t-2 -43.5q0 -25 -0.5 -48t-1.5 -46l-2 -105l48 -3q88 -4 88 -21q0 -6 -17 -6q-6 0 -51 3q-22 2 -43.5 2.5t-43.5 1.5q-1 0 -1 16v17q3 81 3 299q0 414 -14 419q-3 1 -3 4q0 2 1 3q1 3 13 3q5 0 16.5 -1t31.5 -3
q19 -2 34.5 -3t28.5 -2q34 -1 34 -13q0 -2 -3 -5q-4 -4 -21 -4q-8 0 -21 1t-32 3q-18 2 -29 3t-15 1q-6 0 -7 -1t-1 -31q0 -31 1 -74t3 -100q5 -114 6 -115l26 -2q13 -1 25.5 -1.5t24.5 -2.5q25 -4 25 -12q0 -9 -23 -9q-11 0 -24.5 1.5t-28.5 3.5l-25 4v-25zM70 793
q0 3 -1 5v4q0 7 2 13q1 4 4 7l3 1h1l2 1q9 0 9 -14v-5q0 -11 -4 -16q-4 -7 -9 -7t-7 11zM124 793q0 3 -1 6v4q0 22 9 22q7 0 11 -2q0 -1 0.5 -4.5t0.5 -9.5v-4q0 -11 -4 -16q-4 -7 -9 -7t-7 11z" />
    <glyph glyph-name="igrave" unicode="&#xec;" horiz-adv-x="89" 
d="M45 99v-29t1 -20t1 -13.5v-9.5q0 -19 -8 -19h-1q-7 2 -10 32q-3 15 -4 31t-1 33q0 60 2 126.5t6 141.5q4 76 6 127.5t2 80.5q0 26 -0.5 48t-0.5 40q-2 17 -2 29.5t-1 20.5t-1 13v7q0 21 13 21h3q10 -2 11 -48v-16.5t1 -12.5v-33t1 -21q1 -6 1 -12.5v-11.5q0 -14 -2.5 -61
t-7.5 -125q-9 -159 -9 -319zM-2 861q-1 2 -1 6t2 6t7 2q4 0 6 -2l3 -3l16 -25q35 -50 35 -59q0 -3 -2 -5t-5 -2q-6 0 -13 7z" />
    <glyph glyph-name="iacute" unicode="&#xed;" horiz-adv-x="89" 
d="M45 99v-29t1 -20t1 -13.5v-9.5q0 -19 -8 -19h-1q-7 2 -10 32q-3 15 -4 31t-1 33q0 60 2 126.5t6 141.5q4 76 6 127.5t2 80.5q0 26 -0.5 48t-0.5 40q-2 17 -2 29.5t-1 20.5t-1 13v7q0 21 13 21h3q10 -2 11 -48v-16.5t1 -12.5v-33t1 -21q1 -6 1 -12.5v-11.5q0 -14 -2.5 -61
t-7.5 -125q-9 -159 -9 -319zM48 786q-7 -7 -13 -7q-3 0 -5 2t-2 5q0 9 35 59l16 25l3 3q2 2 6 2q5 0 7 -2t2 -6t-1 -6z" />
    <glyph glyph-name="icircumflex" unicode="&#xee;" horiz-adv-x="89" 
d="M45 99v-29t1 -20t1 -13.5v-9.5q0 -19 -8 -19h-1q-7 2 -10 32q-3 15 -4 31t-1 33q0 60 2 126.5t6 141.5q4 76 6 127.5t2 80.5q0 26 -0.5 48t-0.5 40q-2 17 -2 29.5t-1 20.5t-1 13v7q0 21 13 21h3q10 -2 11 -48v-16.5t1 -12.5v-33t1 -21q1 -6 1 -12.5v-11.5q0 -14 -2.5 -61
t-7.5 -125q-9 -159 -9 -319zM54 870l17 -25q35 -50 35 -59q0 -3 -2 -5t-5 -2q-6 0 -13 7l-41 64l-41 -64q-7 -7 -13 -7q-3 0 -5 2q-1 1 -1 5q0 9 35 59l16 25l3 3q2 2 6 2t6 -2z" />
    <glyph glyph-name="idieresis" unicode="&#xef;" horiz-adv-x="89" 
d="M45 99v-29t1 -20t1 -13.5v-9.5q0 -19 -8 -19h-1q-7 2 -10 32q-3 15 -4 31t-1 33q0 60 2 126.5t6 141.5q4 76 6 127.5t2 80.5q0 26 -0.5 48t-0.5 40q-2 17 -2 29.5t-1 20.5t-1 13v7q0 21 13 21h3q10 -2 11 -48v-16.5t1 -12.5v-33t1 -21q1 -6 1 -12.5v-11.5q0 -14 -2.5 -61
t-7.5 -125q-9 -159 -9 -319zM12 790q0 3 -1 5v4q0 7 2 13q1 4 4 7l3 1h1l2 1q9 0 9 -14v-5q0 -11 -4 -16q-4 -7 -9 -7t-7 11zM66 790q0 3 -1 6v4q0 22 9 22q7 0 11 -2q0 -1 0.5 -4.5t0.5 -9.5v-4q0 -11 -4 -16q-4 -7 -9 -7t-7 11z" />
    <glyph glyph-name="eth" unicode="&#xf0;" horiz-adv-x="270" 
d="M46 0q-1 -1 -3 -1q-4 0 -6 65l-6 331l-7 -1q-31 0 -31 6q0 13 27 13h2h9q-1 24 -1 57.5v78.5q0 211 8 219h2q2 1 5 1q15 0 36.5 -3t50.5 -8q57 -11 75 -27q19 -16 25 -53q2 -17 3.5 -41t1.5 -55v-51v-27q0 -8 0.5 -28.5t1.5 -55.5q1 -34 1.5 -62t0.5 -51q0 -215 -34 -253
q-14 -17 -68 -46zM59 23q2 -2 12 -2q23 0 67 18q45 19 52 30q31 31 31 271q0 23 -0.5 55.5t-0.5 74.5q-2 41 -2 68v41v30t1 19q0 5 1 8v8v16q-1 5 -1.5 8t-1.5 6q-1 4 -3 10t-4 10q-2 2 -3 4t-2 3t-5 7q-3 3 -4 4.5t-2 2.5q-10 14 -58 25q-23 5 -43 7.5t-36 2.5
q-11 0 -11 -183q0 -23 0.5 -61t1.5 -92l37 1l23 3q11 1 18.5 1.5t12.5 0.5q8 0 8 -2q0 -11 -6 -12q-7 -4 -29 -5q-8 -1 -15 -1t-12 -1l-37 -3q6 -368 11 -373z" />
    <glyph glyph-name="ntilde" unicode="&#xf1;" horiz-adv-x="281" 
d="M25 762q0 5 12 5q2 0 3 -1h2q4 -3 4 -7v-6q0 -29 26 -89q14 -32 26.5 -73t21.5 -93q11 -51 16.5 -78.5t7.5 -31.5l4 -10q0 -4 2 -10q0 -7 4 -22q2 -8 4 -17.5t5 -20.5l21 -80.5t13 -42.5q2 -7 4.5 -14t4.5 -14q6 -14 6 -19q3 -6 4 -6q5 0 5 311q0 316 3 318q2 2 4 2
q8 0 10 -44q3 -44 3 -160v-145v-53v-102v-48.5t1 -42.5v-72v-50v-20v-10q1 -4 1 -8q0 -22 -6 -22h-1q-6 2 -7 6q-2 7 -3 20q-1 6 -1 11t-1 9q-9 52 -48 150q-58 207 -60 224q-1 8 -6 34l-14 71l-16 73.5t-9 40.5l-4.5 14t-6.5 18q-9 20 -11 20q-1 0 -3 -31q-3 -33 -3 -51
q0 -3 1 -5v-3q1 -7 1.5 -41.5t2.5 -97.5q2 -125 6 -168q2 -23 3 -65t1 -105q0 -104 -4 -108l-7 -2q-6 0 -7 1q-1 0 -2 32v40t-2 56q0 32 -1 63l-2 60q-4 165 -6 288.5t-2 208.5v13zM194 844q1 3 5 3q3 0 6 -4q4 -3 4 -8q0 -4 -1 -5q-21 -43 -49 -43q-14 0 -29 16
q-21 22 -27 22q-2 0 -16 -11l-8.5 -7t-7.5 -6q-1 -1 -6 -1t-5 6q0 8 6 19q28 18 36 18q11 0 49 -32q4 -4 9 -4q8 0 17 9q8 10 12 19z" />
    <glyph glyph-name="ograve" unicode="&#xf2;" 
d="M152 660q-17 60 -42 60q-20 0 -30 -24q-4 -8 -10 -64t-16 -162q-10 -104 -14.5 -171.5t-4.5 -99.5q0 -68 15 -117q17 -49 38 -63q13 -9 31 -9q14 0 25 6q33 17 35 163v6q0 78 -9 261q-9 184 -18 214zM80 731q10 13 24 13q23 0 44 -26q26 -31 40 -200q7 -86 10 -160.5
t3 -140.5v-5.5t-1 -8.5v-11q-3 -113 -9 -132q-1 -5 -8 -21q-11 -23 -19 -31q-10 -10 -29 -13q-3 -1 -12 -1q-44 0 -75 48q-29 46 -31 113v12q0 63 4.5 144t14.5 183q18 202 44 237zM41 846q-1 2 -1 6t2 6t7 2q4 0 6 -2l3 -3l16 -25q35 -50 35 -59q0 -3 -2 -5t-5 -2
q-6 0 -13 7z" />
    <glyph glyph-name="oacute" unicode="&#xf3;" 
d="M152 660q-17 60 -42 60q-20 0 -30 -24q-4 -8 -10 -64t-16 -162q-10 -104 -14.5 -171.5t-4.5 -99.5q0 -68 15 -117q17 -49 38 -63q13 -9 31 -9q14 0 25 6q33 17 35 163v6q0 78 -9 261q-9 184 -18 214zM80 731q10 13 24 13q23 0 44 -26q26 -31 40 -200q7 -86 10 -160.5
t3 -140.5v-5.5t-1 -8.5v-11q-3 -113 -9 -132q-1 -5 -8 -21q-11 -23 -19 -31q-10 -10 -29 -13q-3 -1 -12 -1q-44 0 -75 48q-29 46 -31 113v12q0 63 4.5 144t14.5 183q18 202 44 237zM120 771q-7 -7 -13 -7q-3 0 -5 2t-2 5q0 9 35 59l16 25l3 3q2 2 6 2q5 0 7 -2t2 -6t-1 -6z
" />
    <glyph glyph-name="ocircumflex" unicode="&#xf4;" 
d="M152 660q-17 60 -42 60q-20 0 -30 -24q-4 -8 -10 -64t-16 -162q-10 -104 -14.5 -171.5t-4.5 -99.5q0 -68 15 -117q17 -49 38 -63q13 -9 31 -9q14 0 25 6q33 17 35 163v6q0 78 -9 261q-9 184 -18 214zM80 731q10 13 24 13q23 0 44 -26q26 -31 40 -200q7 -86 10 -160.5
t3 -140.5v-5.5t-1 -8.5v-11q-3 -113 -9 -132q-1 -5 -8 -21q-11 -23 -19 -31q-10 -10 -29 -13q-3 -1 -12 -1q-44 0 -75 48q-29 46 -31 113v12q0 63 4.5 144t14.5 183q18 202 44 237zM113 855l17 -25q35 -50 35 -59q0 -3 -2 -5t-5 -2q-6 0 -13 7l-41 64l-41 -64q-7 -7 -13 -7
q-3 0 -5 2q-1 1 -1 5q0 9 35 59l16 25l3 3q2 2 6 2t6 -2z" />
    <glyph glyph-name="otilde" unicode="&#xf5;" 
d="M152 660q-17 60 -42 60q-20 0 -30 -24q-4 -8 -10 -64t-16 -162q-10 -104 -14.5 -171.5t-4.5 -99.5q0 -68 15 -117q17 -49 38 -63q13 -9 31 -9q14 0 25 6q33 17 35 163v6q0 78 -9 261q-9 184 -18 214zM80 731q10 13 24 13q23 0 44 -26q26 -31 40 -200q7 -86 10 -160.5
t3 -140.5v-5.5t-1 -8.5v-11q-3 -113 -9 -132q-1 -5 -8 -21q-11 -23 -19 -31q-10 -10 -29 -13q-3 -1 -12 -1q-44 0 -75 48q-29 46 -31 113v12q0 63 4.5 144t14.5 183q18 202 44 237zM164 821q1 3 5 3q3 0 6 -4q4 -3 4 -8q0 -4 -1 -5q-21 -43 -49 -43q-14 0 -29 16
q-21 22 -27 22q-2 0 -16 -11l-8.5 -7t-7.5 -6q-1 -1 -6 -1t-5 6q0 8 6 19q28 18 36 18q11 0 49 -32q4 -4 9 -4q8 0 17 9q8 10 12 19z" />
    <glyph glyph-name="odieresis" unicode="&#xf6;" 
d="M152 660q-17 60 -42 60q-20 0 -30 -24q-4 -8 -10 -64t-16 -162q-10 -104 -14.5 -171.5t-4.5 -99.5q0 -68 15 -117q17 -49 38 -63q13 -9 31 -9q14 0 25 6q33 17 35 163v6q0 78 -9 261q-9 184 -18 214zM80 731q10 13 24 13q23 0 44 -26q26 -31 40 -200q7 -86 10 -160.5
t3 -140.5v-5.5t-1 -8.5v-11q-3 -113 -9 -132q-1 -5 -8 -21q-11 -23 -19 -31q-10 -10 -29 -13q-3 -1 -12 -1q-44 0 -75 48q-29 46 -31 113v12q0 63 4.5 144t14.5 183q18 202 44 237zM68 775q0 3 -1 5v4q0 7 2 13q1 4 4 7l3 1h1l2 1q9 0 9 -14v-5q0 -11 -4 -16q-4 -7 -9 -7
t-7 11zM122 775q0 3 -1 6v4q0 22 9 22q7 0 11 -2q0 -1 0.5 -4.5t0.5 -9.5v-4q0 -11 -4 -16q-4 -7 -9 -7t-7 11z" />
    <glyph glyph-name="divide" unicode="&#xf7;" horiz-adv-x="146" 
d="M72 320l22 2q8 2 12 2h6q22 0 22 -8q0 -11 -6 -12q-7 -4 -29 -5q-8 -1 -15 -1t-12 -1l-61 -5q-31 0 -31 13t29 13zM50 387q-1 8 -1.5 12.5t-0.5 6.5q0 8 1 12q1 2 1 3.5t1 2.5t1 3q0 12 9 12q14 0 17 -6q5 -5 5 -23v-6q0 -14 -7 -24q-6 -9 -14 -9q-11 0 -12 16zM44 207
q-1 8 -1.5 12.5t-0.5 6.5q0 8 1 12q1 2 1 3.5t1 2.5t1 3q0 12 9 12q13 0 16 -5q3 -6 3 -24v-6q0 -14 -6 -24q-6 -9 -13 -9q-10 0 -11 16z" />
    <glyph glyph-name="oslash" unicode="&#xf8;" horiz-adv-x="265" 
d="M70 120q13 -83 39 -99q9 -6 25 -6q20 0 43 9q21 7 23 14q2 20 3.5 86.5t3.5 180.5q1 26 1 57.5v67.5q0 97 -7 126l-4 16zM121 733q9 13 14 13q3 0 17 -8q22 -15 45 -86l31 102l1 2q0 1 1 1l2 -1q6 -2 6 -17q0 -5 -0.5 -10t-1.5 -11q-1 -7 -2 -13t-3 -12t-3 -11.5
t-3 -11.5l-5 -17l-2 -7l-9 -34q2 -7 5 -24q3 -9 4.5 -16.5t3.5 -12.5q9 -36 9 -259q0 -66 -1 -110.5t-3 -69.5q-5 -63 -13 -80q-6 -16 -33 -32q-32 -17 -56 -17q-37 0 -49 30q-10 23 -17 61l-5 -21q-1 -3 -1.5 -7.5t-2.5 -9.5q-2 -6 -3 -11t-1 -9q-2 -4 -2.5 -8t-2.5 -8
q-3 -8 -6 -13q-3 -4 -6 -4q-2 0 -3 1q-2 0 -4 5q-1 1 -1 8q0 5 0.5 9t1.5 8l28 104q-2 11 -3.5 22.5t-3.5 23.5q-5 26 -6 40l-1.5 12t-0.5 5q-2 19 -3.5 39t-1.5 43q0 122 20 216q29 138 54 178zM152 707q-12 16 -17 16q-6 0 -10 -6q-20 -26 -41 -113q-11 -45 -17.5 -84
t-8.5 -74l-4 -61q-1 -29 -3 -43q-1 -7 -1 -12v-10v-9.5t1 -10.5q1 -5 1 -10.5t2 -11.5q0 -6 1 -16t3 -24q2 -15 3 -30.5t3 -32.5l97 359l25 82q-22 76 -34 91z" />
    <glyph glyph-name="ugrave" unicode="&#xf9;" horiz-adv-x="236" 
d="M33 732q1 3 4 3q8 0 17 -54q6 -39 6 -164q0 -78 -2.5 -138t-7.5 -103q-2 -20 -3.5 -53.5t-1.5 -81.5q0 -75 4 -86q8 -23 17 -29q10 -6 47 -7q6 0 11 -1h10q27 0 35 6q9 7 9 156v56q-1 20 -1 37v31v45t1 63q1 37 1 60v34q0 226 10 229q1 0 1 1h1q5 0 11 -8q2 -5 3 -9.5
t1 -9.5q0 -7 -1 -9q-4 -9 -10 -591v-97l-21 -9q-20 -9 -71 -9q-22 0 -38 4q-12 3 -25 22q-14 18 -15 90v42q0 33 0.5 55t1.5 33q5 74 8 152t3 162q0 77 -3 110q-3 34 -3 57q0 10 1 11zM56 846q-1 2 -1 6t2 6t7 2q4 0 6 -2l3 -3l16 -25q35 -50 35 -59q0 -3 -2 -5t-5 -2
q-6 0 -13 7z" />
    <glyph glyph-name="uacute" unicode="&#xfa;" horiz-adv-x="236" 
d="M33 732q1 3 4 3q8 0 17 -54q6 -39 6 -164q0 -78 -2.5 -138t-7.5 -103q-2 -20 -3.5 -53.5t-1.5 -81.5q0 -75 4 -86q8 -23 17 -29q10 -6 47 -7q6 0 11 -1h10q27 0 35 6q9 7 9 156v56q-1 20 -1 37v31v45t1 63q1 37 1 60v34q0 226 10 229q1 0 1 1h1q5 0 11 -8q2 -5 3 -9.5
t1 -9.5q0 -7 -1 -9q-4 -9 -10 -591v-97l-21 -9q-20 -9 -71 -9q-22 0 -38 4q-12 3 -25 22q-14 18 -15 90v42q0 33 0.5 55t1.5 33q5 74 8 152t3 162q0 77 -3 110q-3 34 -3 57q0 10 1 11zM102 771q-7 -7 -13 -7q-3 0 -5 2t-2 5q0 9 35 59l16 25l3 3q2 2 6 2q5 0 7 -2t2 -6
t-1 -6z" />
    <glyph glyph-name="ucircumflex" unicode="&#xfb;" horiz-adv-x="236" 
d="M33 732q1 3 4 3q8 0 17 -54q6 -39 6 -164q0 -78 -2.5 -138t-7.5 -103q-2 -20 -3.5 -53.5t-1.5 -81.5q0 -75 4 -86q8 -23 17 -29q10 -6 47 -7q6 0 11 -1h10q27 0 35 6q9 7 9 156v56q-1 20 -1 37v31v45t1 63q1 37 1 60v34q0 226 10 229q1 0 1 1h1q5 0 11 -8q2 -5 3 -9.5
t1 -9.5q0 -7 -1 -9q-4 -9 -10 -591v-97l-21 -9q-20 -9 -71 -9q-22 0 -38 4q-12 3 -25 22q-14 18 -15 90v42q0 33 0.5 55t1.5 33q5 74 8 152t3 162q0 77 -3 110q-3 34 -3 57q0 10 1 11zM128 855l17 -25q35 -50 35 -59q0 -3 -2 -5t-5 -2q-6 0 -13 7l-41 64l-41 -64
q-7 -7 -13 -7q-3 0 -5 2q-1 1 -1 5q0 9 35 59l16 25l3 3q2 2 6 2t6 -2z" />
    <glyph glyph-name="udieresis" unicode="&#xfc;" horiz-adv-x="236" 
d="M33 732q1 3 4 3q8 0 17 -54q6 -39 6 -164q0 -78 -2.5 -138t-7.5 -103q-2 -20 -3.5 -53.5t-1.5 -81.5q0 -75 4 -86q8 -23 17 -29q10 -6 47 -7q6 0 11 -1h10q27 0 35 6q9 7 9 156v56q-1 20 -1 37v31v45t1 63q1 37 1 60v34q0 226 10 229q1 0 1 1h1q5 0 11 -8q2 -5 3 -9.5
t1 -9.5q0 -7 -1 -9q-4 -9 -10 -591v-97l-21 -9q-20 -9 -71 -9q-22 0 -38 4q-12 3 -25 22q-14 18 -15 90v42q0 33 0.5 55t1.5 33q5 74 8 152t3 162q0 77 -3 110q-3 34 -3 57q0 10 1 11zM84 775q0 3 -1 5v4q0 7 2 13q1 4 4 7l3 1h1l2 1q9 0 9 -14v-5q0 -11 -4 -16q-4 -7 -9 -7
t-7 11zM138 775q0 3 -1 6v4q0 22 9 22q7 0 11 -2q0 -1 0.5 -4.5t0.5 -9.5v-4q0 -11 -4 -16q-4 -7 -9 -7t-7 11z" />
    <glyph glyph-name="yacute" unicode="&#xfd;" horiz-adv-x="248" 
d="M180 390q-17 -9 -60 -9q-49 0 -68 10q-20 11 -23 22q-4 11 -4 256v51.5t1 24.5q0 8 6 8q13 0 13 -156v-57v-28v-41q0 -53 9 -60q13 -12 67 -12q52 0 64 9q4 3 4 30q0 8 -0.5 23t-1.5 38t-1.5 40t-0.5 28v21.5t1 13.5q-1 19 -1 40.5v45.5v6q-1 10 -1 21.5v24.5q0 32 9 34
q12 0 12 -81v-15.5t-1 -13.5v-16v-22q1 -6 1 -10v-5v-3q4 -197 5.5 -305t1.5 -130q0 -115 -5 -123q-8 -22 -39 -36q-29 -16 -65 -16t-55 19q-21 33 -21 72q0 6 0.5 11.5t1.5 11.5q1 9 5 16q3 5 5 5q3 0 3 -9q0 -2 1 -4q1 -3 1 -30q0 -75 63 -75q22 0 43 9q22 9 31 21
q13 10 13 135q0 98 -3 215zM104 801q-7 -7 -13 -7q-3 0 -5 2t-2 5q0 9 35 59l16 25l3 3q2 2 6 2q5 0 7 -2t2 -6t-1 -6z" />
    <glyph glyph-name="thorn" unicode="&#xfe;" 
d="M63 633q-1 -10 -1.5 -25t-2.5 -36q-2 -22 -2.5 -38.5t-1.5 -27.5q0 -60 -3 -171t-3 -132q0 -24 1 -25t4 -1q1 0 7 2q2 2 5.5 5t7.5 8q8 8 29 35q11 14 20 27.5t17 27.5q15 28 29 72q13 40 13 83q0 135 -10 149q-22 32 -92 46q-5 1 -8 1.5t-5 0.5h-2q-1 -1 -2 -1zM59 651
q89 -14 118 -44q27 -32 27 -173v-8q1 -4 1 -10q0 -58 -33 -118q-32 -62 -60 -91q-26 -29 -44 -44q-2 -2 -7 -6.5t-13 -9.5q-3 -164 -5 -168q0 -1 -2 -3q-1 -1 -2 -1q-11 0 -11 35v6q-1 2 -1 7q0 28 -0.5 56t-1.5 57t-1.5 51t-0.5 37q0 83 9 251q1 34 1 66t1 63v86q1 11 1 19
v13q0 12 -1 14v16q0 21 13 21h3q10 -3 10 -97z" />
    <glyph glyph-name="ydieresis" unicode="&#xff;" horiz-adv-x="248" 
d="M180 390q-17 -9 -60 -9q-49 0 -68 10q-20 11 -23 22q-4 11 -4 256v51.5t1 24.5q0 8 6 8q13 0 13 -156v-57v-28v-41q0 -53 9 -60q13 -12 67 -12q52 0 64 9q4 3 4 30q0 8 -0.5 23t-1.5 38t-1.5 40t-0.5 28v21.5t1 13.5q-1 19 -1 40.5v45.5v6q-1 10 -1 21.5v24.5q0 32 9 34
q12 0 12 -81v-15.5t-1 -13.5v-16v-22q1 -6 1 -10v-5v-3q4 -197 5.5 -305t1.5 -130q0 -115 -5 -123q-8 -22 -39 -36q-29 -16 -65 -16t-55 19q-21 33 -21 72q0 6 0.5 11.5t1.5 11.5q1 9 5 16q3 5 5 5q3 0 3 -9q0 -2 1 -4q1 -3 1 -30q0 -75 63 -75q22 0 43 9q22 9 31 21
q13 10 13 135q0 98 -3 215zM82 805q0 3 -1 5v4q0 7 2 13q1 4 4 7l3 1h1l2 1q9 0 9 -14v-5q0 -11 -4 -16q-4 -7 -9 -7t-7 11zM136 805q0 3 -1 6v4q0 22 9 22q7 0 11 -2q0 -1 0.5 -4.5t0.5 -9.5v-4q0 -11 -4 -16q-4 -7 -9 -7t-7 11z" />
    <glyph glyph-name="dotlessi" unicode="&#x131;" horiz-adv-x="89" 
d="M45 99v-29t1 -20t1 -13.5v-9.5q0 -19 -8 -19h-1q-7 2 -10 32q-3 15 -4 31t-1 33q0 60 2 126.5t6 141.5q4 76 6 127.5t2 80.5q0 26 -0.5 48t-0.5 40q-2 17 -2 29.5t-1 20.5t-1 13v7q0 21 13 21h3q10 -2 11 -48v-16.5t1 -12.5v-33t1 -21q1 -6 1 -12.5v-11.5q0 -14 -2.5 -61
t-7.5 -125q-9 -159 -9 -319z" />
    <glyph glyph-name="OE" unicode="&#x152;" horiz-adv-x="394" 
d="M97 733q9 13 14 13q3 0 17 -8q26 -19 55 -120v27v42t1 31v21t2 15q0 7 1 10.5t1 4.5q4 2 6 2q6 0 24 -8t42 -11q111 -12 111 -27q0 -2 -2 -4h-6q-11 0 -30 2l-47 5l-45 8t-23 5q-2 1 -4 1.5t-4 1.5q-4 2 -4 3q-2 1 -3 1q-2 0 -2 -41q0 -17 0.5 -39t0.5 -50q2 -29 2 -53.5
t1 -46.5l1 -43l1 -61l42 -3q67 -4 67 -18q0 -3 -2 -5t-10 -2q-5 0 -14.5 1t-25.5 3q-15 2 -25.5 3t-15.5 1q-10 0 -13 -3q-2 -2 -3 -13v-78v-19.5t-1 -28.5v-45q1 -18 2.5 -48t4.5 -73l5 -64h66h6q78 0 78 -12q0 -2 -5 -7q-5 -3 -49 -6q-47 -3 -82 -3q-29 0 -32 3l-4 62
q-4 -20 -12 -31q-7 -9 -27 -20q-32 -17 -56 -17q-37 0 -49 30q-13 28 -25 104q-12 73 -15 104q-2 19 -3.5 39t-1.5 43q0 122 20 216q29 138 54 178zM128 707q-12 16 -17 16q-6 0 -10 -6q-20 -26 -41 -113q-11 -45 -17.5 -84t-8.5 -74l-4 -61q-1 -29 -3 -43q-1 -7 -1 -12v-10
v-12t2 -13l5 -50q5 -39 9 -88q10 -114 43 -136q9 -6 25 -6q20 0 43 9q21 7 23 14q2 20 3.5 86.5t3.5 180.5q1 26 1 57.5v67.5q0 97 -7 126q-29 122 -49 151z" />
    <glyph glyph-name="oe" unicode="&#x153;" horiz-adv-x="339" 
d="M148 759q1 3 13 3q5 0 16.5 -1t30.5 -3q20 -2 35.5 -3t28.5 -2q34 -1 34 -13q0 -2 -3 -5q-4 -4 -21 -4q-8 0 -21 1t-31 3q-19 2 -30 3t-15 1q-6 0 -7 -1t-1 -31q0 -28 1 -73.5t3 -109.5q3 -34 5 -60.5t3 -45.5h8t21 -2q15 0 27 -1.5t23 -3.5q20 -5 20 -11q0 -9 -23 -9
q-11 0 -24.5 1.5t-28.5 3.5l-22 4q1 -11 1 -27v-37v-30t-1 -37t-1 -33.5v-18.5v-5.5t-1 -8.5v-11q-1 -28 -2 -50.5t-2 -39.5q-3 -35 -3 -52v-26l48 -3q88 -4 88 -21q0 -6 -17 -6q-7 0 -50 3q-23 2 -44.5 2.5t-43.5 1.5q-1 0 -1 10q-11 -13 -32 -16q-3 -1 -12 -1
q-44 0 -75 48q-29 46 -31 113v12q0 63 4.5 144t14.5 183q18 202 44 237q10 13 24 13q23 0 44 -26q10 -12 17 -41q-3 73 -9 75q-3 1 -3 4q0 2 1 3zM146 660q-17 60 -42 60q-20 0 -30 -24q-4 -8 -10 -64t-16 -162q-10 -104 -14.5 -171.5t-4.5 -99.5q0 -68 15 -117
q17 -49 38 -63q13 -9 31 -9q14 0 25 6q14 8 23 35q3 138 3 282v119q-9 176 -18 208z" />
    <glyph glyph-name="Scaron" unicode="&#x160;" horiz-adv-x="261" 
d="M185 737q0 -12 -12 -12q-7 0 -14 5q-32 23 -80 23h-2q-34 -1 -34 -118v-32q4 -17 9 -29.5t10 -21.5q5 -10 19 -28t36 -44q17 -20 29.5 -38t22.5 -34q19 -32 25 -50q2 -8 5 -19t5 -25q3 -14 6 -24t5 -18q14 -48 14 -106q0 -36 -6 -67q-4 -19 -24 -46q-19 -26 -47 -45
q-26 -17 -52 -20q-26 -2 -44 34q-18 34 -18 109q0 26 4 45q3 24 7 33q5 11 6 11q3 0 10 -5t5 -11l-4 -17q-19 -93 3 -148q26 -60 91 -2q45 34 45 126q0 67 -18 135q-1 3 -2 8.5t-3 13.5t-3 13t-1 7q-3 4 -6 18l-5.5 11l-4.5 9q-5 10 -14 22q-5 8 -10 15t-12 15
q-85 107 -86 117q-1 2 -3 5t-4 7q-11 14 -11 81q0 96 17 116q15 18 49 18q32 0 64 -12q33 -14 33 -25zM112 796q-2 -2 -6 -2t-6 2l-3 3l-16 25q-35 50 -35 59q0 4 1 5q2 2 5 2q6 0 13 -7l41 -64l41 64q7 7 13 7q3 0 5 -2t2 -5q0 -9 -35 -59l-17 -25z" />
    <glyph glyph-name="scaron" unicode="&#x161;" horiz-adv-x="260" 
d="M111 768q54 0 87 -41q10 -10 10 -19q0 -4 -4 -4t-8 4q-54 39 -84 39q-20 0 -40 -17q-25 -21 -25 -71q0 -78 18 -115q18 -39 70 -97q72 -78 92 -196q6 -35 6 -83q0 -112 -20 -141q-14 -21 -41 -31q-26 -12 -54 -12q-57 0 -69 34q-9 26 -9 140q0 39 3 41q2 2 5 0t6 -7
q2 -4 2 -11v-15q0 -115 8 -133q11 -26 57 -26q26 0 51 11q22 10 27 29q1 3 1.5 7.5t2.5 9.5t2.5 9.5t1.5 6.5q1 3 1 9t1 15t1 21t1 27v21q0 48 -11 97q-12 48 -28 80l-16 29l-16 27q-18 26 -28 36l-11 11q-20 17 -37 45q-15 26 -23 52q-8 25 -12 48q-2 11 -3.5 21t-1.5 19
q-2 8 -2 12.5v5.5q0 51 28 80q26 32 61 32zM116 813q-2 -2 -6 -2t-6 2l-3 3l-16 25q-35 50 -35 59q0 4 1 5q2 2 5 2q6 0 13 -7l41 -64l41 64q7 7 13 7q3 0 5 -2t2 -5q0 -9 -35 -59l-17 -25z" />
    <glyph glyph-name="Ydieresis" unicode="&#x178;" horiz-adv-x="189" 
d="M87 -18q-11 0 -11 48q0 30 9 203q1 5 1 12.5v17.5v17v12q-1 4 -1 6q-1 17 -3.5 36.5t-7.5 43.5q-8 47 -18 89q-5 22 -7.5 34.5t-3.5 16.5l-21.5 169t-7.5 59q0 11 6 11t12 -13l23 -159l16 -114l2 -14t3 -15t4 -14l4 -12q3 -10 5 -10q12 0 32 168q4 32 10 71t15 85l3 13
q4 43 12 43q4 0 6 -42l-17.5 -112.5t-8.5 -60.5q-2 -23 -7.5 -55.5t-13.5 -75.5q-9 -42 -13 -73.5t-4 -53.5v-27.5t-1 -15.5q1 -7 1.5 -15t0.5 -19q0 -4 -0.5 -19.5l-1.5 -44.5q-3 -54 -3 -104v-18v-5q0 -63 -14 -63zM46 817q0 3 -1 5v4q0 7 2 13q1 4 4 7l3 1h1l2 1
q9 0 9 -14v-5q0 -11 -4 -16q-4 -7 -9 -7t-7 11zM100 817q0 3 -1 6v4q0 22 9 22q7 0 11 -2q0 -1 0.5 -4.5t0.5 -9.5v-4q0 -11 -4 -16q-4 -7 -9 -7t-7 11z" />
    <glyph glyph-name="Zcaron" unicode="&#x17d;" horiz-adv-x="210" 
d="M109 413q0 10 32 149t32 142q0 8 -73 9t-73 15q0 5 1 6q3 4 13 4h6.5t10.5 -1l34 -3l45 -4q41 -3 49 -6q7 -1 7 -12q0 -1 -3.5 -21.5l-10.5 -62.5l-15.5 -91t-15.5 -77l-13.5 -61.5t-10.5 -42.5q-5 -15 -8.5 -27.5t-7.5 -22.5l-10 -27q-3 -8 -3 -16t-23 -114l-17 -79.5
t-6 -32.5q0 -6 56 -6q57 0 57 -9q0 -8 -55 -12q-6 -1 -15 -1h-20q-26 0 -30 2q-17 8 -17 14q0 13 4 32l5 27t8 38q5 23 9 44.5l8 42.5q2 12 6 30t11 42l23 87q10 36 10 45zM119 768q-2 -2 -6 -2t-6 2l-3 3l-16 25q-35 50 -35 59q0 4 1 5q2 2 5 2q6 0 13 -7l41 -64l41 64
q7 7 13 7q3 0 5 -2t2 -5q0 -9 -35 -59l-17 -25z" />
    <glyph glyph-name="zcaron" unicode="&#x17e;" horiz-adv-x="234" 
d="M34 745q1 3 10 3q2 0 18.5 -1.5t46.5 -3.5q17 -1 34 -3.5t35 -5.5q36 -9 41 -13q2 -2 2 -5q0 -4 -3 -7q-4 -5 -11 -30.5t-17 -72.5q-4 -24 -33 -104l-21.5 -61.5t-9.5 -29.5q-1 -3 -2.5 -8.5l-3.5 -13.5t-5 -17t-5 -20q-5 -24 -9 -52q-3 -20 -12 -55.5l-23 -89.5
q-29 -108 -29 -120v-19l75 2h26q61 0 61 -12q0 1 -2 -5q-3 -5 -91 -6l-93 -2l3 36q3 32 15 71q12 42 13 44l7 34q0 1 8 28q4 13 7.5 27t5.5 29q2 14 4.5 25.5t5.5 22.5q2 11 3 18.5t2 11.5q2 14 13.5 51l31.5 99q21 60 32.5 98.5t14.5 55.5q1 9 5 18q2 5 3 8t3 6q2 4 2 5
l4 1q-2 0 -2 2q-2 0 -2 4q0 3 1 5q3 4 3 8q0 9 -21 14q-11 2 -32.5 5t-53.5 6q-56 5 -56 16q0 2 1 3zM134 770q-2 -2 -6 -2t-6 2l-3 3l-16 25q-35 50 -35 59q0 4 1 5q2 2 5 2q6 0 13 -7l41 -64l41 64q7 7 13 7q3 0 5 -2t2 -5q0 -9 -35 -59l-17 -25z" />
    <glyph glyph-name="florin" unicode="&#x192;" horiz-adv-x="303" 
d="M-7 -96q3 -26 43 -26q13 0 25.5 2.5t24.5 7.5q25 12 26 30q18 156 18 262q0 23 -3.5 77t-10.5 142l-40 -3q-31 0 -31 6q0 13 27 13h2l41 1q-5 73 -7.5 118t-2.5 62q0 36 7 56q6 22 15 32q5 5 13.5 14.5t22.5 23.5q17 17 45 17q45 0 65 -41q5 -13 5 -17q0 -6 -5 -6
q-2 0 -6 4q-38 39 -63 39q-15 0 -38 -17q-44 -35 -44 -88v-16q1 -5 1 -9.5v-7.5v-16q0 -44 12 -147h2l23 3q11 1 18.5 1.5t12.5 0.5q8 0 8 -2q0 -11 -6 -12q-7 -4 -29 -5q-8 -1 -15 -1t-12 -1q7 -69 10.5 -127t3.5 -108q0 -149 -27 -267q-5 -24 -35 -33q-28 -11 -61 -11
q-48 0 -51 34q-3 10 -3 15q0 7 5 7q4 0 14 -7z" />
    <glyph glyph-name="circumflex" unicode="&#x2c6;" horiz-adv-x="166" 
d="M79 797l17 -25q35 -50 35 -59q0 -3 -2 -5t-5 -2q-6 0 -13 7l-41 64l-41 -64q-7 -7 -13 -7q-3 0 -5 2q-1 1 -1 5q0 9 35 59l16 25l3 3q2 2 6 2t6 -2z" />
    <glyph glyph-name="caron" unicode="&#x2c7;" horiz-adv-x="166" 
d="M76 708q-2 -2 -6 -2t-6 2l-3 3l-16 25q-35 50 -35 59q0 4 1 5q2 2 5 2q6 0 13 -7l41 -64l41 64q7 7 13 7q3 0 5 -2t2 -5q0 -9 -35 -59l-17 -25z" />
    <glyph glyph-name="ring" unicode="&#x2da;" horiz-adv-x="143" 
d="M102 755q0 13 -2 17q-3 4 -12 6q-2 1 -11 1q-4 0 -14 -2q-20 -5 -20 -24v-9v-7.5t-1 -8.5v-11q0 -10 6 -13q4 -3 24 -3q10 0 20 10l4 10.5t3 10.5l3 14v5v4zM109 705q-5 -14 -16 -19q-7 -4 -20 -4h-4q-33 0 -39 9q-7 8 -7 53v16v2q2 16 17 24q15 11 39 11h7q36 -3 36 -44
v-2q0 -23 -8 -37z" />
    <glyph glyph-name="tilde" unicode="&#x2dc;" horiz-adv-x="194" 
d="M157 785q1 3 5 3q3 0 6 -4q4 -3 4 -8q0 -4 -1 -5q-21 -43 -49 -43q-14 0 -29 16q-21 22 -27 22q-2 0 -16 -11l-8.5 -7t-7.5 -6q-1 -1 -6 -1t-5 6q0 8 6 19q28 18 36 18q11 0 49 -32q4 -4 9 -4q8 0 17 9q8 10 12 19z" />
    <glyph glyph-name="endash" unicode="&#x2013;" horiz-adv-x="362" 
d="M288 320l22 2q8 2 12 2h6q22 0 22 -8q0 -11 -6 -12q-7 -4 -29 -5q-8 -1 -15 -1t-12 -1l-277 -5q-31 0 -31 13t29 13z" />
    <glyph glyph-name="emdash" unicode="&#x2014;" horiz-adv-x="587" 
d="M513 320l23 2q6 2 10.5 2h6.5q22 0 22 -8q0 -11 -6 -12q-7 -4 -29 -5q-8 -1 -15 -1t-12 -1l-502 -5q-31 0 -31 13t29 13z" />
    <glyph glyph-name="quoteleft" unicode="&#x2018;" horiz-adv-x="75" 
d="M9 751q2 8 6 11h1q7 1 10 -5l2 -3l7 -29q1 -3 2.5 -9t4.5 -14q2 -9 4 -15.5t3 -11.5q7 -24 7 -33q0 -8 -4 -9l-1 -1q-6 -3 -14 11q-1 3 -3 7l-1 6q-1 3 -1 5t-1 4q-1 7 -3 15.5t-4 18.5q-1 8 -15 52z" />
    <glyph glyph-name="quoteright" unicode="&#x2019;" horiz-adv-x="73" 
d="M65 751q-14 -44 -15 -52q-2 -7 -4 -15.5t-3 -18.5l-3 -15q0 -2 -2 -4q0 -1 -0.5 -1.5t-0.5 -1.5q-8 -14 -15 -11v1q-4 1 -4 9q0 4 6 33q1 2 2.5 7.5t4.5 15.5l5 16.5t3 10.5l7 29l2 3q3 6 9 5h2q4 -3 6 -11z" />
    <glyph glyph-name="quotesinglbase" unicode="&#x201a;" horiz-adv-x="63" 
d="M43 115q-7 -24 -10.5 -37t-4.5 -15q-2 -7 -4 -15.5t-3 -18.5l-3 -15q0 -2 -2 -4q0 -1 -0.5 -1.5t-0.5 -1.5q-8 -14 -15 -11v1q-3 1 -3 9t5 33q1 2 2.5 7.5t4.5 15.5l5 16.5t3 10.5l7 29l2 3q3 6 9 5h2q4 -3 6 -11z" />
    <glyph glyph-name="quotedblleft" unicode="&#x201c;" horiz-adv-x="118" 
d="M-2 744q0 6 5 11h2q7 1 10 -5l2 -3l7 -29l6 -24q7 -19 8 -26q6 -29 6 -33q0 -8 -3 -9l-1 -1q-6 -3 -14 11q-1 3 -3 7l-3 15q-1 7 -3 15.5t-4 18.5q-1 2 -4.5 15t-10.5 37zM50 758q2 8 6 11h2q6 2 9 -5l2 -3l7 -29l6 -24q7 -19 8 -26q6 -29 6 -33q0 -8 -3 -9l-1 -1
q-6 -3 -14 11q-5 9 -6 22q-1 7 -3 15.5t-4 18.5q-1 8 -15 52z" />
    <glyph glyph-name="quotedblright" unicode="&#x201d;" horiz-adv-x="136" 
d="M115 744q-7 -24 -10.5 -37t-4.5 -15q-2 -10 -4 -18.5t-3 -15.5l-3 -15q0 -2 -2 -3q0 -2 -0.5 -2.5t-0.5 -1.5q-8 -14 -15 -11v1q-4 1 -4 9q0 11 7 33q1 5 3 11.5t4 14.5q3 9 4.5 15t2.5 9l7 29l2 3q3 6 9 5h2q4 -3 6 -11zM62 758q-1 -4 -4.5 -17l-9.5 -35q-4 -10 -4 -14
q-2 -5 -2 -12q-1 -2 -1 -4t-1 -4q-1 -5 -2 -11t-3 -11q-9 -14 -15 -11v1q-4 1 -4 9q0 4 6 33l15 50l7 29l2 3q3 6 9 5h2q5 -3 5 -11z" />
    <glyph glyph-name="quotedblbase" unicode="&#x201e;" horiz-adv-x="118" 
d="M97 121q-7 -24 -10.5 -37t-4.5 -15q-2 -10 -4 -18.5t-3 -15.5l-3 -15l-2 -4l-1 -2q-6 -14 -15 -12v1q-4 1 -4 9q0 12 7 33q1 5 3 11.5t4 15.5q3 8 4.5 14t2.5 9l7 29l2 4q5 5 9 4h2q4 -3 6 -11zM44 135l-4 -14.5l-4 -15.5l-3.5 -14t-2.5 -8q-4 -10 -4 -15q-2 -4 -2 -11
q-1 -2 -1 -4t-1 -4q-1 -10 -5 -21q-8 -14 -15 -12v1q-4 1 -4 9q0 7 6 33l15 50l7 29l2 4q5 5 9 4h2q5 -3 5 -11z" />
    <glyph glyph-name="dagger" unicode="&#x2020;" horiz-adv-x="418" 
d="M55 562q-31 0 -31 13t29 13l150 1l-1 122q0 31 13 31t13 -29v-124l104 1l22 2q8 2 12 2h6q22 0 22 -8q0 -11 -6 -12q-7 -4 -29 -5q-8 -1 -15 -1t-12 -1l-104 -2l2 -595q0 -5 0.5 -10.5t1.5 -12.5t1.5 -11t0.5 -6q0 -22 -8 -22q-11 0 -12 6q-4 7 -5 29q-1 8 -1 15t-1 12
l-4 595z" />
    <glyph glyph-name="daggerdbl" unicode="&#x2021;" horiz-adv-x="418" 
d="M55 562q-31 0 -31 13t29 13l150 1l-1 122q0 31 13 31t13 -29v-124l104 1l22 2q8 2 12 2h6q22 0 22 -8q0 -11 -6 -12q-7 -4 -29 -5q-8 -1 -15 -1t-12 -1l-104 -2l1 -71l103 1l22 3q8 0 12 0.5t6 0.5q22 0 22 -8q0 -10 -6 -13q-3 -1 -10.5 -2t-18.5 -2q-8 -1 -15 -1t-12 -1
l-103 -2l1 -500q0 -5 0.5 -10.5t1.5 -12.5t1.5 -11t0.5 -6q0 -22 -8 -22q-11 0 -12 6q-4 7 -5 29q-1 8 -1 15t-1 12l-3 500h-1l-148 -3q-31 0 -31 13t29 13l150 1v71z" />
    <glyph glyph-name="bullet" unicode="&#x2022;" horiz-adv-x="167" 
d="M29 362q1 12 3 30q2 8 4 20t6 26q8 31 21 48q13 20 32 20q16 0 25 -6q11 -8 18 -36q8 -29 8 -81v-31q0 -20 -0.5 -35.5t-1.5 -28.5t-3 -25t-5 -25q-6 -25 -20 -38q-14 -12 -36 -12h-5q-23 2 -35 46q-7 21 -10 45.5t-3 51.5q0 5 0.5 13t1.5 18z" />
    <glyph glyph-name="ellipsis" unicode="&#x2026;" horiz-adv-x="165" 
d="M14 7q-1 8 -1.5 12.5t-0.5 6.5q0 8 1 12q1 2 1 3.5t1 2.5t1 3q0 12 9 12q10 0 10 -29v-6q0 -15 -5 -22q-3 -10 -9 -10t-7 15zM71 25q0 6 3 17q5 11 10 11q10 0 10 -24v-6q0 -32 -13 -32h-1q-9 1 -9 29v5zM137 9q-1 8 -1.5 12.5t-0.5 6.5v9q0 24 13 24q14 0 14 -30v-6
q0 -12 -6 -21q-7 -10 -12 -10q-6 0 -7 15z" />
    <glyph glyph-name="perthousand" unicode="&#x2030;" horiz-adv-x="732" 
d="M461 747q2 2 3 2l1 -1q2 -2 2 -8q0 -23 -18 -53l-40 -70l-310 -522l-25 -44l-2 -4q-29 -48 -41 -48h-2h-1q-3 1 -3 6q0 8 8 24l32 55l260 440l39 61l43 68l15 23.5t8 14.5q16 31 21 42q1 16 2 16q2 0 8 -2zM110 748q-21 -3 -46 -43q-24 -41 -24 -102q0 -69 16 -117
q15 -48 37 -63q13 -9 31 -9q14 0 25 6q35 18 35 206q0 46 -25 84q-26 38 -46 38h-3zM85 759q10 13 21 13h3q31 -6 54 -38q23 -33 33 -70q9 -38 9 -68q-3 -113 -9 -132q-1 -5 -8 -21q-5 -11 -10.5 -20t-11.5 -14q-14 -11 -38 -11q-44 0 -74 48q-30 45 -32 113v12
q0 16 0.5 29.5t1.5 25.5q3 24 6 38q2 15 10 29q5 14 11 21q2 3 6 8.5t11 13.5l10.5 13.5t6.5 9.5zM347 344q-22 -7 -46 -46q-24 -36 -24 -99q0 -68 15 -117q17 -49 38 -63q13 -9 31 -9q14 0 25 6q35 18 35 206q0 47 -17 86q-17 38 -44 38q-7 0 -13 -2zM354 368q28 0 47 -19
q20 -20 27 -50q4 -16 6.5 -29.5t4.5 -26.5q3 -26 3 -51q-3 -106 -11 -137q-16 -61 -66 -61q-39 0 -73 43q-33 43 -33 130q0 45 9 83q4 19 9 33t10 25q11 22 25 36q13 14 22 19q8 5 12 5h8zM572 344q-22 -7 -46 -46q-24 -36 -24 -99q0 -69 16 -117q15 -48 37 -63q13 -9 31 -9
q14 0 25 6q35 18 35 206q0 47 -17 86q-17 38 -44 38q-7 0 -13 -2zM579 368q28 0 47 -19q20 -20 27 -50q4 -16 6.5 -29.5t4.5 -26.5q3 -26 3 -51q-3 -106 -11 -137q-16 -61 -66 -61q-39 0 -72 43q-34 43 -34 130q0 23 2 43.5t6 39.5q8 35 20 58q5 11 11.5 19.5l12.5 16.5
q8 7 13 12t9 7q10 5 13 5h8z" />
    <glyph glyph-name="guilsinglleft" unicode="&#x2039;" horiz-adv-x="405" 
d="M-15 337q2 1 16 4t39 10q5 1 13 2t19 3l22 4t24 4t41 10t73 22q89 26 119 29q7 3 17 3q14 0 14 -7q0 -3 -2 -3q0 -1 -6 -2q-2 0 -8 -2l-206 -55.5t-80 -20.5q-37 -4 -64 -12l315 -67q1 -1 9 -1q10 0 12 -2q5 0 5 -4q-3 -7 -18 -7q-10 0 -180 31q-4 0 -169 43q-10 0 -10 6
q0 4 5 12z" />
    <glyph glyph-name="guilsinglright" unicode="&#x203a;" horiz-adv-x="391" 
d="M374 309q-1 -1 -3 -1t-5 -2q-4 0 -8 -2q-6 -2 -33 -9.5l-77 -22.5l-78.5 -22.5t-43.5 -11.5q-26 -6 -45 -12q-22 -5 -31 -9l-9 -3.5t-8 -3.5q-8 -3 -9 -4l-3 -2q-2 0 -2 5q0 16 24 22q6 2 10.5 3t8.5 2q8 3 8 4l4 2l4 1q2 1 4 1t6 1l69 20l182 53l-54.5 9.5t-116.5 22.5
l-111 21t-41 7q-29 5 -29 11q0 3 5 5q2 1 5 1.5t5 1.5l5 1q9 0 29 -7q10 -4 24 -7t32 -6q89 -14 157.5 -27.5t117.5 -24.5q11 -6 11 -10q0 -3 -4 -7z" />
    <glyph glyph-name="Euro" unicode="&#x20ac;" horiz-adv-x="178" 
d="M134 708q-12 16 -26 16q-8 0 -15 -7q-20 -26 -41 -113q-11 -45 -17.5 -84t-8.5 -74l-2 -31l42 1l22 2q8 2 12 2h6h11q11 2 11 -4q0 -11 -6 -12q-7 -4 -29 -5q-8 -1 -15 -1t-12 -1l-43 -4q-2 -35 -3.5 -54.5t-1.5 -23.5v-1l38 1l22 3q8 0 12 0.5t6 0.5q22 -1 22 -3
q0 -11 -6 -12q-7 -4 -29 -5q-8 -1 -15 -1t-12 -1l-37 -3q1 -4 3 -22q1 -8 2 -20t3 -26l7 -69q12 -149 61 -149h4l12.5 2t14.5 3q7 2 12.5 2.5t9.5 2.5q4 0 6.5 0.5t4.5 0.5l2 -1q0 -3 -12 -10q-32 -17 -56 -17q-37 0 -49 30q-13 28 -25 104q-12 73 -15 104q-3 25 -3 63h-6
q-31 0 -31 13q0 8 29 8h8q1 27 2 46.5t2 32.5q-31 0 -31 13q0 9 29 9h4q3 45 7.5 81.5t11.5 66.5q11 52 21 88t20 56q19 42 41 42q11 0 25 -9q30 -17 1 -31z" />
    <glyph glyph-name="trademark" unicode="&#x2122;" horiz-adv-x="453" 
d="M353 555q-15 -24 -22 -24q-5 0 -11 11q-4 5 -5.5 9.5t-2.5 6.5q-32 138 -48 138q-1 0 -1 -16q0 -23 1.5 -44.5t3.5 -41.5l4 -39q0 -10 -7 -17l-7 -2q-6 0 -7 1q-4 4 -4 212v13q0 4 7 4q7 2 10 0l34 -99q11 -26 20.5 -54t16.5 -57l67 237q1 9 10 9q6 0 10 -4q5 -5 5 -9
v-10q0 -20 -1 -85t-3 -174q-6 -15 -9 -14q-5 2 -9 14v24t1 28v50q1 9 1 15.5v10.5q2 32 3 51t1 25v4zM35 749q25 1 42 1.5t27 0.5q104 0 105 -7v-3q0 -13 -66 -13q-11 3 -11 0l-3 -188q0 -9 -11 -6q-12 4 -12 6v49q-1 23 -1 46.5v46.5q0 45 -1 46h-4h-18h-21q-53 2 -53 12v1
v2q0 1 1 2t4 1q2 1 4 1t5 1h5.5t7.5 1z" />
    <glyph glyph-name="uni000D" unicode="&#xd;" horiz-adv-x="0" 
 />
    <glyph glyph-name="uni00A0" unicode="&#xa0;" horiz-adv-x="214" 
 />
    <glyph glyph-name="space" unicode=" " horiz-adv-x="214" 
 />
    <glyph glyph-name="exclam" unicode="!" horiz-adv-x="91" 
d="M33 746q1 3 3 3q3 0 8 -7q3 -10 6 -22q3 -15 3 -32v-81v-95t-1 -142t-1 -139v-87v-50v-5q0 -63 -14 -63q-9 0 -10 28v64q0 132 1.5 240t3.5 195q3 99 3 129t-3 47q-2 13 1 17zM27 -75q-1 8 -1.5 12.5t-0.5 6.5q0 8 1 12q1 2 1 3.5t1 2.5t1 3q0 12 9 12q10 0 10 -29v-6
q0 -7 -1 -12t-3 -10q-6 -10 -10 -10q-6 0 -7 15z" />
    <glyph glyph-name="glyph223" horiz-adv-x="0" 
 />
    </font>
</defs>
</svg>
