<?xml version="1.0" standalone="no"?>
<!DOCTYPE svg PUBLIC "-//W3C//DTD SVG 1.1//EN" "http://www.w3.org/Graphics/SVG/1.1/DTD/svg11.dtd" >
<svg xmlns="http://www.w3.org/2000/svg">
<metadata></metadata>
<defs>
<font id="optima_bqregular" horiz-adv-x="980" >
<font-face units-per-em="2048" ascent="1638" descent="-410" />
<missing-glyph horiz-adv-x="598" />
<glyph horiz-adv-x="2048" />
<glyph horiz-adv-x="2048" />
<glyph unicode="&#xd;" horiz-adv-x="2048" />
<glyph unicode=" "  horiz-adv-x="598" />
<glyph unicode="&#x09;" horiz-adv-x="598" />
<glyph unicode="&#xa0;" horiz-adv-x="598" />
<glyph unicode="!" horiz-adv-x="555" d="M211 100q9 33 42.5 56.5t70.5 23.5q41 0 72.5 -33.5t31.5 -76.5t-36 -74t-81 -31q-23 0 -47 12q-31 17 -46.5 52.5t-6.5 70.5zM239.5 1305q-0.5 10 0 15t1 13t2.5 14.5t5 12.5q9 24 33 42.5t51 18.5q13 0 33 -8q57 -30 57 -98q0 -16 -6 -58l-76 -950l-41 2 q-20 389 -55 953q0 2 -1.5 14t-2 15.5t-1 13.5z" />
<glyph unicode="&#x22;" horiz-adv-x="811" d="M123 1437q0 10 2 19q5 32 24.5 51t36 23t33.5 4q26 0 47 -14q9 -6 15.5 -12.5t10.5 -14t6.5 -14t3.5 -14.5t1 -12v-11v-8l-72 -523h-38l-68 498q0 1 -1 9.5t-1 18.5zM508 1456q5 32 25.5 51t37 23t31.5 4q26 0 49 -14q9 -6 15.5 -12.5t10.5 -14t6.5 -14t3.5 -14.5t1 -12 v-11v-8l-74 -523h-39l-65 498q-5 15 -2 47z" />
<glyph unicode="#" horiz-adv-x="1366" d="M86 530v111h358l27 199h-342v116h356l66 494h129l-70 -494h205l64 494h122l-67 -494h344v-116h-358l-27 -199h344v-111h-358l-72 -530h-127l78 530h-207l-78 -530h-119l74 530h-342zM565 641h207l27 199h-205z" />
<glyph unicode="$" horiz-adv-x="1024" d="M68 39q3 9 9 25t8 23t6.5 20.5t7 25t6 29.5t6.5 41h20q19 -31 33 -45q26 -33 60 -55t79 -33.5t76 -16.5t82 -10v612q-1 0 -21 5t-46 12t-44 14q-139 51 -203 174q-36 87 -36 162q0 35 6.5 73t36 97t79.5 104q48 43 100 66.5t130 46.5q0 88 -10 156h88v-156q30 0 84 -4 q42 -6 100.5 -25t91.5 -37q51 -34 66 -47q-46 -48 -82 -104h-23q-13 32 -30 55q-25 33 -62.5 52t-66 24t-80.5 10v-516q209 -65 278 -121q58 -46 89.5 -120.5t31.5 -155.5q0 -120 -67 -228.5t-173 -164.5q-49 -28 -166 -54l11 -186h-82v176q-3 0 -37.5 1t-65.5 3t-76.5 8.5 t-80.5 16.5q-24 6 -133 47zM244 1092q0 -89 59 -158q21 -25 52 -44.5t48.5 -27.5t63.5 -26v497q-52 -15 -81 -26.5t-61 -37t-53 -63.5q-28 -49 -28 -114zM532 47q71 19 117 43q68 40 114 112.5t46 149.5q0 94 -66 170q-28 33 -66 55.5t-63.5 31t-81.5 24.5v-586z" />
<glyph unicode="%" horiz-adv-x="1792" d="M59 946q0 37 3.5 81.5t29 130.5t70.5 140q40 45 94 72q71 31 139 31q108 0 195 -70q57 -46 88.5 -111t39 -123t7.5 -143q0 -77 -4 -116q-9 -178 -121 -283q-84 -78 -203 -78q-35 0 -90 10q-29 7 -49 14.5t-54 33t-61 65.5q-88 122 -84 346zM209 899q0 -249 92 -330 q49 -39 90 -37q42 0 80 31q59 49 81.5 148.5t22.5 273.5q0 191 -49 277q-44 75 -127 75q-37 0 -67.5 -19t-49.5 -48t-27 -46t-13 -32q-36 -101 -33 -293zM565 -23q77 159 99 213q17 39 45.5 113.5t33.5 87.5q13 33 40.5 99.5t41.5 99.5q14 34 39.5 101.5t38.5 101.5 q20 53 66 159q67 161 95.5 244.5t57.5 194.5l125 -2q-134 -286 -213 -480q-26 -65 -55 -139.5t-63.5 -164.5t-53.5 -140q-27 -70 -55.5 -140.5t-41.5 -103.5t-33 -94t-44 -150h-123zM1083 397q-2 128 20 225t89 173q83 92 217 92q153 0 244 -107q94 -116 94 -323 q0 -12 -1 -35.5t-1 -36.5q-6 -104 -22 -164q-44 -161 -158 -221q-77 -37 -152 -37q-34 0 -70 6.5t-90.5 36.5t-91.5 82q-47 63 -62.5 137t-15.5 172zM1229 408q0 -184 33 -273q16 -43 44.5 -70.5t53 -36t47.5 -8.5q33 0 80 31q38 30 62.5 78.5t33.5 112.5t11.5 105t2.5 104 q0 108 -8 159q-30 215 -170 215q-34 0 -63 -15t-46 -37.5t-26 -38.5t-14 -29q-38 -90 -41 -297z" />
<glyph unicode="&#x26;" horiz-adv-x="1366" d="M61 317q0 65 39 162q26 49 61.5 89t87 75t86 54.5t99.5 52.5q-35 48 -55.5 79.5t-44 76t-34.5 89t-11 92.5q0 20 3.5 43t13 56t32 67.5t55.5 61.5q89 74 234 74q38 0 92 -15q24 -7 49 -20t57.5 -38.5t53 -69.5t20.5 -99q0 -65 -31 -127q-18 -38 -45 -72t-64 -65.5 t-65 -52t-73 -50.5q73 -104 118 -159q19 -23 55 -64t48 -55q25 -29 73.5 -85.5t73.5 -84.5q95 130 139.5 203.5t108.5 212.5l80 -103q-87 -128 -132.5 -186t-150.5 -178q4 -5 21.5 -27t21 -26.5t18.5 -23t20.5 -24.5t20 -23.5t23.5 -27t25.5 -27t31 -33t34.5 -35.5l42 -42 v-19q-101 9 -139 9q-15 0 -113 -5q-4 7 -13 21.5t-12 19.5t-11 17t-12.5 18.5t-13.5 18t-18 22.5t-21.5 25.5t-27.5 32.5l-67 -56q-171 -141 -385 -141q-83 0 -156 27q-107 37 -174.5 128.5t-67.5 206.5zM227 358q0 -38 9 -75q21 -74 74 -136t120 -86q40 -16 100 -16 q50 0 94 9.5t80.5 29t52 29t40.5 28.5q3 2 13 8t14 9t11.5 8.5t11 10t6.5 10.5t3 12q0 24 -49 80q-65 74 -199 237q-27 34 -75.5 98.5t-63.5 83.5q-83 -48 -107 -67q-18 -14 -37.5 -35t-43.5 -55t-39 -82.5t-15 -100.5zM436 1161q0 -40 9.5 -79t33.5 -86t36.5 -68.5 t47.5 -75.5q7 -11 10 -16q5 3 64 38q94 64 133 170q18 63 18 107q0 43 -16 76q-22 44 -68.5 72t-97.5 28q-57 -2 -103 -33t-61 -82q-6 -18 -6 -51z" />
<glyph unicode="'" horiz-adv-x="425" d="M123 1437q0 10 2 19q5 32 24.5 51t36 23t33.5 4q26 0 47 -14q9 -6 15.5 -12.5t10.5 -14t6.5 -14t3.5 -14.5t1 -12v-11v-8l-72 -523h-38l-68 498q0 1 -1 9.5t-1 18.5z" />
<glyph unicode="(" horiz-adv-x="468" d="M117 641q0 96 13 189.5t29 163.5t48 147t53 121.5t61 108t55 85t52 72.5l41 -43q-50 -72 -76 -121q-26 -47 -53 -113.5t-56.5 -162t-48 -218t-18.5 -245.5q0 -124 16 -222q21 -125 61.5 -240.5t72.5 -174.5q30 -59 94 -152l-51 -45q-52 72 -105 160q-188 311 -188 690z " />
<glyph unicode=")" horiz-adv-x="468" d="M14 -166q69 103 95.5 157.5t70.5 178.5l56 207q32 219 32 338q0 120 -18 216.5t-60 225.5q-34 102 -63 160q-29 57 -107 170l56 43q85 -115 119 -180q174 -305 174 -664q0 -120 -20.5 -238.5t-54.5 -212.5t-60 -152.5t-54 -107.5q-36 -65 -123 -184z" />
<glyph unicode="*" horiz-adv-x="681" d="M53 1008q79 28 123.5 48t126.5 62q-58 34 -119 64q-90 40 -127 55l49 70q72 -55 110.5 -80.5t113.5 -67.5l-23 266h84l-24 -276q85 53 121 79t102 83l51 -84q-68 -25 -112 -44.5t-62 -29.5t-66 -37q132 -73 240 -115l-59 -73q-66 56 -100.5 80t-112.5 71q1 -21 3 -62.5 t3 -62.5q2 -26 7 -74.5t7 -70.5h-84q21 164 23 270l-226 -143z" />
<glyph unicode="+" horiz-adv-x="1366" d="M86 535v122h537v533h122v-533h535v-122h-535v-535h-122v535h-537z" />
<glyph unicode="," horiz-adv-x="468" d="M23 -369l141 463q6 23 8 31.5t8.5 25.5t16 27.5t22.5 18.5q23 14 47 14q35 -1 50.5 -31.5t15.5 -52.5q0 -6 -0.5 -11.5t-2.5 -11t-3 -10t-4.5 -10.5t-5 -9.5t-5.5 -10t-5.5 -9t-6.5 -10t-6 -8.5l-236 -422z" />
<glyph unicode="-" horiz-adv-x="681" d="M88 524v148q252 -6 254 -6q88 0 264 8v-146q-185 9 -250 9q-73 0 -268 -13z" />
<glyph unicode="." horiz-adv-x="468" d="M135 111q10 30 42 50.5t65 20.5q26 0 49 -14q23 -15 39 -44t16 -58q-1 -41 -36 -70t-79 -29q-23 0 -43 10q-34 19 -49.5 59t-3.5 75z" />
<glyph unicode="/" horiz-adv-x="641" d="M27 -23q93 210 116 267q69 161 158 387q150 392 225 598l86 -2q-149 -353 -274 -676q-99 -259 -211 -576z" />
<glyph unicode="0" horiz-adv-x="1110" d="M68 655q0 156 20 277q38 222 170 350q123 123 305 123q57 0 119 -14q152 -43 248 -177q70 -102 96.5 -228t26.5 -281q0 -76 -2 -115q-19 -284 -136 -445q-48 -75 -133 -125q-97 -57 -239 -57q-147 0 -254 84q-217 167 -221 608zM236 696q0 -183 24 -327q0 -1 2.5 -14 t4.5 -21t6 -25t8 -29.5t10.5 -31t13 -33.5t16 -32t19.5 -31q39 -54 97.5 -87.5t119.5 -33.5q101 0 178 71q86 82 123 263q21 116 21 383q0 280 -72 419q-25 49 -60 84t-71 51.5t-65 23.5t-56 7q-51 0 -114.5 -28t-108.5 -97q-96 -150 -96 -512z" />
<glyph unicode="1" horiz-adv-x="1110" d="M49 1137l191 61q124 49 260 111q78 36 192 100l25 -23q-23 -216 -27 -344q-1 -47 -1 -142t-1 -142v-185q0 -227 4 -340q2 -88 10 -260q-94 10 -190 4q16 422 18 635q2 211 -2 633l-376 -196z" />
<glyph unicode="2" horiz-adv-x="1110" d="M49 18q139 133 234 232q77 77 206 225q64 81 98 129.5t75.5 121.5t60 145.5t18.5 152.5q0 202 -139 274q-63 29 -123 29q-114 0 -184 -96q-28 -38 -57 -125h-33l-70 104q2 2 16.5 19.5t34 39t37.5 36.5q116 100 289 100q73 0 147 -20t127 -58q65 -48 98.5 -123t33.5 -162 q0 -55 -17 -122q-5 -22 -12.5 -44t-14 -38t-17.5 -35.5t-16.5 -29.5t-18 -27t-16 -22t-16.5 -20l-12 -16q-156 -185 -160 -190q-102 -117 -253 -275l-70 -92q242 -4 362 -4q99 0 295 4q-10 -56 -10 -86q0 -29 6 -76q-122 10 -149 11h-127q-31 1 -87 2.5t-101.5 2.5t-86.5 1 q-85 0 -348 -9v41z" />
<glyph unicode="3" horiz-adv-x="1110" d="M59 33q16 47 21 70t6 67l25 6q12 -17 41 -48t61 -48q98 -47 203 -47q90 0 147 35q77 40 126.5 136t49.5 193q0 20 -3.5 44t-14 60t-35.5 71t-61 59q-43 28 -92.5 40t-94.5 10t-98 -5l2 86q60 -8 86 -8q65 0 112 29.5t74 62.5q64 78 64 219q0 62 -21 119q-7 20 -21.5 42 t-39.5 48t-65.5 42.5t-88.5 16.5q-64 0 -111 -26t-69 -54q-21 -28 -41 -77h-26q-18 60 -45 120q10 6 30.5 20t32.5 21q117 72 268 72q88 0 156 -27q101 -39 159 -120.5t58 -190.5q0 -69 -35.5 -148t-128.5 -139q-43 -25 -108 -55q69 -8 127 -29q25 -9 49.5 -21.5t56 -38.5 t54.5 -57.5t39 -81.5t16 -108q0 -171 -133 -291q-150 -135 -398 -135q-89 0 -159 15.5t-175 50.5z" />
<glyph unicode="4" horiz-adv-x="1110" d="M57 373v43q202 261 349 467q157 224 346 512l129 -2q-17 -364 -19 -506q-2 -129 2 -387l199 -2q-6 -54 -6 -66q0 -14 6 -61l-201 8q-4 -167 0 -248q2 -53 10 -160q-58 9 -98 9q-14 0 -92 -5q15 110 19.5 175.5t5.5 228.5q-284 4 -426 2q-148 -4 -224 -8zM217 498l492 -6 v700q-94 -124 -199 -274q-146 -204 -293 -420z" />
<glyph unicode="5" horiz-adv-x="1110" d="M106 57l27 115h25q1 -2 13 -16.5t16 -18.5t17.5 -18.5t21 -20t23 -17.5t27.5 -18t30.5 -14t36.5 -12t40.5 -7t46.5 -3q126 0 213 71q64 54 98.5 146t34.5 184q-8 207 -149 289q-71 41 -158 41q-40 0 -81 -11t-68 -23.5t-72 -37.5l-33 31q20 70 24.5 105t6.5 110 q3 107 0 211q0 21 -17 252q200 -17 287 -17q37 0 397 11q-9 -48 -10 -66t2 -94q-264 19 -338 20q-74 2 -223 -2q-16 -213 -20 -317q-2 -43 -2 -129q144 45 227 45q111 0 205 -49q194 -103 194 -357q0 -99 -35 -182q-61 -142 -189 -217.5t-284 -75.5q-78 0 -149 16t-107 33 q-24 8 -78 43z" />
<glyph unicode="6" horiz-adv-x="1110" d="M96 563q0 111 19 213q7 49 15 83.5t28.5 102t60.5 134t96 125.5q113 113 246 153q41 14 80 20t75 6t81 -1l26 -84l-24 -10q-55 24 -99 24q-28 0 -61 -8t-72 -26.5t-80 -54.5t-75 -85q-100 -145 -131 -397q-5 -57 -2 -127q56 69 98.5 105.5t109.5 60.5q59 20 127 20 q63 0 137.5 -22.5t125.5 -57.5q74 -53 113.5 -137.5t39.5 -179.5q0 -108 -47.5 -209t-128.5 -162q-68 -54 -162 -76q-81 -18 -119 -18q-31 0 -96 12q-27 4 -46.5 9t-52.5 17t-66.5 35t-65.5 56q-150 162 -150 479zM274 399q-7 -152 66 -252q49 -68 114.5 -96t114.5 -28 q65 0 125 37.5t94 97.5q26 41 41.5 100.5t19 94t3.5 57.5q0 94 -37 170q-22 48 -54.5 81.5t-68 48.5t-63 21t-54.5 6q-54 0 -98 -20q-33 -13 -63.5 -35.5t-62.5 -59.5t-53 -95t-24 -128z" />
<glyph unicode="7" horiz-adv-x="1110" d="M133 -27l741 1246q-204 7 -366 4q-73 -1 -208.5 -6.5t-166.5 -6.5q8 63 8 97q0 1 -6 88q412 -31 557 -31q72 0 340 14l-2 -69q-70 -104 -98 -150q-34 -56 -119 -209q-18 -32 -57.5 -99.5t-70 -120t-56.5 -101.5l-117 -221q-86 -156 -127 -234q-43 -85 -92 -201h-160z" />
<glyph unicode="8" horiz-adv-x="1110" d="M92 377q0 143 76 250q29 42 86 84q38 28 133 71q-65 26 -96 47q-53 37 -84.5 90.5t-39 89.5t-7.5 68q0 112 86 203q114 123 305 123q57 0 104 -8q200 -36 271 -187q28 -80 28 -127q0 -100 -73 -188q-23 -26 -53.5 -48.5t-50 -33.5t-64.5 -35q117 -39 155 -65 q23 -15 46.5 -38t50.5 -60.5t44 -92t17 -117.5q0 -73 -20 -143q-22 -76 -65.5 -134t-102.5 -93.5t-129 -53.5t-148 -18q-116 0 -206.5 34t-139.5 75q-60 52 -91.5 134.5t-31.5 172.5zM272 389q-2 -88 27.5 -174t91.5 -135q83 -53 168 -53q70 0 133 34q122 68 148 234 q10 40 10 121q0 115 -64 202q-84 115 -227 115q-95 0 -170 -59q-117 -95 -117 -285zM338 1081q-10 -170 100 -237q55 -33 119 -33q97 0 156 63q71 74 71 216q0 96 -49 157q-68 88 -172 88q-56 0 -106 -28q-110 -60 -119 -226z" />
<glyph unicode="9" horiz-adv-x="1110" d="M84 965q0 124 66 226.5t172 158t227 55.5q212 0 350 -170q69 -86 94 -190t25 -238q-1 -119 -21 -226t-53 -187t-65.5 -136t-69.5 -100q-93 -115 -201 -158q-82 -37 -190 -37q-54 0 -168 19l-64 122l35 15q1 -1 9.5 -9t12 -11t13 -11t15 -12t16.5 -11t20 -10.5t21.5 -8.5 t25 -7t27.5 -4t31 -2q34 0 69.5 8.5t78.5 29.5t84.5 64t74.5 103q28 48 60.5 142t45.5 198q9 80 9 161q-1 -2 -12.5 -16.5t-22 -28t-27.5 -32t-33 -31.5q-35 -35 -99 -64t-151 -28q-81 0 -147 26q-65 25 -114.5 68.5t-75.5 87.5t-42.5 95t-21 85.5t-4.5 63.5zM264 956 q1 -109 35.5 -180.5t83.5 -107.5q65 -47 149 -47q114 3 197 92q96 106 96 284q0 77 -20 140q-20 60 -55 102.5t-74.5 62t-71.5 27.5t-61 8q-54 0 -101 -22q-74 -35 -126.5 -123.5t-51.5 -235.5z" />
<glyph unicode=":" horiz-adv-x="555" d="M205 836q0 11 6 32q10 32 42.5 53t68.5 21q42 0 73 -34.5t31 -78.5q-1 -43 -35 -73.5t-78 -30.5q-45 2 -76.5 34t-31.5 77zM215 102q10 34 42.5 56t68.5 22q41 0 72.5 -32.5t31.5 -75.5q-1 -44 -33.5 -74.5t-74.5 -30.5q-34 0 -64 19q-28 18 -40.5 50.5t-2.5 65.5z" />
<glyph unicode=";" horiz-adv-x="555" d="M109 -371l139 461q19 80 55 103q21 14 47 14q25 0 40.5 -19t19.5 -35.5t4 -27.5q0 -13 -5 -29t-10.5 -26.5t-12.5 -21t-7 -11.5l-186 -326l-50 -100zM213 834q0 10 6 34q7 26 33.5 52t73.5 26q46 0 79 -31.5t33 -78.5q0 -45 -34.5 -77t-77.5 -32q-21 0 -35 6 q-26 7 -52 31.5t-26 69.5z" />
<glyph unicode="&#x3c;" horiz-adv-x="1366" d="M0 653v144l1366 655v-131l-1229 -596l1229 -600v-131z" />
<glyph unicode="=" horiz-adv-x="1366" d="M0 354v119h1366v-119h-1366zM0 715v121h1366v-121h-1366z" />
<glyph unicode="&#x3e;" horiz-adv-x="1366" d="M0 -6v131l1229 600l-1229 596v131l1366 -655v-144z" />
<glyph unicode="?" horiz-adv-x="724" d="M158 1311v90q63 24 107 35.5t97 11.5q108 0 187 -53q121 -82 121 -228q0 -67 -31 -135q-37 -85 -168 -231q-113 -124 -141 -172q-33 -66 -33 -103q0 -46 35 -78t80 -32q30 0 61 14l23 -20l-27 -56q-24 -6 -68 -6q-35 0 -79 14q-17 7 -32 15.5t-38 27.5t-39.5 41.5 t-28.5 57.5t-12 76q1 74 35.5 133.5t99.5 134.5q4 5 50 57t69 80q50 59 76 107.5t26 107.5q-2 47 -18 78q-24 48 -75 75t-107 27q-44 0 -76.5 -16.5t-73.5 -52.5h-20zM256 72q0 18 8 39q7 20 35.5 42.5t71.5 22.5t72.5 -29.5t29.5 -70.5q0 -46 -34 -77.5t-81 -31.5 q-41 2 -71.5 32.5t-30.5 72.5z" />
<glyph unicode="@" horiz-adv-x="1835" d="M141 477q0 55 7.5 115t27.5 146.5t67.5 183t116.5 182.5q33 42 71.5 81t107 91.5t144 90t182 64.5t220.5 27q248 0 406 -127q203 -164 203 -463q0 -155 -55.5 -315.5t-155.5 -269.5q-13 -15 -31.5 -32t-53.5 -43.5t-80.5 -43.5t-90.5 -17q-72 0 -111 36.5t-47 76.5 q-9 33 -6 78q-21 -30 -45 -57q-123 -133 -262 -131q-83 0 -148 47q-114 82 -114 278q0 69 16 146q48 222 190 344q112 90 222 90q129 0 202 -111q10 -14 19 -32.5t15.5 -34.5t6.5 -17l33 148h121l-66 -301q-1 -4 -16.5 -75t-22 -105.5t-14.5 -88t-8 -84.5q0 -7 0.5 -14 t4 -26t10.5 -32t23 -24.5t38 -11.5q21 0 45 12q65 28 131 119q49 66 82.5 143.5t47.5 147t19.5 116t5.5 82.5q0 130 -45 230q-33 74 -88 128.5t-107.5 81t-116 42t-98 18t-69.5 2.5q-176 0 -332 -74q-231 -108 -370.5 -333t-139.5 -484q0 -238 136 -405q33 -41 78.5 -78 t113 -75t162 -60t201.5 -21q241 0 458 121q124 70 236 176l55 -65q-72 -68 -129 -111q-43 -33 -93 -63t-129.5 -67.5t-183 -60t-212.5 -22.5q-139 0 -277.5 41.5t-245.5 122.5q-35 27 -67 58.5t-69 83t-63.5 110.5t-44.5 141.5t-18 173.5zM633 483q0 -117 53 -170t125 -53 q80 0 156 66q49 43 82.5 103.5t47.5 122.5t19 95t6 64q1 63 -16.5 111.5t-46.5 74t-60.5 38t-62.5 11.5q-51 0 -119 -39q-86 -59 -135 -183t-49 -241z" />
<glyph unicode="A" horiz-adv-x="1323" d="M-6 -16q78 136 115 206q8 15 135 269q19 36 85.5 159.5t100.5 192.5q23 47 67 141.5t66 141.5q10 21 44 87.5t52 104.5q13 24 70 152h37q9 -25 56 -157t73 -202q12 -30 42 -104t51.5 -128t39.5 -106q15 -38 42.5 -113.5t41.5 -113.5q34 -88 86 -223q8 -20 21.5 -56.5 t25.5 -67t23 -56.5q17 -41 59 -131q-83 6 -91 6q-3 0 -18 1q-31 0 -112 -1q-27 114 -40 162.5t-46 144.5t-92 242h-541q-77 -148 -151 -312q-20 -45 -52.5 -129t-44.5 -112q-36 6 -76 6q-23 0 -69 -4zM424 623q207 -9 278 -9q83 0 193 7q-34 111 -50 158.5t-54 146.5 t-99 239q-103 -196 -123 -237q-46 -91 -145 -305z" />
<glyph unicode="B" horiz-adv-x="1150" d="M156 -27q16 175 20 265q2 70 2.5 199.5t1.5 170.5q0 49 1 147.5t1 147.5q0 213 -14 518l192 -6h256q66 -3 101 -6.5t83.5 -20t86.5 -47.5q37 -31 63 -69q51 -80 51 -176q0 -130 -81 -226q-39 -45 -81.5 -70.5t-113.5 -56.5q87 -12 152 -41q51 -22 89 -56t58 -66.5 t31.5 -72t14.5 -65.5t3 -53q0 -83 -33 -160q-34 -79 -102.5 -137.5t-153.5 -87.5q-100 -31 -227 -31q-39 0 -116.5 4.5t-116.5 4.5q-44 0 -168 -9zM342 780q17 -1 46 -2.5t53 -2.5t46 -1q89 0 156 21q89 32 137.5 104.5t48.5 169.5q0 53 -16 98q-19 57 -61.5 100t-96.5 62 q-57 17 -135 17q-39 0 -158 -9q-12 -163 -18 -323q-2 -78 -2 -234zM346 61q98 -4 150 -4q106 0 176 21q34 11 66 31.5t66.5 56t55.5 94t21 131.5q0 122 -58 199q-42 54 -122 89.5t-199 35.5q-28 0 -156 -10v-644z" />
<glyph unicode="C" horiz-adv-x="1409" d="M109 702q0 244 108 408q22 37 74 94q1 1 15 15.5t25.5 26t31 29t36.5 30.5q75 59 196.5 103t289.5 44q189 0 336 -57q40 -17 120 -64q-25 -60 -49 -162h-20q-40 52 -68 80q-50 45 -136.5 82t-203.5 37q-154 0 -264 -61q-42 -23 -81 -55t-80 -84t-70.5 -115.5 t-48.5 -152.5t-19 -191q0 -47 4 -99.5t30 -151.5t71 -171q53 -80 131 -140q162 -127 372 -127q170 0 299 86q27 14 92 76h25l-39 -151q-92 -32 -140 -46.5t-122.5 -28t-146.5 -13.5q-43 0 -90.5 5.5t-118 21.5t-148.5 53t-147 92q-264 213 -264 587z" />
<glyph unicode="D" horiz-adv-x="1579" d="M156 -23q17 260 22 465q1 65 2 194t2 193q0 36 1 108.5t1 109.5q0 158 -14 380q172 -8 260 -8l123 1q123 0 123 -1q134 -4 203 -8q71 -8 110 -14q201 -34 338 -195q152 -178 152 -446q0 -231 -93 -408q-61 -114 -163.5 -198.5t-225.5 -126.5q-49 -17 -101.5 -26.5 t-89 -12.5t-104.5 -7l-378 11zM336 291q0 -3 6 -219l219 -15h141q43 1 65 3.5t78 12t109.5 34t104.5 63.5q45 35 83 81t73 113.5t55 163.5t20 209q0 312 -174 469q-71 65 -162 97q-103 34 -325 34q-93 0 -273 -8q-13 -280 -16 -504v-303q-4 -156 -4 -231z" />
<glyph unicode="E" d="M158 -23q16 243 18 361q4 139 4 422q0 29 1 89t1 91q0 83 -10 483q266 -16 397 -16q55 0 305 10q-5 -32 -5 -62q0 -24 3 -48q-246 15 -292 16h-218q-9 -126 -12 -254q-2 -47 -2 -285q36 0 107.5 -1t107.5 -1q65 0 254 9v-113q-94 11 -130 14q-37 4 -135 8q-41 1 -82 1 q-60 0 -124 -3q-5 -172 -5 -318q0 -63 1 -120q3 -92 6 -180q123 -3 206 -3q41 0 73 1q129 3 254 12v-115q-240 11 -394 11q-79 0 -329 -9z" />
<glyph unicode="F" horiz-adv-x="937" d="M147 -20q22 243 25 329q3 61 4 130t1 154.5t1 131.5v172q0 195 -4 291q0 4 -12 242q237 -21 336 -21q29 0 91 1t93 1q57 0 86 2q39 2 113 10v-125q-148 14 -260 19q-88 4 -267 4l-12 -530q16 0 90 -3.5t115 -3.5q81 0 276 17v-119q-162 12 -231 16q-39 2 -248 7 q-6 -339 -6 -340q0 -57 1 -122.5t2.5 -145.5t2.5 -124q-60 15 -104 15q-31 0 -93 -8z" />
<glyph unicode="G" horiz-adv-x="1536" d="M111 678q0 148 47 291q34 118 118 217q29 34 64 66.5t92.5 70.5t122 66t153.5 46.5t185 18.5q81 0 175.5 -16.5t145 -30.5t86.5 -27q33 -10 99 -45q-3 -11 -8.5 -29.5t-7.5 -27t-5.5 -25t-6 -37t-5.5 -49.5l-37 2q-67 79 -106 110t-97 54q-116 45 -229 45 q-109 0 -221.5 -46t-188.5 -124q-49 -50 -85 -116t-52.5 -121.5t-26 -120.5t-11 -95t-1.5 -63q0 -227 109 -397q44 -69 102.5 -120.5t110.5 -78t111 -43t96.5 -20.5t74.5 -4q108 0 304 53q0 137 2 205l1 73q1 30 1 47q0 27 -2 27q-1 25 -6.5 73.5t-6.5 57.5q83 -10 92 -10 q21 0 95 8q-13 -182 -13 -256q0 -116 11 -299l-283 -51q-98 -14 -192 -14q-77 0 -166 12q-314 51 -484 258q-157 196 -157 465z" />
<glyph unicode="H" horiz-adv-x="1492" d="M156 -20q13 146 16 266q1 37 1 110.5t1 110.5q0 38 1 113.5t1 113.5q0 37 -0.5 105t-0.5 124t1 105q0 187 -2 225q0 2 -12 172q1 0 21.5 -4t43 -7t43.5 -3q3 0 97 8q-17 -216 -19 -305q-3 -85 -3 -182q0 -58 1 -121q52 -6 90 -8q31 -2 58 -1h14h24q27 0 66 -1h352 q37 -3 74 -3h12q44 0 121 9q3 81 3 159q0 55 -2 108q-4 129 -6.5 177t-12.5 168q2 0 21.5 -2t46 -4t44.5 -2q28 0 90 4q-17 -159 -22 -289q-4 -107 -4 -477q0 -57 -2 -170.5t-2 -171.5q0 -51 4 -153q2 -63 10 -179q-59 9 -100 9q-32 0 -97 -7q19 260 21 418v307 q-326 9 -432 9q-50 1 -103 1q-124 0 -268 -5q-6 -153 -6 -310q0 -142 12 -420q-64 15 -98 15q-28 0 -98 -12z" />
<glyph unicode="I" horiz-adv-x="512" d="M156 -25q12 136 18 281q4 100 4 307q0 49 -0.5 139.5t-0.5 165.5t1 142v217q-2 66 -10 192q50 -2 100 -2t99 2q-15 -121 -17 -200q-2 -63 -2.5 -180t-1.5 -154q-6 -441 -6 -445q0 -192 14 -465q-74 9 -98 9q-26 0 -100 -9z" />
<glyph unicode="J" horiz-adv-x="512" d="M-96 -246q73 8 108 23q39 16 67.5 43.5t44.5 55.5t26.5 71t14 73t7.5 78q1 94 2 284t2 284v413q-2 116 -14 346q1 0 19.5 -3t44.5 -6t44 -3q14 0 29 1t34 2.5t29 2.5q-12 -328 -12 -493q0 -64 1 -193t1 -194q0 -59 -1 -179.5t-1 -181.5q0 -26 -4 -76q-18 -245 -199 -344 q-44 -24 -88.5 -37t-138.5 -28z" />
<glyph unicode="K" horiz-adv-x="1150" d="M154 -23q12 147 18 291q6 154 6 465q0 29 1 89t1 91q0 87 -10 512q51 -10 98 -10q25 0 58.5 3t38.5 3q-18 -283 -21 -387q-2 -90 -2 -274q27 15 43 26t34 27.5t28.5 28t40.5 44.5t55 60t194 207q160 176 242 266q64 -8 92 -8q25 0 94 6q-197 -173 -288 -260 q-127 -119 -365 -373q24 -32 75 -94.5t75 -93.5q14 -18 40 -51.5t39 -50.5q17 -21 54.5 -63.5t54.5 -63.5q14 -17 54 -69.5t63 -80.5q58 -71 211 -242q-68 3 -115 3q-23 0 -41 -1q-26 0 -80 -4l-61 90l-432 545q-30 38 -47.5 52t-57.5 32q-5 -150 -5 -279q0 -55 1 -106 q2 -106 14 -330q-54 9 -100 9q-38 0 -100 -9z" />
<glyph unicode="L" horiz-adv-x="894" d="M152 -20q12 162 16 231q3 56 8 332q4 242 4 364q0 88 -4 264q-2 43 -7 130.5t-7 130.5q2 0 24 -5t42 -7.5t44 -2.5q30 0 97 6q-17 -243 -25 -428q-4 -147 -4 -448q0 -201 2 -471q227 0 342 4q126 4 195 8v-119q-285 15 -453 15q-94 0 -274 -4z" />
<glyph unicode="M" horiz-adv-x="1835" d="M53 -18q36 149 45 198q22 114 47 283q6 39 17.5 117.5t17.5 117.5q24 172 96 752h41q57 -129 82 -178q38 -68 90 -166q11 -21 40 -80t46 -90q18 -36 55 -101t52 -92t44 -82t44 -83q23 -37 82 -140q27 -49 78 -149q232 409 299 530q56 103 169 309t169 308h30 q5 -49 22.5 -228.5t29.5 -295t26 -228.5q16 -127 97 -715q-62 6 -128 6q-39 0 -79 -2q-19 342 -37 547q-22 222 -70 537q-48 -86 -145.5 -258t-145.5 -258q-126 -234 -186 -355q-39 -82 -88 -198h-19q-8 18 -31 70.5t-36 80.5q-54 101 -68 131q-5 9 -34 70.5t-46 93.5 q-71 128 -98 180q-22 39 -60 112.5t-44 84.5q-18 32 -144 252q-42 -306 -71 -588q-20 -202 -41 -493h-148z" />
<glyph unicode="N" horiz-adv-x="1536" d="M141 -14q18 208 23 340q1 37 3 111.5t3 111.5q2 106 2 319q0 244 -14 582h45q147 -178 260 -299q68 -72 274 -283l301 -313q38 -39 114 -115.5t114 -115.5l1 288v160q0 128 -1 129q-1 50 -11 311q-3 36 -8 107t-8 106q35 -6 68 -6q25 0 77 6q-20 -329 -26 -493 q-6 -163 -6 -328q0 -213 12 -635l-45 -6q-47 68 -73.5 101.5t-80.5 93.5l-43 49l-104 117q-70 78 -215 227l-283 295q-88 88 -260 256q0 -494 4 -635q2 -78 17 -485q-46 4 -102 4h-38z" />
<glyph unicode="O" horiz-adv-x="1748" d="M109 696q0 190 63 328q90 201 280.5 312.5t415.5 111.5q119 0 230 -31q169 -49 302 -163t193 -273q47 -126 47 -283q0 -268 -143 -458q-107 -144 -272.5 -219.5t-350.5 -75.5q-45 0 -93 5.5t-121 21.5t-153.5 55.5t-150.5 97.5q-247 204 -247 571zM297 745q-2 -32 -2 -63 q0 -166 46 -296q54 -155 198 -257q162 -109 333 -109q137 0 267 68q45 24 85.5 56.5t84 85.5t74.5 117.5t51 156.5t20 198q0 276 -135 453q-49 65 -111 111q-72 53 -166 81.5t-190 28.5q-166 0 -305 -101t-201 -263q-49 -124 -49 -267z" />
<glyph unicode="P" horiz-adv-x="1024" d="M156 -25q18 219 20 377q2 61 2 156v50q0 43 -1 80q0 74 1 124q0 49 2 149t2 150q0 57 -10 364l111 -8h317q26 0 76 -4q232 -18 317 -160q49 -89 49 -190q0 -105 -50 -195.5t-138 -144.5q-133 -84 -360 -84q-52 0 -150 4q-8 -254 -8 -379q0 -147 6 -291q-79 9 -96 9 q-11 0 -90 -7zM338 709h127q205 0 315 122q80 93 80 230q0 67 -22 123q-20 48 -71.5 92t-139.5 57q-49 7 -176 7q-42 0 -93 -1q-16 -285 -18 -432q-2 -66 -2 -198z" />
<glyph unicode="Q" horiz-adv-x="1748" d="M113 698q0 94 17 178t46 146t56.5 104t58.5 76q57 65 129 114t134 73.5t130.5 39.5t109 18t78.5 3q160 -1 302 -55t247 -150t166.5 -237t61.5 -306t-64 -319q-85 -197 -264 -313q-79 -51 -236 -99q156 -86 232 -129q127 -74 172 -98q35 -18 166 -78v-24q-60 -20 -88 -33 t-82 -45l-570 381q-93 2 -134 6.5t-122 25.5q-48 9 -98 27q-15 5 -36 15l-21 10q-101 56 -156 104q-119 103 -177 250.5t-58 314.5zM299 717q0 -115 10 -178q44 -293 262 -430q130 -86 306 -86q128 0 239 51q48 23 92.5 55.5t92.5 87.5t82 122t56.5 164.5t22.5 209.5 q0 99 -19.5 186t-48.5 147.5t-70.5 112t-78.5 82t-78 55.5q-143 82 -301 82q-129 0 -243 -59q-45 -23 -85.5 -54t-84.5 -83t-75.5 -115t-53.5 -154t-25 -196z" />
<glyph unicode="R" horiz-adv-x="1150" d="M160 -25q16 226 18 340q2 143 2 435q0 225 -12 675q141 -8 207 -10q35 0 103 1t102 1q54 -4 82.5 -7t74 -12t75 -22t63.5 -37.5t61 -58.5q61 -82 61 -193q0 -58 -22 -124q-30 -77 -96 -136t-148 -90q-58 -23 -180 -41q7 -7 24 -21.5t25 -23.5q14 -13 27 -27t27.5 -32.5 t21.5 -28t26 -34.5t23 -31q20 -25 96 -115q3 -3 84 -107q60 -72 96 -112q11 -13 30.5 -37.5t36 -44t32.5 -35.5q11 -13 74 -76q-82 11 -125 11q-27 0 -115 -9q-11 15 -41.5 59.5t-48.5 67.5q-56 74 -94 119q-13 17 -50.5 66.5t-58.5 74.5q-50 57 -84 101q-27 32 -92 114 q-33 37 -125 130q-2 -132 -2 -231t2 -165q2 -107 18 -334q-54 7 -94 7q-22 0 -58.5 -3t-45.5 -4zM342 750q9 0 52 -3.5t67 -3.5q85 0 155 23q96 31 146.5 111t50.5 186q0 141 -90 219q-75 64 -207 64q-43 0 -162 -9q-9 -194 -12 -383q-2 -51 -2 -102t2 -102z" />
<glyph unicode="S" horiz-adv-x="1024" d="M88 2l35 176h20q67 -81 125 -108q86 -37 176 -37q67 2 142 28q54 24 91.5 63t54 81.5t22.5 74t6 58.5q0 34 -6 63q-27 123 -170 197q-32 17 -133 59.5t-150 75.5q-64 44 -102.5 106t-48 105.5t-9.5 85.5q0 103 47 182q57 106 169 166t239 60q36 0 74 -5t74 -14 t58.5 -15.5t52 -17t30.5 -10.5q-19 -55 -27 -84q-3 -14 -8 -40.5t-8 -39.5h-27q-35 40 -47 50q-84 79 -207 79q-155 0 -229 -96q-49 -70 -49 -145q0 -69 36 -125q19 -32 46 -57.5t63.5 -46.5t64 -34t73.5 -32t67 -29q47 -20 117 -65q31 -21 53.5 -41t52 -57t46 -91.5 t16.5 -120.5q0 -114 -53.5 -211.5t-147.5 -156.5q-121 -78 -299 -78q-67 0 -134.5 9.5t-195.5 37.5z" />
<glyph unicode="T" horiz-adv-x="1067" d="M10 1311v116q30 -3 52 -5.5t46 -4.5t36 -3.5t36 -2.5t31 -1.5t36 -0.5h36h46h52q52 0 149.5 -1t178 -1t151.5 2q66 2 213 10q-2 -32 -1.5 -60.5t1.5 -55.5q-156 12 -235 14q-102 6 -201 6q-8 -488 -8 -729q0 -276 10 -621q-56 7 -114 7q-37 0 -74 -3q14 394 14 676v322 q2 78 2 137.5t-2 99.5q0 54 -6 109q-128 3 -203 3q-38 0 -62 -1q-74 -2 -184 -12z" />
<glyph unicode="U" horiz-adv-x="1536" d="M178 1423q66 -10 98 -10q26 0 91 6q-15 -387 -17 -633q0 -182 -2 -274q4 -119 25 -184q12 -37 31.5 -73t55.5 -76.5t82.5 -70.5t116.5 -49.5t152 -19.5q176 0 293 94q89 76 123 180q26 70 33 201q6 351 6 352q0 132 -23 551q53 -8 108 -8q28 0 56 2q-26 -221 -29 -313 q-3 -45 -4 -97t-1 -116t-1 -99l-6 -208q-2 -37 -10 -111q-29 -209 -135 -340q-67 -85 -146 -123q-91 -46 -192 -53q-80 -8 -119 -8q-24 0 -46.5 1t-72.5 7.5t-92.5 18t-97 35.5t-98 56.5t-83.5 85t-63 117.5q-27 78 -31 238q4 320 4 479q0 221 -6 442z" />
<glyph unicode="V" horiz-adv-x="1366" d="M8 1425q53 -3 102 -3q65 0 123 5q11 -30 32.5 -93t33.5 -93q61 -180 84 -240q17 -41 50.5 -122.5t49.5 -122.5q18 -45 51 -135.5t50 -135.5q59 -150 127 -311q11 26 91.5 222t123.5 298q20 48 59 143.5t59 143.5q55 132 99 254q30 91 57 180q52 -2 93 -2t71 2 q-158 -320 -223 -465q-33 -74 -91 -211.5t-79 -185.5q-20 -45 -74.5 -162.5t-81.5 -181.5q-9 -20 -94 -240q-56 8 -131 8q-133 389 -219 611q-27 69 -80.5 195t-67.5 161q-16 37 -56.5 137t-64.5 154q-17 37 -53 108.5t-41 81.5z" />
<glyph unicode="W" horiz-adv-x="2091" d="M10 1425q57 -5 119 -5q46 0 94 3q103 -380 178 -630q66 -220 197 -603q66 160 84 211q16 45 49.5 147t52.5 154q12 34 53 148t66.5 189t48.5 149q32 98 66 233l133 -2q84 -301 129 -440q17 -52 50.5 -155.5t49.5 -155.5q15 -42 41.5 -126t40.5 -126q34 -104 82 -226 q21 64 86 253t99 292q99 294 130 403t66 281q64 -6 88 -6q28 0 78 4q-46 -101 -78 -176q-16 -40 -45 -120t-45 -120q-16 -43 -48.5 -128t-47.5 -128q-31 -80 -84 -241q-6 -17 -46 -128.5t-61 -170.5q-6 -17 -69 -232q-34 2 -62 2q-43 0 -75 -4q-67 235 -89 308 q-45 140 -157 475q-26 76 -75 215t-69 198q-40 -108 -110.5 -310.5t-87.5 -250.5q-107 -304 -142 -395q-5 -15 -23 -63.5t-26 -75.5q-15 -50 -24 -99l-146 2q-5 20 -14.5 58.5t-18 70t-16.5 58.5q-10 38 -32.5 106.5t-28.5 89.5q-10 33 -31 99.5t-31 99.5q-18 61 -59 182 q-20 57 -56 174.5t-57 176.5q-37 113 -127 335z" />
<glyph unicode="X" horiz-adv-x="1150" d="M8 -20q86 110 127 167q72 102 146 215q163 233 229 326q-102 174 -150 252q-31 52 -118 193q-6 10 -39.5 67t-52.5 86q-34 54 -99 141q1 0 23.5 -3t52.5 -6t51 -3q16 0 47 2t47 2q70 -132 115 -207q11 -18 31 -49.5t36.5 -58t30.5 -49.5q57 -93 131 -228q18 26 67.5 94.5 t74.5 106.5q7 10 106 166l10 16l111 209q51 -9 71 -11q9 -1 27 0q26 0 70 1q-84 -107 -231 -305q-75 -102 -250 -356q170 -291 241 -408q43 -70 234 -367q-70 4 -103 4q-53 0 -116 -10q-46 97 -86 168q-69 117 -88 150q-9 16 -49 85t-62 105q-39 67 -80 125 q-135 -201 -198 -306.5t-175 -320.5q-60 9 -91 10h-14q-29 0 -77 -3z" />
<glyph unicode="Y" horiz-adv-x="1193" d="M10 1430q69 -11 119 -11q37 0 107 4q126 -250 190 -362q105 -187 219 -369q123 200 225 383q112 218 172 346q40 -3 80 -3t80 3q-179 -266 -252 -383q-80 -128 -256 -432q-3 -178 -3 -277q0 -59 1 -89q2 -50 9.5 -144.5t9.5 -118.5q-47 3 -97 3t-104 -3q15 288 16 345 q2 88 2 264z" />
<glyph unicode="Z" horiz-adv-x="1280" d="M47 -20l2 38q107 138 170 226q45 62 309 442q26 37 269 375q29 43 89 130t89 130q-113 2 -338 2q-50 2 -100.5 1.5t-100.5 -1.5q-100 -4 -295 -20v122q368 -12 553 -12q61 -1 143 -1q163 0 408 3v-33q-67 -80 -129 -159q-48 -62 -160 -215q-42 -63 -114 -164 q-155 -215 -279 -398q-57 -81 -254 -370q108 -1 209 -1q167 0 311 3q62 2 131 5t153.5 7t131.5 6v-127q-549 19 -692 19q-166 0 -506 -8z" />
<glyph unicode="[" horiz-adv-x="555" d="M150 -150q9 182 12 363q2 117 2 348q6 552 6 555q0 148 -8 438q143 -10 174 -10q58 0 168 8v-75l-209 -2q-12 -496 -14 -744q-4 -271 0 -809q111 -5 131 -4q26 0 80 4l-3 -74q-152 5 -186 5q-25 0 -76 -1.5t-77 -1.5z" />
<glyph unicode="\" horiz-adv-x="724" d="M74 1446h121l469 -1483h-123z" />
<glyph unicode="]" horiz-adv-x="555" d="M59 -76l209 2q15 272 15 441q1 95 1 285.5t1 285.5q0 49 1 148t1 149q0 123 -6 246h-211v75q122 -8 182 -8q54 0 160 4q-11 -270 -11 -292q0 -170 -2 -254q0 -30 -1 -92t-1 -93q-1 -66 -1 -196t-1 -195q0 -43 -1 -128t-1 -128q0 -147 10 -332q-116 15 -178 15 q-42 0 -166 -9v76z" />
<glyph unicode="^" horiz-adv-x="1492" d="M319 717l369 729h129l357 -729h-156l-268 561l-275 -561h-156z" />
<glyph unicode="_" horiz-adv-x="1024" d="M-20 -301h1064v-121h-1064v121z" />
<glyph unicode="`" horiz-adv-x="598" d="M-150 1430v30h187l211 -348h-47q-142 137 -172 164q-33 30 -99.5 86t-79.5 68z" />
<glyph unicode="a" d="M47 231q0 38 12 78q33 106 129 162q45 26 111.5 46.5t150 39.5t117.5 29q47 12 60 30q24 24 24 82q0 50 -20 90q-18 39 -49.5 66t-66.5 37.5t-57.5 14t-41.5 3.5q-15 0 -41 -3t-71 -16t-75 -34q-24 -19 -71 -80h-17v90q45 40 64 52q105 71 272 71q39 0 88 -8q17 -2 38 -8 t54 -19.5t63 -39t48 -58.5q15 -29 21 -59t6 -88v-457q0 -88 16 -127q17 -36 46 -53t54 -17q26 0 50 8l12 -30q-102 -56 -166 -56q-37 0 -72 15q-38 18 -56 44.5t-34 72.5q-76 -67 -134 -98q-93 -48 -189 -48q-68 0 -117 23q-71 30 -114.5 98t-43.5 147zM213 258 q3 -92 43 -139q19 -26 57 -49t90 -23q67 0 135.5 42t94.5 101q16 36 24 129l-2 230q-106 -23 -188 -47q-120 -31 -180 -82q-41 -33 -57.5 -70.5t-16.5 -91.5z" />
<glyph unicode="b" horiz-adv-x="1193" d="M141 -18q11 236 11 391q0 207 2 309q2 123 2 365q-1 88 -11 501q46 -5 100 -5q41 0 87 3q-22 -213 -25 -291q-2 -58 -2.5 -165.5t-1.5 -141.5q0 -30 -1 -92t-1 -92q66 89 102 123q112 100 265 100q117 0 219 -63q57 -35 98.5 -85.5t62 -96t32.5 -100t14 -84.5t2 -62 q0 -224 -133 -383q-57 -76 -158 -121q-87 -35 -184 -35q-68 0 -125 12q-70 14 -113.5 34t-112.5 65l-67 -86h-62zM294 394v-11q0 -46 15 -118q17 -80 51 -132q33 -49 91 -80q64 -35 139 -35q52 0 119 27q56 27 100 76.5t68 109.5q26 62 38 154q7 79 7 117q0 76 -15 139 q-6 25 -14.5 49t-31 63.5t-51.5 68t-78 50t-109 21.5q-25 0 -52 -5t-62.5 -18.5t-71.5 -44t-66 -73.5q-72 -108 -76 -287v-18q0 -21 -1 -53z" />
<glyph unicode="c" d="M96 471q0 212 119 350q151 168 385 168q170 0 334 -74q-20 -37 -28.5 -61t-22.5 -88l-19 8q-19 38 -30.5 54t-30.5 30q-32 26 -71.5 44t-59.5 22q-30 6 -62 6q-102 0 -190 -66q-33 -27 -58 -61q-36 -52 -67 -135.5t-31 -190.5q0 -27 2.5 -55t13.5 -76t30 -90t56 -88.5 t87 -79.5q95 -59 194 -59q23 0 51.5 3.5t77.5 20t84 45.5q23 16 55 62h25l-16 -113q-57 -32 -76 -39q-117 -49 -264 -49q-184 0 -312 104q-58 46 -97 107.5t-54 123t-20 100.5t-5 77z" />
<glyph unicode="d" horiz-adv-x="1193" d="M94 453q0 92 28.5 193t78.5 169q59 80 153.5 126t194.5 46q79 0 156 -30.5t126 -86.5q18 -18 56 -73q2 120 2 215q0 143 -4 233q-3 82 -21 299q50 -6 99 -6t98 6q-18 -239 -23 -395v-69v-139q2 -134 2 -177q0 -49 -1 -139t-1 -164t2 -139q1 -68 6.5 -194t6.5 -153 q-56 8 -124 8q-24 0 -50 -1q8 68 8 145v31q-16 -31 -56 -78q-113 -127 -288 -127q-121 0 -232 65q-71 44 -118.5 107.5t-67 130.5t-25.5 111t-6 86zM266 473v-11q0 -89 30 -185q32 -102 91 -162q47 -48 103.5 -66t99.5 -18q132 0 223 123q70 94 84 268q4 62 4 90 q0 91 -22 164q-32 101 -109 166t-178 65q-127 0 -217 -108q-109 -133 -109 -326z" />
<glyph unicode="e" horiz-adv-x="1110" d="M92 467q0 107 39 207q14 36 33.5 70.5t58 80.5t85 79.5t118 57t154.5 23.5q57 0 100 -8q163 -26 250 -135q49 -58 74 -131q26 -82 30 -240q-266 12 -399 12q-121 0 -363 -8q2 -40 13 -98q32 -231 186 -307q89 -43 195 -43q127 0 219 65q25 18 73 70l23 -8l-23 -109 q-61 -34 -73 -39q-116 -51 -281 -51q-132 0 -233 43q-130 59 -204.5 188t-74.5 281zM283 543h585q0 24 -4 78q-10 171 -116 251q-75 52 -164 52q-139 0 -222 -113q-38 -57 -57 -117q-15 -53 -22 -151z" />
<glyph unicode="f" horiz-adv-x="555" d="M37 874v91l151 -7q3 124 18 194q28 124 105 237q52 79 113 120q53 31 162 39v-159l-27 -17q-27 20 -43.5 27.5t-42.5 7.5q-42 0 -84 -25q-72 -50 -72 -176q0 -43 6 -102.5t11.5 -101.5t5.5 -44l235 7v-91l-231 9q0 -311 -2 -469q-2 -76 -2 -150.5t2 -148.5l6 -142 q-79 9 -92 9q-32 0 -86 -9l12 86q6 74 6 226q0 39 -1 116.5t-1 116.5q0 244 2 367z" />
<glyph unicode="g" horiz-adv-x="1024" d="M51 -248q0 58 21 101q18 40 59 77t71 54.5t85 46.5q-34 5 -56 14q-28 13 -47.5 34t-28 43t-11.5 38.5t-3 29.5q0 41 23 84q25 43 60 64.5t95 42.5q-64 30 -94 51q-54 40 -83 104t-29 134q0 102 59 178q50 68 140.5 102.5t181.5 34.5q25 0 75 -4q51 -6 156 -14 q65 -6 129 -9l147 11v-80l-225 10q41 -28 66 -51q67 -72 67 -189q0 -132 -88 -213q-41 -39 -109 -69.5t-159 -30.5q-13 0 -54.5 2t-76.5 2t-55 -4q-34 -10 -59 -36t-25 -60q0 -49 49 -86q37 -23 139 -23q1 0 38.5 -0.5t47 -1t45.5 -1.5t51.5 -3t48 -5t51.5 -7.5t44.5 -10.5 t45 -14t36.5 -18q39 -24 65.5 -59.5t37 -73t14 -61t3.5 -46.5q0 -123 -59 -219q-21 -34 -55.5 -66.5t-85 -64t-123 -51t-154.5 -19.5q-48 0 -73 2q-124 13 -201 47q-91 41 -142 111q-55 75 -55 172zM178 -215q-2 -21 -2 -41q0 -116 80 -182q39 -31 107 -56.5t155 -25.5 q195 0 297 133q55 74 55 154q0 69 -34 120q-10 17 -22 30.5t-28.5 24t-28 18.5t-33.5 14t-31.5 9.5t-36.5 7t-33.5 4.5t-36.5 4t-33 3q-13 1 -53 4.5t-62 3.5q-99 0 -168 -51q-81 -58 -92 -174zM276 668q0 -17 1 -34t7.5 -48.5t18 -58t34.5 -54.5t54 -45q50 -29 117 -29 q42 0 88 17q49 21 83 57t47.5 76.5t18.5 68.5t5 52q0 52 -21 116q-17 44 -46.5 75t-62.5 45.5t-59 20t-49 5.5q-44 0 -90 -21q-139 -66 -146 -243z" />
<glyph unicode="h" horiz-adv-x="1150" d="M150 1550q57 -6 117 -6q34 0 69 2q-6 -47 -14 -141q-1 -34 -2.5 -101.5t-2.5 -101.5q0 -272 2 -405q36 51 62 77q103 107 295 107q143 0 237 -84q53 -47 72 -100q19 -52 19 -170q-7 -168 -7 -289q0 -106 17 -363q-50 4 -99 3.5t-96 -3.5q14 70 17 140l8 485 q-2 95 -21 141q-17 46 -49 77.5t-68.5 45t-62.5 18.5t-49 5q-118 0 -201 -86q-42 -45 -56 -99.5t-18 -136.5q-3 -142 -3 -236q0 -47 1 -83q1 -52 6.5 -149t6.5 -120q-46 4 -90 3.5t-88 -3.5q14 280 14 482q0 95 -3 284.5t-3 284.5q0 40 1 113t1 133.5t-2 114.5 q-2 57 -10 161z" />
<glyph unicode="i" horiz-adv-x="468" d="M145 1331q0 19 9 37q11 22 36.5 34.5t53.5 12.5q17 0 41 -8q28 -15 38.5 -42.5t10.5 -45.5q0 -38 -29.5 -63t-71.5 -25q-38 0 -63 29.5t-25 70.5zM150 -25q14 219 14 283q1 1 1 52v64q-1 114 -1 115q0 242 -2 289q-4 130 -8 201q78 -12 98 -12q13 0 27 1t30.5 2.5 t26.5 2.5q-21 -361 -21 -516q0 -131 13 -482q-44 3 -89 3z" />
<glyph unicode="j" horiz-adv-x="468" d="M-78 -522q1 0 19 -3t30 -3q41 2 82 36q29 26 48 58.5t29 74.5t14 72t8 78q4 144 4 215q1 49 1 105t-0.5 124.5t-0.5 106.5q0 195 -2 289q-1 86 -15 340q49 -4 77 -4h11q29 1 86 10q-8 -360 -8 -543q0 -294 6 -586q0 -2 -1.5 -29.5t-2.5 -38.5t-5 -41.5t-10 -49t-17 -48.5 t-26 -52t-37 -47.5t-50 -47.5q-63 -50 -113 -63q-31 -9 -108 -9zM139 1343q0 15 6 33q6 17 30.5 35.5t60.5 18.5q38 0 65 -27t27 -66q0 -19 -11 -41q-12 -23 -38 -38q-24 -13 -50 -13h-4q-8 0 -21 3t-14 3q-23 12 -37 38.5t-14 53.5z" />
<glyph unicode="k" horiz-adv-x="1024" d="M152 -23q12 372 12 560q0 65 -1 196t-1 197q2 110 2 220t-2 220q-1 30 -3 90.5t-3 89.5q70 -8 94 -8q32 0 86 6q-17 -444 -19 -618q0 -60 5 -377q2 0 12 1.5t19.5 3t22.5 5.5t23 10q29 15 156 146q11 10 16 16q43 44 61 63.5t58 67t86 107.5q53 -6 107 -6q45 0 92 6 q-34 -25 -56.5 -41t-46.5 -35.5t-34 -27t-35 -29.5t-32 -28.5t-42.5 -39.5t-50.5 -47q-28 -26 -88 -80t-90 -82q81 -80 96 -98q14 -17 43 -50.5t43 -49.5q30 -33 154 -177q14 -15 82 -98q47 -52 108 -110q-74 4 -111 4q-44 0 -112 -7q-69 82 -223 269q-144 173 -148 178 q-35 40 -53 53q-21 18 -57 31q0 -17 -3.5 -98.5t-3.5 -126.5q0 -53 15 -308q-1 0 -17.5 2t-39 4.5t-37.5 2.5q-16 0 -45.5 -3t-38.5 -4z" />
<glyph unicode="l" horiz-adv-x="468" d="M137 -23q20 375 21 449q2 57 2 174l-1 175v97q0 78 1 78v385q-3 108 -6 213q53 -10 76 -12h14q29 0 94 4q-12 -160 -16 -248q-2 -81 -3 -232t-2 -186q0 -82 -2 -247t-2 -248q0 -137 4 -207q1 -31 4.5 -96t4.5 -99q-7 0 -43.5 3.5t-57.5 3.5q-17 0 -49 -3.5t-39 -3.5z" />
<glyph unicode="m" horiz-adv-x="1792" d="M147 -23q13 193 15 263q2 113 2 340q0 71 -4 211q-4 124 -8 188q48 -12 92 -12q16 0 46.5 3t35.5 3v-187q25 39 51 68q20 25 40 43t53.5 39.5t81.5 33t107 11.5q174 0 259 -111q22 -30 51 -94q39 59 51 74q50 62 124.5 95.5t158.5 33.5q104 0 193 -53t122 -142 q18 -47 18 -139l-8 -524l12 -148q-9 1 -44 4t-54 3q-16 0 -98 -5q14 90 16 177l8 426q0 128 -36 194q-19 38 -60 66q-61 39 -143 39q-117 0 -185 -80q-33 -38 -46 -87.5t-21 -123.5v-480l8 -133q-9 1 -46.5 4t-57.5 3q-11 0 -88 -5q18 101 22 211v430q-5 43 -9 67t-14 57 t-28 57.5t-45 44.5q-58 41 -131 41q-132 -2 -211 -97q-24 -31 -37.5 -72.5t-16.5 -71.5t-6 -83v-319l5 -263q-48 3 -92 3t-83 -3z" />
<glyph unicode="n" horiz-adv-x="1150" d="M145 -23q17 427 17 605q0 149 -15 395q49 -8 99 -8q28 0 82 4q0 -5 -3 -40.5t-3 -53.5q-3 -43 -3 -88q31 46 52 71q104 119 276 119q119 0 201 -41q37 -18 66 -46t40.5 -47.5t18.5 -37.5q20 -52 28 -164q-1 -48 -2 -143.5t-2 -143.5v-213q1 -28 5.5 -86t5.5 -86 q-79 9 -107 9q-11 0 -84 -5q18 163 23 273q2 53 2 315q-2 54 -4.5 79t-11 65t-27.5 68t-51 52q-64 50 -160 50q-95 0 -162 -50q-65 -49 -85 -111.5t-26 -166.5q-1 -68 -1 -131q0 -105 3 -197q0 -29 3.5 -82t3.5 -65l8 -103q-70 11 -99 11q-37 0 -88 -7z" />
<glyph unicode="o" horiz-adv-x="1236" d="M80 500q4 149 78.5 262t194 170t265.5 57q110 0 213 -39q139 -58 220.5 -189t81.5 -286q0 -110 -41 -209q-24 -58 -58.5 -106t-71 -79.5t-79.5 -55t-80 -36t-77 -20.5t-66.5 -10t-51.5 -2q-35 0 -74.5 4.5t-100.5 23t-113.5 48.5t-106 87t-86.5 132q-47 109 -47 248z M248 494v-19q0 -64 12 -134q14 -81 41 -136q30 -60 72 -96q53 -53 114 -74q52 -17 113 -17q103 0 182 48q32 20 61.5 51t58 78.5t46 117.5t17.5 152q0 147 -46 248.5t-110 150.5q-89 66 -201 66q-67 0 -133 -27q-61 -25 -106 -72t-67 -93.5t-35.5 -102t-16 -85.5t-2.5 -56z " />
<glyph unicode="p" horiz-adv-x="1193" d="M141 -575q17 221 17 237q4 92 4 277q0 1 -1 230v127q0 102 1 103q4 131 4 223q0 37 -1 67q-2 106 -20 290q58 -10 97 -10q36 0 84 6q-13 -99 -13 -205q26 36 39.5 54t37 44t48.5 45q102 76 234 76q89 0 170.5 -36t140.5 -101q123 -131 123 -371q0 -188 -96 -327 q-15 -21 -33 -43t-52.5 -51.5t-72 -51.5t-91.5 -37.5t-112 -15.5q-97 0 -170 35t-110 76q-8 9 -17 20t-16 21.5t-12.5 19t-10 15.5t-4.5 8q-1 -92 -1 -184t1 -185q2 -57 17 -356q-60 10 -93 10q-5 0 -92 -10zM307 457v-20q0 -212 82 -310q20 -29 72 -59q81 -48 143 -48 q53 0 118 31t120 105q90 122 90 329q0 84 -19 158q-31 115 -108.5 187.5t-188.5 72.5q-76 0 -139.5 -38.5t-105.5 -106.5q-64 -105 -64 -301z" />
<glyph unicode="q" horiz-adv-x="1193" d="M92 465q0 116 37 217q49 135 158 220t250 85q165 0 280 -115q36 -36 66 -81l-6 180q48 -4 79 -4q4 0 8 1q32 0 89 7q-17 -374 -17 -529q0 -66 1 -199t1 -200v-350q2 -46 6.5 -139.5t6.5 -139.5q-64 13 -95 13q-10 0 -84 -9q13 268 15 359q1 95 1 191.5t-1 193.5 q-70 -91 -121 -131q-102 -82 -238 -82q-96 0 -206 57q-52 30 -92.5 71.5t-64 86.5t-39.5 87.5t-23 86.5t-9 71t-2 52zM260 481v-19q0 -97 28 -194q31 -106 99 -164q76 -71 195 -71q58 1 107.5 22.5t80 50.5t55.5 67.5t35 63t17 46.5q22 81 22 192q0 187 -59 287 q-20 40 -70 82q-74 63 -174 63q-80 0 -150 -41q-50 -28 -87.5 -75t-55.5 -91t-28.5 -95t-12.5 -77t-2 -47z" />
<glyph unicode="r" horiz-adv-x="641" d="M137 -23q2 55 8.5 214t9.5 269.5t3 215.5q0 28 -11 303q4 -2 34 -7t52 -5q27 0 82 8l-14 -219q24 41 74 110q89 115 192 115q24 0 74 -10l-10 -144l-27 -14q-4 2 -16.5 7.5t-17 7.5t-14.5 6t-16.5 5.5t-15.5 3t-18 1.5q-35 0 -68.5 -16.5t-48 -30.5t-24.5 -27 q-45 -60 -56 -186q-8 -172 -8 -262q0 -115 16 -349q-49 11 -98 11q-16 0 -46 -3.5t-36 -3.5z" />
<glyph unicode="s" horiz-adv-x="811" d="M78 23q19 37 27.5 62t21.5 87l23 -2q1 -1 9 -12.5t14.5 -20t17.5 -20.5t24.5 -22t28.5 -17q15 -9 62.5 -24t86.5 -15q110 0 170 88q33 49 33 106q0 111 -125 164q-15 7 -33.5 14t-33 11.5t-17.5 5.5q-105 29 -154 59q-48 29 -76.5 73.5t-35 76t-6.5 61.5q0 110 73 187 q92 98 258 98q70 0 123.5 -13.5t124.5 -43.5q-25 -55 -53 -140h-25q-30 58 -51 80q-52 54 -139 54q-70 0 -119 -37q-30 -22 -48.5 -57.5t-18.5 -71.5q0 -70 63 -117q37 -29 141 -64q131 -45 183 -79q38 -23 72.5 -71.5t33.5 -121.5q0 -83 -43 -151q-51 -87 -149.5 -137 t-208.5 -50q-25 0 -50.5 2.5t-48.5 7.5t-41 9.5t-38.5 11.5t-31 11t-26.5 10.5t-18 7.5z" />
<glyph unicode="t" horiz-adv-x="641" d="M49 874v89l127 -7l-6 218q68 21 170 77l18 -22q-18 -89 -22 -133t-4 -142q44 -1 84 -1q67 0 125 3q16 1 46 4.5t46 4.5v-93q-127 10 -154 11h-151v-531q0 -33 2 -49q0 -21 1.5 -41.5t12 -61.5t28.5 -70.5t57 -53t93 -23.5q56 0 148 45v-69q-159 -64 -256 -64 q-120 0 -187 78q-30 37 -45 84q-10 39 -10 131l10 625z" />
<glyph unicode="u" horiz-adv-x="1150" d="M158 305v670q51 -7 111 -7q24 0 50 1l-4 -609q2 -99 22.5 -163.5t86.5 -104.5q58 -35 129 -35q90 0 166.5 56.5t105.5 144.5q17 48 19 135q4 113 4 209q0 68 -2 127q-1 35 -3 75.5t-5 89.5t-4 77q55 -6 111 -6q31 0 63 2q-13 -373 -13 -521q0 -118 9 -473q-80 11 -93 11 q-16 0 -42.5 -3t-34.5 -4l10 187q-39 -45 -58.5 -65.5t-53 -51t-68 -48.5t-76.5 -30q-63 -14 -107 -14q-86 0 -164 39q-24 12 -44.5 27.5t-35.5 30t-27 34.5t-20 34.5t-14 36.5t-9 34.5t-5 34.5t-2.5 29.5t-1 28t-0.5 21.5z" />
<glyph unicode="v" d="M8 977q1 0 18 -2t40 -4t38 -2t31.5 1t36.5 2.5t31 2.5q91 -267 166 -461q15 -40 151 -362q128 292 172 405q43 108 152 418q39 -6 71 -6q24 0 70 4q-127 -260 -207 -430q-93 -194 -149 -338q-24 -60 -84 -232q-34 4 -67 4q-24 0 -48 -2q-95 251 -199 494 q-100 236 -223 508z" />
<glyph unicode="w" horiz-adv-x="1579" d="M4 975q62 -4 94 -4q33 0 99 4q56 -195 106 -340q46 -140 166 -459q121 313 168 445q48 138 119 356q30 -3 59 -3t55 3q38 -155 61 -227.5t79 -220.5q10 -27 16 -42q5 -12 113 -305q99 229 137 326q77 201 166 463q27 -1 52 -1q49 0 87 5q-108 -212 -133 -266 q-30 -66 -137 -326q-39 -97 -170 -412q-30 6 -54 6q-5 0 -51 -4q-16 49 -49.5 148.5t-50.5 148.5q-51 159 -84 252q-55 140 -88 217q-150 -388 -160 -415q-82 -234 -121 -351q-34 6 -72 6q-21 0 -44 -2q-133 401 -189 551q-40 113 -174 447z" />
<glyph unicode="x" horiz-adv-x="937" d="M8 -25q137 152 187 215q46 56 202 269q-152 226 -202 291q-25 34 -54 70.5t-67 83t-56 69.5q49 -6 101 -6q55 0 114 6q55 -101 91 -154q19 -26 56 -79.5t56 -80.5q45 -68 53 -81q82 102 135 173.5t72.5 102t73.5 117.5q40 -4 84 -4q30 0 61 2q-114 -124 -131 -144 q-6 -7 -110 -139q-12 -16 -37.5 -47t-38.5 -47q-36 -53 -57 -86q113 -168 194 -279q42 -59 197 -256q-52 6 -107 6q-47 0 -96 -6l-280 428q-108 -144 -150 -204q-18 -27 -143 -224q-46 7 -74 7q-3 0 -6 1q-26 0 -68 -4z" />
<glyph unicode="y" d="M6 981q57 -10 107 -10q47 0 96 6q69 -204 125 -356q64 -171 178 -451q129 279 182 410.5t142 400.5q58 -14 88 -14q14 0 67 6q-97 -180 -119 -225q-57 -115 -167 -349q-115 -241 -136 -288l-123 -287q-9 -21 -40 -97.5t-48 -119.5q-12 -31 -33 -94t-32 -91q-42 7 -76 7 q-24 0 -74 -4q7 13 39 66t39 65t32 56.5t37.5 70.5t36 74t47 100.5t52.5 119.5q-180 452 -258 635q-80 184 -162 369z" />
<glyph unicode="z" d="M47 18q22 28 66 85.5t79 102.5t68 85q19 24 111 138.5t139 176.5q32 40 66 86t75.5 103.5t63.5 87.5h-82l-328 -9l-164 -14l1 10q2 10 3.5 23t1.5 22q0 15 -6 56q338 -13 465 -13q138 0 332 7v-37q-48 -62 -143.5 -183.5t-143.5 -183.5q-164 -205 -237 -303 q-24 -32 -135 -195q242 0 395 7q80 4 256 16q-10 -33 -10 -57q0 -12 8 -58q-451 11 -492 11q-163 0 -389 -7v43z" />
<glyph unicode="{" horiz-adv-x="724" d="M172 506v10q57 14 88 53q13 16 22.5 39.5t14.5 44.5t8 54t4 49.5t1.5 51t0.5 40.5v346q2 87 21 152.5t71 113.5q42 37 91 51q27 9 147 21v-12q-56 -15 -90.5 -33t-61.5 -57q-9 -14 -16.5 -29.5t-12 -28.5t-8 -32.5t-5 -30.5t-2.5 -34t-1 -31v-33.5v-30.5v-203 q0 -143 -4 -215q0 -112 -45 -176q-35 -52 -112 -78q61 -20 96 -55q14 -14 24 -31.5t17 -32.5t12 -41t7.5 -41.5t4 -51.5t1.5 -53.5t0.5 -65.5t0.5 -70v-228q0 -92 6 -136.5t25 -84.5q25 -52 61.5 -75t102.5 -44v-10q-12 1 -33.5 3t-32.5 3q-120 8 -186 76q-12 12 -21.5 27 t-17 27.5t-13.5 32t-9.5 30.5t-6.5 34t-4.5 32.5t-3 35t-1.5 32t-0.5 34t-0.5 30.5v334q0 51 -1.5 80t-13 71.5t-34.5 73.5q-35 45 -90 62z" />
<glyph unicode="|" horiz-adv-x="468" d="M174 -512v2044h121v-2044h-121z" />
<glyph unicode="}" horiz-adv-x="724" d="M84 -502q54 14 89.5 33t62.5 57q9 13 16.5 29t12 29t8 33t5 31t2.5 34t1 31v33v30v205q0 143 4 215q4 116 45 176q35 50 112 76q-61 20 -94 57q-14 14 -24.5 31.5t-18 32t-12.5 40.5t-7.5 41t-4 51.5t-1.5 53.5t-0.5 65.5t-0.5 69.5v312l-1 10q0 11 -0.5 16.5t-2.5 19 t-4 23t-6 24.5t-8.5 26t-11.5 25t-15.5 25.5t-20.5 23t-25 20.5q-32 23 -100 43v12q10 -1 31.5 -3t31.5 -3q1 0 14 -1.5t20 -2.5t22.5 -4t26.5 -7t27.5 -10.5t29.5 -14t27.5 -19t27.5 -25.5q27 -30 43 -65.5t21.5 -86.5t6.5 -73.5t1 -83.5v-332q0 -52 1.5 -80.5t13 -71.5 t34.5 -74q30 -39 90 -63v-10q-60 -17 -88 -51q-10 -12 -18 -29t-13 -31.5t-8.5 -38.5t-5.5 -37.5t-3 -41.5t-1 -36.5v-37v-29.5v-258q-2 -31 -2 -88q-2 -86 -21 -151t-71 -113q-29 -28 -91 -54q-38 -12 -147 -18v10z" />
<glyph unicode="~" horiz-adv-x="1492" d="M274 582q47 67 87 100q75 61 167 61q38 0 82 -12t72.5 -24t75.5 -35l67 -31q6 -2 19 -8t17 -7.5t14.5 -6t14 -5.5t11.5 -4t12 -4t10.5 -2.5t11.5 -2t11 -1t12 -0.5q59 1 103.5 35t93.5 94l64 -113q-70 -88 -133.5 -122.5t-129.5 -34.5q-41 0 -80 13t-118 50l-60 29 q-102 51 -170 51q-17 0 -33 -3.5t-28 -7.5t-26 -14.5t-21.5 -15.5t-21.5 -21.5t-18.5 -21.5t-19.5 -25l-18 -24z" />
<glyph unicode="&#xa1;" horiz-adv-x="555" d="M139 1358q10 30 42.5 51t66.5 21q12 0 35 -9q29 -12 48 -43t19 -65q0 -41 -34 -70t-78 -31q-22 0 -45 13q-33 19 -49.5 58.5t-4.5 74.5zM141 76q0 14 9 61l67 950h45l55 -956q11 -71 -2 -100q-9 -24 -34 -42t-52 -18q-30 0 -59 29t-29 76z" />
<glyph unicode="&#xa3;" horiz-adv-x="1193" d="M45 -23v123q55 0 82 2q119 7 195 62q53 39 78.5 105.5t25.5 191.5q0 47 -14 215h-240v69l234 -10q-4 118 -3 156q7 196 99 326q34 48 79 84t84.5 55t84.5 30t73.5 14t57.5 3q47 0 106 -12q39 -9 73.5 -24.5t57 -30t64.5 -44.5q-32 -29 -46.5 -45.5t-39.5 -52.5h-23 q-31 63 -35 68q-26 34 -75 51.5t-99 17.5q-103 0 -172 -59q-78 -68 -98 -183.5t-12 -351.5q191 -4 286 0q35 0 105 4v-82q-141 13 -191 15q-66 2 -196 2q-2 -132 -15 -209q-8 -58 -26.5 -108.5t-33 -79.5t-47.5 -66.5t-43 -46.5t-48 -41q-7 -7 -11 -10q154 3 308 0 q179 -4 266 -2q35 1 73.5 3t86 5t73.5 4q-5 -84 2 -158q-511 19 -645 19q-121 0 -481 -9z" />
<glyph unicode="&#xa4;" horiz-adv-x="1366" d="M117 223l153 150q-21 29 -35 51t-34.5 64.5t-31.5 96t-11 113.5t11 112.5t31.5 93.5t34.5 62.5t35 49.5l-149 149l92 92l149 -147q147 111 322 111q144 0 262 -70q23 -14 58 -41l151 150l94 -95l-151 -151q25 -32 45 -64q65 -112 65 -254q0 -145 -67 -256 q-18 -34 -45 -67l151 -154l-94 -92l-152 154q-38 -30 -57 -41q-106 -70 -262 -70q-140 0 -254 66q-7 4 -66 45l-153 -150zM281 696q1 -173 118 -289t289 -116q134 0 238 78q157 123 157 327q0 144 -79 248q-19 24 -43 46t-63.5 49.5t-95.5 44t-118 16.5q-172 0 -287.5 -116 t-115.5 -288z" />
<glyph unicode="&#xa6;" horiz-adv-x="468" d="M174 389h121v-780h-121v780zM174 631v780h121v-780h-121z" />
<glyph unicode="&#xa7;" horiz-adv-x="937" d="M80 729q0 53 20.5 103t43 80t67.5 81q-33 48 -45 79t-12 81q0 142 71 227q21 25 51 50.5t91.5 53t124.5 27.5q30 0 88 -10q58 -11 104.5 -29.5t62.5 -29t54 -37.5q-4 -7 -11 -21.5t-9.5 -19.5t-7.5 -17t-8.5 -22t-9 -26.5t-12.5 -38.5l-24 2q-25 69 -41 94 q-64 86 -186 86q-51 0 -91 -17q-61 -24 -99 -77.5t-38 -120.5q0 -61 37 -109q13 -17 27 -30.5t36.5 -26.5t32 -18t41.5 -20t37 -17q15 -7 42.5 -19.5t50 -22.5t42.5 -18q96 -44 140 -74q112 -78 112 -221q-1 -50 -18.5 -99t-37.5 -81t-58 -84q12 -14 26 -39q45 -65 45 -153 q0 -132 -90 -236q-120 -137 -334 -137q-71 0 -137 17t-95 31.5t-69 37.5q12 52 14.5 80.5t2.5 89.5l32 -2q29 -65 54 -94q30 -35 92.5 -61.5t150.5 -26.5q54 0 103 16q71 22 117.5 82.5t46.5 138.5q0 106 -107 178q-26 17 -61.5 32.5t-84.5 33.5t-63 24q-109 45 -168.5 81.5 t-91.5 78.5q-51 72 -51 170zM166 788q0 -52 33 -98q20 -25 52.5 -47.5t54 -32.5t63.5 -28l252 -111l90 -45q34 45 51.5 81t17.5 79q0 49 -28 88q-17 25 -45.5 46t-46.5 30.5t-56 27.5l-201 86q-74 38 -157 94q-27 -32 -41 -52t-26.5 -52t-12.5 -66z" />
<glyph unicode="&#xa8;" horiz-adv-x="598" d="M-188 1352q7 28 35 47.5t59 19.5q36 -1 63 -31t27 -67q0 -35 -30.5 -61.5t-67.5 -26.5q-41 0 -69 39.5t-17 79.5zM225 1358q7 27 36 44t61 17q37 -2 62.5 -27t25.5 -63q0 -39 -30.5 -66.5t-68.5 -27.5q-21 0 -35 8q-28 15 -44 50t-7 65z" />
<glyph unicode="&#xa9;" horiz-adv-x="1705" d="M125 725q0 264 166 467q28 32 58.5 61.5t84 67.5t112 65.5t140.5 46.5t170 19q247 0 434 -141q35 -26 68 -57.5t76.5 -87t74.5 -117t53 -149t21 -181.5q-7 -280 -180 -479q-102 -118 -246 -182t-303 -64q-156 0 -297.5 61.5t-245.5 175.5q-186 203 -186 494zM190 723 q0 -131 50 -252q75 -187 244 -299.5t372 -112.5q95 0 211 35q203 67 325 239.5t124 387.5q0 227 -132 403q-24 32 -52 61.5t-77 68t-103.5 66t-132.5 47t-163 19.5q-223 0 -393 -126q-32 -23 -63 -51t-70.5 -78.5t-69 -106.5t-50 -135.5t-20.5 -165.5zM395 723 q0 203 135.5 341t337.5 138q197 0 336 -139q3 -3 45 -51l-88 -80q-17 21 -29 34t-41.5 38.5t-58 40.5t-72.5 27.5t-92 12.5q-70 0 -136.5 -27t-115.5 -77q-37 -35 -69.5 -100.5t-32.5 -153.5q0 -67 25 -131q38 -103 128.5 -165t200.5 -62q129 0 224 77q20 14 69 72l86 -74 q-24 -30 -26 -32q-21 -24 -48.5 -47t-72.5 -50.5t-107.5 -45t-130.5 -17.5q-99 0 -194 41q-129 58 -201 173.5t-72 256.5z" />
<glyph unicode="&#xab;" horiz-adv-x="768" d="M66 594q78 110 127 186q50 76 126 209l82 -51l-229 -344l238 -338l-84 -57q-52 86 -144 229zM373 592q107 152 129 184q9 13 129 209l80 -49l-234 -348q116 -157 154 -215q9 -12 82 -123l-76 -51q-39 59 -68 106q-9 16 -28.5 47t-28.5 47t-18.5 30.5t-16 24.5t-16.5 24 t-14.5 20.5t-16.5 22t-16 20.5l-20 25t-21 26z" />
<glyph unicode="&#xac;" horiz-adv-x="1366" d="M0 537v120h1366v-657h-123v537h-1243z" />
<glyph unicode="&#xad;" horiz-adv-x="681" d="M88 524v148q252 -6 254 -6q88 0 264 8v-146q-185 9 -250 9q-73 0 -268 -13z" />
<glyph unicode="&#xae;" horiz-adv-x="1705" d="M125 725q0 264 166 467q28 32 58.5 61.5t84 67.5t112 65.5t140.5 46.5t170 19q175 0 328 -76t258 -217q144 -194 141 -440q0 -42 -6 -87t-22 -110t-53.5 -136.5t-92.5 -135.5q-68 -80 -151.5 -135.5t-163 -79.5t-135.5 -32.5t-105 -8.5q-249 0 -446 149q-34 27 -66 58 t-73.5 85.5t-71.5 115t-51 146t-21 177.5zM190 723q0 -131 50 -252q75 -187 244 -299.5t372 -112.5q112 0 223 39q198 70 317.5 241t121.5 382q0 223 -129 399q-24 32 -52 62t-78 69t-105 67t-134 48t-164 20q-223 0 -393 -126q-32 -23 -63 -51t-70.5 -78.5t-69 -106.5 t-50 -135.5t-20.5 -165.5zM561 270v912h281q122 0 169 -10q82 -18 130 -72q51 -73 51 -146q0 -129 -117 -192q-41 -18 -86 -27q44 -15 66 -33q17 -13 30.5 -31t21.5 -33t15 -40.5t9.5 -38t7 -44t6.5 -40.5q19 -127 57 -205l-153 2q-19 40 -29 86t-23 142q-12 80 -32 115.5 t-62 56.5q-23 11 -49.5 16t-42 5.5t-51.5 0.5h-66v-424h-133zM696 801h154q109 0 154 30q53 37 53 113q0 46 -27 84q-27 35 -68.5 43t-142.5 8h-123v-278z" />
<glyph unicode="&#xb0;" horiz-adv-x="724" d="M61 1231q0 125 88.5 213t212.5 88q126 0 214 -88t88 -213q0 -64 -25 -119q-35 -83 -111 -132.5t-166 -49.5q-126 0 -213.5 88t-87.5 213zM184 1229q0 -72 52.5 -124t125.5 -52q75 0 126 52t51 126q0 75 -52 126.5t-127 51.5q-73 -2 -124.5 -54t-51.5 -126z" />
<glyph unicode="&#xb1;" horiz-adv-x="1366" d="M84 0v121h1198v-121h-1198zM84 776v121h541v524h120v-524h537v-121h-537v-524h-120v524h-541z" />
<glyph unicode="&#xb4;" horiz-adv-x="598" d="M-37 1112l223 348h189v-39q-74 -56 -119 -94q-69 -58 -238 -215h-55z" />
<glyph unicode="&#xb5;" horiz-adv-x="1150" d="M150 754q0 79 12 116q21 76 82 76q25 0 41 -16q39 -32 39 -125q0 -63 -11 -164q-8 -63 -24 -195q-11 -114 -25 -188q21 -54 43 -86q29 -43 73 -68.5t95 -25.5q53 0 92 22q37 20 67 53.5t47 69t26 59.5t12 40q32 121 29 346q0 16 -1.5 49t-1.5 49q0 57 7 98q1 10 4 19.5 t11 26t24.5 26.5t39.5 10q34 -1 56 -20t30.5 -54t10.5 -58t2 -58q0 -326 -99 -531q11 -34 33 -59.5t37 -34.5q24 -12 47 -12q48 0 72 37q4 5 14 39q4 24 4 45q0 18 -4 41l53 2q27 -72 27 -136q0 -72 -32.5 -121.5t-100.5 -48.5q-55 0 -106.5 43.5t-77.5 135.5 q-24 -40 -72 -88q-45 -45 -105.5 -72t-123.5 -27q-127 0 -215 111q-17 20 -29 41q0 -3 -1 -18.5t-1 -24t-0.5 -27t0 -32.5t1.5 -35t3.5 -39.5t6.5 -41t9 -44.5q15 -59 27 -88q8 -20 35 -70q12 -21 29.5 -49.5t25.5 -42t14.5 -31.5t6.5 -33q0 -35 -21.5 -57.5t-56.5 -22.5 q-46 0 -77.5 36t-53.5 114q-33 120 -33 287q0 191 24 352q-16 117 -22 168q-6 61 -14 190q-4 94 -4 142z" />
<glyph unicode="&#xb6;" horiz-adv-x="1366" d="M184 1051q0 71 21 133q27 87 92 149t154 90q75 23 184 23h452v-90h-67v-1698h-94v1698h-322v-1698h-94v1020q-62 8 -98 20q-112 41 -170 136t-58 217z" />
<glyph unicode="&#xb7;" horiz-adv-x="382" d="M70 594q0 50 36.5 85.5t86.5 35.5q27 0 45 -8q33 -13 54 -45.5t21 -69.5q0 -51 -37 -87t-88 -34q-32 0 -47 10q-31 13 -51 45.5t-20 67.5z" />
<glyph unicode="&#xb8;" horiz-adv-x="598" d="M51 -449l2 66q66 -33 115 -33q50 0 93.5 36t43.5 87q0 46 -31 76.5t-75 30.5q-38 0 -88 -33l-25 10q25 60 34 90.5t21 93.5h43l-20 -120l24 10q1 0 14 0.5t23.5 0.5t27.5 -1.5t32 -5.5t31 -11t31 -19t26 -28q28 -45 28 -96q0 -28 -11.5 -56t-35 -54t-67 -42t-99.5 -16 q-55 0 -137 14z" />
<glyph unicode="&#xbb;" horiz-adv-x="768" d="M59 940l82 51q77 -130 107 -176q30 -47 153 -225q-91 -120 -136 -188t-120 -199l-79 51l231 340zM367 934l84 53q69 -118 135 -217q32 -46 127 -172q-92 -125 -136.5 -193.5t-121.5 -201.5l-86 51l237 342z" />
<glyph unicode="&#xbf;" horiz-adv-x="724" d="M68 238q0 28 4 55t15.5 55t20.5 49.5t29 50.5t30.5 45t37 46.5t36.5 41.5t39.5 43.5t36.5 39.5q34 38 54.5 64t43.5 71.5t23 83.5q0 44 -35 78t-79 34q-18 0 -64 -14l-22 10l26 62q84 8 130 -3q84 -19 128 -92q37 -62 37 -141q0 -40 -11.5 -78t-36.5 -75t-46 -62.5 t-57 -64.5q-88 -98 -111 -127q-51 -63 -70.5 -109t-19.5 -92q0 -43 18 -82q23 -46 73.5 -74t107.5 -28q47 0 79.5 16.5t73.5 54.5h16l-2 -90q-114 -47 -204 -47q-65 0 -127 21q-80 31 -127 100.5t-47 157.5zM266 1368q10 31 42 51.5t67 20.5q42 0 72 -32t30 -77 q0 -42 -33.5 -72t-78.5 -30q-52 0 -84 44.5t-15 94.5z" />
<glyph unicode="&#xc0;" horiz-adv-x="1323" d="M-6 -16q78 136 115 206q8 15 135 269q19 36 85.5 159.5t100.5 192.5q23 47 67 141.5t66 141.5q10 21 44 87.5t52 104.5q13 24 70 152h37q9 -25 56 -157t73 -202q12 -30 42 -104t51.5 -128t39.5 -106q15 -38 42.5 -113.5t41.5 -113.5q34 -88 86 -223q8 -20 21.5 -56.5 t25.5 -67t23 -56.5q17 -41 59 -131q-83 6 -91 6.5t-130 -0.5q-27 114 -40 162.5t-46 144.5t-92 242h-541q-77 -148 -151 -312q-20 -45 -52.5 -129t-44.5 -112q-36 6 -76 6q-23 0 -69 -4zM424 623q207 -9 278 -9q83 0 193 7q-34 111 -50 158.5t-54 146.5t-99 239 q-103 -196 -123 -237q-46 -91 -145 -305zM512 1737v28h188l170 -245l-104 2q-10 9 -51.5 47.5t-65.5 58.5q-60 52 -137 109z" />
<glyph unicode="&#xc1;" horiz-adv-x="1323" d="M-6 -16q78 136 115 206q8 15 135 269q19 36 85.5 159.5t100.5 192.5q23 47 67 141.5t66 141.5q10 21 44 87.5t52 104.5q13 24 70 152h37q9 -25 56 -157t73 -202q12 -30 42 -104t51.5 -128t39.5 -106q15 -38 42.5 -113.5t41.5 -113.5q34 -88 86 -223q8 -20 21.5 -56.5 t25.5 -67t23 -56.5q17 -41 59 -131q-83 6 -91 6.5t-130 -0.5q-27 114 -40 162.5t-46 144.5t-92 242h-541q-77 -148 -151 -312q-20 -45 -52.5 -129t-44.5 -112q-36 6 -76 6q-23 0 -69 -4zM424 623q207 -9 278 -9q83 0 193 7q-34 111 -50 158.5t-54 146.5t-99 239 q-103 -196 -123 -237q-46 -91 -145 -305zM647 1528l160 250h188v-33l-256 -217h-92z" />
<glyph unicode="&#xc2;" horiz-adv-x="1323" d="M-6 -16q78 136 115 206q8 15 135 269q19 36 85.5 159.5t100.5 192.5q23 47 67 141.5t66 141.5q10 21 44 87.5t52 104.5q13 24 70 152h37q9 -25 56 -157t73 -202q12 -30 42 -104t51.5 -128t39.5 -106q15 -38 42.5 -113.5t41.5 -113.5q34 -88 86 -223q8 -20 21.5 -56.5 t25.5 -67t23 -56.5q17 -41 59 -131q-83 6 -91 6.5t-130 -0.5q-27 114 -40 162.5t-46 144.5t-92 242h-541q-77 -148 -151 -312q-20 -45 -52.5 -129t-44.5 -112q-36 6 -76 6q-23 0 -69 -4zM424 623q207 -9 278 -9q83 0 193 7q-34 111 -50 158.5t-54 146.5t-99 239 q-103 -196 -123 -237q-46 -91 -145 -305zM473 1579q96 66 147 111q38 34 91 86h77q79 -73 123.5 -108t135.5 -95l-107 -51q-10 10 -29 29.5t-34.5 35t-30.5 29.5q-14 13 -30 27.5t-36.5 31.5t-31.5 27l-185 -178z" />
<glyph unicode="&#xc3;" horiz-adv-x="1323" d="M-6 -16q78 136 115 206q8 15 135 269q19 36 85.5 159.5t100.5 192.5q23 47 67 141.5t66 141.5q10 21 44 87.5t52 104.5q13 24 70 152h37q9 -25 56 -157t73 -202q12 -30 42 -104t51.5 -128t39.5 -106q15 -38 42.5 -113.5t41.5 -113.5q34 -88 86 -223q8 -20 21.5 -56.5 t25.5 -67t23 -56.5q17 -41 59 -131q-83 6 -91 6.5t-130 -0.5q-27 114 -40 162.5t-46 144.5t-92 242h-541q-77 -148 -151 -312q-20 -45 -52.5 -129t-44.5 -112q-36 6 -76 6q-23 0 -69 -4zM416 1589q61 100 105 140t102 40q55 0 165 -45q3 -1 21.5 -9.5t24 -11t21.5 -8.5 t24.5 -8t21.5 -4t25 -2q25 0 49 9q16 7 29.5 21.5t19 25t16.5 35.5l47 -27q-20 -40 -36 -65.5t-40.5 -55.5t-54.5 -45.5t-65 -15.5q-22 0 -48 6t-47 13t-22 7q-5 2 -35 14.5t-40.5 16.5t-34.5 12t-43 10.5t-39 2.5q-42 0 -63.5 -16t-47.5 -58zM424 623q207 -9 278 -9 q83 0 193 7q-34 111 -50 158.5t-54 146.5t-99 239q-103 -196 -123 -237q-46 -91 -145 -305z" />
<glyph unicode="&#xc4;" horiz-adv-x="1323" d="M-6 -16q78 136 115 206q8 15 135 269q19 36 85.5 159.5t100.5 192.5q23 47 67 141.5t66 141.5q10 21 44 87.5t52 104.5q13 24 70 152h37q9 -25 56 -157t73 -202q12 -30 42 -104t51.5 -128t39.5 -106q15 -38 42.5 -113.5t41.5 -113.5q34 -88 86 -223q8 -20 21.5 -56.5 t25.5 -67t23 -56.5q17 -41 59 -131q-83 6 -91 6.5t-130 -0.5q-27 114 -40 162.5t-46 144.5t-92 242h-541q-77 -148 -151 -312q-20 -45 -52.5 -129t-44.5 -112q-36 6 -76 6q-23 0 -69 -4zM412 1466q10 27 37.5 44.5t58.5 17.5q35 0 60.5 -29.5t25.5 -68.5q0 -19 -6 -33 q-10 -24 -37 -40t-55 -16q-44 0 -71 41.5t-13 83.5zM424 623q207 -9 278 -9q83 0 193 7q-34 111 -50 158.5t-54 146.5t-99 239q-103 -196 -123 -237q-46 -91 -145 -305zM899 1444q0 19 6 33q10 24 36 39.5t56 15.5q25 0 35 -10q17 -6 35 -31t18 -61q0 -37 -29.5 -63 t-68.5 -26q-20 3 -33 9q-24 10 -39.5 37t-15.5 57z" />
<glyph unicode="&#xc5;" horiz-adv-x="1323" d="M-6 -16q78 136 115 206q8 15 135 269q19 36 85.5 159.5t100.5 192.5q23 47 67 141.5t66 141.5q10 21 44 87.5t52 104.5q13 24 70 152h37q9 -25 56 -157t73 -202q12 -30 42 -104t51.5 -128t39.5 -106q15 -38 42.5 -113.5t41.5 -113.5q34 -88 86 -223q8 -20 21.5 -56.5 t25.5 -67t23 -56.5q17 -41 59 -131q-83 6 -91 6.5t-130 -0.5q-27 114 -40 162.5t-46 144.5t-92 242h-541q-77 -148 -151 -312q-20 -45 -52.5 -129t-44.5 -112q-36 6 -76 6q-23 0 -69 -4zM424 623q207 -9 278 -9q83 0 193 7q-34 111 -50 158.5t-54 146.5t-99 239 q-103 -196 -123 -237q-46 -91 -145 -305zM524 1724q7 31 25 58q24 36 72 66t120 30q22 0 48.5 -3.5t70 -24t68.5 -54.5q33 -53 33 -104q0 -32 -21 -76q-61 -105 -195 -105q-64 1 -112 23t-71.5 55.5t-33 68.5t-4.5 66zM616 1720q-8 -59 30.5 -109t94.5 -50q52 1 88.5 39.5 t36.5 91.5q0 55 -37 94t-90 39q-47 0 -81 -30t-42 -75z" />
<glyph unicode="&#xc6;" horiz-adv-x="1748" d="M-47 -20q320 443 418 587q67 98 191 287.5t140 214.5q66 104 236 352q254 -16 381 -16q56 0 321 10v-115q-173 18 -255 22t-246 3q-10 -168 -13 -291q-3 -132 0 -264q78 2 232 2q20 0 62 -1t63 -1q43 2 119 10l-11 -104q-165 12 -245 14q-78 0 -230 -4q0 -32 0.5 -91.5 t0.5 -108.5t-1 -93v-180q2 -53 10 -145q251 -5 311 -2.5t218 16.5l-6 -117q-270 12 -402 12q-107 0 -319 -4q2 27 6 75t7 88t5 75q4 98 4 295q-168 8 -252 10t-256 2q-29 -43 -125 -190q-26 -43 -104 -187l-80 -166q-72 9 -100 9q-26 0 -80 -4zM483 592q226 -12 230 -12 q121 -3 241 0q0 31 3.5 170t3.5 213q0 83 -9 333z" />
<glyph unicode="&#xc7;" horiz-adv-x="1409" d="M100 745q0 65 16.5 149t41.5 144q20 45 47 88q47 75 105.5 132t103.5 88q192 135 467 135q196 0 354 -66q16 -7 94 -47l-43 -170h-26q-46 62 -68 82q-121 119 -330 119q-159 0 -264 -62q-80 -39 -149 -123q-28 -33 -37 -47q-35 -51 -41 -75q-76 -160 -76 -355 q0 -127 35.5 -256.5t105.5 -214.5q1 -1 16.5 -17.5t38 -39.5t39.5 -37q50 -40 136 -74q116 -49 235 -49q57 0 137 17q64 14 121 43.5t79.5 47.5t58.5 51q2 1 3 2l2.5 2.5l2.5 2.5l22 -6l-39 -150q-152 -66 -260 -82q-106 -12 -168 -10l-12 -82q46 4 67 4q68 0 113 -34 q6 -4 14 -12.5t12 -14.5l5 -6q4 -5 8 -13t6.5 -13.5t3.5 -6.5q0 -1 3 -12t5 -22.5t2 -24.5q0 -37 -18 -73.5t-49 -59.5q-64 -46 -160 -46q-74 0 -125 17l-4 70q75 -33 121 -33q55 0 94 31t39 85q0 23 -6 41q-9 30 -31 48t-38.5 22t-32.5 4q-51 0 -82 -43l-33 19 q15 33 22.5 51.5t13 39t7 27t6.5 37.5q-172 12 -319 88q-68 36 -95 58q-19 15 -53 45q-6 4 -18 16q-36 29 -80 88q-112 148 -135 334q-6 42 -9 88q0 10 -1 30.5t-1 30.5z" />
<glyph unicode="&#xc8;" d="M158 -23q16 243 18 361q4 139 4 422q0 29 1 89t1 91q0 83 -10 483q266 -16 397 -16q55 0 305 10q-9 -56 -2 -110q-246 15 -292 16h-218q-9 -126 -12 -254q-2 -47 -2 -285q36 0 107.5 -1t107.5 -1q65 0 254 9v-113q-94 11 -130 14.5t-134.5 7t-206.5 -1.5q-7 -245 -4 -438 q3 -92 6 -180q185 -4 279 -2q129 3 254 12v-115q-240 11 -394 11q-79 0 -329 -9zM268 1737v28h187l170 -245l-105 2q-10 9 -51.5 47.5t-65.5 58.5q-48 42 -135 109z" />
<glyph unicode="&#xc9;" d="M158 -23q16 243 18 361q4 139 4 422q0 29 1 89t1 91q0 83 -10 483q266 -16 397 -16q55 0 305 10q-9 -56 -2 -110q-246 15 -292 16h-218q-9 -126 -12 -254q-2 -47 -2 -285q36 0 107.5 -1t107.5 -1q65 0 254 9v-113q-94 11 -130 14.5t-134.5 7t-206.5 -1.5q-7 -245 -4 -438 q3 -92 6 -180q185 -4 279 -2q129 3 254 12v-115q-240 11 -394 11q-79 0 -329 -9zM401 1528l160 250h189v-33l-256 -217h-93z" />
<glyph unicode="&#xca;" d="M158 -23q16 243 18 361q4 139 4 422q0 29 1 89t1 91q0 83 -10 483q266 -16 397 -16q55 0 305 10q-9 -56 -2 -110q-246 15 -292 16h-218q-9 -126 -12 -254q-2 -47 -2 -285q36 0 107.5 -1t107.5 -1q65 0 254 9v-113q-94 11 -130 14.5t-134.5 7t-206.5 -1.5q-7 -245 -4 -438 q3 -92 6 -180q185 -4 279 -2q129 3 254 12v-115q-240 11 -394 11q-79 0 -329 -9zM238 1579q70 47 112 80.5t127 116.5h78q83 -77 125.5 -111t130.5 -92l-106 -51q-8 8 -41 42t-52 52q-63 55 -100 86l-184 -178z" />
<glyph unicode="&#xcb;" d="M158 -23q16 243 18 361q4 139 4 422q0 29 1 89t1 91q0 83 -10 483q266 -16 397 -16q55 0 305 10q-9 -56 -2 -110q-246 15 -292 16h-218q-9 -126 -12 -254q-2 -47 -2 -285q36 0 107.5 -1t107.5 -1q65 0 254 9v-113q-94 11 -130 14.5t-134.5 7t-206.5 -1.5q-7 -245 -4 -438 q3 -92 6 -180q185 -4 279 -2q129 3 254 12v-115q-240 11 -394 11q-79 0 -329 -9zM205 1657q9 26 36.5 42.5t57.5 16.5q19 0 31 -6q24 -12 39.5 -39t15.5 -55q0 -35 -29 -59.5t-67 -24.5q-25 0 -41 10q-28 17 -40.5 50.5t-2.5 64.5zM618 1659q9 27 36.5 43t58.5 16 q36 -1 62 -30t26 -68q0 -36 -30.5 -62t-68.5 -26q-25 0 -43 12q-27 19 -39 52.5t-2 62.5z" />
<glyph unicode="&#xcc;" horiz-adv-x="512" d="M23 1737v28h188l168 -245l-105 2q-76 72 -114 106q-55 45 -137 109zM156 -25q12 136 18 281q4 100 4 307q0 49 -0.5 139.5t-0.5 165.5t1 142v217q-2 66 -10 192q101 -4 199 0q-15 -121 -17 -200q-2 -63 -2.5 -180t-1.5 -154q-6 -441 -6 -445q0 -192 14 -465q-74 9 -98 9 q-26 0 -100 -9z" />
<glyph unicode="&#xcd;" horiz-adv-x="512" d="M156 -25q12 136 18 281q4 100 4 307q0 49 -0.5 139.5t-0.5 165.5t1 142v217q-2 66 -10 192q101 -4 199 0q-15 -121 -17 -200q-2 -63 -2.5 -180t-1.5 -154q-6 -441 -6 -445q0 -192 14 -465q-74 9 -98 9q-26 0 -100 -9zM158 1528l157 250h189v-33l-256 -217h-90z" />
<glyph unicode="&#xce;" horiz-adv-x="512" d="M-18 1579q70 47 112 80.5t127 116.5h78q83 -77 125.5 -111t130.5 -92l-106 -51q-8 8 -41 42t-52 52q-63 55 -100 86l-184 -178zM156 -25q12 136 18 281q4 100 4 307q0 49 -0.5 139.5t-0.5 165.5t1 142v217q-2 66 -10 192q101 -4 199 0q-15 -121 -17 -200 q-2 -63 -2.5 -180t-1.5 -154q-6 -441 -6 -445q0 -192 14 -465q-74 9 -98 9q-26 0 -100 -9z" />
<glyph unicode="&#xcf;" horiz-adv-x="512" d="M-41 1657q9 26 36.5 42.5t57.5 16.5q19 0 31 -6q25 -12 41 -39t16 -55q0 -35 -29.5 -59.5t-68.5 -24.5q-25 0 -41 10q-28 17 -40.5 50.5t-2.5 64.5zM156 -25q12 136 18 281q4 100 4 307q0 49 -0.5 139.5t-0.5 165.5t1 142v217q-2 66 -10 192q101 -4 199 0 q-15 -121 -17 -200q-2 -63 -2.5 -180t-1.5 -154q-6 -441 -6 -445q0 -192 14 -465q-74 9 -98 9q-26 0 -100 -9zM373 1659q10 27 37.5 43t56.5 16q38 -1 63 -30t25 -68q0 -36 -30 -62t-68 -26q-25 0 -43 12q-27 19 -39 52.5t-2 62.5z" />
<glyph unicode="&#xd1;" horiz-adv-x="1536" d="M141 -14q18 208 23 340q1 37 3 111.5t3 111.5q2 106 2 319q0 244 -14 582h45q147 -178 260 -299q68 -72 274 -283l301 -313q38 -39 114 -115.5t114 -115.5l1 288q1 288 -1 289q-1 50 -11 311q-3 36 -8 107t-8 106q35 -6 68 -6q25 0 77 6q-20 -329 -26 -493 q-6 -163 -6 -328q0 -213 12 -635l-45 -6q-47 68 -73.5 101.5t-80.5 93.5l-43 49l-104 117q-70 78 -215 227l-283 295q-88 88 -260 256q0 -494 4 -635q2 -78 17 -485q-62 6 -140 4zM426 1589q61 100 105 140t102 40q56 0 166 -45q5 -2 22 -10t23.5 -10.5t21 -8t24 -8t22 -4.5 t24.5 -2q25 0 49 9q16 7 29.5 21t19.5 26t17 35l47 -27q-20 -39 -36 -65t-41 -56t-55 -45.5t-65 -15.5q-22 0 -48 6t-47 13t-22 7q-8 3 -35 15t-39.5 16.5t-35 11.5t-42 10t-40.5 3q-42 0 -63 -16t-46 -58z" />
<glyph unicode="&#xd2;" horiz-adv-x="1748" d="M109 696q0 190 63 328q90 201 280.5 312.5t415.5 111.5q119 0 230 -31q169 -49 302 -163t193 -273q47 -126 47 -283q0 -268 -143 -458q-107 -144 -272.5 -219.5t-350.5 -75.5q-45 0 -93 5.5t-121 21.5t-153.5 55.5t-150.5 97.5q-247 204 -247 571zM297 745 q-10 -204 44 -359t198 -257q162 -109 333 -109q137 0 267 68q45 24 85.5 56.5t84 85.5t74.5 117.5t51 156.5t20 198q0 276 -135 453q-49 65 -111 111q-72 53 -166 81.5t-190 28.5q-166 0 -305 -101t-201 -263q-49 -124 -49 -267zM631 1737v28h186l170 -245l-104 2 q-10 9 -51.5 47.5t-65.5 58.5q-48 42 -135 109z" />
<glyph unicode="&#xd3;" horiz-adv-x="1748" d="M109 696q0 190 63 328q90 201 280.5 312.5t415.5 111.5q119 0 230 -31q169 -49 302 -163t193 -273q47 -126 47 -283q0 -268 -143 -458q-107 -144 -272.5 -219.5t-350.5 -75.5q-45 0 -93 5.5t-121 21.5t-153.5 55.5t-150.5 97.5q-247 204 -247 571zM297 745 q-10 -204 44 -359t198 -257q162 -109 333 -109q137 0 267 68q45 24 85.5 56.5t84 85.5t74.5 117.5t51 156.5t20 198q0 276 -135 453q-49 65 -111 111q-72 53 -166 81.5t-190 28.5q-166 0 -305 -101t-201 -263q-49 -124 -49 -267zM766 1528l158 250h188v-33l-256 -217h-90z " />
<glyph unicode="&#xd4;" horiz-adv-x="1748" d="M109 696q0 190 63 328q90 201 280.5 312.5t415.5 111.5q119 0 230 -31q169 -49 302 -163t193 -273q47 -126 47 -283q0 -268 -143 -458q-107 -144 -272.5 -219.5t-350.5 -75.5q-45 0 -93 5.5t-121 21.5t-153.5 55.5t-150.5 97.5q-247 204 -247 571zM297 745 q-10 -204 44 -359t198 -257q162 -109 333 -109q137 0 267 68q45 24 85.5 56.5t84 85.5t74.5 117.5t51 156.5t20 198q0 276 -135 453q-49 65 -111 111q-72 53 -166 81.5t-190 28.5q-166 0 -305 -101t-201 -263q-49 -124 -49 -267zM590 1579q52 36 73 51t63.5 52t100.5 94h78 q88 -79 130 -112.5t128 -90.5l-106 -51q-15 16 -45.5 47.5t-46.5 46.5q-17 15 -51 43.5t-50 42.5l-184 -178z" />
<glyph unicode="&#xd5;" horiz-adv-x="1748" d="M109 696q0 190 63 328q90 201 280.5 312.5t415.5 111.5q119 0 230 -31q169 -49 302 -163t193 -273q47 -126 47 -283q0 -268 -143 -458q-107 -144 -272.5 -219.5t-350.5 -75.5q-45 0 -93 5.5t-121 21.5t-153.5 55.5t-150.5 97.5q-247 204 -247 571zM297 745 q-10 -204 44 -359t198 -257q162 -109 333 -109q137 0 267 68q45 24 85.5 56.5t84 85.5t74.5 117.5t51 156.5t20 198q0 276 -135 453q-49 65 -111 111q-72 53 -166 81.5t-190 28.5q-166 0 -305 -101t-201 -263q-49 -124 -49 -267zM532 1589q61 100 105 140t102 40 q56 0 166 -45q5 -2 22 -10t23.5 -10.5t21 -8t24 -8t22 -4.5t24.5 -2q26 0 50 9q16 7 29.5 21.5t19 25t16.5 35.5l47 -27q-20 -40 -36 -65.5t-40.5 -55.5t-54.5 -45.5t-65 -15.5q-22 0 -48 6t-47 13t-22 7q-6 3 -35 15t-40.5 16t-34.5 11.5t-42.5 10.5t-40.5 3 q-42 0 -62.5 -16t-45.5 -58z" />
<glyph unicode="&#xd6;" horiz-adv-x="1748" d="M109 696q0 292 157 482q106 131 265 200.5t335 69.5q49 0 103 -7t135.5 -27t169 -69.5t160.5 -121.5q107 -105 153 -230q53 -130 53 -295q0 -107 -23 -202t-57 -160t-81 -121t-87 -87.5t-83 -57.5q-92 -57 -211 -91t-226 -34q-96 0 -192 24q-197 44 -336 164 q-235 206 -235 563zM152 1470q7 28 34 46t58 18q37 0 63.5 -28t26.5 -66t-29 -66t-67 -26q-44 0 -72 40t-14 82zM297 745q-19 -417 229 -606q154 -116 344 -116q142 0 265 63q46 24 87 56.5t85 86t75.5 117.5t51.5 156.5t20 199.5q0 276 -135 453q-49 65 -111 111 q-72 53 -166 81.5t-190 28.5q-161 0 -296 -94.5t-202 -249.5q-49 -109 -57 -287zM1405 1448q0 17 4 29q10 25 36.5 41t55.5 16q21 0 37 -8q28 -16 39.5 -44t11.5 -46q0 -36 -30 -62t-68 -26q-36 0 -61 30.5t-25 69.5z" />
<glyph unicode="&#xd7;" horiz-adv-x="1366" d="M172 170l424 426l-424 422l86 86l424 -424l426 424l84 -86l-424 -422l424 -426l-84 -84l-426 424l-424 -424z" />
<glyph unicode="&#xd8;" horiz-adv-x="1748" d="M109 705q0 291 157 483q91 107 221 174q180 90 385 90q88 0 164.5 -14t140.5 -42t97.5 -46.5t83.5 -50.5q10 -6 14 -9l191 213l65 -63q-68 -59 -100 -91t-98 -104q77 -97 108 -149q102 -161 102 -406q0 -299 -182 -502q-105 -116 -259.5 -179.5t-317.5 -63.5q-54 0 -99 6 q-16 2 -52.5 9t-99.5 24t-106 36q-54 24 -139 80l-184 -221l-70 66q57 46 93.5 81t109.5 117q-91 108 -119 152q-106 168 -106 410zM297 696q0 -221 68 -348q18 -36 63 -98q53 53 78 80q22 23 59 66.5t51 58.5q26 30 78 85t64 68l184 203q49 55 338 379q-16 22 -27.5 36 t-37.5 34.5t-62 39.5q-156 76 -285 76q-110 0 -214.5 -43.5t-178.5 -120.5q-73 -77 -125.5 -204.5t-52.5 -311.5zM473 201q14 -21 62 -62q59 -46 140.5 -73.5t128.5 -33t85 -5.5q195 0 352 139q213 189 213 522q0 217 -63 344q-11 25 -66 109z" />
<glyph unicode="&#xd9;" horiz-adv-x="1536" d="M178 1423q66 -10 98 -10q26 0 91 6q-15 -387 -17 -633q0 -182 -2 -274q4 -119 25 -184q12 -37 31.5 -73t55.5 -76.5t82.5 -70.5t116.5 -49.5t152 -19.5q176 0 293 94q89 76 123 180q26 70 33 201q6 351 6 352q0 132 -23 551q79 -12 164 -6q-26 -221 -29 -313 q-3 -45 -4 -97t-1 -116t-1 -99l-6 -208q-2 -37 -10 -111q-29 -209 -135 -340q-67 -85 -146 -123q-91 -46 -192 -53q-80 -8 -119 -8q-24 0 -46.5 1t-72.5 7.5t-92.5 18t-97 35.5t-98 56.5t-83.5 85t-63 117.5q-27 78 -31 238q4 320 4 479q0 221 -6 442zM545 1737v28h188 l170 -245l-106 2q-58 55 -115 106q-90 74 -137 109z" />
<glyph unicode="&#xda;" horiz-adv-x="1536" d="M178 1423q66 -10 98 -10q26 0 91 6q-15 -387 -17 -633q0 -182 -2 -274q4 -119 25 -184q12 -37 31.5 -73t55.5 -76.5t82.5 -70.5t116.5 -49.5t152 -19.5q176 0 293 94q89 76 123 180q26 70 33 201q6 351 6 352q0 132 -23 551q79 -12 164 -6q-26 -221 -29 -313 q-3 -45 -4 -97t-1 -116t-1 -99l-6 -208q-2 -37 -10 -111q-29 -209 -135 -340q-67 -85 -146 -123q-91 -46 -192 -53q-80 -8 -119 -8q-24 0 -46.5 1t-72.5 7.5t-92.5 18t-97 35.5t-98 56.5t-83.5 85t-63 117.5q-27 78 -31 238q4 320 4 479q0 221 -6 442zM680 1528l160 250h186 v-33l-256 -217h-90z" />
<glyph unicode="&#xdb;" horiz-adv-x="1536" d="M178 1423q66 -10 98 -10q26 0 91 6q-15 -387 -17 -633q0 -182 -2 -274q4 -119 25 -184q12 -37 31.5 -73t55.5 -76.5t82.5 -70.5t116.5 -49.5t152 -19.5q176 0 293 94q89 76 123 180q26 70 33 201q6 351 6 352q0 132 -23 551q79 -12 164 -6q-26 -221 -29 -313 q-3 -45 -4 -97t-1 -116t-1 -99l-6 -208q-2 -37 -10 -111q-29 -209 -135 -340q-67 -85 -146 -123q-91 -46 -192 -53q-80 -8 -119 -8q-24 0 -46.5 1t-72.5 7.5t-92.5 18t-97 35.5t-98 56.5t-83.5 85t-63 117.5q-27 78 -31 238q4 320 4 479q0 221 -6 442zM504 1579 q70 47 112 80.5t127 116.5h78q80 -74 124 -109t132 -94l-104 -51q-10 10 -29 29.5t-34.5 35t-30.5 29.5q-46 41 -101 86l-184 -178z" />
<glyph unicode="&#xdc;" horiz-adv-x="1536" d="M178 1423q66 -10 98 -10q26 0 91 6q-15 -387 -17 -633q0 -182 -2 -274q4 -119 25 -184q12 -37 31.5 -73t55.5 -76.5t82.5 -70.5t116.5 -49.5t152 -19.5q176 0 293 94q89 76 123 180q26 70 33 201q6 351 6 352q0 132 -23 551q79 -12 164 -6q-26 -221 -29 -313 q-3 -45 -4 -97t-1 -116t-1 -99l-6 -208q-2 -37 -10 -111q-29 -209 -135 -340q-67 -85 -146 -123q-91 -46 -192 -53q-80 -8 -119 -8q-24 0 -46.5 1t-72.5 7.5t-92.5 18t-97 35.5t-98 56.5t-83.5 85t-63 117.5q-27 78 -31 238q4 320 4 479q0 221 -6 442zM492 1489 q9 29 39 49.5t63 20.5q38 -1 66 -34t28 -73q-1 -38 -33 -66t-71 -28q-25 0 -45 14q-28 17 -42 51t-5 66zM920 1462q0 16 6 31q10 27 40 45t60 18q39 0 64.5 -31t25.5 -75q0 -21 -8 -39q-12 -25 -38 -40t-56 -15q-21 0 -37 8q-26 12 -41.5 40t-15.5 58z" />
<glyph unicode="&#xdf;" horiz-adv-x="1110" d="M145 -23q19 506 19 639q0 63 -1 133t-2.5 156t-2.5 133q2 76 6.5 120.5t22.5 104t51 109.5q37 58 86.5 97.5t99 56t84 22.5t67.5 6q23 0 50 -3.5t71.5 -14.5t86.5 -39.5t69 -71.5q37 -55 37 -122q0 -95 -70 -183q-8 -10 -62 -69t-79 -102t-25 -87q0 -45 25 -76 q11 -18 23.5 -32.5t34 -30.5t29 -21.5t39.5 -24.5t34 -20q14 -8 28.5 -18.5t32 -23t27.5 -19.5q20 -15 29 -22t36 -34t41 -50.5t27.5 -62.5t13.5 -79q0 -70 -35 -145q-52 -112 -157 -178t-228 -66q-87 0 -192 39q22 49 27.5 76.5t5.5 85.5q12 -15 28 -31q80 -86 189 -86 q95 0 158 59t63 156q0 91 -74 162q-19 18 -61 49l-185 137q-38 28 -57 45.5t-35 48t-16 68.5q0 24 6 48.5t12.5 40.5t23.5 41.5t24.5 35t31.5 37.5t29 35q139 174 139 284q0 44 -10 64q-23 61 -73.5 94t-115.5 33q-119 0 -184 -92q-25 -34 -38.5 -78.5t-16.5 -75.5t-6 -88 q-1 -80 -2 -239.5t-2 -239.5q0 -48 -1.5 -145t-1.5 -146q0 -153 15 -402q-58 7 -98 7q-13 0 -91 -5z" />
<glyph unicode="&#xe0;" d="M47 231q0 38 12 78q33 106 129 162q45 26 111.5 46.5t150 39.5t117.5 29q47 12 60 30q24 24 24 82q0 50 -20 90q-18 39 -49.5 66t-66.5 37.5t-57.5 14t-41.5 3.5q-15 0 -41 -3t-71 -16t-75 -34q-24 -19 -71 -80h-17v90q45 40 64 52q105 71 272 71q39 0 88 -8q17 -2 38 -8 t54 -19.5t63 -39t48 -58.5q15 -29 21 -59t6 -88v-457q0 -88 16 -127q17 -36 46 -53t54 -17q26 0 50 8l12 -30q-102 -56 -166 -56q-37 0 -72 15q-38 18 -56 44.5t-34 72.5q-76 -67 -134 -98q-93 -48 -189 -48q-68 0 -117 23q-71 30 -114.5 98t-43.5 147zM213 258 q3 -92 43 -139q19 -26 57 -49t90 -23q67 0 135.5 42t94.5 101q16 36 24 129l-2 230q-106 -23 -188 -47q-120 -31 -180 -82q-41 -33 -57.5 -70.5t-16.5 -91.5zM213 1430v30h186l211 -348h-47q-142 137 -172 164q-4 4 -178 154z" />
<glyph unicode="&#xe1;" d="M47 231q0 38 12 78q33 106 129 162q45 26 111.5 46.5t150 39.5t117.5 29q47 12 60 30q24 24 24 82q0 50 -20 90q-18 39 -49.5 66t-66.5 37.5t-57.5 14t-41.5 3.5q-15 0 -41 -3t-71 -16t-75 -34q-24 -19 -71 -80h-17v90q45 40 64 52q105 71 272 71q39 0 88 -8q17 -2 38 -8 t54 -19.5t63 -39t48 -58.5q15 -29 21 -59t6 -88v-457q0 -88 16 -127q17 -36 46 -53t54 -17q26 0 50 8l12 -30q-102 -56 -166 -56q-37 0 -72 15q-38 18 -56 44.5t-34 72.5q-76 -67 -134 -98q-93 -48 -189 -48q-68 0 -117 23q-71 30 -114.5 98t-43.5 147zM213 258 q3 -92 43 -139q19 -26 57 -49t90 -23q67 0 135.5 42t94.5 101q16 36 24 129l-2 230q-106 -23 -188 -47q-120 -31 -180 -82q-41 -33 -57.5 -70.5t-16.5 -91.5zM326 1112l223 348h188v-39q-74 -56 -119 -94q-56 -48 -237 -215h-55z" />
<glyph unicode="&#xe2;" d="M47 231q0 38 12 78q33 106 129 162q45 26 111.5 46.5t150 39.5t117.5 29q47 12 60 30q24 24 24 82q0 50 -20 90q-18 39 -49.5 66t-66.5 37.5t-57.5 14t-41.5 3.5q-15 0 -41 -3t-71 -16t-75 -34q-24 -19 -71 -80h-17v90q45 40 64 52q105 71 272 71q39 0 88 -8q17 -2 38 -8 t54 -19.5t63 -39t48 -58.5q15 -29 21 -59t6 -88v-457q0 -88 16 -127q17 -36 46 -53t54 -17q26 0 50 8l12 -30q-102 -56 -166 -56q-37 0 -72 15q-38 18 -56 44.5t-34 72.5q-76 -67 -134 -98q-93 -48 -189 -48q-68 0 -117 23q-71 30 -114.5 98t-43.5 147zM176 1159 q91 96 133 146t113 149h63l136 -166q16 -18 53 -55q14 -14 41 -37.5t35 -30.5q-44 -19 -107 -53q-7 11 -22.5 36t-20.5 33t-18 27.5t-22.5 31t-26 32t-35.5 42.5t-45 50l-185 -248zM213 258q3 -92 43 -139q19 -26 57 -49t90 -23q67 0 135.5 42t94.5 101q16 36 24 129l-2 230 q-106 -23 -188 -47q-120 -31 -180 -82q-41 -33 -57.5 -70.5t-16.5 -91.5z" />
<glyph unicode="&#xe3;" d="M47 231q0 38 12 78q33 106 129 162q45 26 111.5 46.5t150 39.5t117.5 29q47 12 60 30q24 24 24 82q0 50 -20 90q-18 39 -49.5 66t-66.5 37.5t-57.5 14t-41.5 3.5q-15 0 -41 -3t-71 -16t-75 -34q-24 -19 -71 -80h-17v90q45 40 64 52q105 71 272 71q39 0 88 -8q17 -2 38 -8 t54 -19.5t63 -39t48 -58.5q15 -29 21 -59t6 -88v-457q0 -88 16 -127q17 -36 46 -53t54 -17q26 0 50 8l12 -30q-102 -56 -166 -56q-37 0 -72 15q-38 18 -56 44.5t-34 72.5q-76 -67 -134 -98q-93 -48 -189 -48q-68 0 -117 23q-71 30 -114.5 98t-43.5 147zM137 1200 q60 100 104 139t101 39q28 0 61 -7.5t55 -15.5t44 -17l22 -9q53 -25 74.5 -32t50.5 -7q47 0 70 20.5t47 67.5l45 -26q-44 -79 -78 -119q-53 -59 -117 -59q-41 0 -102 20q-18 6 -51.5 19.5t-54 21t-51 14t-58.5 6.5q-40 -1 -58.5 -16t-43.5 -55zM213 258q3 -92 43 -139 q19 -26 57 -49t90 -23q67 0 135.5 42t94.5 101q16 36 24 129l-2 230q-106 -23 -188 -47q-120 -31 -180 -82q-41 -33 -57.5 -70.5t-16.5 -91.5z" />
<glyph unicode="&#xe4;" d="M59 217q0 72 27 129q15 35 38 62.5t46.5 45.5t58.5 33t62.5 23.5t70.5 19.5q141 33 205 52q21 7 30 11t25.5 16.5t23.5 34t7 54.5q0 42 -20 88q-18 40 -48.5 66.5t-66.5 36.5t-57.5 13t-42.5 3q-18 0 -42.5 -2.5t-68.5 -15.5t-74 -35q-32 -23 -75 -80q-7 -2 -15 6v88 q10 6 34 23.5t38 25.5q103 72 264 72q118 0 193.5 -43.5t101.5 -99.5q21 -51 23 -148v-446q2 -79 12 -114t39 -60q36 -25 67 -25q24 0 54 6l-2 -28q-54 -34 -85.5 -46t-66.5 -12q-42 0 -67 15q-41 17 -60 41.5t-39 72.5q-30 -26 -45 -37q-141 -108 -274 -108q-61 0 -111 20 q-23 8 -47 24t-51.5 43.5t-44.5 73t-17 101.5zM176 1358q9 27 36.5 45t57.5 18q37 0 63.5 -30.5t26.5 -69.5q0 -23 -12 -41q-30 -45 -86 -45q-24 0 -39 10q-28 15 -42 48.5t-5 64.5zM221 256q0 -84 37 -137q20 -28 58 -53t92 -25q68 0 136 42.5t93 102.5q15 39 20 127v230 q-156 -35 -236.5 -61t-129.5 -66q-32 -27 -49 -61t-19 -52.5t-2 -46.5zM588 1362q10 26 37 41.5t57 15.5q21 0 37 -8q23 -12 37 -37.5t14 -52.5q0 -36 -28.5 -61t-67.5 -25q-22 0 -37 10q-30 15 -45 50.5t-4 66.5z" />
<glyph unicode="&#xe5;" d="M53 227q0 72 45 152q45 68 121 103.5t240 74.5q9 2 28 6t26.5 6t22.5 5.5t22 5.5t18.5 5.5t17.5 6.5t13.5 7t12.5 8t9 9q22 26 22 82q0 53 -24 101q-30 53 -86.5 80.5t-124.5 27.5q-73 0 -131.5 -27.5t-87.5 -56.5q-17 -17 -37 -53q-11 0 -17 8v84q99 79 154 99 q75 28 188 28q114 0 187.5 -43t99.5 -98q22 -45 27 -154v-440v-8v-14v-18.5t1.5 -22t4 -23.5t6.5 -24.5t9 -23t13 -22t17 -18.5q28 -25 63 -25q13 0 52 8l12 -30q-33 -20 -53 -31t-49 -20t-58 -9q-48 0 -83.5 19.5t-49.5 40.5q-18 23 -31 73q-8 -8 -25.5 -22t-19.5 -16 q-138 -111 -278 -111q-72 0 -125 25q-71 33 -111.5 99.5t-40.5 145.5zM223 256q0 -51 13 -90q22 -57 68 -90t102 -33q68 0 136.5 42t94.5 103q16 35 20 127v232q-121 -29 -202 -53q-119 -31 -179 -95q-53 -53 -53 -143zM276 1343q3 31 25 60q27 41 73.5 63.5t98.5 22.5 q46 0 86 -16q42 -18 68.5 -51t33.5 -59.5t7 -51.5q0 -32 -15 -66q-18 -39 -63.5 -71.5t-116.5 -32.5q-61 0 -104 22q-63 31 -82.5 84.5t-10.5 95.5zM349.5 1310q-2.5 -21 10 -51.5t39.5 -50.5q32 -22 72 -22q53 0 85 36.5t32 90.5q0 55 -31.5 93t-81.5 38q-46 0 -79 -27 t-42 -71q-2 -15 -4.5 -36z" />
<glyph unicode="&#xe6;" horiz-adv-x="1622" d="M51 221q0 90 51 170q23 32 56.5 54.5t76.5 36t79 20.5t90 15.5t83 14.5q31 5 95 25q48 17 65 41t17 76q0 57 -25 112q-56 119 -215 119q-46 0 -86 -12q-52 -17 -80.5 -46t-64.5 -89h-25l6 104q54 54 91.5 76.5t107.5 40.5q55 14 98 14q41 0 98 -14q75 -21 113 -47t94 -88 q44 39 78 63q105 78 262 78q177 0 303 -115q83 -78 109 -170q21 -71 18 -225q-150 6 -299 6q-195 3 -434 -4q3 -69 5.5 -101.5t16 -84.5t39.5 -94q13 -20 28 -39t42.5 -43.5t58 -42.5t75 -30.5t93.5 -12.5q24 0 55.5 3.5t85 21.5t93.5 48q14 11 29.5 26.5t27.5 29.5l13 14 h22l-10 -100q-82 -51 -84 -52q-126 -69 -268 -69q-148 0 -263 67q-56 32 -92.5 69.5t-87.5 105.5q-31 -61 -67 -105q-52 -61 -131 -96t-162 -35q-53 0 -111 20q-24 9 -49 24t-54.5 43t-48 74t-18.5 103zM207 242q0 -46 14 -74q15 -40 41 -67.5t55 -39t50.5 -16t40.5 -4.5 q67 0 126 36.5t89 94.5q25 44 36 106.5t9.5 118.5t-2.5 115q-116 -23 -217 -45q-79 -18 -128.5 -43t-82.5 -78q-31 -44 -31 -104zM817 557q192 -12 289 -12q92 0 276 12v64q-2 22 -3 30t-5.5 36.5t-12.5 48t-20.5 46.5t-33.5 51t-47 44q-76 53 -150 53q-60 0 -118 -33.5 t-99 -87.5q-25 -34 -41 -81t-21.5 -78t-13.5 -93z" />
<glyph unicode="&#xe7;" d="M90 498q0 209 125 354q142 164 385 164q88 0 155.5 -16t172.5 -54q-8 -19 -13.5 -33t-10 -27t-6.5 -19.5t-4.5 -19t-3 -16t-2.5 -19t-3 -21.5l-29 4q0 1 -3 9.5t-3.5 10l-3 9t-4.5 10t-5.5 9t-6.5 10t-8 9.5t-11.5 11.5t-13.5 11.5q-82 67 -193 67q-94 0 -164 -45 q-71 -46 -118 -141q-1 -1 -7 -13t-13 -29.5t-11 -29.5q-31 -81 -31 -190q0 -99 32 -181.5t66 -127.5q27 -38 70 -70q72 -52 137 -66q21 -6 78 -6q85 0 146.5 28t95.5 64q13 13 30 43l31 -8l-20 -114q-50 -24 -81 -37.5t-105 -31.5t-152 -20l-13 -92q40 4 66 4q64 0 115 -34 q5 -4 12 -12.5t12 -14.5t6 -6q17 -25 17 -33q12 -30 12 -59q0 -36 -18.5 -72.5t-48.5 -60.5q-64 -46 -162 -46q-66 0 -125 17l-4 70q75 -33 121 -33q56 0 94.5 31t38.5 85q0 23 -6 41q-8 30 -30 48t-39.5 22t-33.5 4q-22 0 -41 -9.5t-24.5 -15t-16.5 -18.5l-31 19 q2 6 11.5 28.5t14.5 37t12.5 43t11.5 59.5q-166 11 -279 114q-49 40 -90 101q-80 130 -80 303z" />
<glyph unicode="&#xe8;" horiz-adv-x="1110" d="M92 467q0 107 39 207q14 36 33.5 70.5t58 80.5t85 79.5t118 57t154.5 23.5q57 0 100 -8q163 -26 250 -135q49 -58 74 -131q26 -82 30 -240q-266 12 -399 12q-121 0 -363 -8q2 -40 13 -98q32 -231 186 -307q89 -43 195 -43q127 0 219 65q25 18 73 70l23 -8l-23 -109 q-61 -34 -73 -39q-116 -51 -281 -51q-132 0 -233 43q-130 59 -204.5 188t-74.5 281zM283 543h585q0 24 -4 78q-10 171 -116 251q-75 52 -164 52q-139 0 -222 -113q-38 -57 -57 -117q-15 -53 -22 -151zM319 1430v30h187l211 -348h-47q-142 137 -172 164q-33 30 -99.5 86 t-79.5 68z" />
<glyph unicode="&#xe9;" horiz-adv-x="1110" d="M92 467q0 107 39 207q14 36 33.5 70.5t58 80.5t85 79.5t118 57t154.5 23.5q57 0 100 -8q163 -26 250 -135q49 -58 74 -131q26 -82 30 -240q-266 12 -399 12q-121 0 -363 -8q2 -40 13 -98q32 -231 186 -307q89 -43 195 -43q127 0 219 65q25 18 73 70l23 -8l-23 -109 q-61 -34 -73 -39q-116 -51 -281 -51q-132 0 -233 43q-130 59 -204.5 188t-74.5 281zM283 543h585q0 24 -4 78q-10 171 -116 251q-75 52 -164 52q-139 0 -222 -113q-38 -57 -57 -117q-15 -53 -22 -151zM432 1112l223 348h189v-39q-107 -85 -117 -94q-90 -75 -238 -215h-57z " />
<glyph unicode="&#xea;" horiz-adv-x="1110" d="M92 467q0 107 39 207q14 36 33.5 70.5t58 80.5t85 79.5t118 57t154.5 23.5q57 0 100 -8q163 -26 250 -135q49 -58 74 -131q26 -82 30 -240q-266 12 -399 12q-121 0 -363 -8q2 -40 13 -98q32 -231 186 -307q89 -43 195 -43q127 0 219 65q25 18 73 70l23 -8l-23 -109 q-61 -34 -73 -39q-116 -51 -281 -51q-132 0 -233 43q-130 59 -204.5 188t-74.5 281zM283 543h585q0 24 -4 78q-10 171 -116 251q-75 52 -164 52q-139 0 -222 -113q-38 -57 -57 -117q-15 -53 -22 -151zM305 1159q91 96 133 146t113 149h63l134 -166l55 -55q22 -22 76 -68 q-34 -14 -109 -53q-60 99 -95 143q-32 40 -93 109l-185 -248z" />
<glyph unicode="&#xeb;" horiz-adv-x="1110" d="M92 467q0 107 39 207q14 36 33.5 70.5t58 80.5t85 79.5t118 57t154.5 23.5q57 0 100 -8q163 -26 250 -135q49 -58 74 -131q26 -82 30 -240q-266 12 -399 12q-121 0 -363 -8q2 -40 13 -98q32 -231 186 -307q89 -43 195 -43q127 0 219 65q25 18 73 70l23 -8l-23 -109 q-61 -34 -73 -39q-116 -51 -281 -51q-132 0 -233 43q-130 59 -204.5 188t-74.5 281zM281 1352q7 28 35 47.5t59 19.5q36 -1 63 -31t27 -67q0 -35 -30.5 -61.5t-67.5 -26.5q-41 0 -69 39.5t-17 79.5zM283 543h585q0 24 -4 78q-10 171 -116 251q-75 52 -164 52 q-139 0 -222 -113q-38 -57 -57 -117q-15 -53 -22 -151zM694 1358q9 27 37 44t60 17q38 -2 63 -27t25 -63q0 -39 -30.5 -66.5t-68.5 -27.5q-21 0 -35 8q-28 15 -44 50t-7 65z" />
<glyph unicode="&#xec;" horiz-adv-x="468" d="M-23 1430v30h187l211 -348h-47q-84 84 -170 164q-94 81 -181 154zM150 977q56 -8 94 -8t86 6q-15 -253 -15 -406q0 -101 15 -598q-46 6 -94 6q-40 0 -82 -6q12 266 12 402q0 202 -16 604z" />
<glyph unicode="&#xed;" horiz-adv-x="468" d="M92 1112l223 348h189l-2 -39q-97 -77 -117 -94q-90 -75 -238 -215h-55zM150 977q56 -8 94 -8t86 6q-15 -253 -15 -406q0 -101 15 -598q-46 6 -94 6q-40 0 -82 -6q12 266 12 402q0 202 -16 604z" />
<glyph unicode="&#xee;" horiz-adv-x="468" d="M-37 1159q91 96 133 146t113 149h63l134 -166l55 -55q14 -14 41 -37.5t35 -30.5q-34 -14 -109 -53q-60 99 -95 143q-32 40 -93 109l-185 -248zM150 977q56 -8 94 -8t86 6q-15 -253 -15 -406q0 -101 15 -598q-46 6 -94 6q-40 0 -82 -6q12 266 12 402q0 202 -16 604z" />
<glyph unicode="&#xef;" horiz-adv-x="468" d="M-61 1352q7 27 35.5 47t58.5 20q38 -1 64 -30.5t26 -67.5q0 -35 -30.5 -61.5t-67.5 -26.5q-40 0 -68.5 39.5t-17.5 79.5zM150 977q56 -8 94 -8t86 6q-15 -253 -15 -406q0 -101 15 -598q-46 6 -94 6q-40 0 -82 -6q12 266 12 402q0 202 -16 604zM352 1358q9 27 38 44t61 17 q37 -2 62.5 -27t25.5 -63q-1 -39 -31.5 -66.5t-69.5 -27.5q-20 0 -32 8q-30 15 -46.5 50t-7.5 65z" />
<glyph unicode="&#xf1;" horiz-adv-x="1150" d="M145 -23q17 427 17 605q0 149 -15 395q49 -8 99 -8q28 0 82 4q0 -5 -3 -40.5t-3 -53.5q-3 -43 -3 -88q31 46 52 71q104 119 276 119q119 0 201 -41q37 -18 66 -46t40.5 -47.5t18.5 -37.5q20 -52 28 -164q-1 -48 -2 -143.5t-2 -143.5v-213q1 -28 5.5 -86t5.5 -86 q-79 9 -107 9q-11 0 -84 -5q18 163 23 273q2 53 2 315q-2 54 -4.5 79t-11 65t-27.5 68t-51 52q-64 50 -160 50q-95 0 -162 -50q-65 -49 -85 -111.5t-26 -166.5q-3 -181 2 -328q0 -29 3.5 -82t3.5 -65l8 -103q-70 11 -99 11q-37 0 -88 -7zM244 1200q62 101 105 139.5 t100 38.5q28 0 61 -7.5t55 -15.5t44 -17l22 -9q53 -25 74.5 -32t50.5 -7q47 0 69.5 20.5t46.5 67.5l46 -26q-48 -87 -78 -119q-53 -59 -117 -59q-41 0 -102 20q-16 6 -50.5 19.5t-54.5 21t-51 14t-59 6.5q-39 -1 -59 -16.5t-44 -54.5z" />
<glyph unicode="&#xf2;" horiz-adv-x="1236" d="M80 500q4 149 78.5 262t194 170t265.5 57q110 0 213 -39q139 -58 220.5 -189t81.5 -286q0 -110 -41 -209q-24 -58 -58.5 -106t-71 -79.5t-79.5 -55t-80 -36t-77 -20.5t-66.5 -10t-51.5 -2q-35 0 -74.5 4.5t-100.5 23t-113.5 48.5t-106 87t-86.5 132q-47 109 -47 248z M248 494q-2 -72 11.5 -153t41.5 -136q30 -60 72 -96q53 -53 114 -74q52 -17 113 -17q103 0 182 48q32 20 61.5 51t58 78.5t46 117.5t17.5 152q0 147 -46 248.5t-110 150.5q-89 66 -201 66q-67 0 -133 -27q-61 -25 -106 -72t-67 -93.5t-35.5 -102t-16 -85.5t-2.5 -56z M362 1430v30h187l211 -348h-47q-142 137 -172 164q-33 30 -99.5 86t-79.5 68z" />
<glyph unicode="&#xf3;" horiz-adv-x="1236" d="M80 500q4 149 78.5 262t194 170t265.5 57q110 0 213 -39q139 -58 220.5 -189t81.5 -286q0 -110 -41 -209q-24 -58 -58.5 -106t-71 -79.5t-79.5 -55t-80 -36t-77 -20.5t-66.5 -10t-51.5 -2q-35 0 -74.5 4.5t-100.5 23t-113.5 48.5t-106 87t-86.5 132q-47 109 -47 248z M248 494q-2 -72 11.5 -153t41.5 -136q30 -60 72 -96q53 -53 114 -74q52 -17 113 -17q103 0 182 48q32 20 61.5 51t58 78.5t46 117.5t17.5 152q0 147 -46 248.5t-110 150.5q-89 66 -201 66q-67 0 -133 -27q-61 -25 -106 -72t-67 -93.5t-35.5 -102t-16 -85.5t-2.5 -56z M475 1112l223 348h189v-39q-74 -56 -119 -94q-69 -58 -238 -215h-55z" />
<glyph unicode="&#xf4;" horiz-adv-x="1236" d="M80 500q4 149 78.5 262t194 170t265.5 57q110 0 213 -39q139 -58 220.5 -189t81.5 -286q0 -110 -41 -209q-24 -58 -58.5 -106t-71 -79.5t-79.5 -55t-80 -36t-77 -20.5t-66.5 -10t-51.5 -2q-35 0 -74.5 4.5t-100.5 23t-113.5 48.5t-106 87t-86.5 132q-47 109 -47 248z M248 494q-2 -72 11.5 -153t41.5 -136q30 -60 72 -96q53 -53 114 -74q52 -17 113 -17q103 0 182 48q32 20 61.5 51t58 78.5t46 117.5t17.5 152q0 147 -46 248.5t-110 150.5q-89 66 -201 66q-67 0 -133 -27q-61 -25 -106 -72t-67 -93.5t-35.5 -102t-16 -85.5t-2.5 -56z M348 1159q95 102 136 150.5t108 144.5h63l136 -166q9 -9 26.5 -27.5t26.5 -27.5q21 -19 78 -68q-34 -14 -109 -53q-60 99 -95 143q-32 40 -93 109l-187 -248z" />
<glyph unicode="&#xf5;" horiz-adv-x="1236" d="M80 500q4 149 78.5 262t194 170t265.5 57q110 0 213 -39q139 -58 220.5 -189t81.5 -286q0 -110 -41 -209q-24 -58 -58.5 -106t-71 -79.5t-79.5 -55t-80 -36t-77 -20.5t-66.5 -10t-51.5 -2q-35 0 -74.5 4.5t-100.5 23t-113.5 48.5t-106 87t-86.5 132q-47 109 -47 248z M248 494q-2 -72 11.5 -153t41.5 -136q30 -60 72 -96q53 -53 114 -74q52 -17 113 -17q103 0 182 48q32 20 61.5 51t58 78.5t46 117.5t17.5 152q0 147 -46 248.5t-110 150.5q-89 66 -201 66q-67 0 -133 -27q-61 -25 -106 -72t-67 -93.5t-35.5 -102t-16 -85.5t-2.5 -56z M256 1200q61 100 104 139t101 39q18 0 39.5 -3.5t39.5 -8.5t37 -11.5t30.5 -11t22.5 -9.5l11 -5q56 -26 76 -32.5t49 -6.5q47 0 70 20.5t47 67.5l45 -26q-48 -86 -76 -119q-53 -59 -119 -59q-41 0 -102 20q-16 6 -50.5 19.5t-54.5 21t-51 14t-59 6.5q-39 -1 -59 -16.5 t-44 -54.5z" />
<glyph unicode="&#xf6;" horiz-adv-x="1236" d="M88 483q0 119 47 222q62 141 190.5 213.5t290.5 72.5q134 0 232 -43q137 -62 212 -191t75 -286q0 -104 -37 -205q-61 -155 -191 -234t-301 -79q-120 0 -217 41q-142 61 -222.5 193.5t-78.5 295.5zM256 471q0 -139 35 -231q40 -104 125 -166t192 -62q151 0 250 111 q76 84 100 235q9 72 9 115q0 115 -31 207q-9 28 -21 54t-38.5 64t-59.5 65t-87 47t-118 20q-91 0 -170 -45q-182 -103 -186 -414zM336 1362q9 26 36 42.5t58 16.5q36 0 62 -30.5t26 -69.5q0 -36 -30 -61t-68 -25q-25 0 -43 12q-26 17 -38.5 51.5t-2.5 63.5zM743 1337 q0 14 5 29q10 26 37 41.5t57 15.5q37 0 62.5 -28t25.5 -66q0 -25 -8 -39q-16 -29 -44.5 -40t-48.5 -11q-22 0 -38 10q-48 26 -48 88z" />
<glyph unicode="&#xf7;" horiz-adv-x="1366" d="M0 535v120h1366v-120h-1366zM592 330q0 10 6 28q4 13 12 26t29 25.5t49 12.5q39 0 66 -27.5t26 -66.5q0 -38 -27 -65t-67 -27t-67 26.5t-27 67.5zM592 862q2 40 28.5 66.5t67.5 27.5q39 -2 66 -29.5t26 -66.5q0 -39 -28 -65.5t-68 -26.5q-38 0 -65 27t-27 67z" />
<glyph unicode="&#xf8;" horiz-adv-x="1236" d="M94 479q0 121 49 230q64 136 192 209t279 73q73 0 141 -17.5t96.5 -31.5t75.5 -41q3 -1 4 -2t3 -2l4 -2l92 111q10 14 30 39.5t30 39.5l63 -55q-80 -74 -164 -172q58 -58 86 -104q70 -109 70 -271q0 -200 -111 -340q-25 -32 -58 -60.5t-84 -59.5t-122.5 -49t-153.5 -17 q-58 0 -105.5 7t-90.5 24.5t-58 25t-55 29.5l-147 -186l-60 59q47 37 75 65.5t85 100.5q-28 31 -40 44.5t-41 56.5t-43.5 79.5t-28 95t-13.5 121.5zM264 471q0 -75 12 -135.5t25 -91t35 -70.5q109 123 264 311q14 17 79 98t101 122q23 28 97 106q-125 125 -254 125 q-67 -2 -131 -28.5t-109 -73.5q-62 -64 -90.5 -162t-28.5 -201zM371 127q21 -22 36 -35.5t46 -35t72 -32.5t89 -12q31 0 69 7t96 36t98 76q34 41 57 96.5t31.5 109t11 84t2.5 56.5q0 68 -13 126.5t-26 88t-35 66.5q-36 -42 -107.5 -125t-107.5 -125q-64 -75 -319 -381z" />
<glyph unicode="&#xf9;" horiz-adv-x="1150" d="M158 305v670q71 -10 161 -6l-4 -609q2 -99 22.5 -163.5t86.5 -104.5q58 -35 129 -35q90 0 166.5 56.5t105.5 144.5q17 48 19 135q7 194 2 336q-1 35 -3 75.5t-5 89.5t-4 77q86 -9 174 -4q-13 -373 -13 -521q0 -118 9 -473q-80 11 -93 11q-16 0 -42.5 -3t-34.5 -4l10 187 q-39 -45 -58.5 -65.5t-53 -51t-68 -48.5t-76.5 -30q-63 -14 -107 -14q-86 0 -164 39q-24 12 -44.5 27.5t-35.5 30t-27 34.5t-20 34.5t-14 36.5t-9 34.5t-5 34.5t-2.5 29.5t-1 28t-0.5 21.5zM319 1430v30h187l211 -348h-47q-142 137 -172 164q-33 30 -99.5 86t-79.5 68z" />
<glyph unicode="&#xfa;" horiz-adv-x="1150" d="M158 305v670q71 -10 161 -6l-4 -609q2 -99 22.5 -163.5t86.5 -104.5q58 -35 129 -35q90 0 166.5 56.5t105.5 144.5q17 48 19 135q7 194 2 336q-1 35 -3 75.5t-5 89.5t-4 77q86 -9 174 -4q-13 -373 -13 -521q0 -118 9 -473q-80 11 -93 11q-16 0 -42.5 -3t-34.5 -4l10 187 q-39 -45 -58.5 -65.5t-53 -51t-68 -48.5t-76.5 -30q-63 -14 -107 -14q-86 0 -164 39q-24 12 -44.5 27.5t-35.5 30t-27 34.5t-20 34.5t-14 36.5t-9 34.5t-5 34.5t-2.5 29.5t-1 28t-0.5 21.5zM432 1112l223 348h189v-39q-107 -85 -117 -94q-90 -75 -238 -215h-57z" />
<glyph unicode="&#xfb;" horiz-adv-x="1150" d="M158 305v670q71 -10 161 -6l-4 -609q2 -99 22.5 -163.5t86.5 -104.5q58 -35 129 -35q90 0 166.5 56.5t105.5 144.5q17 48 19 135q7 194 2 336q-1 35 -3 75.5t-5 89.5t-4 77q86 -9 174 -4q-13 -373 -13 -521q0 -118 9 -473q-80 11 -93 11q-16 0 -42.5 -3t-34.5 -4l10 187 q-39 -45 -58.5 -65.5t-53 -51t-68 -48.5t-76.5 -30q-63 -14 -107 -14q-86 0 -164 39q-24 12 -44.5 27.5t-35.5 30t-27 34.5t-20 34.5t-14 36.5t-9 34.5t-5 34.5t-2.5 29.5t-1 28t-0.5 21.5zM305 1159q91 96 133 146t113 149h63l134 -166l55 -55q22 -22 76 -68 q-34 -14 -109 -53q-60 99 -95 143q-32 40 -93 109l-185 -248z" />
<glyph unicode="&#xfc;" horiz-adv-x="1150" d="M158 297v680q81 -10 166 -6q-13 -314 -13 -436v-183q2 -45 5 -72t11.5 -64t26.5 -65t47 -51q60 -47 140 -47q91 2 167 55.5t107 139.5q23 59 23 145q5 254 4 303q-2 70 -15 277q29 -3 50 -4.5t38.5 -2t26.5 0t28.5 1.5t30.5 1q-12 -332 -12 -500q0 -96 3.5 -271t4.5 -231 q-60 10 -94 10q-26 0 -76 -4l15 183q-3 -3 -32.5 -35.5t-45.5 -48.5q-123 -123 -285 -123q-98 0 -182 51t-115 137q-24 60 -24 160zM270 1331q0 12 6 33q12 26 39.5 42.5t55.5 16.5q36 0 63 -29.5t27 -68.5q0 -37 -28.5 -62.5t-65.5 -25.5q-38 0 -67.5 27.5t-29.5 66.5z M684 1337q0 17 4 31q10 24 37 38.5t57 14.5q25 0 41 -8q23 -12 36 -37t13 -53q0 -36 -29.5 -61t-68.5 -25q-38 0 -64 30t-26 70z" />
<glyph unicode="&#xff;" d="M6 981q57 -10 107 -10q47 0 96 6q69 -204 125 -356q64 -171 178 -451q129 279 182 410.5t142 400.5q58 -14 88 -14q14 0 67 6q-97 -180 -119 -225q-57 -115 -167 -349q-115 -241 -136 -288l-123 -287q-9 -21 -40 -97.5t-48 -119.5q-12 -31 -33 -94t-32 -91q-42 7 -76 7 q-24 0 -74 -4q7 13 39 66t39 65t32 56.5t37.5 70.5t36 74t47 100.5t52.5 119.5q-180 452 -258 635q-80 184 -162 369zM195 1352q7 27 35.5 47t58.5 20q38 -1 64 -30.5t26 -67.5q0 -35 -30.5 -61.5t-67.5 -26.5q-41 0 -69 39.5t-17 79.5zM608 1358q9 27 38 44t61 17 q37 -2 62.5 -27t25.5 -63q-1 -39 -31.5 -66.5t-69.5 -27.5q-20 0 -32 8q-30 15 -46.5 50t-7.5 65z" />
<glyph unicode="&#x152;" horiz-adv-x="2260" d="M109 700q0 290 165 484q115 134 274.5 200t342.5 66q190 0 356 -84q66 -31 125 -80q52 -46 115 -129q0 107 -4 158q-2 37 -10 102q208 -8 315 -8q53 0 113 1t133.5 2.5t115.5 2.5l-2 -106q-205 16 -315 20q-21 0 -60 0.5t-71 0.5t-60 -1q-9 -183 -12 -360v-195l479 6 l-2 -104q-202 15 -237 16q-40 2 -240 2q0 -157 -2 -237q0 -181 2 -217q3 -84 12 -170q178 -4 267 0q42 1 252 16l-2 -119q-72 10 -102.5 11.5t-155.5 3.5q-140 4 -213 4q-84 0 -220 -11l9 234q-72 -72 -119 -109q-206 -153 -479 -153q-262 0 -461 133q-53 36 -99.5 82.5 t-97.5 121t-81.5 182.5t-30.5 234zM295 694q0 -292 151 -469q55 -69 144 -123q140 -84 303 -84q114 0 219 45q49 21 94.5 51t96.5 83t88 119t61.5 164t24.5 212q0 257 -113 428q-40 66 -109 123q-61 48 -137 78q-116 51 -252 51q-205 0 -360 -135q-213 -183 -211 -543z" />
<glyph unicode="&#x153;" horiz-adv-x="1921" d="M94 475q0 35 4 72t20.5 93t43.5 105t77.5 100.5t118.5 86.5q115 59 246 59q62 0 137 -15t127 -40q73 -34 181 -145q36 48 67 77q57 56 138 86.5t165 30.5q63 0 127 -18q182 -56 254 -219q28 -65 35.5 -128.5t7.5 -158.5q-94 13 -151 16.5t-203 3.5q-193 0 -383 -6 q3 -71 6.5 -109t21 -89.5t50.5 -94.5q17 -23 40 -45.5t59 -47.5t87 -40.5t109 -15.5q25 0 55 3.5t82.5 20t91.5 45.5q34 30 70 70l20 -10l-16 -101q-2 -1 -28.5 -17t-37 -21.5t-38.5 -20t-49.5 -20.5t-52.5 -15t-64.5 -12.5t-69.5 -3.5q-188 0 -309 96q-42 32 -111 121 q-22 -30 -34 -45t-43.5 -46t-61 -49.5t-78 -37.5t-103.5 -27q-54 -6 -92 -6q-188 0 -331 113q-59 47 -99 107t-57 119.5t-23 100.5t-6 78zM266 463q1 -98 24 -177t59.5 -128.5t84.5 -82.5t94.5 -46t92.5 -13q141 0 241 121q41 52 73 141t32 205q0 23 -2 48.5t-11 74.5 t-25 91.5t-48.5 90.5t-75.5 80q-90 66 -193 66q-97 0 -184 -66q-164 -125 -162 -405zM1108 551q132 -6 264 -6t299 10q-7 121 -29 188q-6 19 -14.5 37.5t-28 46t-44 47t-64 34t-86.5 14.5q-39 0 -74 -11t-57 -24.5t-44 -35.5t-31 -34.5t-21 -30.5q-39 -69 -52 -114 q-11 -54 -18 -121z" />
<glyph unicode="&#x178;" horiz-adv-x="1193" d="M10 1430q69 -11 119 -11q37 0 107 4q126 -250 190 -362q105 -187 219 -369q123 200 225 383q112 218 172 346q81 -5 160 0q-179 -266 -252 -383q-80 -128 -256 -432q-5 -285 -2 -366q2 -50 9.5 -144.5t9.5 -118.5q-94 6 -201 0q15 288 16 345q2 88 2 264zM311 1657 q9 26 37 42.5t58 16.5q18 0 30 -6q25 -12 41.5 -39t16.5 -55q-1 -35 -31 -59.5t-68 -24.5q-25 0 -41 10q-28 17 -40.5 50.5t-2.5 64.5zM725 1659q10 27 37 43t57 16q36 -1 62 -30t26 -68q0 -36 -30 -62t-68 -26q-25 0 -43 12q-27 19 -39 52.5t-2 62.5z" />
<glyph unicode="&#x2c6;" horiz-adv-x="598" d="M-164 1159q95 102 136 150.5t108 144.5h63l136 -166q9 -9 26.5 -27.5t26.5 -27.5q21 -19 78 -68q-34 -14 -109 -53q-60 99 -95 143q-32 40 -93 109l-187 -248z" />
<glyph unicode="&#x2dc;" horiz-adv-x="598" d="M-225 1200q60 100 104 139t101 39q28 0 61 -7.5t55 -15.5t44 -17l22 -9q53 -25 74.5 -32t50.5 -7q32 0 54.5 12.5t33 27.5t28.5 48l46 -26q-44 -79 -78 -119q-53 -59 -117 -59q-41 0 -102 20q-18 6 -51.5 19.5t-54 21t-51 14t-58.5 6.5q-40 -1 -59.5 -16t-45.5 -55z" />
<glyph unicode="&#x2000;" horiz-adv-x="939" />
<glyph unicode="&#x2001;" horiz-adv-x="1878" />
<glyph unicode="&#x2002;" horiz-adv-x="939" />
<glyph unicode="&#x2003;" horiz-adv-x="1878" />
<glyph unicode="&#x2004;" horiz-adv-x="626" />
<glyph unicode="&#x2005;" horiz-adv-x="469" />
<glyph unicode="&#x2006;" horiz-adv-x="313" />
<glyph unicode="&#x2007;" horiz-adv-x="313" />
<glyph unicode="&#x2008;" horiz-adv-x="234" />
<glyph unicode="&#x2009;" horiz-adv-x="375" />
<glyph unicode="&#x200a;" horiz-adv-x="104" />
<glyph unicode="&#x2010;" horiz-adv-x="681" d="M88 524v148q252 -6 254 -6q88 0 264 8v-146q-185 9 -250 9q-73 0 -268 -13z" />
<glyph unicode="&#x2011;" horiz-adv-x="681" d="M88 524v148q252 -6 254 -6q88 0 264 8v-146q-185 9 -250 9q-73 0 -268 -13z" />
<glyph unicode="&#x2012;" horiz-adv-x="681" d="M88 524v148q252 -6 254 -6q88 0 264 8v-146q-185 9 -250 9q-73 0 -268 -13z" />
<glyph unicode="&#x2013;" horiz-adv-x="1110" d="M72 520v150q423 -19 534 -19q118 0 428 13v-152q-348 16 -522 16q-146 0 -440 -8z" />
<glyph unicode="&#x2014;" horiz-adv-x="1366" d="M0 537v120h1366v-120h-1366z" />
<glyph unicode="&#x2018;" horiz-adv-x="468" d="M94 911q0 20 8 38t31 52l236 418l30 -14l-135 -455q-7 -30 -11 -44t-16 -33.5t-30 -32.5q-1 0 -9 -4.5t-17.5 -7.5t-18.5 -3q-29 0 -48.5 26.5t-19.5 59.5z" />
<glyph unicode="&#x2019;" horiz-adv-x="468" d="M70 858l153 442q14 39 27 66q3 10 9.5 20.5t24.5 21.5t42 11q21 0 36 -10.5t21.5 -26t9 -26.5t2.5 -19q0 -29 -39 -88l-245 -405z" />
<glyph unicode="&#x201a;" horiz-adv-x="468" d="M23 -354q51 175 96 319q3 10 14 48t17 59q2 5 7 20.5t7 24.5q2 6 6.5 25.5t9.5 29.5q25 64 82 64q27 0 49.5 -19t22.5 -59q0 -15 -5.5 -31.5t-11.5 -28t-23 -40t-28 -48.5q-50 -93 -121 -217q-18 -31 -50.5 -91.5t-37.5 -70.5z" />
<glyph unicode="&#x201c;" horiz-adv-x="811" d="M106 940q0 35 44 90l249 395l35 -18l-35 -86l-127 -346q0 -1 -3.5 -12t-4 -13t-3.5 -11.5t-4.5 -12.5t-5 -11t-6 -11.5t-7 -9.5t-8.5 -9.5t-9.5 -7.5t-11.5 -7q-20 -10 -41 -10q-34 0 -48 29t-14 51zM471 940q0 32 37 84l233 401l35 -16q-8 -21 -41 -119 q-27 -91 -51 -166q-7 -24 -47 -147q-12 -73 -51 -100q-26 -17 -49 -17q-29 0 -47.5 24.5t-18.5 55.5z" />
<glyph unicode="&#x201d;" horiz-adv-x="811" d="M74 862l135 441q7 27 11.5 41.5t16 33t27.5 29.5q21 16 51 16q27 0 44.5 -24t17.5 -56q0 -9 -2 -18t-4 -15.5t-7.5 -16t-8 -14t-10 -16t-9.5 -14.5l-230 -399zM418 860l155 436q17 44 24.5 60.5t20.5 33t31 23.5q6 6 29 6q17 0 31 -6q34 -20 34 -61q0 -42 -51 -121 l-243 -381z" />
<glyph unicode="&#x201e;" horiz-adv-x="811" d="M37 -348l145 448q1 5 3 14.5t3 14.5q19 58 59 72q14 4 29 4q25 -1 40.5 -19t19.5 -33.5t4 -25.5q0 -34 -37 -86l-235 -399zM379 -344l164 444q12 46 25.5 67t37.5 32q19 8 37 8q34 0 49 -26.5t15 -47.5q0 -7 -1.5 -14t-3.5 -12.5t-7.5 -15t-8.5 -15t-11.5 -19 t-12.5 -20.5l-252 -395z" />
<glyph unicode="&#x2022;" horiz-adv-x="681" d="M96 721q1 104 74 175t176 71q101 0 170.5 -70.5t69.5 -173.5q0 -55 -23 -107q-29 -65 -87.5 -101t-131.5 -36q-52 0 -104 23q-66 29 -105 88t-39 131z" />
<glyph unicode="&#x2026;" horiz-adv-x="2048" d="M246 84q0 40 28.5 67t67.5 27q41 0 67.5 -26.5t26.5 -67.5q0 -40 -27 -68.5t-67 -27.5q-40 0 -68 28t-28 68zM930 84q0 40 28 67t68 27t66 -26.5t28 -67.5q0 -39 -28 -68t-68 -28q-41 0 -67.5 28t-26.5 68zM1612 84q0 40 28.5 67t67.5 27q40 0 67 -26.5t27 -67.5 q0 -38 -28 -67t-66 -29q-41 0 -68.5 28t-27.5 68z" />
<glyph unicode="&#x202f;" horiz-adv-x="375" />
<glyph unicode="&#x205f;" horiz-adv-x="469" />
<glyph unicode="&#x2122;" horiz-adv-x="1406" d="M49 1362v84h537v-84h-217v-596h-99v596h-221zM643 766v680h137l176 -557l174 557h140v-680h-94v446q1 23 2 69t2 69q-5 -20 -17.5 -59t-17.5 -58l-148 -467h-86l-147 469l-19 57q-6 29 -16 56q4 -43 4 -136l4 -446h-94z" />
<glyph unicode="&#x25fc;" horiz-adv-x="972" d="M0 0v973h973v-973h-973z" />
<glyph unicode="&#xfb01;" horiz-adv-x="1024" d="M37 874v91l151 -7q3 124 18 194q28 124 105 237q52 79 113 120q53 31 162 39v-159l-27 -17q-27 20 -43.5 27.5t-42.5 7.5q-42 0 -84 -25q-72 -50 -72 -176q0 -43 6 -102.5t11.5 -101.5t5.5 -44l235 7v-91l-231 9q0 -311 -2 -469q-3 -151 0 -299l6 -142q-79 9 -92 9 q-32 0 -86 -9l12 86q6 74 6 226q0 39 -1 116.5t-1 116.5q0 244 2 367zM700 1331q0 19 9 37q11 22 36.5 34.5t53.5 12.5q17 0 41 -8q28 -15 38.5 -42.5t10.5 -45.5q0 -38 -29.5 -63t-71.5 -25q-38 0 -63 29.5t-25 70.5zM705 -25q14 219 14 283v231q0 242 -2 289 q-4 130 -8 201q78 -12 98 -12q13 0 27 1t30.5 2.5t26.5 2.5q-21 -361 -21 -516q0 -131 13 -482q-89 7 -178 0z" />
<glyph unicode="&#xfb02;" horiz-adv-x="1024" d="M37 874v91l151 -7q3 124 18 194q28 124 105 237q52 79 113 120q53 31 162 39v-159l-27 -17q-27 20 -43.5 27.5t-42.5 7.5q-42 0 -84 -25q-72 -50 -72 -176q0 -43 6 -102.5t11.5 -101.5t5.5 -44l235 7v-91l-231 9q0 -311 -2 -469q-3 -151 0 -299l6 -142q-79 9 -92 9 q-32 0 -86 -9l12 86q6 74 6 226q0 39 -1 116.5t-1 116.5q0 244 2 367zM692 -23q20 375 21 449q2 57 2 174l-1 175q0 175 1 175v385q-3 108 -6 213q53 -10 76 -11.5t108 3.5q-12 -160 -16 -248q-2 -81 -3 -232t-2 -186q0 -82 -2 -247t-2 -248q0 -137 4 -207q1 -31 4.5 -96 t4.5 -99q-7 0 -43.5 3.5t-57.5 3.5q-17 0 -49 -3.5t-39 -3.5z" />
</font>
</defs>
</svg>
